<svg id="bfca6550-aec3-4c0b-b342-e4bc13b78253" data-name="Layer 1" xmlns="http://www.w3.org/2000/svg" width="840.5" height="427.81293" viewBox="0 0 840.5 427.81293"><ellipse cx="180.87223" cy="328.665" rx="29.09932" ry="59.37437" fill="#e6e6e6"/><path d="M363.30943,661.99829c-11.65458-69.92526-.11734-139.59789.00056-140.29293l2.267.384c-.11734.69168-11.58834,69.99825.00056,139.53165Z" transform="translate(-179.75 -236.14703)" fill="#3f3d56"/><rect x="358.70631" y="558.94618" width="29.84136" height="2.29972" transform="translate(-399.75211 6.28694) rotate(-28.1416)" fill="#3f3d56"/><rect x="344.7038" y="552.22913" width="2.29972" height="29.84239" transform="translate(-497.13412 368.28467) rotate(-61.84204)" fill="#3f3d56"/><rect x="720.05882" y="3.9629" width="47.69403" height="165.09473" fill="#3f3d56"/><polygon points="799.25 138 683.25 0 450.404 2.129 309.156 139.707 312.01 141.542 310.991 141.542 310.991 427.706 798.937 427.706 798.937 141.542 799.25 138" fill="#3f3d56"/><polygon points="683.371 0.294 538.455 170.193 538.455 427.706 798.937 427.706 798.937 137.873 683.371 0.294" fill="#2bb673"/><rect x="643.01459" y="285.29778" width="53.19723" height="47.02019" fill="#3f3d56"/><rect x="643.01459" y="203.91097" width="53.19723" height="46.27453" fill="#3f3d56"/><rect x="643.01459" y="285.29778" width="53.19723" height="47.02019" fill="#fff"/><rect x="643.01459" y="203.91097" width="53.19723" height="46.27453" fill="#fff"/><path d="M682.07942,655.46236s1.14042-23.89608,24.51916-21.11849" transform="translate(-179.75 -236.14703)" fill="#e6e6e6"/><circle cx="495.72365" cy="384.87436" r="11.70089" fill="#2bb673"/><rect x="493.81974" y="404.57796" width="3.30288" height="23.12018" fill="#e6e6e6"/><ellipse cx="110.9552" cy="237.09638" rx="56.91484" ry="116.12927" fill="#2bb673"/><path d="M297.04464,663.14809c-22.76458-136.5853-.22962-272.67317.00057-274.03181l2.267.384c-.22962,1.35528-22.69834,137.0771.00056,273.27052Z" transform="translate(-179.75 -236.14703)" fill="#3f3d56"/><rect x="286.95709" y="462.86926" width="58.36761" height="2.29972" transform="translate(-361.23295 -32.18428) rotate(-28.1416)" fill="#3f3d56"/><rect x="260.66997" y="448.63286" width="2.29972" height="58.36761" transform="translate(-462.75097 247.02458) rotate(-61.84258)" fill="#3f3d56"/><ellipse cx="245.75351" cy="167.20096" rx="77.88347" ry="158.91374" fill="#2bb673"/><path d="M434.59671,663.14809c-31.1399-186.83717-.3144-372.9922.00056-374.85051l2.267.384c-.3144,1.85494-31.07366,187.64393.00056,374.08922Z" transform="translate(-179.75 -236.14703)" fill="#3f3d56"/><rect x="420.37482" y="389.57518" width="79.87126" height="2.29972" transform="translate(-309.62058 27.14913) rotate(-28.1416)" fill="#3f3d56"/><rect x="384.82647" y="369.67007" width="2.29972" height="79.87126" transform="translate(-337.04307 320.472) rotate(-61.84329)" fill="#3f3d56"/><rect y="425.81293" width="840.5" height="2" fill="#3f3d56"/><rect x="406.60242" y="272.82126" width="53.19723" height="47.02019" fill="#3f3d56"/><rect x="406.60242" y="191.43445" width="53.19723" height="46.27453" fill="#3f3d56"/><rect x="406.60242" y="272.82126" width="53.19723" height="47.02019" fill="#fff"/><rect x="406.60242" y="191.43445" width="53.19723" height="46.27453" fill="#fff"/></svg>