<svg version="1.1" viewBox="0.0 0.0 384.0 288.0" fill="none" stroke="none" stroke-linecap="square" stroke-miterlimit="10" xmlns:xlink="http://www.w3.org/1999/xlink" xmlns="http://www.w3.org/2000/svg"><clipPath id="gf3f5b83143_0_0.0"><path d="m0 0l384.0 0l0 288.0l-384.0 0l0 -288.0z" clip-rule="nonzero"/></clipPath><g clip-path="url(#gf3f5b83143_0_0.0)"><path fill="#ffffff" d="m0 0l384.0 0l0 288.0l-384.0 0z" fill-rule="evenodd"/><path fill="#000000" fill-opacity="0.0" d="m6.544882 59.43255l370.92914 0l0 169.13385l-370.92914 0z" fill-rule="evenodd"/><path fill="#000000" d="m153.00783 103.03268l29.796875 76.79687q1.71875 4.40625 3.859375 6.0625q2.15625 1.65625 3.875 1.78125l0 2.453125q-3.6875 -0.25 -8.65625 -0.3125q-4.953125 -0.0625 -9.984375 -0.0625q-5.640625 0 -10.671875 0.0625q-5.03125 0.0625 -7.96875 0.3125l0 -2.453125q6.25 -0.25 7.90625 -2.140625q1.65625 -1.90625 -0.796875 -8.15625l-20.859375 -57.046867l2.21875 -3.1875l-18.65625 48.578117q-2.6875 6.75 -3.25 11.046875q-0.546875 4.28125 0.609375 6.609375q1.171875 2.328125 3.8125 3.25q2.640625 0.921875 6.3125 1.046875l0 2.453125q-4.046875 -0.25 -7.734375 -0.3125q-3.671875 -0.0625 -7.46875 -0.0625q-2.703125 0 -5.09375 0.0625q-2.390625 0.0625 -4.234375 0.3125l0 -2.453125q2.578125 -0.484375 5.28125 -3.3125q2.703125 -2.828125 5.265625 -9.5625l27.96875 -71.76562q1.96875 0.125 4.234375 0.125q2.265625 0 4.234375 -0.125zm8.578125 51.765617l0 2.453125l-36.546875 0l1.234375 -2.453125l35.3125 0z" fill-rule="nonzero"/><path fill="#ff0000" d="m238.36647 101.56393q8.109375 0 13.3125 2.390625q5.2187653 2.390625 9.26564 5.59375q2.453125 1.828125 3.734375 0.421875q1.296875 -1.40625 1.78125 -6.6875l2.828125 0q-0.25 4.78125 -0.375 11.59375q-0.125 6.8125 -0.125 18.093742l-2.8125 0q-0.625 -5.6406174 -1.609375 -9.624992q-0.96875 -3.984375 -2.6875 -7.046875q-1.71875 -3.078125 -4.90625 -5.53125q-3.0625153 -3.0625 -7.1093903 -4.53125q-4.046875 -1.484375 -8.46875 -1.484375q-6.625 0 -11.28125 3.5q-4.65625 3.5 -7.546875 9.515625q-2.875 6.0 -4.234375 13.546867q-1.34375 7.546875 -1.34375 15.640625q0 8.21875 1.40625 15.765625q1.40625 7.53125 4.40625 13.421875q3.015625 5.890625 7.796875 9.328125q4.78125 3.421875 11.28125 3.421875q4.046875 0 8.15625 -1.53125q4.109375 -1.53125 7.0625153 -4.46875q4.78125 -3.6875 6.5 -9.140625q1.71875 -5.453125 2.578125 -14.53125l2.8125 0q0 11.65625 0.125 18.828125q0.125 7.171875 0.375 12.078125l-2.828125 0q-0.484375 -5.28125 -1.65625 -6.625q-1.15625 -1.34375 -3.859375 0.375q-4.546875 3.1875 -9.64064 5.578125q-5.078125 2.390625 -13.046875 2.390625q-13.0 0 -22.765625 -5.265625q-9.75 -5.28125 -15.140625 -15.21875q-5.390625 -9.9375 -5.390625 -23.921875q0 -13.734375 5.578125 -24.031242q5.578125 -10.3125 15.328125 -16.078125q9.75 -5.765625 22.5 -5.765625z" fill-rule="nonzero"/></g></svg>