<svg xmlns="http://www.w3.org/2000/svg" width="54" height="54" viewBox="0 0 54 54">
  <path d="M10.736 20.663c-.676 4.077-1.213 7.43-1.192 7.451.021.021.609.032 1.307.025l1.27-.013 1.209-7.29c.665-4.01 1.222-7.356 1.238-7.438l.029-.147h-2.632l-1.23 7.413M24.8 20.8v7.3h.3V13.5h-.3v7.3m6.5-5.928c-.53.149-.85.345-1.333.818-.378.37-.671.795-.916 1.329-.498 1.084-.904 2.813-1.057 4.506-.087.963-.088 2.814-.001 3.2.084.376.319.878.514 1.1.492.561 1.508.715 2.867.434l.649-.134.108-.65c.062-.373.09-.67.065-.696-.027-.028-.383-.011-.912.045-.478.05-.948.076-1.046.057a.896.896 0 0 1-.638-.506c-.114-.228-.127-.317-.142-1.022-.024-1.074.114-2.337.423-3.876.331-1.65.915-2.868 1.524-3.179.217-.11.468-.122 1.016-.046.439.061.697.011.921-.178.15-.126.323-.476.376-.76.035-.189.101-.161-.856-.364-.758-.161-1.193-.183-1.561-.079m12.478.083c-.013.039-.105.61-.203 1.27a79.86 79.86 0 0 1-.206 1.338l-.027.138h-.591c-1.088 0-1.652.304-2.294 1.234-.563.816-.998 2.537-1.161 4.584-.17 2.142.17 2.788 1.512 2.869l.433.026.4-.282c.22-.155.413-.282.43-.282.016 0 .03.033.03.072 0 .04.053.134.119.21.116.134.132.138.662.14l.544.002.842-5.466c.463-3.006.828-5.52.812-5.587-.051-.202-.218-.268-.767-.304-.413-.027-.513-.02-.533.037m-38.131 2.2a342.354 342.354 0 0 1-3.063 1.908l-.437.261v2.712l2.513 1.567c1.382.862 2.767 1.732 3.078 1.933.311.202.575.366.588.366.012 0 .023-.672.023-1.494v-1.494l-1.781-1.113c-1.227-.767-1.76-1.126-1.713-1.153.038-.022.834-.522 1.769-1.11l1.7-1.07.013-1.483c.007-.816-.004-1.482-.025-1.48-.021.001-1.22.744-2.663 1.651m10.05-.187v1.466l1.799 1.121c1.584.987 1.788 1.129 1.713 1.186-.047.036-.857.542-1.798 1.125l-1.714 1.06-.001 1.493c-.001 1.175.013 1.487.062 1.468.034-.014 1.446-.892 3.138-1.951l3.075-1.926.013-1.324.013-1.324-.238-.139a559.746 559.746 0 0 1-5.095-3.179c-.471-.299-.882-.543-.913-.543-.039 0-.055.427-.055 1.466m20.42.808c-.453.099-.792.293-1.163.669-.621.629-.965 1.413-1.258 2.873-.26 1.293-.362 3.524-.188 4.087.127.409.331.661.673.829.282.138.316.143 1.041.141.658-.001.785-.015 1.031-.114.81-.323 1.285-.938 1.801-2.33.319-.861.482-2.023.528-3.76.027-1.028.022-1.129-.076-1.45-.111-.364-.336-.653-.622-.802-.389-.201-1.2-.267-1.767-.144m11.779-.021c-.335.069-.808.32-1.099.581-1.043.938-1.61 2.978-1.622 5.841-.005 1.089.022 1.249.267 1.636.365.576 1.351.732 2.935.464.407-.069.756-.142.775-.163.05-.051.211-1.262.173-1.299-.017-.017-.305.021-.641.083-1.143.212-1.826.193-1.987-.057-.09-.14-.128-1.053-.077-1.868l.035-.563.933-.016c.892-.016.945-.022 1.221-.152a2.05 2.05 0 0 0 .893-.893c.258-.532.365-1.093.367-1.922.001-.659-.011-.777-.104-.975-.241-.515-.606-.714-1.345-.732a4.399 4.399 0 0 0-.725.034m-11.654 1.374c-.283.154-.562.657-.846 1.522-.314.96-.474 1.909-.529 3.15-.034.762.014 1.002.235 1.166.171.127.542.128.758.002.369-.215.747-.985.933-1.896.148-.725.302-1.99.337-2.77.034-.756-.009-.981-.219-1.147-.151-.119-.475-.132-.669-.026m5.801-.001c-.51.277-1.06 2.039-1.268 4.064-.125 1.212-.094 1.626.135 1.786.172.121.301.094.849-.179l.513-.255.414-2.682c.228-1.475.413-2.71.413-2.745-.002-.091-.884-.082-1.055.011m5.778.019c-.413.188-.623.563-.818 1.461a7.592 7.592 0 0 1-.138.568c-.032.083.004.088.511.067.308-.012.605-.051.683-.089.508-.247.847-1.831.438-2.049-.146-.078-.455-.059-.677.042" fill="#2c2c2c" fill-rule="evenodd"/>
  <path d="M26.784 29.883c-.019.019-.034.098-.034.176v.141h.9v3.949l-.228-.174c-.343-.262-.689-.348-1.397-.347-.473.001-.674.024-.952.109-.896.277-1.441.89-1.735 1.952-.093.336-.107.522-.109 1.46-.002.96.009 1.12.109 1.493.297 1.114.941 1.809 1.852 2.001.951.2 1.96-.086 2.373-.673l.161-.229.032.166c.018.091.048.273.066.404l.034.238h3.25l-.016-.163-.016-.163-.337-.015-.337-.015-.013-5.16-.012-5.158-1.779-.013c-.978-.007-1.794.002-1.813.021m-6.752.39c-.512.21-.73.517-.77 1.084-.034.466.056.792.292 1.06.235.267.505.383.971.419.74.056 1.267-.18 1.51-.677.117-.24.139-.347.139-.684-.001-.88-.498-1.327-1.471-1.324a1.57 1.57 0 0 0-.672.122m-17.63.499v.178h.9v9.3h-.9v.35l2.013-.001c3.027-.001 4.033-.078 4.918-.374 1.089-.364 1.646-1.018 1.769-2.077.094-.812-.122-1.533-.599-1.998-.318-.31-.931-.617-1.518-.761l-.443-.108.3-.082c.724-.198 1.302-.631 1.557-1.166.194-.407.277-1 .205-1.465-.151-.977-.782-1.543-2.028-1.823-.476-.107-.621-.112-3.335-.131L2.4 30.593v.178m3.75 2.296V35.2h.307c.42 0 .683-.089.899-.305.323-.323.37-.556.37-1.845 0-1.188-.029-1.394-.237-1.701-.167-.246-.411-.349-.907-.384l-.43-.03v2.132m30.975-1.228c-.336.112-.631.413-.773.79-.094.249-.108.371-.093.775l.019.48-.201-.088c-.371-.162-.789-.212-1.541-.182-.763.031-1.06.093-1.549.324-.863.409-1.289 1.089-1.289 2.057 0 .993.345 1.6 1.131 1.988.203.1.369.187.369.194 0 .006-.178.128-.397.271-.455.299-.862.705-.974.974-.279.668-.041 1.367.572 1.679.444.226.703.259 2.324.297 1.361.031 1.58.048 1.799.133.346.135.477.339.475.74-.003.924-.811 1.44-2.249 1.438-.925-.001-1.434-.217-1.632-.692-.077-.184-.091-.812-.023-1.047.025-.086.03-.176.013-.202-.018-.026-.224-.131-.459-.235l-.427-.188-.293.11c-.346.13-.686.444-.777.719-.097.293-.045.731.116.973.263.397.707.627 1.584.819.664.146 2.594.157 3.274.019 1.673-.339 2.529-1.221 2.525-2.601-.001-.536-.054-.797-.234-1.165-.25-.51-.745-.864-1.496-1.07-.35-.096-.573-.112-2.019-.142-.894-.019-1.653-.051-1.688-.072-.13-.08-.058-.232.202-.428l.264-.199.374.052c.486.068 1.492.026 1.874-.078.97-.264 1.544-.82 1.75-1.691.216-.917-.035-1.713-.713-2.262-.269-.218-.307-.271-.338-.473-.067-.445-.038-.932.068-1.139.148-.29.425-.392.646-.237.169.119.138.254-.092.399-.186.118-.201.142-.171.288.042.207.167.381.379.527.146.1.218.114.506.098.503-.028.796-.295.864-.788.125-.911-.72-1.489-1.7-1.163m4.431 1.766c-.879.081-1.624.412-2.185.971-.408.406-.658.861-.825 1.498-.149.571-.15 1.637-.001 2.196.325 1.221 1.057 1.952 2.285 2.287.541.147 1.923.161 2.42.023.962-.266 1.614-.908 1.904-1.874.055-.182.054-.222-.007-.26-.132-.084-.248-.049-.305.091-.311.759-.634 1.181-1.07 1.4-.511.257-1.202.276-1.656.045-.588-.298-.819-.913-.891-2.371l-.035-.713H45.2v-.447c0-1.502-.675-2.435-1.991-2.752-.463-.112-1.086-.147-1.653-.095m6.302 0c-1.048.156-1.82.878-2.004 1.875-.182.987.128 1.798.877 2.295.367.244.693.371 1.72.674.97.286 1.181.378 1.368.602.288.342.082.918-.391 1.098-.46.174-1.306.151-1.848-.052-.574-.215-1.136-.909-1.426-1.763-.074-.216-.108-.26-.208-.26h-.121v1.299c0 1.207.006 1.301.089 1.317.056.011.177-.077.328-.237.134-.143.283-.254.34-.254.056 0 .28.077.497.171.779.337 1.69.412 2.485.205.894-.233 1.477-.835 1.664-1.717.26-1.228-.196-2.229-1.244-2.73-.197-.094-.762-.286-1.255-.427-.493-.14-1.011-.316-1.15-.391-.627-.336-.532-1.002.176-1.237.4-.133 1.181-.086 1.554.093.396.191.83.668 1.097 1.207.175.353.231.427.328.427h.116v-2.25l-.113.003c-.073.002-.166.077-.264.213-.193.267-.304.279-.778.089-.626-.251-1.255-.336-1.838-.249m-31.407.06a1.935 1.935 0 0 0-1.254.906l-.145.252-.001-.537v-.538h-3.506l.016.163.016.163.388.015.388.015v6.144h-.8v.3h4.5v-.3h-1l.002-2.013c.002-2.224.033-2.562.289-3.108.163-.348.45-.696.666-.808a.892.892 0 0 1 .34-.072c.261 0 .381.155.316.408-.041.157-.059.169-.3.193-.141.014-.27.039-.286.056-.069.069-.115.586-.072.815.089.475.436.748 1.028.809.56.058 1.003-.153 1.248-.595.134-.242.144-.297.141-.785-.004-.592-.063-.779-.348-1.095-.328-.363-1.021-.529-1.623-.388m2.059.246.016.163.38.014.38.014.035 3.024c.019 1.663.022 3.046.005 3.073-.017.027-.198.049-.402.049h-.376v.3h4.306l-.016-.163-.016-.163-.388-.015-.388-.015V33.75h-3.556l.016.163m15.921.19c-.228.271-.256.471-.256 1.873 0 1.724.086 2.025.575 2.025.485 0 .574-.305.574-1.975 0-1.366-.046-1.726-.249-1.946a.423.423 0 0 0-.644.023m7.197.002c-.267.234-.334.517-.364 1.533l-.026.863h1.375l-.026-.938c-.014-.516-.053-1.026-.086-1.134-.144-.47-.54-.617-.873-.324m-15.139.094c-.362.285-.448.843-.451 2.926-.002 1.736.035 2.18.218 2.56.191.398.647.416 1.022.041.37-.37.38-.446.363-2.783l-.014-2.018-.15-.3c-.242-.483-.676-.671-.987-.426M6.15 37.926v2.339l.506-.031c.953-.058 1.295-.396 1.444-1.426.065-.451.063-1.622-.004-1.985-.151-.818-.576-1.166-1.482-1.213l-.463-.024v2.339" fill="#ec1c1c" fill-rule="evenodd"/>
</svg>