<svg xmlns="http://www.w3.org/2000/svg" width="570.567" height="120" viewBox="0 0 570.567 120"><path d="M133.333 6.541c-0.277 0.276 -0.503 25.58 -0.503 56.226 0 55.22 0.013 55.724 1.509 55.724s1.509 -0.503 1.509 -56.226c0 -46.352 -0.177 -56.226 -1.006 -56.226 -0.553 0 -1.234 0.226 -1.509 0.503M60.486 57.547c-3.8 22.935 -6.906 42.293 -6.904 43.018 0.005 1.17 0.867 1.321 7.551 1.321 4.152 0 7.546 -0.124 7.546 -0.277 0 -0.54 13.588 -83.139 13.89 -84.439 0.277 -1.193 -0.447 -1.32 -7.434 -1.32h-7.741l-6.908 41.698m114.987 -30.06c-3.194 1.432 -7.479 6.159 -9.801 10.812 -4.551 9.12 -7.854 34.11 -5.699 43.102 1.146 4.77 4.244 8.139 8.168 8.878 2.454 0.462 13.347 -0.575 14.115 -1.344 0.158 -0.158 0.523 -2.079 0.815 -4.274l0.529 -3.987 -6.158 0.181c-4.928 0.147 -6.411 -0.069 -7.425 -1.085 -4.29 -4.29 0.669 -35.563 6.735 -42.473 2.16 -2.462 2.627 -2.647 6.188 -2.481 4.941 0.232 6.808 -0.429 7.889 -2.797 1.491 -3.27 1.086 -3.93 -2.942 -4.792 -5.052 -1.085 -9.639 -0.989 -12.417 0.257m70.842 -0.2c-0.36 0.556 -1.164 4.069 -1.792 7.805l-1.139 6.793 -4.559 0.377c-2.549 0.211 -5.476 0.981 -6.645 1.746 -2.574 1.689 -6.095 7.13 -7.606 11.76 -3.035 9.276 -4.431 26.357 -2.475 30.268 1.117 2.237 5.338 4.524 8.354 4.527 1.182 0 3.098 -0.675 4.26 -1.504 1.838 -1.309 2.172 -1.352 2.562 -0.336 0.338 0.876 1.34 1.111 4.003 0.938l3.554 -0.231 4.356 -27.924c4.314 -27.654 4.936 -33.165 3.829 -33.849 -1.725 -1.067 -6.096 -1.306 -6.699 -0.369M28.114 39.877 10.567 50.945v7.966l-0.002 7.97 14.527 9.006c7.989 4.954 16.152 10.096 18.135 11.43l3.607 2.427 -0.211 -9.126 -0.211 -9.126 -9.432 -5.952c-5.189 -3.274 -9.433 -6.294 -9.433 -6.717 0 -0.422 4.245 -3.417 9.433 -6.654l9.433 -5.889 0.214 -8.799c0.117 -4.839 -0.053 -8.769 -0.377 -8.735 -0.324 0.038 -8.487 5.046 -18.136 11.132m60.944 -2.57v8.631l10.159 6.276c5.588 3.452 10.163 6.444 10.167 6.652 0.005 0.209 -4.483 3.127 -9.972 6.488l-9.976 6.111 -0.211 9.217 -0.211 9.216 4.364 -2.924c6.867 -4.602 29.972 -18.934 31.415 -19.486 1.139 -0.436 1.275 -1.501 1.087 -8.49l-0.214 -7.989 -17.736 -11.142c-9.756 -6.127 -17.991 -11.151 -18.302 -11.165 -0.312 -0.013 -0.567 3.859 -0.567 8.604m179.727 5.031c-4.673 0.892 -7.954 3.724 -10.629 9.172 -3.103 6.319 -4.644 14.234 -4.809 24.713 -0.156 9.837 0.435 11.603 4.429 13.272 3.035 1.268 9.947 1.297 14.652 0.065 3.545 -0.928 4.32 -2.112 4.483 -6.829 0.075 -2.142 0.028 -2.165 -3.132 -1.657 -11.211 1.794 -11.887 1.476 -11.887 -5.596 0 -6.477 0.238 -6.801 5.01 -6.801 9.675 0 13.955 -5.207 14.087 -17.145 0.042 -3.621 -0.279 -5.056 -1.401 -6.297 -2.704 -2.99 -5.873 -3.839 -10.8 -2.9m-68.166 1.627c-1.524 0.931 -3.474 2.594 -4.333 3.691 -4.149 5.311 -6.817 16.491 -6.951 29.134 -0.072 6.747 0.132 8.183 1.4 9.891 2.301 3.102 4.599 3.974 9.736 3.696 5.974 -0.323 9.309 -2.527 12.271 -8.114 3.627 -6.838 4.704 -11.601 5.157 -22.8 0.47 -11.617 -0.135 -14.295 -3.635 -16.104 -3.33 -1.722 -10.348 -1.41 -13.649 0.606m3.237 8.55c-3.538 4.498 -7.354 23.805 -5.505 27.861 1.718 3.769 5.862 1.329 7.989 -4.701 1.605 -4.55 2.852 -14.149 2.574 -19.828 -0.211 -4.344 -0.422 -4.932 -1.851 -5.136 -1.032 -0.147 -2.184 0.5 -3.208 1.802m32.187 -0.63c-3.687 4.161 -7.819 28.32 -5.127 29.985 0.402 0.247 2.055 -0.226 3.679 -1.054l2.949 -1.506 1.257 -8.146c0.692 -4.482 1.707 -10.949 2.256 -14.375l0.999 -6.226h-2.421c-1.356 0 -2.934 0.582 -3.591 1.32m30.849 0.076c-0.732 0.808 -1.787 3.201 -2.346 5.319l-1.018 3.859h2.933c3.607 0 5.458 -2.349 5.55 -7.044 0.054 -2.828 -0.134 -3.167 -1.866 -3.368a3.901 3.901 0 0 0 -3.255 1.245" fill="#2c2424" fill-rule="evenodd"/><path d="M426.941 32.181c-0.913 0.913 0.324 1.782 2.54 1.782h2.22v9.893c0 9.147 -0.099 9.848 -1.32 9.291 -2.271 -1.033 -10.17 -1.258 -13.125 -0.372 -3.945 1.182 -7.902 6.014 -9.021 11.018 -0.489 2.184 -0.732 6.704 -0.538 10.041 0.658 11.386 5.311 16.7 14.652 16.723 3.673 0.009 5.172 -0.367 7.359 -1.853 2.604 -1.768 2.747 -1.787 2.747 -0.377 0 1.401 0.552 1.486 9.497 1.486 7.26 0 9.425 -0.222 9.186 -0.944 -0.171 -0.519 -1.048 -1.051 -1.95 -1.185l-1.639 -0.24V31.7h-10.063c-5.535 0 -10.281 0.217 -10.545 0.482m-38.318 3.232c-2.865 2.865 -3.057 7.288 -0.447 10.32 1.423 1.655 2.57 2.112 6.005 2.397 3.945 0.327 4.409 0.189 6.545 -1.944 1.876 -1.876 2.296 -2.916 2.296 -5.684 0 -2.856 -0.364 -3.695 -2.324 -5.341 -1.821 -1.531 -3.137 -1.954 -6.096 -1.954 -3.165 0 -4.131 0.357 -5.979 2.207m-93.402 1.306c0.165 0.871 1.039 1.484 2.334 1.632l2.069 0.24v48.957h-2.319c-1.802 0 -2.263 0.294 -2.067 1.32 0.327 1.71 6.864 2.01 23.76 1.093 10.973 -0.597 12.607 -0.867 16.37 -2.706 5.579 -2.73 7.644 -6.015 7.644 -12.162 0 -6.294 -1.797 -9.197 -7.449 -12.024 -4.117 -2.061 -4.299 -2.259 -2.634 -2.877 4.498 -1.665 7.449 -6.317 7.449 -11.743 0 -4.877 -2.265 -8.262 -7.17 -10.716 -3.636 -1.82 -4.395 -1.897 -21.012 -2.15 -16.429 -0.249 -17.226 -0.197 -16.974 1.133m21.008 12.279v11.379h1.887c2.235 0 4.679 -2.229 5.341 -4.872 0.261 -1.041 0.354 -4.771 0.209 -8.295 -0.294 -7.071 -0.934 -8.235 -4.984 -9.082l-2.453 -0.515v11.382m166.287 -6.425c-2.889 1.302 -4.149 3.452 -4.292 7.327 -0.091 2.479 -0.315 2.837 -1.534 2.454 -0.784 -0.246 -3.589 -0.435 -6.232 -0.42 -11.124 0.065 -16.873 4.655 -16.867 13.462 0.005 4.298 1.989 8.047 5.258 9.922l2.211 1.269 -3.396 3.027c-4.037 3.599 -5.101 7.389 -2.984 10.622 2.004 3.059 5.51 4.103 13.787 4.107 9.456 0.006 12.862 0.901 13.53 3.563 1.258 5.014 -4.064 8.73 -11.942 8.338 -6.549 -0.324 -8.168 -1.657 -8.168 -6.72 0 -3.291 -0.219 -3.752 -2.302 -4.829 -2.558 -1.321 -4.176 -1.039 -7.071 1.237 -1.476 1.161 -1.942 2.207 -1.924 4.309 0.044 5.004 3.38 7.239 12.804 8.571 10.437 1.476 21.053 -0.834 25.424 -5.535 3.546 -3.811 4.325 -10.688 1.775 -15.684 -2.43 -4.764 -6.538 -6.27 -18.263 -6.694 -5.327 -0.194 -9.687 -0.608 -9.687 -0.924 0 -1.092 2.667 -1.627 8.679 -1.748 9.556 -0.189 14.759 -3.901 15.871 -11.329 0.563 -3.756 -1.205 -8.88 -3.755 -10.887 -3.005 -2.364 -3.051 -9.981 -0.061 -9.981 1.467 0 1.476 1.056 0.019 2.265 -1.522 1.264 -1.431 1.927 0.519 3.744 3.599 3.353 9.216 0.889 9.216 -4.041 0 -5.025 -5.394 -7.784 -10.62 -5.431m21.392 9.829c-5.255 1.411 -9.534 4.716 -11.787 9.096 -1.635 3.18 -1.924 4.726 -1.896 10.182 0.044 8.829 2.513 13.437 9.024 16.836 4.531 2.364 15.546 2.757 20.159 0.717 3.829 -1.694 7.14 -5.534 7.854 -9.107 0.695 -3.471 -1.542 -3.18 -3.388 0.441 -2.16 4.23 -4.127 5.646 -8.424 6.058 -3.242 0.312 -4.095 0.105 -5.67 -1.374 -2.24 -2.104 -3.351 -5.781 -3.357 -11.098l-0.002 -3.957h21.132v-3.119c0 -7.858 -4.184 -13.392 -11.271 -14.912 -4.899 -1.05 -7.764 -0.995 -12.373 0.246m34.727 0.012c-3.762 1.341 -5.7 3.132 -7.399 6.831 -2.549 5.548 -1.401 11.184 3.036 14.918 1.319 1.11 5.187 2.895 8.594 3.969 9.672 3.05 11.307 4.681 8 7.989 -1.355 1.355 -2.265 1.545 -6.05 1.272 -5.623 -0.407 -7.947 -2.045 -10.729 -7.566 -3.149 -6.245 -4.269 -5.286 -4.269 3.649 0 6.066 0.178 7.089 1.237 7.089 0.681 0 1.667 -0.59 2.195 -1.306 0.906 -1.239 1.145 -1.239 4.611 0.005 12.444 4.461 23.676 -1.869 22.641 -12.764 -0.735 -7.745 -3.332 -10.275 -13.846 -13.497 -5.691 -1.74 -8.534 -3.351 -8.534 -4.824 0 -1.731 3.388 -3.458 6.69 -3.41 4.429 0.066 6.979 1.722 9.257 6.015 1.074 2.025 2.314 3.368 3.109 3.368 1.157 0 1.321 -0.807 1.321 -6.414 0 -6.724 -0.501 -7.562 -3.111 -5.199 -1.236 1.117 -1.632 1.117 -4.911 0 -4.296 -1.464 -7.971 -1.501 -11.839 -0.121m-169.88 0.815c-1.206 0.63 -2.638 1.731 -3.185 2.45 -0.894 1.177 -0.992 1.103 -1.014 -0.771l-0.027 -2.078h-9.812c-8.219 0 -9.812 0.184 -9.812 1.133 0 0.705 0.712 1.133 1.887 1.133h1.887v32.453h-1.887c-1.175 0 -1.887 0.427 -1.887 1.133 0 0.96 1.887 1.133 12.455 1.133s12.455 -0.171 12.455 -1.133c0 -0.792 -0.796 -1.133 -2.641 -1.133h-2.641v-10.61c0 -11.787 0.819 -16.352 3.444 -19.183 2.128 -2.296 4.103 -2.487 4.103 -0.398 0 0.987 -0.503 1.509 -1.449 1.509 -1.755 0 -2.809 3.721 -1.662 5.867 1.335 2.494 2.955 3.324 6.6 3.38 4.846 0.074 7.077 -2.397 7.077 -7.837 0 -3.181 -0.354 -4.142 -2.207 -5.997 -1.832 -1.832 -2.826 -2.205 -5.848 -2.202 -2.004 0.005 -4.629 0.519 -5.835 1.147m13.32 0.546c0.171 0.519 1.217 1.05 2.326 1.182l2.018 0.24v32.355h-1.887c-1.175 0 -1.887 0.427 -1.887 1.133 0 0.96 1.853 1.133 12.139 1.133 9.373 0 12.067 -0.216 11.829 -0.944 -0.171 -0.519 -1.217 -1.05 -2.326 -1.182l-2.018 -0.24V52.83h-10.251c-7.865 0 -10.179 0.219 -9.942 0.944m86.61 2.446c-0.996 2.618 -0.977 15.921 0.024 17.791 1.095 2.045 2.893 1.817 3.767 -0.477 0.825 -2.172 0.868 -14.027 0.061 -16.928 -0.735 -2.641 -2.912 -2.862 -3.852 -0.387m39.166 -0.657c-0.559 0.673 -1.147 3.561 -1.309 6.414l-0.3 5.19h6.209v-4.479c0 -7.239 -1.974 -10.296 -4.605 -7.127m-82.284 0.777c-0.766 0.921 -1.095 4.596 -1.266 14.151 -0.255 14.36 0.2 16.192 3.789 15.291 3.143 -0.789 3.747 -3.607 3.477 -16.183 -0.214 -9.875 -0.429 -11.535 -1.681 -12.917 -1.731 -1.911 -2.934 -2.004 -4.32 -0.342m-109.335 19.133v12.075h2.558c4.928 0 7.2 -3.913 7.231 -12.455 0.028 -7.932 -2.326 -11.699 -7.317 -11.699h-2.474v12.075" fill="#ec1414" fill-rule="evenodd"/></svg>