<svg xmlns="http://www.w3.org/2000/svg" xmlns:xlink="http://www.w3.org/1999/xlink" width="54px" zoomAndPan="magnify" viewBox="0 0 375 374.999991" height="54px" preserveAspectRatio="xMidYMid meet" version="1.0"><defs><g/><clipPath id="abf073c58a"><path d="M 0 0 L 374.984375 0 L 374.984375 374.992188 L 0 374.992188 Z M 0 0 " clip-rule="nonzero"/></clipPath></defs><g clip-path="url(#abf073c58a)"><path fill="#212121" d="M 338.902344 184.367188 C 338.722656 185.878906 337.453125 187.027344 335.875 187.027344 C 335.816406 187.027344 335.699219 187.027344 335.574219 187.027344 C 333.886719 186.84375 332.738281 185.332031 332.921875 183.636719 C 333.101562 182.011719 334.609375 180.800781 336.246094 181.042969 C 337.9375 181.226562 339.082031 182.738281 338.902344 184.367188 Z M 356.914062 186.433594 C 356.730469 188.003906 355.402344 189.152344 353.886719 189.152344 C 353.765625 189.152344 353.648438 189.152344 353.53125 189.089844 C 351.894531 188.910156 350.683594 187.394531 350.929688 185.769531 C 351.109375 184.132812 352.625 182.921875 354.25 183.109375 C 355.945312 183.289062 357.097656 184.804688 356.914062 186.433594 Z M 313.320312 114.441406 C 312.414062 113.054688 312.78125 111.175781 314.167969 110.273438 C 315.496094 109.304688 317.433594 109.667969 318.34375 111.058594 C 319.246094 112.449219 318.882812 114.324219 317.488281 115.292969 C 317.003906 115.59375 316.402344 115.769531 315.800781 115.769531 C 314.832031 115.769531 313.921875 115.292969 313.320312 114.441406 Z M 328.378906 104.355469 C 327.472656 102.96875 327.832031 101.089844 329.226562 100.1875 C 330.613281 99.222656 332.488281 99.582031 333.398438 100.976562 C 334.300781 102.363281 333.941406 104.242188 332.546875 105.203125 C 332.0625 105.511719 331.460938 105.6875 330.851562 105.6875 C 329.890625 105.6875 328.980469 105.199219 328.378906 104.355469 Z M 41.726562 273.84375 C 42.6875 275.238281 42.269531 277.109375 40.875 278.074219 C 40.390625 278.375 39.789062 278.558594 39.246094 278.558594 C 38.277344 278.558594 37.3125 278.074219 36.707031 277.222656 C 35.800781 275.835938 36.167969 273.960938 37.554688 273.058594 C 38.945312 272.089844 40.816406 272.449219 41.726562 273.84375 Z M 56.777344 263.699219 C 57.683594 265.089844 57.324219 266.964844 55.933594 267.925781 C 55.445312 268.230469 54.84375 268.410156 54.238281 268.410156 C 53.269531 268.40625 52.308594 267.925781 51.757812 267.078125 C 50.796875 265.691406 51.214844 263.816406 52.550781 262.914062 C 53.941406 261.945312 55.816406 262.304688 56.777344 263.699219 Z M 37.171875 190.132812 C 37.113281 191.761719 35.785156 192.972656 34.152344 192.972656 C 34.09375 192.972656 34.03125 192.972656 33.972656 192.972656 C 32.335938 192.847656 31.070312 191.457031 31.195312 189.761719 C 31.316406 188.070312 32.707031 186.800781 34.394531 186.925781 C 36.027344 187.046875 37.296875 188.5 37.171875 190.132812 Z M 19.109375 188.972656 C 18.984375 190.542969 17.652344 191.8125 16.082031 191.808594 C 16.019531 191.808594 15.957031 191.808594 15.902344 191.808594 C 14.207031 191.691406 12.996094 190.238281 13.0625 188.542969 C 13.183594 186.914062 14.636719 185.648438 16.261719 185.765625 C 17.957031 185.890625 19.226562 187.277344 19.109375 188.972656 Z M 108.464844 63.46875 C 107.632812 61.972656 108.148438 60.125 109.585938 59.285156 C 111.011719 58.511719 112.867188 58.964844 113.699219 60.457031 C 114.539062 61.898438 114.019531 63.742188 112.59375 64.515625 C 112.089844 64.859375 111.476562 64.945312 110.933594 64.917969 C 109.96875 64.871094 109.027344 64.339844 108.464844 63.46875 Z M 99.445312 47.707031 C 98.613281 46.277344 99.125 44.421875 100.5625 43.589844 C 101.992188 42.75 103.847656 43.269531 104.679688 44.699219 C 105.515625 46.136719 105 47.980469 103.570312 48.820312 C 103.070312 49.15625 102.453125 49.25 101.914062 49.222656 C 100.945312 49.175781 99.945312 48.640625 99.445312 47.707031 Z M 275.785156 328.25 C 276.625 329.695312 276.148438 331.507812 274.695312 332.355469 C 274.210938 332.65625 273.726562 332.78125 273.183594 332.78125 C 272.15625 332.78125 271.128906 332.230469 270.582031 331.269531 C 269.738281 329.816406 270.226562 327.9375 271.675781 327.15625 C 273.128906 326.3125 275 326.796875 275.785156 328.25 Z M 266.726562 312.523438 C 267.566406 313.980469 267.089844 315.851562 265.636719 316.632812 C 265.152344 316.941406 264.667969 317.058594 264.125 317.058594 C 263.097656 317.058594 262.074219 316.515625 261.523438 315.546875 C 260.679688 314.09375 261.164062 312.222656 262.617188 311.4375 C 264.070312 310.589844 265.941406 311.074219 266.726562 312.523438 Z M 184.757812 334.664062 C 184.695312 332.96875 186.03125 331.644531 187.71875 331.644531 C 189.410156 331.585938 190.738281 332.914062 190.800781 334.605469 C 190.800781 336.238281 189.46875 337.628906 187.777344 337.6875 C 186.140625 337.683594 184.757812 336.355469 184.757812 334.664062 Z M 191.035156 352.742188 C 191.035156 354.371094 189.699219 355.761719 188.011719 355.820312 C 186.378906 355.820312 184.988281 354.488281 184.988281 352.796875 C 184.925781 351.101562 186.261719 349.777344 187.949219 349.777344 C 189.644531 349.714844 190.972656 351.046875 191.035156 352.742188 Z M 183.824219 40.03125 C 183.84375 38.34375 185.191406 37.023438 186.886719 37.046875 C 188.511719 37.070312 189.886719 38.421875 189.808594 40.105469 C 189.789062 41.800781 188.4375 43.113281 186.746094 43.09375 C 185.109375 43.070312 183.800781 41.667969 183.824219 40.03125 Z M 184.113281 21.902344 C 184.132812 20.214844 185.480469 18.894531 187.171875 18.917969 C 188.867188 18.9375 190.179688 20.289062 190.15625 21.980469 C 190.136719 23.671875 188.730469 24.980469 187.09375 24.960938 C 185.402344 24.941406 184.09375 23.535156 184.113281 21.902344 Z M 103.703125 337.28125 C 103.160156 338.125 102.191406 338.550781 101.28125 338.550781 C 100.679688 338.550781 100.074219 338.363281 99.53125 338.003906 C 98.144531 337.035156 97.84375 335.160156 98.804688 333.773438 C 99.773438 332.445312 101.652344 332.082031 103.039062 333.050781 C 104.367188 334.019531 104.730469 335.890625 103.703125 337.28125 Z M 114.230469 322.480469 C 113.621094 323.320312 112.71875 323.746094 111.75 323.746094 C 111.140625 323.746094 110.539062 323.5625 109.996094 323.203125 C 108.667969 322.234375 108.304688 320.363281 109.273438 318.96875 C 110.242188 317.644531 112.113281 317.277344 113.503906 318.246094 C 114.894531 319.214844 115.195312 321.148438 114.230469 322.480469 Z M 267.222656 40.941406 C 268.246094 39.5625 270.105469 39.230469 271.480469 40.195312 C 272.796875 41.160156 273.128906 43.082031 272.164062 44.398438 C 271.601562 45.210938 270.769531 45.613281 269.867188 45.652344 C 269.203125 45.683594 268.53125 45.539062 267.964844 45.140625 C 266.589844 44.179688 266.253906 42.257812 267.222656 40.941406 Z M 256.734375 55.722656 C 257.753906 54.34375 259.617188 54.011719 260.992188 54.976562 C 262.3125 56 262.644531 57.863281 261.679688 59.179688 C 261.109375 59.992188 260.285156 60.453125 259.375 60.496094 C 258.71875 60.527344 258.039062 60.316406 257.476562 59.921875 C 256.101562 58.960938 255.828125 57.09375 256.734375 55.722656 Z M 56.742188 111.566406 C 57.585938 110.117188 59.398438 109.632812 60.851562 110.480469 C 62.300781 111.328125 62.785156 113.199219 61.941406 114.652344 C 61.390625 115.554688 60.363281 116.105469 59.335938 116.101562 C 58.792969 116.101562 58.308594 115.980469 57.824219 115.675781 C 56.375 114.832031 55.894531 113.015625 56.742188 111.566406 Z M 43.6875 106.90625 C 43.144531 106.90625 42.660156 106.785156 42.175781 106.480469 C 40.726562 105.695312 40.242188 103.820312 41.09375 102.371094 C 41.941406 100.917969 43.75 100.4375 45.203125 101.285156 C 46.652344 102.132812 47.136719 104.007812 46.285156 105.453125 C 45.742188 106.363281 44.714844 106.90625 43.6875 106.90625 Z M 321.089844 264.386719 C 320.480469 265.289062 319.515625 265.835938 318.425781 265.835938 C 317.945312 265.835938 317.402344 265.710938 316.914062 265.410156 C 315.472656 264.566406 314.988281 262.746094 315.890625 261.300781 C 316.675781 259.851562 318.554688 259.367188 320.007812 260.210938 C 321.449219 261.0625 321.933594 262.933594 321.089844 264.386719 Z M 335.652344 269.410156 C 337.042969 270.253906 337.585938 272.066406 336.679688 273.519531 C 336.136719 274.488281 335.109375 275.03125 334.074219 275.03125 C 333.597656 275.03125 333.050781 274.910156 332.5625 274.601562 C 331.121094 273.757812 330.636719 271.886719 331.480469 270.496094 C 332.332031 269.042969 334.203125 268.558594 335.652344 269.410156 Z M 357.25 205.515625 C 356.902344 206.257812 356.660156 206.789062 356.542969 207.015625 C 352.511719 214.519531 347.988281 220.28125 343.015625 224.273438 C 341.621094 221.984375 340.027344 219.859375 338.207031 217.929688 C 329.84375 209.066406 319.222656 206.433594 313.5625 205.65625 C 313.570312 205.640625 313.578125 205.625 313.585938 205.609375 C 313.71875 205.339844 314 204.703125 314.382812 203.804688 C 320.796875 188.863281 323.511719 186.75 324.191406 186.457031 L 326.046875 185.660156 L 326.03125 184.355469 L 326.035156 184.355469 L 325.96875 180.433594 L 324.074219 179.691406 C 323.398438 179.433594 320.734375 177.53125 314.25 164.113281 C 319.421875 163.960938 328.941406 162.59375 336.761719 155.316406 C 338.757812 153.457031 340.492188 151.332031 341.992188 148.96875 C 347.691406 153.304688 352.710938 159.6875 356.992188 168.074219 C 357.105469 168.300781 357.335938 168.832031 357.664062 169.574219 C 361.796875 178.96875 364.941406 184.636719 367.753906 187.605469 C 364.871094 190.53125 361.601562 196.148438 357.25 205.515625 Z M 343.601562 256.316406 C 343.582031 256.558594 343.515625 257.113281 343.429688 257.898438 C 342.246094 268.144531 342.09375 274.640625 343.035156 278.632812 C 339.078125 279.707031 333.390625 282.894531 324.90625 288.777344 C 324.238281 289.234375 323.761719 289.570312 323.550781 289.703125 C 317.359375 293.488281 311.554688 296.03125 306.144531 297.351562 C 306.234375 293.714844 305.851562 290.160156 304.960938 286.710938 C 302.234375 276.21875 295.566406 269.191406 290.898438 265.367188 C 300.429688 259.121094 303.105469 258.875 303.757812 258.953125 L 305.765625 259.253906 L 306.433594 258.132812 L 306.4375 258.136719 L 308.433594 254.761719 L 307.21875 253.144531 C 306.644531 252.382812 305.503906 248.921875 307.261719 233.292969 C 307.285156 233.066406 307.308594 232.855469 307.328125 232.660156 C 311.257812 234.632812 317.5 236.996094 324.863281 237 C 327.234375 237 329.722656 236.761719 332.285156 236.175781 C 335.167969 235.523438 337.949219 234.488281 340.617188 233.082031 C 343.113281 239.542969 344.121094 247.304688 343.601562 256.316406 Z M 291.210938 322.953125 C 291.074219 323.160156 290.742188 323.621094 290.277344 324.277344 C 284.328125 332.667969 281.078125 338.277344 279.976562 342.222656 C 275.984375 341.25 269.472656 341.332031 259.191406 342.40625 C 258.386719 342.496094 257.8125 342.558594 257.566406 342.570312 C 248.542969 342.960938 240.910156 341.960938 234.667969 339.574219 C 235.761719 337.445312 236.644531 335.238281 237.316406 332.957031 C 240.667969 321.523438 237.792969 311.238281 235.621094 305.851562 C 235.636719 305.847656 235.648438 305.847656 235.667969 305.847656 C 251.835938 303.960938 255.023438 305.277344 255.613281 305.726562 L 257.230469 306.9375 L 258.351562 306.273438 L 258.351562 306.277344 L 259.609375 305.527344 L 259.976562 305.308594 L 261.726562 304.265625 L 261.417969 302.25 C 261.285156 301.382812 261.824219 298.226562 269.054688 287.460938 C 271.703125 291.9375 277.46875 299.53125 287.53125 302.855469 C 290.792969 303.929688 294.214844 304.46875 297.789062 304.472656 C 298.253906 304.472656 298.730469 304.460938 299.203125 304.441406 C 297.90625 310.332031 295.242188 316.511719 291.210938 322.953125 Z M 206.910156 356.992188 C 206.691406 357.101562 206.179688 357.328125 205.449219 357.644531 C 196.035156 361.789062 190.359375 364.933594 187.378906 367.757812 C 184.449219 364.867188 178.808594 361.585938 169.398438 357.21875 C 168.6875 356.890625 168.179688 356.660156 167.964844 356.546875 C 160.382812 352.476562 154.5625 347.988281 150.535156 343.117188 C 152.890625 341.699219 155.070312 340.074219 157.050781 338.207031 C 165.171875 330.542969 168.0625 320.984375 169.089844 315.078125 C 181.308594 320.972656 183.105469 323.441406 183.359375 324.085938 L 184.101562 325.964844 L 185.398438 325.984375 L 186.945312 326.007812 L 187.28125 326.011719 L 189.328125 326.035156 L 190.117188 324.164062 C 190.40625 323.476562 192.503906 320.71875 207.316406 314.21875 C 208.191406 313.835938 208.804688 313.554688 209.078125 313.421875 C 209.097656 313.410156 209.121094 313.394531 209.144531 313.382812 C 209.527344 318.648438 211.351562 328.644531 219.304688 336.746094 C 221.285156 338.769531 223.515625 340.523438 225.980469 342.035156 C 221.644531 347.71875 215.273438 352.726562 206.910156 356.992188 Z M 118.664062 343.605469 C 118.421875 343.585938 117.867188 343.523438 117.082031 343.433594 C 106.851562 342.246094 100.359375 342.09375 96.363281 343.027344 C 95.296875 339.066406 92.097656 333.402344 86.203125 324.914062 C 85.742188 324.246094 85.410156 323.765625 85.277344 323.554688 C 81.492188 317.371094 78.957031 311.558594 77.636719 306.152344 C 77.960938 306.160156 78.292969 306.171875 78.617188 306.175781 C 81.910156 306.175781 85.132812 305.769531 88.269531 304.957031 C 99.03125 302.164062 106.148438 295.222656 109.902344 290.542969 C 118.136719 301.785156 118.832031 305.066406 118.726562 305.964844 L 118.488281 307.988281 L 119.625 308.613281 L 119.625 308.617188 L 123.066406 310.507812 L 124.644531 309.238281 C 125.351562 308.671875 128.5 307.5 142.328125 308.472656 C 139.800781 313.050781 136.234375 321.8125 138.429688 332.09375 C 139.070312 335.078125 140.144531 337.953125 141.636719 340.722656 C 135.21875 343.148438 127.539062 344.128906 118.664062 343.605469 Z M 52.027344 291.214844 C 51.816406 291.078125 51.355469 290.746094 50.703125 290.28125 C 42.316406 284.335938 36.707031 281.085938 32.761719 279.976562 C 33.730469 275.988281 33.648438 269.480469 32.574219 259.195312 C 32.484375 258.390625 32.421875 257.820312 32.410156 257.574219 C 31.984375 248.460938 32.988281 240.808594 35.382812 234.660156 C 37.519531 235.757812 39.734375 236.648438 42.023438 237.320312 C 45.78125 238.425781 49.417969 238.851562 52.796875 238.851562 C 58.511719 238.855469 63.492188 237.636719 67.089844 236.386719 C 67.957031 248.789062 66.894531 251.699219 66.363281 252.375 L 65.101562 253.972656 L 66.667969 256.757812 L 66.671875 256.757812 L 67.65625 258.523438 L 69.679688 258.273438 C 70.65625 258.171875 74.183594 258.875 86.859375 268.167969 C 87.238281 268.445312 87.566406 268.679688 87.832031 268.871094 C 83.398438 271.433594 75.53125 277.234375 72.128906 287.539062 C 70.914062 291.21875 70.398438 295.113281 70.550781 299.199219 C 64.660156 297.90625 58.472656 295.246094 52.027344 291.214844 Z M 17.984375 206.921875 C 17.875 206.703125 17.65625 206.1875 17.335938 205.46875 C 13.199219 196.035156 10.050781 190.355469 7.230469 187.375 C 10.117188 184.445312 13.390625 178.816406 17.746094 169.421875 C 18.082031 168.703125 18.320312 168.183594 18.433594 167.972656 C 22.503906 160.390625 26.992188 154.570312 31.863281 150.539062 C 33.28125 152.890625 34.90625 155.070312 36.773438 157.042969 C 44.449219 165.1875 54.039062 168.074219 59.941406 169.097656 C 59.824219 169.359375 59.695312 169.652344 59.550781 170 C 53.308594 184.527344 50.605469 186.96875 49.730469 187.347656 L 47.863281 188.148438 L 47.929688 191.339844 L 47.964844 193.367188 L 49.855469 194.105469 C 50.746094 194.449219 53.527344 196.769531 60.246094 210.882812 C 54.984375 211.097656 45.804688 212.609375 38.214844 219.671875 C 36.21875 221.527344 34.484375 223.652344 32.984375 226.011719 C 27.289062 221.679688 22.265625 215.296875 17.984375 206.921875 Z M 31.375 118.667969 C 31.394531 118.425781 31.460938 117.863281 31.546875 117.074219 C 32.734375 106.847656 32.886719 100.359375 31.953125 96.367188 C 35.914062 95.300781 41.574219 92.101562 50.070312 86.207031 C 50.734375 85.75 51.214844 85.414062 51.425781 85.28125 C 57.445312 81.605469 63.105469 79.101562 68.390625 77.746094 C 68.226562 81.632812 68.621094 85.378906 69.609375 88.96875 C 72.375 99.054688 79.003906 105.304688 83.128906 108.363281 C 73.773438 114.5 70.957031 114.894531 70.167969 114.851562 L 68.167969 114.550781 L 67.507812 115.65625 L 65.484375 119.03125 L 66.703125 120.652344 C 67.285156 121.414062 68.429688 124.882812 66.667969 140.5 C 66.570312 141.355469 66.507812 141.976562 66.480469 142.316406 C 61.886719 139.785156 53.128906 136.226562 42.886719 138.429688 C 39.90625 139.066406 37.027344 140.140625 34.261719 141.636719 C 31.84375 135.226562 30.867188 127.558594 31.375 118.667969 Z M 83.765625 52.035156 C 83.894531 51.828125 84.21875 51.367188 84.679688 50.722656 C 90.640625 42.324219 93.902344 36.707031 95 32.757812 C 98.992188 33.726562 105.492188 33.648438 115.785156 32.570312 C 116.589844 32.484375 117.164062 32.421875 117.414062 32.410156 C 126.523438 31.980469 134.175781 32.984375 140.320312 35.378906 C 139.222656 37.515625 138.332031 39.734375 137.660156 42.023438 C 134.550781 52.628906 136.800781 62.246094 138.878906 67.882812 C 138.675781 67.90625 138.453125 67.933594 138.21875 67.957031 C 122.527344 69.777344 119.066406 68.644531 118.308594 68.070312 L 116.683594 66.847656 L 114.660156 68.070312 L 112.203125 69.542969 L 112.511719 71.546875 C 112.640625 72.414062 112.109375 75.53125 105.039062 86.09375 C 102.085938 81.570312 96.503906 75.121094 87.441406 72.128906 C 83.683594 70.886719 79.699219 70.378906 75.515625 70.566406 C 76.929688 64.75 79.675781 58.558594 83.765625 52.035156 Z M 168.058594 17.992188 C 168.277344 17.886719 168.792969 17.664062 169.507812 17.351562 C 178.945312 13.199219 184.628906 10.050781 187.609375 7.230469 C 190.53125 10.105469 196.148438 13.378906 205.511719 17.730469 C 206.253906 18.078125 206.785156 18.320312 207.007812 18.4375 C 214.585938 22.503906 220.40625 26.996094 224.441406 31.863281 C 222.089844 33.28125 219.914062 34.90625 217.9375 36.773438 C 210.085938 44.171875 207.125 53.339844 206.003906 59.28125 C 193.105469 53.160156 190.90625 50.5625 190.570312 49.710938 L 189.824219 47.820312 L 186.625 47.792969 L 184.601562 47.769531 L 183.808594 49.644531 C 183.519531 50.328125 181.417969 53.078125 166.609375 59.585938 C 165.738281 59.96875 165.125 60.25 164.855469 60.382812 C 164.597656 60.515625 164.359375 60.648438 164.105469 60.777344 C 163.96875 55.617188 162.613281 46.0625 155.308594 38.21875 C 153.453125 36.222656 151.328125 34.488281 148.964844 32.992188 C 153.296875 27.292969 159.679688 22.273438 168.058594 17.992188 Z M 256.3125 31.378906 C 256.554688 31.398438 257.117188 31.460938 257.898438 31.550781 C 268.132812 32.742188 274.617188 32.886719 278.613281 31.953125 C 279.679688 35.925781 282.890625 41.59375 288.800781 50.105469 C 289.253906 50.765625 289.578125 51.222656 289.703125 51.429688 C 293.488281 57.617188 296.027344 63.429688 297.347656 68.84375 C 293.707031 68.75 290.15625 69.132812 286.707031 70.027344 C 275.859375 72.839844 268.710938 79.875 264.980469 84.554688 C 255.839844 72.261719 255.09375 68.773438 255.199219 67.839844 L 255.441406 65.828125 L 254.308594 65.195312 L 250.871094 63.285156 L 249.285156 64.5625 C 248.605469 65.101562 245.671875 66.195312 233.21875 65.433594 C 235.667969 60.636719 238.585938 52.417969 236.550781 42.882812 C 235.914062 39.90625 234.839844 37.03125 233.347656 34.265625 C 239.757812 31.847656 247.429688 30.875 256.3125 31.378906 Z M 311.183594 157.992188 L 311.15625 158.222656 C 309.859375 156.019531 308.535156 153.96875 307.1875 152.042969 C 307.320312 149.886719 307.371094 147.632812 307.34375 145.296875 C 311.589844 143.480469 320.964844 140.449219 331.253906 143.464844 C 333.191406 144.035156 335.066406 144.789062 336.886719 145.730469 C 335.671875 147.640625 334.28125 149.355469 332.6875 150.847656 C 323.652344 159.304688 311.304688 158.019531 311.183594 157.992188 Z M 308.828125 201.425781 C 308.511719 202.160156 308.289062 202.691406 308.179688 202.910156 C 307.304688 204.660156 306.410156 206.320312 305.503906 207.890625 C 303.621094 200.976562 300.492188 195.445312 296.117188 191.382812 C 293.597656 189.050781 290.933594 187.457031 288.378906 186.367188 C 290.589844 185.363281 292.832031 183.996094 294.980469 182.136719 C 300.488281 177.359375 304.167969 170.40625 306.003906 161.378906 C 306.496094 162.21875 306.988281 163.082031 307.472656 163.96875 C 307.59375 164.183594 307.828125 164.691406 308.164062 165.398438 C 312.585938 174.703125 315.902344 180.292969 318.8125 183.183594 C 316.015625 186.191406 312.910156 191.910156 308.828125 201.425781 Z M 307.121094 216.613281 C 308.257812 214.984375 309.367188 213.25 310.449219 211.40625 C 313.640625 211.617188 325.25 213 333.808594 222.078125 C 335.390625 223.753906 336.773438 225.613281 337.976562 227.628906 C 335.734375 228.835938 333.410156 229.71875 331.011719 230.269531 C 320.277344 232.726562 310.785156 227.824219 307.601562 225.898438 C 307.609375 222.621094 307.449219 219.523438 307.121094 216.613281 Z M 282.808594 263.554688 C 282.144531 264.015625 281.679688 264.34375 281.46875 264.476562 C 281.09375 264.707031 280.730469 264.914062 280.359375 265.136719 C 282.902344 256.785156 283.128906 249.179688 280.984375 242.417969 C 280.007812 239.34375 278.628906 236.738281 277.09375 234.546875 C 277.503906 234.566406 277.914062 234.589844 278.335938 234.589844 C 280.230469 234.589844 282.230469 234.398438 284.316406 233.933594 C 290.507812 232.542969 296.261719 229.039062 301.539062 223.492188 C 301.597656 225.886719 301.570312 228.390625 301.425781 231.03125 C 301.40625 231.277344 301.339844 231.832031 301.253906 232.621094 C 300.097656 242.847656 299.96875 249.339844 300.910156 253.328125 C 296.941406 254.40625 291.296875 257.628906 282.808594 263.554688 Z M 72.957031 233.828125 C 73.011719 233.796875 73.058594 233.773438 73.078125 233.761719 L 72.929688 233.5 C 72.886719 232.976562 72.84375 232.464844 72.796875 231.917969 C 72.71875 231.117188 72.667969 230.542969 72.664062 230.292969 C 72.648438 229.878906 72.648438 229.484375 72.640625 229.070312 C 78.625 235.46875 85.058594 239.375 91.886719 240.707031 C 93.679688 241.054688 95.390625 241.203125 97.019531 241.203125 C 98.324219 241.203125 99.566406 241.105469 100.742188 240.9375 C 99.476562 242.882812 98.363281 245.125 97.554688 247.699219 C 95.648438 253.785156 95.816406 260.558594 98.015625 267.949219 C 95.96875 266.851562 93.882812 265.625 91.742188 264.238281 C 91.539062 264.101562 91.078125 263.765625 90.433594 263.292969 C 82.140625 257.210938 76.582031 253.871094 72.652344 252.707031 C 73.621094 248.984375 73.699219 243.03125 72.957031 233.828125 Z M 63.621094 216.972656 C 64.644531 218.652344 65.6875 220.253906 66.746094 221.757812 C 66.578125 224.410156 66.53125 227.191406 66.609375 230.113281 C 61.996094 231.925781 53.246094 234.3125 43.726562 231.519531 C 41.789062 230.949219 39.910156 230.195312 38.089844 229.257812 C 39.304688 227.34375 40.691406 225.628906 42.285156 224.140625 C 50.738281 216.214844 62.101562 216.832031 63.621094 216.972656 Z M 66.804688 157.195312 C 65.464844 159.113281 64.167969 161.199219 62.90625 163.417969 C 58.394531 162.875 48.625 160.808594 41.164062 152.902344 C 39.523438 151.15625 38.09375 149.21875 36.859375 147.109375 C 39.191406 145.8125 41.601562 144.894531 44.078125 144.355469 C 56.160156 141.734375 66.113281 149.191406 66.207031 149.265625 L 66.316406 149.125 C 66.347656 151.960938 66.515625 154.640625 66.804688 157.195312 Z M 91.101562 110.265625 C 91.765625 109.792969 92.246094 109.464844 92.464844 109.328125 C 92.816406 109.109375 93.160156 108.914062 93.511719 108.703125 C 90.941406 117.082031 90.75 124.609375 92.996094 131.191406 C 94.101562 134.4375 95.6875 137.105469 97.421875 139.277344 C 95 139.113281 92.375 139.253906 89.609375 139.871094 C 83.414062 141.257812 77.660156 144.761719 72.386719 150.3125 C 72.328125 147.914062 72.359375 145.414062 72.503906 142.773438 C 72.519531 142.527344 72.585938 141.96875 72.675781 141.183594 C 73.824219 130.953125 73.957031 124.460938 73.015625 120.472656 C 76.976562 119.390625 82.628906 116.175781 91.101562 110.265625 Z M 301.136719 141.886719 C 301.210938 142.6875 301.265625 143.261719 301.269531 143.511719 C 301.285156 143.925781 301.285156 144.320312 301.289062 144.734375 C 295.308594 138.335938 288.871094 134.429688 282.042969 133.097656 C 278.820312 132.472656 275.839844 132.492188 273.183594 132.867188 C 274.449219 130.921875 275.566406 128.679688 276.371094 126.105469 C 278.28125 120.007812 278.113281 113.222656 275.902344 105.820312 C 277.949219 106.933594 280.035156 108.167969 282.179688 109.558594 C 282.386719 109.691406 282.835938 110.027344 283.472656 110.492188 C 291.777344 116.582031 297.34375 119.929688 301.273438 121.09375 C 300.238281 125.070312 300.21875 131.582031 301.136719 141.886719 Z M 274.808594 182.921875 C 274.191406 168.589844 270.207031 155.128906 263.617188 143.304688 C 265.628906 141.875 272.742188 137.402344 280.984375 139.046875 C 288.039062 140.453125 294.742188 145.40625 300.996094 153.785156 C 300.011719 164.636719 296.699219 172.605469 291.082031 177.515625 C 285.128906 182.710938 277.964844 183.066406 274.808594 182.921875 Z M 268.0625 226.074219 C 267.320312 225.621094 266.710938 225.300781 266.308594 225.097656 C 271.355469 214.445312 274.363281 202.644531 274.828125 190.214844 C 277.078125 190.085938 285.804688 190 292.082031 195.882812 C 296.640625 200.15625 299.558594 206.5625 300.835938 214.996094 C 295.40625 222.191406 289.464844 226.558594 283.078125 228.011719 C 276.792969 229.453125 271.335938 227.664062 268.0625 226.074219 Z M 107.808594 232.261719 C 105.097656 233.804688 99.683594 236.09375 92.945312 234.757812 C 85.890625 233.351562 79.191406 228.398438 72.933594 220.019531 C 73.914062 209.167969 77.226562 201.199219 82.84375 196.289062 C 87.105469 192.570312 91.988281 191.332031 95.582031 190.980469 C 96.253906 205.71875 100.464844 219.804688 107.808594 232.261719 Z M 104.714844 147.207031 C 99.246094 158.273438 95.996094 170.617188 95.539062 183.652344 C 92.375 183.5 86.75 182.511719 81.851562 177.921875 C 77.292969 173.648438 74.371094 167.242188 73.09375 158.808594 C 78.519531 151.613281 84.457031 147.242188 90.847656 145.789062 C 96.445312 144.511719 101.386719 145.792969 104.714844 147.207031 Z M 185.550781 269.578125 C 185.40625 269.578125 185.269531 269.578125 185.128906 269.578125 C 163.179688 269.5625 142.519531 261.054688 126.921875 245.59375 C 111.222656 230.03125 102.519531 209.289062 102.421875 187.175781 C 102.226562 141.546875 139.191406 104.246094 184.828125 104.046875 C 184.96875 104.046875 185.109375 104.046875 185.25 104.050781 C 207.199219 104.058594 227.859375 112.570312 243.457031 128.03125 C 259.15625 143.589844 267.855469 164.339844 267.957031 186.449219 C 268.152344 232.082031 231.1875 269.378906 185.550781 269.578125 Z M 234.070312 111.378906 C 234.105469 111.296875 237.574219 103.132812 246.949219 100.210938 C 252.996094 98.332031 260.097656 99.003906 268.167969 102.167969 C 271.746094 110.535156 272.574219 117.925781 270.628906 124.21875 C 268.371094 131.53125 262.765625 135.570312 259.90625 137.21875 C 252.929688 126.742188 243.8125 117.8125 233.1875 111.054688 C 233.191406 111.042969 233.195312 111.035156 233.203125 111.027344 Z M 192.472656 81.628906 C 197.222656 76.167969 204.773438 72.785156 215.269531 71.5625 C 224.195312 77.847656 229.453125 84.710938 230.894531 92.035156 C 232.277344 99.054688 229.726562 104.949219 227.972656 107.980469 C 215.824219 101.363281 201.992188 97.472656 187.304688 97.132812 C 187.140625 94.84375 187.128906 87.773438 192.472656 81.628906 Z M 154.320312 74.105469 C 163.449219 75.199219 170.3125 78.183594 174.820312 83.0625 C 179.25 87.875 180.386719 93.601562 180.613281 97.226562 C 167.570312 97.886719 155.257812 101.339844 144.261719 107 C 142.816406 104.496094 140.246094 98.722656 141.90625 91.503906 C 143.328125 85.332031 147.5 79.511719 154.320312 74.105469 Z M 101.511719 104.449219 C 111.410156 99.910156 119.96875 98.820312 127.023438 101.246094 C 132.773438 103.230469 136.386719 107.261719 138.40625 110.296875 C 126.058594 117.878906 115.671875 128.359375 108.214844 140.789062 C 105.542969 139.214844 100.910156 135.679688 98.714844 129.242188 C 96.386719 122.402344 97.332031 114.089844 101.511719 104.449219 Z M 103.296875 249.582031 C 105.019531 244.003906 108.695312 240.328125 111.613281 238.171875 C 114.675781 242.546875 118.15625 246.683594 122.03125 250.523438 C 127.296875 255.746094 133.097656 260.234375 139.308594 263.941406 C 137.089844 266.992188 133.015625 271.242188 126.574219 273.175781 C 120.484375 275.003906 113.492188 274.429688 105.703125 271.484375 C 102.175781 263.179688 101.359375 255.84375 103.296875 249.582031 Z M 143.035156 281.761719 C 141.832031 275.675781 143.59375 270.4375 145.226562 267.179688 C 157.476562 273.28125 171.050781 276.511719 185.121094 276.519531 C 185.273438 276.519531 185.429688 276.519531 185.582031 276.519531 C 186.136719 276.515625 186.691406 276.503906 187.246094 276.488281 C 187.296875 277.570312 187.410156 278.804688 187.628906 280.148438 C 186.78125 283.695312 185.023438 288.015625 181.402344 291.910156 C 176.273438 297.433594 168.636719 300.878906 158.558594 302.171875 C 149.691406 295.902344 144.472656 289.0625 143.035156 281.761719 Z M 231.851562 282.132812 C 230.332031 288.441406 226.183594 294.3125 219.5 299.691406 C 210.4375 298.589844 203.589844 295.597656 199.113281 290.734375 C 195.964844 287.316406 194.480469 283.4375 193.800781 280.179688 C 194.101562 278.628906 194.269531 277.230469 194.351562 276.050781 C 206.945312 274.765625 218.765625 270.867188 229.277344 264.910156 C 229.546875 265.390625 229.859375 265.914062 230.210938 266.457031 C 231.695312 269.695312 233.472656 275.40625 231.851562 282.132812 Z M 275.222656 244.242188 C 277.472656 251.34375 276.507812 259.765625 272.382812 269.367188 C 262.5 273.894531 253.953125 274.984375 246.90625 272.550781 C 241.085938 270.542969 237.453125 266.4375 235.445312 263.394531 C 235.125 262.730469 234.820312 262.15625 234.550781 261.679688 C 246.515625 253.761719 256.480469 243.058594 263.511719 230.503906 C 264.019531 230.796875 264.59375 231.109375 265.242188 231.429688 C 267.976562 233.152344 272.960938 237.128906 275.222656 244.242188 Z M 297.132812 85.488281 C 293.296875 97.234375 281.835938 102.054688 281.722656 102.105469 L 281.765625 102.199219 C 278.652344 100.359375 275.625 98.800781 272.691406 97.519531 C 271.515625 95.03125 270.128906 92.480469 268.542969 89.867188 C 271.183594 86.175781 277.703125 78.609375 288.226562 75.878906 C 291.46875 75.035156 294.839844 74.714844 298.320312 74.914062 C 298.59375 78.667969 298.207031 82.199219 297.132812 85.488281 Z M 249.675781 70.859375 C 250.878906 74.785156 254.273438 80.324219 260.453125 88.601562 C 260.941406 89.257812 261.296875 89.722656 261.441406 89.941406 C 262.472656 91.503906 263.421875 93.039062 264.296875 94.550781 C 257.304688 92.699219 250.902344 92.644531 245.152344 94.441406 C 242.019531 95.414062 239.40625 96.84375 237.246094 98.429688 C 237.4375 96.117188 237.359375 93.617188 236.847656 90.972656 C 235.464844 83.8125 231.285156 77.148438 224.378906 71.046875 C 225.355469 71.042969 226.351562 71.050781 227.367188 71.078125 C 227.613281 71.082031 228.167969 71.128906 228.957031 71.1875 C 239.21875 72.019531 245.714844 71.9375 249.675781 70.859375 Z M 230.625 44.078125 C 232.71875 53.746094 228.359375 62.046875 226.503906 65.023438 C 223.121094 64.984375 219.917969 65.097656 216.898438 65.363281 C 215.246094 64.269531 213.503906 63.199219 211.664062 62.148438 C 212.339844 57.375 214.589844 48.234375 222.078125 41.171875 C 223.824219 39.527344 225.761719 38.097656 227.875 36.863281 C 229.167969 39.195312 230.085938 41.601562 230.625 44.078125 Z M 187.140625 55 C 190.058594 57.878906 195.679688 61.152344 205.046875 65.503906 C 205.789062 65.851562 206.324219 66.097656 206.546875 66.210938 C 206.914062 66.410156 207.257812 66.609375 207.621094 66.8125 C 199.078125 68.792969 192.480469 72.40625 187.914062 77.660156 C 185.855469 80.027344 184.414062 82.5 183.410156 84.886719 C 182.382812 82.917969 181.054688 80.9375 179.328125 79.050781 C 174.996094 74.304688 168.988281 71.015625 161.417969 69.210938 C 163.34375 68.039062 165.394531 66.890625 167.59375 65.765625 C 167.816406 65.660156 168.328125 65.433594 169.042969 65.125 C 178.480469 60.976562 184.160156 57.824219 187.140625 55 Z M 143.460938 43.726562 C 144.03125 41.789062 144.785156 39.910156 145.726562 38.089844 C 147.636719 39.300781 149.351562 40.691406 150.839844 42.285156 C 159.050781 51.054688 158.019531 63.578125 157.988281 63.804688 C 157.984375 63.8125 157.96875 64.109375 157.960938 64.246094 C 156.054688 65.417969 154.269531 66.613281 152.601562 67.839844 C 150.269531 67.640625 147.816406 67.566406 145.265625 67.589844 C 143.445312 63.324219 140.449219 53.988281 143.460938 43.726562 Z M 118.152344 74.371094 C 122.144531 75.296875 128.644531 75.152344 138.914062 73.964844 C 139.726562 73.871094 140.296875 73.804688 140.558594 73.789062 C 142.355469 73.6875 144.085938 73.644531 145.769531 73.644531 C 140.605469 78.808594 137.320312 84.363281 135.988281 90.277344 C 135.300781 93.335938 135.203125 96.195312 135.449219 98.769531 C 133.617188 97.523438 131.511719 96.414062 129.097656 95.570312 C 122.203125 93.160156 114.347656 93.425781 105.613281 96.324219 C 106.097656 95.480469 106.601562 94.628906 107.128906 93.765625 C 107.257812 93.554688 107.585938 93.09375 108.03125 92.4375 C 113.894531 83.980469 117.089844 78.328125 118.152344 74.371094 Z M 74.515625 76.6875 C 78.417969 76.355469 82.082031 76.734375 85.488281 77.847656 C 94.609375 80.828125 99.554688 88.40625 101.332031 91.691406 C 99.648438 94.515625 98.175781 97.269531 96.921875 99.949219 C 94.441406 101.175781 91.902344 102.578125 89.296875 104.179688 C 89.144531 104.273438 88.863281 104.464844 88.5 104.710938 C 85.855469 103.035156 78.160156 97.417969 75.410156 87.285156 C 74.503906 83.933594 74.21875 80.398438 74.515625 76.6875 Z M 55.289062 190.796875 C 55.28125 190.691406 55.257812 190.59375 55.234375 190.492188 C 58 187.453125 61.074219 181.757812 65.101562 172.378906 C 65.417969 171.644531 65.640625 171.113281 65.75 170.890625 C 66.625 169.140625 67.515625 167.484375 68.425781 165.914062 C 70.304688 172.828125 73.429688 178.355469 77.8125 182.421875 C 80.328125 184.757812 82.992188 186.347656 85.546875 187.441406 C 83.335938 188.445312 81.09375 189.8125 78.953125 191.671875 C 73.441406 196.445312 69.761719 203.398438 67.925781 212.429688 C 67.433594 211.585938 66.941406 210.71875 66.449219 209.824219 C 66.332031 209.609375 66.089844 209.089844 65.742188 208.355469 C 61.414062 199.257812 58.148438 193.730469 55.289062 190.796875 Z M 77.84375 289.5 C 81.285156 278.96875 91.253906 273.375 93.367188 272.289062 C 96.03125 273.804688 98.640625 275.105469 101.183594 276.1875 C 102.578125 279.152344 104.277344 282.203125 106.253906 285.335938 C 103.484375 289.121094 96.964844 296.480469 86.679688 299.125 C 83.460938 299.949219 80.117188 300.257812 76.65625 300.058594 C 76.386719 296.308594 76.769531 292.78125 77.84375 289.5 Z M 124.253906 302.933594 C 123.046875 299.007812 119.640625 293.457031 113.449219 285.175781 C 112.96875 284.53125 112.621094 284.070312 112.488281 283.863281 C 111.394531 282.210938 110.394531 280.59375 109.476562 279 C 112.835938 279.839844 116.074219 280.269531 119.1875 280.273438 C 122.363281 280.277344 125.40625 279.839844 128.3125 278.960938 C 131.597656 277.972656 134.386719 276.515625 136.726562 274.875 C 136.480469 277.324219 136.535156 279.992188 137.082031 282.828125 C 138.460938 289.988281 142.640625 296.652344 149.550781 302.757812 C 148.570312 302.761719 147.574219 302.753906 146.5625 302.726562 C 146.320312 302.722656 145.761719 302.675781 144.96875 302.609375 C 134.714844 301.789062 128.214844 301.867188 124.253906 302.933594 Z M 144.359375 330.90625 C 141.789062 319.027344 148.941406 309.214844 149.253906 308.796875 C 151.945312 308.78125 154.519531 308.652344 156.988281 308.414062 C 158.976562 309.734375 161.109375 311.023438 163.382812 312.28125 C 162.789062 316.898438 160.632812 326.554688 152.84375 333.863281 C 151.117188 335.484375 149.195312 336.894531 147.105469 338.125 C 145.8125 335.792969 144.894531 333.386719 144.359375 330.90625 Z M 186.792969 318.800781 C 183.867188 315.914062 178.230469 312.636719 168.835938 308.273438 C 168.117188 307.941406 167.59375 307.703125 167.386719 307.59375 C 166.953125 307.359375 166.546875 307.125 166.125 306.894531 C 174.378906 304.867188 180.988281 301.234375 185.835938 296.019531 C 187.894531 293.804688 189.460938 291.480469 190.660156 289.1875 C 191.664062 291.070312 192.949219 292.949219 194.59375 294.753906 C 198.933594 299.5 204.925781 302.773438 212.515625 304.570312 C 210.585938 305.753906 208.539062 306.910156 206.335938 308.039062 C 206.117188 308.144531 205.601562 308.367188 204.886719 308.679688 C 195.453125 312.824219 189.773438 315.972656 186.792969 318.800781 Z M 214.996094 310.140625 C 217.261719 308.78125 219.34375 307.378906 221.285156 305.9375 C 223.78125 306.148438 226.417969 306.230469 229.171875 306.199219 C 230.816406 309.664062 234.847656 319.894531 231.511719 331.253906 C 230.941406 333.203125 230.179688 335.097656 229.230469 336.929688 C 227.167969 335.679688 225.308594 334.234375 223.667969 332.570312 C 214.4375 323.214844 215.109375 310.277344 215.117188 310.148438 Z M 255.777344 299.425781 C 251.773438 298.496094 245.257812 298.652344 234.964844 299.839844 C 234.175781 299.9375 233.613281 300 233.371094 300.015625 C 231.511719 300.125 229.714844 300.171875 227.976562 300.171875 C 233.023438 295.050781 236.296875 289.5 237.730469 283.546875 C 238.460938 280.515625 238.640625 277.652344 238.488281 275.039062 C 240.324219 276.28125 242.425781 277.390625 244.832031 278.234375 C 247.941406 279.3125 251.25 279.859375 254.742188 279.863281 C 258.988281 279.863281 263.519531 279.058594 268.316406 277.46875 C 267.832031 278.316406 267.328125 279.167969 266.804688 280.03125 C 266.671875 280.246094 266.347656 280.707031 265.898438 281.359375 C 260.035156 289.816406 256.839844 295.464844 255.777344 299.425781 Z M 300.066406 298.335938 C 296.316406 298.605469 292.785156 298.21875 289.492188 297.140625 C 277.742188 293.292969 272.921875 281.835938 272.875 281.722656 L 272.808594 281.753906 C 274.390625 279.066406 275.785156 276.441406 276.980469 273.875 C 279.472656 272.644531 282.023438 271.234375 284.636719 269.625 C 284.828125 269.511719 285.175781 269.273438 285.648438 268.941406 C 289.492188 271.800781 296.5 278.191406 299.109375 288.222656 C 299.953125 291.46875 300.269531 294.84375 300.066406 298.335938 Z M 322.945312 83.769531 C 323.152344 83.902344 323.613281 84.222656 324.253906 84.683594 C 332.65625 90.644531 338.269531 93.902344 342.21875 95.007812 C 341.25 98.996094 341.328125 105.507812 342.40625 115.789062 C 342.496094 116.59375 342.558594 117.164062 342.570312 117.414062 C 342.996094 126.527344 341.992188 134.175781 339.597656 140.324219 C 337.460938 139.226562 335.246094 138.339844 332.957031 137.664062 C 322.253906 134.511719 312.570312 136.832031 306.953125 138.929688 C 305.882812 125.25 307.007812 122.128906 307.566406 121.425781 L 308.832031 119.832031 L 308.195312 118.699219 L 307.640625 117.710938 L 307.261719 117.046875 L 306.265625 115.28125 L 304.253906 115.53125 C 303.359375 115.632812 300.089844 115.140625 287.464844 105.921875 C 291.945312 103.277344 299.53125 97.507812 302.851562 87.449219 C 304.070312 83.761719 304.585938 79.867188 304.429688 75.777344 C 310.320312 77.070312 316.507812 79.734375 322.945312 83.769531 Z M 374.960938 187.09375 L 374.980469 185.066406 L 373.113281 184.273438 C 372.238281 183.90625 369.515625 181.496094 363.191406 167.132812 C 362.796875 166.230469 362.507812 165.589844 362.371094 165.324219 C 357.46875 155.710938 351.585938 148.441406 344.8125 143.542969 C 347.8125 136.410156 349.097656 127.585938 348.605469 117.132812 C 348.589844 116.828125 348.523438 116.136719 348.421875 115.15625 C 346.769531 99.4375 347.9375 95.984375 348.515625 95.234375 L 349.757812 93.621094 L 349.09375 92.492188 L 349.097656 92.492188 L 348.558594 91.574219 L 348.132812 90.855469 L 347.109375 89.113281 L 345.105469 89.394531 C 344.210938 89.589844 340.566406 88.851562 327.753906 79.75 C 326.964844 79.199219 326.414062 78.808594 326.160156 78.648438 C 318.378906 73.78125 310.875 70.730469 303.683594 69.476562 C 302.378906 62.84375 299.4375 55.765625 294.859375 48.277344 C 294.699219 48.015625 294.316406 47.457031 293.761719 46.664062 C 284.480469 33.289062 284.128906 29.859375 284.242188 29.128906 L 284.550781 27.128906 L 283.449219 26.460938 L 280.078125 24.421875 L 278.449219 25.644531 C 277.695312 26.21875 274.234375 27.363281 258.59375 25.546875 C 257.636719 25.4375 256.957031 25.363281 256.65625 25.347656 C 246.320312 24.742188 237.394531 26.003906 229.945312 29.082031 C 225.367188 23.183594 218.671875 17.839844 209.867188 13.117188 C 209.605469 12.96875 208.960938 12.667969 208.058594 12.253906 C 193.742188 5.59375 191.382812 2.824219 191.035156 1.9375 L 190.285156 0.0546875 L 188.988281 0.0390625 L 187.394531 0.0234375 L 187.09375 0.0195312 L 185.066406 0 L 184.277344 1.863281 C 183.984375 2.554688 181.890625 5.304688 167.070312 11.8125 C 166.203125 12.195312 165.589844 12.472656 165.316406 12.609375 C 155.703125 17.511719 148.433594 23.394531 143.539062 30.171875 C 136.386719 27.164062 127.546875 25.878906 117.132812 26.375 C 116.828125 26.386719 116.132812 26.457031 115.148438 26.558594 C 99.433594 28.222656 95.992188 27.039062 95.238281 26.464844 L 93.625 25.226562 L 92.496094 25.882812 L 92.496094 25.878906 L 89.105469 27.867188 L 89.390625 29.875 C 89.527344 30.816406 88.851562 34.402344 79.75 47.226562 C 79.195312 48.011719 78.800781 48.566406 78.644531 48.820312 C 73.703125 56.714844 70.550781 64.238281 69.164062 71.351562 C 62.625 72.6875 55.644531 75.613281 48.277344 80.121094 C 48.015625 80.28125 47.4375 80.683594 46.621094 81.242188 C 33.679688 90.21875 30.109375 90.902344 29.121094 90.734375 L 27.101562 90.421875 L 25.554688 93.035156 C 25.519531 93.082031 25.476562 93.125 25.445312 93.175781 C 25.410156 93.234375 25.394531 93.292969 25.363281 93.351562 L 24.429688 94.914062 L 25.546875 96.40625 C 25.59375 96.480469 25.644531 96.554688 25.703125 96.625 C 26.292969 97.554688 27.292969 101.296875 25.546875 116.382812 C 25.433594 117.339844 25.359375 118.019531 25.339844 118.320312 C 24.75 128.644531 26.007812 137.574219 29.085938 145.03125 C 23.183594 149.609375 17.835938 156.308594 13.105469 165.117188 C 12.960938 165.382812 12.675781 166.003906 12.265625 166.878906 C 5.414062 181.632812 2.628906 183.675781 1.941406 183.945312 L 0.0546875 184.695312 L 0.0390625 185.992188 L 0.0234375 187.585938 L 0.0195312 187.886719 L 0 189.914062 L 1.863281 190.707031 C 2.554688 190.992188 5.304688 193.089844 11.804688 207.90625 C 12.191406 208.777344 12.46875 209.390625 12.601562 209.664062 C 17.507812 219.273438 23.390625 226.546875 30.164062 231.441406 C 27.164062 238.574219 25.886719 247.398438 26.375 257.851562 C 26.386719 258.160156 26.460938 258.851562 26.558594 259.824219 C 28.210938 275.550781 27.039062 279 26.460938 279.753906 L 25.230469 281.359375 L 25.878906 282.476562 L 27.855469 285.875 L 29.867188 285.589844 C 30.835938 285.5 34.402344 286.136719 47.203125 295.210938 C 48 295.78125 48.566406 296.179688 48.820312 296.335938 C 56.59375 301.203125 64.105469 304.265625 71.300781 305.519531 C 72.605469 312.148438 75.542969 319.226562 80.117188 326.703125 C 80.277344 326.964844 80.679688 327.550781 81.238281 328.359375 C 90.246094 341.34375 90.878906 344.925781 90.734375 345.863281 L 90.429688 347.871094 L 93.167969 349.507812 L 94.90625 350.546875 L 96.53125 349.335938 C 97.285156 348.757812 100.769531 347.621094 116.386719 349.433594 C 117.339844 349.546875 118.019531 349.621094 118.320312 349.636719 C 128.609375 350.234375 137.554688 348.972656 145.027344 345.894531 C 149.601562 351.796875 156.304688 357.144531 165.113281 361.875 C 165.375 362.019531 165.992188 362.304688 166.851562 362.699219 C 181.628906 369.558594 183.675781 372.351562 183.945312 373.046875 L 184.695312 374.929688 L 187.886719 374.96875 L 189.914062 374.992188 L 190.707031 373.121094 C 191.078125 372.242188 193.492188 369.511719 207.886719 363.179688 C 208.765625 362.789062 209.390625 362.511719 209.65625 362.378906 C 219.273438 357.46875 226.546875 351.585938 231.441406 344.808594 C 238.691406 347.8125 247.515625 349.097656 257.847656 348.605469 C 258.152344 348.589844 258.84375 348.519531 259.816406 348.421875 C 275.539062 346.769531 278.996094 347.9375 279.753906 348.511719 L 281.351562 349.746094 L 282.476562 349.097656 L 283.867188 348.292969 L 284.113281 348.148438 L 285.878906 347.125 L 285.589844 345.113281 C 285.453125 344.167969 286.125 340.585938 295.210938 327.773438 C 295.777344 326.980469 296.171875 326.410156 296.332031 326.15625 C 301.199219 318.386719 304.253906 310.875 305.511719 303.683594 C 312.140625 302.378906 319.214844 299.441406 326.699219 294.863281 C 326.957031 294.703125 327.535156 294.304688 328.351562 293.742188 C 341.371094 284.71875 344.929688 284.09375 345.859375 284.242188 L 347.851562 284.550781 L 348.527344 283.4375 L 348.53125 283.441406 L 350.554688 280.070312 L 349.335938 278.449219 C 348.765625 277.679688 347.628906 274.214844 349.429688 258.589844 C 349.542969 257.636719 349.617188 256.960938 349.632812 256.660156 C 350.234375 246.246094 348.953125 237.246094 345.816406 229.75 C 351.820312 225.214844 357.191406 218.582031 361.863281 209.875 C 362.011719 209.609375 362.3125 208.964844 362.730469 208.0625 C 369.386719 193.738281 372.15625 191.382812 373.042969 191.035156 L 374.925781 190.285156 L 374.9375 188.992188 L 374.941406 188.992188 L 374.957031 187.355469 L 374.960938 187.09375 " fill-opacity="1" fill-rule="nonzero"/></g><g fill="#212121" fill-opacity="1"><g transform="translate(151.392972, 180.749988)"><g><path d="M 2.429688 -0.660156 C 2.429688 -0.210938 2.640625 0 3.089844 0 L 6.117188 0 C 6.597656 0 6.808594 -0.210938 6.777344 -0.660156 L 6.777344 -15.476562 L 17.1875 -0.480469 C 17.425781 -0.210938 17.574219 0 18.054688 0 L 21.023438 0 C 21.503906 0 21.746094 -0.210938 21.746094 -0.660156 L 21.746094 -21.59375 C 21.746094 -21.984375 21.324219 -22.253906 21.023438 -22.253906 L 17.996094 -22.253906 C 17.753906 -22.253906 17.457031 -22.164062 17.335938 -21.804688 L 17.335938 -7.617188 L 7.46875 -21.804688 C 7.316406 -22.105469 6.898438 -22.253906 6.597656 -22.253906 L 3.089844 -22.253906 C 2.640625 -22.253906 2.429688 -21.953125 2.429688 -21.59375 Z M 2.429688 -0.660156 "/></g></g></g><g fill="#212121" fill-opacity="1"><g transform="translate(176.973723, 180.749988)"><g><path d="M 2.429688 -0.601562 C 2.429688 -0.210938 2.609375 0 3 0 L 17.933594 0 C 18.324219 0 18.566406 -0.210938 18.566406 -0.601562 L 18.566406 -3.480469 C 18.566406 -3.867188 18.324219 -4.078125 17.933594 -4.078125 L 6.808594 -4.078125 L 6.808594 -9.566406 L 15.085938 -9.566406 C 15.507812 -9.566406 15.746094 -9.777344 15.746094 -10.167969 L 15.746094 -13.015625 C 15.746094 -13.4375 15.476562 -13.617188 15.085938 -13.617188 L 6.808594 -13.617188 L 6.808594 -18.144531 L 17.664062 -18.144531 C 18.054688 -18.144531 18.265625 -18.355469 18.265625 -18.746094 L 18.265625 -21.65625 C 18.265625 -22.042969 18.054688 -22.253906 17.664062 -22.253906 L 3 -22.253906 C 2.609375 -22.253906 2.429688 -22.042969 2.429688 -21.65625 Z M 2.429688 -0.601562 "/></g></g></g><g fill="#212121" fill-opacity="1"><g transform="translate(198.02623, 180.749988)"><g><path d="M 24.203125 -11.128906 C 24.203125 -17.484375 19.046875 -22.585938 12.71875 -22.585938 C 6.386719 -22.585938 1.320312 -17.484375 1.320312 -11.128906 C 1.320312 -4.796875 6.386719 0.300781 12.71875 0.300781 C 19.046875 0.300781 24.203125 -4.796875 24.203125 -11.128906 Z M 19.796875 -11.128906 C 19.796875 -7.109375 16.765625 -3.898438 12.71875 -3.898438 C 8.699219 -3.898438 5.699219 -7.109375 5.699219 -11.128906 C 5.699219 -15.175781 8.699219 -18.386719 12.71875 -18.386719 C 16.765625 -18.386719 19.796875 -15.175781 19.796875 -11.128906 Z M 19.796875 -11.128906 "/></g></g></g><g fill="#212121" fill-opacity="1"><g transform="translate(120.549224, 209.999986)"><g><path d="M 2.429688 -0.601562 C 2.429688 -0.210938 2.609375 0 3 0 L 13.675781 0 C 17.066406 0 19.796875 -3 19.796875 -6.449219 C 19.796875 -8.667969 18.746094 -10.765625 17.035156 -11.90625 C 18.175781 -12.898438 18.746094 -14.335938 18.746094 -16.046875 C 18.746094 -19.523438 16.105469 -22.253906 12.6875 -22.253906 L 3 -22.253906 C 2.609375 -22.253906 2.429688 -22.074219 2.429688 -21.683594 Z M 12.417969 -9.777344 C 13.945312 -9.777344 15.324219 -8.398438 15.324219 -6.628906 C 15.324219 -5.1875 14.335938 -3.660156 12.476562 -3.660156 L 6.808594 -3.660156 L 6.808594 -9.777344 Z M 11.546875 -18.65625 C 13.257812 -18.65625 14.394531 -17.574219 14.394531 -15.957031 C 14.394531 -14.277344 13.257812 -13.226562 11.515625 -13.226562 L 6.808594 -13.226562 L 6.808594 -18.65625 Z M 11.546875 -18.65625 "/></g></g></g><g fill="#212121" fill-opacity="1"><g transform="translate(142.681309, 209.999986)"><g><path d="M 16.796875 -0.601562 C 16.796875 -0.210938 16.976562 0 17.367188 0 L 20.515625 0 C 20.964844 0 21.144531 -0.210938 21.144531 -0.601562 L 21.144531 -21.65625 C 21.144531 -22.132812 20.84375 -22.253906 20.605469 -22.253906 L 17.367188 -22.253906 C 16.976562 -22.253906 16.796875 -21.984375 16.796875 -21.625 L 16.796875 -13.828125 L 6.808594 -13.828125 L 6.808594 -21.65625 C 6.808594 -22.132812 6.476562 -22.253906 6.238281 -22.253906 L 3 -22.253906 C 2.609375 -22.253906 2.429688 -21.984375 2.429688 -21.625 L 2.429688 -0.601562 C 2.429688 -0.210938 2.609375 0 3 0 L 6.148438 0 C 6.628906 0 6.808594 -0.210938 6.808594 -0.601562 L 6.808594 -9.597656 L 16.796875 -9.597656 Z M 16.796875 -0.601562 "/></g></g></g><g fill="#212121" fill-opacity="1"><g transform="translate(167.662287, 209.999986)"><g><path d="M 0.449219 -0.628906 C 0.269531 -0.210938 0.449219 0 0.839844 0 L 4.140625 0 C 4.46875 0 4.738281 -0.148438 4.890625 -0.539062 L 6.296875 -4.140625 L 15.507812 -4.140625 L 16.945312 -0.539062 C 17.097656 -0.148438 17.335938 0 17.695312 0 L 20.964844 0 C 21.355469 0 21.566406 -0.238281 21.382812 -0.628906 L 12.925781 -21.683594 C 12.777344 -22.074219 12.507812 -22.253906 12.175781 -22.253906 L 9.65625 -22.253906 C 9.359375 -22.253906 9.085938 -22.074219 8.90625 -21.683594 Z M 10.917969 -16.496094 L 14.066406 -8.007812 L 7.707031 -8.007812 Z M 10.917969 -16.496094 "/></g></g></g><g fill="#212121" fill-opacity="1"><g transform="translate(190.933932, 209.999986)"><g><path d="M 2.429688 -0.601562 C 2.429688 -0.210938 2.609375 0 3 0 L 6.207031 0 C 6.628906 0 6.808594 -0.210938 6.808594 -0.601562 L 6.808594 -7.707031 L 11.367188 -7.707031 L 14.9375 -0.511719 C 15.117188 -0.121094 15.296875 0 15.625 0 L 19.496094 0 C 19.886719 0 20.035156 -0.359375 19.886719 -0.628906 L 15.804688 -8.726562 C 18.054688 -10.046875 19.585938 -12.417969 19.585938 -14.9375 C 19.585938 -18.714844 16.644531 -22.253906 12.535156 -22.253906 L 3 -22.253906 C 2.609375 -22.253906 2.429688 -21.984375 2.429688 -21.65625 Z M 11.488281 -18.386719 C 13.554688 -18.386719 15.117188 -16.914062 15.117188 -15.027344 C 15.117188 -13.078125 13.554688 -11.667969 11.488281 -11.667969 L 6.808594 -11.667969 L 6.808594 -18.386719 Z M 11.488281 -18.386719 "/></g></g></g><g fill="#212121" fill-opacity="1"><g transform="translate(212.856095, 209.999986)"><g><path d="M 0.449219 -0.628906 C 0.269531 -0.210938 0.449219 0 0.839844 0 L 4.140625 0 C 4.46875 0 4.738281 -0.148438 4.890625 -0.539062 L 6.296875 -4.140625 L 15.507812 -4.140625 L 16.945312 -0.539062 C 17.097656 -0.148438 17.335938 0 17.695312 0 L 20.964844 0 C 21.355469 0 21.566406 -0.238281 21.382812 -0.628906 L 12.925781 -21.683594 C 12.777344 -22.074219 12.507812 -22.253906 12.175781 -22.253906 L 9.65625 -22.253906 C 9.359375 -22.253906 9.085938 -22.074219 8.90625 -21.683594 Z M 10.917969 -16.496094 L 14.066406 -8.007812 L 7.707031 -8.007812 Z M 10.917969 -16.496094 "/></g></g></g><g fill="#212121" fill-opacity="1"><g transform="translate(236.127734, 209.999986)"><g><path d="M 0.628906 -18.835938 C 0.628906 -18.445312 0.808594 -18.234375 1.199219 -18.234375 L 6.808594 -18.234375 L 6.808594 -0.601562 C 6.808594 -0.210938 6.988281 0 7.378906 0 L 10.617188 0 C 11.007812 0 11.1875 -0.210938 11.1875 -0.601562 L 11.1875 -18.234375 L 16.945312 -18.234375 C 17.335938 -18.234375 17.546875 -18.445312 17.546875 -18.835938 L 17.546875 -21.683594 C 17.546875 -22.074219 17.335938 -22.253906 16.945312 -22.253906 L 1.199219 -22.253906 C 0.808594 -22.253906 0.628906 -22.074219 0.628906 -21.683594 Z M 0.628906 -18.835938 "/></g></g></g></svg>