<svg xmlns="http://www.w3.org/2000/svg" width="380.378" height="80" viewBox="0 0 380.378 80">
  <path d="M88.889 4.361c-.185.184-.335 17.053-.335 37.484 0 36.813.009 37.149 1.006 37.149s1.006-.335 1.006-37.484c0-30.901-.118-37.484-.671-37.484-.369 0-.823.151-1.006.335M40.324 38.365c-2.533 15.29-4.604 28.195-4.603 28.679.003.78.578.881 5.034.881 2.768 0 5.031-.083 5.031-.185 0-.36 9.059-55.426 9.26-56.293.185-.795-.298-.88-4.956-.88h-5.161l-4.605 27.799m76.658-20.04c-2.129.955-4.986 4.106-6.534 7.208-3.034 6.08-5.236 22.74-3.799 28.735.764 3.18 2.829 5.426 5.445 5.919 1.636.308 8.898-.383 9.41-.896.105-.105.349-1.386.543-2.849l.353-2.658-4.105.121c-3.285.098-4.274-.046-4.95-.723-2.86-2.86.446-23.709 4.49-28.315 1.44-1.641 1.751-1.765 4.125-1.654 3.294.155 4.539-.286 5.259-1.865.994-2.18.724-2.62-1.961-3.195-3.368-.723-6.426-.659-8.278.171m47.228-.133c-.24.371-.776 2.713-1.195 5.203l-.759 4.529-3.039.251c-1.699.141-3.651.654-4.43 1.164-1.716 1.126-4.063 4.753-5.071 7.84-2.023 6.184-2.954 17.571-1.65 20.179.745 1.491 3.559 3.016 5.569 3.018.788 0 2.065-.45 2.84-1.003 1.225-.873 1.448-.901 1.708-.224.225.584.893.741 2.669.625l2.369-.154 2.904-18.616c2.876-18.436 3.291-22.11 2.553-22.566-1.15-.711-4.064-.871-4.466-.246M18.743 26.585 7.045 33.963v5.311l-.001 5.313 9.685 6.004c5.326 3.303 10.768 6.731 12.09 7.62l2.405 1.618-.141-6.084-.141-6.084-6.288-3.968c-3.459-2.183-6.289-4.196-6.289-4.478 0-.281 2.83-2.278 6.289-4.436l6.289-3.926.143-5.866c.078-3.226-.035-5.846-.251-5.823-.216.025-5.658 3.364-12.091 7.421m40.629-1.713v5.754l6.773 4.184c3.725 2.301 6.775 4.296 6.778 4.435.003.139-2.989 2.085-6.648 4.325l-6.651 4.074-.141 6.145-.141 6.144 2.909-1.949c4.578-3.068 19.981-12.623 20.943-12.991.759-.291.85-1.001.725-5.66l-.143-5.326-11.824-7.428c-6.504-4.085-11.994-7.434-12.201-7.443-.208-.009-.378 2.573-.378 5.736m119.818 3.354c-3.115.595-5.303 2.483-7.086 6.115-2.069 4.213-3.096 9.489-3.206 16.475-.104 6.558.29 7.735 2.953 8.848 2.023.845 6.631.865 9.768.043 2.363-.619 2.88-1.408 2.989-4.553.05-1.428.019-1.443-2.088-1.105-7.474 1.196-7.925.984-7.925-3.731 0-4.318.159-4.534 3.34-4.534 6.45 0 9.303-3.471 9.391-11.43.028-2.414-.186-3.371-.934-4.198-1.803-1.993-3.915-2.559-7.2-1.933m-45.444 1.085c-1.016.621-2.316 1.729-2.889 2.461-2.766 3.541-4.545 10.994-4.634 19.423-.048 4.498.088 5.455.933 6.594 1.534 2.068 3.066 2.649 6.491 2.464 3.983-.215 6.206-1.685 8.181-5.409 2.418-4.559 3.136-7.734 3.438-15.2.313-7.745-.09-9.53-2.423-10.736-2.22-1.148-6.899-.94-9.099.404m2.158 5.7c-2.359 2.999-4.903 15.87-3.67 18.574 1.145 2.513 3.908.886 5.326-3.134 1.07-3.033 1.901-9.433 1.716-13.219-.141-2.896-.281-3.288-1.234-3.424-.688-.098-1.456.333-2.139 1.201m21.458-.42c-2.458 2.774-5.213 18.88-3.418 19.99.268.165 1.37-.151 2.453-.703l1.966-1.004.838-5.431c.461-2.988 1.138-7.299 1.504-9.583l.666-4.151h-1.614c-.904 0-1.956.388-2.394.88m20.566.051c-.488.539-1.191 2.134-1.564 3.546l-.679 2.573h1.955c2.405 0 3.639-1.566 3.7-4.696.036-1.885-.089-2.111-1.244-2.245a2.601 2.601 0 0 0-2.17.83" fill="#2c2424" fill-rule="evenodd"/>
  <path d="M284.627 21.454c-.609.609.216 1.188 1.693 1.188h1.48v6.595c0 6.098-.066 6.565-.88 6.194-1.514-.689-6.78-.839-8.75-.248-2.63.788-5.268 4.009-6.014 7.345-.326 1.456-.488 4.469-.359 6.694.439 7.591 3.541 11.133 9.768 11.149 2.449.006 3.448-.245 4.906-1.235 1.736-1.179 1.831-1.191 1.831-.251 0 .934.368.991 6.331.991 4.84 0 6.283-.148 6.124-.629-.114-.346-.699-.701-1.3-.79l-1.093-.16V21.133h-6.709c-3.69 0-6.854.145-7.03.321m-25.545 2.155c-1.91 1.91-2.038 4.859-.298 6.88.949 1.103 1.713 1.408 4.003 1.598 2.63.218 2.939.126 4.363-1.296 1.251-1.251 1.531-1.944 1.531-3.789 0-1.904-.243-2.463-1.549-3.561-1.214-1.021-2.091-1.303-4.064-1.303-2.11 0-2.754.238-3.986 1.471m-62.268.871c.11.581.693.989 1.556 1.088l1.379.16v32.638h-1.546c-1.201 0-1.509.196-1.378.88.218 1.14 4.576 1.34 15.84.729 7.315-.398 8.405-.578 10.913-1.804 3.719-1.82 5.096-4.01 5.096-8.108 0-4.196-1.198-6.131-4.966-8.016-2.745-1.374-2.866-1.506-1.756-1.918 2.999-1.11 4.966-4.211 4.966-7.829 0-3.251-1.51-5.508-4.78-7.144-2.424-1.213-2.93-1.265-14.008-1.433-10.953-.166-11.484-.131-11.316.755m14.005 8.186v7.586h1.258c1.49 0 3.119-1.486 3.561-3.248.174-.694.236-3.181.139-5.53-.196-4.714-.623-5.49-3.323-6.055l-1.635-.343v7.588m110.858-4.283c-1.926.868-2.766 2.301-2.861 4.885-.061 1.653-.21 1.891-1.023 1.636-.523-.164-2.393-.29-4.155-.28-7.416.043-11.249 3.103-11.245 8.975.003 2.865 1.326 5.365 3.505 6.615l1.474.846-2.264 2.018c-2.691 2.399-3.401 4.926-1.989 7.081 1.336 2.039 3.673 2.735 9.191 2.738 6.304.004 8.575.601 9.02 2.375.839 3.343-2.709 5.82-7.961 5.559-4.366-.216-5.445-1.105-5.445-4.48 0-2.194-.146-2.501-1.535-3.219-1.705-.881-2.784-.693-4.714.825-.984.774-1.295 1.471-1.283 2.873.029 3.336 2.253 4.826 8.536 5.714 6.958.984 14.035-.556 16.949-3.69 2.364-2.541 2.883-7.125 1.183-10.456-1.62-3.176-4.359-4.18-12.175-4.463-3.551-.129-6.458-.405-6.458-.616 0-.728 1.778-1.085 5.786-1.165 6.371-.126 9.839-2.601 10.581-7.553.375-2.504-.803-5.92-2.503-7.258-2.003-1.576-2.034-6.654-.041-6.654.978 0 .984.704.013 1.51-1.015.843-.954 1.285.346 2.496 2.399 2.235 6.144.593 6.144-2.694 0-3.35-3.596-5.189-7.08-3.621m14.261 6.553c-3.503.941-6.356 3.144-7.858 6.064-1.09 2.12-1.283 3.151-1.264 6.788.029 5.886 1.675 8.958 6.016 11.224 3.021 1.576 10.364 1.838 13.439.478 2.553-1.129 4.76-3.689 5.236-6.071.463-2.314-1.028-2.12-2.259.294-1.44 2.82-2.751 3.764-5.616 4.039-2.161.208-2.73.07-3.78-.916-1.493-1.403-2.234-3.854-2.238-7.399l-.001-2.638h14.088v-2.079c0-5.239-2.789-8.928-7.514-9.941-3.266-.7-5.176-.663-8.249.164m23.151.008c-2.508.894-3.8 2.088-4.933 4.554-1.699 3.699-.934 7.456 2.024 9.945.879.74 3.458 1.93 5.729 2.646 6.448 2.033 7.538 3.121 5.333 5.326-.903.903-1.51 1.03-4.033.848-3.749-.271-5.298-1.363-7.153-5.044-2.099-4.163-2.846-3.524-2.846 2.433 0 4.044.119 4.726.825 4.726.454 0 1.111-.393 1.463-.871.604-.826.763-.826 3.074.003 8.296 2.974 15.784-1.246 15.094-8.509-.49-5.163-2.221-6.85-9.231-8.998-3.794-1.16-5.689-2.234-5.689-3.216 0-1.154 2.259-2.305 4.46-2.273 2.953.044 4.653 1.148 6.171 4.01.716 1.35 1.543 2.245 2.073 2.245.771 0 .881-.538.881-4.276 0-4.483-.334-5.041-2.074-3.466-.824.745-1.088.745-3.274 0-2.864-.976-5.314-1.001-7.893-.081m-113.253.543c-.804.42-1.759 1.154-2.123 1.633-.596.785-.661.735-.676-.514l-.018-1.385h-6.541c-5.479 0-6.541.123-6.541.755 0 .47.475.755 1.258.755h1.258v21.635h-1.258c-.783 0-1.258.285-1.258.755 0 .64 1.258.755 8.303.755s8.303-.114 8.303-.755c0-.528-.531-.755-1.761-.755h-1.761v-7.073c0-7.858.546-10.901 2.296-12.789 1.419-1.531 2.735-1.658 2.735-.265 0 .658-.335 1.006-.966 1.006-1.17 0-1.873 2.481-1.108 3.911.89 1.663 1.97 2.216 4.4 2.253 3.231.049 4.718-1.598 4.718-5.225 0-2.121-.236-2.761-1.471-3.998-1.221-1.221-1.884-1.47-3.899-1.468-1.336.003-3.086.346-3.89.765m8.88.364c.114.346.811.7 1.551.788l1.345.16v21.57h-1.258c-.783 0-1.258.285-1.258.755 0 .64 1.235.755 8.093.755 6.249 0 8.045-.144 7.886-.629-.114-.346-.811-.7-1.551-.788l-1.345-.16V35.22h-6.834c-5.243 0-6.786.146-6.628.629m57.74 1.631c-.664 1.745-.651 10.614.016 11.861.73 1.363 1.929 1.211 2.511-.318.55-1.448.579-9.351.041-11.285-.49-1.761-1.941-1.908-2.568-.258m26.111-.438c-.373.449-.765 2.374-.873 4.276l-.2 3.46h4.139v-2.986c0-4.826-1.316-6.864-3.07-4.751m-54.856.518c-.511.614-.73 3.064-.844 9.434-.17 9.573.133 10.795 2.526 10.194 2.095-.526 2.498-2.405 2.318-10.789-.143-6.583-.286-7.69-1.121-8.611-1.154-1.274-1.956-1.336-2.88-.228m-72.89 12.755v8.05h1.705c3.285 0 4.8-2.609 4.821-8.303.019-5.288-1.551-7.799-4.878-7.799h-1.649v8.05" fill="#ec1414" fill-rule="evenodd"/>
</svg>