<svg xmlns="http://www.w3.org/2000/svg" xmlns:xlink="http://www.w3.org/1999/xlink" width="300" zoomAndPan="magnify" viewBox="0 0 224.87999 112.499997" height="150" preserveAspectRatio="xMidYMid meet" version="1.0"><defs><g/><clipPath id="df1d3981d9"><path d="M 96.289062 33.792969 L 102.257812 33.792969 L 102.257812 39.765625 L 96.289062 39.765625 Z M 96.289062 33.792969 " clip-rule="nonzero"/></clipPath><clipPath id="81e45a8f9d"><path d="M 99.273438 33.792969 C 97.625 33.792969 96.289062 35.128906 96.289062 36.78125 C 96.289062 38.429688 97.625 39.765625 99.273438 39.765625 C 100.921875 39.765625 102.257812 38.429688 102.257812 36.78125 C 102.257812 35.128906 100.921875 33.792969 99.273438 33.792969 " clip-rule="nonzero"/></clipPath><clipPath id="e808f72d07"><path d="M 59.308594 66.65625 L 65.277344 66.65625 L 65.277344 72.625 L 59.308594 72.625 Z M 59.308594 66.65625 " clip-rule="nonzero"/></clipPath><clipPath id="c847b0a326"><path d="M 62.292969 66.65625 C 60.644531 66.65625 59.308594 67.992188 59.308594 69.640625 C 59.308594 71.289062 60.644531 72.625 62.292969 72.625 C 63.941406 72.625 65.277344 71.289062 65.277344 69.640625 C 65.277344 67.992188 63.941406 66.65625 62.292969 66.65625 " clip-rule="nonzero"/></clipPath></defs><g fill="#545454" fill-opacity="1"><g transform="translate(12.046348, 63.441567)"><g><path d="M 10.53125 -1.171875 L 8.421875 -1.171875 L 8.421875 -11.28125 C 8.515625 -14.03125 9.46875 -16.078125 11.28125 -17.421875 C 12.125 -18.035156 12.96875 -18.34375 13.8125 -18.34375 C 15.375 -18.34375 16.453125 -17.488281 17.046875 -15.78125 C 17.296875 -15.03125 17.421875 -14.1875 17.421875 -13.25 L 17.421875 -3.984375 C 17.421875 -2.546875 17.078125 -1.6875 16.390625 -1.40625 C 15.953125 -1.25 15.203125 -1.171875 14.140625 -1.171875 L 14.140625 0 L 24.203125 0 C 24.203125 -0.6875 23.96875 -1.0625 23.5 -1.125 C 23.375 -1.15625 23.21875 -1.171875 23.03125 -1.171875 L 20.921875 -1.171875 L 20.921875 -13.15625 C 21.421875 -15.4375 22.53125 -17.03125 24.25 -17.9375 C 24.90625 -18.238281 25.53125 -18.390625 26.125 -18.390625 C 27.71875 -18.390625 28.84375 -17.566406 29.5 -15.921875 C 29.8125 -15.140625 29.96875 -14.25 29.96875 -13.25 L 29.96875 -3.984375 C 29.96875 -2.546875 29.625 -1.6875 28.9375 -1.40625 C 28.5 -1.25 27.75 -1.171875 26.6875 -1.171875 L 26.6875 0 L 37.03125 0 C 37.03125 -0.6875 36.796875 -1.0625 36.328125 -1.125 C 36.203125 -1.15625 36.046875 -1.171875 35.859375 -1.171875 L 33.46875 -1.171875 L 33.46875 -12.78125 C 33.46875 -16 32.421875 -18.242188 30.328125 -19.515625 C 29.398438 -20.078125 28.390625 -20.359375 27.296875 -20.359375 C 24.921875 -20.359375 23.015625 -19.253906 21.578125 -17.046875 C 21.203125 -16.484375 20.890625 -15.890625 20.640625 -15.265625 C 20.078125 -17.722656 18.847656 -19.3125 16.953125 -20.03125 C 16.390625 -20.25 15.8125 -20.359375 15.21875 -20.359375 C 12.96875 -20.359375 11.109375 -19.410156 9.640625 -17.515625 C 9.109375 -16.828125 8.6875 -16.0625 8.375 -15.21875 L 8.1875 -19.890625 L 1.40625 -19.890625 L 1.40625 -18.71875 L 4.921875 -18.71875 L 4.921875 -3.984375 C 4.921875 -2.546875 4.515625 -1.6875 3.703125 -1.40625 C 3.234375 -1.25 2.46875 -1.171875 1.40625 -1.171875 L 1.40625 0 L 11.703125 0 C 11.703125 -0.65625 11.46875 -1.03125 11 -1.125 C 10.84375 -1.15625 10.6875 -1.171875 10.53125 -1.171875 Z M 10.53125 -1.171875 "/></g></g></g><g fill="#545454" fill-opacity="1"><g transform="translate(50.247959, 63.441567)"><g><path d="M 5.859375 -9.96875 C 5.859375 -14.8125 7.179688 -17.757812 9.828125 -18.8125 C 10.515625 -19.0625 11.234375 -19.1875 11.984375 -19.1875 C 15.453125 -19.1875 17.460938 -17.003906 18.015625 -12.640625 C 18.109375 -11.890625 18.15625 -11.0625 18.15625 -10.15625 C 18.15625 -4.914062 16.722656 -1.84375 13.859375 -0.9375 C 13.296875 -0.78125 12.71875 -0.703125 12.125 -0.703125 C 8.96875 -0.703125 6.984375 -2.570312 6.171875 -6.3125 C 5.960938 -7.40625 5.859375 -8.625 5.859375 -9.96875 Z M 12.125 -20.359375 C 9.125 -20.359375 6.628906 -19.332031 4.640625 -17.28125 C 2.796875 -15.375 1.875 -13 1.875 -10.15625 C 1.875 -6.226562 3.304688 -3.28125 6.171875 -1.3125 C 7.921875 -0.125 9.859375 0.46875 11.984375 0.46875 C 14.984375 0.46875 17.460938 -0.59375 19.421875 -2.71875 C 21.234375 -4.65625 22.140625 -7.070312 22.140625 -9.96875 C 22.140625 -13.90625 20.691406 -16.820312 17.796875 -18.71875 C 16.078125 -19.8125 14.1875 -20.359375 12.125 -20.359375 Z M 12.125 -20.359375 "/></g></g></g><g fill="#545454" fill-opacity="1"><g transform="translate(74.264413, 63.441567)"><g><path d="M 11.890625 -1.171875 L 8.515625 -1.171875 L 8.515625 -10.484375 C 8.515625 -13.328125 9.390625 -15.609375 11.140625 -17.328125 C 11.828125 -17.972656 12.40625 -18.3125 12.875 -18.34375 C 13.40625 -18.34375 13.890625 -17.957031 14.328125 -17.1875 C 14.828125 -16.3125 15.296875 -15.8125 15.734375 -15.6875 C 15.921875 -15.625 16.109375 -15.59375 16.296875 -15.59375 C 17.234375 -15.59375 17.820312 -16.046875 18.0625 -16.953125 C 18.125 -17.140625 18.15625 -17.328125 18.15625 -17.515625 C 18.15625 -18.910156 17.441406 -19.765625 16.015625 -20.078125 C 15.703125 -20.140625 15.40625 -20.171875 15.125 -20.171875 C 13.25 -20.171875 11.578125 -19.378906 10.109375 -17.796875 C 9.421875 -17.046875 8.875 -16.203125 8.46875 -15.265625 L 8.28125 -19.890625 L 1.5 -19.890625 L 1.5 -18.71875 L 5.015625 -18.71875 L 5.015625 -3.984375 C 5.015625 -2.546875 4.609375 -1.6875 3.796875 -1.40625 C 3.328125 -1.25 2.5625 -1.171875 1.5 -1.171875 L 1.5 0 L 13.0625 0 C 13.0625 -0.6875 12.828125 -1.0625 12.359375 -1.125 C 12.234375 -1.15625 12.078125 -1.171875 11.890625 -1.171875 Z M 11.890625 -1.171875 "/></g></g></g><g fill="#545454" fill-opacity="1"><g transform="translate(92.662983, 63.441567)"><g><path d="M 11 -1.171875 L 8.65625 -1.171875 L 8.65625 -19.890625 L 1.40625 -19.890625 L 1.40625 -18.71875 L 5.15625 -18.71875 L 5.15625 -3.984375 C 5.15625 -2.546875 4.671875 -1.671875 3.703125 -1.359375 C 3.234375 -1.234375 2.46875 -1.171875 1.40625 -1.171875 L 1.40625 0 L 12.171875 0 C 12.171875 -0.6875 11.9375 -1.0625 11.46875 -1.125 C 11.3125 -1.15625 11.15625 -1.171875 11 -1.171875 Z M 9.21875 -26.734375 C 9.21875 -27.828125 8.734375 -28.609375 7.765625 -29.078125 C 7.390625 -29.234375 7.03125 -29.3125 6.6875 -29.3125 C 5.601562 -29.3125 4.828125 -28.8125 4.359375 -27.8125 C 4.203125 -27.46875 4.125 -27.109375 4.125 -26.734375 C 4.125 -25.578125 4.640625 -24.78125 5.671875 -24.34375 C 6.003906 -24.21875 6.34375 -24.15625 6.6875 -24.15625 C 7.78125 -24.15625 8.546875 -24.65625 8.984375 -25.65625 C 9.140625 -26 9.21875 -26.359375 9.21875 -26.734375 Z M 9.21875 -26.734375 "/></g></g></g><g fill="#545454" fill-opacity="1"><g transform="translate(106.239536, 63.441567)"><g><path d="M 1.875 -9.734375 C 1.875 -5.960938 3.257812 -3.140625 6.03125 -1.265625 C 7.75 -0.109375 9.703125 0.46875 11.890625 0.46875 C 15.140625 0.46875 17.585938 -0.671875 19.234375 -2.953125 C 19.609375 -3.484375 19.90625 -4.015625 20.125 -4.546875 L 18.90625 -4.96875 C 17.757812 -2.5 15.859375 -1.140625 13.203125 -0.890625 C 12.953125 -0.859375 12.703125 -0.84375 12.453125 -0.84375 C 10.234375 -0.84375 8.5 -1.953125 7.25 -4.171875 C 6.320312 -5.847656 5.859375 -7.84375 5.859375 -10.15625 C 5.859375 -14.25 6.929688 -16.976562 9.078125 -18.34375 C 9.984375 -18.90625 10.984375 -19.1875 12.078125 -19.1875 C 13.765625 -19.1875 14.78125 -18.535156 15.125 -17.234375 C 15.1875 -16.984375 15.265625 -16.59375 15.359375 -16.0625 C 15.546875 -14.8125 15.890625 -14.03125 16.390625 -13.71875 C 16.703125 -13.5625 17.046875 -13.46875 17.421875 -13.4375 C 18.472656 -13.375 19.140625 -13.8125 19.421875 -14.75 C 19.484375 -14.96875 19.515625 -15.171875 19.515625 -15.359375 C 19.515625 -16.953125 18.503906 -18.257812 16.484375 -19.28125 C 15.046875 -20 13.484375 -20.359375 11.796875 -20.359375 C 7.617188 -20.359375 4.703125 -18.660156 3.046875 -15.265625 C 2.265625 -13.640625 1.875 -11.796875 1.875 -9.734375 Z M 1.875 -9.734375 "/></g></g></g><g fill="#545454" fill-opacity="1"><g transform="translate(126.604366, 63.441567)"><g><path d="M 18.296875 0.46875 C 20.703125 0.46875 22.03125 -0.984375 22.28125 -3.890625 C 22.3125 -4.078125 22.328125 -4.25 22.328125 -4.40625 L 21.109375 -4.453125 C 20.890625 -2.171875 20.28125 -1.015625 19.28125 -0.984375 C 18.46875 -1.046875 18.046875 -1.859375 18.015625 -3.421875 L 18.015625 -13.296875 C 18.015625 -17.753906 15.785156 -20.109375 11.328125 -20.359375 C 11.046875 -20.359375 10.765625 -20.359375 10.484375 -20.359375 C 6.992188 -20.359375 4.65625 -19.550781 3.46875 -17.9375 C 3.09375 -17.40625 2.90625 -16.875 2.90625 -16.34375 C 2.90625 -15.375 3.359375 -14.8125 4.265625 -14.65625 C 4.421875 -14.625 4.578125 -14.609375 4.734375 -14.609375 C 5.453125 -14.609375 5.976562 -15.0625 6.3125 -15.96875 C 6.75 -17.125 7.046875 -17.804688 7.203125 -18.015625 C 7.796875 -18.796875 8.71875 -19.1875 9.96875 -19.1875 C 12.90625 -19 14.421875 -17.394531 14.515625 -14.375 L 14.515625 -11.421875 C 7.179688 -11.421875 2.984375 -9.890625 1.921875 -6.828125 C 1.734375 -6.242188 1.640625 -5.609375 1.640625 -4.921875 C 1.640625 -2.546875 2.6875 -0.921875 4.78125 -0.046875 C 5.613281 0.296875 6.5 0.46875 7.4375 0.46875 C 9.71875 0.46875 11.640625 -0.3125 13.203125 -1.875 C 13.765625 -2.46875 14.1875 -3.09375 14.46875 -3.75 C 14.84375 -0.96875 16.117188 0.4375 18.296875 0.46875 Z M 8.984375 -1.40625 C 7.078125 -1.40625 5.910156 -2.359375 5.484375 -4.265625 C 5.390625 -4.703125 5.34375 -5.1875 5.34375 -5.71875 C 5.34375 -7.800781 6.539062 -9.125 8.9375 -9.6875 C 10.21875 -9.96875 12.078125 -10.125 14.515625 -10.15625 L 14.515625 -6.40625 C 14.046875 -4.257812 12.90625 -2.75 11.09375 -1.875 C 10.375 -1.5625 9.671875 -1.40625 8.984375 -1.40625 Z M 8.984375 -1.40625 "/></g></g></g><g fill="#545454" fill-opacity="1"><g transform="translate(149.169533, 63.441567)"><g><path d="M 11.890625 -1.171875 L 8.515625 -1.171875 L 8.515625 -10.484375 C 8.515625 -13.328125 9.390625 -15.609375 11.140625 -17.328125 C 11.828125 -17.972656 12.40625 -18.3125 12.875 -18.34375 C 13.40625 -18.34375 13.890625 -17.957031 14.328125 -17.1875 C 14.828125 -16.3125 15.296875 -15.8125 15.734375 -15.6875 C 15.921875 -15.625 16.109375 -15.59375 16.296875 -15.59375 C 17.234375 -15.59375 17.820312 -16.046875 18.0625 -16.953125 C 18.125 -17.140625 18.15625 -17.328125 18.15625 -17.515625 C 18.15625 -18.910156 17.441406 -19.765625 16.015625 -20.078125 C 15.703125 -20.140625 15.40625 -20.171875 15.125 -20.171875 C 13.25 -20.171875 11.578125 -19.378906 10.109375 -17.796875 C 9.421875 -17.046875 8.875 -16.203125 8.46875 -15.265625 L 8.28125 -19.890625 L 1.5 -19.890625 L 1.5 -18.71875 L 5.015625 -18.71875 L 5.015625 -3.984375 C 5.015625 -2.546875 4.609375 -1.6875 3.796875 -1.40625 C 3.328125 -1.25 2.5625 -1.171875 1.5 -1.171875 L 1.5 0 L 13.0625 0 C 13.0625 -0.6875 12.828125 -1.0625 12.359375 -1.125 C 12.234375 -1.15625 12.078125 -1.171875 11.890625 -1.171875 Z M 11.890625 -1.171875 "/></g></g></g><g fill="#545454" fill-opacity="1"><g transform="translate(167.568103, 63.441567)"><g><path d="M 24.109375 -1.171875 L 21.765625 -1.171875 L 21.765625 -19.890625 L 14.421875 -19.890625 L 14.421875 -18.71875 L 18.25 -18.71875 L 18.25 -8.609375 C 18.25 -5.804688 17.269531 -3.75 15.3125 -2.4375 C 14.4375 -1.84375 13.53125 -1.546875 12.59375 -1.546875 C 10.03125 -1.546875 8.546875 -2.859375 8.140625 -5.484375 C 8.078125 -5.910156 8.046875 -6.375 8.046875 -6.875 L 8.046875 -19.890625 L 0.9375 -19.890625 L 0.9375 -18.71875 L 4.546875 -18.71875 L 4.546875 -7.578125 C 4.578125 -2.242188 6.804688 0.4375 11.234375 0.46875 C 13.578125 0.46875 15.5 -0.484375 17 -2.390625 C 17.5625 -3.109375 18.007812 -3.90625 18.34375 -4.78125 L 18.671875 0 L 25.28125 0 C 25.28125 -0.6875 25.046875 -1.0625 24.578125 -1.125 C 24.453125 -1.15625 24.296875 -1.171875 24.109375 -1.171875 Z M 24.109375 -1.171875 "/></g></g></g><g fill="#545454" fill-opacity="1"><g transform="translate(194.112606, 63.441567)"><g><path d="M 8.890625 -0.796875 C 11.046875 -0.796875 12.5 -1.453125 13.25 -2.765625 C 13.53125 -3.234375 13.671875 -3.75 13.671875 -4.3125 C 13.671875 -5.613281 12.71875 -6.734375 10.8125 -7.671875 C 10.40625 -7.890625 9.734375 -8.203125 8.796875 -8.609375 C 6.242188 -9.671875 4.546875 -10.671875 3.703125 -11.609375 C 2.796875 -12.640625 2.34375 -13.84375 2.34375 -15.21875 C 2.34375 -17.363281 3.53125 -18.875 5.90625 -19.75 C 6.988281 -20.15625 8.171875 -20.359375 9.453125 -20.359375 C 11.515625 -20.359375 13.296875 -19.921875 14.796875 -19.046875 C 14.796875 -19.953125 15.015625 -20.46875 15.453125 -20.59375 C 15.640625 -20.625 15.84375 -20.640625 16.0625 -20.640625 L 16.0625 -14.796875 L 14.84375 -14.796875 C 14.78125 -17.660156 13.1875 -19.109375 10.0625 -19.140625 C 7.71875 -19.140625 6.269531 -18.457031 5.71875 -17.09375 C 5.5625 -16.71875 5.484375 -16.328125 5.484375 -15.921875 C 5.484375 -14.578125 6.445312 -13.4375 8.375 -12.5 C 8.8125 -12.28125 9.5 -11.984375 10.4375 -11.609375 C 12.96875 -10.578125 14.65625 -9.59375 15.5 -8.65625 C 16.40625 -7.65625 16.859375 -6.472656 16.859375 -5.109375 C 16.859375 -2.578125 15.515625 -0.890625 12.828125 -0.046875 C 11.796875 0.296875 10.671875 0.46875 9.453125 0.46875 C 7.203125 0.4375 5.253906 -0.125 3.609375 -1.21875 C 3.609375 -0.40625 3.40625 0.0625 3 0.1875 C 2.8125 0.21875 2.59375 0.234375 2.34375 0.234375 L 2.34375 -6.875 L 3.65625 -6.875 C 3.71875 -2.851562 5.460938 -0.828125 8.890625 -0.796875 Z M 8.890625 -0.796875 "/></g></g></g><g clip-path="url(#df1d3981d9)"><g clip-path="url(#81e45a8f9d)"><path fill="#a01b16" d="M 96.289062 33.792969 L 102.257812 33.792969 L 102.257812 39.765625 L 96.289062 39.765625 Z M 96.289062 33.792969 " fill-opacity="1" fill-rule="nonzero"/></g></g><g clip-path="url(#e808f72d07)"><g clip-path="url(#c847b0a326)"><path fill="#e6c2bf" d="M 59.308594 66.65625 L 65.277344 66.65625 L 65.277344 72.625 L 59.308594 72.625 Z M 59.308594 66.65625 " fill-opacity="1" fill-rule="nonzero"/></g></g></svg>