<svg version="1.1" viewBox="0.0 0.0 960.0 288.0" fill="none" stroke="none" stroke-linecap="square" stroke-miterlimit="10" xmlns:xlink="http://www.w3.org/1999/xlink" xmlns="http://www.w3.org/2000/svg"><clipPath id="p.0"><path d="m0 0l960.0 0l0 288.0l-960.0 0l0 -288.0z" clip-rule="nonzero"/></clipPath><g clip-path="url(#p.0)"><path fill="#ffffff" d="m0 0l960.0 0l0 288.0l-960.0 0z" fill-rule="evenodd"/><path fill="#000000" fill-opacity="0.0" d="m16.362206 59.43255l927.27563 0l0 169.13385l-927.27563 0z" fill-rule="evenodd"/><path fill="#000000" d="m93.26769 103.03268l29.796875 76.79687q1.71875 4.40625 3.859375 6.0625q2.1562424 1.65625 3.8749924 1.78125l0 2.453125q-3.6874924 -0.25 -8.656242 -0.3125q-4.953125 -0.0625 -9.984375 -0.0625q-5.640625 0 -10.671875 0.0625q-5.03125 0.0625 -7.96875 0.3125l0 -2.453125q6.25 -0.25 7.90625 -2.140625q1.65625 -1.90625 -0.796875 -8.15625l-20.859375 -57.046867l2.21875 -3.1875l-18.65625 48.578117q-2.6875 6.75 -3.25 11.046875q-0.546875 4.28125 0.609375 6.609375q1.171875 2.328125 3.8125 3.25q2.640625 0.921875 6.3125 1.046875l0 2.453125q-4.046875 -0.25 -7.734375 -0.3125q-3.671875 -0.0625 -7.46875 -0.0625q-2.703125 0 -5.09375 0.0625q-2.390625 0.0625 -4.234375 0.3125l0 -2.453125q2.578125 -0.484375 5.28125 -3.3125q2.703125 -2.828125 5.265625 -9.5625l27.96875 -71.76562q1.96875 0.125 4.234375 0.125q2.265625 0 4.234375 -0.125zm8.578125 51.765617l0 2.453125l-36.546875 0l1.234375 -2.453125l35.3125 0zm73.10865 -29.796867q9.5625 0 15.875 7.7968674q6.328125 7.78125 6.328125 23.96875q0 12.75 -3.875 20.484375q-3.859375 7.71875 -10.234375 11.15625q-6.375 3.4375 -13.984375 3.4375q-5.03125 0 -9.328125 -1.71875q-4.28125 -1.71875 -7.34375 -5.640625l1.703125 -0.609375q2.21875 2.6875 5.21875 4.046875q3.0 1.34375 5.953125 1.34375q6.75 0 10.046875 -7.59375q3.3125 -7.609375 3.3125 -23.1875q0 -10.546875 -1.28125 -16.734375q-1.28125 -6.203125 -3.734375 -8.84375q-2.453125 -2.640625 -5.890625 -2.640625q-4.296875 0 -7.859375 3.5q-3.546875 3.5 -4.046875 9.75l-0.609375 -4.296875q2.203125 -6.984375 7.484375 -10.59375q5.28125 -3.6249924 12.265625 -3.6249924zm-18.765625 -30.796875l0 93.46874q-3.0625 -0.484375 -6.265625 0q-3.1875 0.484375 -5.890625 1.65625q-2.6875 1.171875 -4.53125 2.765625l-1.828125 -1.109375q0.484375 -1.71875 0.671875 -3.4375q0.1875 -1.71875 0.1875 -3.4375l0 -75.18749q0 -5.515625 -1.65625 -8.15625q-1.65625 -2.640625 -6.203125 -2.640625l0 -2.5625q3.921875 0.359375 7.609375 0.359375q5.03125 0 9.5625 -0.421875q4.546875 -0.4375 8.34375 -1.296875zm80.22037 30.796875q8.953125 0 15.6875 3.3124924q6.75 3.3125 10.546875 10.671875q3.8125 7.359375 3.8125 19.5q0 12.140625 -3.8125 19.4375q-3.796875 7.296875 -10.546875 10.609375q-6.734375 3.3125 -15.6875 3.3125q-8.71875 0 -15.53125 -3.3125q-6.796875 -3.3125 -10.671875 -10.609375q-3.859375 -7.296875 -3.859375 -19.4375q0 -12.140625 3.859375 -19.5q3.875 -7.359375 10.671875 -10.671875q6.8125 -3.3124924 15.53125 -3.3124924zm0 2.453125q-4.90625 0 -8.21875 7.2968674q-3.3125 7.296875 -3.3125 23.734375q0 16.4375 3.3125 23.671875q3.3125 7.234375 8.21875 7.234375q5.03125 0 8.28125 -7.234375q3.25 -7.234375 3.25 -23.671875q0 -16.4375 -3.25 -23.734375q-3.25 -7.2968674 -8.28125 -7.2968674zm61.441467 85.73437q-7.59375 0 -13.546875 -1.296875q-5.953125 -1.28125 -9.328125 -3.921875q-3.375 -2.640625 -3.375 -6.4375q0 -3.796875 3.4375 -6.8125q3.4375 -3.0 10.1875 -4.71875l1.09375 1.96875q-2.328125 1.84375 -3.375 3.984375q-1.03125 2.140625 -1.03125 4.46875q0 5.15625 4.71875 7.90625q4.71875 2.765625 12.8125 2.765625q5.53125 0 9.875 -1.46875q4.359375 -1.46875 6.875 -4.421875q2.515625 -2.9375 2.515625 -7.234375q0 -3.671875 -2.703125 -6.1875q-2.703125 -2.515625 -10.796875 -2.515625l-7.59375 0q-5.03125 0 -8.78125 -1.09375q-3.734375 -1.109375 -5.828125 -3.5q-2.078125 -2.390625 -2.078125 -6.078125q0 -5.15625 4.046875 -9.078125q4.046875 -3.921875 12.015625 -7.359375l1.234375 0.984375q-2.328125 1.46875 -4.359375 3.125q-2.015625 1.65625 -2.015625 4.234375q0 3.921875 4.90625 3.921875l13.359375 0q6.75 0 12.078125 1.59375q5.34375 1.59375 8.46875 5.21875q3.125 3.609375 3.125 9.375q0 6.015625 -3.859375 11.15625q-3.859375 5.15625 -11.84375 8.28125q-7.96875 3.140625 -20.234375 3.140625zm1.234375 -49.1875q-7.0 0 -12.515625 -2.078125q-5.515625 -2.09375 -8.703125 -6.375q-3.1875 -4.296875 -3.1875 -11.046875q0 -6.75 3.1875 -11.09375q3.1875 -4.359375 8.703125 -6.3749924q5.515625 -2.03125 12.515625 -2.03125q6.984375 0 12.5 2.03125q5.53125 2.0156174 8.71875 6.3749924q3.1875 4.34375 3.1875 11.09375q0 6.75 -3.1875 11.046875q-3.1875 4.28125 -8.71875 6.375q-5.515625 2.078125 -12.5 2.078125zm0 -2.203125q3.3125 0 5.140625 -3.734375q1.84375 -3.75 1.84375 -13.5625q0 -9.8125 -1.84375 -13.546875q-1.828125 -3.7499924 -5.140625 -3.7499924q-3.1875 0 -5.09375 3.7499924q-1.90625 3.734375 -1.90625 13.546875q0 9.8125 1.90625 13.5625q1.90625 3.734375 5.09375 3.734375zm19.125 -26.25l-2.453125 -0.859375q1.84375 -4.78125 5.953125 -7.9687424q4.109375 -3.203125 8.890625 -3.203125q3.921875 0 5.953125 2.15625q2.03125 2.140625 2.03125 5.5781174q0 3.671875 -1.96875 5.453125q-1.96875 1.78125 -4.421875 1.78125q-2.078125 0 -3.859375 -1.46875q-1.78125 -1.46875 -2.03125 -4.46875q-0.234375 -3.015625 2.09375 -7.7968674l0.859375 0.734375q-4.65625 1.71875 -7.0 3.9843674q-2.328125 2.265625 -4.046875 6.078125zm39.383575 55.4375q-5.53125 0 -9.21875 -2.078125q-3.671875 -2.09375 -5.390625 -5.578125q-1.703125 -3.5 -1.703125 -7.671875q0 -5.28125 2.390625 -8.59375q2.390625 -3.3125 6.1875 -5.390625q3.8125 -2.09375 8.03125 -3.4375q4.234375 -1.34375 8.09375 -2.625q3.875 -1.296875 6.265625 -3.078125q2.390625 -1.78125 2.390625 -4.59375l0 -9.578125q0 -3.1875 -1.046875 -5.703125q-1.046875 -2.515625 -3.1875 -3.859375q-2.140625 -1.3437424 -5.578125 -1.3437424q-2.453125 0 -4.90625 0.6718674q-2.453125 0.671875 -4.046875 2.265625q3.4375 1.234375 5.328125 3.75q1.90625 2.5 1.90625 5.6875q0 4.171875 -2.890625 6.625q-2.875 2.453125 -6.796875 2.453125q-4.421875 0 -6.6875 -2.75q-2.265625 -2.765625 -2.265625 -6.6875q0 -3.5625 1.765625 -5.890625q1.78125 -2.328125 4.984375 -4.40625q3.421875 -1.9687424 8.265625 -3.0624924q4.84375 -1.109375 10.5 -1.109375q5.640625 0 10.171875 1.171875q4.546875 1.15625 7.609375 4.2187424q2.8125 2.828125 3.671875 6.9375q0.859375 4.109375 0.859375 10.359375l0 33.359375q0 3.0625 0.609375 4.234375q0.625 1.15625 2.09375 1.15625q1.109375 0 2.140625 -0.609375q1.046875 -0.609375 2.28125 -1.46875l1.21875 2.078125q-2.578125 2.21875 -5.953125 3.390625q-3.375 1.15625 -7.53125 1.15625q-4.546875 0 -7.25 -1.28125q-2.6875 -1.296875 -3.859375 -3.5q-1.15625 -2.21875 -1.15625 -5.15625q-2.953125 4.65625 -7.125 7.296875q-4.171875 2.640625 -10.171875 2.640625zm8.703125 -7.84375q2.453125 0 4.46875 -1.171875q2.03125 -1.171875 3.875 -3.859375l0 -25.15625q-1.109375 1.84375 -3.078125 3.328125q-1.953125 1.46875 -4.171875 3.0q-2.203125 1.53125 -4.234375 3.375q-2.015625 1.828125 -3.25 4.53125q-1.21875 2.703125 -1.21875 6.5q0 4.78125 2.078125 7.125q2.09375 2.328125 5.53125 2.328125zm98.25473 -89.06249l0 82.54687q0 5.53125 1.703125 8.171875q1.71875 2.625 6.140625 2.625l0 2.578125q-3.796875 -0.359375 -7.609375 -0.359375q-5.140625 0 -9.625 0.375q-4.46875 0.359375 -8.28125 1.34375l0 -82.56249q0 -5.515625 -1.65625 -8.140625q-1.65625 -2.640625 -6.1875 -2.640625l0 -2.578125q3.921875 0.359375 7.609375 0.359375q5.015625 0 9.546875 -0.421875q4.546875 -0.4375 8.359375 -1.296875zm-31.28125 30.921875q5.390625 0 9.5 1.78125q4.109375 1.7656174 6.4375 5.9374924l-1.46875 1.359375q-1.59375 -2.953125 -4.234375 -4.234375q-2.625 -1.296875 -5.578125 -1.296875q-6.25 0 -9.9375 7.296875q-3.671875 7.296875 -3.546875 22.515625q0 10.421875 1.40625 16.625q1.40625 6.1875 4.046875 8.890625q2.640625 2.6875 6.078125 2.6875q4.15625 0 7.46875 -3.3125q3.3125 -3.3125 3.5625 -8.953125l0.609375 4.296875q-1.828125 6.5 -5.9375 9.875q-4.109375 3.375 -10.734375 3.375q-7.234375 0 -12.9375 -3.546875q-5.703125 -3.5625 -8.90625 -10.984375q-3.1875 -7.421875 -3.1875 -19.203125q0 -11.15625 3.5625 -18.453125q3.5625 -7.296875 9.75 -10.96875q6.1875 -3.6874924 14.046875 -3.6874924zm75.926605 0q8.953125 0 15.6875 3.3124924q6.749939 3.3125 10.546814 10.671875q3.8125 7.359375 3.8125 19.5q0 12.140625 -3.8125 19.4375q-3.796875 7.296875 -10.546814 10.609375q-6.734375 3.3125 -15.6875 3.3125q-8.71875 0 -15.53125 -3.3125q-6.796875 -3.3125 -10.671875 -10.609375q-3.859375 -7.296875 -3.859375 -19.4375q0 -12.140625 3.859375 -19.5q3.875 -7.359375 10.671875 -10.671875q6.8125 -3.3124924 15.53125 -3.3124924zm0 2.453125q-4.90625 0 -8.21875 7.2968674q-3.3125 7.296875 -3.3125 23.734375q0 16.4375 3.3125 23.671875q3.3125 7.234375 8.21875 7.234375q5.03125 0 8.28125 -7.234375q3.25 -7.234375 3.25 -23.671875q0 -16.4375 -3.25 -23.734375q-3.25 -7.2968674 -8.28125 -7.2968674z" fill-rule="nonzero"/><path fill="#ff0000" d="m592.59143 101.56393q8.109375 0 13.3125 2.390625q5.21875 2.390625 9.265625 5.59375q2.453125 1.828125 3.734375 0.421875q1.296875 -1.40625 1.78125 -6.6875l2.828125 0q-0.25 4.78125 -0.375 11.59375q-0.125 6.8125 -0.125 18.093742l-2.8125 0q-0.625 -5.6406174 -1.609375 -9.624992q-0.96875 -3.984375 -2.6875 -7.046875q-1.71875 -3.078125 -4.90625 -5.53125q-3.0625 -3.0625 -7.109375 -4.53125q-4.046875 -1.484375 -8.46875 -1.484375q-6.625 0 -11.28125 3.5q-4.65625 3.5 -7.546875 9.515625q-2.875 6.0 -4.234375 13.546867q-1.34375 7.546875 -1.34375 15.640625q0 8.21875 1.40625 15.765625q1.40625 7.53125 4.40625 13.421875q3.015625 5.890625 7.796875 9.328125q4.78125 3.421875 11.28125 3.421875q4.046875 0 8.15625 -1.53125q4.109375 -1.53125 7.0625 -4.46875q4.78125 -3.6875 6.5 -9.140625q1.71875 -5.453125 2.578125 -14.53125l2.8125 0q0 11.65625 0.125 18.828125q0.125 7.171875 0.375 12.078125l-2.828125 0q-0.484375 -5.28125 -1.65625 -6.625q-1.15625 -1.34375 -3.859375 0.375q-4.546875 3.1875 -9.640625 5.578125q-5.078125 2.390625 -13.046875 2.390625q-13.0 0 -22.765625 -5.265625q-9.75 -5.28125 -15.140625 -15.21875q-5.390625 -9.9375 -5.390625 -23.921875q0 -13.734375 5.578125 -24.031242q5.578125 -10.3125 15.328125 -16.078125q9.75 -5.765625 22.5 -5.765625zm82.92584 23.4375q3.921875 0 6.375 1.65625q2.453125 1.6562424 3.609375 4.2343674q1.171875 2.5625 1.171875 5.390625q0 4.53125 -2.640625 7.421875q-2.625 2.875 -6.921875 2.875q-4.296875 0 -6.6875 -2.140625q-2.390625 -2.15625 -2.390625 -5.703125q0 -3.4375 1.53125 -5.703125q1.53125 -2.265625 3.859375 -3.859375q-1.71875 -0.5 -3.421875 0.109375q-2.34375 0.375 -4.421875 1.90625q-2.078125 1.53125 -3.5625 3.8125q-1.46875 2.265625 -2.328125 4.90625q-0.859375 2.625 -0.859375 5.078125l0 32.5q0 5.890625 2.875 7.984375q2.890625 2.078125 8.65625 2.078125l0 2.578125q-2.8125 -0.125 -8.21875 -0.296875q-5.390625 -0.1875 -11.28125 -0.1875q-4.90625 0 -9.9375 0.1875q-5.03125 0.171875 -7.609375 0.296875l0 -2.578125q4.296875 0 6.078125 -1.828125q1.78125 -1.84375 1.78125 -7.0l0 -38.640625q0 -5.515625 -1.65625 -8.15625q-1.65625 -2.640625 -6.203125 -2.640625l0 -2.5624924q3.9375 0.359375 7.609375 0.359375q5.15625 0 9.625 -0.421875q4.484375 -0.4375 8.28125 -1.296875l0 11.406242q1.46875 -3.3125 3.921875 -6.0q2.453125 -2.703125 5.640625 -4.2343674q3.203125 -1.53125 7.125 -1.53125zm31.030518 -29.9375q5.15625 0 8.15625 2.515625q3.015625 2.515625 3.015625 6.9375q0 4.40625 -3.015625 6.921875q-3.0 2.515625 -8.15625 2.515625q-5.15625 0 -8.15625 -2.515625q-3.0 -2.515625 -3.0 -6.921875q0 -4.421875 3.0 -6.9375q3.0 -2.515625 8.15625 -2.515625zm9.5625 30.296875l0 53.359367q0 5.15625 1.78125 7.0q1.78125 1.828125 6.078125 1.828125l0 2.578125q-2.21875 -0.125 -6.875 -0.296875q-4.65625 -0.1875 -9.4375 -0.1875q-4.796875 0 -9.703125 0.1875q-4.90625 0.171875 -7.359375 0.296875l0 -2.578125q4.296875 0 6.078125 -1.828125q1.78125 -1.84375 1.78125 -7.0l0 -38.640625q0 -5.515625 -1.65625 -8.15625q-1.65625 -2.640625 -6.203125 -2.640625l0 -2.5624924q3.9375 0.359375 7.609375 0.359375q5.15625 0 9.625 -0.421875q4.484375 -0.4375 8.28125 -1.296875zm38.152405 0l0 74.82812q0 5.765625 2.9375 7.65625q2.953125 1.90625 8.09375 1.90625l0 2.578125q-3.1875 -0.125 -8.765625 -0.3125q-5.578125 -0.1875 -11.828125 -0.1875q-4.546875 0 -8.90625 0.1875q-4.34375 0.1875 -6.5625 0.3125l0 -2.578125q4.046875 0 5.703125 -1.71875q1.65625 -1.71875 1.65625 -6.625l0 -61.328125q0 -5.515625 -1.71875 -8.15625q-1.703125 -2.640625 -6.125 -2.640625l0 -2.5624924q3.921875 0.359375 7.609375 0.359375q5.03125 0 9.5625 -0.421875q4.53125 -0.4375 8.34375 -1.296875zm19.015625 -0.359375q6.25 0 11.15625 3.3749924q4.90625 3.359375 7.84375 10.171875q2.953125 6.8125 2.953125 16.984375q0 8.953125 -2.03125 15.703125q-2.015625 6.75 -5.765625 11.359375q-3.734375 4.59375 -8.953125 6.921875q-5.203125 2.328125 -11.703125 2.328125q-4.796875 0 -8.71875 -1.65625q-3.921875 -1.65625 -6.0 -4.71875l1.21875 -1.59375q1.234375 2.203125 3.5 3.4375q2.265625 1.21875 5.203125 1.21875q5.53125 0 8.71875 -3.734375q3.1875 -3.75 4.59375 -10.546875q1.40625 -6.8125 1.40625 -16.265625q0 -10.546875 -1.34375 -16.546875q-1.34375 -6.015625 -3.6875 -8.59375q-2.328125 -2.578125 -5.640625 -2.578125q-4.40625 0 -8.03125 3.4375q-3.609375 3.4375 -4.109375 9.8125l-0.609375 -4.296875q2.203125 -6.984375 7.53125 -10.59375q5.34375 -3.6249924 12.46875 -3.6249924zm54.453125 -18.40625l0 20.125l14.46875 0l0 2.4531174l-14.46875 0l0 49.546875q0 3.671875 1.34375 5.21875q1.359375 1.53125 4.046875 1.53125q2.21875 0 4.421875 -1.65625q2.203125 -1.65625 3.921875 -5.703125l2.09375 1.09375q-1.96875 5.53125 -5.953125 9.09375q-3.984375 3.546875 -10.859375 3.546875q-4.046875 0 -7.109375 -1.046875q-3.0625 -1.046875 -5.15625 -3.125q-2.703125 -2.703125 -3.5625 -6.6875q-0.84375 -3.984375 -0.84375 -10.359375l0 -41.453125l-10.3125 0l0 -2.4531174l10.3125 0l0 -16.203125q5.140625 0 9.5 -0.90625q4.359375 -0.921875 8.15625 -3.015625zm49.434387 18.40625q8.953125 0 15.6875 3.3124924q6.75 3.3125 10.546875 10.671875q3.8125 7.359375 3.8125 19.5q0 12.140625 -3.8125 19.4375q-3.796875 7.296875 -10.546875 10.609375q-6.734375 3.3125 -15.6875 3.3125q-8.71875 0 -15.53125 -3.3125q-6.796875 -3.3125 -10.671875 -10.609375q-3.859375 -7.296875 -3.859375 -19.4375q0 -12.140625 3.859375 -19.5q3.875 -7.359375 10.671875 -10.671875q6.8125 -3.3124924 15.53125 -3.3124924zm0 2.453125q-4.90625 0 -8.21875 7.2968674q-3.3125 7.296875 -3.3125 23.734375q0 16.4375 3.3125 23.671875q3.3125 7.234375 8.21875 7.234375q5.03125 0 8.28125 -7.234375q3.25 -7.234375 3.25 -23.671875q0 -16.4375 -3.25 -23.734375q-3.25 -7.2968674 -8.28125 -7.2968674z" fill-rule="nonzero"/></g></svg>