<svg width="960" height="540" xmlns="http://www.w3.org/2000/svg" version="1.1" fill="none" stroke-linecap="square" stroke-miterlimit="10">
 <clipPath id="p.0">
  <path d="m0,0l960,0l0,540l-960,0l0,-540z" clip-rule="nonzero" id="svg_1"/>
 </clipPath>

 <g>
  <title>Layer 1</title>
  <g stroke="null" clip-path="url(#p.0)" id="svg_2">
   <path stroke="null" fill="#ffffff" d="m-108.00004,-89.00001l1197.00004,0l0,731l-1197.00004,0l0,-731z" fill-rule="evenodd" id="svg_3"/>
   <path stroke="null" fill="#000000" fill-opacity="0" d="m-87.5984,169.07775l1156.19685,0l0,214.8445l-1156.19685,0l0,-214.8445z" fill-rule="evenodd" id="svg_4"/>
   <path stroke="null" fill="#000000" d="m81.36856,200.64345l0,3.59577q-5.6499,0.19036 -8.55277,1.37485q-2.90289,1.16334 -3.91598,4.31493q-0.9936,3.1516 -0.9936,9.83551l0,89.5348q0,6.49355 0.9936,9.7509q1.01309,3.23619 3.91598,4.23033q2.90288,0.99412 8.55277,0.99412l12.13756,0q7.81244,0 12.72201,-1.79788q4.90957,-1.81904 7.81246,-5.68979q2.90288,-3.89189 4.40302,-10.38544q1.50014,-6.49355 2.3379,-15.88487l3.81856,0q-0.50654,5.60519 -0.50654,14.80613q0,3.42656 0.25326,9.83551q0.25327,6.40894 0.91568,13.26206q-8.47486,-0.35957 -19.11226,-0.44418q-10.6374,-0.10576 -18.95639,-0.10576q-3.66269,0 -9.41002,0q-5.72783,0 -12.37133,0.10576q-6.64351,0.0846 -13.46236,0.16922q-6.81884,0.0846 -12.97528,0.27496l0,-3.61692q5.66938,-0.35958 8.57227,-1.43831q2.90288,-1.07874 3.89649,-4.31493q1.01308,-3.25735 1.01308,-9.7509l0,-89.5348q0,-6.68391 -1.01308,-9.83551q-0.99361,-3.15159 -3.89649,-4.31493q-2.90289,-1.18449 -8.57227,-1.37485l0,-3.59577q3.50684,0.16922 9.15674,0.35957q5.64989,0.16922 12.13755,0.16922q5.80576,0 11.53359,-0.16922q5.74731,-0.19036 9.56586,-0.35957l-0.00002,0zm93.60149,32.29852q14.63131,0 22.85289,9.6663q8.24106,9.64514 8.24106,30.0353l-58.70053,0l-0.15585,-3.42656l42.88081,0q0.35068,-8.84138 -1.32481,-16.32905q-1.656,-7.48767 -5.24076,-11.99298q-3.56529,-4.52645 -9.21519,-4.52645q-7.65659,0 -13.55977,8.31259q-5.90317,8.29144 -7.05264,26.35492l0.48707,0.71916q-0.33121,2.70741 -0.50654,5.96475q-0.15585,3.23619 -0.15585,6.47239q0,12.28909 3.66269,21.13047q3.66269,8.84138 9.56586,13.45243q5.90318,4.58991 12.21549,4.58991q4.9875,0 9.46846,-1.71328q4.50043,-1.71327 8.31899,-5.68978q3.81856,-3.97651 6.64351,-10.63928l3.33149,1.43831q-1.83135,5.96475 -6.00059,11.56994q-4.14975,5.58403 -10.46206,9.0952q-6.31231,3.51117 -14.63131,3.51117q-11.96221,0 -20.53448,-5.94361q-8.55277,-5.96475 -13.13115,-16.5194q-4.55889,-10.55466 -4.55889,-24.28206q0,-15.86371 4.63682,-27.3279q4.65631,-11.46418 13.13115,-17.68276q8.49434,-6.23973 19.79415,-6.23973l-0.00002,0zm74.31962,129.40562q-8.82554,0 -16.63799,-1.98825q-7.81246,-1.98825 -12.54668,-6.23972q-4.73424,-4.23033 -4.73424,-10.72388q0,-6.30318 4.65631,-10.82963q4.65629,-4.50529 12.6246,-6.85313l0.9936,2.89778q-3.64321,1.24794 -5.80576,5.03409q-2.16254,3.80729 -2.16254,8.50295q0,8.29144 7.05264,12.71211q7.07211,4.4207 18.37192,4.4207q7.48125,0 14.63131,-2.07286q7.15005,-2.07286 11.80635,-6.95889q4.65629,-4.86487 4.65629,-12.79673q0,-5.96475 -3.91596,-9.83551q-3.89649,-3.89189 -15.37164,-3.89189l-12.2934,0q-5.31871,0 -10.30621,-0.88836q-4.9875,-0.90951 -8.14365,-3.78613q-3.15615,-2.89778 -3.15615,-8.86254q0,-6.13397 4.63682,-11.82375q4.65631,-5.68979 17.12506,-11.63339l2.00668,1.62867q-5.6499,3.2362 -9.81915,6.57817q-4.14975,3.34195 -4.14975,7.84724q0,5.7744 7.98779,5.7744l20.76826,0q6.99418,0 12.87788,2.17861q5.90318,2.15746 9.56587,6.85313q3.66269,4.69565 3.66269,12.26794q0,8.48181 -4.9875,15.88487q-4.9875,7.40307 -14.88457,11.99297q-9.89707,4.61105 -24.50889,4.61105l0.00002,0.00001zm0.81826,-72.38084q-8.14365,0 -14.80665,-2.96123q-6.64351,-2.98237 -10.46207,-9.28555q-3.81856,-6.32435 -3.81856,-16.26561q0,-9.9201 3.81856,-16.22328q3.81856,-6.32435 10.46207,-9.30672q6.66299,-2.98238 14.80665,-2.98238q8.31899,0 14.88457,2.98238q6.56557,2.98237 10.38413,9.30672q3.81856,6.30318 3.81856,16.22328q0,9.94126 -3.81856,16.26561q-3.81856,6.30318 -10.38413,9.28555q-6.56558,2.96123 -14.88457,2.96123zm0,-3.23619q6.31231,0 9.87758,-5.41481q3.58476,-5.41481 3.58476,-19.86138q0,-14.42541 -3.58476,-19.84022q-3.56527,-5.41481 -9.87758,-5.41481q-6.15644,0 -9.81915,5.41481q-3.64322,5.41481 -3.64322,19.84022q0,14.44657 3.64322,19.86138q3.66269,5.41481 9.81915,5.41481zm23.94389,-38.81324l-3.00029,-1.24794q2.3379,-6.15513 7.98779,-10.82963q5.6499,-4.69565 11.80635,-4.69565q4.3251,0 6.97471,2.6228q2.6691,2.60165 2.6691,7.84724q0,5.58403 -2.74702,7.84726q-2.74701,2.24207 -5.57198,2.24207q-2.49375,0 -4.65629,-1.8825q-2.16256,-1.90364 -2.49375,-6.04937q-0.33121,-4.14571 2.3379,-10.63925l2.16254,0.52878q-6.99418,2.89778 -9.99447,6.04937q-2.98082,3.1516 -5.47457,8.20683l-0.00001,0zm54.35779,81.77216q-6.81885,0 -11.80635,-2.79201q-4.9875,-2.81315 -7.55918,-7.8684q-2.57168,-5.05523 -2.57168,-11.718q0,-7.95301 3.40942,-13.00824q3.40943,-5.05525 8.72813,-8.12222q5.31871,-3.067 11.22188,-5.13985q5.90318,-2.07286 11.22188,-3.95535q5.31871,-1.90364 8.72813,-4.4207q3.40943,-2.53819 3.40943,-6.68391l0,-11.1892q0,-7.59344 -2.08462,-11.54878q-2.08461,-3.97651 -5.57198,-5.33021q-3.48735,-1.3537 -7.81244,-1.3537q-4.14976,0 -8.90348,1.2691q-4.73423,1.24794 -7.55918,5.22444q3.15615,0.71916 5.47457,3.61694q2.3379,2.87662 2.3379,7.3819q0,4.52645 -2.6691,7.14925q-2.6496,2.60166 -6.79936,2.60166q-4.83165,0 -7.07212,-3.34195q-2.24048,-3.34195 -2.24048,-7.48767q0,-4.69565 2.16254,-7.57228q2.16256,-2.89778 5.49404,-5.41481q3.81856,-2.89778 9.87759,-4.97064q6.07852,-2.07286 13.71563,-2.07286q6.81885,0 11.631,1.71328q4.83165,1.71327 7.98779,4.97062q4.3251,4.33609 5.6499,10.55466q1.34429,6.21857 1.34429,14.89074l0,50.17165q0,4.50529 1.24688,6.49354q1.24688,1.98825 3.89649,1.98825q1.83135,0 3.48735,-0.88836q1.67549,-0.90951 3.9939,-2.89777l1.83135,3.06697q-3.48736,2.89778 -6.66299,4.80143q-3.15615,1.88249 -8.47486,1.88249q-4.81215,0 -7.96831,-1.79788q-3.15615,-1.81904 -4.73424,-5.33021q-1.57807,-3.53233 -1.57807,-8.94714q-4.50044,8.12222 -10.73482,12.09873q-6.23438,3.97651 -14.04682,3.97651l-0.00001,-0.00004zm5.9811,-7.23385q5.49404,0 10.22827,-3.42656q4.73423,-3.42656 8.57227,-10.27968l0,-35.38666q-2.00669,3.06697 -5.82525,5.16099q-3.81856,2.07286 -8.31899,4.14571q-4.48096,2.07286 -8.55279,4.88602q-4.07182,2.79201 -6.74092,7.29731q-2.6496,4.50529 -2.6496,11.73915q0,7.21271 3.56529,11.54878q3.58476,4.31493 9.72173,4.31493zm79.63314,-135.53958l0,124.70995q0,7.59344 2.90289,10.30084q2.92236,2.70741 9.74121,2.70741l0,3.78613q-2.82496,-0.19036 -8.57227,-0.44418q-5.72783,-0.27498 -11.55308,-0.27498q-5.6499,0 -11.47514,0.27498q-5.80576,0.25382 -8.63072,0.44418l0,-3.78613q6.81885,0 9.72174,-2.70741q2.90288,-2.70741 2.90288,-10.30084l0,-103.05069q0,-8.12222 -2.66909,-11.99297q-2.6496,-3.89189 -9.95553,-3.89189l0,-3.78615q5.31871,0.54994 10.30621,0.54994q4.81215,0 9.21518,-0.63454q4.40302,-0.63454 8.06573,-1.90364z" fill-rule="nonzero" id="svg_5"/>
   <path stroke="null" fill="#ff0000" d="m492.0011,198.10526q10.9686,0 18.02123,3.53231q7.07212,3.51117 12.56617,8.20683q3.31201,2.70741 5.06543,0.63454q1.75342,-2.07286 2.41582,-9.8355l3.81852,0q-0.33121,6.66276 -0.50654,16.24444q-0.15585,9.56054 -0.15585,25.25503l-3.81852,0q-1.16894,-7.76265 -2.16256,-12.35255q-0.9936,-4.61105 -2.41582,-7.84726q-1.42221,-3.25735 -3.74063,-6.5147q-5.16284,-7.40307 -12.97529,-10.72387q-7.81244,-3.34195 -16.44316,-3.34195q-8.14365,0 -14.72871,4.42068q-6.56557,4.4207 -11.29981,12.73327q-4.73423,8.29144 -7.3059,20.0306q-2.57168,11.718 -2.57168,26.33376q0,15.16571 2.82494,26.82026q2.82496,11.63339 7.89039,19.5864q5.06543,7.93187 11.96221,11.99298q6.89677,4.06111 14.88457,4.06111q7.48125,0 15.6249,-3.2362q8.14365,-3.25735 12.79994,-10.4912q3.66269,-5.22444 5.06543,-11.35841q1.42223,-6.13397 2.59117,-17.15397l3.81852,0q0,16.43481 0.15585,26.46069q0.17534,10.00471 0.50654,16.85784l-3.81852,0q-0.6624,-7.76264 -2.24049,-9.75089q-1.57807,-1.98825 -5.24076,0.54994q-6.15644,4.69565 -13.05323,8.20683q-6.89677,3.51117 -17.70952,3.51117q-15.78076,0 -27.68451,-7.74149q-11.88427,-7.76265 -18.44986,-22.37841q-6.56557,-14.63692 -6.56557,-35.1963q0,-20.22095 6.81885,-35.38667q6.81885,-15.1657 18.70313,-23.64751q11.88427,-8.4818 27.35332,-8.4818l-0.00001,0.00001zm109.21272,34.83672q4.50044,0 7.89039,1.98825q3.40942,1.98825 5.31869,5.13985q1.92877,3.15159 1.92877,7.12808q0,4.5053 -2.59117,7.95301q-2.57168,3.42656 -6.89677,3.42656q-3.48735,0 -6.15644,-2.43243q-2.6496,-2.45359 -2.6496,-6.95889q0,-3.42656 1.73394,-5.85899q1.75342,-2.45359 3.91596,-3.89189q-1.16894,-1.7979 -3.48735,-1.7979q-5.14335,0 -9.46846,3.34195q-4.3251,3.34195 -7.3254,8.58756q-2.98082,5.22445 -4.65631,11.08345q-1.656,5.85901 -1.656,10.91424l0,38.26328q0,8.84138 4.73423,11.82375q4.73424,2.98238 12.87789,2.98238l0,3.78613q-3.81856,-0.19036 -10.81275,-0.44418q-6.97471,-0.27498 -14.78715,-0.27498q-5.6499,0 -11.22188,0.27498q-5.55249,0.25382 -8.39693,0.44418l0,-3.78613q6.81885,0 9.72174,-2.70741q2.92236,-2.70741 2.92236,-10.30084l0,-56.47482q0,-8.12222 -2.6691,-11.99297q-2.6496,-3.89189 -9.975,-3.89189l0,-3.78615q5.33818,0.5288 10.32568,0.5288q4.81216,0 9.21519,-0.63454q4.40302,-0.63454 8.06573,-1.8825l0,22.54763q1.83135,-5.22444 5.24076,-10.55465q3.40943,-5.33021 8.22158,-8.92598q4.83165,-3.61694 10.6374,-3.61694l0.00001,0zm99.57832,2.53819l0,3.59577q-3.15615,0.35958 -5.82525,3.067q-2.6496,2.70741 -4.96801,9.56054l-27.2754,77.62645l-2.82496,0l-30.5874,-79.95313q-3.15615,-7.04349 -6.23438,-8.56641q-3.07823,-1.54406 -5.06543,-1.54406l0,-3.78615q3.66269,0.5288 7.6371,0.80376q3.9939,0.27498 8.65019,0.27498q5.16285,0 10.89068,-0.35958q5.72783,-0.35957 10.71533,-0.71916l0,3.78615q-4.14976,0 -7.40332,0.63454q-3.23408,0.61339 -4.07183,3.78613q-0.81826,3.1516 2.00669,10.72388l20.45654,55.05766l-1.01309,0.35958l18.95639,-53.78858q2.16256,-5.9436 1.73394,-9.45477q-0.40914,-3.53233 -3.40943,-5.33021q-2.98081,-1.81904 -8.96191,-2.17862l0,-3.59577q3.00029,0.16922 5.14335,0.27498q2.16256,0.0846 4.24717,0.16922q2.08462,0.0846 4.57837,0.0846q3.81856,0 6.89677,-0.16922q3.07823,-0.19037 5.72783,-0.35958l0.00004,0zm-38.06865,93.84974l-5.6499,15.6945q-1.65601,4.50529 -3.40943,7.57228q-1.73393,3.06697 -3.74063,5.05523q-2.6496,2.70741 -6.31231,3.70154q-3.66269,0.99412 -6.6435,0.99412q-3.15615,0 -5.74732,-1.2691q-2.57168,-1.24794 -4.07182,-3.70153q-1.50015,-2.43244 -1.50015,-5.85901q0,-4.33607 2.31841,-6.95888q2.3379,-2.60166 6.50713,-2.60166q3.48735,0 5.9811,2.15746q2.49375,2.17862 2.49375,6.32435q0,3.06697 -1.34428,5.05523q-1.32481,1.98825 -3.15615,3.067q0.33119,0.19036 0.58448,0.19036q0.25326,0 0.42861,0q4.48096,0 7.96831,-3.34195q3.48736,-3.34195 6.15644,-10.74502l5.98111,-16.79438l3.15615,1.45946l0.00002,0.00001zm70.98687,-95.838l0,110.81334q0,7.76264 4.22768,10.3643q4.24717,2.6228 11.72842,2.6228l0,3.78613q-3.64321,-0.16922 -10.13085,-0.44418q-6.48764,-0.27498 -13.79356,-0.27498q-5.16284,0 -10.22826,0.27498q-5.06543,0.27496 -7.73452,0.44418l0,-3.78613q5.98111,0 8.47486,-2.34784q2.49375,-2.34783 2.49375,-8.84138l0,-90.95196q0,-8.12222 -2.6691,-11.99297q-2.6496,-3.89189 -9.95551,-3.89189l0,-3.78615q5.31869,0.5288 10.30619,0.5288q4.81216,0 9.21519,-0.63454q4.40302,-0.63454 8.06573,-1.8825zm26.5935,-0.54994q8.82554,0 15.80025,5.13985q6.99418,5.13984 11.06602,15.0811q4.07182,9.92012 4.07182,24.53588q0,9.7509 -2.16254,19.22683q-2.16256,9.47592 -6.74092,17.15396q-4.57837,7.65688 -11.80635,12.26794q-7.22799,4.58991 -17.35884,4.58991q-7.81244,0 -13.55977,-3.95536q-5.72783,-3.97651 -7.73451,-9.58168l1.67549,-2.51705q2.3184,5.05525 6.72143,8.48181q4.40302,3.42656 11.06602,3.42656q9.3126,0 14.45596,-6.30318q5.16285,-6.32435 7.22799,-16.87899q2.08461,-10.55466 2.08461,-23.37255q0,-14.44655 -2.16254,-23.64751q-2.16256,-9.20095 -6.48765,-13.70625q-4.3251,-4.52645 -10.6374,-4.52645q-8.14365,0 -14.80665,7.31846q-6.6435,7.29731 -8.47485,22.10345l-1.98721,-2.53819q1.83135,-15.33493 10.05293,-23.81673q8.24106,-8.48181 19.69673,-8.48181l-0.00001,0zm70.32517,-27.43364l0,30.14105l24.6063,0l0,3.61694l-24.6063,0l0,69.84265q0,8.4818 2.82494,11.90835q2.82496,3.42656 7.81246,3.42656q4.9875,0 8.65019,-4.42068q3.66269,-4.4207 6.31231,-14.89074l3.33149,0.90951q-1.656,10.47006 -6.56557,17.68276q-4.90957,7.21271 -15.04043,7.21271q-5.6499,0 -9.3126,-1.54408q-3.66269,-1.52292 -6.48765,-4.39953q-3.66269,-4.14571 -5.08491,-9.9201q-1.40274,-5.7744 -1.40274,-15.35607l0,-60.45133l-15.95611,0l0,-3.61694l15.95611,0l0,-27.62402q4.16924,-0.16922 7.98779,-0.698q3.81856,-0.54994 6.97471,-1.81904zm72.8192,27.43364q10.6374,0 19.11226,5.05525q8.49434,5.05523 13.55977,15.88486q5.06543,10.82963 5.06543,28.15282q0,17.32317 -5.06543,28.06819q-5.06543,10.74502 -13.55977,15.80027q-8.47486,5.03409 -19.11226,5.03409q-10.48154,0 -19.03432,-5.03409q-8.55279,-5.05525 -13.63769,-15.80027q-5.06543,-10.74502 -5.06543,-28.06819q0,-17.32319 5.06543,-28.15282q5.08491,-10.82963 13.63769,-15.88486q8.55277,-5.05525 19.03432,-5.05525zm0,3.61694q-9.46846,0 -15.54698,10.66042q-6.05902,10.63925 -6.05902,34.81557q0,24.1763 6.05902,34.7521q6.07852,10.55466 15.54698,10.55466q9.46846,0 15.52749,-10.55466q6.07852,-10.57581 6.07852,-34.7521q0,-24.17631 -6.07852,-34.81557q-6.05904,-10.66042 -15.52749,-10.66042z" fill-rule="nonzero" id="svg_6"/>
  </g>
 </g>
</svg>