<svg xmlns="http://www.w3.org/2000/svg" width="1080" height="1080" viewBox="0 0 1080 1080" version="1.1"><path d="M 214.716 413.250 C 201.189 494.788, 190.463 561.845, 190.879 562.268 C 191.295 562.690, 203.062 562.915, 217.028 562.768 L 242.421 562.500 266.596 416.699 C 279.892 336.509, 291.036 269.571, 291.360 267.949 L 291.950 265 265.629 265 L 239.308 265 214.716 413.250 M 496 416 L 496 562 499 562 L 502 562 502 416 L 502 270 499 270 L 496 270 496 416 M 626 297.446 C 615.396 300.431, 609.001 304.355, 599.349 313.799 C 591.793 321.192, 585.926 329.701, 581.023 340.376 C 571.062 362.062, 562.950 396.636, 559.876 430.500 C 558.128 449.756, 558.112 486.771, 559.848 494.500 C 561.536 502.014, 566.228 512.051, 570.132 516.497 C 579.980 527.714, 600.287 530.788, 627.480 525.178 L 640.460 522.500 642.630 509.500 C 643.874 502.045, 644.427 496.106, 643.926 495.577 C 643.394 495.014, 636.271 495.361, 625.681 496.467 C 616.127 497.464, 606.715 497.982, 604.767 497.616 C 599.283 496.587, 594.748 492.993, 592 487.499 C 589.719 482.937, 589.470 481.150, 589.156 467.051 C 588.679 445.575, 591.433 420.308, 597.607 389.536 C 604.225 356.544, 615.910 332.168, 628.082 325.958 C 632.412 323.749, 637.435 323.524, 648.392 325.048 C 657.167 326.269, 662.333 325.273, 666.821 321.497 C 669.812 318.981, 673.280 311.967, 674.333 306.306 C 675.037 302.526, 676.362 303.090, 657.215 299.029 C 642.050 295.813, 633.364 295.373, 626 297.446 M 875.563 299.101 C 875.295 299.871, 873.468 311.300, 871.503 324.500 C 869.539 337.700, 867.686 349.738, 867.386 351.250 L 866.841 354 855.026 354 C 833.269 354, 821.988 360.070, 809.152 378.686 C 797.902 395, 789.183 429.419, 785.926 470.365 C 782.518 513.214, 789.322 526.127, 816.158 527.745 L 824.817 528.267 832.811 522.633 C 837.207 519.535, 841.074 517, 841.402 517 C 841.731 517, 842 517.650, 842 518.444 C 842 519.239, 843.067 521.129, 844.371 522.645 C 846.683 525.332, 847.014 525.403, 857.620 525.451 L 868.497 525.500 885.341 416.184 C 894.604 356.060, 901.910 305.778, 901.576 304.446 C 900.564 300.416, 897.215 299.090, 886.229 298.370 C 877.970 297.828, 875.959 297.966, 875.563 299.101 M 113 343.062 C 84.125 361.190, 56.563 378.366, 51.750 381.230 L 43 386.438 43 413.555 L 43 440.672 93.250 472.008 C 120.888 489.242, 148.585 506.641, 154.800 510.672 C 161.015 514.702, 166.303 518, 166.550 518 C 166.798 518, 167 504.554, 167 488.120 L 167 458.241 131.377 435.979 C 106.839 420.645, 96.181 413.467, 97.127 412.911 C 97.882 412.468, 113.800 402.477, 132.500 390.709 L 166.500 369.313 166.765 339.656 C 166.911 323.345, 166.686 310.023, 166.265 310.051 C 165.844 310.079, 141.875 324.934, 113 343.062 M 314 339.327 L 314 368.654 349.976 391.077 C 381.646 410.817, 385.745 413.655, 384.226 414.796 C 383.277 415.508, 367.095 425.633, 348.266 437.296 L 314.032 458.500 314.016 488.357 C 314.003 511.851, 314.266 518.106, 315.250 517.707 C 315.938 517.428, 344.175 499.870, 378 478.688 L 439.500 440.175 439.766 413.692 L 440.032 387.209 435.266 384.432 C 429.534 381.093, 357.446 336.125, 333.358 320.862 C 323.929 314.888, 315.717 310, 315.108 310 C 314.323 310, 314 318.543, 314 339.327 M 722.402 355.486 C 713.342 357.457, 706.570 361.352, 699.146 368.862 C 686.717 381.435, 679.847 397.120, 673.979 426.318 C 668.781 452.184, 666.732 496.793, 670.224 508.064 C 672.760 516.251, 676.848 521.287, 683.677 524.641 C 689.310 527.407, 689.990 527.499, 704.500 527.467 C 717.650 527.439, 720.193 527.158, 725.119 525.194 C 741.314 518.738, 750.820 506.438, 761.136 478.594 C 767.513 461.379, 770.778 438.135, 771.697 403.394 C 772.241 382.829, 772.136 380.807, 770.181 374.394 C 767.965 367.120, 763.468 361.327, 757.735 358.363 C 749.953 354.339, 733.741 353.019, 722.402 355.486 M 958 355.045 C 951.309 356.430, 941.840 361.440, 936.019 366.673 C 915.156 385.430, 903.827 426.239, 903.585 483.500 C 903.493 505.270, 904.017 508.481, 908.927 516.224 C 916.234 527.746, 935.955 530.861, 967.625 525.496 C 975.756 524.118, 982.735 522.656, 983.133 522.246 C 984.124 521.224, 987.347 497.013, 986.591 496.258 C 986.258 495.925, 980.491 496.672, 973.775 497.919 C 950.909 502.165, 937.257 501.772, 934.031 496.776 C 932.222 493.974, 931.466 475.712, 932.484 459.418 L 933.188 448.153 951.844 447.827 C 969.686 447.514, 970.752 447.382, 976.270 444.796 C 983.323 441.491, 990.609 434.209, 994.139 426.937 C 999.299 416.307, 1001.441 405.081, 1001.472 388.500 C 1001.497 375.312, 1001.246 372.956, 999.397 369 C 994.581 358.696, 987.275 354.718, 972.500 354.358 C 967 354.224, 960.475 354.533, 958 355.045 M 724.907 382.490 C 719.248 385.566, 713.660 395.624, 707.992 412.935 C 701.705 432.138, 698.514 451.123, 697.405 475.927 C 696.723 491.168, 697.689 495.966, 702.100 499.238 C 705.525 501.778, 712.948 501.798, 717.265 499.278 C 724.639 494.973, 732.213 479.584, 735.927 461.359 C 738.880 446.865, 741.964 421.551, 742.675 405.958 C 743.365 390.829, 742.505 386.329, 738.293 383.016 C 735.267 380.636, 728.786 380.381, 724.907 382.490 M 840.929 382.478 C 830.729 388.025, 819.739 423.252, 815.570 463.759 C 813.075 488.006, 813.698 496.274, 818.261 499.471 C 821.710 501.886, 824.285 501.343, 835.238 495.896 L 845.500 490.793 853.780 437.146 C 858.334 407.641, 862.047 382.938, 862.030 382.250 C 861.986 380.429, 844.347 380.619, 840.929 382.478 M 956.491 382.865 C 948.231 386.618, 944.031 394.123, 940.140 412.085 C 938.998 417.356, 937.756 422.471, 937.381 423.451 C 936.745 425.107, 937.458 425.201, 947.599 424.790 C 953.766 424.541, 959.702 423.766, 961.268 423.006 C 971.431 418.074, 978.205 386.391, 970.032 382.017 C 967.118 380.457, 960.939 380.844, 956.491 382.865" stroke="none" fill="#2c2c2c" fill-rule="evenodd"/><path d="M 535.679 597.654 C 535.306 598.028, 535 599.608, 535 601.167 L 535 604 544 604 L 553 604 553 643.493 L 553 682.987 548.435 679.503 C 541.584 674.272, 534.656 672.553, 520.500 672.569 C 511.034 672.580, 507.013 673.042, 501.458 674.757 C 483.547 680.287, 472.645 692.554, 466.759 713.803 C 464.898 720.521, 464.620 724.235, 464.574 743 C 464.526 762.194, 464.760 765.398, 466.755 772.867 C 472.703 795.138, 485.579 809.047, 503.799 812.884 C 522.809 816.887, 542.990 811.166, 551.264 799.428 L 554.485 794.858 555.133 798.179 C 555.489 800.006, 556.083 803.638, 556.452 806.250 L 557.123 811 589.625 811 L 622.127 811 621.813 807.750 L 621.500 804.500 614.755 804.204 L 608.009 803.909 607.755 700.704 L 607.500 597.500 571.929 597.238 C 552.365 597.093, 536.053 597.281, 535.679 597.654 M 400.632 605.460 C 390.398 609.668, 386.038 615.802, 385.224 627.139 C 384.554 636.468, 386.350 642.981, 391.074 648.347 C 395.776 653.689, 401.166 656.012, 410.500 656.718 C 425.304 657.839, 435.832 653.121, 440.705 643.183 C 443.053 638.393, 443.489 636.242, 443.478 629.500 C 443.449 611.908, 433.512 602.963, 414.068 603.024 C 408.397 603.042, 405.029 603.652, 400.632 605.460 M 48 615.434 L 48 619 57 619 L 66 619 66 712 L 66 805 57 805 L 48 805 48 808.500 L 48 812 88.250 811.981 C 148.798 811.952, 168.904 810.424, 186.612 804.506 C 208.396 797.225, 219.537 784.141, 221.991 762.958 C 223.873 746.718, 219.547 732.299, 210.006 723.006 C 203.643 716.808, 191.393 710.670, 179.647 707.792 L 170.794 705.624 176.786 703.984 C 191.270 700.019, 202.821 691.363, 207.919 680.655 C 211.795 672.513, 213.450 660.651, 212.009 651.346 C 208.982 631.810, 196.375 620.479, 171.447 614.892 C 161.935 612.760, 159.019 612.645, 104.750 612.265 L 48 611.867 48 615.434 M 123 661.351 L 123 704 129.134 704 C 137.532 704, 142.784 702.216, 147.106 697.894 C 153.568 691.432, 154.500 686.782, 154.500 661 C 154.500 637.249, 153.925 633.128, 149.752 626.988 C 146.411 622.072, 141.542 620.011, 131.610 619.311 L 123 618.703 123 661.351 M 742.500 636.787 C 735.776 639.023, 729.876 645.054, 727.037 652.593 C 725.164 657.567, 724.871 660.016, 725.185 668.096 L 725.558 677.692 721.529 675.929 C 714.106 672.681, 705.741 671.694, 690.716 672.296 C 675.447 672.907, 669.511 674.149, 659.732 678.779 C 642.513 686.931, 634 700.534, 634 719.895 C 634 739.750, 640.906 751.890, 656.617 759.655 C 660.678 761.662, 664 763.404, 664 763.526 C 664 763.648, 660.431 766.091, 656.068 768.955 C 646.973 774.926, 638.837 783.062, 636.596 788.425 C 631.016 801.779, 635.775 815.763, 648.026 822.013 C 656.899 826.540, 662.087 827.202, 694.500 827.950 C 721.721 828.578, 726.107 828.901, 730.475 830.605 C 737.390 833.300, 740.007 837.375, 739.978 845.398 C 739.912 863.872, 723.761 874.198, 695 874.156 C 676.502 874.129, 666.327 869.814, 662.357 860.312 C 660.823 856.641, 660.544 844.077, 661.892 839.377 C 662.382 837.667, 662.495 835.850, 662.142 835.338 C 661.789 834.827, 657.657 832.713, 652.960 830.640 L 644.420 826.871 638.553 829.066 C 631.624 831.659, 624.833 837.946, 623.016 843.451 C 621.084 849.307, 622.125 858.079, 625.327 862.917 C 630.577 870.851, 639.472 875.451, 657 879.297 C 670.283 882.211, 708.871 882.432, 722.475 879.672 C 755.936 872.883, 773.049 855.252, 772.976 827.645 C 772.947 816.918, 771.900 811.712, 768.289 804.337 C 763.296 794.140, 753.395 787.055, 738.375 782.931 C 731.367 781.006, 726.923 780.694, 697.993 780.093 C 680.115 779.722, 664.927 779.073, 664.243 778.650 C 661.646 777.045, 663.075 774.008, 668.274 770.083 L 673.548 766.101 681.024 767.150 C 690.734 768.513, 710.862 767.676, 718.500 765.593 C 737.892 760.304, 749.384 749.196, 753.492 731.769 C 757.817 713.428, 752.800 697.506, 739.238 686.528 C 733.852 682.168, 733.093 681.105, 732.488 677.070 C 731.154 668.179, 731.738 658.435, 733.851 654.292 C 736.809 648.493, 742.357 646.461, 746.777 649.557 C 750.164 651.929, 749.539 654.635, 744.933 657.543 C 741.210 659.893, 740.920 660.381, 741.509 663.305 C 742.345 667.450, 744.850 670.928, 749.092 673.837 C 752.015 675.840, 753.457 676.121, 759.218 675.806 C 769.279 675.255, 775.137 669.910, 776.494 660.043 C 779 641.826, 762.102 630.266, 742.500 636.787 M 831.110 672.115 C 813.521 673.741, 798.634 680.354, 787.405 691.531 C 779.252 699.646, 774.239 708.752, 770.908 721.500 C 767.924 732.915, 767.917 754.245, 770.892 765.410 C 777.397 789.821, 792.023 804.460, 816.598 811.158 C 827.415 814.106, 855.068 814.374, 865 811.627 C 884.248 806.304, 897.285 793.471, 903.074 774.146 C 904.166 770.503, 904.144 769.704, 902.932 768.937 C 900.294 767.267, 897.975 767.957, 896.829 770.750 C 890.606 785.925, 884.156 794.364, 875.425 798.755 C 865.213 803.890, 851.388 804.269, 842.312 799.662 C 830.554 793.694, 825.931 781.401, 824.483 752.250 L 823.775 738 863.888 738 L 904 738 904 729.065 C 904 699.022, 890.504 680.365, 864.177 674.015 C 854.918 671.781, 842.462 671.066, 831.110 672.115 M 957.140 672.119 C 936.180 675.243, 920.748 689.684, 917.062 709.622 C 913.415 729.352, 919.616 745.577, 934.608 755.528 C 941.946 760.399, 948.459 762.950, 969.007 769.002 C 988.397 774.713, 992.618 776.569, 996.374 781.033 C 1002.125 787.867, 998.013 799.399, 988.545 802.987 C 979.336 806.476, 962.422 806.001, 951.589 801.947 C 940.110 797.652, 928.877 783.765, 923.074 766.693 C 921.603 762.365, 920.909 761.500, 918.905 761.500 L 916.500 761.500 916.500 787.486 C 916.500 811.618, 916.627 813.497, 918.282 813.816 C 919.404 814.032, 921.832 812.276, 924.833 809.080 C 927.519 806.219, 930.486 804, 931.625 804 C 932.738 804, 937.215 805.542, 941.574 807.426 C 957.150 814.160, 975.372 815.661, 991.267 811.519 C 1009.140 806.862, 1020.811 794.819, 1024.551 777.174 C 1029.754 752.624, 1020.628 732.597, 999.667 722.565 C 995.725 720.679, 984.428 716.838, 974.562 714.030 C 964.696 711.223, 954.346 707.705, 951.562 706.213 C 939.020 699.491, 940.915 686.178, 955.084 681.472 C 963.092 678.812, 978.714 679.750, 986.166 683.338 C 994.084 687.150, 1002.762 696.697, 1008.099 707.468 C 1011.602 714.537, 1012.728 716, 1014.663 716 L 1017 716 1017 693.500 L 1017 671 1014.750 671.061 C 1013.298 671.101, 1011.424 672.608, 1009.466 675.311 C 1005.605 680.641, 1003.388 680.896, 993.908 677.100 C 981.379 672.083, 968.810 670.380, 957.140 672.119 M 329 673.330 C 318.151 675.862, 309.110 682.393, 303.914 691.453 L 301.019 696.500 301.009 685.750 L 301 675 265.937 675 L 230.873 675 231.187 678.250 L 231.500 681.500 239.250 681.792 L 247 682.084 247 743.542 L 247 805 239 805 L 231 805 231 808 L 231 811 276 811 L 321 811 321 808 L 321 805 311 805 L 301 805 301.035 764.750 C 301.073 720.264, 301.701 713.510, 306.811 702.590 C 310.067 695.633, 315.806 688.669, 320.125 686.435 C 321.652 685.646, 324.713 685, 326.927 685 C 332.147 685, 334.548 688.099, 333.243 693.155 C 332.432 696.299, 332.072 696.531, 327.252 697.022 C 324.431 697.309, 321.857 697.810, 321.531 698.136 C 320.147 699.519, 319.231 709.855, 320.087 714.434 C 321.861 723.930, 328.798 729.388, 340.657 730.617 C 351.860 731.778, 360.712 727.554, 365.614 718.708 C 368.298 713.864, 368.496 712.766, 368.437 703 C 368.365 691.155, 367.175 687.413, 361.469 681.097 C 354.908 673.835, 341.045 670.519, 329 673.330 M 370.187 678.250 L 370.500 681.500 378.091 681.789 L 385.683 682.078 386.390 742.557 C 386.778 775.820, 386.823 803.477, 386.489 804.017 C 386.155 804.558, 382.534 805, 378.441 805 L 371 805 371 808 L 371 811 414.063 811 L 457.127 811 456.813 807.750 L 456.500 804.500 448.750 804.208 L 441 803.916 441 739.458 L 441 675 405.437 675 L 369.873 675 370.187 678.250 M 688.615 682.045 C 684.048 687.473, 683.503 691.468, 683.501 719.500 C 683.500 753.971, 685.211 760, 695 760 C 704.698 760, 706.473 753.893, 706.482 720.500 C 706.489 693.174, 705.568 685.983, 701.495 681.590 C 697.930 677.742, 692.061 677.950, 688.615 682.045 M 832.546 682.094 C 827.208 686.780, 825.865 692.435, 825.261 712.750 L 824.748 730 838.494 730 L 852.241 730 851.727 711.250 C 851.445 700.938, 850.673 690.735, 850.013 688.579 C 847.135 679.184, 839.210 676.242, 832.546 682.094 M 529.762 683.973 C 522.527 689.663, 520.807 700.835, 520.750 742.500 C 520.703 777.228, 521.458 786.096, 525.108 793.693 C 528.929 801.644, 538.042 802.010, 545.538 794.515 C 552.935 787.118, 553.132 785.600, 552.793 738.846 L 552.500 698.500 549.500 692.500 C 544.669 682.838, 535.978 679.083, 529.762 683.973 M 123 758.515 L 123 805.302 133.112 804.686 C 152.167 803.525, 159.017 796.763, 161.996 776.169 C 163.302 767.141, 163.251 743.728, 161.911 736.474 C 158.885 720.105, 150.399 713.161, 132.263 712.212 L 123 711.727 123 758.515" stroke="none" fill="#ec1c1c" fill-rule="evenodd"/></svg>