<svg xmlns="http://www.w3.org/2000/svg" width="54" height="54" viewBox="0 0 54 54"><path d="M10.736 20.663c-0.676 4.077 -1.213 7.43 -1.192 7.451 0.021 0.021 0.609 0.032 1.307 0.025l1.27 -0.013 1.209 -7.29c0.665 -4.01 1.222 -7.356 1.238 -7.438l0.029 -0.147h-2.632l-1.23 7.413M24.8 20.8v7.3h0.3V13.5h-0.3v7.3m6.5 -5.928c-0.53 0.149 -0.85 0.345 -1.333 0.818 -0.378 0.37 -0.671 0.795 -0.916 1.329 -0.498 1.084 -0.904 2.813 -1.057 4.506 -0.087 0.963 -0.088 2.814 -0.001 3.2 0.084 0.376 0.319 0.878 0.514 1.1 0.492 0.561 1.508 0.715 2.867 0.434l0.649 -0.134 0.108 -0.65c0.062 -0.373 0.09 -0.67 0.065 -0.696 -0.027 -0.028 -0.383 -0.011 -0.912 0.045 -0.478 0.05 -0.948 0.076 -1.046 0.057 -0.274 -0.051 -0.501 -0.231 -0.638 -0.506 -0.114 -0.228 -0.127 -0.317 -0.142 -1.022 -0.024 -1.074 0.114 -2.337 0.423 -3.876 0.331 -1.65 0.915 -2.868 1.524 -3.179 0.217 -0.11 0.468 -0.122 1.016 -0.046 0.439 0.061 0.697 0.011 0.921 -0.178 0.15 -0.126 0.323 -0.476 0.376 -0.76 0.035 -0.189 0.101 -0.161 -0.856 -0.364 -0.758 -0.161 -1.193 -0.183 -1.561 -0.079m12.478 0.083c-0.013 0.039 -0.105 0.61 -0.203 1.27 -0.098 0.66 -0.191 1.262 -0.206 1.338l-0.027 0.138h-0.591c-1.088 0 -1.652 0.304 -2.294 1.234 -0.563 0.816 -0.998 2.537 -1.161 4.584 -0.17 2.142 0.17 2.788 1.512 2.869l0.433 0.026 0.4 -0.282c0.22 -0.155 0.413 -0.282 0.43 -0.282 0.016 0 0.03 0.033 0.03 0.072 0 0.04 0.053 0.134 0.119 0.21 0.116 0.134 0.132 0.138 0.662 0.14l0.544 0.002 0.842 -5.466c0.463 -3.006 0.828 -5.52 0.812 -5.587 -0.051 -0.202 -0.218 -0.268 -0.767 -0.304 -0.413 -0.027 -0.513 -0.02 -0.533 0.037M5.65 17.153c-1.444 0.906 -2.822 1.765 -3.063 1.908L2.15 19.322v2.712l2.513 1.567c1.382 0.862 2.767 1.732 3.078 1.933 0.311 0.202 0.575 0.366 0.588 0.366 0.012 0 0.023 -0.672 0.023 -1.494v-1.494l-1.781 -1.113c-1.227 -0.767 -1.76 -1.126 -1.713 -1.153 0.038 -0.022 0.834 -0.522 1.769 -1.11l1.7 -1.07 0.013 -1.483c0.007 -0.816 -0.004 -1.482 -0.025 -1.48 -0.021 0.001 -1.22 0.744 -2.663 1.651m10.05 -0.187v1.466l1.799 1.121c1.584 0.987 1.788 1.129 1.713 1.186 -0.047 0.036 -0.857 0.542 -1.798 1.125L15.702 22.925l-0.001 1.493c-0.001 1.175 0.013 1.487 0.062 1.468 0.034 -0.014 1.446 -0.892 3.138 -1.951l3.075 -1.926 0.013 -1.324 0.013 -1.324 -0.238 -0.139c-0.287 -0.167 -3.891 -2.415 -5.095 -3.179 -0.471 -0.299 -0.882 -0.543 -0.913 -0.543 -0.039 0 -0.055 0.427 -0.055 1.466m20.42 0.808c-0.453 0.099 -0.792 0.293 -1.163 0.669 -0.621 0.629 -0.965 1.413 -1.258 2.873 -0.26 1.293 -0.362 3.524 -0.188 4.087 0.127 0.409 0.331 0.661 0.673 0.829 0.282 0.138 0.316 0.143 1.041 0.141 0.658 -0.001 0.785 -0.015 1.031 -0.114 0.81 -0.323 1.285 -0.938 1.801 -2.33 0.319 -0.861 0.482 -2.023 0.528 -3.76 0.027 -1.028 0.022 -1.129 -0.076 -1.45 -0.111 -0.364 -0.336 -0.653 -0.622 -0.802 -0.389 -0.201 -1.2 -0.267 -1.767 -0.144M47.9 17.752c-0.335 0.069 -0.808 0.32 -1.099 0.581 -1.043 0.938 -1.61 2.978 -1.622 5.841 -0.005 1.089 0.022 1.249 0.267 1.636 0.365 0.576 1.351 0.732 2.935 0.464 0.407 -0.069 0.756 -0.142 0.775 -0.163 0.05 -0.051 0.211 -1.262 0.173 -1.299 -0.017 -0.017 -0.305 0.021 -0.641 0.083 -1.143 0.212 -1.826 0.193 -1.987 -0.057 -0.09 -0.14 -0.128 -1.053 -0.077 -1.868l0.035 -0.563 0.933 -0.016c0.892 -0.016 0.945 -0.022 1.221 -0.152 0.353 -0.165 0.717 -0.529 0.893 -0.893 0.258 -0.532 0.365 -1.093 0.367 -1.922 0.001 -0.659 -0.011 -0.777 -0.104 -0.975 -0.241 -0.515 -0.606 -0.714 -1.345 -0.732 -0.275 -0.007 -0.601 0.009 -0.725 0.034M36.245 19.125c-0.283 0.154 -0.562 0.657 -0.846 1.522 -0.314 0.96 -0.474 1.909 -0.529 3.15 -0.034 0.762 0.014 1.002 0.235 1.166 0.171 0.127 0.542 0.128 0.758 0.002 0.369 -0.215 0.747 -0.985 0.933 -1.896 0.148 -0.725 0.302 -1.99 0.337 -2.77 0.034 -0.756 -0.009 -0.981 -0.219 -1.147 -0.151 -0.119 -0.475 -0.132 -0.669 -0.026m5.801 -0.001c-0.51 0.277 -1.06 2.039 -1.268 4.064 -0.125 1.212 -0.094 1.626 0.135 1.786 0.172 0.121 0.301 0.094 0.849 -0.179l0.513 -0.255 0.414 -2.682c0.228 -1.475 0.413 -2.71 0.413 -2.745 -0.002 -0.091 -0.884 -0.082 -1.055 0.011m5.778 0.019c-0.413 0.188 -0.623 0.563 -0.818 1.461 -0.057 0.264 -0.119 0.519 -0.138 0.568 -0.032 0.083 0.004 0.088 0.511 0.067 0.308 -0.012 0.605 -0.051 0.683 -0.089 0.508 -0.247 0.847 -1.831 0.438 -2.049 -0.146 -0.078 -0.455 -0.059 -0.677 0.042" fill="#2c2c2c" fill-rule="evenodd"/><path d="M26.784 29.883c-0.019 0.019 -0.034 0.098 -0.034 0.176V30.2h0.9v3.949l-0.228 -0.174c-0.343 -0.262 -0.689 -0.348 -1.397 -0.347 -0.473 0.001 -0.674 0.024 -0.952 0.109 -0.896 0.277 -1.441 0.89 -1.735 1.952 -0.093 0.336 -0.107 0.522 -0.109 1.46 -0.002 0.96 0.009 1.12 0.109 1.493 0.297 1.114 0.941 1.809 1.852 2.001 0.951 0.2 1.96 -0.086 2.373 -0.673l0.161 -0.229 0.032 0.166c0.018 0.091 0.048 0.273 0.066 0.404l0.034 0.238h3.25l-0.016 -0.163 -0.016 -0.163 -0.337 -0.015 -0.337 -0.015 -0.013 -5.16L30.375 29.875l-1.779 -0.013c-0.978 -0.007 -1.794 0.002 -1.813 0.021m-6.752 0.39c-0.512 0.21 -0.73 0.517 -0.77 1.084 -0.034 0.466 0.056 0.792 0.292 1.06 0.235 0.267 0.505 0.383 0.971 0.419 0.74 0.056 1.267 -0.18 1.51 -0.677 0.117 -0.24 0.139 -0.347 0.139 -0.684 -0.001 -0.88 -0.498 -1.327 -1.471 -1.324 -0.284 0.001 -0.452 0.031 -0.672 0.122M2.4 30.772V30.95h0.9v9.3H2.4v0.35l2.013 -0.001c3.027 -0.001 4.033 -0.078 4.918 -0.374 1.089 -0.364 1.646 -1.018 1.769 -2.077 0.094 -0.812 -0.122 -1.533 -0.599 -1.998 -0.318 -0.31 -0.931 -0.617 -1.518 -0.761l-0.443 -0.108 0.3 -0.082c0.724 -0.198 1.302 -0.631 1.557 -1.166 0.194 -0.407 0.277 -1 0.205 -1.465 -0.151 -0.977 -0.782 -1.543 -2.028 -1.823 -0.476 -0.107 -0.621 -0.112 -3.335 -0.131L2.4 30.593v0.178m3.75 2.296V35.2h0.307c0.42 0 0.683 -0.089 0.899 -0.305 0.323 -0.323 0.37 -0.556 0.37 -1.845 0 -1.188 -0.029 -1.394 -0.237 -1.701 -0.167 -0.246 -0.411 -0.349 -0.907 -0.384l-0.43 -0.03v2.132m30.975 -1.228c-0.336 0.112 -0.631 0.413 -0.773 0.79 -0.094 0.249 -0.108 0.371 -0.093 0.775l0.019 0.48 -0.201 -0.088c-0.371 -0.162 -0.789 -0.212 -1.541 -0.182 -0.763 0.031 -1.06 0.093 -1.549 0.324C32.126 34.347 31.7 35.027 31.7 35.995c0 0.993 0.345 1.6 1.131 1.988 0.203 0.1 0.369 0.187 0.369 0.194 0 0.006 -0.178 0.128 -0.397 0.271 -0.455 0.299 -0.862 0.705 -0.974 0.974 -0.279 0.668 -0.041 1.367 0.572 1.679 0.444 0.226 0.703 0.259 2.324 0.297 1.361 0.031 1.58 0.048 1.799 0.133 0.346 0.135 0.477 0.339 0.475 0.74 -0.003 0.924 -0.811 1.44 -2.249 1.438 -0.925 -0.001 -1.434 -0.217 -1.632 -0.692 -0.077 -0.184 -0.091 -0.812 -0.023 -1.047 0.025 -0.086 0.03 -0.176 0.013 -0.202 -0.018 -0.026 -0.224 -0.131 -0.459 -0.235l-0.427 -0.188 -0.293 0.11c-0.346 0.13 -0.686 0.444 -0.777 0.719 -0.097 0.293 -0.045 0.731 0.116 0.973 0.263 0.397 0.707 0.627 1.584 0.819 0.664 0.146 2.594 0.157 3.274 0.019 1.673 -0.339 2.529 -1.221 2.525 -2.601 -0.001 -0.536 -0.054 -0.797 -0.234 -1.165 -0.25 -0.51 -0.745 -0.864 -1.496 -1.07 -0.35 -0.096 -0.573 -0.112 -2.019 -0.142 -0.894 -0.019 -1.653 -0.051 -1.688 -0.072 -0.13 -0.08 -0.058 -0.232 0.202 -0.428l0.264 -0.199 0.374 0.052c0.486 0.068 1.492 0.026 1.874 -0.078 0.97 -0.264 1.544 -0.82 1.75 -1.691 0.216 -0.917 -0.035 -1.713 -0.713 -2.262 -0.269 -0.218 -0.307 -0.271 -0.338 -0.473 -0.067 -0.445 -0.038 -0.932 0.068 -1.139 0.148 -0.29 0.425 -0.392 0.646 -0.237 0.169 0.119 0.138 0.254 -0.092 0.399 -0.186 0.118 -0.201 0.142 -0.171 0.288 0.042 0.207 0.167 0.381 0.379 0.527 0.146 0.1 0.218 0.114 0.506 0.098 0.503 -0.028 0.796 -0.295 0.864 -0.788 0.125 -0.911 -0.72 -1.489 -1.7 -1.163m4.431 1.766c-0.879 0.081 -1.624 0.412 -2.185 0.971 -0.408 0.406 -0.658 0.861 -0.825 1.498 -0.149 0.571 -0.15 1.637 -0.001 2.196 0.325 1.221 1.057 1.952 2.285 2.287 0.541 0.147 1.923 0.161 2.42 0.023 0.962 -0.266 1.614 -0.908 1.904 -1.874 0.055 -0.182 0.054 -0.222 -0.007 -0.26 -0.132 -0.084 -0.248 -0.049 -0.305 0.091 -0.311 0.759 -0.634 1.181 -1.07 1.4 -0.511 0.257 -1.202 0.276 -1.656 0.045 -0.588 -0.298 -0.819 -0.913 -0.891 -2.371l-0.035 -0.713H45.2v-0.447c0 -1.502 -0.675 -2.435 -1.991 -2.752 -0.463 -0.112 -1.086 -0.147 -1.653 -0.095m6.302 0c-1.048 0.156 -1.82 0.878 -2.004 1.875 -0.182 0.987 0.128 1.798 0.877 2.295 0.367 0.244 0.693 0.371 1.72 0.674 0.97 0.286 1.181 0.378 1.368 0.602 0.288 0.342 0.082 0.918 -0.391 1.098 -0.46 0.174 -1.306 0.151 -1.848 -0.052 -0.574 -0.215 -1.136 -0.909 -1.426 -1.763 -0.074 -0.216 -0.108 -0.26 -0.208 -0.26H45.825v1.299c0 1.207 0.006 1.301 0.089 1.317 0.056 0.011 0.177 -0.077 0.328 -0.237 0.134 -0.143 0.283 -0.254 0.34 -0.254 0.056 0 0.28 0.077 0.497 0.171 0.779 0.337 1.69 0.412 2.485 0.205 0.894 -0.233 1.477 -0.835 1.664 -1.717 0.26 -1.228 -0.196 -2.229 -1.244 -2.73 -0.197 -0.094 -0.762 -0.286 -1.255 -0.427 -0.493 -0.14 -1.011 -0.316 -1.15 -0.391 -0.627 -0.336 -0.532 -1.002 0.176 -1.237 0.4 -0.133 1.181 -0.086 1.554 0.093 0.396 0.191 0.83 0.668 1.097 1.207 0.175 0.353 0.231 0.427 0.328 0.427H50.85v-2.25l-0.113 0.003c-0.073 0.002 -0.166 0.077 -0.264 0.213 -0.193 0.267 -0.304 0.279 -0.778 0.089 -0.626 -0.251 -1.255 -0.336 -1.838 -0.249M16.45 33.667c-0.542 0.127 -0.995 0.453 -1.254 0.906l-0.145 0.252 -0.001 -0.537L15.05 33.75h-3.506l0.016 0.163 0.016 0.163 0.388 0.015 0.388 0.015V40.25h-0.8v0.3h4.5v-0.3h-1l0.002 -2.013c0.002 -2.224 0.033 -2.562 0.289 -3.108 0.163 -0.348 0.45 -0.696 0.666 -0.808 0.076 -0.039 0.229 -0.072 0.34 -0.072 0.261 0 0.381 0.155 0.316 0.408 -0.041 0.157 -0.059 0.169 -0.3 0.193 -0.141 0.014 -0.27 0.039 -0.286 0.056 -0.069 0.069 -0.115 0.586 -0.072 0.815 0.089 0.475 0.436 0.748 1.028 0.809 0.56 0.058 1.003 -0.153 1.248 -0.595 0.134 -0.242 0.144 -0.297 0.141 -0.785 -0.004 -0.592 -0.063 -0.779 -0.348 -1.095 -0.328 -0.363 -1.021 -0.529 -1.623 -0.388m2.059 0.246 0.016 0.163 0.38 0.014 0.38 0.014 0.035 3.024c0.019 1.663 0.022 3.046 0.005 3.073 -0.017 0.027 -0.198 0.049 -0.402 0.049H18.55v0.3h4.306l-0.016 -0.163 -0.016 -0.163 -0.388 -0.015 -0.388 -0.015V33.75h-3.556l0.016 0.163m15.921 0.19c-0.228 0.271 -0.256 0.471 -0.256 1.873 0 1.724 0.086 2.025 0.575 2.025 0.485 0 0.574 -0.305 0.574 -1.975 0 -1.366 -0.046 -1.726 -0.249 -1.946 -0.178 -0.192 -0.472 -0.182 -0.644 0.023m7.197 0.002c-0.267 0.234 -0.334 0.517 -0.364 1.533l-0.026 0.863h1.375l-0.026 -0.938c-0.014 -0.516 -0.053 -1.026 -0.086 -1.134 -0.144 -0.47 -0.54 -0.617 -0.873 -0.324m-15.139 0.094c-0.362 0.285 -0.448 0.843 -0.451 2.926 -0.002 1.736 0.035 2.18 0.218 2.56 0.191 0.398 0.647 0.416 1.022 0.041 0.37 -0.37 0.38 -0.446 0.363 -2.783L27.625 34.925l-0.15 -0.3c-0.242 -0.483 -0.676 -0.671 -0.987 -0.426M6.15 37.926v2.339l0.506 -0.031c0.953 -0.058 1.295 -0.396 1.444 -1.426 0.065 -0.451 0.063 -1.622 -0.004 -1.985 -0.151 -0.818 -0.576 -1.166 -1.482 -1.213l-0.463 -0.024v2.339" fill="#ec1c1c" fill-rule="evenodd"/></svg>