<svg xmlns="http://www.w3.org/2000/svg" width="756" height="159" viewBox="0 0 756 159" version="1.1"><path d="M 176.667 8.667 C 176.300 9.033, 176 42.558, 176 83.167 C 176 156.333, 176.018 157, 178 157 C 179.982 157, 180 156.333, 180 82.500 C 180 21.083, 179.766 8, 178.667 8 C 177.933 8, 177.033 8.300, 176.667 8.667 M 80.144 76.250 C 75.110 106.638, 70.993 132.287, 70.996 133.250 C 71 134.800, 72.144 135, 81 135 C 86.500 135, 91 134.835, 91 134.632 C 91 133.916, 109.004 24.472, 109.405 22.750 C 109.773 21.171, 108.813 21, 99.555 21 L 89.297 21 80.144 76.250 M 232.500 36.424 C 228.269 38.322, 222.591 44.586, 219.515 50.749 C 213.485 62.832, 209.108 95.945, 211.966 107.860 C 213.483 114.181, 217.589 118.644, 222.789 119.623 C 226.042 120.235, 240.472 118.862, 241.491 117.842 C 241.699 117.634, 242.185 115.086, 242.570 112.180 L 243.271 106.897 235.112 107.139 C 228.583 107.333, 226.617 107.046, 225.274 105.703 C 219.590 100.018, 226.160 58.582, 234.198 49.428 C 237.061 46.167, 237.678 45.919, 242.397 46.141 C 248.943 46.449, 251.419 45.571, 252.848 42.434 C 254.823 38.101, 254.287 37.227, 248.951 36.083 C 242.257 34.647, 236.180 34.773, 232.500 36.424 M 326.365 36.160 C 325.889 36.897, 324.821 41.550, 323.991 46.500 L 322.483 55.500 316.443 56 C 313.067 56.280, 309.185 57.300, 307.639 58.314 C 304.228 60.553, 299.565 67.760, 297.559 73.895 C 293.540 86.186, 291.689 108.818, 294.279 114 C 295.760 116.965, 301.353 119.996, 305.346 119.998 C 306.911 119.999, 309.451 119.103, 310.991 118.006 C 313.426 116.272, 313.868 116.214, 314.385 117.562 C 314.831 118.722, 316.160 119.034, 319.689 118.805 L 324.398 118.500 330.169 81.500 C 335.885 44.859, 336.711 37.557, 335.242 36.650 C 332.957 35.237, 327.166 34.918, 326.365 36.160 M 37.251 52.838 L 14.002 67.500 14.001 78.057 L 14 88.615 33.250 100.547 C 43.837 107.110, 54.651 113.925, 57.280 115.692 L 62.061 118.906 61.780 106.814 L 61.500 94.723 49 86.839 C 42.125 82.502, 36.500 78.498, 36.500 77.939 C 36.500 77.381, 42.125 73.413, 49 69.121 L 61.500 61.318 61.782 49.659 C 61.937 43.246, 61.712 38.040, 61.282 38.088 C 60.852 38.137, 50.038 44.774, 37.251 52.838 M 118 49.435 L 118 60.870 131.461 69.185 C 138.865 73.758, 144.927 77.725, 144.932 78 C 144.937 78.275, 138.992 82.144, 131.720 86.597 L 118.500 94.694 118.219 106.906 L 117.938 119.117 123.719 115.243 C 132.817 109.147, 163.431 90.156, 165.341 89.423 C 166.849 88.844, 167.030 87.434, 166.783 78.173 L 166.500 67.586 143 52.825 C 130.075 44.707, 119.162 38.051, 118.750 38.033 C 118.338 38.015, 118 43.146, 118 49.435 M 356.138 56.101 C 349.947 57.283, 345.600 61.035, 342.053 68.255 C 337.941 76.627, 335.900 87.114, 335.681 101 C 335.476 114.032, 336.257 116.374, 341.548 118.585 C 345.567 120.264, 354.727 120.304, 360.961 118.670 C 365.656 117.439, 366.684 115.873, 366.900 109.622 C 366.999 106.786, 366.938 106.754, 362.750 107.425 C 347.896 109.803, 347 109.381, 347 100.010 C 347 91.428, 347.315 91, 353.639 91 C 366.459 91, 372.128 84.101, 372.303 68.284 C 372.357 63.486, 371.933 61.584, 370.447 59.942 C 366.864 55.982, 362.666 54.856, 356.138 56.101 M 265.826 58.255 C 263.805 59.490, 261.222 61.691, 260.085 63.147 C 254.587 70.186, 251.053 84.998, 250.875 101.750 C 250.781 110.688, 251.050 112.592, 252.729 114.854 C 255.778 118.962, 258.824 120.118, 265.631 119.751 C 273.546 119.324, 277.967 116.401, 281.892 109 C 286.698 99.939, 288.125 93.628, 288.724 78.791 C 289.345 63.398, 288.544 59.850, 283.909 57.453 C 279.497 55.172, 270.197 55.584, 265.826 58.255 M 270.113 69.584 C 265.424 75.545, 260.369 101.125, 262.818 106.500 C 265.093 111.493, 270.585 108.261, 273.404 100.272 C 275.530 94.245, 277.182 81.526, 276.816 74 C 276.536 68.244, 276.256 67.465, 274.365 67.196 C 272.998 67.001, 271.470 67.858, 270.113 69.584 M 312.759 68.750 C 307.874 74.263, 302.400 106.275, 305.966 108.479 C 306.497 108.807, 308.690 108.178, 310.840 107.082 L 314.748 105.088 316.412 94.294 C 317.328 88.357, 318.672 79.787, 319.400 75.250 L 320.723 67 317.516 67 C 315.720 67, 313.628 67.770, 312.759 68.750 M 353.634 68.852 C 352.665 69.923, 351.267 73.094, 350.527 75.899 L 349.181 81 353.067 81 C 357.848 81, 360.300 77.887, 360.420 71.666 C 360.492 67.919, 360.243 67.470, 357.948 67.203 C 356.392 67.021, 354.708 67.666, 353.634 68.852" stroke="none" fill="#2c2424" fill-rule="evenodd"/><path d="M 565.694 42.639 C 564.484 43.850, 566.124 45, 569.059 45 L 572 45 572 58.107 C 572 70.227, 571.868 71.154, 570.250 70.417 C 567.242 69.048, 556.775 68.751, 552.860 69.924 C 547.633 71.490, 542.391 77.892, 540.908 84.521 C 540.260 87.415, 539.940 93.402, 540.196 97.825 C 541.069 112.913, 547.235 119.950, 559.610 119.984 C 564.477 119.997, 566.462 119.497, 569.360 117.530 C 572.812 115.188, 573 115.162, 573 117.030 C 573 118.886, 573.731 119, 585.583 119 C 595.203 119, 598.070 118.706, 597.755 117.750 C 597.529 117.063, 596.366 116.356, 595.172 116.180 L 593 115.861 593 78.930 L 593 42 579.667 42 C 572.333 42, 566.046 42.288, 565.694 42.639 M 514.923 46.923 C 511.128 50.719, 510.874 56.579, 514.331 60.598 C 516.216 62.790, 517.735 63.396, 522.287 63.774 C 527.514 64.207, 528.129 64.024, 530.957 61.197 C 533.444 58.710, 534 57.333, 534 53.666 C 534 49.882, 533.517 48.772, 530.923 46.589 C 528.511 44.559, 526.767 44, 522.846 44 C 518.653 44, 517.374 44.472, 514.923 46.923 M 391.167 48.654 C 391.386 49.809, 392.543 50.618, 394.259 50.816 L 397 51.133 397 83.566 L 397 116 393.927 116 C 391.539 116, 390.928 116.390, 391.188 117.750 C 391.620 120.015, 400.284 120.414, 422.671 119.199 C 437.210 118.409, 439.375 118.051, 444.359 115.613 C 451.751 111.996, 454.488 107.643, 454.489 99.500 C 454.490 91.160, 452.108 87.315, 444.619 83.567 C 439.164 80.836, 438.923 80.573, 441.129 79.757 C 447.088 77.552, 451 71.386, 451 64.198 C 451 57.735, 448 53.252, 441.499 50 C 436.681 47.590, 435.675 47.487, 413.658 47.154 C 391.891 46.824, 390.833 46.894, 391.167 48.654 M 419 64.921 L 419 80 421.500 80 C 424.461 80, 427.699 77.047, 428.578 73.545 C 428.924 72.167, 429.048 67.222, 428.853 62.555 C 428.463 53.186, 427.617 51.644, 422.250 50.521 L 419 49.841 419 64.921 M 639.329 56.410 C 635.501 58.133, 633.831 60.983, 633.642 66.118 C 633.521 69.402, 633.224 69.877, 631.611 69.370 C 630.572 69.044, 626.856 68.794, 623.353 68.814 C 608.613 68.899, 600.995 74.979, 601.004 86.651 C 601.008 92.345, 603.641 97.313, 607.971 99.798 L 610.900 101.479 606.402 105.490 C 601.053 110.257, 599.643 115.280, 602.450 119.564 C 605.105 123.616, 609.748 124.999, 620.718 125.006 C 633.246 125.013, 637.761 126.201, 638.646 129.726 C 640.314 136.370, 633.263 141.293, 622.823 140.775 C 614.145 140.344, 612 138.579, 612 131.871 C 612 127.510, 611.710 126.901, 608.950 125.474 C 605.562 123.722, 603.417 124.098, 599.582 127.114 C 597.626 128.652, 597.008 130.037, 597.032 132.823 C 597.089 139.455, 601.509 142.414, 613.997 144.180 C 627.826 146.135, 641.892 143.074, 647.683 136.847 C 652.381 131.797, 653.411 122.686, 650.033 116.066 C 646.814 109.754, 641.369 107.759, 625.835 107.198 C 618.776 106.943, 613 106.392, 613 105.974 C 613 104.529, 616.532 103.817, 624.500 103.659 C 637.163 103.407, 644.054 98.488, 645.530 88.648 C 646.276 83.671, 643.935 76.881, 640.557 74.224 C 636.576 71.092, 636.514 61, 640.475 61 C 642.419 61, 642.431 62.398, 640.500 64 C 638.483 65.674, 638.605 66.554, 641.189 68.961 C 645.956 73.403, 653.400 70.139, 653.400 63.607 C 653.400 56.950, 646.252 53.295, 639.329 56.410 M 667.672 69.433 C 660.712 71.304, 655.040 75.681, 652.055 81.485 C 649.888 85.698, 649.506 87.747, 649.543 94.976 C 649.601 106.676, 652.873 112.780, 661.500 117.282 C 667.504 120.416, 682.099 120.935, 688.209 118.232 C 693.281 115.988, 697.670 110.900, 698.617 106.166 C 699.536 101.568, 696.575 101.953, 694.127 106.750 C 691.266 112.355, 688.659 114.230, 682.965 114.777 C 678.670 115.190, 677.539 114.916, 675.453 112.956 C 672.487 110.169, 671.013 105.297, 671.006 98.250 L 671 93 685 93 L 699 93 699 88.866 C 699 78.454, 693.458 71.122, 684.067 69.108 C 677.576 67.716, 673.780 67.791, 667.672 69.433 M 713.684 69.449 C 708.701 71.226, 706.132 73.598, 703.881 78.500 C 700.505 85.852, 702.025 93.319, 707.904 98.266 C 709.651 99.736, 714.775 102.103, 719.290 103.526 C 732.105 107.565, 734.271 109.729, 729.888 114.112 C 728.094 115.906, 726.888 116.160, 721.874 115.797 C 714.424 115.258, 711.345 113.088, 707.658 105.772 C 703.487 97.499, 702 98.769, 702 110.607 C 702 118.645, 702.236 120, 703.640 120 C 704.542 120, 705.849 119.221, 706.546 118.269 C 707.746 116.627, 708.062 116.627, 712.656 118.274 C 729.144 124.184, 744.025 115.796, 742.655 101.363 C 741.682 91.102, 738.241 87.749, 724.307 83.480 C 716.768 81.171, 713 79.039, 713 77.084 C 713 74.791, 717.489 72.504, 721.864 72.568 C 727.732 72.654, 731.112 74.849, 734.129 80.537 C 735.553 83.221, 737.195 85, 738.248 85 C 739.780 85, 740 83.932, 740 76.500 C 740 67.590, 739.336 66.481, 735.878 69.611 C 734.241 71.092, 733.717 71.092, 729.371 69.611 C 723.679 67.671, 718.809 67.621, 713.684 69.449 M 488.595 70.527 C 486.997 71.361, 485.099 72.820, 484.376 73.771 C 483.191 75.332, 483.061 75.233, 483.032 72.750 L 483 70 470 70 C 459.111 70, 457 70.244, 457 71.500 C 457 72.433, 457.944 73, 459.500 73 L 462 73 462 94.500 L 462 116 459.500 116 C 457.944 116, 457 116.567, 457 117.500 C 457 118.773, 459.500 119, 473.500 119 C 487.500 119, 490 118.773, 490 117.500 C 490 116.452, 488.944 116, 486.500 116 L 483 116 483 101.943 C 483 86.326, 484.086 80.278, 487.565 76.525 C 490.383 73.483, 493 73.231, 493 76 C 493 77.306, 492.333 78, 491.079 78 C 488.754 78, 487.358 82.932, 488.879 85.774 C 490.648 89.079, 492.794 90.178, 497.624 90.251 C 504.045 90.348, 507 87.076, 507 79.867 C 507 75.651, 506.531 74.378, 504.077 71.923 C 501.651 69.497, 500.333 69.001, 496.327 69.006 C 493.672 69.010, 490.193 69.694, 488.595 70.527 M 506.244 71.250 C 506.470 71.938, 507.857 72.642, 509.327 72.816 L 512 73.133 512 94.566 L 512 116 509.500 116 C 507.944 116, 507 116.567, 507 117.500 C 507 118.771, 509.454 119, 523.083 119 C 535.502 119, 539.073 118.715, 538.756 117.750 C 538.530 117.063, 537.143 116.358, 535.673 116.184 L 533 115.867 533 92.934 L 533 70 519.417 70 C 508.998 70, 505.929 70.291, 506.244 71.250 M 621.003 74.492 C 619.685 77.959, 619.709 95.588, 621.035 98.066 C 622.485 100.775, 624.869 100.474, 626.025 97.435 C 627.119 94.558, 627.176 78.849, 626.106 75.005 C 625.132 71.504, 622.249 71.214, 621.003 74.492 M 672.898 73.623 C 672.158 74.515, 671.377 78.340, 671.163 82.123 L 670.774 89 674.887 89 L 679 89 679 83.065 C 679 73.474, 676.383 69.424, 672.898 73.623 M 563.872 74.651 C 562.856 75.872, 562.421 80.740, 562.196 93.401 C 561.857 112.427, 562.459 114.855, 567.218 113.660 C 571.381 112.615, 572.183 108.881, 571.824 92.217 C 571.542 79.134, 571.255 76.933, 569.595 75.102 C 567.301 72.571, 565.706 72.445, 563.872 74.651 M 419 100 L 419 116 422.389 116 C 428.918 116, 431.929 110.815, 431.971 99.500 C 432.009 88.992, 428.887 84, 422.277 84 L 419 84 419 100" stroke="none" fill="#ec1414" fill-rule="evenodd"/></svg>