<?xml version="1.0" standalone="no"?>
<!DOCTYPE svg PUBLIC "-//W3C//DTD SVG 20010904//EN"
 "http://www.w3.org/TR/2001/REC-SVG-20010904/DTD/svg10.dtd">
<svg version="1.0" xmlns="http://www.w3.org/2000/svg"
 width="644.000000pt" height="144.000000pt" viewBox="0 0 644.000000 144.000000"
 preserveAspectRatio="xMidYMid meet">

<g transform="translate(0.000000,144.000000) scale(0.100000,-0.100000)"
fill="#000000" stroke="none">
<path d="M3277 1213 c-4 -3 -7 -201 -7 -440 l0 -433 80 0 80 0 0 180 c0 160 2
185 20 219 37 73 121 115 180 91 58 -24 65 -52 68 -282 l3 -208 81 0 80 0 -4
243 c-3 206 -7 248 -22 285 -34 78 -113 120 -208 109 -60 -8 -103 -29 -155
-80 l-43 -41 0 182 0 182 -73 0 c-41 0 -77 -3 -80 -7z"/>
<path d="M130 765 l0 -425 85 0 85 0 0 272 0 271 216 -271 216 -272 69 0 69 0
0 425 0 425 -85 0 -85 0 -2 -275 -3 -275 -215 275 -215 275 -67 0 -68 0 0
-425z"/>
<path d="M2470 765 l0 -425 228 0 c251 0 307 9 376 57 55 39 81 93 80 168 -1
93 -46 166 -123 198 l-34 14 30 18 c85 50 117 179 69 280 -50 108 -74 115
-381 115 l-245 0 0 -425z m441 275 c24 -13 49 -61 49 -95 0 -34 -25 -82 -49
-95 -11 -5 -76 -10 -145 -10 l-126 0 0 105 0 105 126 0 c69 0 134 -5 145 -10z
m2 -341 c77 -21 102 -129 43 -188 -26 -25 -30 -26 -171 -29 l-145 -3 0 115 0
116 118 0 c64 0 134 -5 155 -11z"/>
<path d="M5870 1071 l0 -100 -42 -3 -43 -3 -3 -57 -3 -57 43 -3 43 -3 5 -217
5 -217 29 -30 c16 -17 45 -36 64 -42 41 -14 127 -6 193 16 l46 16 -15 65 c-13
52 -19 63 -31 58 -9 -4 -34 -9 -57 -12 -70 -7 -74 3 -74 199 l0 169 65 0 65 0
0 60 0 60 -65 0 -65 0 0 100 0 100 -80 0 -80 0 0 -99z"/>
<path d="M1227 970 c-97 -25 -173 -88 -216 -179 -21 -46 -25 -71 -25 -136 0
-157 88 -273 237 -314 118 -33 286 16 348 102 16 22 26 44 22 48 -5 4 -34 14
-66 23 l-58 17 -21 -27 c-45 -57 -157 -73 -218 -31 -34 22 -62 62 -75 105 l-6
22 247 0 247 0 -5 73 c-11 176 -127 293 -300 302 -40 2 -90 0 -111 -5z m160
-127 c38 -18 80 -73 85 -113 l3 -25 -164 -3 -164 -3 7 33 c20 102 136 157 233
111z"/>
<path d="M1947 970 c-97 -25 -174 -89 -215 -179 -37 -80 -37 -193 -1 -271 36
-77 80 -124 147 -157 50 -25 68 -28 152 -28 78 0 104 4 145 23 160 74 228 269
152 435 -34 75 -70 112 -141 147 -69 34 -171 47 -239 30z m153 -145 c32 -17
74 -67 85 -103 10 -34 8 -107 -4 -145 -15 -44 -67 -93 -111 -104 -74 -20 -155
22 -186 94 -35 82 -3 205 65 250 40 27 108 30 151 8z"/>
<path d="M4140 965 c-55 -16 -138 -53 -146 -67 -4 -6 30 -83 42 -97 2 -2 30 9
61 25 39 19 76 30 120 32 103 7 145 -22 159 -108 l7 -41 -44 8 c-86 15 -200 8
-254 -16 -90 -40 -125 -88 -125 -171 0 -88 42 -150 127 -185 76 -32 196 -8
273 54 l37 29 12 -35 c17 -45 66 -68 128 -58 l43 6 0 62 c0 51 -3 64 -20 75
-18 11 -20 23 -20 130 -1 210 -31 286 -134 337 -70 34 -184 42 -266 20z m218
-346 c16 -6 22 -17 22 -39 0 -76 -67 -130 -160 -130 -44 0 -56 5 -81 29 -43
44 -37 105 14 133 51 27 142 31 205 7z"/>
<path d="M4978 966 c-45 -16 -98 -60 -124 -101 l-19 -30 -3 68 -3 67 -69 0
-70 0 0 -315 0 -315 80 0 80 0 0 199 0 199 35 31 c33 28 116 61 157 61 16 0
18 9 18 75 0 71 -1 75 -22 75 -13 -1 -40 -7 -60 -14z"/>
<path d="M5295 966 c-58 -15 -112 -38 -139 -58 -18 -14 -18 -16 4 -59 12 -24
24 -46 26 -48 2 -2 27 9 56 24 41 22 69 30 130 33 l77 5 36 -36 c29 -29 35
-42 35 -77 0 -40 -1 -42 -25 -36 -224 56 -423 -59 -386 -224 36 -163 249 -214
389 -94 22 18 42 34 45 34 3 0 8 -14 12 -30 10 -48 69 -77 131 -65 l34 6 0 64
c0 51 -4 66 -17 74 -16 8 -19 31 -23 173 -6 174 -11 194 -64 251 -59 63 -209
93 -321 63z m168 -337 l57 -12 0 -47 c0 -37 -5 -51 -27 -72 -51 -48 -135 -63
-192 -33 -32 16 -41 33 -41 79 0 39 30 70 80 84 47 14 58 14 123 1z"/>
</g>
</svg>
