<?xml version="1.0" encoding="UTF-8"?>
<svg xmlns="http://www.w3.org/2000/svg" xmlns:xlink="http://www.w3.org/1999/xlink" width="30pt" height="30.000001pt" viewBox="0 0 30 30.000001" version="1.2">
<defs>
<clipPath id="clip1">
  <path d="M 1.425781 0.945312 L 8 0.945312 L 8 27.519531 L 1.425781 27.519531 Z M 1.425781 0.945312 "/>
</clipPath>
<clipPath id="clip2">
  <path d="M 10 9 L 28 9 L 28 27.519531 L 10 27.519531 Z M 10 9 "/>
</clipPath>
</defs>
<g id="surface1">
<g clip-path="url(#clip1)" clip-rule="nonzero">
<path style=" stroke:none;fill-rule:nonzero;fill:rgb(100%,100%,100%);fill-opacity:1;" d="M 1.863281 9.773438 L 7.375 9.773438 L 7.375 27.484375 L 1.863281 27.484375 Z M 4.621094 0.972656 C 6.382812 0.972656 7.8125 2.402344 7.8125 4.160156 C 7.8125 5.921875 6.382812 7.355469 4.621094 7.355469 C 2.851562 7.355469 1.425781 5.921875 1.425781 4.160156 C 1.425781 2.402344 2.851562 0.972656 4.621094 0.972656 "/>
</g>
<g clip-path="url(#clip2)" clip-rule="nonzero">
<path style=" stroke:none;fill-rule:nonzero;fill:rgb(100%,100%,100%);fill-opacity:1;" d="M 10.828125 9.773438 L 16.109375 9.773438 L 16.109375 12.195312 L 16.183594 12.195312 C 16.917969 10.800781 18.714844 9.335938 21.394531 9.335938 C 26.964844 9.335938 27.996094 13 27.996094 17.769531 L 27.996094 27.484375 L 22.496094 27.484375 L 22.496094 18.875 C 22.496094 16.816406 22.453125 14.175781 19.632812 14.175781 C 16.765625 14.175781 16.328125 16.414062 16.328125 18.722656 L 16.328125 27.484375 L 10.828125 27.484375 Z M 10.828125 9.773438 "/>
</g>
</g>
</svg>
