<?xml version="1.0" standalone="no"?>
<!DOCTYPE svg PUBLIC "-//W3C//DTD SVG 20010904//EN"
 "http://www.w3.org/TR/2001/REC-SVG-20010904/DTD/svg10.dtd">
<svg version="1.0" xmlns="http://www.w3.org/2000/svg"
 width="1280.000000pt" height="1174.000000pt" viewBox="0 0 1280.000000 1174.000000"
 preserveAspectRatio="xMidYMid meet">
<metadata>
Created by potrace 1.15, written by Peter Selinger 2001-2017
</metadata>
<g transform="translate(0.000000,1174.000000) scale(0.100000,-0.100000)"
fill="#000000" stroke="none">
<path d="M1495 11692 l-180 -47 -43 -192 -43 -191 97 -147 c64 -96 94 -149 87
-153 -22 -14 -32 -59 -42 -193 -6 -73 -11 -140 -11 -149 0 -13 -20 -21 -84
-35 -46 -9 -98 -26 -116 -36 -30 -19 -69 -86 -70 -121 0 -10 -6 -18 -13 -18
-21 0 -56 -43 -63 -76 -3 -17 -1 -50 6 -75 23 -90 83 -149 151 -151 16 -1 37
-10 46 -21 41 -44 93 -61 189 -61 l91 0 7 -456 c3 -250 9 -631 12 -846 l7
-392 -31 -7 c-17 -3 -43 -20 -57 -37 -24 -29 -25 -34 -25 -179 0 -145 -1 -149
-19 -139 -31 16 -76 12 -105 -11 -14 -11 -85 -119 -157 -239 l-131 -218 -89
-7 c-126 -10 -127 -11 -127 -205 l-1 -149 -85 -143 c-47 -79 -86 -153 -86
-164 0 -11 6 -29 14 -40 13 -19 5 -36 -106 -223 l-121 -203 -88 7 -88 6 -58
-80 c-36 -49 -71 -87 -91 -97 -35 -16 -71 -78 -72 -121 0 -29 44 -80 91 -104
35 -18 38 -21 29 -45 -13 -33 5 -73 43 -94 25 -14 30 -13 59 3 38 22 40 19 67
-73 19 -65 32 -132 50 -265 9 -65 13 -73 53 -109 102 -92 214 -112 473 -82
152 17 212 13 300 -22 129 -51 226 -50 261 3 14 22 14 27 -4 67 -10 24 -108
151 -217 283 -109 132 -199 241 -199 242 -1 1 -57 -2 -125 -6 -102 -6 -126
-11 -137 -25 -12 -17 -15 -17 -39 10 -14 16 -34 45 -45 65 l-19 35 31 48 c21
31 33 64 36 97 l5 50 188 95 c183 91 190 94 214 78 13 -8 44 -16 68 -16 113 0
174 89 136 196 -9 27 -7 40 21 99 23 48 37 67 51 67 18 0 19 -10 19 -182 0
-266 -4 -262 249 -256 142 3 143 3 167 31 23 27 24 32 24 207 l0 178 56 4 55
3 29 -50 c21 -36 26 -54 19 -66 -15 -29 -10 -82 11 -116 28 -46 71 -65 139
-61 56 3 56 3 226 -103 l170 -106 6 -51 c4 -29 16 -71 28 -94 l20 -42 -35 -67
c-20 -37 -44 -75 -54 -84 -16 -15 -19 -14 -42 14 -25 29 -28 29 -149 36 l-124
6 -190 -232 c-104 -128 -200 -248 -212 -268 -78 -124 56 -172 251 -91 76 32
82 33 175 26 343 -23 427 -18 515 26 87 43 111 81 120 188 16 172 51 306 93
352 15 17 17 16 41 -2 65 -52 159 3 131 77 -6 16 -1 25 22 42 41 30 61 74 54
115 -9 46 -40 95 -68 105 -12 4 -52 46 -88 92 l-65 84 -62 5 -62 5 -105 178
c-99 168 -104 179 -90 200 8 12 15 34 15 50 0 15 12 50 26 78 37 74 64 191 64
279 0 69 2 79 23 93 19 13 22 23 22 82 0 84 -7 89 -122 100 -101 10 -129 10
-235 0 -64 -6 -83 -4 -117 11 -37 17 -53 39 -177 247 -76 126 -147 235 -158
243 -26 18 -67 18 -113 -1 -19 -8 -37 -15 -39 -15 -2 0 -4 67 -4 150 0 90 -4
159 -11 174 -12 24 -63 56 -91 56 -13 0 -16 50 -22 313 -9 432 -24 995 -32
1223 l-6 191 32 6 c17 4 44 19 59 35 l28 28 39 -18 c24 -11 64 -18 105 -18
l67 0 53 -77 c307 -448 794 -1133 1549 -2178 425 -588 939 -1307 1069 -1492
41 -59 43 -64 31 -93 -14 -33 -12 -36 62 -138 l39 -52 34 26 34 25 272 -362
272 -363 -23 -15 c-71 -47 -73 -35 29 -170 l93 -123 22 21 c12 12 26 21 32 20
5 0 105 -142 223 -316 l213 -316 -17 -52 -18 -52 433 -644 c238 -354 493 -732
566 -839 l132 -195 -15 -55 c-31 -120 -93 -454 -113 -615 -12 -93 -23 -233
-23 -310 -2 -132 0 -143 24 -195 24 -50 70 -117 144 -207 l27 -32 -39 -10
c-21 -6 -48 -11 -60 -11 -14 0 -23 -6 -23 -15 0 -8 -6 -15 -14 -15 -18 0 -87
-116 -80 -135 4 -8 1 -15 -5 -15 -5 0 -20 -32 -32 -72 -19 -66 -20 -73 -4 -84
10 -8 12 -13 5 -16 -9 -3 -9 -20 0 -68 12 -65 25 -86 79 -122 16 -11 20 -18
11 -18 -72 0 -579 -22 -705 -30 -514 -33 -994 -92 -1630 -200 -378 -64 -457
-78 -462 -83 -6 -7 229 -58 377 -81 419 -67 971 -115 2635 -231 75 -5 500 -22
1545 -62 552 -20 1663 -23 1950 -5 516 33 836 77 1133 154 131 34 172 57 147
81 -30 29 -192 67 -340 80 -19 1 42 6 135 10 541 25 921 64 994 102 l25 12
-22 12 c-57 30 -995 120 -1649 157 -234 14 -303 21 -303 31 0 7 9 13 20 13 15
0 29 19 57 75 46 91 41 98 -62 103 -41 2 -75 7 -75 11 0 4 39 5 86 3 l86 -5
-7 74 c-3 41 -14 90 -22 109 -25 54 -82 124 -106 131 -12 3 61 9 163 13 269
10 478 25 537 37 29 6 63 21 78 35 19 18 37 24 70 24 35 0 45 4 50 20 3 11 12
20 20 20 18 0 23 20 14 56 -9 31 -42 54 -80 54 -15 0 -19 5 -16 18 3 9 10 40
17 68 11 50 12 51 48 50 29 -1 39 4 47 21 5 13 16 22 25 20 11 -1 15 7 13 33
-2 39 -32 70 -67 70 -32 0 -34 5 -24 63 4 28 11 67 14 85 4 28 9 32 34 32 19
0 34 7 42 20 7 11 18 20 25 20 8 0 13 14 13 40 0 34 -4 42 -30 55 -16 8 -36
15 -45 15 -11 0 -15 11 -15 45 0 45 0 45 36 45 27 0 37 5 41 20 3 12 14 20 25
20 18 0 20 5 15 36 -8 48 -22 63 -68 70 l-39 7 1 111 c3 177 2 178 -261 240
-261 62 -513 108 -803 146 -175 23 -201 20 -258 -27 -28 -24 -35 -25 -95 -19
-64 7 -81 16 -687 373 l-622 365 -53 -5 -53 -6 -614 387 -614 387 -430 445
-431 445 -60 6 c-33 3 -62 8 -64 10 -1 2 -119 190 -260 417 -188 300 -255 416
-248 425 11 13 -53 108 -106 157 -15 14 -234 356 -487 760 l-460 735 0 225 c0
220 -1 226 -25 275 -36 71 -115 149 -166 162 -44 11 -159 -3 -224 -27 l-36
-13 -378 297 -379 296 -22 64 c-25 73 -73 147 -142 225 l-49 54 -62 -15 c-56
-14 -62 -14 -75 1 -15 17 -835 1126 -994 1344 l-93 128 0 167 c-1 132 -4 177
-18 214 -25 69 -75 134 -122 158 -41 21 -44 21 -113 5 -40 -9 -83 -23 -96 -32
-17 -11 -25 -12 -31 -4 -36 59 -427 580 -435 580 -5 0 -91 -22 -190 -47z m139
-2854 c6 -422 5 -508 -7 -508 -10 0 -16 133 -30 723 -10 397 -21 781 -24 854
l-6 131 24 4 24 3 6 -350 c4 -192 10 -578 13 -857z m2676 -358 c184 -144 337
-267 339 -273 5 -14 -17 3 -387 292 -172 135 -312 251 -312 260 0 13 2 13 13
-1 6 -9 163 -134 347 -278z m34 -123 c185 -144 227 -179 197 -162 -27 16 -81
22 -120 15 l-41 -7 -126 159 c-69 88 -120 156 -113 152 7 -4 99 -75 203 -157z
m-2430 -765 c31 -51 56 -95 56 -97 0 -3 -27 -5 -60 -5 l-60 0 0 102 c0 56 2
99 4 97 2 -2 29 -46 60 -97z m-507 -99 c-3 -2 -23 -3 -45 -1 l-40 3 41 70 42
70 3 -69 c2 -38 1 -70 -1 -73z m4178 -654 c242 -380 440 -696 440 -702 0 -7
-8 -12 -17 -12 -30 0 -130 148 -512 758 -298 477 -366 592 -364 616 1 17 5 31
8 31 3 0 203 -311 445 -691z m-240 188 c129 -203 235 -373 235 -378 0 -5 -10
-9 -22 -9 -19 0 -73 71 -281 368 -251 357 -257 367 -230 370 15 2 32 8 38 13
5 5 13 8 17 7 4 -2 114 -169 243 -371z m-3935 216 c-1 -39 -10 -33 -24 15 -6
16 -3 22 8 22 12 0 16 -10 16 -37z m579 21 c2 -2 -4 -25 -14 -51 -17 -45 -93
-133 -115 -133 -6 0 -10 39 -10 101 l0 101 68 -7 c37 -4 69 -9 71 -11z m-1043
-500 c59 -54 152 -94 234 -101 39 -3 70 -7 70 -9 0 -2 -8 -19 -17 -39 -14 -29
-22 -35 -49 -35 -70 0 -130 -48 -140 -111 -6 -35 -9 -37 -193 -129 l-187 -93
-47 36 c-25 19 -51 37 -57 39 -7 2 36 83 101 191 94 157 115 187 135 187 27 0
90 52 99 81 4 10 8 19 9 19 2 0 21 -16 42 -36z m1254 -69 c54 -16 69 -16 278
-2 33 2 34 0 133 -166 54 -92 99 -171 99 -175 0 -4 -22 -20 -50 -35 -27 -15
-54 -35 -58 -44 -8 -13 -33 -1 -164 80 l-154 97 4 38 c8 80 -55 142 -144 142
-45 0 -51 3 -67 32 -18 31 -18 33 0 46 19 14 37 12 123 -13z m4070 -930 c145
-228 153 -240 138 -225 -35 34 -258 340 -258 353 0 21 13 29 26 15 6 -7 49
-71 94 -143z m2518 -2538 c12 -11 22 -30 22 -43 0 -12 8 -31 18 -42 9 -10 120
-81 245 -157 126 -75 227 -139 225 -140 -2 -2 -74 11 -161 28 l-158 32 -77 80
c-42 44 -152 157 -244 252 -92 94 -168 174 -168 177 0 7 270 -162 298 -187z
m977 -676 c-3 -8 -15 -53 -27 -100 -11 -47 -25 -90 -29 -95 -5 -6 -9 38 -9
100 0 60 -3 120 -7 133 l-6 23 42 -23 c26 -16 39 -29 36 -38z m-355 -1321 c0
-5 -7 -7 -15 -4 -8 4 -15 8 -15 10 0 2 7 4 15 4 8 0 15 -4 15 -10z m265 -20
c3 -5 2 -10 -4 -10 -5 0 -13 5 -16 10 -3 6 -2 10 4 10 5 0 13 -4 16 -10z m453
-36 c15 -4 16 -40 1 -50 -6 -3 -28 10 -48 30 l-36 36 35 -6 c19 -3 41 -7 48
-10z m-2973 -224 c-3 -5 -25 -9 -48 -8 l-42 1 45 7 c25 4 46 8 48 8 2 1 0 -2
-3 -8z m702 -65 c10 -30 9 -34 -12 -39 -16 -4 -31 -26 -54 -76 -26 -58 -35
-70 -55 -70 -35 0 -41 36 -10 56 32 21 82 99 90 140 7 41 27 36 41 -11z m133
-183 c3 -2 -10 -2 -29 0 -28 2 -36 8 -42 30 l-7 28 36 -27 c21 -15 39 -29 42
-31z m1064 3 c19 -15 19 -15 -1 -15 -11 0 -23 7 -27 15 -7 19 3 19 28 0z m990
-20 c-4 -8 -13 -15 -21 -15 -13 0 -13 3 -3 15 7 8 16 15 21 15 5 0 6 -7 3 -15z
m171 -15 c3 -5 2 -10 -4 -10 -5 0 -13 5 -16 10 -3 6 -2 10 4 10 5 0 13 -4 16
-10z"/>
</g>
</svg>
