<svg width="451.46mm" height="253.26mm" version="1.1" viewBox="0 0 451.46 253.26" xmlns="http://www.w3.org/2000/svg">
 <g transform="translate(125.95 -63.783)">
  <g transform="matrix(.035278 0 0 -.035278 -125.95 317.04)" fill="#1a5c15">
   <path d="m2150 7173c-92-15-215-91-262-161-72-105-97-187-103-336-4-104-8-124-30-162-14-24-30-46-36-50-6-3-36-45-68-93-31-47-75-109-97-138-23-28-58-81-77-116-20-35-43-70-52-77-30-25-16-38 57-50 40-7 97-21 127-31 34-12 58-16 64-10 14 14 1 28-35 36-27 7-29 9-11 12 20 4 72-23 252-129 36-21 71-38 78-38 14 0 33-39 33-66 0-8-6-14-12-14-17 0-78-54-129-115-23-27-64-74-91-103l-48-54-48 27c-26 15-62 39-80 52l-33 25 20 22c36 39 81 151 81 203l-1 48-21-40c-12-22-39-80-59-130-55-131-63-122-67 68-2 135 0 157 13 157 12 0 15-16 15-92 0-99 13-105 26-13 10 76 20 97 44 91 11-3 29-9 40-12s20-1 20 4-60 24-132 42c-73 17-148 39-166 47-36 17-52 12-33-11 7-8 8-16 2-18s-4-36 5-88c7-47 14-101 14-120s14-77 31-128c28-83 29-95 16-110-8-9-47-81-86-160-68-135-74-144-114-162-23-10-141-64-262-120s-236-109-256-117c-35-15-37-14-135 35-178 89-310 142-364 146-27 2-50 2-50 1 0-7 317-158 367-175 82-29 93-37 93-71 0-26 3-30 18-24 9 4 49 20 87 35 39 15 136 60 218 100 81 39 153 70 160 67 6-2-3-12-21-21-50-26-34-29 27-5 30 11 58 18 64 16 12-4-100-59-322-161-154-70-181-86-142-86 13 0 84 27 158 61 122 55 163 66 163 41 0-5-42-28-92-52-109-50-243-117-268-132-13-8-28-7-59 5-76 31-101 15-29-18 58-27 101-90 103-150 1-31 8-50 22-62 11-10 33-56 48-103s35-103 45-125c26-62 31-101 15-115-19-16-19-50-1-50 17 0 47 24 162 125 264 232 451 374 473 360 31-18 1-113-51-161-31-29-192-156-323-254-147-109-206-164-224-205-24-53-37-62-62-39-35 31-202 389-234 499-9 33-25 72-36 86-10 15-19 35-19 44 0 15 2 16 16 4 30-24 78-152 108-281 4-16 11-28 17-28 5 0 21-25 34-55 37-82 94-165 111-158 19 7 18 20-5 51-31 45-68 124-86 187-29 102-117 339-131 354-19 21-29 6-16-24 20-43 13-63-8-25-11 19-19 52-20 72 0 20-4 40-10 43-5 3-38 43-72 88-81 107-233 263-302 311-42 29-60 35-80 30-14-3-26-9-26-13s21-27 46-51c25-25 80-85 122-135 42-49 85-99 95-110 16-18 107-197 169-335 14-30 37-98 52-150s38-113 50-135 31-62 41-90c42-115 124-227 200-275 42-26 149-59 210-64 6-1 24-15 41-32 59-61 206-69 377-20 45 13 105 29 133 35 66 13 246 100 405 195 103 61 141 91 210 163 103 109 124 124 241 173 92 37 168 72 321 144 43 21 82 35 85 31 4-3 7-43 8-88 1-125 2-127 24-127 12 0 25 10 32 25 8 19 23 27 67 36 85 17 302 65 426 94 162 38 566 125 582 125 13 0 240-195 448-385 55-50 260-233 455-405 410-363 1021-905 1199-1065 67-60 135-120 152-131 67-50 151-129 160-151 5-13 29-143 54-289 25-147 48-270 50-275 13-19 89-29 233-29h153l-6-23c-4-12-33-62-66-110-32-49-59-99-59-111 0-33 33-60 64-52 13 3 32 3 40 0 14-5 11-15-16-66l-32-60 35-29 34-28-107-1c-89 0-108-3-108-15s16-15 81-15c80 0 81 0 74-22-4-13-10-39-14-58-6-35-7-35-63-38-58-3-90 8-134 46-19 16-21 26-17 65l6 47h-122c-111 0-122-2-119-17s17-18 96-21c90-3 93-3 103-30 7-18 7-34 0-49-10-21-17-23-79-23-38 0-92 7-120 15l-52 16v50c0 44-3 51-26 59-35 14-181 13-190-1-12-20 11-29 89-35 79-7 88-12 62-34-9-8-13-21-9-36 6-24 6-24-74-24-88 0-132 11-132 34 0 8-7 27-14 43-8 15-17 36-20 46-5 15-19 17-111 17-98 0-105-1-105-20s7-20 93-20c101 0 128-8 102-30-8-7-15-23-15-35 0-13-6-25-13-28s-58 3-113 13c-64 11-105 14-116 8-21-10-21-12-8 30 5 19 7 47 3 63l-5 29h-103c-82 0-104-3-109-15-3-8-12-15-21-15-66 0-235-151-286-255-35-72-35-77-6-110 30-35 52-25 66 29 6 24 38 81 71 127s60 91 60 100c0 26 33 48 84 58 26 5 53 16 60 26 11 15 22 16 74 10 34-4 62-11 62-16 0-21-24-58-42-62-23-6-48 1-48 14 0 5-11 9-23 9-25 0-107-53-107-69 0-5-9-12-19-16-15-4-21-17-23-47-3-39-5-42-43-52-36-10-41-16-48-51-5-22-15-54-23-72-12-28-11-34 2-48 9-8 24-15 35-15 10 0 19-3 19-6 0-9-34-67-48-83-8-8-12-31-10-55 3-38 5-41 30-38 22 2 25-1 21-19-5-18 5-15 87 28 99 52 129 81 71 70-18-4-41-3-51 3-11 6-30 6-51 0-34-10-69-5-69 10 0 9 16 14 140 41 52 11 107 29 122 40 15 10 30 19 33 19 15 0 44-47 45-72 0-15 5-38 11-52 14-31-2-56-35-56-12 0-30-6-40-13-15-11-16-15-4-25 20-16 118 50 118 80 0 11 9 36 21 55 12 18 19 40 16 47-10 26 17 36 95 36 62 0 80-3 85-15 8-22 1-26-53-36-52-10-66-23-58-55 4-16-6-31-43-64-26-23-66-51-88-61-22-11-48-25-58-33-27-21-34-89-13-121 16-24 46-35 46-16 0 10 54 25 67 19 4-2 6-9 5-17-3-10 2-12 15-6 37 15 53 17 53 6 0-17 25-13 50 9 13 11 27 20 31 20 14 0 59 73 58 95 0 19-1 19-16-3-8-12-22-22-29-22-20 0-17 35 7 81 11 22 18 46 16 52-3 7-9 1-15-13-5-14-19-33-31-44-27-25-35-7-24 60 7 40 13 50 35 58 39 14 58-6 58-60 0-51 11-61 36-33 16 18 19 35 17 104-2 81-2 83 23 89 48 12 64 0 64-52 0-26 4-53 9-61 17-26 41 6 41 55 0 23 5 46 10 49 6 4 30 3 53-1l42-7-44-11c-62-15-66-36-8-36 25 0 52-2 60-6 10-3 16 4 20 26 8 36 25 45 72 36 33-7 35-9 35-47 0-73-8-79-113-79-75 0-97-4-117-20-14-10-22-22-18-25 4-4 44-13 90-19 76-11 84-14 96-40 8-15 20-30 27-32 17-7 64 17 89 45 15 16 31 21 73 21 46 0 53-3 53-19 0-21 25-51 41-51 6 0 15 14 20 30 8 21 18 30 32 30 12 0 35 7 51 15 15 8 46 15 68 15 42 0 43-3 24-51-4-9 2-26 14-40l20-24 20 24c11 13 20 31 20 41 0 46 8 50 95 50h83l-5-38c-9-71 49-84 72-16 17 50 23 54 85 54 58 0 60-1 74-34 8-19 24-39 35-46 13-7 21-21 21-38 1-45 34-104 86-153 69-64 103-84 116-71 7 7-10 29-55 74-66 63-96 124-81 162 4 10-2 19-20 27-21 10-25 19-28 63l-3 51-92-3c-50-2-110-1-133 3l-42 7 23 24c20 21 31 24 94 24 47 0 78 5 91 15 25 19 93 20 100 0 5-13 10-13 36 1 37 19 82 15 86-9 3-13-3-17-25-17-43 0-56-12-39-35 10-14 27-19 64-19 59-1 73 8 46 29-19 15-18 15 5 35 13 11 31 20 41 20 18 0 43 24 53 51 8 24 60 31 102 13 23-9 49-12 71-8l35 6-13-27c-11-24-16-26-48-20-105 20-146 13-110-20 11-10 20-24 20-32 0-7 5-21 11-31 14-22-12-80-39-88-9-3-25-10-35-15-23-13-43 2-52 38-4 19-9 23-17 15s-6-18 8-38c19-27 21-31 41-69 8-15 19-19 47-17 39 3 48-11 16-28-22-12-26-45-11-82 6-13 13-40 16-61 6-36 28-58 43-43 3 4 9 28 12 53 3 26 11 48 19 51 9 3 11-2 6-17-10-34 24-26 85 19 55 41 65 46 73 33 2-5 3-3 1 3-1 6 2 17 7 25 8 11 14 9 32-13 13-16 28-28 35-28 6 0 16-9 22-20 10-19 20-20 288-19 152 1 339 4 416 8 76 3 143 3 149-1 7-4 7-17 1-40-10-33-10-33-69-32-752 15-810 17-827 32-21 17-46 10-56-17-8-23-129-108-175-123-39-14-49-27-36-49 7-14 4-22-13-33-27-19-51-19-100-2-28 10-68 11-168 5-121-7-134-6-163 12-40 24-51 24-86-2-24-18-36-19-103-13-94 8-104 14-88 44 11 20 18 22 66 18 32-3 62-12 73-22 16-15 23-16 42-6 16 9 57 11 143 6 69-4 127-2 135 3 22 14 6 39-31 49-30 7-33 12-35 48-1 26-13 59-32 91-17 28-31 62-31 77 0 48-100 88-130 51-19-23-3-52 45-79 49-29 58-50 36-84-13-21-13-27 2-52 11-18 14-31 7-35-22-14-47 7-79 67-47 86-58 98-98 98-33 0-34-1-28-29 5-23 1-33-19-49-27-21-35-52-13-52 7 0 18 5 24 11 15 15 43 4 43-16 0-13-11-15-67-13-66 3-68 4-65 28 1 14-3 29-11 35-7 5-26 31-41 57-20 34-35 48-57 53-16 4-29 13-29 22 0 8-14 28-30 45-27 26-35 29-68 23-45-8-82-30-82-50s52-45 94-45c24 0 42-7 56-22 21-22 21-32 5-86-6-18-3-22 13-22 12 0 24-4 27-10 4-6-12-10-42-10-75 0-124 11-130 29-4 9-15 29-26 44-10 15-23 43-28 62-9 31-14 35-44 35-37 0-42-9-24-41 8-16 7-23-6-32-9-7-21-24-28-37-9-17-22-26-44-28-33-3-30-7-91 93-7 11-16 30-22 43-11 24-51 30-67 10-6-7-18-37-27-65-10-29-22-55-27-59-20-12-58 7-73 38-28 56-18 78 39 78 12 0 28 7 35 16 11 13 10 18-7 35-15 16-35 21-84 22l-64 2-5-50c-6-54-45-124-70-125-16-1-57-28-49-33 27-18 88-37 120-37 34 0 41-4 50-27 19-49 11-52-123-46-102 5-129 3-155-10-26-14-33-14-42-3-6 7-39 16-74 20-34 4-114 12-177 19l-115 12-3 38c-2 24-10 41-22 47-26 14-126 139-135 170-4 13-21 37-37 52-30 27-30 30-37 163-4 74-10 138-14 142-14 13-42-13-55-53-15-43-11-154 8-216 8-27 18-40 36-44 31-8 44-52 20-69-22-16-21-23 13-74 17-25 28-48 25-53s-28-6-55-2c-30 4-49 3-49-3 0-13 34-43 48-43 7 0 12-4 12-9 0-13-87-22-116-11-15 6-38 23-53 39-27 28-110 61-156 61-12 0-38-11-57-23-28-20-52-25-137-30-97-6-104-5-120 15-19 22-84 30-401 48-85 4-156 8-157 9-2 1-3 12-3 25 0 26-16 36-57 36-22 0-24 3-19 24 5 19 0 29-16 40-30 21-41 20-35-4 3-10 0-21-6-23-5-1 13-17 40-35 28-18 59-42 69-53l19-22-112 7c-62 3-162 9-222 12-83 5-110 3-116-6-6-10 3-12 41-7 28 3 56 2 64-3 9-6-1-10-30-12-38-2-46-7-48-26-3-17 2-22 17-22 12 0 21 6 21 15 0 11 11 15 37 15h38l-28-27c-26-27-32-28-130-30-92-1-102-3-102-20 0-21-5-21 155 0 142 19 680 33 680 17 0-6 32-10 83-10 89 0 157-9 157-19 0-4-6-16-14-26-14-19-15-19-33-2-25 22-59 22-79-2-15-17-19-17-45-4-21 10-59 14-127 13-53-1-116 2-139 5-41 7-58-4-33-20 6-3 10-11 10-16 0-7-28-8-83-4-70 6-85 4-96-9s-16-14-29-4c-8 7-43 14-77 15-51 1-64-2-73-18-15-23-8-27 53-31 26-2 39-8 38-15-2-7-4-19-5-25-2-8 10-14 30-16 26-3 39 3 67 31 21 21 35 29 35 21s12-19 26-24c33-13 22-30-20-30-30 0-56-15-56-32 0-4 32-8 71-8 69 0 71 1 66 22-4 12-2 27 4 34 7 9 3 17-12 28-43 30-37 30 211-3 50-7 69-6 86 6 32 21 67 13 81-18 13-26 16-27 139-34 68-4 127-5 131-2 3 3-2 13-10 21-8 9-18 21-20 28-4 10-9 8-20-4-19-24-44-23-52 2-3 11-15 20-25 20-19 0-36 17-27 26 3 3 16 0 29-7 23-12 183-14 221-3 24 8 13 20-25 29-33 7-33 7-8 15 58 18 79 12 130-42 28-29 50-55 50-59s9-9 21-12c17-5 19-9 9-26-6-12-8-26-5-31 9-15 45-12 51 4 7 17 102 32 115 19 11-11 69-5 69 7 0 4-38 11-85 15s-83 11-79 16c3 5 14 9 24 9 22 0 53 56 44 82-4 15 0 18 26 18 23 0 33-6 40-25 5-14 16-25 24-25 7 0 17 11 20 25 8 30 27 32 51 5 20-22 45-26 62-9 13 13 99 14 116 1 20-15 248-44 326-40 53 2 75-1 78-9 4-10-23-13-110-13-84 0-118-4-126-13-18-22-2-27 93-27 50 0 101-3 113-6 26-7 21-24-8-24-26 0-24-16 4-24 42-13 257-20 257-9 0 6-24 14-53 17-51 7-86 20-77 30 3 2 57 8 120 13 111 8 115 9 114 31-1 30 31 37 104 23 92-18 301-36 382-33l75 2-32-20c-44-27-42-41 4-28 21 6 45 6 57 1 30-12 270-10 276 2 3 6-16 11-45 13-75 4-102 11-84 23 16 11 153 3 214-13 21-5 87-13 145-18 92-7 110-5 147 11 23 11 57 19 75 19 52 0 259-38 273-50 9-8 40-9 92-5 47 4 103 2 142-5 67-12 86-6 75 24-6 17-17 18-119 11-91-5-113-4-123 8-26 31 7 36 183 28 145-6 166-9 142-19-48-20-20-32 74-32 50 0 100-5 112-12 14-7 65-10 140-9 100 2 122 0 137-14 14-13 28-16 52-11 68 14 188 19 188 7 0-7-14-11-34-9-39 2-66-15-66-43 0-24 36-25 85-5 24 10 35 22 35 35 0 27 16 27 30 0 10-18 18-20 63-15 124 12 152 20 152 41 0 29-58 33-82 6-25-30-33-26-26 14l6 35h-64c-35 0-70 4-78 9-24 15 17 28 111 34 68 5 89 3 98-9 8-8 30-14 57-14 24 0 74-4 111-9 158-22 165-22 157-3-16 38-17 62-3 62 21 0 48-33 48-57 0-17 8-21 53-27 90-10 105-8 113 17 10 33 21 37 102 37 69 0 73-1 67-20-5-16-2-20 18-20s23 4 20 24c-6 28 10 40 42 32 15-4 25-15 27-29 3-21 7-22 77-19 41 1 77 5 80 7 10 11-12 19-49 20-26 0-39 4-36 11 8 20-17 34-61 34-24 0-43 5-43 10 0 6 16 10 35 10 22 0 38 6 41 15 8 20 44 19 72-1 18-13 26-13 38-3 12 9 20 9 42-1 21-10 153-22 331-29 8-1 11-7 7-16-3-9 0-25 7-35 9-16 23-20 69-20 31 0 69 5 84 10 20 8 40 7 79-5 76-22 156-20 187 5 19 14 34 18 62 13 21-3 36-2 36 5 0 13-23 18-139 34-96 13-96 13-46 19 77 11 173 10 180-1 4-6 57-10 123-11 64 0 152-6 195-13 99-16 273-15 352 3 52 11 263 21 463 20 37 0 62 4 62 10s-21 11-47 11c-56 0-76 10-71 36 2 15 13 20 46 22 40 3 43 1 38-16-6-18-4-19 29-12 21 5 35 4 35-2 0-5 15-22 32-39 29-26 39-29 99-29 37 0 81-3 98-6 33-7 42-23 14-25-10-1 2-5 27-10 63-11 162-11 180 1 11 7-2 10-45 11-59 1-60 1-30 14 17 8 64 14 108 15 81 0 102 13 41 24-47 9-39 30 14 34 31 2 49-2 67-17 31-24 102-38 118-22 17 17-18 47-68 60s-140 13-170 2c-14-6-35-1-65 14-75 38-404 85-490 70-47-8-54-25-10-25 17 0 30-4 30-10 0-11-257-14-284-4-27 11-17 24 17 24 70 0 45 15-45 27-159 20-271 12-314-23-17-14-15-15 26-9 25 3 60 8 78 12 29 5 33 3 30-13-2-15-22-21-107-35-77-12-108-21-118-35-12-16-15-17-23-4-6 10-3 24 11 45 45 67 83 160 84 205v45l-53-3c-34-2-59 1-69 10-12 10-81 14-292 16-152 1-285 5-297 7-19 4-22 14-28 82-4 42-13 91-21 109-8 20-10 36-4 39 5 4 173 9 374 12 417 7 379 16 380-92v-60l-332-3c-211-1-333-6-333-12 0-13-22-12 340-19l315-6 3-27c2-19 9-28 22-28 26 0 33 24 35 136 2 85-1 108-19 145-22 47-47 59-70 36-11-11-66-16-253-21-131-3-297-9-369-12l-131-7-6 43c-3 25-19 62-36 86-17 25-26 46-20 50 5 3 167 2 359-2 234-4 350-4 350 3 0 6-44 12-106 15-76 3-108 9-114 19-7 11-62 15-269 19-143 3-263 8-267 12-6 7 613 15 691 9 44-3 96-49 127-111 33-69 53-72 53-10-1 62-48 130-111 161-45 21-49 22-76 6-20-12-35-14-51-7-16 6-1051 29-1337 29-107 0-551 19-556 24-9 9 16 13 270 41 208 23 233 28 280 54 58 33 64 46 65 152 2 129-9 120 152 120h139v-80c0-96-16-88 202-92 86-2 159-6 162-9 4-3 10-33 14-65 6-52 10-60 37-73 25-13 156-17 804-24 731-8 774-7 793 10 16 14 21 15 28 4 16-27 27 22 34 148 3 68 10 129 16 136 5 6 56 35 112 65 57 29 142 75 190 102 48 28 104 56 125 63 25 9 40 21 44 37 10 32 10 1090 1 1104-15 23-53 34-148 44-55 6-125 15-157 21-31 5-62 7-67 4-13-8-627-13-2175-20-726-2-1661-8-2077-11l-758-7v162l87 96c47 52 87 95 89 95 1 0 38 7 81 15s90 15 106 15c25 0 27-3 28-47 2-46 2-47 9-13l7 35 11-28c7-16 12-47 12-70s5-60 11-82 14-60 19-85c4-25 8-36 9-24 0 11 8 29 16 40 14 18 14 18 15-6 1-41 14-55 34-35 18 19 21 41 6 50s-12 50 7 83c16 27 16 38 4 107-8 50-9 81-3 87 16 16 26-11 33-87 5-52 3-77-8-99-13-26-13-30 6-50 11-12 23-42 27-73s11-50 16-46c6 3 8 27 4 60-6 49-4 56 20 78 29 27 90 43 106 27 5-5 7-28 3-56-7-45-8-46-44-46-82-1-83-46-1-51 47-4 53-2 61 19 5 13 9 48 9 78s4 54 10 54c13 0 19-31 22-105 3-53 6-60 25-63 20-3 22 2 27 70 3 40 7 235 9 432 2 264 6 361 15 364 6 2 15 4 19 5 5 1 8-185 9-413s4-425 8-437c12-38 26-26 26 22v45h968c532 0 972-4 978-8s14-16 19-27c7-19 9-18 18 7l11 28h685c377 0 696 3 709 6 19 5 22 2 22-20 0-16 6-26 14-26 17 0 23 103 32 561 4 234 3 319-6 324-6 4-14 4-17 1-4-3-9-87-12-186-4-117-11-184-18-191-14-14-25-14-254-11l-167 2-7 73c-9 100-19 127-66 173l-40 39-344-2c-349-2-419-9-461-44-11-9-14-54-14-209 0-193 1-198 26-243 20-36 32-48 57-52 18-3 196-4 397-3l365 3-3 23c-4 25 13 30 22 6 3-9 6-40 6-71 0-39 4-54 13-51 7 3 13 27 14 64 2 32 8 98 15 147l12 87h448l-7-162c-4-90-9-165-10-168-3-5-330-6-991-2l-421 2-8 153c-9 176-9 263 0 329 4 28 2 61-4 80-8 23-8 47 0 88l11 57 217 7c119 3 419 6 668 6s466 3 483 6c36 8 39 31 5 44-28 11-3337 7-4302-6-467-5-613-4-613 5 0 15 69 159 93 195l21 29 1465-7c806-5 1907-9 2447-11 691-2 993-7 1025-15 112-28 301-119 367-176l42-36v-428c0-428 0-429 21-435 14-5 25-2 30 6 8 12 16 497 13 761l-1 96-48 56c-27 31-57 58-67 62-19 6-19 30-12 877 6 793 8 874 23 892 46 55 78 194 60 258-14 51-125 154-175 162-21 4-53 11-71 17-39 11-140-12-183-42-38-27-44-26-79 19-37 46-85 60-130 37-43-23-46-43-11-78 17-16 30-36 30-44 0-18-4-18-41 2-24 12-34 13-45 3-22-18-17-45 12-58 28-12 28-28 1-45-24-15-49 3-59 41-6 22-17 34-38 42-19 6-30 17-30 28s-6 25-12 32c-11 10-4 12 37 8 28-3 62-8 78-12 22-6 27-4 27 11 0 39-34 46-264 54-926 35-943 35-933 7 5-17 83-23 427-37 366-15 384-17 388-49l4-24-194 7c-245 8-515 29-550 44-46 19-136 31-363 47-121 8-319 24-440 35-467 42-586 52-755 65-96 8-222 19-280 24-58 6-217 20-355 31-137 12-340 30-450 40-243 24-230 23-650 60-187 17-502 44-700 60-397 32-518 43-740 65-172 17-662 61-840 75-66 5-264 21-440 34-324 26-399 33-715 66-96 11-229 24-295 30-140 13-148 15-284 93-57 32-151 83-210 112s-113 60-120 69-18 16-23 16c-6 0-26 14-45 30-55 49-96 36-73-21 9-22 10-33 2-41s-8-17-1-30c6-10 9-40 7-66l-4-47-13 48c-8 27-25 62-39 78-24 29-24 55 0 31 19-19 28-14 28 18 0 20-6 33-17 36-10 4-37 14-59 25-91 40-237 58-334 42zm216-156c-3-16-6-42-6-57 0-27-2-28-32-19-18 4-45 11-60 14-47 9-31 49 22 57 18 2 26 10 28 28 6 52 12 57 34 30 14-17 18-33 14-53zm-220-24c15-20 33-52 40-72 16-47 37-60 61-39 10 9 41 19 70 23 48 6 54 5 77-20 15-16 27-22 31-15 11 18 25 11 25-12 1-13 11-36 24-51l23-28 48 25c103 55 238 25 282-64 23-45 23-57 7-173-7-49-70-94-153-109-53-10-62-9-93 10-39 24-74 60-66 67 3 3 25-6 49-20 53-30 92-32 126-5 14 11 31 20 38 20 44 0 81 120 50 166-16 25-41 32-47 14-2-7-16-5-36 6-41 20-49 14-27-20 16-24 16-28 1-52-23-34-43-40-66-19-11 10-26 15-35 11-14-5-14-11 7-48 12-24 29-51 37-60 12-15 12-18 0-18-20 0-79 38-79 50 0 5-9 10-19 10-26 0-42 50-34 105 3 24 3 52-1 61-6 15-8 16-25 0-19-18-31-12-31 15 0 10-4 21-10 24-15 9-48-12-55-36-5-15-14-19-33-17-25 3-27 6-27 53 0 44-3 50-23 53-37 6-62-34-55-88 8-62 16-74 67-104 74-44 113-32 137 39l14 40 6-91c8-106 17-125 99-219 106-121 130-145 141-145 8 0 7 5-1 15-7 9-10 18-6 22 13 14 55-18 122-93 482-546 878-972 882-949 4 18-14 42-149 205-48 58-100 112-116 122-35 20-133 123-334 348-217 243-289 326-289 334 0 19 31-5 85-64 32-36 240-257 462-491 406-430 449-476 441-484-3-3-83-8-180-11l-176-7-53 78c-30 43-71 98-92 122-20 25-121 152-223 283-136 175-232 286-357 414-338 344-453 467-504 544-57 85-63 115-37 181l16 40-40 53c-55 75-65 95-49 101 21 9 24 8 53-30zm662-41c9-5 37-19 62-31s56-30 70-41l25-20h-36c-45 0-141 18-151 28-4 4-11 22-14 40-7 34 7 42 44 24zm-710-100c-4-35-35-52-75-40-18 5-33 13-33 18 0 6 17 28 37 51l37 41 19-23c10-12 17-34 15-47zm-128-82c107-17 120-21 120-36 0-24-178-14-196 11-13 17-11 35 4 35 4 0 36-5 72-10zm1235-35c115-61 150-86 134-96-25-15-92 2-124 32-38 35-74 49-130 49-52 0-75 8-75 25 0 18 16 23 77 24 40 1 65-6 118-34zm300 0c77-8 187-19 246-25 58-5 181-16 275-24 93-8 302-27 464-41s464-41 670-60 449-41 540-49c357-32 861-78 1180-107 354-32 693-62 900-79 139-11 499-43 745-65 88-8 221-19 295-25s178-15 230-20 158-14 235-20 178-15 225-20 166-17 265-25c207-18 235-23 235-37 0-7-19-8-57-4-32 4-116 11-188 16-71 5-184 14-250 20-212 18-515 40-705 50-102 6-192 13-200 15s-141 11-295 20-356 22-450 30c-370 33-666 56-1005 80-195 13-420 29-500 35-364 26-735 51-965 65-137 8-351 21-475 30-124 8-333 22-465 30-243 16-356 24-702 50l-193 14-122 68c-178 100-174 104 67 78zm-1397-104 22-38-21-27c-43-54-103-15-78 51 24 64 47 68 77 14zm-164 14c-9-22 45-154 68-166 15-8 25-7 43 5 36 23 42 19 15-9-23-24-23-25-4-46 28-32 108-69 133-62 12 3 21 1 21-6 0-6 9-11 19-11 28 0 33-13 15-39-15-20-17-21-34-6-9 8-24 13-33 9-11-4-19 0-23 10-4 11-13 15-26 10-11-3-27 1-36 9s-33 22-52 30c-58 26-100 74-137 157-8 19-24 45-36 58l-21 23 29 24c34 28 68 33 59 10zm1708-154c143-82 160-96 128-106-21-7-501 13-509 21-3 3 1 19 7 37 7 19 12 55 12 82v48l118-5 117-5zm388 34c135-8 310-19 390-25 80-5 217-14 305-20s252-17 365-25 275-20 360-25 175-12 200-15 396-30 825-60 821-59 870-65c50-5 198-16 330-25 132-8 339-22 460-30 230-15 259-17 1045-66 510-31 726-51 744-69 20-20-16-31-79-25-33 3-251 14-485 25-783 37-1233 60-1470 75-129 8-343 19-475 25s-339 17-460 25c-121 7-278 16-350 20-71 3-206 10-300 16-178 10-320 16-1120 49-615 25-898 39-952 46-26 4-43 2-43-4 0-24 38-28 575-52 237-11 500-25 585-30 85-6 310-17 500-25 190-9 469-22 620-30 1062-57 1722-90 2490-125 245-11 567-27 715-35 149-8 353-19 455-25s253-15 335-20c83-5 320-17 528-25 350-15 379-17 397-35 11-11 26-20 34-20 7 0 19-6 25-14 20-24-8-34-69-25-30 4-190 13-355 19s-372 15-460 19l-160 8-72-34c-59-29-79-34-115-29-23 4-131 11-238 16s-269 14-360 20c-91 5-266 14-390 20-403 18-1281 65-1570 85-118 7-271 17-340 20s-228 13-355 21c-216 13-396 24-1020 59-143 8-375 19-515 25-140 5-379 17-530 26-304 17-408 16-375-2 19-11 260-29 710-54 105-6 298-17 430-25 469-29 1623-95 1835-105 118-6 244-13 280-16s209-11 385-19 464-23 640-34 559-34 850-51c471-27 534-33 567-50 20-11 46-20 57-20 10 0 28-11 38-25l18-25 310-11c471-16 578-23 582-35 2-7-59-62-137-124-77-62-140-119-140-126 0-8-6-14-14-14-7 0-56-35-108-77-52-43-163-134-247-203-85-69-253-208-375-309-223-186-462-382-614-504l-82-67-38 20c-60 32-126 27-213-18-51-25-80-47-94-70l-20-33-645 3-646 3-124 71c-127 73-638 354-877 483-122 65-183 86-183 61 0-12 54-47 140-89 36-18 103-54 150-80 258-145 701-392 738-411 24-12 41-24 38-27s-211-5-463-4c-558 1-521 9-581-117-22-48-54-112-70-142-17-30-58-111-92-180-35-69-71-140-82-158l-20-32-57 52c-32 29-121 112-197 183-139 129-507 467-699 641-177 161-165 146-165 201 0 26-4 63-9 80-12 40-13 40 149 48 219 10 480 25 635 35 83 5 240 14 350 20 217 12 343 31 390 60 81 50 159 159 186 261 14 51 8 82-20 119-20 25-17 26-83-8-3-2-9 11-13 27-7 34-16 38-35 16-10-12-10-18 1-31s8-19-19-40c-17-14-41-44-53-68-32-66-89-137-134-168-55-39-108-45-510-58-187-6-470-15-630-20-159-5-338-12-397-16l-108-6v80l198 6c196 6 414 15 883 37 136 7 291 9 345 7 91-5 103-4 148 19 27 14 70 45 97 70 45 42 76 97 60 107-23 15-141 17-431 7-1439-50-1330-48-1330-23 0 27 13 28 595 47 1217 39 1230 40 1230 60 0 22-96 26-425 16-711-23-1209-41-1316-47l-112-7-7 44c-4 24-14 53-21 64-8 11-14 29-14 42 0 12-11 35-24 50-24 27-27 28-140 31-107 3-116 5-116 23 0 44-86 43-110-1-11-20-17-21-138-17-70 3-142 8-161 12-33 7-34 7-29-20 4-18-1-39-13-59-23-38-24-94-4-143 21-49 14-63-32-63-43 0-52 5-76 40-23 33-21 43 3 30 17-9 20-8 20 7 0 29-11 39-90 75-61 29-92 53-169 131-52 53-92 99-88 103 3 4 20 1 37-6s34-10 37-6c16 15-17 41-87 69-41 16-88 41-103 56-43 39-110 121-105 127 3 2 22-3 43-11 20-9 39-14 41-12 15 14-18 40-84 68-42 17-86 38-98 46-27 17-254 264-254 275 0 10 72 9 135-2 28-5 172-14 320-19 149-6 349-16 445-22l175-12 125-70c69-38 157-87 195-107 79-42 357-199 610-345 387-223 489-277 526-282 22-3 39-3 39 0s-78 49-172 103c-95 54-209 119-253 145-240 141-781 440-830 459-14 5-52 27-83 48-82 56-206 122-228 122-34 1-107 40-153 83-25 23-119 82-208 132-90 49-163 93-163 98 0 6 28 7 68 4 37-4 177-13 312-22zm-2121-147 54-58-18-104c-10-58-21-110-25-116-5-9-20-7-56 6-37 13-81 18-176 18-71 1-128 5-128 10 0 4 29 53 65 107 35 54 71 111 79 127s34 53 57 82l43 54 25-34c14-18 50-60 80-92zm331 61c0-6-12-9-27-7-29 3-40 25-28 56 6 15 10 13 31-11 13-15 24-33 24-38zm1625-99c59-6 83-16 149-56 89-55 109-80 55-71-19 4-137 11-262 17-166 8-232 8-242 0-15-13-65-3-65 13 0 8-3 8-11 0-7-7-43-3-122 14-62 13-127 27-144 30-38 7-42 25-11 48 19 13 44 14 153 9 71-3 148-2 170 3 43 10 215 7 330-7zm-1755-97c106-29 146-34 257-31l112 3 111-109c61-60 124-125 138-145 15-20 89-115 165-211 308-388 417-530 417-540 0-11-108-18-470-30-563-20-1005-30-1022-24-10 3-18 11-18 18 0 22-62 96-106 127-50 34-53 47-21 77 21 20 25 20 62 7 34-11 42-11 56 1 8 8 21 14 28 14 15 0 291 248 291 261 0 5-11 32-25 59-16 32-25 66-25 97 0 63-16 116-44 150-45 54-47 66-31 143 8 39 15 89 15 110 0 39 13 53 40 43 8-3 40-12 70-20zm894 1c51-18 103-54 124-85 36-55 502-559 745-805l119-121-32-7c-58-11-161-7-159 7 1 6 1 17 0 24 0 7-85 102-188 211-300 317-652 696-670 721-9 13-12 22-6 20 9-4 94-92 495-514 242-256 327-342 313-315-19 33-223 262-544 608-221 238-258 281-230 268 8-3 22-9 33-12zm8584-106c14-14 16-58 3-58-5 0-11 8-14 18-2 9-8 25-12 35-8 20 5 23 23 5zm-1364-4c9-3 16-12 16-20 0-7 8-17 17-23 29-16 6-25-71-29-78-4-89 1-101 51l-7 27h65c36 0 72-3 81-6zm-184-45c0-13-7-19-23-19-35 0-41 12-15 31 26 20 38 16 38-12zm1939 0c81-58 94-129 40-216-22-36-35-92-44-203-3-30-7-71-11-90-3-19-8-165-10-325-3-159-8-382-13-495-6-174-8-127-9 318-1 370-5 522-13 522-7 0-9 31-6 100 2 57 1 100-5 100-26 0-78-31-78-47-1-10-2-175-5-368-9-803-18-1231-26-1245-6-11-8-9-8 10 0 14 4 318 9 675 6 454 5 682-2 755-14 127-16 290-5 297 4 3 13 0 20-5s27-13 45-17c28-6 37-2 67 28 43 43 46 80 9 118-23 24-30 26-50 17-16-8-24-20-24-36 0-59-71-86-91-34l-11 27-15-22c-9-13-20-23-26-23s-33-24-61-54c-39-41-230-216-255-232-2-2 15-24 37-51 22-26 58-75 79-109 21-33 55-86 76-117 37-55 46-87 27-87-11 0-100 116-100 130 0 5-19 32-41 60-23 29-45 67-51 86-7 27-16 36-47 45-37 11-41 10-77-22-20-19-69-67-108-108-39-40-136-128-216-195-80-66-224-188-321-271-97-82-250-213-340-290-254-217-406-344-499-418-47-37-102-81-122-98-31-27-42-30-71-25-23 4-38 14-45 32-18 38-15 48 20 74 30 22 585 475 1139 930 425 348 517 427 665 566 50 47 102 93 115 102 34 23 200 170 224 198 28 32 60 43 131 43 53 1 67-3 103-30zm-10555-155c25-10 34-67 41-269s10-225 28-225c7 0 23-9 36-19l23-18-20-39c-39-78-40-77 38-139 87-69 92-90 18-81-28 4-75 18-102 31-28 13-69 27-91 30-69 11-68 9-32 82 19 38 40 85 46 106 13 38 25 47 35 25 4-7 3 5-1 27-3 22-6 62-5 90 0 27-8 87-19 132-17 74-28 273-15 273 2 0 11-3 20-6zm9348-44c323-13 331-14 326-38-3-14-15-17-73-17-96 0-582 24-623 31-58 9-4 47 55 39 18-2 160-9 315-15zm837-236c-55-56-99-81-99-56 0 17 40 65 95 115 58 53 60 54 63 29 3-19-10-39-59-88zm271-652c-13-777-10-866 21-882 19-11 27-40 10-40-5 0-22 5-36 10l-27 10 7 823c4 452 10 826 13 831 20 35 22-87 12-752zm-136 572c10-38-15-1419-25-1428-2-2-42 2-89 9-59 9-316 15-832 20-412 4-748 10-748 14 1 3 152 132 336 286s399 333 477 399c78 65 228 191 334 280 105 88 199 163 208 164 10 3 53-32 111-89 52-50 97-89 100-86s13 20 22 39c10 19 26 34 39 36 45 7 47 27 10 89-88 147-98 165-95 173 4 10 131 119 139 120 4 0 10-12 13-26zm-454-138c0-8-15-28-32-45-18-17-61-58-95-91-55-52-103-77-103-52 0 8 97 104 168 165 45 39 62 46 62 23zm-6462-15c19-10 22-20 22-66 0-61-37-300-79-515-16-80-32-163-35-186-7-48-43-134-56-134-5 0-12-10-15-22-8-28-64-58-108-58-22 0-43 9-63 28-26 23-33 43-53 137-43 207-75 340-116 490-15 55-34 122-41 150-15 53-18 153-6 171 12 19 28 20 281 18 169-1 254-5 269-13zm-3218-39c0-13-31-52-41-52-5 0-3 14 6 30 14 28 35 41 35 22zm2537-211c36 0 44-4 56-28 19-38 50-170 43-181-6-10-328-22-616-23-253-2-430-11-430-22 0-7 167-8 534-3l534 7 11-32c6-18 8-36 3-41-4-4-176-12-382-18-615-16-764-23-865-39-114-19-155-22-155-13 0 5 10 14 23 20 21 10 21 11-6 11-16 1-37-3-47-9-13-7-264-40-307-40-2 0-3 4-3 9 0 10 154 46 240 56 30 4 74 13 98 21 57 19 180 18 238-2 25-8 48-13 51-10 13 13-8 34-41 40-19 4-42 16-50 28-15 21-18 21-351 16-185-3-339-8-342-12-17-17 26-21 213-19 117 2 204-1 204-7 0-5-8-11-17-14-45-13-312-74-348-80-22-3-102-15-178-27-149-23-167-20-167 26 0 27-45 85-66 85-8 0-88 18-178 40-162 40-278 51-292 29-12-21 16-32 98-39 46-4 94-12 108-17 14-6 73-21 132-33l106-22 72-138h-24c-27 0-203 34-253 49-23 7-35 6-40-2-4-7-9-67-10-135-2-96-7-137-24-184-36-101-58-146-84-166-14-11-25-23-25-27 0-10-95-94-144-127-22-15-70-49-106-74-101-71-177-105-242-109-54-2-56-1-61 24-7 32 13 56 73 86 25 13 100 65 168 116 68 52 148 112 179 134 44 32 63 56 100 125l46 85v105c1 114-17 182-47 188-15 3-17-1-11-30 12-56-12-19-27 42-13 54-15 56-75 86l-63 32-77-15c-145-28-151-28-155-1l-5 23-9-22c-6-14-42-38-100-66-87-43-284-160-333-198-34-27-49-24-66 17-20 48-19 53 8 63 88 34 567 270 567 280 0 21-20 19-95-9-44-16-81-28-83-26s31 21 73 42c53 26 77 45 81 60 8 30-4 47-27 41-31-8-22-1 42 39 57 34 65 36 116 30 30-4 83-20 117-36 74-35 162-50 236-40 75 10 269 18 725 30 209 6 538 17 730 26 552 25 773 32 870 28 50-2 109-3 132-3zm2493-1c0-12 50-9-340-20-696-19-1030-30-1169-36-120-6-143-5-139 7 3 10 35 16 124 20 136 7 877 28 1124 32 91 1 218 4 283 5 73 1 117-2 117-8zm5-49c-12-11-225-28-490-41-335-15-1144-34-1152-27-4 4-2 11 3 16 5 4 254 16 554 26s608 21 685 25c221 10 410 11 400 1zm-34-62c-14-11-34-19-45-18-40 4-542-11-686-21-222-16-864-30-874-20-15 15 44 18 499 30 611 15 945 28 980 39 17 5 57 10 90 10h60zm4219-26c0-5-13-22-28-39-31-36-616-525-648-542-39-21-34 1 8 37 221 189 654 551 660 551 5 0 8-3 8-7zm-9428-211c14-14 25-89 20-135-4-32-9-38-48-53-24-9-46-24-49-33s-41-42-83-73-135-105-206-165c-204-171-216-179-216-149 0 8 36 44 80 80 192 159 288 256 255 256-3 0-85-57-181-126-97-69-178-123-181-120s-3 12 0 19c7 20 212 176 320 244 90 58 123 94 40 44-131-77-190-115-232-150-62-51-132-101-143-101-30 0 9 36 116 108 68 46 132 93 143 105l18 21-25-15c-14-9-56-36-95-61-105-67-185-111-185-100 0 12 111 100 184 147 32 20 104 57 159 81 99 43 147 76 147 101 0 7-3 13-7 13-5 0-62-27-128-61-140-70-305-178-340-223-21-26-27-29-35-16-23 35-10 55 60 100 39 25 101 65 138 89 57 38 117 69 332 174 38 18 123 18 142-1zm2948-149c0-16 11-63 25-106 27-83 29-97 18-97-5 0-53 38-108 85s-104 84-110 84c-14 0 194-198 227-215 27-14 72-77 66-94-2-5-86 63-188 151-101 89-186 157-188 150-2-6 5-22 15-35 26-36 353-316 368-316 7 0 29-13 50-30 34-27 45-30 109-30 68 0 74 2 93 29 42 56 47 53 265-141 112-99 213-187 225-195s66-58 120-110c116-113 378-355 626-576 160-144 192-177 170-177-15 0-350 293-673 588-110 100-146 128-149 115-4-22 36-59 434-406 346-302 385-338 385-361 0-14-3-15-24-4-29 15-180 145-554 476-151 133-279 242-284 242-4 0-8-4-8-8 0-5 111-105 246-223 423-367 634-561 634-581 0-17-18-6-85 53-145 127-413 357-505 432-52 44-122 103-155 133-96 87-196 167-201 161-5-5 134-135 286-268 112-98 427-370 504-435 112-95 164-149 170-176 4-16 2-28-3-28-6 0-45 31-88 70-43 38-197 171-343 296-273 233-596 516-729 638-93 86-325 287-393 341-28 22-89 76-137 120-262 242-514 454-541 456-10 0-8 3 5 9 11 5 111 9 223 9l202 1zm-537-36c26-21 47-44 47-51 0-8-33-21-82-34-149-38-331-81-433-102-55-12-180-41-277-66-97-24-184-44-192-44-13 0-16 14-16 78-1 42-5 97-10 122-11 57 6 86 57 99 32 8 233 23 478 35 33 2 132 2 221 2l161-1zm-1920 17c-7-18-94-86-101-79-8 8 80 95 95 95 7 0 10-7 6-16zm57-8c0-9-95-102-127-123-52-35-40-3 15 39 26 20 58 48 71 62 22 23 41 33 41 22zm700-32c27-14 42-15 89-7 31 6 57 10 58 9s-3-21-9-44c-10-41-15-45-87-81-180-90-452-213-457-208-4 3 0 30 7 59 11 47 15 140 7 192-3 16 17 23 162 56 195 45 188 44 230 24zm2275-40c15-19 24-38 20-42-7-8-65 53-65 68 0 20 18 9 45-26zm422-87c271-249 615-567 812-752 117-110 219-204 227-208 17-10 19-37 3-37-7 0-96 82-198 183-102 100-243 234-312 297-253 231-595 549-628 584-69 71-14 33 96-67zm-3397 54c0-21-163-151-175-139-12 11 8 35 60 72 31 22 63 48 72 58 17 19 43 24 43 9zm70-14c0-8-22-33-50-56-63-53-66-34-3 25 51 49 53 50 53 31zm3049-261c113-112 341-329 506-482s367-341 449-417c140-131 188-168 202-154 3 3 2 12-3 19-7 13-198 194-398 378-168 155-288 270-281 270 8 0 78-59 276-230 172-148 336-287 395-335 33-26 62-49 64-51s-3-21-12-41c-9-21-21-51-27-66l-10-28-113 104c-61 57-181 169-266 248-152 143-254 237-671 618-342 313-354 324-346 349 4 12 12 22 18 22s104-92 217-204zm-4084 124c-24-26-159-130-169-130-18 0 5 23 84 84 86 65 119 83 85 46zm3905-72c37-35 130-121 206-192 77-72 227-211 334-310 107-100 237-221 290-271 52-49 171-159 263-244 127-116 167-159 165-174-2-11-8-22-15-24-7-3-79 60-160 139-82 79-222 211-313 293-90 83-215 197-278 255-115 107-145 134-428 389-87 79-161 150-162 158-5 20 5 43 19 43 6 0 41-28 79-62zm689-202c455-426 761-719 761-730 0-6-4-18-10-26-7-12-17-7-54 25-166 147-781 673-923 790-23 19-37 59-48 133-11 77-14 79 274-192zm-4104-146c-8-14-95-72-95-64 0 7 44 43 74 61 26 15 29 16 21 3zm-135-36c-20-23-100-67-108-59-4 4-2 10 4 12s31 17 55 33c49 32 68 38 49 14zm8504-91 346-6-2-156-3-156-180-6c-99-4-505-7-902-8-524-1-735-4-767-13-34-9-51-9-70 0l-26 12v154c0 85 3 161 6 170 6 14 70 16 628 16 343 0 779-3 970-7zm-2600-38c-1-16-5-214-9-440-4-225-12-415-17-422-5-6-10-209-11-465l-2-453h-750l-12 70c-6 39-21 131-32 205-12 74-27 171-35 215-7 44-19 121-26 170-6 50-20 137-31 195-10 58-23 134-29 170l-11 65 136 274c74 150 138 285 142 300 3 14 12 33 20 41s25 33 36 55l22 39 259 3c143 2 262 6 265 9 3 2 23 4 46 2 38-3 40-5 39-33zm74-122c-1-16 2-36 6-45 6-13 4-18-7-18-23 0-39 65-20 83 14 14 22 6 21-20zm132 20c0-10-32-43-42-43-13 0-9 38 5 43 18 8 37 8 37 0zm240-40c0-10-4-24-9-31-6-10-10-10-20 2-6 8-24 17-38 21-21 5-24 8-12 16 7 5 29 9 47 9 24 0 32-4 32-17zm-210-12c0-4 11-6 25-3 16 3 27-1 31-11 3-9 12-13 19-10 8 2 30 0 48-6 34-11 34-13 30-59-6-66-13-82-23-57-9 21-11 13-14-65-1-26-21-31-58-15-13 5-18 3-18-7 0-28-90-52-105-28-3 5-12 7-20 3-10-3-15 1-15 15 0 11 7 22 15 26 9 3 15 18 15 34 0 40 25 60 52 43 15-9 23-10 31-2 18 18 37 13 37-9 0-26 17-26 25 1 11 33-9 42-99 48-83 6-115 18-102 40 4 6 16 11 26 11s29 13 42 29c21 28 58 42 58 22zm3436-32c3-6 2-14-2-18-5-5-93-6-197-3-158 4-186 7-176 18 15 18 364 21 375 3zm-5302-443c472-410 546-475 546-487 0-6-5-9-11-7-37 12-847 725-964 849l-50 52 79-64c43-35 223-189 400-343zm4824 367c-4-20-27-27-47-14-19 12-4 31 25 31 19 0 25-5 22-17zm502 5c-25-5-53-14-62-19-22-11-388-12-407 0-7 5-10 14-7 20 5 8 85 11 264 10 191-1 245-4 212-11zm200-8c0-17-7-20-39-20-21 0-44 6-51 14-6 8-21 17-33 19s11 5 51 6c66 1 72-1 72-19zm-3350-101c-5-26-5-62 0-85 5-21 9-66 9-99l-2-60-11 78c-6 45-15 75-20 70-10-9-2 132 10 161 7 19 8 19 15-1 4-11 3-40-1-64zm2650 31c0-6-7-13-15-16-20-8-48 3-40 16s55 13 55 0zm700-9c0-17-9-20-72-23-83-5-551 10-586 17-13 3-20 10-17 15 4 6 135 10 341 10 323 0 334-1 334-19zm-3097-5c3-8 2-30-4-48-5-18-9-45-9-60 0-16-4-28-10-28-11 0-13 91-4 128 7 25 19 29 27 8zm-363-14c0-4-5-13-11-19-8-8-8-17 0-31 12-23 1-36-41-46-16-3-39-9-53-12-18-5-27-2-31 10-8 22 10 42 44 49 15 3 38 17 52 30 26 26 40 33 40 19zm2504-8c3-9 6-75 6-149 0-111-3-135-17-146-13-12-182-15-980-18l-963-3v98c0 55 3 129 7 167l6 67h967c873 0 968-2 974-16zm-2214-64c14-33 9-46-14-37-9 4-14 18-14 36 1 39 12 39 28 1zm3170 7c0-14-11-32-28-44-26-19-46-21-292-27-146-3-317-2-380 2-109 7-115 8-118 29-2 12 1 30 7 40 8 16 10 15 21-8l12-26 256-6c387-10 468-9 481 6 6 8 8 16 5 19-3 4-103 4-222 1-229-6-492 3-492 17 0 15 47 17 403 19l347 1zm-3786-84c2-52 0-61-28-90-37-41-46-41-46-2 0 21 9 40 25 55 17 16 25 34 25 57 0 32 8 52 18 43 2-3 5-31 6-63zm622-27c-3-14-13-26-21-26-18 0-19 11-3 45 14 32 33 17 24-19zm-46-80c0-13-7-29-15-36-12-10-15-9-15 8 0 27 10 52 21 52 5 0 9-11 9-24zm4514-291c55-8 111-15 126-15 20 0 29-6 33-22 11-42-6-48-149-48-110 0-135 3-149 16-26 26-5 83 30 84 6 0 55-7 109-15zm-732-316c-1-173-5-374-8-446-6-129-17-166-29-100-9 48-1 840 8 855 5 7 14 11 20 9 9-3 11-87 9-318zm70-136c-3-354-7-443-17-443-8 0-15 6-18 13-3 6-2 206 1 442 5 408 9 465 33 437 3-4 4-206 1-449zm83 447c7-11-13-878-20-891-3-4-12-6-19-3-11 4-13 79-9 412 4 443 7 492 28 492 8 0 17-4 20-10zm74-12c4-13 5-214 2-448-6-394-7-425-23-428-17-3-18 20-18 386 0 390 5 512 22 512 5 0 12-10 17-22zm71-415c0-257-4-444-10-453-7-11-12-12-21-3-13 13-9 859 4 881 5 6 12 12 18 12 5 0 9-171 9-437zm230-38c0-261-4-475-8-475-28 0-32 62-32 490 0 408 1 440 18 449 9 6 18 11 20 11 1 0 2-214 2-475zm-4684 457c7-4 14-18 17-32l4-25 2 26c1 20 8 29 27 33 15 4 30 3 35-1 4-4 3-44-1-88-5-44-9-106-9-137-1-61-5-66-33-44-15 11-18 31-20 107-1 52-3 76-5 54-1-22-6-64-9-93l-6-53-41 3-42 3-3 63c-2 49 0 64 13 68 8 4 20 16 26 27 10 17 9 19-7 13-32-12-47 40-18 68 16 17 51 21 70 8zm462-11c3-8 0-11-5-8-6 4-21-5-33-18-26-27-49-32-68-13-18 18-14 38 11 48 31 13 90 8 95-9zm699 5c3-2 1-200-4-438l-8-433h-460l-6 423c-6 410-12 486-36 421-4-13-7-205-5-425 3-275 0-404-7-408-6-4-20-2-31 4-20 10-20 19-20 435v424l83 4c103 5 487 0 494-7zm2421-408c2-390 10-503 26-357 3 34 6 213 6 398s3 346 6 359c6 21 10 22 125 22 78 0 120-4 125-11 11-18 4-788-7-835l-10-41-637 5c-455 3-639 8-644 16-9 13-10 775-2 829l7 37 501-2 501-3zm493 27c-2-214-7-412-10-440l-6-50-57-3c-50-3-58-1-59 15 0 18 0 865 1 871 0 2 30 2 68 0l67-3zm441-27c3-281 1-431-6-448-17-40-23 84-25 460-1 323 3 410 19 410 4 0 10-190 12-422zm-4741 290c-2-85 1-118 9-118s11 21 8 68l-3 67 50-3c28-2 53-7 57-10 7-7-5-118-13-126-2-2-39-7-81-11l-78-7v94c0 133 8 170 33 166 20-3 21-9 18-120zm127 90c-3-31-5-33-42-33-42 0-64 20-53 49 5 12 19 16 52 16 46 0 46 0 43-32zm272-3c0-19 4-35 8-35s6 16 4 35l-4 35h145l-6-37c-15-98-19-183-9-183 13 0 18 19 27 93 6 54 16 70 30 46 4-5 18-14 31-19 27-11 29-34 18-173-7-80-17-92-54-67-13 9-13 12 4 25s17 15 2 37c-9 12-17 38-17 58-1 19-3 26-6 15-2-11-6-30-9-42-5-27-30-30-56-6-36 32-19-9 18-44 20-19 35-35 33-37s-21-11-41-19c-48-20-49-37-3-37 49 0 45-22-7-40-49-18-79-62-87-130-5-39-9-45-31-48l-25-3v306c0 284 1 305 18 305 13 0 17-8 17-35zm350-279c0-183-4-326-10-341l-10-26-115 2c-99 2-117 4-132 21-32 35 0 46 127 42 64-2 110 1 110 7 0 5-7 10-15 10-8 1-21 2-27 3-14 1-23 57-14 91 4 14 18 27 37 34 35 12 34 33-2 41-34 8-37 38-5 46 30 7 35 34 8 34-28 0-34 11-15 26 15 10 19 37 24 165 4 85 7 155 8 157 0 1 8 2 16 2 13 0 15-42 15-314zm1974-113c-3-236-9-431-13-435-3-4-289-8-636-10l-630-3 3 25c2 14 3 206 2 428-1 221 2 407 5 412 4 6 232 10 641 10h635zm2076-13c0-287-3-440-10-440s-10 153-10 440 3 440 10 440 10-153 10-440zm-4116 255c-4-55-10-82-15-72-11 20 1 181 13 169 5-5 6-47 2-97zm4587-335c8-451 12-426-75-415-28 3-53 8-58 11-4 3-8 180-8 393v388l53 10c28 6 59 10 67 9 13-1 16-56 21-396zm-189-7c-1-208-4-384-7-390-5-15-63-17-85-3-13 8-15 62-18 367-2 196-1 367 3 380 5 20 11 23 58 23h52zm-4857 213c14-10 25-11 41-4 31 14 70-17 79-60 7-39-4-142-15-142-5 0-11 14-15 30-4 17-12 30-20 30-7 0-19 10-27 21-11 18-28 23-96 29-45 4-85 10-89 14-16 16 14 19 95 9 48-6 91-7 96-3 19 18-9 30-72 30-37 0-94 5-127 10s-69 11-80 12c-11 2-21-4-23-14-2-12 7-18 37-23 23-4 41-10 41-15 0-10-36-20-72-20-27 0-28 2-28 48 0 27 3 52 7 55 3 4 61 7 128 7 87 0 126-4 140-14zm411-87c10-18-13-32-40-25-37 9-34 36 3 36 17 0 33-5 37-11zm-526-111c0-20-4-39-9-42-9-6-22 84-14 98 9 15 23-18 23-56zm118-68c-2-111-12-140-24-74-11 61 3 184 22 184 2 0 3-49 2-110zm315 103c2-5 1-30-2-58-5-40-10-51-26-53-18-2-22 5-31 53-5 31-8 58-5 60 7 8 59 6 64-2zm93-7s-2-25-4-54c-4-57-15-68-55-58-23 5-23 7-14 66l10 61 31-7c17-3 31-7 32-8zm-666-67c0-44-4-68-10-64-5 3-10 35-10 71s4 64 10 64 10-30 10-71zm450-103c0-37-12-46-61-46h-48l10 30c10 27 15 30 55 30 31 0 44-4 44-14zm-447-43c-2-20 4-21 206-25 156-2 212-7 225-17 11-9 16-30 16-67v-54h-470v96c0 72 3 95 13 91 6-2 11-13 10-24zm559-55c4-46 28-49 28-4 0 32 3 36 25 36s25-4 25-36c0-44 19-42 39 4 12 27 20 32 47 32 61 0 85-70 39-115-23-24-30-25-142-25-129 0-163 10-125 37 15 10 22 26 22 47 0 55 37 76 42 24zm-190-232c517-10 3220-23 3803-19 514 4 655-1 655-22 0-11-461-12-2337-8-1286 3-2345 9-2354 14s-20 4-26-2c-5-5-47-9-94-7-77 3-84 5-81 22 2 11 11 29 20 42 16 21 18 21 34 4 15-16 51-18 380-24zm-717-128c-4-13-13-32-20-43-6-11-21-41-33-67-19-44-19-48-4-48 13 0 29 26 56 85 21 47 43 88 47 91 25 15 25-13 0-69-16-34-32-73-36-86-7-23-6-23 29-17 23 4 36 3 36-4 0-5 6-10 13-10s28 37 47 83c41 100 46 107 77 107 30 0 29-2-31-100-25-41-46-82-46-92 0-9-8-22-18-27-25-13-252-26-252-14 0 11 97 202 112 221 17 20 30 14 23-10zm110-58c-9-28-21-50-26-50-15 0-10 28 13 83 28 64 37 39 13-33zm2266-65c31-20-21-25-293-29-167-3-352-8-413-11-60-4-243-1-405 5s-391 14-508 17-209 10-205 14c5 5 126 10 268 11 401 5 1545-1 1556-7zm2369-35c0-16-56-19-541-26-569-7-959 2-959 22 0 12 123 14 750 14 470 0 750-4 750-10zm-4320-131c0-88-8-117-24-90-9 14 6 201 15 195 5-3 9-50 9-105zm4574 95c13-5 16-24 16-107 0-79 3-104 17-119 38-43 53-10 53 121 0 90 13 117 52 108 33-9 37-29 30-173l-5-116-116 7c-64 4-117 8-118 9s0 64 4 139c6 134 7 137 29 137 12 0 29-3 38-6zm-2524-23c0-21-32-25-210-23-102 0-233 1-292 2-74 0-108 4-108 11 0 9 22 10 75 6 42-3 77-1 80 4 8 12 455 12 455 0zm-2464-66c8-20-38-99-60-103-16-3-18 0-12 19 4 13 10 35 13 49 9 41 48 64 59 35zm79-22c-12-51-30-78-53-81-26-4-28 8-6 51 23 44 34 57 51 57 12 0 13-7 8-27zm774 11c17-4 31-13 31-20 0-11-34-14-180-14-173 0-180 1-180 20s7 20 149 20c82 0 163-3 180-6zm1516-24c-3-5-42-10-86-10-46 0-79 4-79 10s35 10 86 10c54 0 83-4 79-10zm-475-10c-136-7-163-14-158-39 3-14 25-16 177-18 95-1 175-4 179-7 3-3-216-6-486-6-478 0-536 4-469 29 20 8 20 10 4 16-10 4-45 5-78 2-59-5-86 6-58 24 8 5 239 8 514 7 306-1 451-4 375-8zm2803-16c18-4 27-13 27-27 0-19-4-20-257-13-142 3-403 9-581 12-177 4-325 11-328 15-19 31 11 32 560 25 303-3 563-9 579-12zm-2143-54c0-6-76-10-209-10-129 0-212 4-216 10-4 7 68 10 209 10 137 0 216-4 216-10zm-1263-93c3-4 4-9 2-11-9-8-259 7-259 17 0 11 246 5 257-6zm-1208-15c6-10 8-28 5-39-3-12-1-30 5-42 12-21 11-21-146-21-137 1-156 2-140 15 12 8 17 20 13 32-7 22 26 58 59 66 11 3 59 5 107 6 75 1 89-2 97-17zm297 4c1 0-6-24-14-53l-16-52-75-3c-75-4-77-3-113 31-39 36-54 64-44 80 4 7 256 4 262-3zm522 2c-5-15-88-24-88-9 0 13 18 19 58 20 23 1 32-3 30-11zm1281 1c-17-6-45-6-75-1-49 10-49 10 26 10 59 0 70-2 49-9zm-1559-9c0-6-7-27-15-47-12-28-13-38-3-44 21-13-37-21-121-18-44 2-82 7-85 10-4 3 0 19 9 35 8 16 15 39 15 52 0 21 3 22 100 22 62 0 100-4 100-10zm180 0c0-5-9-10-20-10s-20-3-20-8c0-9 928-8 995 2 32 5 45 4 36-2-8-6-10-15-5-23s7-21 6-31c-2-11 7-18 28-23 28-6 29-8 16-26-13-20-26-20-463-19-300 0-459-3-480-10-27-10-40-7-97 19-36 17-72 31-81 31s-24 13-33 30c-9 16-22 30-28 30-7 0-9 10-6 25 4 24 7 25 78 25 43 0 74-4 74-10zm1485-120c-3-5-24-10-45-10s-42 5-45 10c-4 6 13 10 45 10s49-4 45-10zm243 3c61-3 112-9 112-13 0-11-313 0-324 11-12 11 55 11 212 2zm487-13c19-5-22-8-107-9-86-1-138 3-138 9 0 12 199 12 245 0zm390-10c4-6-43-10-134-10-82 0-142 4-146 10s43 10 134 10c82 0 142-4 146-10zm-777-29c25-15-26-20-150-14-65 3-121 10-124 15-7 11 257 10 274-1zm-718-85c23-45 30-74 28-102l-3-39-215-6c-118-4-330-8-470-9l-255-3-3 27c-2 16-19 64-38 109-18 44-31 83-28 86 9 9 917 17 936 8 9-4 31-36 48-71zm1130 69c0-12-18-15-104-15-57 0-124 3-150 6-91 13-43 24 104 24 127 0 150-2 150-15zm318 5c26 0 10-20-25-29-57-16-145-14-171 5-38 26-16 33 86 29 53-2 103-4 110-5zm-2778-40c0-6-27-10-60-10s-60 4-60 10 27 10 60 10 60-4 60-10zm2836-25c14-11 15-14 4-15-28 0-60 12-54 21 8 13 28 11 50-6zm-1163-30c20-8 56-15 81-15s48-5 52-12c10-15-131-4-168 14-56 27-25 38 35 13zm-3523-15c0-5-17-10-37-10-21 0-80-9-132-20-95-20-128-20-75 1 81 31 244 51 244 29zm4485-20c8-13-195-13-215 0-10 7 21 10 97 10 64 0 114-4 118-10zm-3185-20c6-11 19-20 30-20 10 0 22-4 25-10 3-5 3-10-2-10-4 0-18-3-30-6-17-5-23-2-23 11 0 9-6 15-12 13-8-3-14-26-16-53-4-53-26-89-70-112-39-21-512-8-512 13 0 30 52 36 268 31 116-2 212-1 212 3s-7 21-16 39c-14 28-14 34-2 49 8 9 18 25 21 35 14 38 109 51 127 17zm-995-5c0-12-50-19-71-11-9 3-12 11-9 16 8 14 80 9 80-5zm825 6c0-19-23-23-88-16-49 6-62 10-47 16 28 11 135 11 135 0zm2894-7c9-3 16-15 16-25 0-17-8-19-60-19-33 0-60 2-60 5 0 5 71 44 82 45 3 0 13-3 22-6zm490-30c41-16 5-24-106-24-75 0-118 4-112 9 16 16 185 27 218 15zm-2889-30c0-13-8-20-27-22-32-4-39 21-10 37 23 14 37 8 37-15zm105 12c0-18-15-36-31-36-22 0-24 11-7 28 11 11 38 17 38 8zm2920-21c51-13 99-50 84-64-3-3-11 2-18 12-19 25-121 25-135 0-8-16-31-19-173-23-174-6-212-1-206 28 4 20 10 20 172 2 119-14 119-14 134 8 8 12 21 22 28 22 8 0 14 7 14 15 0 19 29 19 100 0zm-3227-5c51 0 68-3 64-12-5-15-132-19-159-6-26 13-22 31 5 24 12-3 53-6 90-6zm2201-19c16-17 14-18-37-25-39-4-63-2-84 9-16 8-61 19-99 24-65 8-61 9 67 10 121 1 138-1 153-18zm366-26c0-24-3-25-52-25-47 0-90 13-78 22 19 14 61 27 93 27 33 1 37-2 37-24zm-764-11c9-37-2-130-24-194-33-96-26-94-380-102-169-4-360-8-425-10l-119-3 6 30c28 141 30 171 13 223-9 28-17 55-17 61 0 10 68 12 712 19l228 2zm1564-85c0-5-4-9-9-9-17 0-41 31-41 53 1 21 2 21 25-6 14-15 25-32 25-38zm-2635 26c44-10 86-19 94-21 10-3 12-17 6-62-4-31-11-65-17-75-9-17-11-17-31-3-53 39-77 47-98 35-30-16-36-3-11 24 23 24 29 61 12 72-5 3-17-6-26-20l-17-26-13 38c-15 41-11 68 9 60 6-2 48-12 92-22zm1492-7c-3-29-15-38-54-38-32 0-51 14-34 25 6 3 8 12 4 20-4 12 5 15 41 15 42 0 46-2 43-22zm1053-28c0-13-80-13-100 0-11 7 2 10 43 10 31 0 57-4 57-10zm-942-59c4-11-14-13-104-7-205 14-232 24-60 22 126-1 160-4 164-15zm963 2c13-13 21-13-176-12-66 0-122 3-125 5-2 3 2 9 10 15 21 14 276 7 291-8zm-551-3c-8-5-76-9-150-9-85 0-128 4-115 9 29 12 284 12 265 0zm680-30c25-49 10-53-19-6-23 37-26 46-11 46 5 0 19-18 30-40zm-4822-21c-2-6-19-17-38-25l-34-15 24 26c24 25 55 34 48 14zm3737-30c4-6 4-13 1-16-7-8-432-5-474 3-24 5-30 9-20 15 20 13 485 11 493-2zm1211-31c-1-21 4-23 74-28 53-4 70-8 57-14-17-8-195-1-204 8-2 2 2 15 8 30 16 35 66 38 65 4zm-1502-39c5-5-42-6-106-2l-116 6-26-28c-18-19-31-25-43-20-16 6-13 11 17 36l35 30 115-7c63-3 119-10 124-15zm1298-4c6-14 8-28 4-33-10-9-48 37-40 49 10 16 24 10 36-16zm834 17c17-10-17-94-61-154-40-55-66-60-148-31-40 14-51 15-68 5-16-10-28-10-54-2-24 8-45 8-71 1-20-5-49-7-65-4-19 3-33 0-44-11-22-21-54-20-79 3-12 10-42 21-69 25-40 5-50 2-64-14-20-23-65-26-82-6-9 11-8 18 5 30 15 15 51 17 359 14 189-2 347 1 351 5 22 21-44 27-335 27-281 0-313 2-307 16 3 9 6 22 6 30 0 12 55 14 350 14 290 0 350 2 350 14 0 20-52 26-260 28l-185 2 185 6c102 3 205 7 230 8s50-2 56-6zm-982-74c22-31 20-38-9-38-30 0-55 38-34 51s26 11 43-13zm-94-14c0-24-3-26-27-19-16 3-44 9-63 11-85 12-63 31 38 33 50 1 52 0 52-25zm208 4c18-18 15-28-8-28-13 0-20 7-20 20 0 23 10 26 28 8zm-943-18c4-6-13-10-44-10-27 0-53 5-56 10-4 6 13 10 44 10 27 0 53-4 56-10zm-5681-10c-45-18-30-25 49-23l82 1-85-10c-54-6-91-6-100 0-9 5-30 13-48 16-62 14-43 26 40 25 57 0 76-3 62-9zm616-11c9-5-23-9-81-9-53 0-136-3-185-6-79-6-92-4-113 13l-25 20 195-5c107-2 201-8 209-13zm330-29c0-6-40-9-102-8-93 1-97 2-43 8 97 11 145 11 145 0zm3968-7c32-3 51-10 49-17-4-12-820-22-867-10-24 5-24 6-6 20 16 11 87 14 395 14 207 0 400-3 429-7zm1525 0c4-3 2-12-4-20-20-23-139-12-139 13 0 11 17 14 68 14 38 0 72-3 75-7zm-5620-38c-3-14-29-18-69-10-54 10-40 26 19 23 28-2 51-7 50-13zm645 2c6-5 12-13 12-18 0-13-20-10-65 11l-40 18 40-1c22 0 46-5 53-10zm1036-13c72-6 82-10 107-37l28-31 10 27c11 29 24 32 105 21 38-6 50-12 62-36 17-33 18-32-69-47-73-13-145-4-157 20-16 30-68 34-102 9-28-20-31-21-54-5-14 9-29 27-34 40s-19 25-31 27-24 9-27 17c-4 11 5 12 39 8 24-3 80-9 123-13zm2412-5c12-20-48-57-101-63-27-3-219-7-425-8-305-2-380 0-399 11l-25 14 23 18c20 17 43 19 209 19 103 0 239 4 302 8 177 14 408 14 416 1zm-3854-31c10-15 25-22 46-23 18 0 32-4 32-10s-22-9-53-7c-49 3-87 26-87 53 0 19 48 8 62-13zm6832 13c18-7 18-8 2-14-21-8-135 3-142 14-6 11 113 11 140 0zm676-15c77-11 90-14 66-21-43-12-226 1-266 18l-35 15 70 1c39 0 113-6 165-13zm-5512-20c27-26 7-46-45-46-80 0-123 11-123 29 0 9-6 23-12 30-19 20 160 7 180-13zm3617 6 40-7-31-13c-26-11-40-11-75-1-24 7-48 16-53 21-12 10 63 10 119 0zm-1237-18c22-7 4-22-48-39-54-18-94-8-84 20 4 9 0 15-7 16-8 0-5 4 6 9 18 8 101 4 133-6zm177 2c41-18 74-70 49-80-28-11-62-6-68 9-3 8-15 15-26 15-13 0-20 7-20 20 0 11 5 20 10 20 6 0 10 7 10 15 0 18 2 18 45 1zm-3455-32c12-12 10-14-19-14-36 0-71 15-71 31 0 15 71 2 90-17zm2624-30c9-3 16-10 16-15 0-10-140-12-166-2-16 6-16 7 2 14 23 9 126 11 148 3z"/>
   <path d="m2700 6214c0-9 45-61 100-115 57-57 100-107 100-118 0-16 271-358 409-517 20-23 63-74 96-113s66-71 73-71c19 0 14 12-21 50-19 19-81 94-139 165-57 72-179 222-269 334s-173 215-184 230c-51 70-141 171-152 171-7 0-13-7-13-16z"/>
   <path d="m3356 5512c-8-13 88-134 162-205 60-58 59-29-2 44-98 119-152 173-160 161z"/>
   <path d="m4415 5783c-37-11-54-12-67-4-14 9-45 3-144-30-69-22-133-38-141-35-17 7-63-18-63-34 0-6 9-6 23-1 29 11 128 40 147 43 9 2 14-4 12-14-4-24 2-23 83 11 83 35 152 50 140 32-4-7-26-21-50-31s-46-23-49-29c-10-15-6-14 55 13 71 31 99 39 99 29 0-5-12-16-27-25l-28-17 24-1c13 0 39 11 57 25s43 29 56 35c20 7 17 9-19 9-36 1-43 4-43 21 0 23 0 23-65 3z"/>
   <path d="m4675 5731c-3-5-41-21-85-36s-78-31-75-36c4-5 22-2 42 6 19 8 50 15 67 15l31-1-27-17c-16-9-28-22-28-29 0-17-2-17 65 12 31 14 76 28 100 32 38 5 43 3 42-13-2-14 5-19 23-20 14 0 31-3 37-7 16-10 243 4 243 15 0 4-26 8-57 8-32 0-89 3-127 7-61 5-67 8-51 19 29 22 13 25-62 14-81-13-135-1-113 25 10 12 10 15-3 15-9 0-18-4-22-9z"/>
   <path d="m5478 5653c-21-5-24-19-5-25 12-5 77 18 77 27 0 6-47 5-72-2z"/>
   <path d="m5590 5610c-65-16-70-18-35-19 30-1 36-4 27-13-33-33 0-36 101-9 37 9 67 16 67 14 0-3-5-13-10-24-15-27 7-25 61 6 57 32 68 32 38-2-14-15-18-24-9-21 87 30 123 39 142 36 21-3 21-5-9-21-33-18-44-37-20-37 6 1 23 7 37 15 33 19 71 19 119-1 37-14 44-14 137 12 96 26 160 51 152 60-3 2-51-10-108-27-98-29-107-30-164-19-34 7-70 18-81 25s-54 14-95 17-76 11-78 17c-5 16-31 14-93-7-30-11-67-22-84-26l-30-7 60 50-25-1c-14 0-59-9-100-18z"/>
   <path d="m6320 5528c0-22-3-24-32-20-28 4-31 2-20-9 10-11 47-14 160-12 146 1 146 1 122-18l-25-19 35 1c33 0 89 17 63 18-7 1-13 5-13 11 0 5 23 12 50 16 74 10 63 28-12 20-171-16-258-18-258-7 0 6 10 11 23 11s32 7 43 15c18 13 18 14 1 15-10 0-38-5-63-11-34-9-47-9-59 1-13 10-15 9-15-12z"/>
   <path d="m6760 5489c-86-18-92-20-86-26 3-4-10-16-31-27-74-42-37-65 42-26 22 11 32 18 22 15-11-3-31-8-45-11-26-5-26-5-8 10 24 20 120 56 146 56 11 0 20 5 20 10 0 11 2 11-60-1z"/>
   <path d="m6893 5488c-23-6-31-13-27-23 8-20 17-19 45 4 30 24 24 31-18 19z"/>
   <path d="m7004 5470c-39-17-103-84-92-96 3-2 18 1 34 7s23 13 17 16c-24 9-13 20 47 52 82 44 78 59-6 21z"/>
   <path d="m7087 5441c-50-10-62-25-14-18 40 6 51-7 15-17-29-8-63-34-55-42 3-3 30 5 59 19 29 13 63 28 76 31 38 12 24-8-19-26-51-22-43-37 16-30 37 4 48 1 60-14 12-17 27-19 133-19 66 0 118-3 116-7-9-14 7-30 19-19 21 16 52 17 52 1 1-19 64-16 109 6l31 14-42-5c-49-6-60 12-13 21 33 7 57 29 41 38-5 3-16-1-25-9-18-18-106-37-106-23 0 5 14 14 30 19 17 6 30 15 30 21 0 5-6 7-12 4-7-2-44-15-82-27-61-19-76-21-113-11-24 7-62 12-86 12-57 0-117 11-117 21 0 4 13 16 29 25 33 19 32 34-2 34-12 0-38 2-57 4-19 3-52 1-73-3z"/>
   <path d="m6740 5429c0-17 49-21 70-6s20 15-24 15c-25 0-46-4-46-9z"/>
   <path d="m7760 5346c-33-7-39-11-22-14 12-2 22-7 22-10 0-4-25-22-56-41-62-37-66-51-9-27 21 9 42 16 47 16 14 0-25-49-39-50-17 0-16-15 2-30 9-8 29-10 49-7 33 5 35 3 91-80 32-46 65-92 74-100 8-9 17-31 18-48 2-31 0-33-55-48-31-8-74-19-94-22-21-4-38-12-38-17 0-13 45-5 157 28 79 23 110 24 98 4-3-5-33-14-66-21-33-6-62-16-65-20-7-11 11-11 61 1 127 31 184 39 227 34 43-6 48-4 58 17 8 18 30 30 83 47 40 12 82 22 95 22 23 0 30 15 10 23-12 3 61 47 78 47 4 0-5-14-22-31-36-38-13-31 64 19 58 39 80 37 36-2-16-14-24-26-17-26 6 0 15 5 18 10 10 15 25 12 25-6 0-13 5-13 33 4 17 11 59 30 92 42 33 13 64 26 70 31 12 12 45 12 45 0 0-16-25-29-79-43-65-17-87-45-25-33 22 4 62 9 89 10 30 0 67 10 92 23 44 23 93 29 93 12 0-5-16-24-35-41-38-35-44-49-20-49 8 0 28 21 46 48 17 26 45 59 62 73 29 25 30 27 10 33-11 4-40 0-64-8-28-10-47-12-53-6s-18 10-27 10c-13 0-16 6-12 21 5 19 3 21-20 17-19-4-27-1-27 8 0 20-14 17-71-12-61-31-114-27-103 8 7 23 3 22-60-24-21-15-48-28-58-28s-38-10-60-21c-28-14-43-18-46-10-6 19-20 12-24-11-2-17-22-33-78-61-41-20-83-35-92-33-10 2-22-2-29-10-6-7-26-16-45-20-28-5-42-1-74 21-48 33-220 209-221 227-1 7-2 29-3 48-1 27-7 37-29 48-16 8-36 11-45 7-15-6-15-8 2-21 29-20-3-19-33 2l-23 16 27 28c32 34 24 40-35 26zm135-232c30-45 70-97 89-116 34-33 37-48 10-48-21 0-184 228-184 259 0 24 28-7 85-95zm135-94c46-41 52-50 37-56-21-8-61 26-90 76-25 42-11 37 53-20z"/>
   <path d="m10300 5268c-19-5-39-14-44-19-14-13-44-11-48 3-6 17-88-6-134-37-51-34-61-31-30 9 37 50 32 56-11 14-37-35-129-88-155-88-19-1-64-37-56-46 4-4 32 2 62 13 38 14 56 17 59 9 2-7 28 1 70 22 75 37 77 37 77 17 0-8 1-15 3-15 6 0 179 71 195 80 9 6 29 14 45 20 15 5 27 14 27 20 0 12-13 12-60-2z"/>
   <path d="m10470 5263c-8-2-29-11-47-19-17-8-37-14-44-14-10 0-153-65-168-77-2-2-2-5 1-9 10-9 159 33 171 49 7 8 38 23 69 32 32 10 66 24 75 31 16 12 15 13-12 13-16 0-37-3-45-6z"/>
   <path d="m9737 5208c-7-4-47-8-90-8-96 0-194-26-209-54-6-12-28-43-50-69-22-27-38-51-35-53 3-3 49 20 102 53 134 81 133 81 210 93 70 11 115 7 115-9 0-12-56-25-70-16-11 7-128-23-135-35-3-4 2-13 9-19 11-10 21-9 45 3 19 10 32 12 36 6 10-16 36-12 93 15 37 17 52 30 52 44 0 22 11 27 92 36 32 3 61 11 64 17 7 11-210 8-229-4zm-217-67c0-11-67-44-81-39-5 2-2 13 6 26 16 22 75 32 75 13z"/>
   <path d="m9330 5153c-25-15-58-28-75-29-39-1-180-60-212-89-14-12-24-27-22-33 2-7 39 10 93 43 50 30 92 52 95 50 3-3-14-25-37-48-50-51-58-86-9-40 25 25 35 29 49 20 13-8 30-2 85 33 95 61 133 91 133 102 0 6-10 3-22-6-43-30-118-66-118-56 0 5 22 21 49 35 27 13 52 29 56 35 11 18-19 10-65-17z"/>
   <path d="m7620 5161c0-14 36-41 54-41 15 0 34 26 25 34-10 8-79 14-79 7z"/>
   <path d="m7553 5133c-28-5-30-19-4-26 22-5 54 11 46 24-4 5-9 8-13 8-4-1-17-4-29-6z"/>
   <path d="m7740 5122c0-31 121-144 137-128 3 3-15 24-40 47-32 27-47 49-47 65 0 19-5 24-25 24-14 0-25-3-25-8z"/>
   <path d="m7640 5079c0-19 65-82 79-78 7 3-9 24-34 49-27 27-45 38-45 29z"/>
   <path d="m7700 5060c13-24 47-43 54-31 6 10-39 51-56 51-5 0-4-9 2-20z"/>
   <path d="m9592 4967c-24-25-29-51-10-45 16 6 53 68 41 68-5 0-19-10-31-23z"/>
   <path d="m7623 4860c-13-5-23-14-23-20 0-5-17-17-37-27l-38-17 35-4c44-5 118 6 125 19 4 5-5 9-19 9s-26 4-26 10c0 5 10 9 22 7 14-1 23 4 26 16 4 19-26 22-65 7z"/>
   <path d="m9463 4833c-22-15-32-43-15-43 5 0 18 10 30 23 35 38 26 49-15 20z"/>
   <path d="m8860 4800c-17-17-20-25-11-28 17-6 45 22 39 39-3 9-11 6-28-11z"/>
   <path d="m8915 4746c-26-21-28-25-12-31 20-8 43 7 50 35 7 26-2 25-38-4z"/>
   <path d="m2290 5881c-52-11-104-41-92-53 7-7 17-6 32 2 17 9 24 9 33-4 11-14 17-14 62 0 43 14 73 25 108 42 4 2 7 0 7-5 0-4-18-16-40-25s-40-21-40-27c0-15 8-14 76 9 32 11 68 20 78 20 18 0 19-1 1-20-25-28-15-33 29-15 21 9 50 15 65 13 24-4 22-6-20-25-47-22-71-43-47-43 7 1 24 7 38 15 38 22 106 18 151-7 31-17 42-19 52-9 9 10 8 15-7 27-11 8-29 14-40 14-29 0-52 15-37 24 24 15 8 26-39 26-40 0-50 3-50 16 0 14-8 16-47 11-35-4-50-1-58 10-9 13-18 13-72 0-52-12-63-12-67-1-6 15-21 16-76 5z"/>
   <path d="m10715 5133c-176-141-439-356-584-477-146-122-296-247-335-279-107-88-146-128-146-148 0-13-7-19-22-19-17 0-19-3-10-12 11-11 27 1 127 95 11 11 67 58 125 105 232 190 573 473 701 582s400 339 458 387c14 12 21 22 16 23-6 0-154-116-330-257z"/>
   <path d="m4487 5024c3-126 9-245 14-264 5-21 7 65 6 217-1 181-5 255-14 264s-11-38-6-217z"/>
   <path d="m4642 4938c1-232 3-286 8-208 13 183 14 514 1 518-8 3-11-83-9-310z"/>
   <path d="m4697 5229c-10-35-8-107 2-113 12-8 24 100 13 120-8 14-10 13-15-7z"/>
   <path d="m4395 5203c9-49 24-77 25-47 0 37-12 84-22 84-6 0-7-15-3-37z"/>
   <path d="m4558 5234c-5-4-7-120-7-258l2-251 9 155c9 173 7 366-4 354z"/>
   <path d="m3375 5105c-308-12-767-28-1020-34-623-16-708-22-683-47 8-7 552 8 1123 31 193 8 539 22 770 30 470 17 548 23 540 36-8 12-67 11-730-16z"/>
   <path d="m1372 5068c-17-17-15-74 3-91 44-44 125-23 125 33 0 40-15 45-38 13-24-33-48-26-57 16-8 36-17 45-33 29z"/>
   <path d="m3120 5044c-168-7-530-20-805-28-529-17-615-22-615-38 0-6 58-7 158-4 86 3 256 8 377 11s477 14 790 25c314 10 686 22 828 26 141 3 257 10 257 15 0 13-628 8-990-7z"/>
   <path d="m3845 5010c-55-4-206-8-335-9s-323-5-430-11c-107-5-386-14-620-20-448-11-490-14-490-32 0-8 40-9 138-5 239 12 807 28 1419 41 326 7 596 16 600 20 25 25-73 31-282 16z"/>
   <path d="m4800 4222c0-10 65-75 155-155 85-76 155-144 155-152 0-45-30-24-227 155-58 52-109 95-114 95-28 0 1-33 141-157 144-129 155-141 161-180 7-53 48-91 87-82 37 9 42 13 42 32 0 10 7 28 16 40 26 37 15 74-32 99-22 13-115 90-206 173-92 82-169 150-172 150s-6-8-6-18z"/>
   <path d="m4665 4121c13-22 328-282 337-279s-211 200-296 266c-29 22-52 29-41 13z"/>
   <path d="m6849 3716c-3-3-42-7-87-7l-82-2-45-73c-25-40-61-105-79-146-89-193-155-326-165-332-15-10-14-62 4-187 19-140 38-209 60-225 14-11 65-14 209-14 181 0 194 1 243 25 49 22 59 34 152 174 56 85 102 165 105 184 3 17 8 129 11 247s8 240 11 270 1 60-3 67c-9 12-323 31-334 19zm18-323c16-6 22 25 25 126 2 57 7 86 16 89s12-25 12-117c0-67 4-121 9-121 10 0 21 83 21 168 0 34 4 62 10 62s10-47 10-120c0-66 4-120 8-120 5 0 13 55 18 122 7 90 13 123 23 126 12 4 13-23 8-174-4-111-3-185 3-194 12-18 10-30 19 170 9 210 26 183 26-40 0-99 3-180 6-180 8 0 19 184 19 307 0 92 12 122 24 62 8-40 8-402 0-423-3-9-17-16-31-16-13 0-38-7-55-16-29-15-34-15-58-1-20 12-67 18-176 22-82 4-159 8-171 11-33 6-28 24 6 24 39 0 44 10 20 46-20 30-26 70-10 59 21-12 31 40 33 172 1 129 6 152 31 153 4 0 5-74 1-164-5-116-4-165 4-170 15-9 19 16 27 144 3 58 12 128 20 155l14 50v-72c1-123 25-144 36-30 4 39 12 81 19 92 9 16 12-1 16-89 3-73 9-111 17-113zm-215 75c-4-70-22-121-22-65 0 15-4 27-9 27-10 0-22-108-14-138 8-31-6-94-19-86-7 5-8 34-4 90 5 53 3 85-3 89-10 6 57 153 70 154 4 1 4-32 1-71zm336-395c18-7 31-17 28-21-6-10-299-9-373 2-52 7-63 12-63 28 0 18 7 19 188 12 121-5 199-12 220-21zm102-6c0-19-21-37-42-37-23 0-23 26 0 39 24 14 42 13 42-2zm-70-104c-1-12-26-43-35-43-11 0-45 31-45 42 0 4 18 8 40 8s40-3 40-7zm-167-18c-4-15-56-12-61 3-3 10 5 13 29 10 19-2 33-7 32-13zm-135-85-3-80h-68c-50 0-68 3-65 12 3 7 18 15 35 19 42 8 53 17 53 43 0 37 21 86 37 86 12 0 14-15 11-80zm112 21c0-5-11-11-25-13-20-4-23-3-14 8 13 16 39 19 39 5zm6-71c8 0 14-7 14-15 0-11-12-15-46-15-38 0-45 3-40 16 3 9 6 25 6 36 0 19 0 19 26-1 15-12 33-21 40-21zm-284-1c-4-4-24-10-44-13-30-5-38-4-38 8 0 11 11 14 45 13 24-1 41-5 37-8z"/>
   <path d="m6775 3313c-12-129-11-148 5-148 12 0 16 20 18 108 3 120-13 147-23 40z"/>
   <path d="m10206 2862c-10-17-26-775-16-786 5-4 12-6 18-2 12 7 25 731 14 771-5 19-11 25-16 17z"/>
   <path d="m7785 2850c-4-6-8-34-11-63-18-225-24-339-19-347 15-25 32 14 39 88 7 89 21 219 31 286 7 42 5 46-13 46-12 0-24-5-27-10z"/>
   <path d="m8201 1411c-11-7-10-10 5-15 30-9 214-5 214 5 0 11 10 10-105 15-55 2-106 0-114-5z"/>
   <path d="m8275 990c-12-39 31-62 79-44 13 5 8 12-20 35-44 34-51 35-59 9z"/>
   <path d="m8514 986c-11-28 15-56 50-56s66 23 46 35c-5 3-14 4-19 1s-20 3-34 14c-30 24-36 25-43 6z"/>
   <path d="m8360 705c-8-10-5-18 16-34 31-25 52-15 35 17-14 26-37 34-51 17z"/>
   <path d="m8596 711c-4-5-3-16 0-24 8-21-11-30-26-12-10 12-16 13-26 4-8-6-14-15-14-20 0-17 33-39 59-39 51 0 80 58 44 86-21 16-30 17-37 5z"/>
   <path d="m8300 675c-19-23-5-45 30-45 36 0 38 9 7 39-21 19-25 20-37 6z"/>
   <path d="m595 5954c-117-56-147-58-85-4 25 22 42 40 37 40-4 0-47-22-95-50-56-31-93-59-100-75-14-31-5-32 48-5 47 24 170 69 170 63 0-3-13-18-30-35-54-53-32-67 30-18 40 32 62 38 58 18s25-11 88 27c51 31 84 43 84 31 0-2-34-30-75-61-42-31-73-61-70-66 4-5 21 2 38 15 18 13 59 39 92 57 40 22 54 35 42 37-21 4-22 16-2 32 8 7 15 16 15 21 0 14-63 15-104 2-33-11-37-11-32 2 8 23-11 17-109-31z"/>
   <path d="m970 5993c-33-10-59-27-54-35 4-6-9-25-27-44-31-33-35-60-4-34 8 7 25 10 39 6 18-4 34 3 66 29 57 47 73 44 25-5-21-22-37-42-34-44 3-3 27 6 54 19 28 13 52 22 54 19 3-2-11-20-29-39-40-41-33-56 14-31 19 10 49 21 68 25 20 4 34 14 36 25 3 15 1 16-16 7-38-20-47-11-17 17l30 27-88 6 54 56h-78c-43 0-85-2-93-4z"/>
   <path d="m1740 5789c-19-34 5-99 36-99 47 0 106 75 74 95-14 9-50-13-50-30 0-8-7-15-15-15-11 0-14 9-13 31 4 38-16 49-32 18z"/>
   <path d="m2501 4058c85-212 90-230 94-314 2-46 8-91 12-99 5-8 7 14 5 53-2 37-2 79 0 92 4 25 4 24 27-10 12-19 21-30 19-25-21 63-72 184-76 181-2-3 1-19 7-37s9-34 7-36-25 50-50 116c-26 67-52 123-57 127-5 3 0-19 12-48z"/>
   <path d="m3185 4042c5-42 54-176 61-169 2 2-12 51-31 108-25 71-34 91-30 61z"/>
   <path d="m2451 4039c-1-27 38-153 45-146 3 2-7 42-20 88-14 46-25 72-25 58z"/>
   <path d="m3270 4006c0-17 98-275 122-319 23-43 16-5-11 60-16 39-46 116-66 172-36 98-45 115-45 87z"/>
   <path d="m294 3956c5-19 3-26-8-26s-12-9-6-42c31-166 34-268 15-483l-5-50 17 50 16 50 28-60-5 35c-3 19-10 123-15 230-13 239-20 308-33 317-7 4-9-3-4-21z"/>
   <path d="m3347 3909c13-35 36-89 50-119 15-30 34-77 44-105 13-36 18-43 19-25 0 14-27 86-61 160-64 144-95 195-52 89z"/>
   <path d="m2720 3920c11-23 25-52 31-67 5-14 12-24 15-21 7 8-47 128-58 128-4 0 1-18 12-40z"/>
   <path d="m11746 3902c-3-5-7-203-10-441-4-352-2-431 8-431 23 0 26 52 26 425 0 199 3 365 7 368 3 4 12 2 19-4 10-8 12-87 7-383-3-206-3-381 0-390 4-9 13-13 22-10 13 5 15 53 15 380 0 328 2 375 15 381 9 3 18 4 20 2 2-3 5-178 7-391 3-349 6-413 23-396 3 3 6 176 6 384 0 234 4 384 11 391 5 6 16 9 24 6 12-4 14-66 14-390 0-303 3-384 13-381 9 4 13 91 15 382 2 352 3 377 20 374 16-3 17-23 13-268-4-273 5-490 20-490 4 0 9 164 11 364s6 367 10 371c24 25 28-23 28-371 0-288 3-365 13-362 9 4 13 94 15 396 3 360 2 392-13 392-9 0-29 9-45 20-41 29-75 40-175 56-49 8-100 17-111 20-12 3-24 1-28-4z"/>
   <path d="m2687 3892c-5-7-13-10-18-7-5 4-4-6 2-22 7-15 14-93 17-172 3-86 8-138 13-130s6 53 3 102c-5 55-3 87 3 87 15 0 34-74 44-179 9-92 37-216 46-207 3 2-3 40-11 83-9 43-22 139-30 214-7 75-18 144-24 155-11 18-11 17-12-5 0-45-19-8-22 44-2 31-6 45-11 37z"/>
   <path d="m407 3785c3-45 0-91-5-105l-11-25-1 30c-1 17-6 41-11 55-14 39-2-42 18-120 12-52 14-88 8-174-5-75-10-104-17-95-14 20 0-289 16-371l13-65-6 85c-6 91-6 124 4 530 5 173 3 277-3 300-9 28-10 20-5-45z"/>
   <path d="m2820 3851c0-31 45-199 57-212 10-12 17-60 23-155 12-187 32-325 46-311 3 3-2 56-10 118-8 63-20 176-25 253-9 110-16 149-35 190-13 28-29 68-36 89-11 35-20 48-20 28z"/>
   <path d="m3411 3835c0-5 18-44 39-85s39-70 39-65c0 6-18 44-39 85s-39 71-39 65z"/>
   <path d="m3525 3779c11-33 147-290 152-285s-145 306-153 306c-3 0-2-10 1-21z"/>
   <path d="m2783 3774c3-11 11-45 17-76 6-32 15-57 20-55 5 1 16-7 24-18 12-15 10-5-5 35-12 30-25 69-31 87-5 18-14 35-19 39-7 4-9 0-6-12z"/>
   <path d="m2893 3780c2-8 14-53 25-100 43-177 41-173 37-85-3 66-10 91-35 140-18 33-30 53-27 45z"/>
   <path d="m3710 3768c0-13 5-30 10-38 7-12 10-8 10 15 0 36 9 28 50-50 49-92 57-91 12 1-35 69-55 94-78 94-2 0-4-10-4-22z"/>
   <path d="m3744 3645c6-24 136-227 136-213 0 4-22 44-50 89-27 45-55 97-62 115-14 39-33 46-24 9z"/>
   <path d="m705 3618c8-44 29-105 84-238 17-41 36-95 43-120 9-35 13-40 16-22 2 13-21 86-53 165-32 78-63 167-69 199-12 66-31 80-21 16z"/>
   <path d="m3690 3582c0-18 113-189 150-227 47-49 136-234 155-323 14-66 25-90 25-56 1 16 3 15 15-6 21-37 18-21-10 48-13 33-29 82-35 107-6 26-23 63-39 83-15 21-43 72-61 115-31 73-48 100-37 57 15-57-51 25-123 153-31 55-40 66-40 49z"/>
   <path d="m780 3557c0-3 20-48 44-99 23-51 60-138 82-193 21-55 40-92 42-82 4 22-26 117-44 137-7 9-35 64-62 123-46 99-62 130-62 114z"/>
   <path d="m2971 3405c0-22 6-101 14-175 9-74 20-189 25-255 6-66 15-147 20-180 6-33 14-104 17-157 4-76 9-98 20-98 8 0 11 5 7 11-3 6-6 81-5 168 2 156-11 321-29 376-9 26-9 23-5-17 8-80 15-244 11-233-3 6-12 73-20 149-12 102-13 142-5 152s4 48-16 146c-31 158-33 165-34 113z"/>
   <path d="m940 3394c0-5 4-14 9-19 4-6 25-55 46-110 20-55 41-111 46-124 6-15 6-28-1-36-8-9-8-24-1-47l9-33 2 30c2 27 3 26 15-15 7-25 13-36 14-24 1 29-43 182-80 272-28 72-59 127-59 106z"/>
   <path d="m2862 3310c0-14 2-19 5-12 2 6 2 18 0 25-3 6-5 1-5-13z"/>
   <path d="m2877 3235c3-22 7-42 9-44 8-9 2 45-6 64-7 14-8 8-3-20z"/>
   <path d="m7491 3121c-1-26-10-42-48-77-26-23-45-45-43-48 9-8 140 94 140 110 0 10-6 14-15 10-10-4-19 2-25 17-8 20-9 18-9-12z"/>
   <path d="m961 3135c0-5 8-41 19-80 18-63 19-66 16-25-3 40-33 131-35 105z"/>
   <path d="m4291 3053c12-21 34-56 49-78 14-22 38-61 53-87s32-50 37-53c12-8-62 124-112 198-43 64-62 78-27 20z"/>
   <path d="m7570 3064c-13-33-13-33 5-50 13-14 15-10 15 30 0 52-6 58-20 20z"/>
   <path d="m1002 2945c0-11 4-31 8-45 6-20 8-21 8-5 0 11-4 31-8 45-6 20-8 21-8 5z"/>
   <path d="m4104 2885c2-16 10-66 15-110 41-302 53-360 77-373 16-9 64-130 64-162 0-10 4-21 9-24s5 12 0 35c-12 52-7 58 16 22 10-15 29-39 42-52 12-13 23-32 23-42 0-11 6-19 14-19s24-12 35-26c12-15 21-24 21-20 0 3-15 25-33 49-33 43-82 181-75 212 2 8 32-29 67-85 36-55 67-98 69-95 3 2-33 61-78 131-54 83-92 155-110 208-28 78-28 79-23 31 3-27 13-69 24-91 10-23 25-68 33-100 8-33 17-70 21-84 6-24 6-25-10-5-34 42-86 141-111 209-35 97-41 122-59 266-9 68-21 131-26 140-7 11-9 7-5-15z"/>
   <path d="m1825 2869c-4-22-2-46 5-59 6-12 14-63 17-113 3-51 12-104 19-119 8-15 14-41 14-59 0-26-2-29-14-20-8 7-17 8-20 3-9-15 14-80 31-86 28-11 36 8 25 61-9 39-8 49 4 56 18 10 11 38-22 87-28 40-35 122-10 101 9-7 17-8 20-3 7 11-25 116-48 159l-14 28z"/>
   <path d="m1990 2867c0-8 11-40 24-73 13-32 29-85 36-117 9-46 14-56 25-47 13 11-5 82-51 208-15 40-34 57-34 29z"/>
   <path d="m1021 2854c0-11 3-14 6-6 3 7 2 16-1 19-3 4-6-2-5-13z"/>
   <path d="m426 2810c8-51 32-140 33-125 1 6-5 43-13 83-15 80-31 114-20 42z"/>
   <path d="m3253 2805c3-11 16-56 28-100 37-137 48-171 48-150 1 23-65 254-75 264-3 3-4-3-1-14z"/>
   <path d="m1031 2762c-1-61 17-144 30-136 5 3 5 13-1 24-5 10-10 40-11 67-1 26-5 59-9 73-6 20-8 14-9-28z"/>
   <path d="m1151 2795c0-5 8-37 19-69 11-33 20-86 20-120 0-45 3-57 12-48 14 14-4 181-20 191-6 4-15 18-21 31-5 14-10 21-10 15z"/>
   <path d="m990 2702c0-39 41-227 51-236 9-8 10-6 5 9-4 11-15 70-24 132s-20 113-24 113-8-8-8-18z"/>
   <path d="m1100 2651c0-28-4-53-10-56-10-6-3-59 11-85 5-9 9 27 9 88 0 56-2 102-5 102s-5-22-5-49z"/>
   <path d="m1940 2594c5-20 13-41 19-47 14-14 14-4-1 44-14 49-29 51-18 3z"/>
   <path d="m2151 2594c0-11 4-28 8-39 5-11 5-25 0-31-11-14 46-180 74-214 23-29 22-25-13 75-11 33-22 86-24 117-3 39-11 66-25 84-18 22-21 24-20 8z"/>
   <path d="m704 2445c11-85 17-108 27-98 5 5 4 33-2 69-15 76-34 98-25 29z"/>
   <path d="m3351 2475c-1-15 79-239 89-249 5-5-8 40-30 100-46 132-59 162-59 149z"/>
   <path d="m1192 2383c-1-49-6-83-13-85-8-3-8-17-2-48l10-45 7 55c4 30 6 89 4 130l-4 75z"/>
   <path d="m2240 2445c0-8 4-24 9-37s15-50 22-83c15-72 28-102 28-65 0 14-3 42-8 63s-5 39 0 43c5 3-1 25-14 49-22 45-37 57-37 30z"/>
   <path d="m4147 2323c-3-5 0-22 8-37 15-28 163-216 170-216 5 0-43 73-53 80-19 13-79 98-98 138-12 24-24 40-27 35z"/>
   <path d="m1263 2260c0-30 2-43 4-27 2 15 2 39 0 55-2 15-4 2-4-28z"/>
   <path d="m1920 2302c0-5 13-27 28-48 16-22 32-52 36-68 13-53 16-20 3 42-13 61-28 97-20 45l5-28-21 33c-21 32-31 40-31 24z"/>
   <path d="m3480 2293c0-19 105-344 108-334 2 6-14 68-36 138-22 71-43 143-47 160-6 29-25 57-25 36z"/>
   <path d="m755 2212c4-13 11-45 16-70l8-47-4 53c-2 28-9 60-15 70-9 14-10 13-5-6z"/>
   <path d="m1272 2140c0-19 2-27 5-17 2 9 2 25 0 35-3 9-5 1-5-18z"/>
   <path d="m3100 2165c0-9 81-155 86-155 6 0-8 33-44 98-31 56-42 72-42 57z"/>
   <path d="m870 2151c0-21 33-151 37-147 5 5-27 156-33 156-2 0-4-4-4-9z"/>
   <path d="m1961 2123c-1-6 11-48 25-92 19-59 29-78 40-74 18 7 18 45 0 103-12 37-15 40-15 18-1-41-17-34-34 15-9 23-16 37-16 30z"/>
   <path d="m4610 2087c0-11 44-95 69-132 12-16 21-25 21-20 0 12-90 164-90 152z"/>
   <path d="m1951 1975c-1-14 51-156 56-152 2 2-10 40-26 83-17 43-30 75-30 69z"/>
   <path d="m2600 1945c0-8 19-24 42-36 102-52 446-294 435-306-7-6-44 14-232 127-91 54-167 94-170 90-6-10 154-106 350-210 44-24 105-57 135-75 58-33 90-47 90-40 0 3-21 16-47 29-27 13-61 38-78 56-95 101-525 400-525 365z"/>
   <path d="m3180 1923c0-28 109-308 117-299 3 2-1 15-8 28-7 12-34 82-60 153-27 72-48 125-49 118z"/>
   <path d="m1571 1910c0-8 4-22 9-30 12-18 12-2 0 25-6 13-9 15-9 5z"/>
   <path d="m3602 1900c0-8 6-31 13-50 9-23 14-28 14-15 0 11-6 34-14 50-7 17-13 23-13 15z"/>
   <path d="m4729 1878c11-18 32-54 47-81 15-26 29-45 32-42 5 5-86 155-95 155-2 0 4-15 16-32z"/>
   <path d="m4760 1897c0-15 95-130 113-136 6-2-8 18-32 45s-49 61-57 77c-16 29-24 34-24 14z"/>
   <path d="m1951 1820c0-14 6-45 13-70 18-56 19-23 1 45-8 32-13 41-14 25z"/>
   <path d="m3540 1787c0-9 142-179 165-197 11-8-18 30-64 85-100 120-101 121-101 112z"/>
   <path d="m2630 1769c0-3 14-23 30-44 17-21 30-47 31-59 0-11 9-43 20-71 11-27 17-39 13-25-3 14-8 45-11 70-4 33-15 57-44 90-21 25-39 42-39 39z"/>
   <path d="m1626 1720c4-19 10-44 15-55l8-20v20c0 11-7 36-15 55l-14 35z"/>
   <path d="m1880 1743c0-14 36-102 44-110 11-10 1 33-19 80-14 34-25 47-25 30z"/>
   <path d="m2317 1719c16-31 68-99 76-99 18 0 4 25-39 68-25 26-42 40-37 31z"/>
   <path d="m946 1649c17-90 32-143 33-114 1 31-23 132-33 143-4 3-3-10 0-29z"/>
   <path d="m3614 1618c31-44 160-188 169-188 5 0-19 30-53 68-34 37-74 84-89 104-14 21-30 38-34 38-5 0-1-10 7-22z"/>
   <path d="m1653 1615c27-101 39-137 42-133 5 4-33 139-41 147-4 3-4-3-1-14z"/>
   <path d="m2810 1610c0-9 141-80 188-94 42-13 22 3-50 40-40 20-82 43-93 50-23 16-45 18-45 4z"/>
   <path d="m2046 1520c10-36 62-137 74-145 16-10 13-2-36 86-25 46-42 73-38 59z"/>
   <path d="m2536 1508c21-38 90-127 97-128 9 0-4 22-58 97-27 38-57 61-39 31z"/>
   <path d="m2964 1481c3-4 18-11 33-14 16-3 36-9 46-12 9-4 17-3 17 2 0 6-17 15-39 21-46 14-64 15-57 3z"/>
   <path d="m3136 1481c5-5 38-17 74-26 94-24 276-80 339-104 30-11 57-19 59-16 9 9-144 62-332 116-152 43-154 43-140 30z"/>
   <path d="m1094 1458c4-13 13-52 22-87 15-63 65-174 83-185 5-4-3 20-19 51-16 32-39 100-52 150-13 51-27 93-32 93-4 0-5-10-2-22z"/>
   <path d="m2400 1421c0-33 37-89 97-147 78-75 372-308 379-301 3 3-50 47-118 98-153 117-266 224-318 302-22 32-40 54-40 48z"/>
   <path d="m2670 1422c0-14 86-126 129-167 59-56 51-37-15 37-31 35-68 80-82 101-25 37-32 44-32 29z"/>
   <path d="m1631 1390c0-8 6-28 14-45l14-30-6 30c-7 38-22 68-22 45z"/>
   <path d="m1193 1345c21-78 138-325 153-325 3 0-6 19-19 43-14 23-46 96-73 162-43 109-76 173-61 120z"/>
   <path d="m2234 1316c13-24 25-53 29-65 3-11 11-21 17-21 18 0 4 48-27 93-35 51-48 47-19-7z"/>
   <path d="m3402 1335c6-6 53-28 196-91 59-26 33-3-30 26-79 36-175 74-166 65z"/>
   <path d="m1471 1309c-1-25 78-267 89-274 15-9 12 11-6 53-9 20-31 82-50 137-18 55-33 93-33 84z"/>
   <path d="m3401 1281c9-24 274-189 285-178 3 3-13 16-35 29-55 31-52 42 5 17 25-12 48-18 51-15 4 3-19 17-50 30-31 14-102 48-157 76-56 28-100 47-99 41z"/>
   <path d="m1677 1255c3-16 12-41 20-55l14-25-7 25c-4 14-12 39-20 55l-13 30z"/>
   <path d="m2499 1212c30-26 93-82 139-124 47-43 88-76 90-73 3 3 3 6 1 8s-64 56-137 120-136 117-140 116c-4 0 17-21 47-47z"/>
   <path d="m3700 1251c0-5 14-12 30-16 17-4 37-17 45-29 9-13 39-39 68-59 28-20 77-62 107-93 45-45 50-55 30-49-21 6-18 2 14-24 21-17 54-51 73-75 33-42 63-65 63-47 0 4-9 16-20 26-42 38-18 35 27-4 26-22 50-38 53-35 8 9-307 309-365 349s-125 70-125 56z"/>
   <path d="m1177 1090c15-33 30-60 35-60 4 0 8 3 8 6 0 8-60 114-65 114-2 0 8-27 22-60z"/>
   <path d="m1619 1042c11-16 27-35 36-42 8-7 15-18 15-25s7-18 16-25c8-8 33-44 55-82 22-37 44-68 49-68s-14 47-41 105c-27 57-49 108-49 114 0 5-5 13-11 16-5 4-3-10 6-31 8-20 14-39 12-41-3-2-23 21-46 52-42 55-80 79-42 27z"/>
   <path d="m2100 1056c0-15 85-157 88-148 2 7-15 44-38 82-36 62-50 80-50 66z"/>
   <path d="m1410 1024c0-21 60-144 70-144 13 0 13 17-1 26-6 3-24 34-40 68-16 33-29 56-29 50z"/>
   <path d="m3855 1004c40-30 110-74 119-74 18 0-20 33-69 61-53 30-84 39-50 13z"/>
   <path d="m10650 981c-34-7-34-7 20-14 88-10 525-16 539-8 8 5-12 11-50 15-106 10-472 15-509 7z"/>
   <path d="m1930 949c15-27 8-32-24-18-36 17-46 2-16-21 29-22 15-26-39-10-44 12-74-6-45-27 10-7 29-13 43-13 32 0 89-33 118-68 12-14 25-24 28-20 9 9-14 61-36 81-11 11-18 22-14 25 3 4 21-11 40-33 62-75 48-15-20 82-31 44-54 59-35 22z"/>
   <path d="m3150 930c19-11 40-19 45-19 6 0-6 8-25 19s-39 19-45 19c-5 0 6-8 25-19z"/>
   <path d="m2094 878c42-100 39-95 44-70 4 25-28 94-46 100-9 3-9-5 2-30z"/>
   <path d="m2363 880c69-99 137-204 137-211 0-5-8-9-17-9-12 0-14-3-7-10 14-14 149-60 175-60 32 0 21 28-21 55-37 23-54 55-30 55 6 0 10 7 10 15 0 9-9 15-25 15-19 0-32 14-66 70-23 39-43 70-46 70-2 0 17-38 42-84s42-87 37-90c-23-14-54 13-105 88-31 45-66 91-79 102l-22 19z"/>
   <path d="m3250 892c8-5 26-13 40-16 17-5 20-4 10 2-8 5-26 13-40 16-17 5-20 4-10-2z"/>
   <path d="m2184 845c-18-14-18-14 4-15 12 0 44-11 70-24 58-29 99-39 107-26 6 10-127 80-150 80-6 0-20-7-31-15z"/>
   <path d="m3365 854c6-5 28-25 50-44s31-25 22-13c-18 20-18 21 0 26 15 3 14 5-7 14-42 17-76 26-65 17z"/>
   <path d="m3460 836c0-2 28-24 63-49 66-48 153-134 125-124-9 3-34 9-55 12l-38 7 85-81c47-45 99-90 115-102 17-11-4 11-45 50l-75 70 41 1c29 0 46-6 60-21 10-11 28-26 39-31l20-11-20 23c-11 12-62 59-114 104-91 79-93 81-65 86 27 5 25 7-21 19-27 8-62 23-77 33-25 18-38 22-38 14z"/>
   <path d="m1652 800c10-31 28-50 28-30 0 7 12 9 35 4 19-3 35-3 35 0 0 5-97 56-106 56-2 0 2-14 8-30z"/>
   <path d="m5485 811c-6-21 3-51 16-51 5 0 9 16 9 35 0 37-15 47-25 16z"/>
   <path d="m4174 782c26-30 13-39-20-13-15 12-30 19-33 16s26-34 64-68c92-83 278-227 285-221 3 3-11 20-30 37-22 19-34 38-32 50 4 23-35 67-60 67-10 0-18-4-18-10 0-5-3-10-7-10-13 1-109 90-97 90 6 0 17-7 24-15s16-15 21-15c15 0 10 30-5 36-8 3-19 18-25 34-6 18-16 29-28 28-10 0-27 3-38 7-20 8-20 8-1-13z"/>
   <path d="m10985 770c-217-3-340-9-340-15 0-14 659-19 685-5 22 12 27 31 8 28-7-2-166-5-353-8z"/>
   <path d="m4380 761c0-6 13-11 30-11 16 0 92-18 167-41 183-54 180-53 168-41-15 15-263 93-317 99-33 4-48 2-48-6z"/>
   <path d="m1977 754c-11-12 4-24 29-24 14 0 40-7 59-14 31-13 35-13 35 0 0 26-103 58-123 38z"/>
   <path d="m2230 750c0-6 4-10 9-10 6 0 24-15 41-32 17-18 28-25 24-15-8 21-6 21 39 2 43-18 57-19 57-4 0 12-92 54-137 63-19 3-33 1-33-4z"/>
   <path d="m3420 702c0-6 18-26 40-43 26-21 38-38 35-48-3-12 11-26 49-49 30-17 59-32 65-32 26 0 7 28-41 60-29 19-74 54-100 78-27 25-48 40-48 34z"/>
   <path d="m3270 697c0-8 150-130 155-125 2 2-23 26-57 53-77 63-98 79-98 72z"/>
   <path d="m4485 690c-16-26 160-71 269-69 35 1 69-2 75-5 21-13 11-26-21-27-74-1-73-16 0-24 40-4 76-5 79-2s1 18-4 34c-9 26-14 28-84 36-173 17-229 27-261 47-37 23-44 24-53 10z"/>
   <path d="m11709 681c-13-11-21-23-17-26 4-4 60-10 124-13 94-4 116-2 112 8-2 8-41 21-89 31-106 23-102 23-130 0z"/>
   <path d="m2787 673c-4-7 32-13 96-16 56-3 114-9 130-13 30-7 38 9 10 21-29 12-230 19-236 8z"/>
   <path d="m5410 621c-22-23-42-41-46-41s-18 9-30 21c-38 36-46 13-16-43 21-40 43-63 100-101 40-27 75-47 79-44 13 14-10 57-42 77l-35 22 20 28c11 15 20 35 20 43s7 20 15 27c20 17 19 27-6 40-18 10-26 6-59-29z"/>
   <path d="m11600 645c-18-22-3-35 41-35 45 0 50 11 14 34-30 20-39 20-55 1z"/>
   <path d="m12166 651c-8-13-6-13 90-36 81-19 129-17 129 4 0 18-36 28-135 37-53 4-80 3-84-5z"/>
   <path d="m3280 631c0-5 35-33 78-61 42-29 79-54 81-56s-44-4-102-4c-109 0-128 8-89 36 16 11 15 13-12 23-55 21-106 29-113 18-3-6 11-25 32-42 23-20 33-35 27-39-15-9-65 4-77 20-8 11-133 64-150 64-3 0-5-4-5-9 0-6 28-24 63-40l62-30-124-1c-96 0-126 3-135 14-9 12-28 14-93 9-97-7-111-23-20-23 42 0 57-3 47-10-23-15-3-24 25-12 36 17 81 15 122-5 41-19 49-34 33-62-9-17-8-21 5-21 9 0 18 7 21 15 12 29 80 9 116-34 14-17 26-19 90-17 146 7 156 9 73 16-44 4-93 13-110 20l-30 14 25 3c24 4 50 28 50 45 0 4-18 8-41 8-28 0-38 4-33 12s71 9 251 5c133-4 243-4 243-1 0 21-39 39-84 40-73 1-69-1-139 53-81 61-87 64-87 52z"/>
   <path d="m4455 631c-5-8 17-64 31-80 5-6 54 28 54 37 0 14-78 53-85 43z"/>
   <path d="m2390 612c0-9 105-40 168-49 49-8 39 13-15 31-63 19-153 31-153 18z"/>
   <path d="m11803 610c-26-11-30-28-8-36 16-6 226 11 280 23 29 7 28 7-15 14-63 10-231 10-257-1z"/>
   <path d="m4621 591c-23-15-5-41 29-41 35 0 41 23 11 40-23 12-22 12-40 1z"/>
   <path d="m3925 580c3-5 21-12 40-16 43-8 86-40 79-59-4-10 5-15 33-20 21-3 53-10 72-15s38-7 43-4c18 11-14 32-57 38-31 5-46 13-50 26-8 25-83 60-129 60-21 0-35-4-31-10z"/>
   <path d="m4945 568c8-29 73-88 96-88 27 0 33 19 13 41-12 14-20 16-30 8s-16-3-28 19c-13 25-34 42-52 42-3 0-2-10 1-22z"/>
   <path d="m5970 536c-42-74-103-116-192-131-44-7-56-21-35-42 13-14 20-14 47-3 17 7 47 26 67 42 20 15 47 31 60 34 28 8 115 111 111 132-6 33-29 21-58-32z"/>
   <path d="m6342 558c-7-7-12-22-12-35 0-37 103-58 134-27 20 19 20 24 0 52-12 17-25 22-63 22-26 0-52-5-59-12z"/>
   <path d="m7418 559c-20-11-25-59-6-59 18 0 95 39 108 56 11 12 5 14-36 14-27 0-57-5-66-11z"/>
   <path d="m6908 539c-21-12-23-40-6-57 18-18 103-15 119 4 11 14 10 20-14 40-29 25-70 30-99 13z"/>
   <path d="m2285 478c-44-5-113-10-152-12-135-5-105-36 35-36 105 0 123-14 31-24-100-10-184-7-215 8-49 24-136 29-159 11-20-16-19-16 5-11 14 3 42 3 64-1 38-6 38-6 15-19-24-13-24-13 7-14 21 0 36-7 47-22l15-23 293 3c162 1 333 5 382 8 158 11 91 24-125 25-279 0-350 12-135 22 86 4 192 5 235 1 54-5 74-3 67 4-17 19-146 34-260 30-108-3-135 2-135 24 0 11 19 10 295-7 87-6 89-6 56 10-19 9-75 17-135 21-55 3-112 6-126 8-14 1-61-2-105-6z"/>
   <path d="m3285 425c27-23 50-35 71-35 17 0 52-3 78-6 38-6 46-4 46 10 0 10-8 16-22 16-13 0-37 8-53 18-17 11-60 22-95 26l-65 6z"/>
   <path d="m1390 402c0-5 30-12 68-16 91-9 114-16 108-31-3-9 8-15 32-18 50-6 308-9 302-3-6 5-63 17-230 47-133 25-280 36-280 21z"/>
   <path d="m1168 370c-37-23-19-33 50-27 37 3 76 2 87-3 16-7 12-9-21-9-22-1-48-7-59-14-15-12-5-15 81-20 142-10 352-9 358 2 6 10-41 21-89 21-18 0-82 12-142 26-125 30-240 40-265 24z"/>
   <path d="m5577 353c-14-13-6-43 14-54 30-16 46 2 31 36-11 24-31 32-45 18z"/>
   <path d="m5838 309c-24-13-23-39 1-39 12 0 20 9 23 25 6 27 2 30-24 14z"/>
   <path d="m3536 235c-26-9-45-11-57-4-42 22-55-7-16-35 21-16 20-16-33-10-30 3-59 9-64 12s-63 5-128 6c-85 1-123-3-130-11-6-8-35-13-71-13-46 0-73-7-114-27-51-26-53-28-31-38 13-5 26-14 29-19 9-11 97-2 111 12 7 7-2 14-31 22-22 6-41 16-41 22 0 8 37 9 129 5 82-3 132-2 139 5 6 6 26 7 54 2l43-8-40-7c-22-4-63-8-92-8-28-1-55-5-58-11-4-6 32-10 102-10 59 0 186-5 282-10 98-5 180-6 189-1 10 6-9 11-59 16-72 7-99 17-99 37 0 5 10 8 23 6 19-3 22 2 25 40 4 47-1 49-62 27z"/>
   <path d="m2707 192c-23-25-21-32 9-32 35 0 114 21 114 30 0 24-102 26-123 2z"/>
   <path d="m10065 180c3-10-3-36-14-59l-21-40 33-6c22-4 47 1 81 15 34 16 58 20 83 15 21-4 40-2 48 5 12 10 10 18-13 46-15 19-35 34-44 34-25 0-22-17 4-23 18-5 19-8 8-21-18-23-35-20-48 9-11 24-19 27-90 39-29 5-33 4-27-14z"/>
   <path d="m10918 184c-34-18-38-39-5-30 12 4 49 10 81 13 53 5 57 8 41 20-25 17-83 16-117-3z"/>
   <path d="m11792 193c-60-8-30-28 46-31 61-2 71-1 66 13-3 8-17 15-29 15-13 0-29 2-37 3-7 2-28 2-46 0z"/>
   <path d="m12005 170c-10-16-2-21 51-31 51-10 80 2 48 19-32 16-92 23-99 12z"/>
   <path d="m6153 153c-7-2-13-13-13-23 0-13-10-19-45-23-47-5-63-12-52-23 3-3 100-7 216-7 219-2 249 3 216 37-24 23-76 21-82-4-7-28-82-29-90-2-7 30-111 61-150 45z"/>
   <path d="m9055 110c-3-6 0-12 7-15 31-11 234-32 247-25 22 12-1 20-91 30-46 5-100 12-120 15s-40 1-43-5z"/>
   <path d="m9620 89c-25-12-24-12 15-19 72-13 345-22 345-12 0 29-308 54-360 31z"/>
   <path d="m7176 71c-6-10 50-21 107-21 41 0 50 14 15 24-34 9-116 7-122-3z"/>
   <path d="m3485 60c8-12 382-13 440-1 26 6-46 9-203 10-160 1-241-2-237-9z"/>
   <path d="m4062 51c-9-5 5-10 39-14 55-7 80 0 58 14-18 11-80 11-97 0z"/>
  </g>
 </g>
</svg>
