<?xml version="1.0" encoding="UTF-8"?>
<svg width="179px" height="44px" viewBox="0 0 179 44" version="1.1" xmlns="http://www.w3.org/2000/svg" xmlns:xlink="http://www.w3.org/1999/xlink">
    <!-- Generator: Sketch 51.3 (57544) - http://www.bohemiancoding.com/sketch -->
    <title>logo</title>
    <desc>Created with Sketch.</desc>
    <defs></defs>
    <g id="Page-1" stroke="none" stroke-width="1" fill="none" fill-rule="evenodd">
        <g id="logo">
            <path d="M7.99,5.687 C7.54199776,5.19699755 7.318,4.61600336 7.318,3.944 C7.318,3.27199664 7.54899769,2.68400252 8.011,2.18 C8.47300231,1.67599748 8.99799706,1.424 9.586,1.424 C10.2300032,1.424 10.7689978,1.66899755 11.203,2.159 C11.6370022,2.64900245 11.854,3.2439965 11.854,3.944 C11.854,4.61600336 11.6230023,5.19699755 11.161,5.687 C10.6989977,6.17700245 10.1600031,6.422 9.544,6.422 C8.95599706,6.422 8.43800224,6.17700245 7.99,5.687 Z M1.144,42.71 C0.5839972,42.2619978 0.304,41.7020034 0.304,41.03 C0.304,40.4699972 0.47899825,40.0010019 0.829,39.623 C1.17900175,39.2449981 1.6339972,39.056 2.194,39.056 C2.78200294,39.056 3.22299853,39.2449981 3.517,39.623 C3.81100147,40.0010019 3.958,40.3999979 3.958,40.82 C3.958,40.9880008 3.94400014,41.1139996 3.916,41.198 C4.30800196,41.3660008 4.67199832,41.45 5.008,41.45 C5.65200322,41.45 6.21199762,41.2120024 6.688,40.736 C7.50000406,39.9519961 7.906,38.2440132 7.906,35.612 L7.99,16.04 C7.99,14.9759947 8.03199958,14.0660038 8.116,13.31 L5.134,13.478 L5.134,11.714 C6.8140084,11.714 8.01099643,11.616001 8.725,11.42 C9.43900357,11.223999 9.99199804,10.9440018 10.384,10.58 L11.602,10.58 L11.602,32.126 C11.602,35.8780188 10.8740073,38.6919906 9.418,40.568 C7.96199272,42.4440094 6.03001204,43.382 3.622,43.382 C2.52999454,43.382 1.7040028,43.1580022 1.144,42.71 Z M18.439,31.307 C16.8849922,30.3969955 15.6600045,29.0950085 14.764,27.401 C13.8679955,25.7069915 13.42,23.7540111 13.42,21.542 C13.42,19.5819902 13.8679955,17.7410086 14.764,16.019 C15.6600045,14.2969914 16.9129919,12.9180052 18.523,11.882 C20.1330081,10.8459948 21.9599898,10.328 24.004,10.328 C25.600008,10.328 27.0419936,10.6779965 28.33,11.378 C29.6180064,12.0780035 30.6399962,13.1209931 31.396,14.507 C32.1520038,15.8930069 32.53,17.5939899 32.53,19.61 L17.746,19.862 C17.7179999,23.2220168 18.2709943,25.8399906 19.405,27.716 C20.5390057,29.5920094 22.2959881,30.53 24.676,30.53 C25.9640064,30.53 27.2869932,30.1940034 28.645,29.522 C30.0030068,28.8499966 31.0459964,28.0240049 31.774,27.044 L32.782,27.884 C31.7179947,29.5080081 30.3390085,30.7119961 28.645,31.496 C26.9509915,32.2800039 25.2920081,32.672 23.668,32.672 C21.7359903,32.672 19.9930078,32.2170046 18.439,31.307 Z M28.582,18.098 C28.582,16.4179916 28.2040038,14.976006 27.448,13.772 C26.6919962,12.567994 25.5580076,11.966 24.046,11.966 C20.5739826,11.966 18.5160032,14.0099796 17.872,18.098 L28.582,18.098 Z M34.39,30.74 C35.2020041,30.74 35.7829982,30.537002 36.133,30.131 C36.4830017,29.724998 36.6859997,29.2140031 36.742,28.598 C36.7980003,27.9819969 36.826,26.9880069 36.826,25.616 C36.826,25.3359986 36.8329999,23.8100139 36.847,21.038 C36.8610001,18.2659861 36.868,13.1700371 36.868,5.75 C36.868,4.68599468 36.9099996,3.77600378 36.994,3.02 L34.012,3.188 L34.012,1.424 C35.6640083,1.424 36.8469964,1.32600098 37.561,1.13 C38.2750036,0.93399902 38.827998,0.65400182 39.22,0.29 L40.438,0.29 L40.438,20.156 L42.118,20.156 L47.242,14.78 C48.3060053,13.6599944 49.1319971,12.9180018 49.72,12.554 L46.864,12.68 L46.864,11 L54.508,11 L54.508,12.26 C53.2759938,12.4000007 52.156005,12.8479962 51.148,13.604 C50.139995,14.3600038 49.0200062,15.3819936 47.788,16.67 L44.512,20.114 C45.0160025,20.3380011 45.4569981,20.6249982 45.835,20.975 C46.2130019,21.3250018 46.6399976,21.7939971 47.116,22.382 L50.098,26.204 C50.1540003,26.2600003 50.4689971,26.686996 51.043,27.485 C51.6170029,28.283004 52.302996,29.0249966 53.101,29.711 C53.899004,30.3970034 54.5919971,30.74 55.18,30.74 L55.18,32 L51.358,32 C50.6859966,32 50.0560029,31.7060029 49.468,31.118 C48.8799971,30.5299971 48.0260056,29.5080073 46.906,28.052 L45.268,25.742 C44.6519969,24.8739957 44.0710027,24.0690037 43.525,23.327 C42.9789973,22.5849963 42.5240018,22.0460017 42.16,21.71 L40.438,21.794 L40.438,27.548 C40.438,28.8080063 40.3820006,29.7599968 40.27,30.404 L42.958,30.278 L42.958,32 L34.39,32 L34.39,30.74 Z M56.788,42.71 C56.1999971,42.2619978 55.906,41.6320041 55.906,40.82 C55.906,40.2879973 56.0809982,39.819002 56.431,39.413 C56.7810017,39.006998 57.2359972,38.804 57.796,38.804 C58.3560028,38.804 58.7689987,38.999998 59.035,39.392 C59.3010013,39.784002 59.434,40.1899979 59.434,40.61 C59.434,40.8620013 59.4200001,41.0579993 59.392,41.198 C59.4760004,41.2540003 59.6299989,41.282 59.854,41.282 C60.2180018,41.282 60.5889981,41.1420014 60.967,40.862 C61.3450019,40.5819986 61.6879985,40.1760027 61.996,39.644 C62.6400032,38.5799947 63.6199934,36.1860186 64.936,32.462 L58.384,18.434 C57.2079941,15.9139874 56.4660015,13.9820067 56.158,12.638 L54.142,12.722 L54.142,11 L62.836,11 L62.836,12.26 L62.668,12.26 C61.3519934,12.3440004 60.694,12.9039948 60.694,13.94 C60.694,14.6400035 61.0299966,15.7319926 61.702,17.216 L66.616,27.758 C67.4560042,25.3779881 68.6599922,21.8640232 70.228,17.216 C71.1800048,14.4439861 71.8659979,12.8900017 72.286,12.554 L69.388,12.722 L69.388,11 L75.982,11 L75.982,12.26 C75.0299952,12.6240018 74.2950026,13.204996 73.777,14.003 C73.2589974,14.801004 72.6920031,16.0399916 72.076,17.72 L66.826,32.378 C65.817995,35.2060141 64.9850033,37.3409928 64.327,38.783 C63.6689967,40.2250072 62.9270041,41.3519959 62.101,42.164 C61.2749959,42.9760041 60.260006,43.382 59.056,43.382 C58.1319954,43.382 57.3760029,43.1580022 56.788,42.71 Z M75.868,30.74 C76.6800041,30.74 77.2609983,30.537002 77.611,30.131 C77.9610017,29.724998 78.1709996,29.2070031 78.241,28.577 C78.3110003,27.9469969 78.346,26.9600067 78.346,25.616 L78.346,5.75 C78.346,4.68599468 78.3879996,3.77600378 78.472,3.02 L75.49,3.188 L75.49,1.424 C77.1700084,1.424 78.3669964,1.32600098 79.081,1.13 C79.7950036,0.93399902 80.347998,0.65400182 80.74,0.29 L81.958,0.29 L82,27.548 C82,28.6400055 81.9300007,29.5919959 81.79,30.404 L84.436,30.278 L84.436,32 L75.868,32 L75.868,30.74 Z M85.792,30.74 C86.6040041,30.74 87.1849983,30.537002 87.535,30.131 C87.8850018,29.724998 88.0949996,29.2070031 88.165,28.577 C88.2350004,27.9469969 88.27,26.9600067 88.27,25.616 L88.27,5.75 C88.27,4.68599468 88.3119996,3.77600378 88.396,3.02 L85.414,3.188 L85.414,1.424 C87.0940084,1.424 88.2909964,1.32600098 89.005,1.13 C89.7190036,0.93399902 90.271998,0.65400182 90.664,0.29 L91.882,0.29 L91.924,27.548 C91.924,28.6400055 91.8540007,29.5919959 91.714,30.404 L94.36,30.278 L94.36,32 L85.792,32 L85.792,30.74 Z" id="jekyll" fill="#45454A"></path>
            <path d="M102.846,32.147 C101.753995,31.7969983 100.816004,31.3560027 100.032,30.824 L100.2,32.294 L98.436,32.294 L98.184,25.07 L99.486,25.07 C99.5420003,26.2180057 99.8569971,27.2399955 100.431,28.136 C101.005003,29.0320045 101.760995,29.7389974 102.699,30.257 C103.637005,30.7750026 104.637995,31.034 105.702,31.034 C106.906006,31.034 107.976995,30.7470029 108.915,30.173 C109.853005,29.5989971 110.322,28.7800053 110.322,27.716 C110.322,26.9319961 110.091002,26.2740027 109.629,25.742 C109.166998,25.2099973 108.593003,24.7690018 107.907,24.419 C107.220997,24.0689982 106.262006,23.6560024 105.03,23.18 C103.545993,22.6199972 102.356004,22.0950024 101.46,21.605 C100.563996,21.1149975 99.7940032,20.4500042 99.15,19.61 C98.5059968,18.7699958 98.184,17.7060064 98.184,16.418 C98.184,15.4939954 98.4079978,14.5700046 98.856,13.646 C99.3040022,12.7219954 100.059995,11.9380032 101.124,11.294 C102.188005,10.6499968 103.601991,10.328 105.366,10.328 C106.234004,10.328 107.122995,10.4679986 108.033,10.748 C108.943005,11.0280014 109.789996,11.4899968 110.574,12.134 L110.49,10.538 L112.254,10.538 L112.254,17.888 L110.91,17.888 C110.826,16.2639919 110.329005,14.8570059 109.419,13.667 C108.508995,12.476994 107.228008,11.882 105.576,11.882 C104.315994,11.882 103.315004,12.1969969 102.573,12.827 C101.830996,13.4570031 101.46,14.2059957 101.46,15.074 C101.46,15.8860041 101.704998,16.5719972 102.195,17.132 C102.685002,17.6920028 103.293996,18.167998 104.022,18.56 C104.750004,18.952002 105.729994,19.3859976 106.962,19.862 C108.418007,20.4500029 109.593996,20.9959975 110.49,21.5 C111.386004,22.0040025 112.148997,22.6689959 112.779,23.495 C113.409003,24.3210041 113.724,25.3219941 113.724,26.498 C113.724,27.8420067 113.381003,28.9759954 112.695,29.9 C112.008997,30.8240046 111.113006,31.5169977 110.007,31.979 C108.900994,32.4410023 107.718006,32.672 106.458,32.672 C105.141993,32.672 103.938005,32.4970017 102.846,32.147 Z M120.729,31.307 C119.174992,30.3969955 117.950004,29.0950085 117.054,27.401 C116.157996,25.7069915 115.71,23.7540111 115.71,21.542 C115.71,19.5819902 116.157996,17.7410086 117.054,16.019 C117.950004,14.2969914 119.202992,12.9180052 120.813,11.882 C122.423008,10.8459948 124.24999,10.328 126.294,10.328 C127.890008,10.328 129.331994,10.6779965 130.62,11.378 C131.908006,12.0780035 132.929996,13.1209931 133.686,14.507 C134.442004,15.8930069 134.82,17.5939899 134.82,19.61 L120.036,19.862 C120.008,23.2220168 120.560994,25.8399906 121.695,27.716 C122.829006,29.5920094 124.585988,30.53 126.966,30.53 C128.254006,30.53 129.576993,30.1940034 130.935,29.522 C132.293007,28.8499966 133.335996,28.0240049 134.064,27.044 L135.072,27.884 C134.007995,29.5080081 132.629008,30.7119961 130.935,31.496 C129.240992,32.2800039 127.582008,32.672 125.958,32.672 C124.02599,32.672 122.283008,32.2170046 120.729,31.307 Z M130.872,18.098 C130.872,16.4179916 130.494004,14.976006 129.738,13.772 C128.981996,12.567994 127.848008,11.966 126.336,11.966 C122.863983,11.966 120.806003,14.0099796 120.162,18.098 L130.872,18.098 Z M137.058,30.74 C137.870004,30.74 138.450998,30.537002 138.801,30.131 C139.151002,29.724998 139.361,29.2070031 139.431,28.577 C139.501,27.9469969 139.536,26.9600067 139.536,25.616 L139.536,16.04 C139.536,14.8639941 139.591999,13.9540032 139.704,13.31 L136.722,13.436 L136.722,11.714 L138.024,11.714 C139.088005,11.714 139.857998,11.6230009 140.334,11.441 C140.810002,11.2589991 141.257998,10.972002 141.678,10.58 L142.896,10.58 C143.008001,11.6720055 143.078,13.0579916 143.106,14.738 C143.806003,13.5899943 144.806993,12.5680045 146.109,11.672 C147.411007,10.7759955 148.761993,10.328 150.162,10.328 C151.002004,10.328 151.701997,10.5519978 152.262,11 C152.822003,11.4480022 153.102,12.1059957 153.102,12.974 C153.102,13.4220022 152.927002,13.8699978 152.577,14.318 C152.226998,14.7660022 151.730003,14.99 151.086,14.99 C150.469997,14.99 149.966002,14.7590023 149.574,14.297 C149.181998,13.8349977 149.028,13.2820032 149.112,12.638 C148.047995,12.6099999 146.977005,13.0159958 145.899,13.856 C144.820995,14.6960042 143.904004,15.815993 143.148,17.216 L143.19,27.548 C143.19,28.8080063 143.134001,29.7599968 143.022,30.404 L145.668,30.278 L145.668,32 L137.058,32 L137.058,30.74 Z M156.348,5.687 C155.899998,5.19699755 155.676,4.61600336 155.676,3.944 C155.676,3.27199664 155.906998,2.68400252 156.369,2.18 C156.831002,1.67599748 157.355997,1.424 157.944,1.424 C158.588003,1.424 159.126998,1.66899755 159.561,2.159 C159.995002,2.64900245 160.212,3.2439965 160.212,3.944 C160.212,4.61600336 159.981002,5.19699755 159.519,5.687 C159.056998,6.17700245 158.518003,6.422 157.902,6.422 C157.313997,6.422 156.796002,6.17700245 156.348,5.687 Z M153.744,30.74 C154.556004,30.74 155.136998,30.537002 155.487,30.131 C155.837002,29.724998 156.047,29.2070031 156.117,28.577 C156.187,27.9469969 156.222,26.9600067 156.222,25.616 L156.222,16.04 C156.222,15.2279959 156.277999,14.318005 156.39,13.31 L153.408,13.478 L153.408,11.714 C155.060008,11.714 156.242996,11.616001 156.957,11.42 C157.671004,11.223999 158.223998,10.9440018 158.616,10.58 L159.834,10.58 L159.834,27.548 C159.834,28.8080063 159.778001,29.7599968 159.666,30.404 L162.312,30.278 L162.312,32 L153.744,32 L153.744,30.74 Z M164.256,30.74 C165.068004,30.74 165.648998,30.537002 165.999,30.131 C166.349002,29.724998 166.559,29.2070031 166.629,28.577 C166.699,27.9469969 166.734,26.9600067 166.734,25.616 L166.692,12.806 L163.248,12.89 L163.248,11 L166.692,11 L166.692,10.118 C166.692,6.86998376 167.286994,4.38500861 168.477,2.663 C169.667006,0.94099139 171.591987,0.08 174.252,0.08 C175.316005,0.08 176.330995,0.34599734 177.297,0.878 C178.263005,1.41000266 178.746,2.17999496 178.746,3.188 C178.746,3.7480028 178.585002,4.20299825 178.263,4.553 C177.940998,4.90300175 177.500003,5.078 176.94,5.078 C176.379997,5.078 175.953001,4.88900189 175.659,4.511 C175.364999,4.13299811 175.218,3.74800196 175.218,3.356 C175.218,2.96399804 175.287999,2.61400154 175.428,2.306 C175.231999,2.08199888 174.966002,1.90700063 174.63,1.781 C174.293998,1.65499937 173.958002,1.592 173.622,1.592 C172.417994,1.592 171.564003,2.07499517 171.06,3.041 C170.555997,4.00700483 170.304,5.189993 170.304,6.59 L170.304,11 L175.974,11 L175.974,12.638 L170.304,12.764 L170.346,27.548 C170.346,28.8080063 170.290001,29.7599968 170.178,30.404 L172.824,30.278 L172.824,32 L164.256,32 L164.256,30.74 Z" id="serif" fill="#1C3ED3"></path>
        </g>
    </g>
</svg>