<?xml version="1.0" encoding="UTF-8"?>
<svg width="166px" height="44px" viewBox="0 0 166 44" version="1.1" xmlns="http://www.w3.org/2000/svg" xmlns:xlink="http://www.w3.org/1999/xlink">
    <!-- Generator: Sketch 51.3 (57544) - http://www.bohemiancoding.com/sketch -->
    <title>Group</title>
    <desc>Created with Sketch.</desc>
    <defs></defs>
    <g id="Page-1" stroke="none" stroke-width="1" fill="none" fill-rule="evenodd">
        <g id="Group">
            <path d="M95.52,32.14 C94.4799948,31.806665 93.5866704,31.3866692 92.84,30.88 L93,32.28 L91.32,32.28 L91.08,25.4 L92.32,25.4 C92.3733336,26.4933388 92.6733306,27.4666624 93.22,28.32 C93.7666694,29.1733376 94.4866622,29.8466642 95.38,30.34 C96.2733378,30.8333358 97.2266616,31.08 98.24,31.08 C99.3866724,31.08 100.406662,30.8066694 101.3,30.26 C102.193338,29.7133306 102.64,28.9333384 102.64,27.92 C102.64,27.1733296 102.420002,26.5466692 101.98,26.04 C101.539998,25.5333308 100.993337,25.113335 100.34,24.78 C99.6866634,24.446665 98.7733392,24.0533356 97.6,23.6 C96.1866596,23.066664 95.0533376,22.566669 94.2,22.1 C93.3466624,21.633331 92.6133364,21.000004 92,20.2 C91.3866636,19.399996 91.08,18.3866728 91.08,17.16 C91.08,16.2799956 91.2933312,15.4000044 91.72,14.52 C92.1466688,13.6399956 92.8666616,12.8933364 93.88,12.28 C94.8933384,11.6666636 96.2399916,11.36 97.92,11.36 C98.7466708,11.36 99.593329,11.493332 100.46,11.76 C101.326671,12.026668 102.13333,12.4666636 102.88,13.08 L102.8,11.56 L104.48,11.56 L104.48,18.56 L103.2,18.56 C103.12,17.0133256 102.646671,15.673339 101.78,14.54 C100.913329,13.406661 99.6933412,12.84 98.12,12.84 C96.919994,12.84 95.9666702,13.139997 95.26,13.74 C94.5533298,14.340003 94.2,15.0533292 94.2,15.88 C94.2,16.6533372 94.433331,17.306664 94.9,17.84 C95.366669,18.373336 95.9466632,18.8266648 96.64,19.2 C97.3333368,19.5733352 98.2666608,19.9866644 99.44,20.44 C100.826674,21.0000028 101.946662,21.5199976 102.8,22 C103.653338,22.4800024 104.379997,23.1133294 104.98,23.9 C105.580003,24.6866706 105.88,25.6399944 105.88,26.76 C105.88,28.0400064 105.553337,29.1199956 104.9,30 C104.246663,30.8800044 103.393339,31.5399978 102.34,31.98 C101.286661,32.4200022 100.160006,32.64 98.96,32.64 C97.7066604,32.64 96.5600052,32.473335 95.52,32.14 Z M111.98,31.34 C110.499993,30.473329 109.333338,29.2333414 108.48,27.62 C107.626662,26.0066586 107.2,24.1466772 107.2,22.04 C107.2,20.173324 107.626662,18.4200082 108.48,16.78 C109.333338,15.1399918 110.526659,13.8266716 112.06,12.84 C113.593341,11.8533284 115.333324,11.36 117.28,11.36 C118.800008,11.36 120.173327,11.69333 121.4,12.36 C122.626673,13.02667 123.599996,14.0199934 124.32,15.34 C125.040004,16.6600066 125.4,18.2799904 125.4,20.2 L111.32,20.44 C111.293333,23.640016 111.819995,26.1333244 112.9,27.92 C113.980005,29.7066756 115.653322,30.6 117.92,30.6 C119.146673,30.6 120.40666,30.2800032 121.7,29.64 C122.99334,28.9999968 123.986663,28.213338 124.68,27.28 L125.64,28.08 C124.626662,29.6266744 123.313341,30.7733296 121.7,31.52 C120.086659,32.2666704 118.506674,32.64 116.96,32.64 C115.119991,32.64 113.460007,32.206671 111.98,31.34 Z M121.64,18.76 C121.64,17.159992 121.280004,15.7866724 120.56,14.64 C119.839996,13.4933276 118.760007,12.92 117.32,12.92 C114.013317,12.92 112.053336,14.8666472 111.44,18.76 L121.64,18.76 Z M126.96,30.8 C127.733337,30.8 128.286665,30.6066686 128.62,30.22 C128.953335,29.8333314 129.153333,29.340003 129.22,28.74 C129.286667,28.139997 129.32,27.2000064 129.32,25.92 L129.32,16.8 C129.32,15.6799944 129.373333,14.8133364 129.48,14.2 L126.64,14.32 L126.64,12.68 L127.88,12.68 C128.893338,12.68 129.626664,12.5933342 130.08,12.42 C130.533336,12.2466658 130.959998,11.9733352 131.36,11.6 L132.52,11.6 C132.626667,12.6400052 132.693333,13.959992 132.72,15.56 C133.38667,14.4666612 134.339994,13.4933376 135.58,12.64 C136.820006,11.7866624 138.10666,11.36 139.44,11.36 C140.240004,11.36 140.906664,11.5733312 141.44,12 C141.973336,12.4266688 142.24,13.0533292 142.24,13.88 C142.24,14.3066688 142.073335,14.7333312 141.74,15.16 C141.406665,15.5866688 140.933336,15.8 140.32,15.8 C139.73333,15.8 139.253335,15.5800022 138.88,15.14 C138.506665,14.6999978 138.36,14.1733364 138.44,13.56 C137.426662,13.5333332 136.406672,13.919996 135.38,14.72 C134.353328,15.520004 133.480004,16.58666 132.76,17.92 L132.8,27.76 C132.8,28.960006 132.746667,29.8666636 132.64,30.48 L135.16,30.36 L135.16,32 L126.96,32 L126.96,30.8 Z M144.76,6.94 C144.333331,6.473331 144.12,5.9200032 144.12,5.28 C144.12,4.6399968 144.339998,4.0800024 144.78,3.6 C145.220002,3.1199976 145.719997,2.88 146.28,2.88 C146.893336,2.88 147.406665,3.113331 147.82,3.58 C148.233335,4.046669 148.44,4.61333 148.44,5.28 C148.44,5.9200032 148.220002,6.473331 147.78,6.94 C147.339998,7.406669 146.82667,7.64 146.24,7.64 C145.679997,7.64 145.186669,7.406669 144.76,6.94 Z M142.28,30.8 C143.053337,30.8 143.606665,30.6066686 143.94,30.22 C144.273335,29.8333314 144.473333,29.340003 144.54,28.74 C144.606667,28.139997 144.64,27.2000064 144.64,25.92 L144.64,16.8 C144.64,16.0266628 144.693333,15.1600048 144.8,14.2 L141.96,14.36 L141.96,12.68 C143.533341,12.68 144.659997,12.5866676 145.34,12.4 C146.020003,12.2133324 146.546665,11.9466684 146.92,11.6 L148.08,11.6 L148.08,27.76 C148.08,28.960006 148.026667,29.8666636 147.92,30.48 L150.44,30.36 L150.44,32 L142.28,32 L142.28,30.8 Z M151.72,30.8 C152.493337,30.8 153.046665,30.6066686 153.38,30.22 C153.713335,29.8333314 153.913333,29.340003 153.98,28.74 C154.046667,28.139997 154.08,27.2000064 154.08,25.92 L154.04,13.72 L150.76,13.8 L150.76,12 L154.04,12 L154.04,11.16 C154.04,8.0666512 154.606661,5.7000082 155.74,4.06 C156.873339,2.4199918 158.706654,1.6 161.24,1.6 C162.253338,1.6 163.219995,1.8533308 164.14,2.36 C165.060005,2.8666692 165.52,3.5999952 165.52,4.56 C165.52,5.093336 165.366668,5.526665 165.06,5.86 C164.753332,6.193335 164.333336,6.36 163.8,6.36 C163.266664,6.36 162.860001,6.1800018 162.58,5.82 C162.299999,5.4599982 162.16,5.0933352 162.16,4.72 C162.16,4.3466648 162.226666,4.0133348 162.36,3.72 C162.173332,3.5066656 161.920002,3.3400006 161.6,3.22 C161.279998,3.0999994 160.960002,3.04 160.64,3.04 C159.493328,3.04 158.680002,3.4999954 158.2,4.42 C157.719998,5.3400046 157.48,6.46666 157.48,7.8 L157.48,12 L162.88,12 L162.88,13.56 L157.48,13.68 L157.52,27.76 C157.52,28.960006 157.466667,29.8666636 157.36,30.48 L159.88,30.36 L159.88,32 L151.72,32 L151.72,30.8 Z" id="serif" fill="#1C3ED3"></path>
            <path d="M0.428,30.74 C1.24000406,30.74 1.82799818,30.537002 2.192,30.131 C2.55600182,29.724998 2.77299965,29.2000032 2.843,28.556 C2.91300035,27.9119968 2.948,26.9320066 2.948,25.616 L2.948,5.75 C2.948,4.68599468 2.98999958,3.77600378 3.074,3.02 L0.092,3.188 L0.092,1.424 C1.7720084,1.424 2.96899643,1.32600098 3.683,1.13 C4.39700357,0.93399902 4.94999804,0.65400182 5.342,0.29 L6.56,0.29 L6.56,13.1 C7.5400049,12.2879959 8.64599384,11.6230026 9.878,11.105 C11.1100062,10.5869974 12.2999943,10.328 13.448,10.328 C15.856012,10.328 17.6059945,11.0839924 18.698,12.596 C19.7900055,14.1080076 20.3499999,16.4879838 20.378,19.736 L20.42,27.548 C20.42,28.8080063 20.3640006,29.7599968 20.252,30.404 L22.898,30.278 L22.898,32 L14.33,32 L14.33,30.74 C15.1420041,30.74 15.7229982,30.537002 16.073,30.131 C16.4230018,29.724998 16.6329996,29.2070031 16.703,28.577 C16.7730004,27.9469969 16.808,26.9600067 16.808,25.616 L16.808,19.736 C16.808,17.327988 16.4300038,15.5290059 15.674,14.339 C14.9179962,13.148994 13.7280081,12.554 12.104,12.554 C11.0679948,12.554 10.0390051,12.7989976 9.017,13.289 C7.99499489,13.7790025 7.17600308,14.4019962 6.56,15.158 L6.56,27.548 C6.56,28.6400055 6.4900007,29.5919959 6.35,30.404 L8.996,30.278 L8.996,32 L0.428,32 L0.428,30.74 Z M27.639,30.614 C26.5329945,29.2419931 25.98,26.8760168 25.98,23.516 L25.98,16.04 C25.98,14.8639941 26.0359994,13.9540032 26.148,13.31 L23.25,13.436 L23.25,11.714 L24.552,11.714 C25.6440055,11.714 26.4699972,11.616001 27.03,11.42 C27.5900028,11.223999 28.065998,10.9440018 28.458,10.58 L29.676,10.58 L29.676,23.39 C29.676,25.8540123 30.0189966,27.6599943 30.705,28.808 C31.3910034,29.9560057 32.531992,30.53 34.128,30.53 C35.1640052,30.53 36.178995,30.2220031 37.173,29.606 C38.167005,28.9899969 38.9719969,28.2200046 39.588,27.296 L39.588,16.502 C39.588,15.1859934 39.6579993,14.1220041 39.798,13.31 L36.774,13.436 L36.774,11.714 L38.076,11.714 C39.1680055,11.714 39.9939972,11.616001 40.554,11.42 C41.1140028,11.223999 41.589998,10.9440018 41.982,10.58 L43.2,10.58 L43.158,26.456 C43.158,28.0800081 43.1020006,29.395995 42.99,30.404 L46.014,30.236 L46.014,32 L40.008,32 C39.8679993,31.1319957 39.7700003,30.2920041 39.714,29.48 C38.7899954,30.4040046 37.7120062,31.166997 36.48,31.769 C35.2479938,32.371003 34.0440059,32.672 32.868,32.672 C30.4879881,32.672 28.7450055,31.9860069 27.639,30.614 Z M51.238,42.584 C49.6699922,42.0519973 48.5220036,41.3520043 47.794,40.484 C47.0659964,39.6159957 46.702,38.6920049 46.702,37.712 C46.702,36.5359941 47.0939961,35.5070044 47.878,34.625 C48.6620039,33.7429956 49.557995,33.0920021 50.566,32.672 C49.6139952,32.3639985 48.8930024,31.9440027 48.403,31.412 C47.9129976,30.8799973 47.668,30.1940042 47.668,29.354 C47.668,28.345995 48.066996,27.4220042 48.865,26.582 C49.663004,25.7419958 50.663994,25.224001 51.868,25.028 C50.5519934,24.4119969 49.5160038,23.5510055 48.76,22.445 C48.0039962,21.3389945 47.626,20.0720071 47.626,18.644 C47.626,17.0199919 48.0529957,15.5780063 48.907,14.318 C49.7610043,13.0579937 50.8669932,12.0780035 52.225,11.378 C53.5830068,10.6779965 55.0039926,10.328 56.488,10.328 C58.3920095,10.328 60.1699917,10.8459948 61.822,11.882 C62.2420021,10.677994 62.9209953,9.69800378 63.859,8.942 C64.7970047,8.18599622 65.8119945,7.808 66.904,7.808 C67.6040035,7.808 68.149998,7.99699811 68.542,8.375 C68.934002,8.75300189 69.13,9.26399678 69.13,9.908 C69.13,10.300002 68.9830015,10.6849981 68.689,11.063 C68.3949985,11.4410019 67.9680028,11.63 67.408,11.63 C66.9319976,11.63 66.5260017,11.4900014 66.19,11.21 C65.8539983,10.9299986 65.6440004,10.5800021 65.56,10.16 C64.8879966,10.2440004 64.356002,10.5449974 63.964,11.063 C63.571998,11.5810026 63.2920008,12.2039964 63.124,12.932 C63.8240035,13.5760032 64.369998,14.3319957 64.762,15.2 C65.154002,16.0680043 65.35,16.9779952 65.35,17.93 C65.35,19.4700077 64.9440041,20.8559938 64.132,22.088 C63.3199959,23.3200062 62.2350068,24.2859965 60.877,24.986 C59.5189932,25.6860035 58.0560078,26.036 56.488,26.036 C56.1239982,26.036 55.6620028,26.0080003 55.102,25.952 C54.6819979,25.8679996 54.2060027,25.826 53.674,25.826 C52.7499954,25.826 51.9730032,26.028998 51.343,26.435 C50.7129968,26.841002 50.398,27.3379971 50.398,27.926 C50.398,28.7380041 50.9089949,29.2769987 51.931,29.543 C52.9530051,29.8090013 54.6959877,29.9839996 57.16,30.068 C60.6040172,30.2360008 63.1869914,30.7889953 64.909,31.727 C66.6310086,32.6650047 67.492,34.2119892 67.492,36.368 C67.492,37.7960071 66.995005,39.0419947 66.001,40.106 C65.006995,41.1700053 63.7190079,41.9819972 62.137,42.542 C60.5549921,43.1020028 58.9100085,43.382 57.202,43.382 C54.793988,43.382 52.8060078,43.1160027 51.238,42.584 Z M60.079,22.928 C60.877004,21.8639947 61.276,20.4780085 61.276,18.77 C61.276,16.8099902 60.8490043,15.1580067 59.995,13.814 C59.1409957,12.4699933 57.9440077,11.798 56.404,11.798 C54.9199926,11.798 53.7580042,12.3509945 52.918,13.457 C52.0779958,14.5630055 51.658,15.9839913 51.658,17.72 C51.658,19.7640102 52.0989956,21.4089938 52.981,22.655 C53.8630044,23.9010062 55.0739923,24.524 56.614,24.524 C58.1260076,24.524 59.280996,23.9920053 60.079,22.928 Z M61.213,41.135 C62.3750058,40.728998 63.2639969,40.1830034 63.88,39.497 C64.4960031,38.8109966 64.804,38.0620041 64.804,37.25 C64.804,35.8219929 64.1250068,34.8420027 62.767,34.31 C61.4089932,33.7779973 59.4000133,33.4700004 56.74,33.386 C54.9759912,33.3299997 53.5340056,33.2180008 52.414,33.05 C51.6579962,33.5540025 51.0700021,34.1699964 50.65,34.898 C50.2299979,35.6260036 50.02,36.3959959 50.02,37.208 C50.02,38.5800069 50.6709935,39.6789959 51.973,40.505 C53.2750065,41.3310041 55.0039892,41.744 57.16,41.744 C58.7000077,41.744 60.0509942,41.541002 61.213,41.135 Z M73.199,31.307 C71.588992,30.3969955 70.3150047,29.1300081 69.377,27.506 C68.4389953,25.8819919 67.97,24.0480102 67.97,22.004 C67.97,19.8199891 68.4319954,17.8390089 69.356,16.061 C70.2800046,14.2829911 71.546992,12.8830051 73.157,11.861 C74.7670081,10.8389949 76.5519902,10.328 78.512,10.328 C80.4440097,10.328 82.2219919,10.7969953 83.846,11.735 C85.4700081,12.6730047 86.7509953,13.9539919 87.689,15.578 C88.6270047,17.2020081 89.096,19.0079901 89.096,20.996 C89.096,23.1240106 88.6270047,25.083991 87.689,26.876 C86.7509953,28.668009 85.477008,30.0819948 83.867,31.118 C82.2569919,32.1540052 80.4720098,32.672 78.512,32.672 C76.5799903,32.672 74.809008,32.2170046 73.199,31.307 Z M83.363,28.472 C84.3290048,26.7919916 84.812,24.7060125 84.812,22.214 C84.812,19.3859859 84.2870052,16.9640101 83.237,14.948 C82.1869947,12.9319899 80.6120105,11.924 78.512,11.924 C76.4399896,11.924 74.8790052,12.7779915 73.829,14.486 C72.7789948,16.1940085 72.254,18.2939875 72.254,20.786 C72.254,22.578009 72.4989976,24.2509922 72.989,25.805 C73.4790024,27.3590078 74.220995,28.6119952 75.215,29.564 C76.209005,30.5160048 77.4199929,30.992 78.848,30.992 C80.8920102,30.992 82.3969952,30.1520084 83.363,28.472 Z" id="hugo" fill="#414648"></path>
        </g>
    </g>
</svg>