<?xml version="1.0" encoding="UTF-8" standalone="no"?>
<svg
   xmlns:dc="http://purl.org/dc/elements/1.1/"
   xmlns:cc="http://creativecommons.org/ns#"
   xmlns:rdf="http://www.w3.org/1999/02/22-rdf-syntax-ns#"
   xmlns:svg="http://www.w3.org/2000/svg"
   xmlns="http://www.w3.org/2000/svg"
   id="svg843"
   version="1.1"
   viewBox="0 0 54 54"
   height="54px"
   width="54px">
  <metadata
     id="metadata847">
    <rdf:RDF>
      <cc:Work
         rdf:about="">
        <dc:format>image/svg+xml</dc:format>
        <dc:type
           rdf:resource="http://purl.org/dc/dcmitype/StillImage" />
        <dc:title>logo-mobile</dc:title>
      </cc:Work>
    </rdf:RDF>
  </metadata>
  <!-- Generator: Sketch 51.3 (57544) - http://www.bohemiancoding.com/sketch -->
  <title
     id="title832">logo-mobile</title>
  <desc
     id="desc834">Created with Sketch.</desc>
  <defs
     id="defs836" />
  <g
     id="layer1"
     transform="matrix(13.069963,0,0,12.825991,-191.37542,-1455.5511)">
    <g
       id="g21"
       transform="matrix(0.02366441,0,0,0.02366441,14.312208,114.08179)">
      <path
         style="fill:#195b14;fill-opacity:1;stroke-width:0.8023501"
         d="m 46.284237,90.350242 c 0,-52.382816 0.185256,-63.28152 1.161569,-68.335634 3.976759,-20.5866273 16.779531,-36.758791 34.059022,-43.022565 15.72804,-5.701376 34.184152,-4.380416 48.049382,3.439036 8.34383,4.705607 17.7954,15.2822064 21.94327,24.5552301 6.14859,13.7458479 5.82357,9.4003739 6.09042,81.4253179 l 0.23809,64.261113 H 138.20201 118.57804 L 118.37623,122.32141 118.17442,91.970058 105.68014,91.74 93.185857,91.509942 V 72.27328 53.036618 h 12.686503 12.6865 l -0.008,-9.838021 c -0.0108,-12.580816 -0.43834,-15.188132 -3.36214,-20.505031 -3.45664,-6.285844 -7.00029,-8.307216 -13.99853,-7.985048 -6.916643,0.318411 -10.813269,2.849334 -13.485102,8.758791 l -1.823347,4.032319 -0.206535,62.586555 -0.206537,62.586557 H 65.876335 46.284237 Z"
         id="path51" />
    </g>
  </g>
</svg>
