<?xml version="1.0" encoding="UTF-8" standalone="no"?>
<svg
   xmlns:dc="http://purl.org/dc/elements/1.1/"
   xmlns:cc="http://creativecommons.org/ns#"
   xmlns:rdf="http://www.w3.org/1999/02/22-rdf-syntax-ns#"
   xmlns:svg="http://www.w3.org/2000/svg"
   xmlns="http://www.w3.org/2000/svg"
   xmlns:sodipodi="http://sodipodi.sourceforge.net/DTD/sodipodi-0.dtd"
   xmlns:inkscape="http://www.inkscape.org/namespaces/inkscape"
   width="116.89628"
   height="43"
   viewBox="0 0 116.89628 43"
   version="1.1"
   id="svg841"
   sodipodi:docname="logo.svg"
   inkscape:version="0.92.4 (5da689c313, 2019-01-14)">
  <metadata
     id="metadata845">
    <rdf:RDF>
      <cc:Work
         rdf:about="">
        <dc:format>image/svg+xml</dc:format>
        <dc:type
           rdf:resource="http://purl.org/dc/dcmitype/StillImage" />
        <dc:title>logo</dc:title>
      </cc:Work>
    </rdf:RDF>
  </metadata>
  <sodipodi:namedview
     pagecolor="#ffffff"
     bordercolor="#666666"
     borderopacity="1"
     objecttolerance="10"
     gridtolerance="10"
     guidetolerance="10"
     inkscape:pageopacity="0"
     inkscape:pageshadow="2"
     inkscape:window-width="2560"
     inkscape:window-height="1346"
     id="namedview843"
     showgrid="false"
     inkscape:zoom="8.3628215"
     inkscape:cx="50.599948"
     inkscape:cy="-0.94609721"
     inkscape:window-x="-11"
     inkscape:window-y="-11"
     inkscape:window-maximized="1"
     inkscape:current-layer="svg841"
     fit-margin-top="0"
     fit-margin-left="20"
     fit-margin-right="20"
     fit-margin-bottom="0" />
  <!-- Generator: Sketch 51.3 (57544) - http://www.bohemiancoding.com/sketch -->
  <title
     id="title831">logo</title>
  <desc
     id="desc833">Created with Sketch.</desc>
  <defs
     id="defs835" />
  <g
     transform="matrix(0.4367447,0,0,0.4367447,13.619301,-6.7131801)"
     id="layer1"
     inkscape:label="Layer 1">
    <path
       style="fill:#cecfce;stroke-width:0.06416523"
       d="m 154.16906,113.77302 c -10.85135,-0.46037 -20.42479,-5.53556 -27.04497,-14.337406 -6.28399,-8.354885 -8.65395,-19.109827 -6.50674,-29.527881 1.0704,-5.193496 3.33584,-10.137666 6.59504,-14.393226 1.91562,-2.501247 4.47819,-5.085513 6.9692,-7.028228 0.91854,-0.71636 2.85085,-2.006237 3.94616,-2.634175 8.766,-5.025549 20.16158,-6.09186 29.96517,-2.803909 4.63624,1.554916 9.02611,4.056642 13.15387,7.49621 1.23553,1.029542 1.74221,1.505192 1.71928,1.613981 -0.0279,0.132519 -11.47274,12.40342 -11.56839,12.40342 -0.0449,0 -0.35205,-0.23203 -0.68259,-0.515621 -4.55033,-3.904076 -8.99198,-5.843897 -13.75484,-6.00722 -3.98405,-0.136617 -7.65763,0.852361 -10.7156,2.884782 -2.06104,1.369841 -4.0917,3.416008 -5.45716,5.498851 -2.47396,3.773724 -3.50625,8.524281 -2.94198,13.538865 0.49367,4.386991 2.23942,8.042735 5.31858,11.137533 3.2759,3.292524 7.1651,4.966268 11.93537,5.136467 4.58168,0.163467 8.59724,-1.32679 11.75507,-4.36255 1.40672,-1.352347 2.54933,-2.908008 3.47375,-4.729562 0.45747,-0.901426 1.03706,-2.25872 1.03706,-2.428584 0,-0.04848 -2.4939,-0.07357 -8.45377,-0.08504 l -8.45377,-0.01628 -0.0163,-7.760048 c -0.013,-6.165657 0,-7.770545 0.0642,-7.811136 0.0443,-0.0281 8.16897,-0.05153 18.05492,-0.05207 16.09472,-8.98e-4 17.98301,0.0093 18.05632,0.09767 0.0652,0.07854 0.0736,0.748821 0.0413,3.288469 -0.0223,1.754399 -0.0697,3.666241 -0.10534,4.248541 -0.43723,7.142303 -1.58023,12.190536 -3.87807,17.128058 -2.84139,6.105489 -6.91836,10.929629 -12.22956,14.470819 -2.62044,1.74716 -5.02038,2.92879 -7.89232,3.88582 -3.00771,1.0023 -5.84939,1.51627 -9.21457,1.66666 -1.51418,0.0677 -1.4981,0.0677 -3.16932,-0.003 z M 14.754049,102.2249 l -0.144372,-0.058 3.85e-4,-26.646686 c 2.97e-4,-17.112703 0.02369,-27.094361 0.06542,-27.897905 0.531111,-10.22805 2.961382,-17.958629 7.403014,-23.548644 0.814836,-1.025511 2.806757,-3.010408 3.7601,-3.746842 1.87952,-1.451881 3.615569,-2.437949 5.774871,-3.280103 6.625067,-2.583855 14.939794,-2.159733 22.233254,1.134084 4.10915,1.855743 7.280213,4.619471 8.08265,7.044405 0.263244,0.795514 0.308319,1.312891 0.192515,2.209718 -0.108982,0.843992 -1.546815,11.692928 -2.820046,21.278191 -0.438306,3.299698 -1.37725,10.373915 -2.086543,15.720484 -2.542358,19.164002 -2.871185,21.609807 -2.914825,21.680421 -0.03085,0.04991 -0.58518,0.0716 -1.830225,0.0716 -1.569384,0 -1.790698,-0.01231 -1.824922,-0.101497 -0.02142,-0.05582 -0.03895,-5.888444 -0.03895,-12.961378 V 60.262904 h -7.502749 c -6.735128,0 -7.513066,-0.01032 -7.603581,-0.100831 -0.09059,-0.09059 -0.100731,-0.909899 -0.09985,-8.068779 5.77e-4,-4.908988 0.02434,-8.004898 0.06182,-8.064196 0.0534,-0.08448 0.964185,-0.09831 7.451622,-0.11309 l 7.390787,-0.01684 -0.04376,-1.041884 c -0.09758,-2.323227 -0.462854,-3.948813 -1.265006,-5.629698 -1.072492,-2.247377 -3.03179,-4.177354 -5.021266,-4.94612 -1.094337,-0.422869 -1.638726,-0.526387 -2.768222,-0.526387 -0.900864,0 -1.103506,0.02039 -1.65401,0.166393 -2.73712,0.725953 -4.879003,3.015138 -6.002886,6.415714 -0.483442,1.462771 -0.737496,2.725762 -0.983605,4.88985 -0.0628,0.552194 -0.08461,7.043225 -0.100188,29.822772 l -0.01992,29.116962 -0.163563,0.0622 c -0.212513,0.0808 -17.326701,0.0769 -17.527947,-0.004 z m 80.76799,-16.169853 c -2.710731,-0.331837 -4.600385,-1.653172 -6.084244,-4.254393 -0.637366,-1.117309 -1.260469,-2.740953 -1.641488,-4.2773 -0.0919,-0.370554 -1.81107,-9.032862 -3.820373,-19.249572 -2.009308,-10.216711 -3.741577,-18.994516 -3.84949,-19.506233 -0.533772,-2.5311 -1.892117,-8.573461 -1.939382,-8.627017 -0.02959,-0.03353 -0.05395,0.197469 -0.05413,0.513322 -8.35e-4,1.417446 -0.235423,4.871926 -0.520522,7.664538 -0.13732,1.345053 -0.587811,8.439631 -1.556571,24.51373 -0.749829,12.441471 -1.384904,22.655775 -1.411282,22.698451 -0.0604,0.09773 -17.527067,0.11458 -17.587396,0.01697 -0.0594,-0.09611 7.384066,-57.029224 7.596702,-58.105154 0.962947,-4.872546 3.397324,-8.445179 6.966625,-10.224058 2.790443,-1.390712 6.645195,-1.621453 9.797139,-0.586447 3.968062,1.302995 6.937879,4.640254 8.50677,9.559282 0.140702,0.441136 1.863429,7.500917 3.828291,15.688402 1.964861,8.187485 3.58613,14.926562 3.60282,14.975726 0.01669,0.04916 0.04152,0.07804 0.05518,0.06417 0.01366,-0.01387 1.298055,-6.695203 2.854222,-14.847396 1.55617,-8.152194 2.87384,-15.009675 2.92816,-15.238846 0.53014,-2.236566 1.66065,-4.508507 3.09879,-6.22754 2.49858,-2.986612 5.4706,-4.447645 9.34598,-4.594448 3.67255,-0.139119 6.65558,0.949094 8.9875,3.278654 1.17184,1.170662 1.94372,2.29791 2.66585,3.8932 0.43626,0.963757 1.01628,2.735161 1.30011,3.970561 0.19068,0.829988 3.31242,18.645342 3.31242,18.903562 0,0.04621 -0.36814,0.325654 -0.8181,0.620984 -3.45868,2.270103 -6.74394,5.859516 -10.3781,11.338935 -0.64367,0.970499 -1.42607,2.183222 -1.73867,2.69494 -0.31259,0.511718 -0.59802,0.951008 -0.6343,0.9762 -0.0363,0.02519 -0.098,0.01075 -0.13713,-0.03208 -0.0592,-0.06481 -1.83921,-18.190652 -2.43355,-24.781504 -0.18668,-2.070137 -0.47824,-6.025164 -0.47865,-6.492944 0,-0.183194 -0.0224,-0.346743 -0.0494,-0.363441 -0.027,-0.0167 -0.14454,0.436368 -0.26117,1.006815 -0.64268,3.143463 -1.09196,5.210849 -1.48734,6.844131 -0.29547,1.220523 -1.63942,7.942591 -4.04101,20.212051 -1.97908,10.110838 -3.67219,18.713908 -3.76247,19.117931 -0.49248,2.203948 -1.44248,4.398059 -2.5436,5.874739 -1.13995,1.528743 -2.63005,2.464676 -4.550927,2.85842 -0.757941,0.155363 -2.297246,0.21693 -3.067241,0.122671 z"
       id="path3898"
       inkscape:connector-curvature="0"
       sodipodi:nodetypes="ccscscsccscscsccsccsccccccccscccccccccsssssssscssscscccsccssscscscccccscsccccscccsscscssccscccscccccccccccscscc" />
    <path
       style="fill:#969799;stroke-width:0.06416479"
       d="m 154.23227,113.6671 c -3.9849,-0.15688 -8.10187,-1.02319 -11.73494,-2.46932 -11.50467,-4.57937 -19.98109,-15.209921 -22.04209,-27.643685 -0.61063,-3.683836 -0.64556,-7.818205 -0.0978,-11.576247 0.79828,-5.476853 2.94032,-10.8125 6.15955,-15.342892 2.09659,-2.95051 4.92625,-5.89733 7.7921,-8.114708 0.92162,-0.713082 2.85919,-2.001871 3.88198,-2.582135 6.53254,-3.706138 14.41758,-5.281355 22.23781,-4.442511 7.14716,0.766646 13.78141,3.577114 19.87575,8.419958 1.24678,0.990747 2.55312,2.142137 2.53241,2.232036 -0.0266,0.115589 -11.36022,12.28262 -11.44271,12.284156 -0.0364,6.81e-4 -0.35401,-0.246663 -0.70582,-0.549643 -2.66502,-2.295223 -5.64519,-4.061416 -8.44486,-5.004833 -3.50747,-1.181934 -7.41706,-1.290309 -11.0913,-0.307454 -1.7406,0.465607 -3.84006,1.453539 -5.35775,2.521157 -1.28796,0.906009 -3.09212,2.611517 -4.06654,3.84415 -2.98482,3.775825 -4.35467,8.308421 -4.10867,13.594907 0.13282,2.854506 0.74559,5.31368 1.91538,7.686898 0.98241,1.993094 2.0059,3.404295 3.65308,5.036937 2.91247,2.886761 6.10532,4.447781 10.18886,4.981446 1.26844,0.165764 3.62649,0.149479 4.83377,-0.03338 1.79957,-0.272572 3.16977,-0.694694 4.71612,-1.452903 3.75832,-1.842807 6.58538,-5.022083 8.31547,-9.351487 0.22262,-0.557085 0.28627,-0.782913 0.23448,-0.832025 -0.009,-0.0084 -3.82743,-0.03002 -8.48579,-0.04812 l -8.46975,-0.03291 -0.0176,-7.539364 c -0.01,-4.14665 -0.002,-7.604381 0.0173,-7.68385 l 0.0349,-0.14448 17.98093,0.01615 17.98094,0.01616 -0.004,3.176158 c -0.007,4.591691 -0.21787,7.499069 -0.80446,11.065739 -1.1613,7.061131 -3.94337,13.24776 -8.3401,18.546315 -0.71735,0.8645 -3.06056,3.19745 -3.97263,3.95525 -6.64044,5.5173 -14.39429,8.11978 -23.16349,7.77454 z M 14.691932,74.780783 c 0.01595,-20.961895 0.03932,-27.60071 0.09971,-28.312941 0.550621,-6.494796 1.424819,-10.706391 3.089925,-14.886234 1.539388,-3.864261 3.479784,-6.895043 6.059822,-9.465077 3.303874,-3.291065 7.55639,-5.460616 12.320503,-6.285683 5.589578,-0.968023 11.978147,-0.105262 17.42112,2.352683 3.859804,1.743016 6.755567,4.086945 7.891241,6.387437 0.538773,1.091372 0.627496,1.692749 0.452119,3.064505 -0.06768,0.52936 -1.69815,12.829751 -3.623273,27.334204 -1.925122,14.504453 -3.631699,27.382328 -3.792389,28.617501 -0.160693,1.235171 -0.318366,2.310734 -0.350385,2.390138 l -0.05822,0.144371 h -1.72696 c -1.51557,0 -1.731728,-0.01242 -1.765908,-0.101496 -0.02142,-0.05582 -0.03895,-5.888403 -0.03895,-12.96129 V 60.199108 h -7.537106 c -7.386045,0 -7.538436,-0.0025 -7.603528,-0.124111 -0.07193,-0.134402 -0.09885,-15.757916 -0.02748,-15.943923 0.0352,-0.09173 0.744327,-0.101496 7.371094,-0.101496 6.50767,0 7.341323,-0.01105 7.41374,-0.09831 0.101635,-0.12246 0.04017,-1.900045 -0.100613,-2.910021 -0.480679,-3.448283 -2.240302,-6.430752 -4.745542,-8.043448 -3.730926,-2.401705 -7.968746,-1.465828 -10.501963,2.319241 -1.334564,1.994072 -2.003185,4.150721 -2.438776,7.866317 -0.05594,0.47714 -0.08467,8.11853 -0.11205,29.804549 l -0.03683,29.162904 -8.84007,0.0163 -8.84007,0.0163 z M 95.713975,86.01735 c -2.70563,-0.345444 -4.312502,-1.331433 -5.790404,-3.553049 -1.024789,-1.540494 -1.825468,-3.6408 -2.323779,-6.095656 -0.08954,-0.441133 -1.737076,-8.814639 -3.661186,-18.607791 -1.924102,-9.793153 -3.629847,-18.426526 -3.790541,-19.185275 -0.248292,-1.172401 -1.822556,-8.280273 -1.929082,-8.709928 -0.08205,-0.330926 -0.150345,-0.02398 -0.150653,0.677075 -7.05e-4,1.58088 -0.202581,4.580765 -0.5449,8.097018 -0.166,1.705063 -0.553563,7.836301 -1.541271,24.382624 -0.725729,12.157625 -1.334069,22.198613 -1.351862,22.313308 l -0.03235,0.208535 h -8.71972 c -4.795844,0 -8.734909,-0.02458 -8.753476,-0.05462 -0.04365,-0.07062 7.361176,-56.85717 7.535666,-57.789943 0.510996,-2.731685 1.492737,-5.109505 2.871586,-6.955135 0.44268,-0.592543 1.493218,-1.687678 2.064843,-2.152494 1.371889,-1.115558 3.036073,-1.898726 4.778589,-2.248813 2.318576,-0.46582 4.718924,-0.363121 6.857228,0.293389 3.990068,1.225048 7.083049,4.658544 8.636446,9.587262 0.144595,0.458779 1.015035,3.966989 1.934318,7.796024 0.919283,3.829034 2.537199,10.57115 3.595372,14.98248 1.058174,4.41133 1.940703,8.063911 1.961178,8.116847 0.02746,0.071 0.05128,0.05416 0.0908,-0.06417 0.02947,-0.08823 1.325886,-6.830343 2.880933,-14.98248 1.55505,-8.152138 2.85731,-14.952003 2.89391,-15.110811 0.95897,-4.161462 3.72379,-7.888002 7.1165,-9.591923 1.64924,-0.828293 3.25215,-1.217833 5.3271,-1.294591 4.11669,-0.152285 7.46935,1.295988 9.82803,4.245458 1.29961,1.625138 2.40926,4.128088 3.02955,6.833551 0.18663,0.813981 3.31195,18.644154 3.31195,18.894897 0,0.04152 -0.22378,0.216402 -0.49727,0.388634 -1.53012,0.963557 -2.96442,2.150659 -4.54242,3.75955 -2.62145,2.67275 -4.91351,5.708528 -7.73587,10.245905 -0.66365,1.066911 -0.8349,1.270544 -0.87394,1.039181 -0.0231,-0.13711 -2.16721,-22.451919 -2.32426,-24.190129 -0.19724,-2.18308 -0.31071,-3.62332 -0.45197,-5.737152 -0.0706,-1.055641 -0.1402,-1.931261 -0.15476,-1.945821 -0.0444,-0.04445 -0.0828,0.123846 -0.61053,2.678118 -0.68833,3.331762 -0.7791,3.74449 -1.25588,5.710668 -0.25902,1.068146 -1.75019,8.535508 -4.01052,20.083582 -1.979,10.110768 -3.6719,18.715268 -3.762,19.12111 -0.25259,1.137821 -0.80462,2.730847 -1.30615,3.76922 -1.66655,3.450443 -3.90129,4.980599 -7.380071,5.053247 -0.547006,0.01142 -1.095615,0.0079 -1.219132,-0.0079 z"
       id="path3896"
       inkscape:connector-curvature="0"
       sodipodi:nodetypes="ccsccccscccccsscccscccscscccccccsscccscssssscscccscscsccsccsscscccscccsccccsccsccccsssssccsccsscsccscccccccccccc" />
    <path
       style="fill:#679064;stroke-width:0.06416523"
       d="m 14.704668,102.01867 c -0.01975,-0.0795 -0.0252,-12.214089 -0.01211,-26.965678 0.01756,-19.801608 0.04366,-27.098154 0.09972,-27.879797 0.206129,-2.87408 0.443628,-4.99443 0.779641,-6.96053 1.328898,-7.775699 4.099749,-13.757369 8.339574,-18.00334 3.768363,-3.773825 8.33381,-5.906752 14.088839,-6.582152 1.341728,-0.157464 4.537757,-0.159008 5.932861,-0.0029 4.030937,0.451144 7.537489,1.462731 10.811842,3.119055 2.16392,1.094614 3.609129,2.104622 5.008602,3.500343 1.171323,1.168184 1.731114,1.999496 2.113521,3.138664 0.325888,0.970806 0.533706,-0.819626 -2.942625,25.351999 -1.748484,13.163499 -3.515675,26.474578 -3.927092,29.580176 -0.411415,3.105598 -0.777202,5.682634 -0.812859,5.726748 -0.04879,0.06037 -0.463661,0.07996 -1.677146,0.07923 -0.886773,-6.42e-4 -1.648338,-0.02386 -1.692365,-0.05181 -0.06343,-0.04028 -0.08341,-2.733625 -0.09625,-12.976438 l -0.0162,-12.925605 -7.571498,-0.03208 -7.571498,-0.03208 V 52.08182 44.061165 l 7.379002,-0.03208 7.379002,-0.03208 0.02026,-0.898314 c 0.120883,-5.360919 -2.93486,-10.078796 -7.27705,-11.235313 -3.787633,-1.008815 -7.397976,1.101947 -9.232913,5.397958 -0.686309,1.606806 -1.111965,3.499337 -1.392278,6.190264 -0.05793,0.556091 -0.08569,7.875904 -0.112657,29.708507 l -0.03579,28.970603 -8.773316,0.0163 -8.773316,0.0163 z M 95.16913,85.892106 c -1.945278,-0.298561 -3.468176,-1.189027 -4.713405,-2.756019 -1.025367,-1.290318 -1.936738,-3.277073 -2.503766,-5.458146 -0.10176,-0.391408 -1.777108,-8.808283 -3.722995,-18.704169 -1.945895,-9.895887 -3.682437,-18.699944 -3.858981,-19.564571 -0.515484,-2.524552 -2.173642,-9.907847 -2.240098,-9.974487 -0.0384,-0.0385 -0.06101,-0.0385 -0.0614,0 -6.42e-4,0.03353 -0.02925,0.840565 -0.06427,1.793419 -0.09516,2.589716 -0.30644,5.422542 -0.607728,8.14828 -0.05066,0.458394 -0.703116,10.997534 -1.449884,23.420313 -0.769893,12.807433 -1.385629,22.621597 -1.42212,22.667077 -0.09575,0.119322 -17.298783,0.117563 -17.344578,-0.0018 -0.041,-0.106848 7.367737,-56.901942 7.543364,-57.827152 0.536909,-2.828445 1.610368,-5.318601 3.080265,-7.145452 2.386626,-2.96618 5.427166,-4.372183 9.455075,-4.372183 2.68767,0 5.071415,0.69862 7.046247,2.065087 2.558743,1.770503 4.578479,4.783943 5.625912,8.393847 0.107515,0.370554 1.815234,7.415898 3.794924,15.656319 1.97969,8.240421 3.625914,15.009068 3.658266,15.041437 0.03568,0.03569 0.07133,0.02306 0.09059,-0.03208 0.01747,-0.05001 1.304935,-6.77535 2.861032,-14.945189 1.5561,-8.169839 2.90224,-15.153924 2.99141,-15.520188 0.48722,-2.001153 1.51068,-4.139058 2.73755,-5.718507 2.2678,-2.91952 5.08992,-4.514993 8.636,-4.882324 0.92426,-0.09574 2.97857,-0.0423 3.76057,0.09783 1.34898,0.241734 2.09835,0.486026 3.27242,1.066813 1.80925,0.89499 3.18311,2.122227 4.37733,3.910176 1.07194,1.604875 1.99089,4.010871 2.51258,6.578477 0.22274,1.096261 3.1529,17.999571 3.15015,18.172346 -0.001,0.07243 -0.2295,0.257757 -0.63398,0.514536 -2.78759,1.769682 -5.78908,4.805498 -8.70682,8.806384 -0.86548,1.186775 -2.51336,3.647973 -3.3295,4.972806 -0.66241,1.075263 -0.77605,1.234989 -0.83603,1.175014 -0.0375,-0.03755 -2.13797,-21.691763 -2.43238,-25.076566 -0.16035,-1.843383 -0.37053,-4.670145 -0.458,-6.159863 -0.0444,-0.755997 -0.10624,-1.031911 -0.17852,-0.796476 -0.0207,0.06751 -0.29967,1.393212 -0.61988,2.946011 -0.61043,2.9602 -0.93245,4.409647 -1.34712,6.063615 -0.13714,0.547009 -1.85367,9.19488 -3.81452,19.21749 -1.96083,10.022611 -3.64065,18.583858 -3.7329,19.024994 -0.62629,2.994586 -1.78314,5.490934 -3.26741,7.050644 -1.45704,1.531098 -3.348357,2.263268 -5.803682,2.24672 -0.476427,-0.0032 -1.1261,-0.04572 -1.443718,-0.09446 z"
       id="path3894"
       inkscape:connector-curvature="0"
       sodipodi:nodetypes="cssssscsscsscccsccccccccsscscccccscscccccsccscsccsccscscccssccccccccccccsccc" />
    <path
       style="fill:#5c5d5b;stroke-width:0.06416523"
       d="m 14.738654,76.095909 c 6.48e-4,-25.967235 0.01371,-27.720248 0.226989,-30.46268 0.706369,-9.082729 3.122095,-16.277718 7.184778,-21.399107 2.960964,-3.732571 6.932347,-6.395514 11.484166,-7.70051 3.748936,-1.074812 7.92551,-1.281312 12.191477,-0.602777 5.62233,0.894273 11.111907,3.42949 14.064382,6.495264 0.992295,1.030373 1.600168,1.968542 1.942656,2.998223 0.303627,0.91285 0.403419,0.0092 -1.983726,17.963124 -1.203566,9.052111 -2.968275,22.33402 -3.921576,29.51535 -0.9533,7.181335 -1.755732,13.07943 -1.783182,13.10688 -0.02745,0.02745 -0.784253,0.04218 -1.681787,0.03274 l -1.631879,-0.01717 -0.0162,-12.890829 c -0.01181,-9.398865 -0.03567,-12.914284 -0.08806,-12.97742 -0.05957,-0.07178 -1.36026,-0.08659 -7.603422,-0.08659 h -7.531561 v -7.988571 -7.988572 h 7.309589 c 4.020274,0 7.355262,-0.01753 7.411084,-0.03895 0.08576,-0.03291 0.101496,-0.176104 0.101496,-0.923597 0,-5.713936 -3.072367,-10.290841 -7.656295,-11.405582 -0.714236,-0.173692 -2.528906,-0.155446 -3.221279,0.03239 -1.912909,0.518952 -3.45879,1.678203 -4.684669,3.513018 -1.249515,1.87019 -1.949588,4.026749 -2.384995,7.34692 -0.106825,0.814587 -0.11556,2.612567 -0.146519,30.157663 l -0.03292,29.291434 -8.774595,0.0163 -8.774596,0.0163 6.48e-4,-26.003189 z m 80.719219,9.830025 C 94.240409,85.775222 92.987762,85.30706 92.029506,84.644612 90.256152,83.418696 88.732388,80.77505 87.924894,77.523354 87.832875,77.1528 86.099541,68.418307 84.073042,58.113369 82.046544,47.808431 80.283289,38.886254 80.154689,38.286309 c -0.499263,-2.329271 -1.964662,-8.846941 -2.003065,-8.909081 -0.08915,-0.144252 -0.137904,0.225527 -0.142517,1.080922 -0.0095,1.763946 -0.213728,4.842553 -0.517179,7.796077 -0.123633,1.203362 -0.612848,8.947664 -1.538265,24.350709 -0.746338,12.42239 -1.370281,22.651132 -1.38654,22.730536 l -0.02956,0.144372 h -8.698804 -8.69881 l 0.03843,-0.24062 c 0.02114,-0.13234 1.684414,-12.873151 3.696164,-28.312912 2.01175,-15.439761 3.717455,-28.433223 3.790456,-28.874359 0.835957,-5.051572 3.322719,-8.871263 6.955486,-10.683718 1.705595,-0.850954 3.508471,-1.251016 5.637692,-1.251016 2.513968,0 4.853092,0.658955 6.778281,1.909508 1.529134,0.993288 3.072199,2.640763 4.084617,4.361009 0.728487,1.237812 1.425848,2.882795 1.843609,4.34883 0.0905,0.317618 1.783594,7.318659 3.762412,15.557868 1.978817,8.23921 3.61136,14.993885 3.627863,15.010389 0.0165,0.0165 0.05652,0.0031 0.08892,-0.02988 0.0324,-0.03294 1.346544,-6.809333 2.920301,-15.058654 1.57377,-8.249323 2.93108,-15.265792 3.01621,-15.592154 1.06948,-4.099295 3.73548,-7.58785 7.06006,-9.238392 1.58428,-0.786541 3.21438,-1.175544 5.22947,-1.247946 4.21272,-0.151361 7.57855,1.353117 9.96467,4.454066 1.22059,1.586262 2.23911,3.975008 2.86465,6.718525 0.15151,0.664528 3.27614,18.507368 3.27614,18.708057 0,0.02892 -0.41146,0.328059 -0.91435,0.664748 -2.39621,1.60426 -4.54065,3.666952 -6.95433,6.689212 -1.50006,1.878293 -3.28701,4.443866 -4.83281,6.938623 -0.65846,1.062674 -0.83736,1.298729 -0.83736,1.104806 0,-0.03642 -0.50446,-5.298768 -1.12102,-11.694115 -1.30633,-13.550055 -1.50432,-15.791373 -1.73711,-19.665172 -0.0412,-0.68641 -0.10591,-0.923705 -0.18368,-0.674097 -0.0194,0.06227 -0.27949,1.29707 -0.57796,2.743996 -0.72708,3.524616 -0.80922,3.898762 -1.28898,5.87112 -0.2647,1.088229 -1.70865,8.318529 -4.0109,20.08372 -1.97851,10.110838 -3.67079,18.715397 -3.76062,19.121242 -0.24039,1.085939 -0.80894,2.735101 -1.28276,3.720788 -1.64973,3.431917 -3.8535,4.950811 -7.307749,5.03667 -0.564654,0.01404 -1.243201,-0.0013 -1.507883,-0.03405 z"
       id="path3892"
       inkscape:connector-curvature="0"
       sodipodi:nodetypes="cssssscsssccscscccscsccsssccccccccsccccscccccsssssccsccccssccscccsscccccccccc" />
    <path
       style="fill:#343233;stroke-width:0.06416523"
       d="m 14.777043,101.99738 c -0.06412,-0.1671 -0.04078,-49.976462 0.02456,-52.417988 0.111588,-4.16951 0.443349,-7.419131 1.090924,-10.685664 1.86749,-9.420108 6.036608,-16.185862 12.31305,-19.981939 6.153893,-3.721958 14.382937,-4.382779 22.39395,-1.798315 6.541915,2.110513 11.396327,6.15793 11.387877,9.494762 -9.76e-4,0.385414 -0.614264,5.176565 -1.843911,14.405096 -1.826805,13.710199 -2.693653,20.231016 -4.499491,33.847165 -0.514849,3.881997 -1.057672,7.967719 -1.206273,9.079381 l -0.270185,2.021205 -1.684182,0.01711 -1.684181,0.01711 -0.0162,-12.946402 -0.0162,-12.946403 -7.571498,-0.03208 -7.571497,-0.03208 v -7.95649 -7.95649 l 7.379002,-0.03208 7.379002,-0.03208 0.01934,-1.026644 c 0.01064,-0.564654 -0.01308,-1.315387 -0.0527,-1.668296 -0.327552,-2.917423 -1.532119,-5.50473 -3.408354,-7.320854 -2.854157,-2.762714 -6.62677,-3.29417 -9.574477,-1.348779 -2.76485,1.824712 -4.446946,5.263791 -4.915181,10.049186 -0.03971,0.405845 -0.0902,0.824523 -0.112188,0.930396 -0.02199,0.105872 -0.05691,13.287017 -0.07759,29.291432 l -0.03761,29.098941 -8.703478,0.0163 c -7.895016,0.0148 -8.707103,0.007 -8.742513,-0.0854 z M 95.16913,85.827941 C 94.50946,85.726694 93.682306,85.484124 93.10453,85.22249 90.801864,84.179747 89.007163,81.51954 88.013198,77.675817 87.911682,77.283248 86.139451,68.375508 84.074916,57.880842 81.059515,42.552675 80.112558,37.860242 79.26038,34.023593 78.676926,31.396772 78.171149,29.219149 78.13643,29.18443 c -0.04139,-0.04139 -0.07418,-0.03182 -0.09522,0.02781 -0.01765,0.05001 -0.06272,0.94273 -0.100161,1.983811 -0.09574,2.662721 -0.239087,4.655427 -0.546958,7.603581 -0.09146,0.875852 -0.704021,10.631539 -1.506824,23.9978 -0.74399,12.3871 -1.365019,22.558093 -1.380053,22.602207 -0.02169,0.06363 -1.803974,0.08021 -8.623711,0.08021 -5.278666,0 -8.610715,-0.02322 -8.633541,-0.06015 -0.03545,-0.05736 7.239121,-56.034812 7.446907,-57.303577 1.005174,-6.137641 4.391745,-10.367303 9.266615,-11.573536 1.360637,-0.336674 3.375541,-0.45965 4.843513,-0.295617 2.314979,0.258679 4.305596,1.051886 6.029023,2.402404 0.584577,0.458089 1.786014,1.67163 2.225725,2.248159 1.223708,1.604443 2.271591,3.758939 2.871157,5.903202 0.108548,0.3882 1.801452,7.390232 3.762008,15.560071 1.960562,8.169839 3.5799,14.904784 3.598527,14.966543 0.06856,0.227251 0.208294,0.113939 0.276944,-0.224579 0.03758,-0.185277 1.339682,-7.006844 2.893569,-15.159038 1.55389,-8.152194 2.89738,-15.088354 2.98554,-15.41369 0.28098,-1.036914 0.60159,-1.884616 1.08675,-2.873404 0.78772,-1.605409 1.62579,-2.777123 2.86838,-4.010279 1.80066,-1.787004 3.82114,-2.832934 6.34034,-3.282162 1.07136,-0.191047 3.08829,-0.234933 4.21366,-0.09168 1.91725,0.244046 3.51974,0.828961 4.99708,1.823958 2.72654,1.836332 4.52574,4.875892 5.51312,9.313834 0.1962,0.881852 3.24241,18.319058 3.24241,18.560301 0,0.05283 -0.41146,0.371345 -0.91436,0.707812 -2.69091,1.800379 -5.19931,4.325204 -7.95008,8.002114 -1.42058,1.898875 -3.18111,4.515529 -4.22988,6.286842 l -0.28413,0.479887 -0.0488,-0.255309 c -0.043,-0.224838 -1.83905,-18.790819 -2.25933,-23.354795 -0.21453,-2.329673 -0.3912,-4.594393 -0.51558,-6.60902 -0.0566,-0.917563 -0.11711,-1.762138 -0.13438,-1.876833 -0.0302,-0.200603 -0.1094,-0.26831 -0.18008,-0.153953 -0.0185,0.03002 -0.30671,1.379897 -0.64036,2.999725 -0.65745,3.191867 -0.90123,4.294829 -1.35296,6.12132 -0.16147,0.652881 -1.94129,9.603932 -3.95515,19.891225 -2.01386,10.287292 -3.74664,19.036223 -3.85062,19.442068 -0.83708,3.267371 -2.313,5.781429 -4.11081,7.002301 -0.51989,0.35305 -1.449267,0.786653 -2.041077,0.95227 -1.142512,0.319735 -2.835493,0.411845 -4.074491,0.221685 z"
       id="path3890"
       inkscape:connector-curvature="0"
       sodipodi:nodetypes="csssssssscccccccccccccssccsccccccsscscccscsccsssccsccscccsccsscccccscccccsccccc" />
    <path
       style="fill:#195b14;stroke-width:0.06416523"
       d="m 14.777043,101.99738 c -0.06412,-0.1671 -0.04078,-49.976462 0.02456,-52.417988 0.111588,-4.16951 0.443349,-7.419131 1.090924,-10.685664 1.86749,-9.420108 6.036608,-16.185862 12.31305,-19.981939 6.153893,-3.721958 14.382937,-4.382779 22.39395,-1.798315 6.541915,2.110513 11.396327,6.15793 11.387877,9.494762 -9.76e-4,0.385414 -0.614264,5.176565 -1.843911,14.405096 -1.826805,13.710199 -2.693653,20.231016 -4.499491,33.847165 -0.514849,3.881997 -1.057672,7.967719 -1.206273,9.079381 l -0.270185,2.021205 -1.684182,0.01711 -1.684181,0.01711 -0.0162,-12.946402 -0.0162,-12.946403 -7.571498,-0.03208 -7.571497,-0.03208 v -7.95649 -7.95649 l 7.379002,-0.03208 7.379002,-0.03208 0.01934,-1.026644 c 0.01064,-0.564654 -0.01308,-1.315387 -0.0527,-1.668296 -0.327552,-2.917423 -1.532119,-5.50473 -3.408354,-7.320854 -2.854157,-2.762714 -6.62677,-3.29417 -9.574477,-1.348779 -2.76485,1.824712 -4.446946,5.263791 -4.915181,10.049186 -0.03971,0.405845 -0.0902,0.824523 -0.112188,0.930396 -0.02199,0.105872 -0.05691,13.287017 -0.07759,29.291432 l -0.03761,29.098941 -8.703478,0.0163 c -7.895016,0.0148 -8.707103,0.007 -8.742513,-0.0854 z M 95.16913,85.774234 C 94.0361,85.584825 93.072171,85.222959 92.243497,84.675937 90.426356,83.476413 88.85273,80.81473 88.052711,77.587519 87.850193,76.77058 86.702071,70.973392 81.692435,45.472816 c -0.658631,-3.352633 -1.367579,-6.875305 -1.575443,-7.828159 -0.87239,-3.999128 -1.901998,-8.569877 -1.938714,-8.606594 -0.02171,-0.02172 -0.0799,-0.02398 -0.129299,-0.005 -0.07125,0.02734 -0.09891,0.324053 -0.133842,1.435604 -0.08627,2.745364 -0.237835,4.959489 -0.552707,8.074324 -0.1185,1.17227 -0.425948,5.813861 -0.830908,12.544305 -0.353544,5.875932 -0.960707,15.964115 -1.349247,22.418186 -0.38854,6.454068 -0.706434,11.774168 -0.706434,11.822446 0,0.07382 -1.367078,0.08777 -8.598141,0.08777 -6.201883,0 -8.598142,-0.01964 -8.598142,-0.07047 0,-0.03875 1.674872,-12.909501 3.721936,-28.601656 2.240628,-17.175952 3.796157,-28.891579 3.908421,-29.436704 0.860161,-4.176622 2.791085,-7.317526 5.68393,-9.245655 1.832052,-1.221094 3.995299,-1.816362 6.596263,-1.815122 1.211703,5.78e-4 1.925522,0.06508 2.900192,0.262052 4.296985,0.868395 7.690363,4.165531 9.421304,9.154085 0.412942,1.190092 -0.170551,-1.195708 6.461433,26.419624 0.711926,2.964434 1.327591,5.410492 1.368144,5.435684 0.04055,0.02519 0.10842,0.01075 0.150814,-0.03208 0.04239,-0.04284 0.917238,-4.481226 1.944098,-9.863085 4.299867,-22.535982 3.988477,-20.96034 4.360657,-22.065101 0.77365,-2.296567 2.04895,-4.320524 3.76492,-5.97511 2.00441,-1.932709 4.11981,-2.928022 6.95159,-3.27078 0.7996,-0.09678 2.70565,-0.08069 3.54353,0.02991 1.4345,0.189366 2.50031,0.514148 3.72117,1.133945 0.98958,0.502385 1.72314,1.029265 2.57595,1.850194 1.87324,1.803202 3.08598,4.132099 3.92586,7.539118 0.18782,0.761895 0.80967,4.18627 1.82606,10.055596 0.84768,4.89514 1.54123,8.955305 1.54123,9.022588 0,0.0845 -0.16849,0.225663 -0.54476,0.456405 -2.20213,1.350447 -4.75703,3.772153 -7.21378,6.83769 -1.55607,1.941657 -3.48703,4.709014 -4.91409,7.042613 -0.31762,0.519384 -0.59914,0.9447 -0.62561,0.945147 -0.0265,4.5e-4 -0.0481,-0.06562 -0.0481,-0.146828 0,-0.0812 -0.48994,-5.228056 -1.08875,-11.437454 -1.31039,-13.588025 -1.49594,-15.683194 -1.70453,-19.246303 -0.0733,-1.252867 -0.0941,-1.379553 -0.22636,-1.379553 -0.0739,0 -0.13518,0.05698 -0.15539,0.144372 -0.0183,0.0794 -0.33471,1.605726 -0.70302,3.391826 -0.36831,1.786099 -0.87134,4.081611 -1.11785,5.101136 -0.52598,2.175326 -0.27817,0.935661 -4.4365,22.194064 -1.80174,9.21092 -3.36006,17.09627 -3.46293,17.523001 -0.75692,3.139785 -2.08709,5.59888 -3.74744,6.927928 -0.82717,0.662121 -1.873017,1.149989 -3.023867,1.410557 -0.622885,0.141035 -2.773171,0.182563 -3.464923,0.06692 z"
       id="path3888"
       inkscape:connector-curvature="0" />
    <path
       style="fill:#1e1c1d;stroke-width:0.06416523"
       d="M 95.16913,85.774234 C 94.0361,85.584825 93.072171,85.222959 92.243497,84.675937 90.426356,83.476413 88.85273,80.81473 88.052711,77.587519 87.850193,76.77058 86.702071,70.973392 81.692435,45.472816 c -0.658631,-3.352633 -1.367579,-6.875305 -1.575443,-7.828159 -0.87239,-3.999128 -1.901998,-8.569877 -1.938714,-8.606594 -0.02171,-0.02172 -0.0799,-0.02398 -0.129299,-0.005 -0.07125,0.02734 -0.09891,0.324053 -0.133842,1.435604 -0.08627,2.745364 -0.237835,4.959489 -0.552707,8.074324 -0.1185,1.17227 -0.425948,5.813861 -0.830908,12.544305 -0.353544,5.875932 -0.960707,15.964115 -1.349247,22.418186 -0.38854,6.454068 -0.706434,11.774168 -0.706434,11.822446 0,0.07382 -1.367078,0.08777 -8.598141,0.08777 -6.201883,0 -8.598142,-0.01964 -8.598142,-0.07047 0,-0.03875 1.674872,-12.909501 3.721936,-28.601656 2.240628,-17.175952 3.796157,-28.891579 3.908421,-29.436704 0.860161,-4.176622 2.791085,-7.317526 5.68393,-9.245655 1.832052,-1.221094 3.995299,-1.816362 6.596263,-1.815122 1.211703,5.78e-4 1.925522,0.06508 2.900192,0.262052 4.296985,0.868395 7.690363,4.165531 9.421304,9.154085 0.412942,1.190092 -0.170551,-1.195708 6.461433,26.419624 0.711926,2.964434 1.327591,5.410492 1.368144,5.435684 0.04055,0.02519 0.10842,0.01075 0.150814,-0.03208 0.04239,-0.04284 0.917238,-4.481226 1.944098,-9.863085 4.299867,-22.535982 3.988477,-20.96034 4.360657,-22.065101 0.77365,-2.296567 2.04895,-4.320524 3.76492,-5.97511 2.00441,-1.932709 4.11981,-2.928022 6.95159,-3.27078 0.7996,-0.09678 2.70565,-0.08069 3.54353,0.02991 1.4345,0.189366 2.50031,0.514148 3.72117,1.133945 0.98958,0.502385 1.72314,1.029265 2.57595,1.850194 1.87324,1.803202 3.08598,4.132099 3.92586,7.539118 0.18782,0.761895 0.80967,4.18627 1.82606,10.055596 0.84768,4.89514 1.54123,8.955305 1.54123,9.022588 0,0.0845 -0.16849,0.225663 -0.54476,0.456405 -2.20213,1.350447 -4.75703,3.772153 -7.21378,6.83769 -1.55607,1.941657 -3.48703,4.709014 -4.91409,7.042613 -0.31762,0.519384 -0.59914,0.9447 -0.62561,0.945147 -0.0265,4.5e-4 -0.0481,-0.06562 -0.0481,-0.146828 0,-0.0812 -0.48994,-5.228056 -1.08875,-11.437454 -1.31039,-13.588025 -1.49594,-15.683194 -1.70453,-19.246303 -0.0733,-1.252867 -0.0941,-1.379553 -0.22636,-1.379553 -0.0739,0 -0.13518,0.05698 -0.15539,0.144372 -0.0183,0.0794 -0.33471,1.605726 -0.70302,3.391826 -0.36831,1.786099 -0.87134,4.081611 -1.11785,5.101136 -0.52598,2.175326 -0.27817,0.935661 -4.4365,22.194064 -1.80174,9.21092 -3.36006,17.09627 -3.46293,17.523001 -0.75692,3.139785 -2.08709,5.59888 -3.74744,6.927928 -0.82717,0.662121 -1.873017,1.149989 -3.023867,1.410557 -0.622885,0.141035 -2.773171,0.182563 -3.464923,0.06692 z"
       id="path3886"
       inkscape:connector-curvature="0" />
  </g>
</svg>
