<svg width="451.41mm" height="439.14mm" version="1.1" viewBox="0 0 451.41 439.14" xmlns="http://www.w3.org/2000/svg">
 <g transform="translate(168.25 76.784)">
  <g transform="matrix(.035278 0 0 -.035278 -168.51 362.36)" fill="#1a5c15">
   <path d="m4190 12425c-43-15-60-25-49-29 14-6 85 19 119 43 21 15 5 12-70-14z"/>
   <path d="m6578 12383c-57-31-82-76-72-128l6-34 102-3 101-3 3-102c3-129 22-137 22-10 0 50 3 108 6 127 5 31 0 43-52 108-31 39-60 72-63 72s-27-12-53-27zm102-59c28-36 50-71 47-77-3-8-34-11-100-9-86 3-97 5-102 23-11 33 15 78 59 104 22 14 42 25 43 25 0 0 24-30 53-66z"/>
   <path d="m6825 12262c-50-17-75-50-75-100 0-33 17-42 86-42 45 0 54-10 54-60 0-33-2-33-110-50-119-18-110-10-110-101 0-43 3-79 8-79 4 1 26 5 50 9 39 8 55 1 32-14-26-16-4-21 58-12 37 5 113 7 170 4 56-3 102-2 102 2s-6 13-12 20c-10 11-10 14 0 18 8 3 12 28 12 78v73l-31 6c-17 3-45 6-61 6-22 0-33 7-46 30-9 17-22 28-28 26-8-3-16 28-25 95-13 106-16 109-74 91zm49-49c11-72 11-73-44-73-36 0-52 4-56 15-11 27 5 64 34 79 45 25 59 20 66-21zm36-213c0-5-5-10-11-10-5 0-7 5-4 10 3 6 8 10 11 10 2 0 4-4 4-10zm60-30c0-15-7-20-25-20-25 0-31 13-19 44 8 22 44 2 44-24zm-110 10c-13-23-41-40-69-40-16 0-21 6-21 24 0 25 12 30 78 35 20 1 21-2 12-19zm194 14c9-3 16-15 16-25 0-27-55-26-70 0-5 11-10 22-10 25 0 8 44 8 64 0zm-304-39c0-21-5-25-30-25s-30 4-30 25 5 25 30 25 30-4 30-25zm56-60c-21-32-36-32-36-1 0 18 6 26 23 28 31 5 32 2 13-27zm74 10c0-21-5-25-30-25-30 0-30 0-14 25 9 14 23 25 30 25 8 0 14-10 14-25zm90 5c0-16-7-20-30-20s-30 4-30 20 7 20 30 20 30-4 30-20zm50-23c0-20-25 1-28 24-2 23-2 23 13 5 8-11 15-24 15-29zm50 18c0-14-4-25-9-25s-16 11-25 25c-16 24-16 25 9 25 20 0 25-5 25-25zm-320-20c0-21-5-25-30-25-22 0-30 5-30 18 0 25 9 32 37 32 18 0 23-5 23-25zm127-41c-3-3-25-8-49-11-34-4-41-3-31 7 14 16 77 29 82 17 1-4 1-11-2-13zm165 8c18-18 10-19-69-14-56 3-73 8-73 19 0 13 12 15 65 11 36-2 70-9 77-16z"/>
   <path d="m6815 11683c-20-131-27-128-40 20-7 84-20 112-29 65-3-13-19-88-36-167l-31-145 1-1032v-1032l-32-21-33-20-3 149c-2 118-5 150-16 150-7 0-16 14-20 31-10 50-7 69 9 69 8 0 15 5 15 11 0 7-10 9-25 7-24-5-25-3-25 38 0 42-1 44-29 44-22 0-31 6-41 30-7 17-19 30-27 30-13 0-13-4 2-26 21-33 9-44-52-44-34 0-41 3-37 15 4 8 2 15-4 15-13 0-22-35-22-92 0-39-4-48-22-54-19-6-20-8-6-18 17-13 29-64 17-72-5-3-9-252-9-555v-549h-55c-30 0-55-4-55-10 0-5 5-10 10-10 6 0 10-18 10-40v-40h-50c-27 0-50-4-50-10 0-5 23-10 50-10 47 0 50-2 50-25 0-24-3-25-55-25-66 0-74-18-10-22l45-3-70-89c-47-61-67-93-60-100 5-5 10-37 10-71 0-57-2-62-35-88l-34-27-3-128-3-127-32-3-33-3v-127l-42-14c-74-23-95-102-64-245 12-54 12-63-1-63-11 0-14-20-12-104 1-57-2-110-7-117-4-7-3-14 4-17 7-2 12-16 12-32 0-15 3-41 6-58l6-30 233 2c128 0 235-1 238-4s7-38 8-79l2-73-156 1-157 2v-44c0-73 10-107 31-107 16 0 19-8 19-50v-50h135c128 0 135-1 135-20 0-18-7-20-85-20h-85v-410h-120v110h-750v-110h-120v401c0 264-3 398-10 394s-10 80-10 244c0 161-4 251-10 251s-10-89-10-248v-249l-381-7c-210-3-384-5-386-3-2 3-6 56-10 120l-6 115 126 142h307v-180c0-113 4-180 10-180s10 67 10 181v180l149-3c115-2 151 0 161 11 9 9 11 37 7 96-6 106 2 115 94 115 59 0 180 30 202 50 4 4-353 10-795 14-441 3-803 8-805 9-5 6-22 222-17 227 3 2 76 7 162 11s158 7 160 8c1 1 2 9 2 19 0 11-55 51-172 122l-172 105-12 49c-7 26-16 82-19 122l-7 74h-35c-23 0-46-9-67-26-26-22-32-24-34-11-3 13-12 15-50 11-90-10-92-11-92-48 0-31-4-35-47-54-27-11-295-124-598-252-302-127-570-241-595-252-25-12-50-20-56-19-6 0-151-33-323-74s-327-75-346-75c-18 0-35-4-37-9s-239-66-528-136c-288-69-528-131-531-137-8-12-188-27-195-16-3 5-30 8-60 8h-54v-58c0-54-2-58-29-69-32-12-66-56-56-73 18-29 99-1 117 42 31 69 35 32 42-369 5-272 11-402 19-412 6-7 11-30 12-50 0-43 30-53 31-11 0 14 4 32 9 40 10 15 29 829 20 838-3 3-7 3-10 0-3-2-8-169-12-370-6-332-8-367-23-371s-18 16-23 206c-10 311-9 527 3 527 6 0 10 7 10 15 0 19-3 19 180-11 85-14 171-27 190-30 19-2 51-7 70-10 87-17 190-24 425-30 121-2 254-7 295-9s193-7 337-11c145-3 263-9 263-13 0-3 34-5 75-3 49 2 81-1 91-8 11-10 14-10 14 0s24 11 103 7c56-4 105-7 110-7 4 0 7-18 7-39 0-38-1-39-40-46l-39-7-4-76c-3-76-3-76-5 19l-2 96-192 7c-106 3-262 9-345 13l-153 6v-1086l-57 6c-32 4-124 9-205 13-104 5-148 11-152 20s-15 10-48 2c-24-5-63-8-88-6-25 1-45-2-45-7 0-6 26-11 58-13 76-4 73-22-4-22-37 0-58-4-54-10 3-5 31-10 61-10 31 0 54-4 54-10 0-7-27-10-73-8l-72 3-3-130c-1-71-5-136-7-142-2-7-16-13-30-13h-25v-510h30c29 0 30-2 30-46v-46l-37 6c-95 16-88 11-85 66 4 45 6 50 28 50 19 0 24 5 24 24 0 38-10 56-42 72-16 9-31 14-33 12s-1-53 2-115l6-112 68-11c78-13 98-36 22-25-27 3-58 9-70 12-13 3-23 1-23-5 0-11 21-17 93-27 26-4 47-12 47-17 0-6-15-8-38-4-20 4-52 9-70 13-19 3-32 1-32-5s32-16 70-22c39-6 70-16 70-21 0-9-36-4-99 12-19 5-37 6-40 3-9-9 20-22 80-33l59-12v-242c0-133-3-326-7-429-6-176-7-186-24-175-10 6-20 9-22 7-8-10 6-200 14-200 5 0 9 23 9 50 0 28 5 50 10 50 6 0 10-30 10-70 0-48 4-72 13-74 19-7 176-42 382-86 105-23 220-48 257-56l68-16v-328h50v161c0 104 3 158 10 154 6-4 10-80 10-196 0-119 4-189 10-189s10 68 10 183c0 101 2 186 5 189 4 4 378-76 501-106l24-6v-1221l68-274 4-642c2-353 7-645 11-649 3-4 231-34 506-68l500-62 103 53c57 28 109 52 116 52 9 1 12-52 12-233v-234l63-6c56-6 727-56 743-56 4 0 5 91 2 203-4 130-3 166 2 102 4-55 8-146 9-202 1-65 5-103 12-103 13 0 145 55 290 120 61 27 117 50 124 50 8 0 17 16 21 36 8 44-1 398-22 892-16 357-16 366 5 540 18 158 21 246 24 799 2 343 6 626 10 629 3 4 50 9 103 12l97 5-6-74c-4-41-7-240-8-444v-370l25-58 26-58v-607c0-334 3-637 6-674l7-67 76-6c42-3 135-12 206-20 72-8 137-13 145-12 23 3 262-13 287-19 16-4 22-1 25 15 2 12 56 58 148 123l145 104 5 579 5 580 58 200-8 870h25c24 0 25-2 24-65 0-36-1-303-3-595l-2-530 41-140 40-140v-1355h28c15 0 261-20 547-45 285-24 520-43 521-42s6 198 11 437l8 435 10-854 133 112 134 112-14 1380 58 270-9 548c-6 301-8 549-6 551 4 4 1149 67 1207 66h32v550h40c48 0 52 10 48 125l-3 80-42 3-43 3v234c0 213 2 236 18 245 9 6 152 75 316 154l300 144 38-31c21-17 41-27 45-23 4 3-9 20-29 36l-36 30 123 227c67 126 412 766 765 1423 671 1247 1118 2079 1521 2828 132 244 239 448 239 453 0 16-18 10-24-8-4-10-26-54-51-98l-44-80-1 55v55l106 125c58 69 111 131 118 138s84 25 172 41c122 22 147 29 108 30-97 2-203 14-198 22 8 14 102 11 108-3 5-10 7-10 12 0 4 8 29 12 74 12 46 0 70-4 73-12 9-25 17-1 23 70l7 72h-175l57 65c32 36 54 69 51 73-4 3-36-26-72-66-72-79-79-81-193-64l-44 7 26 31c20 24 44 36 92 49 62 17 67 21 125 96 33 43 56 80 51 83s-34-28-66-69c-47-62-64-77-98-86-23-6-46-14-52-17-5-3 5 12 23 35 31 39 41 64 25 62-5 0-44-43-88-94-46-53-88-94-99-94-13-1 6 26 65 92 129 144 124 137 108 137-8-1-59-52-114-115s-106-115-113-115c-8 0 34 53 92 119 103 115 115 131 98 131-7 0-168-175-209-227-8-10-75-21-245-39-270-30-265-29-248-49 9-11 11-36 6-85-3-39-2-70 3-70s11 9 14 20c4 16 14 20 45 20 23 0 44-4 47-10 4-6-5-10-19-10s-26-4-26-10c0-5 11-10 24-10 16 0 35-15 60-47 31-40 34-49 24-64-7-10-791-898-1743-1972l-1730-1955-5 47-5 46-113 3-114 3 15 22c9 14 17 63 22 125l7 102h-152c-91 0-149 4-145 9 10 17-12 21-25 6-31-38-36-8-24 163l7 92h137v33c0 17-3 56-6 85l-7 52h-498l3 48 3 47 133 3c151 3 138-8 126 111-6 55-9 61-30 61-19 0-31 17-72 103l-49 104-138 6c-76 4-229 7-339 7-194 0-276 6-276 19 0 3 57 3 128 0 70-4 259-10 420-13l292-7v158l-92 7c-50 3-162 6-248 6s-218 3-293 7l-135 6 16 34c9 18 22 33 29 33 9 0 11 8 7 24-4 17 1 31 15 45 12 12 20 25 17 29-3 5-1 14 3 20 4 7 13-24 20-73 7-47 17-85 22-85 12 0 11 11-6 109-10 55-11 88-5 96 5 7 7 14 4 18-3 3-1 14 5 24 8 14 10 4 11-44 0-35 4-63 10-63s10 37 10 90c0 75 2 88 15 84 8-4 15-2 15 4s-5 12-11 14c-8 3-5 15 7 38l19 35 3-95c2-52 7-99 12-104 15-15 12-46-5-46-12 0-15-17-15-89v-88l83-6c45-4 208-7 362-7h281l-8 78c-4 42-5 94-2 114 3 21 3 67-1 103l-7 65h-273l184 100 1 190v190l-30-15c-34-17-35-20-45-62-6-32-5-33 24-33 30 0 31-1 31-49v-48l-77-7c-42-3-112-6-157-6s-118-3-164-7l-83-6 3-74 3-73h-32c-33 0-33 0-33-50 0-37-4-50-15-50-12 0-14 15-13 73 1 76 18 127 43 127 17 0 20 16 6 25-6 3 0 26 14 53 13 26 42 90 65 142s47 104 54 115 23 46 35 78c13 31 26 57 30 57s12 20 19 44c6 24 18 50 25 58 8 8 18 28 21 45 4 17 16 40 28 52 11 12 17 25 14 28s1 18 8 32 20 40 27 56c7 17 18 36 23 43 6 8 12 23 13 35 2 12 11 29 20 39s12 18 8 18-1 8 7 18c8 9 20 36 28 60 7 23 17 42 22 42 4 0 8 7 8 15 0 22 72 175 82 175 5 0 7 4 3 9-6 11 25 81 37 81 4 0 8 9 8 19 0 31 69 161 85 161 18 0 20 17 3 22-8 3-3 20 14 54 14 27 30 61 36 77 7 15 16 27 22 27s8 4 5 10c-7 11 34 110 45 110 4 0 11 16 15 36 3 20 16 46 28 58s23 35 24 51c0 16 8 34 17 41 9 6 16 18 16 27 0 27 22 67 37 67 10 0 12 6 8 20-8 26 11 61 31 53 12-4 14 0 9 19-8 31 10 78 30 78 12 0 15 6 10 20-8 26 21 81 39 74 20-7 31-116 21-208-10-103-8-136 9-155 9-10 16-31 17-47 0-16 4-38 8-49 8-19 8-19 19 2 11 19 15 78 12 153-5 146-8 514-4 525 4 8 13 15 21 15 9 0 12 6 9 18-4 11 15 64 44 128l50 109v-275c0-151-5-328-11-392-7-89-7-123 2-140 12-21 12-22 19-3 3 11 7 207 8 435 2 363 4 420 18 453 10 20 21 37 26 37s6 4 3 10c-3 5 0 22 8 37 25 51 15 60-80 66-47 3-121 3-163 0l-78-6-38-84c-21-46-52-100-69-119s-263-316-546-659-517-624-520-624c-3-1-7 299-8 667-1 367-4 712-7 767-2 55-4 193-4 308 0 131-4 207-10 207-5 0-10-17-10-38v-37l-81 4c-58 2-80 0-75-8 4-6 34-11 66-11 92 0 90 3 90-118v-106l-30 41-31 42 26 51c35 70 26 87-11 21l-31-52-42 55c-23 31-46 56-52 56s-9 22-7 53l3 52 98 3c57 2 97 7 97 13s-13 63-29 127-32 129-35 145c-13 56-23 23-34-109-6-75-13-139-16-142-9-8-28 22-91 141-94 178-105 179-130 20zm68-59c16-64 27-117 25-119-1-1-27-6-57-10-44-6-53-5-49 6 3 8 13 65 24 127 10 61 21 112 24 112s18-52 33-116zm48 24c17-34 42-79 55-100l24-38h-30c-16 0-33 0-37-1-5 0-15 33-24 73s-19 86-23 101c-11 44 1 32 35-35zm175-44 21-94h-75l9 38c5 20 9 66 9 101s3 61 7 57c5-4 17-50 29-102zm-333-76 5-57-34-11c-20-7-37-10-40-7-2 2 8 60 23 128l28 124 6-60c4-33 9-86 12-117zm157-250v-203l-25 37c-24 35-25 44-25 172 0 84-4 136-10 136s-10-46-10-117v-118l-25 37c-22 32-25 48-25 117 0 95-18 110-22 19l-3-62-35 57c-19 31-38 57-42 57s-8 4-8 8c0 5 23 15 50 22 28 7 50 17 50 21 0 9 36 15 93 18l37 1zm-141-118c-2-50-5-93-8-94-3-2-23-1-43 1l-38 5v322l46-72 45-71zm213 144 42-56-33-59c-18-33-30-63-27-66 8-9 12-4 45 56l28 52 37-49c57-78 53-84-54-80l-90 3v128c0 70 2 127 5 127 2 0 23-25 47-56zm-163-126c15-28 22-55 19-78-2-30-7-35-28-35-25 0-25 2-25 77 0 43 2 78 5 78s16-19 29-42zm84-111c4 3 7-201 7-455s-2-462-5-462-17 12-30 28c-23 25-24 35-25 145 0 110 1 117 20 117 11 0 20 5 20 10 0 6-9 10-20 10s-20 6-20 14c0 10 7 12 22 8l22-5-22 31c-21 28-22 41-20 134 2 74 6 103 16 103 6 0 12 5 12 10 0 6-6 10-12 10-19 0-11 212 10 242 8 13 12 27 8 31-4 3-11 0-16-8-8-13-10-12-10 2 0 9 6 19 13 22 10 5 10 7 0 12-7 3-13 15-13 27 0 20 1 20 18-6 10-15 22-24 25-20zm170 13c20 0 37-5 37-11 0-11-71-99-80-99-4 0-16 18-29 40-12 22-26 40-32 40-14 0-11-7 17-56l27-45-22-29c-11-16-17-32-11-35 5-3 17 6 26 20l17 26 38-61c22-33 39-63 39-66s-34-3-75 1c-49 5-75 4-75-3 0-6 38-13 85-17 74-6 85-10 85-26 0-11-4-19-9-19-6 0-24-20-42-45s-36-44-40-43c-5 2-24 25-42 51-19 27-37 45-40 40s12-34 33-64l39-56-34-51c-19-28-35-53-35-55 0-3 26-8 58-12 31-3 67-9 79-12 31-7 27 30-10 85-32 48-31 58 18 118l24 29 1-312c0-309 0-313-20-313-18 0-21 6-20 48 1 107-16 336-25 339-6 2-8-39-5-117 3-66 3-120 0-120s-27 35-54 78c-27 42-51 71-53 64-3-7 22-55 56-105 53-81 61-99 61-140v-47h-60c-33 0-60-4-60-10s36-10 89-10h90l3-140c2-77 1-140-2-140s-22 26-42 57l-37 57 19 35c33 67 49 111 40 116-4 3-22-25-40-62-34-74-30-74-74-8-8 11-17 17-21 13-4-3 5-24 19-45 31-45 32-53 6-103-22-44-24-50-12-50 5 0 17 18 27 40s21 40 24 40c5 0 68-98 79-122 2-4-14-37-36-73l-39-65-38 62c-21 34-40 57-43 50-2-6 13-39 33-72l37-60-47-80c-26-44-49-80-53-80-3 0-2 199 1 443 4 243 7 613 7 821v379l53-7c28-3 69-6 90-6zm-329-36c13-5 16-23 16-91 0-78-2-88-31-129-36-53-33-69 5-24l26 32v-36c0-32-3-36-25-36-14 0-25-4-25-10 0-5 11-10 25-10 23 0 25-4 25-42 0-23-2-39-4-37s-20 25-40 52l-36 47v290h24c13 0 31-3 40-6zm96-30c0-22-45-114-56-114-2 0-4 32-4 70v70h30c26 0 30-4 30-26zm278-92c4-108-1-110-52-22l-26 46 31 37c17 20 34 37 37 37 4 0 8-44 10-98zm1362 83c0-4-7-19-15-35-16-31-27-36-112-44l-51-5 16 39c16 37 20 39 67 43 28 2 60 4 73 5 12 1 22 0 22-3zm160-11c0-3-7-18-15-34-15-29-19-30-81-30h-66l7 27c4 16 10 32 15 38 8 10 140 8 140-1zm-1802-162c-3-65-4-67-30-70-27-3-28-2-28 48 0 38 7 60 28 92 24 37 27 39 30 19 2-12 2-52 0-89zm1746 40c-8-20-16-38-19-40-5-5-95 68-95 77 0 3 29 4 65 3l65-4zm-154 28c0-23-35-80-47-76-7 3-15 1-18-4-4-6-30-10-60-10h-54l18 42c12 28 26 45 42 49 37 11 119 10 119-1zm95-70 20-23-60 8c-33 4-61 8-63 10s4 17 13 34l16 32 27-20c15-10 36-29 47-41zm13-45c2-1-4-19-12-40l-16-37-27 20c-16 11-39 32-53 47l-25 28 65-7c36-4 66-9 68-11zm-180-40c-12-25-28-45-35-45s-13-4-13-9c0-8-109-25-117-18-2 2 8 29 22 60l25 57h140zm-168-17c-10-24-59-129-107-235l-89-192-419-471c-230-258-420-470-422-470s-3 31-3 68v68l526 637c289 350 528 637 530 637 1 0-6-19-16-42zm260 2 45-39-67-1c-38 0-68 2-68 5 0 10 34 75 39 75 3 0 26-18 51-40zm-1620-77-1-88-24 30c-20 24-25 41-25 88 0 54 1 57 25 57 25 0 25-1 25-87zm-106 17c34-47 36-55 36-125v-75h-80v125c0 69 2 125 4 125s20-23 40-50zm1749-40c-9-22-19-40-22-40-14 0-81 62-76 71 4 5 30 9 60 9h53zm-175-12-23-43-134-6 16 40c17 43 24 46 121 49l43 2zm92-8 45-39-45-1c-25 0-55 3-67 6-21 6-21 7-6 40 9 19 19 34 22 34s26-18 51-40zm-1326-48c31-45 32-51 9-47-10 2-35 7-55 10l-38 6 23 34c12 19 25 35 28 35 4 0 18-17 33-38zm-234-69c0-29-3-33-25-33-24 0-25 2-25 67v67l25-34c15-20 25-47 25-67zm1429 50c0-5-10-28-22-53-19-38-27-45-54-48-26-3-32 0-27 12 9 22-9 20-31-4-16-17-45-28-45-16 0 2 11 29 25 60l25 56h65c36 0 65-3 64-7zm170 0c0-5-8-25-17-45l-17-36-100 88h68c37 0 67-3 66-7zm-94-58 50-44h-50c-27-1-60 2-71 5-21 6-21 7-5 45 9 21 18 39 21 39s28-20 55-45zm90-210c0-107-3-195-6-195-4 0-10 66-14 148-4 81-12 150-17 153-6 4-2 15 11 28 12 12 19 26 16 31-5 8 1 30 8 30 1 0 2-88 2-195zm-1665 113v-61l-35 39c-45 51-45 25 0-30 34-41 35-46 35-125v-81h-30c-37 0-40-17-4-22l26-3-1-144-2-145-34-60-35-61v755h80zm70-46v-95l-25 23c-22 21-25 31-25 100 0 77 0 77 25 72 25-4 25-6 25-100zm1540 74c0-2-5-17-11-35l-11-31-39 31c-21 17-39 34-39 37 0 4 22 5 50 4 27-2 50-5 50-6zm-170-1c0-4-7-19-15-35-14-27-20-30-67-30h-51l24 27c13 15 29 31 34 35 12 9 75 11 75 3zm85-40 50-44-70 1c-38 0-62 2-52 5 21 5 23 23 2 23-8 0-15 2-15 5 0 10 24 55 29 55 3 0 29-20 56-45zm-195 32c0-2-12-14-26-28l-26-24 13 28c7 15 18 27 26 27 7 0 13-1 13-3zm290-64c0-19-3-24-10-17-6 6-8 18-4 27 9 24 14 21 14-10zm-230-23c0-6-7-24-15-39-14-28-49-41-117-41-34 0-35 4-2 52 25 36 30 38 80 38 31 0 54-4 54-10zm75-46 40-35-54 5c-29 3-56 7-58 9-5 6 18 57 26 57 3 0 24-16 46-36zm95 31c0-10-24-55-29-55-3 0-22 14-41 30l-35 29 53 1c28 0 52-2 52-5zm-1490-136c0-43-4-47-33-42-21 4-22 9-19 71l4 67 24-30c15-19 24-43 24-66zm969-295c-290-632-286-624-299-624-6 0-8-5-5-11 7-10-148-365-169-385-6-6-28-14-48-17l-38-6v155c0 96-4 154-10 154s-10-58-10-155c0-154 0-155-22-156-13 0-56-4-95-8-40-4-73-4-73 0 0 17 103 325 112 337 6 6 26 12 44 12 19 0 34 5 34 10 0 6-16 10-35 10h-36l6 138 400 450c220 247 401 449 402 448 2-1-70-159-158-352zm311 352c0-12-74-152-84-158-12-8-116-11-116-4 0 3 15 39 34 80 34 75 34 75 78 79 79 7 88 7 88 3zm83-44 29-30-49 5c-60 7-67 13-52 46 14 30 27 26 72-21zm87 33c0-10-24-55-29-55-6 1-71 57-71 62 0 2 22 1 50 0 27-2 50-6 50-7zm3940-45c-20-13-50-13-50 0 0 6 15 10 33 10 24 0 28-3 17-10zm115 0c-3-5-13-10-21-10s-12 5-9 10c3 6 13 10 21 10s12-4 9-10zm180 0c45-7 40-7-42-9-56 0-93 3-93 9 0 12 63 12 135 0zm-5635-31c9-16 7-19-10-19-15 0-20 7-20 26 0 27 14 25 30-7zm5260 21c-20-13-83-13-75 0 3 6 25 10 48 10 31 0 38-3 27-10zm460 6c0-3-4-8-10-11-5-3-10-1-10 4 0 6 5 11 10 11 6 0 10-2 10-4zm160-6c0-6-30-10-70-10s-70 4-70 10 30 10 70 10 70-4 70-10zm-715-9c-14-12-115-22-115-11s25 17 80 19c25 1 40-3 35-8zm-135-11c0-13-66-24-87-14-14 6-11 9 17 14 53 11 70 11 70 0zm340 0c0-5-7-10-16-10-8 0-12 5-9 10 3 6 10 10 16 10 5 0 9-4 9-10zm-4087-35c20-20 37-37 37-38 0-7-115 5-123 13-13 12 11 60 30 60 10 0 35-16 56-35zm46 29c34-7 37-12 18-38-11-16-15-15-42 14-30 31-28 34 24 24zm3941-3c0-12-26-21-63-21-38 0-25 17 18 23 17 2 33 5 38 6 4 0 7-3 7-8zm45-1c-3-5-10-10-16-10-5 0-9 5-9 10 0 6 7 10 16 10 8 0 12-4 9-10zm100 0c-3-5-10-10-16-10-5 0-9 5-9 10 0 6 7 10 16 10 8 0 12-4 9-10zm65 0c0-5-7-10-16-10-8 0-12 5-9 10 3 6 10 10 16 10 5 0 9-4 9-10zm165 0c-3-5-40-10-81-10-48 0-73 4-69 10 3 6 40 10 81 10 48 0 73-4 69-10zm71-9c-3-5-15-7-26-4-28 7-25 13 6 13 14 0 23-4 20-9zm159-1c-3-5-35-10-70-10s-67 5-70 10c-4 6 22 10 70 10s74-4 70-10zm-5845-25c0-15-6-25-14-25-7 0-19-14-26-30-20-49-31-46-28 9 3 48 4 51 31 51 15 0 27 5 27 10 0 6 2 10 5 10s5-11 5-25zm5135 16c-14-12-115-22-115-11s25 17 80 19c25 1 40-3 35-8zm-5224-86c-2-57-9-91-25-120l-21-40-3 109c-1 61 0 116 3 124 3 7 15 12 27 10 22-3 23-6 19-83zm5089 76c0-12-46-20-61-10-8 5-4 9 12 12 41 8 49 7 49-2zm300-6c-7-8-17-15-22-15-6 0-5 7 2 15s17 15 22 15c6 0 5-7-2-15zm-385-5c3-5 1-10-4-10-6 0-11 5-11 10 0 6 2 10 4 10 3 0 8-4 11-10zm325 1c0-12-26-21-61-21-42 0-36 18 9 23 20 2 40 4 45 5 4 1 7-2 7-7zm193 2c-7-2-21-2-30 0-10 3-4 5 12 5 17 0 24-2 18-5zm147-4c0-7-19-8-57-3-78 9-79 14-5 14 38 0 62-4 62-11zm100 1c0-5-16-10-35-10s-35 5-35 10c0 6 16 10 35 10s35-4 35-10zm159-6c2-2-28-4-68-4-47 0-70 4-66 10 6 10 123 4 134-6zm-709-14c0-5-11-10-24-10s-38-3-55-6c-33-7-45 11-13 19 33 9 92 7 92-3zm-130-10c0-5-7-10-15-10s-15 5-15 10c0 6 7 10 15 10s15-4 15-10zm320-5c-7-8-20-15-29-15-13 1-13 3 3 15 26 19 42 19 26 0zm120 0c0-11-12-15-46-15-40 0-45 2-34 15 7 8 28 15 46 15 24 0 34-5 34-15zm110 0c-7-9-29-15-51-15-28 0-39 4-39 15s12 15 51 15c45 0 50-2 39-15zm-5558-216-4-217-27 7-26 7-6 304 31 61c17 33 32 59 34 58 1-2 0-101-2-220zm4953 211c4-6-7-10-25-10s-29 4-25 10c3 6 15 10 25 10s22-4 25-10zm-3847-32c-8-13-18-35-21-49-4-16-16-29-29-33-28-7-108-8-108-1 0 3 11 28 25 55l25 49 57 3c32 2 60 2 62 1s-3-13-11-25zm102 2 35-29-45-1c-59 0-76 11-61 39s29 26 71-9zm76 22c8-5 8-15 3-31l-9-24-28 24c-15 13-31 27-36 31-13 10 55 10 70 0zm3920-7c-25-19-46-19-46 0 0 10 10 15 33 15 30-1 31-1 13-15zm-66-5c0-10-21-16-77-23-38-4-47 19-10 26 43 8 87 7 87-3zm-3886-93c-9-18-18-34-20-36-3-4-84 62-84 69 0 3 27 3 60 2l60-4zm3887 26c-5-10-20-28-33-40l-23-22-33 40-33 39h66c59 0 65-2 56-17zm57 9c-7-20-3613-4088-3616-4080-2 4 5 18 15 31 56 72 3589 4057 3596 4057 5 0 7-4 5-8zm52-1c0-5-823-940-1830-2078-1006-1137-1830-2071-1830-2076s4-7 9-5c8 3 502 559 1948 2196 288 325 527 592 530 592 4 0-7-15-24-32-29-31-948-1086-1977-2271-477-548-496-567-496-480 0 30 8 46 44 83 24 25 839 945 1811 2045s1776 2008 1787 2018c23 19 28 21 28 8zm-4070-56c11-13 6-15-44-15-31 0-56 5-56 10 0 6 11 10 25 10s25 5 25 10c0 6-7 10-15 10-15 0-20 12-9 23 7 7 53-23 74-48zm4298 47c-5-14-183-220-186-217-2 2 26 48 62 104 36 55 61 103 56 106-4 3-32-33-62-80-29-46-55-84-58-85-3 0-4 31-2 70 5 100-14 91-47-20-5-19-19-68-31-108l-21-74-37 43c-20 24-37 47-37 51s41 55 90 113l90 105h93c52 0 92-4 90-8zm-4447-111c-17-34-36-61-41-61s-7-6-4-14c4-11-8-15-55-18-34-1-61 0-61 5 0 4 16 39 35 77l35 69 57 3c32 2 59 2 61 2 2-1-11-29-27-63zm-1111-77c0-124 0-125-22-122-21 3-23 9-26 78-2 61 1 84 19 123 12 26 24 47 26 47s3-57 3-126zm1300 96c0-6-7-24-15-41l-16-30-39 31c-58 46-58 50 9 50 36 0 61-4 61-10zm-95-45 50-45-70 6c-38 4-71 8-73 9-5 4 31 75 37 75 3 0 29-21 56-45zm4125-100c-12-19-24-35-26-35-6 0-5 1 23 95l18 60 3-43c2-30-3-53-18-77zm-5671 79c10-22 9-25-3-21-7 3-34 11-57 19l-44 13 30 6c53 12 62 10 74-17zm31 10c0-8-4-12-10-9-5 3-10 10-10 16 0 5 5 9 10 9 6 0 10-7 10-16zm-88-31c32-10 58-21 58-24 0-4-25-10-57-14-31-4-62-9-70-12-9-4-13 6-13 37 0 29 4 40 13 36 6-3 38-13 69-23zm328-67c0-51-1-53-25-48-14 2-25 6-25 8 0 6 44 94 47 94 2 0 3-24 3-54zm1318 40c7-8-43-96-56-96s-102 69-102 80c0 3 10 7 22 7 13 1 24 7 27 14 2 8 19 9 55 4 28-3 52-8 54-9zm-1538-31c0-8-2-15-4-15s-6 7-10 15c-3 8-1 15 4 15 6 0 10-7 10-15zm1315-54c-38-75-46-81-110-81h-44l31 70c33 74 37 77 110 79l47 1zm-1433 25c-20-27-32-25-32 5 0 11 9 19 23 21 31 5 32 2 9-26zm51 13c-4-15-8-17-14-8-8 14-3 29 11 29 4 0 6-9 3-21zm666-93c2-113 2-115-26-145-24-27-37-32-90-38-35-3-63-10-63-16s21-8 55-4l55 6-28-35c-15-19-30-34-34-34-9 0-58 60-58 71 0 6 21 46 46 90l47 81 20-34c27-43 26-42 33-35 4 3-3 22-15 42-11 20-21 40-21 45 0 12 64 120 71 120 3 0 7-51 8-114zm4897-37c4-24 2-39-6-44-7-4-68-22-136-40-144-39-144-50 1 117l100 116 18-57c9-31 20-72 23-92zm-5674 109-22-22v21c0 12 7 23 18 25 27 6 28-1 4-24zm188-29c0-6-81-19-88-14-2 2 7 19 19 40l22 37 23-29c13-15 23-31 24-34zm1405 20 20-22-45 7c-54 8-54 9-40 35 12 24 31 18 65-20zm4135-48c0-9-7-24-15-35-13-17-15-13-31 40-9 33-19 64-22 69-3 6 11-6 31-24 21-19 37-42 37-50zm-5359 19c23-6 24-10 27-102l3-96-30-21c-16-12-32-21-35-21s-6 64-5 143c0 78 4 133 8 122s19-22 32-25zm-291 10c0-11-7-20-15-20-18 0-19 12-3 28s18 15 18-8zm-60-10c0-11-7-20-15-20-18 0-19 12-3 28s18 15 18-8zm5790-22c0-40 0-41-20-23-18 16-18 18-2 41 9 13 18 24 20 24 1 0 2-19 2-42zm-4264-9 29-31-40 7c-22 4-41 9-43 10-4 3 17 45 21 45 2 0 16-14 33-31zm62 21c36 0 54-13 46-33-10-27-48-20-80 15-20 22-24 29-11 25 10-4 31-7 45-7zm-1391-116c-5-6-207-44-229-44-15 0-18 10-18 64v64l103 11c56 7 111 13 122 14 17 2 20-5 23-52 2-29 1-55-1-57zm251 37c2-51 0-66-15-77-10-7-21-14-25-14-5 0-8 36-8 81 0 78 1 80 23 77 20-3 22-9 25-67zm80 13c2-23-3-33-28-47l-30-18v109l28-7c21-6 28-14 30-37zm5211-21c-23-7-45-11-47-8-2 2 6 17 19 33l24 30 23-22 24-21zm-4309 22c0-14-34-71-47-78-7-5-11-12-8-17 10-16-23-67-47-74-13-3-40-6-60-6h-37l39 83 39 82 53 6c29 3 56 6 61 7 4 1 7 0 7-3zm168-30c1-11-4-29-11-39-14-19-16-18-61 18-25 21-46 41-46 45 0 3 26 4 58 1 47-4 57-8 60-25zm-103-20 40-34-58-1c-36 0-56-4-52-10 3-5 35-10 71-10 67 0 71-3 52-45-16-36-45-31-97 16l-44 39 18 40c10 22 21 40 24 40s24-16 46-35zm4225-111-70-129 1 55c1 30 4 82 8 114l6 59 60 17c33 9 61 16 62 15 2-1-29-60-67-131zm-5201-201c-6-12-20-24-31-26-11-3-18-9-15-14 3-4-1-17-8-27-13-17-23-18-126-11-73 4-109 3-105-3 3-6 49-13 101-17l95-7-19-27c-11-14-32-41-48-59l-28-34-49 68c-28 37-52 62-54 55-2-6 14-35 35-64 22-29 43-58 47-64 6-11-79-130-94-132-3-1-4 106-2 238l3 238 27 14c15 7 30 15 35 17 4 2 7-42 7-97 0-61 4-101 10-101s10 43 10 109c0 110 0 110 29 130 16 12 32 21 35 21s6-61 6-135c0-83 4-135 10-135s10 55 10 144c0 143 0 144 26 160l25 17-7-149c-5-108-4-151 5-156 8-5 11 12 11 61 0 37 3 111 6 164 6 90 9 97 33 112l26 16 3-142c2-93-1-149-9-164zm-360 245c-12-18-24-35-26-38-2-2-15 9-28 25l-24 30 47 11c26 6 49 10 51 8s-7-18-20-36zm5385-70c-106-155-97-149-122-83-12 31-22 63-22 71s-7 17-15 20c-8 4-15 14-15 24 0 14 23 24 118 48 64 17 121 31 125 31 4 1-27-50-69-111zm89-29c-6-115-6-115-32-117-14-1-51-6-81-11s-57-7-59-6c-2 2 36 61 84 130 48 70 89 125 91 123s1-56-3-119zm-5583 106c0-3-9-24-21-47l-21-40-24 35c-13 20-24 38-24 41 0 2 12 7 28 9 45 7 62 7 62 2zm150-30c0-29-4-36-25-41-14-4-27-5-29-3-4 5 42 79 49 79 3 0 5-16 5-35zm560-39c0-55-4-69-26-95-30-36-39-38-54-11-9 17-5 28 21 65 18 25 29 48 25 52-3 4-13-2-20-13-28-39-55-69-55-59-1 6 20 32 44 59 25 27 45 53 45 58 0 4 5 8 10 8 6 0 10-28 10-64zm675 34 28-29-39 6c-48 7-44 4-37 31 7 29 14 28 48-8zm-1336-9 21-28-37-6c-20-4-39-4-41-2-7 7 19 65 29 65 4 0 17-13 28-29zm-125-42c-11-18-24-8-24 19 1 26 1 26 15 8 8-10 12-23 9-27zm5324-160c-28-107-53-196-54-198-2-2-35 17-74 43-49 32-72 43-75 34-3-8 15-64 40-126 49-124 49-146-3-158-15-4-106-26-202-50s-178-44-183-44 28 42 73 93c44 50 181 207 303 348s223 256 224 255c2-1-21-90-49-197zm-4688 109c0-4-13-22-30-40l-29-33v150l29-35c17-19 30-38 30-42zm897 41c22-19-5-59-39-59-29 0-108 53-108 73 0 13 129 0 147-14zm-1307-13c0-14-5-28-10-31-8-5-7-11 1-21 6-8 10-16 8-18-3-4-229-46-244-46-3 0-5 27-5 60v60l43-1c33 0 157 12 200 20 4 0 7-10 7-23zm1124 2c-3-13-15-40-25-60-19-37-21-38-74-38h-55l14 33c39 91 35 87 93 87 52 0 54-1 47-22zm46-46c-40-4-45 1-30 28l12 22 25-24 25-23zm4006-82 6-77-51-77c-28-42-56-76-62-76s-9 6-6 13c2 6 24 87 48 180 48 182 52 185 65 37zm33 52c17-44 19-57 9-75-11-21-12-21-19 13-12 61-20 124-15 120 2-3 14-29 25-58zm-4798-14c-17-22-28-45-25-50s20 9 36 32c29 39 31 40 49 24 20-18 19-22-25-71-14-16-31-23-58-23-50 0-50 22 0 84 46 57 65 61 23 4zm779 22c22 0 47-8 60-18 19-16 21-22 11-40s-21-22-60-22c-90 0-146 23-91 37 22 6 26 19 8 25-6 2-8 10-4 17 5 7 15 10 23 7s32-6 53-6zm-630-42v-42l-21 20c-18 19-19 24-8 43 21 32 29 26 29-21zm-560-35c-1-46-1-47-14-23-27 51-29 70-7 70 18 0 21-6 21-47zm-56 25c-5-7-20-33-36-57l-27-44-11 27c-24 65-24 74 7 79 59 9 74 7 67-5zm1111-7c3-5-4-30-16-54-21-43-24-45-73-50-28-3-52-4-54-2-2 1 8 28 22 59l25 56h45c25 0 47-4 51-9zm-1257-47c-44-62-48-62-48-10 0 38 3 45 23 49 59 11 60 9 25-39zm727 26c23-26 16-32-29-28-36 3-36 3-21 26 20 27 27 27 50 2zm4884-2c-6-13-50-53-98-90-94-74-97-73-100 8-2 52 24 72 114 87 44 8 83 15 87 16 4 0 3-9-3-21zm-5435-44c6-19 2-22-29-26-19-2-35-2-35 2 0 3 10 20 21 39 22 36 28 34 43-15zm-120-11c6-19 2-23-29-29-20-3-38-4-40-2s8 21 22 41c27 39 33 38 47-10zm1279 12c20-20 37-36 37-38 0-1-29-1-64 1l-65 4 16 34c9 19 21 34 27 34s28-16 49-35zm107 20c0-12-24-55-31-55-5 0-23 13-41 30l-33 29 53 1c28 0 52-2 52-5zm-852-47c-13-19-23-22-59-19-52 3-56 6-39 26 8 10 30 15 62 15 50 0 50 0 36-22zm113-123c-25-79-48-145-51-145s-13 50-22 111c-15 105-22 128-33 118-2-3 4-61 15-129 26-164 26-160-10-160h-30v275l31 38c29 35 34 37 89 37h58zm4805 1c-69-127-70-127-78-27-3 31 3 38 67 91 39 32 71 57 72 56 2-2-26-56-61-120zm-5312 96c-6-4-30-58-53-121-23-62-45-120-49-127-6-10-23 20-57 96-45 103-65 137-65 110 0-7 23-64 51-127s49-116 47-117c-2-2-29-6-60-10l-58-6v290l38 2c83 3 124 7 130 12 3 3 24 6 46 6 23 0 36-4 30-8zm5204-61c-4-30-71-86-93-78-13 5-7 19 32 78 43 65 48 69 55 48 5-13 8-34 6-48zm-4205 27c-17-30-24-33-71-36-57-3-57-4-41 32 12 25 30 31 97 35l34 1zm184 26c21-6 21-7 6-40-22-45-47-44-103 6l-45 39h60c33 1 70-2 82-5zm-832-15c-4-6-13-8-20-5-9 3-16-5-20-22-3-15-30-54-60-86l-54-60-20 25c-11 13-20 26-21 29 0 3 23 33 51 68 50 61 52 62 101 62 32 0 47-4 43-11zm729-57c-9-2-21 1-27 7s-19 11-29 11c-16 0-17 3-8 20 11 20 12 20 46-7 26-21 30-29 18-31zm-1098-236c-13-17-38-47-55-66l-30-35-1 56v57l45 6c25 4 45 12 45 17 0 7-15 8-39 4l-39-6 39 108c22 59 43 115 47 123s8-41 10-109c3-118 2-125-22-155zm5014 231c25-17 46-31 47-32 5-2-28-100-36-108-7-7-81 157-81 179 0 6 10 1 70-39zm-4640-92v-125h-35c-19 0-35 3-35 8 0 4 9 54 20 111 17 89 32 131 46 131 2 0 4-56 4-125zm610 80c0-2-10-25-22-50-22-45-22-45-75-45h-53l25 50c25 50 25 50 75 50 28 0 50-2 50-5zm169-21c12-11 12-18 3-39-18-39-55-33-109 18l-45 43 68-4c39-2 75-10 83-18zm4084-41c3-27 4-49 4-49-1-1-20 10-41 24l-40 25 30 23c16 13 32 24 35 24 4 0 9-21 12-47zm-4934-29c-17-100-17-100-45-63-13 18-24 36-24 39 0 10 72 92 76 87 2-2-1-30-7-63zm750 19c14-9-12-13-42-8-33 7-35 8-25 31l11 24 26-22c14-13 28-24 30-25zm4070 10c0-10-59-57-59-48 0 15 34 55 46 55 8 0 14-3 13-7zm-4947-20c24-21 23-28-8-69-19-24-34-34-54-34-37 0-41 8-22 39 23 37 56 80 61 81 3 0 13-7 23-17zm5008-19c22-15 39-29 37-31-8-7-200-53-205-48-3 3-1 5 4 5 6 0 34 23 64 50 30 28 56 50 57 50 2 0 21-12 43-26zm-4079-20c17-15 17-19 3-45-20-40-55-38-110 7-24 20-44 40-44 45 0 17 132 10 151-7zm-198-49c-22-45-33-56-59-61-17-3-41-4-52-2-21 3-21 3 5 61l26 57h107zm-665 5c12-16 22-30 22-32s-22-1-50 0c-27 2-50 7-50 10 0 8 42 52 50 52 3 0 16-13 28-30zm739-5 28-24-30-1c-39 0-57 12-49 33 8 23 18 21 51-8zm4142-214c-68-126-124-229-126-228-3 3 17 400 21 404 4 5 221 59 225 57 2-2-52-106-120-233zm-5027 181c15-6 15-9 2-27-14-19-16-19-25-2-14 24-32 11-19-14 11-19 6-39-8-39-9 0-7 64 3 79 7 12 22 13 47 3zm668 1c-1-5-16-39-35-78l-33-70-1 72c-1 48 3 73 12 76 19 8 57 8 57 0zm-90-101c0-101 0-102-60-227l-19-40v167c-1 100-5 169-11 173-7 4-10-63-10-193v-200l-31-66c-17-36-35-66-41-66s-8 36-3 103l6 102-53 162-54 161 96 7c52 4 100 8 105 10 6 2 25 4 43 4l32 1zm324 88c47 0 71-21 62-53-5-23-12-27-44-27-24 1-47 9-67 25-16 14-24 25-17 25 6 0 12 5 12 10 0 6-9 10-20 10s-20 5-20 11c0 8 11 9 31 5 17-3 46-6 63-6zm-1114-15c0-39-23-165-31-165-4 0-18 34-31 75s-26 75-30 75c-13 0-9-23 17-100l25-73-26-34c-14-18-27-33-30-33-2 0-4 58-4 129 0 126 1 130 23 134 52 10 87 7 87-8zm379 6c11-7 10-29-9-132-13-68-26-127-30-132-5-6-109 168-129 216-2 5 7 19 20 33 19 20 32 24 78 24 31 0 62-4 70-9zm4721-206c-5-114-12-210-14-212s-45 26-94 62l-91 66 101 149c56 82 103 148 105 146 2-1-1-96-7-211zm-4610 179c0-25-118-636-124-642-2-1-7 31-11 73s-11 91-16 108c-7 25 0 84 33 260l42 227h38c34 0 38-3 38-26zm4574 14c-24-41-176-258-181-258-11 0-223 163-219 168 6 5 366 99 389 101 12 1 16-3 11-11zm-4924-42c0-28-10-45-50-88l-49-53-1 30c0 21 14 48 45 88 25 31 47 57 50 57s5-15 5-34zm840 28c0-3-18-44-39-90l-40-84h-45c-25 0-46 4-46 9 0 6 15 44 34 85 34 75 34 75 78 79 23 2 46 4 51 5 4 1 7-1 7-4zm53-18c24-19 21-23-12-18-20 3-28 8-24 18 6 17 13 17 36 0zm3637-10c0-2-8-10-17-17-16-13-17-12-4 4s21 21 21 13zm-4350-236c0-6-115-2-147 5-21 5-21 8-16 98 4 62 11 98 21 110 14 16 20 9 79-95 34-62 63-115 63-118zm274-182c-4-82-11-148-16-148s-8-6-5-12c2-7-5-31-17-53l-21-40-6 185c-4 102-7 231-8 288 0 61-5 102-11 102-7 0-8-108-4-317 5-317 5-318-18-368l-23-50-3 218c-1 139-6 216-12 212s-10-100-10-245c0-265 7-230-84-423-26-55-53-115-62-135-20-48-25-38-54 103l-22 110 37 195c21 107 42 224 48 260 5 36 13 69 17 73 4 5 11-26 15-68s10-89 15-105c5-18-2-76-21-176-30-157-35-194-20-179 4 6 27 107 50 225s64 332 92 475 53 267 55 275c3 8 25-46 50-120l44-135zm456 386c19-3 49-17 65-30l30-24h-65c-48 0-71 5-89 19-42 32-16 47 59 35zm-1030-19c0-8-4-15-10-15-5 0-7 7-4 15 4 8 8 15 10 15s4-7 4-15zm1130 5c0-5-4-10-9-10-6 0-13 5-16 10-3 6 1 10 9 10 9 0 16-4 16-10zm3549-417c1-23-20-62-85-157-47-69-89-126-93-126-3 0-17 9-30 19l-24 18 71 289c39 159 69 291 66 293-2 2-7 2-10-2-5-5-91-341-139-545-5-21-12-17-100 53-51 41-96 75-99 75-20 0 5-25 82-85 48-38 91-72 96-77 10-8-42-248-54-248-5 0-39 94-122 333-12 37-26 67-30 67-14 0-9-15 62-219 74-210 75-217 61-225-9-6-583-77-587-73-1 1 102 122 230 268 127 147 326 375 441 508l210 242 27-188c14-103 27-202 27-220zm-89 394c0-2-15-16-32-33l-33-29 29 33c28 30 36 37 36 29zm-4470-15c0-9-29-36-65-62-11-8-4 4 15 27 34 40 50 51 50 35zm902-54 40-33-42-3c-53-4-71 3-64 23 4 10 0 15-13 15-25 0-33 8-26 27 9 22 57 9 105-29zm3746-36c45-35 82-66 82-69 0-2-19-32-42-64-48-69-43-72-92 62-18 52-39 107-45 122-13 34-14 35 97-51zm-4775-6c-10-14-21-26-24-26-7 0 3 52 17 84 7 18 8 18 17-7 6-20 4-32-10-51zm1107 66c0-5-6-16-13-26-13-17-15-17-43 8l-29 25 43 1c23 0 42-4 42-8zm-984-222c-1-115-4-210-7-210s-11 29-17 65c-7 35-15 71-18 80-4 10 0 15 10 15 22 0 20 17-3 23-22 5-25 47-4 47 15 0 18 17 3 22-5 2-10 24-11 51-2 40-5 47-22 47s-13 6 19 35c21 19 42 34 45 35 3 0 5-94 5-210zm809 170c3-5 2-10-4-10-5 0-13 5-16 10-3 6-2 10 4 10 5 0 13-4 16-10zm-83-60c-35-78-52-78-52 0v60h79zm3867-54 41-109-21-34c-12-19-23-32-25-30-3 2-44 270-44 286 0 14 13-16 49-113zm-3939 44c0-57-1-60-25-60-14 0-25 3-25 8 0 8 44 112 48 112 1 0 2-27 2-60zm-820 40c0-5-4-10-10-10-5 0-10 5-10 10 0 6 5 10 10 10 6 0 10-4 10-10zm1049-34c46-47 35-60-43-52-77 8-103 30-85 70 12 26 16 27 54 22 27-5 51-18 74-40zm61 27c0-5-5-15-10-23-8-13-13-12-32 8l-22 22h32c18 0 32-3 32-7zm-1012-50-3-38-87-3c-95-3-103 2-73 45 15 21 27 24 138 31 27 2 28 0 25-35zm-198 9c0-27-29-62-51-62-16 0-19 7-19 40 0 39 1 40 35 40 27 0 35-4 35-18zm455-24c6-6-26-208-42-263-4-14-19 8-59 87-29 59-58 109-64 113-10 6-14 67-6 76 7 6 164-5 171-13zm4669-59c48-35 86-67 86-71 0-5-5-6-10-3-17 10-270-7-263-18 3-6 53-7 135-2l130 7-66-124c-36-67-99-185-139-260-39-76-74-138-78-138-6 0-30 181-28 220 0 19 33 53 146 150 80 68 141 126 134 128-6 2-73-51-150-117l-139-120-6 29c-3 16-8 58-12 93l-7 65 79 115c44 64 84 114 91 112s50-32 97-66zm-4114 57c0-3-4-8-10-11-5-3-10-1-10 4 0 6 5 11 10 11 6 0 10-2 10-4zm79-68c50-46 46-68-12-68-42 0-117 41-117 64 0 21 15 34 45 39 41 5 37 7 84-35zm47 32c27 0 30-8 11-34-11-16-15-14-42 15-21 23-25 30-12 26 10-4 30-7 43-7zm-237-112c-12-26-28-48-34-48-21 0-34 110-17 137 4 6 21 13 37 15 27 3 30 0 33-26 2-17-7-52-19-78zm-699 78c0-21-6-24-52-30-29-3-70-6-90-6-36 0-38 2-38 30v30h90c88 0 90-1 90-24zm-250 10c0-3-4-8-10-11-5-3-10-1-10 4 0 6 5 11 10 11 6 0 10-2 10-4zm50-21c0-21-5-25-30-25-30 0-30 0-14 25 9 14 23 25 30 25 8 0 14-10 14-25zm343-110c26-52 47-97 47-100 0-7-40-6-79 1l-31 7v93c0 52 3 94 8 94 4 0 28-43 55-95zm627 80c10-13 9-15-9-15-12 0-21 6-21 15 0 8 4 15 9 15s14-7 21-15zm-779-90c-3-84-8-95-52-95-23 0-30 9-60 80-19 44-37 80-41 80-14 0-9-19 22-87 17-36 30-67 30-68 0-2-16-5-35-7l-35-4v175l53 4c28 2 67 3 86 3l34-1zm-192-2-2-78-10 58c-6 31-15 57-20 57-10 0-9-10 18-185 8-55 15-123 15-151 0-52 0-52-35-56l-35-4v436h70zm829 43c1-26-3-35-18-39-23-6-24-4-8 40 15 42 24 42 26-1zm-918-286c0-293 0-300-20-300-19 0-20 7-20 125 0 115-2 126-22 145-12 11-30 20-39 20-15 0-18 12-21 71l-3 71 59 84c32 46 61 84 62 84 2 0 4-135 4-300zm1135 266c22-19 38-36 35-38s-35-2-72 0l-68 4v34c0 32 2 34 33 34 22 0 45-11 72-34zm59 9c-7-18-14-18-38 0-19 14-18 15 12 15 24 0 30-4 26-15zm-184-10c0-8-4-15-10-15-5 0-7 7-4 15 4 8 8 15 10 15s4-7 4-15zm-692-63c8-34 7-42-4-42-10 0-14 13-14 47 0 55 5 53 18-5zm602-6c0-32-2-34-40-38-31-3-40 0-40 12 0 20 20 46 40 53 33 12 40 7 40-27zm27 12c-3-8-6-5-6 6-1 11 2 17 5 13 3-3 4-12 1-19zm63-55c0-20-5-23-37-22l-38 1 33 9c34 10 36 31 2 22-23-6-25 0-9 28 10 20 11 20 30 3 10-9 19-28 19-41zm140 47c0-21-29-80-39-80-16 0-81 61-81 76 0 10 15 14 60 14 35 0 60-4 60-10zm3795-117 7-59-65-57c-36-31-69-57-73-57s-18 10-30 21l-23 22 81 120c91 134 88 134 103 10zm-7585 79c0-8-43-32-56-32-16 0 6 25 27 31 13 4 25 7 27 8 1 1 2-3 2-7zm-89-45c-8-8-11-5-11 9 0 27 14 41 18 19 2-9-1-22-7-28zm132 13c-3-11-9-23-14-26-10-6-12 29-2 39 13 13 21 7 16-13zm3657 4c0-2-7-4-15-4s-15 4-15 10c0 5 7 7 15 4 8-4 15-8 15-10zm-780-48c0-30-4-57-9-61-5-3-20 18-34 47l-24 53 21 7c43 13 46 10 46-46zm50 41c0-7-7-22-15-33-14-18-14-17-15 14 0 22 5 32 15 32 8 0 15-6 15-13zm159-3c4-3-49-290-59-318-7-21-61 239-60 297v37l58-6c31-4 59-8 61-10zm421 11c0-11-55-115-61-115-9 0-21 98-14 110 6 10 75 14 75 5zm-3550-30c0-18-7-28-26-35-34-13-34-13-34 13 0 15 9 28 23 35 33 16 37 14 37-13zm2826 8c-2-10-12-64-22-120-25-148-42-137-51 35l-6 102h42c36 0 42-3 37-17zm824-44c0-43-5-44-47-6-34 30-29 47 12 47 34 0 35-1 35-41zm88 26c3-2-1-18-8-35-9-21-19-30-36-30-21 0-24 4-24 41 0 41 0 41 32 35 17-3 34-8 36-11zm-3818-25c0-16-4-30-10-30-11 0-14 43-3 53 11 12 13 8 13-23zm3540-27c0-29-3-33-26-33-21 0-25 3-19 18 4 9 12 30 17 45 13 35 28 19 28-30zm100 27c0-19-5-30-14-30-12 0-12 5-3 30 6 17 13 30 14 30 2 0 3-13 3-30zm-686-37 19-42-33-51c-31-48-50-63-50-39 0 33 34 189 40 182 3-4 14-27 24-50zm115-88-1-120-23 50c-29 61-33 144-8 186 26 44 33 19 32-116zm-3109 109c0-20-8-28-37-41-21-8-275-116-566-240-518-221-528-225-574-217l-47 9 254 107c140 59 415 175 610 257 195 83 356 151 358 151 1 0 2-11 2-26zm121-60c1-56-51-298-67-312-4-4-4 8 0 27 3 18 6 100 6 180v147l28 10c15 6 28 10 30 8 2-1 3-28 3-60zm3599 46c0-5-2-10-4-10-3 0-8 5-11 10-3 6-1 10 4 10 6 0 11-4 11-10zm-3473-52c-3-24-13-103-23-175-9-73-21-133-25-133-5 0-9 79-9 175v175h31c31 0 32 0 26-42zm3497 22c15-5 26-17 26-28 0-15-6-18-29-14-27 4-47 32-33 46 7 8 6 8 36-4zm-3748-527c-4-10-72-11-308-7-241 5-382 2-688-15-212-11-405-24-430-27s-42-3-39 0c9 9 211 57 264 62 28 3 62 14 76 24 15 10 255 116 535 236 280 119 527 224 549 234l40 17 3-256c1-141 0-261-2-268zm3826 515c-9-9-15-9-24 0s-7 12 12 12 21-3 12-12zm-3517-218c8-107 18-221 21-252l6-58h-123l6 33c4 24 57 417 66 493 3 23 9-35 24-216zm3285 200c0-29-42-110-57-110-9 0-13 17-13 59 0 57 1 60 28 64 15 2 30 5 35 6 4 0 7-8 7-19zm100 5c0-10-10-15-32-15h-32l32-33c25-25 32-42 32-71 0-37-1-38-27-31-16 4-29 8-30 9-7 7-15 127-10 140 8 21 67 22 67 1zm4054-204c-2-2-31 19-65 45-35 27-67 53-73 57-7 5 11 28 49 63l60 56 16-109c8-59 14-110 13-112zm-7704 139c0-40-4-70-10-70s-10 30-10 70 4 70 10 70 10-30 10-70zm4320 50c0-17-7-20-40-20s-40 3-40 20 7 20 40 20 40-3 40-20zm-4190-140c0-93-4-150-10-150s-10 44-10 113c0 103 7 187 16 187 2 0 4-67 4-150zm3860 130c0-18-7-20-65-20-50 0-65 3-65 14 0 14 13 17 108 24 16 2 22-3 22-18zm88 3c-2-12-14-19-36-21-27-3-32 0-32 17s6 21 36 21c28 0 35-3 32-17zm142 3c0-10-17-15-60-18-52-3-60-1-60 15 0 14 10 17 60 17 45 0 60-4 60-14zm3213-4c15-16 13-22-25-80-22-34-42-61-44-59s1 19 6 38 14 53 20 77c12 46 19 51 43 24zm-4439-18c12-30 6-42-24-46-35-5-35-5-13 33 20 33 28 36 37 13zm736-35v-40l-30 21c-16 12-30 30-30 41 0 14 7 19 30 19 28 0 30-2 30-41zm-3296-63c80-49 145-90 144-91-2-1-67-5-145-8l-142-7-5 33c-11 70-15 168-7 165 4-2 74-43 155-92zm3026 60c0-25-5-35-20-39-24-6-24-8-5 37s25 45 25 2zm103-28c-4-9-33-11-33-3 0 2 6 16 12 31l13 27 6-24c3-13 4-27 2-31zm517 1v-39h-220v80h129l3-32c2-18 7-31 13-28 5 3 8 17 6 32-2 22 2 27 26 30 40 5 43 2 43-43zm140 6v-45h-120v90h120zm100 0v-45h-80v90h80zm3178 27 23-18-90-78c-50-43-89-82-86-86s-2-11-11-14-14-2-12 2c7 19 142 212 147 212 3 0 16-8 29-18zm-4386-310c-3-166-6-222-15-219-13 4-13 175 0 397 10 177 18 77 15-178zm598 241c0-7-9-13-20-13-16 0-20 7-20 32 0 30 0 31 20 13 11-10 20-24 20-32zm-710 12c0-23-3-25-51-25-55 0-62 15-18 37 41 22 69 17 69-12zm4618-38c35-27 61-52 58-54-6-7-308-44-313-39-8 7 172 154 182 148 5-3 38-28 73-55zm-4808-12c0-72 17-90 22-22 3 41 3 41 15-23 6-36 15-84 18-107l7-43h-56c-31 0-56-4-56-10s26-10 58-10h59l10-67 10-66-23 27-23 26-49-35c-27-19-52-35-56-35-3 0-6 97-6 215v215h70zm69 55c6 8 12 12 15 10 2-3-2-13-9-24-15-20-35-14-35 12 0 15 2 15 10 2 9-13 11-13 19 0zm161-22c0-5-4-8-10-8-5 0-10 10-10 23 0 18 2 19 10 7 5-8 10-18 10-22zm422-24c4-31 1-37-20-45-13-5-28-7-33-3-14 8-11 72 4 77 33 14 45 7 49-29zm88 21c0-8 6-15 14-15 12 0 26-47 26-92 0-24-32-23-54 1-16 17-16 19 6 26 19 7 16 9-19 12l-43 4 20 40c20 38 50 53 50 24zm-3550-75c0-40-4-70-10-70s-10 30-10 70 4 70 10 70 10-30 10-70zm3650 39c0-4-7-6-15-3-8 4-15 10-15 15 0 4 7 6 15 3 8-4 15-10 15-15zm-3570-120c-8-4-17-5-19-3s3 34 10 71l14 68 5-65c4-52 2-66-10-71zm2920-79v-210h-23c-35 0-53 28-66 101-17 101-18 99 34 99 25 0 45 5 45 10 0 6-22 10-50 10-27 0-50 3-50 8 0 10-19 131-26 165l-6 27h142zm70 38c0-208-5-248-31-248-18 0-19 12-19 210v210h50zm620 158c0-8-4-18-10-21-5-3-10 3-10 14 0 12 5 21 10 21 6 0 10-6 10-14zm-37-56c2-10 1-23-3-29-10-18-40-1-40 23 0 11-3 32-7 46l-6 25 26-23c14-13 27-32 30-42zm-238-59c-24-48-27-51-65-51h-39l23 53c21 48 26 52 62 57 22 3 40 2 42-2 2-3-8-29-23-57zm90 49c18-20 17-20-9-20-16 0-25-4-21-10 3-5 22-10 40-10 47 0 101-47 91-78-11-33-42-27-96 18-50 42-66 49-57 26 3-8-2-16-14-19-17-4-19-2-13 16 11 37 44 97 53 97 4 0 16-9 26-20zm4172-52c-19-35-87-162-152-283s-121-224-125-228c-4-5-13 22-19 60-17 96-76 463-76 464 0 2 353 47 378 48l29 1zm-4515-91c-2-4-5-48-6-97-1-55-6-94-14-102-9-9-12 26-11 168l1 179 17-70c10-38 16-74 13-78zm638 103c0-20-5-30-15-30-15 0-21 40-8 53 14 15 23 6 23-23zm120 0c0-29-1-30-50-30s-50 1-50 30 1 30 50 30 50-1 50-30zm420 0v-30h-220v25c0 14-4 25-10 25-5 0-10-11-10-25 0-25-1-25-79-25h-79l-4 30-5 30h407zm72 0c4-27 2-30-24-30-24 0-28 4-28 30 0 25 4 30 24 30 19 0 25-6 28-30zm-777-9c3-5 1-12-5-16-5-3-10 1-10 9 0 18 6 21 15 7zm3633 0c-1-5-52-81-113-169-94-137-112-158-126-148-57 40-317 251-314 254s484 66 543 71c8 0 12-3 10-8zm-4548-21c0-13-7-20-20-20s-20 7-20 20 7 20 20 20 20-7 20-20zm-2741-134c-9-8-10-7-5 7 3 10 7 46 8 80l2 62 3-69c3-45 0-73-8-80zm7355-138c41-250 43-264 27-294-11-23-72-69-214-163-108-72-199-131-202-131-5 0-63 182-71 226-5 28 4 47 82 160 48 71 89 131 90 132 1 2 69-48 151-112 81-64 150-111 151-106 2 6 2 12 1 14-2 1-67 51-144 111-77 59-141 109-143 110-1 1 48 77 110 167 62 91 114 162 116 157 2-4 23-126 46-271zm-7236 175 3-93h-46c-50 0-50 1-34 70 25 113 29 121 52 118 21-3 22-9 25-95zm30 5-2-93-5 85c-3 47-5 88-3 93 9 21 12-2 10-85zm29 40c-2-13-4-5-4 17-1 22 1 32 4 23 2-10 2-28 0-40zm2333 32c0-11-7-20-15-20s-15 9-15 20 7 20 15 20 15-9 15-20zm1310-25c0-16-6-25-15-25s-15 9-15 25 6 25 15 25 15-9 15-25zm118 3c-3-20-9-23-48-23s-45 3-48 23 0 22 48 22 51-2 48-22zm187-3c0-18-8-20-82-23l-83-3v52l83-3c74-3 82-5 82-23zm235 0v-25h-104c-94 0-104 2-109 19-3 11-2 22 1 25s52 6 109 6h103zm80 0c0-21-5-25-30-25s-30 4-30 25 5 25 30 25 30-4 30-25zm-1700-14c0-10-7-22-16-25-23-9-24-8-24 19 0 18 5 25 20 25 13 0 20-7 20-19zm791 3c12-14 8-15-43-9-34 4-58 3-62-3s22-13 68-17c40-4 79-11 86-15 14-9 8-45-13-74-18-25-40-16-106 43-48 43-52 50-42 70 9 16 21 21 55 21 28 0 48-6 57-16zm-1011-30c0-17-5-24-20-24-14 0-20 7-20 24 0 23 17 38 33 29 4-2 7-15 7-29zm855-20c-14-31-25-58-25-60s-18-4-40-4-40 2-40 4 11 29 25 60c24 55 26 56 65 56h40zm3420-270 67-230-102-150c-56-82-108-155-114-162-9-9-22-5-59 20-26 18-47 39-47 46 0 8 27 165 60 350 54 298 69 413 47 362-3-8-33-168-66-354s-62-341-65-343c-2-3-74 46-160 107-156 111-156 112-139 134 10 12 121 140 248 285l229 263 16-48c9-27 47-153 85-280zm83 190c81-64 153-122 161-129 11-11-1-34-75-141-86-125-88-128-96-99-4 17-38 132-76 258-38 125-67 227-65 227s69-52 151-116zm-3432 41 39-34-27-1c-16 0-28 5-28 11 0 7-11 8-30 4-16-4-30-4-30-1 0 12 24 56 30 56 4 0 24-16 46-35zm-4796 6c0-5 8-11 18-14 24-6 11-10-148-47-86-20-171-33-235-36l-100-4 120 30c66 16 163 41 215 54 108 27 130 30 130 17zm3786-40c-3-22-2-41 3-43s7-49 4-110c-6-104-7-108-29-108-20 0-25 8-39 76-29 128-8 224 48 224 17 0 19-5 13-39zm894-15c0-2-14-34-32-72l-32-68-13 49c-22 87-20 95 32 95 25 0 45-2 45-4zm136-6c22 0 49-6 59-14 17-12 18-18 7-40-11-26-13-26-113-26-55 0-99 3-97 8 2 4 10 24 18 45 14 37 16 39 50 33 19-3 53-6 76-6zm-5351-91c12-2-3-5-480-119-214-51-392-97-395-101-5-8-279-33-286-27-1 2 241 62 539 134 437 105 549 129 577 122 19-4 40-8 45-9zm5220-47c-45-4-50 0-35 27l11 21 30-22 31-23zm-5079-17 11-40 164-2c148-1 560-29 482-32l-33-1v-80c0-44-3-80-7-80-8 0-761 35-963 45-63 3-203 10-310 15-107 6-219 10-249 10s-52 2-49 6c5 4 784 193 853 206 11 2 36 1 55-2 30-5 36-10 46-45zm3361 29c-3-3-12-4-19-1-8 3-5 6 6 6 11 1 17-2 13-5zm1-51c3-23 3-23-147-23-124 0-151 3-151 14 0 10 16 16 53 20 77 9 146 13 197 12 39-1 45-4 48-23zm-318-8c0-13-24-15-152-15-83 0-148 3-145 7 7 6 143 18 250 21 36 2 47-2 47-13zm-370-13c0-4-16-23-35-42-39-38-47-25-13 20 20 28 48 40 48 22zm50 1c-1-15-108-128-115-121-4 4 17 34 46 67 50 57 69 72 69 54zm-142-23c-2-10-48-69-103-129l-100-110-57-1h-58v249l103 4c56 1 128 4 160 5 53 2 58 0 55-18zm-1815-7c-7-2-21-2-30 0-10 3-4 5 12 5 17 0 24-2 18-5zm2277-13c0-19-7-20-150-20s-150 1-150 20 7 20 150 20 150-1 150-20zm320 0c0-19-7-20-150-20s-150 1-150 20 7 20 150 20 150-1 150-20zm-668-58c-43-53-82-88-82-73 0 19 103 136 108 122 2-6-10-28-26-49zm-124-10c-36-52-188-205-188-191 0 21 193 235 198 220 2-6-2-19-10-29zm22-30c0-7-145-170-197-222-13-13-14-13-11 2 3 18 187 227 201 228 4 0 7-4 7-8zm-3562-9c-1-5-21-34-42-66-44-65-51-63-62 21l-7 52h58c31 0 55-3 53-7zm182 2c0-3-19-40-42-82l-41-76-38 74c-21 41-38 77-39 82 0 4 36 7 80 7s80-2 80-5zm-344-30c-9-14-24-37-33-51l-17-27-12 34c-23 62-19 69 32 69h46zm449-32c-14-31-27-59-30-61-2-2-18 23-34 57l-31 61h120zm171 44c5-5-49-117-57-117-6 0-59 111-59 125 0 8 108 0 116-8zm-861-27c-16-16-32-30-36-30-3 0-19 10-35 23l-29 22 55 6c30 3 59 6 64 7 6 1-3-11-19-28zm105 0c-31-44-40-45-40-6 0 33 2 36 31 36h30zm917 18c-33-82-61-137-68-131-4 4-21 38-37 76l-31 67h71c52 0 69-3 65-12zm-1117-28c28-25 31-30 15-30-44 0-65 12-65 36 0 31 7 30 50-6zm384-47 7-41-43 5c-24 3-45 7-47 9s11 26 30 55c36 57 40 55 53-28zm916 71c0-5-68-124-75-133-2-1-20 29-39 68l-36 71h75c41 0 75-3 75-6zm286-12 62-7-32-64-32-63-43 66c-24 36-46 66-50 66-3 0-24-27-46-60s-43-60-46-60c-7 0-79 117-79 129 0 8 171 3 266-7zm-1441-60c-2-2-18-1-35 3l-32 7 29 30 28 29 7-33c3-18 5-34 3-36zm111 23 10-45-40 7c-23 3-43 7-45 9-4 4 50 74 58 74 4 0 11-20 17-45zm287-10c15-31 27-60 27-66 0-10-128-3-139 7-6 5 69 114 78 114 4 0 19-25 34-55zm327-83c-14-1-43 1-66 5l-41 8 58 130 74-140zm3166 85c-55-68-187-201-184-185 4 23 202 242 206 228 2-6-8-25-22-43zm-3316-17 30-60h-65c-36 0-65 3-65 6 0 9 61 114 66 114 2 0 17-27 34-60zm450 0c16-33 30-64 30-70 0-11-51-13-98-4l-31 6 32 64c17 35 33 64 34 64s16-27 33-60zm620 55c0-3-20-35-44-71l-43-65-17 65c-9 36-16 68-16 71s27 5 60 5 60-2 60-5zm-787-61c16-31 26-58 24-61-3-2-30-3-60-1l-56 3 26 58c14 31 29 57 32 57 4 0 19-25 34-56zm927 49c-1-5-16-37-34-72l-33-64-22 63c-11 35-21 68-21 72s25 8 55 8 55-3 55-7zm128-8c1-1-9-28-24-61l-26-59-24 59c-13 33-24 63-24 66 0 6 90 2 98-5zm-703-67 27-48h-143l33 60c36 67 37 67 83-12zm143-56c-39-2-73-1-76 2s12 31 33 62l37 57 38-59 37-59zm181 16c1-14-7-18-39-18-22 0-40 2-40 5s12 29 27 58l27 52 12-40c7-22 13-48 13-57zm144 39c9-30 17-57 17-60 0-4-27-7-60-7s-60 2-60 5c0 10 73 115 80 115 3 0 14-24 23-53zm162-46c6-20 3-21-44-21-28 0-51 2-51 4s12 30 26 62l25 58 19-41c10-22 21-50 25-62zm7425 78c0-5 53-137 119-294 93-224 116-288 107-299-10-13-60-14-384-6-206 4-375 10-377 12-6 6 520 606 528 601 4-2 7-8 7-14zm-7320-61c0-47-1-48-30-48-36 0-37 11-9 75 25 56 39 47 39-27zm1974-40 7-107-105-3c-59-2-105 0-104 4 3 8 192 217 194 215 1-1 5-50 8-109zm6054-4c28-97 32-119 20-129-7-7-52-38-100-69l-86-55-41 30c-23 16-41 32-41 35 0 10 202 304 209 304 3 0 21-52 39-116zm291-153c-78-144-143-260-145-258-7 7-84 271-82 279 3 9 361 249 365 244 2-1-61-121-138-265zm-809 130c58-41 109-78 114-83 10-8-43-338-54-338-3 0-35 73-72 163-37 89-87 211-112 270l-46 108 33-22c17-13 79-56 137-98zm-5772 76c3-16-3-18-45-15-37 2-49 7-51 21-3 16 3 18 45 15 37-2 49-7 51-21zm2-62c0-23-4-25-44-25-39 0-44 3-48 25-5 24-3 25 43 25s49-2 49-25zm-2-67c3-15-4-18-42-18-40 0-46 3-46 21s5 20 42 17c31-2 44-8 46-20zm2579-48-5-60 331-3 332-2h-678v51c0 49 7 74 20 74 3 0 3-27 0-60zm-4034-7c-51-2-135-2-185 0-51 1-10 3 92 3s143-2 93-3zm7457-66c0-9-128-197-134-197-2 0 0 17 4 38 5 20 16 80 25 134l17 96 44-31c24-17 44-35 44-40zm378-105c24-79 40-147 37-152-4-7-105 61-273 185-1 1 39 30 90 63 51 34 95 58 98 54 4-4 25-71 48-150zm-279 38c1-4-61-46-182-125-34-22-36-26 46 97l59 86 39-26c21-15 38-29 38-32zm166-117c74-54 135-100 135-103s-4-11-9-18c-7-11-59-13-289-7-277 8-280 8-269 28 11 19 273 197 289 197 5 0 69-44 143-97zm-598-139 113-6-117-171c-64-95-120-176-124-181s-116 76-249 179-244 184-248 181c-3-4 1-12 9-20 10-10 448-348 468-362 5-4-236-355-245-355-4 0-62 161-129 357-66 197-126 359-133 362-7 2 46-167 117-375l128-378-81-120c-45-66-121-178-169-248l-87-129v255c0 162-4 257-10 259s2 118 24 318c19 173 37 333 39 356 1 22 12 52 23 66l19 27 270-5c149-2 321-7 382-10zm338-692c2-3 0-11-6-18-14-17-452 322-441 341 4 7 61 92 127 189l119 176 98-341c53-188 100-344 103-347zm362 674c4-4-341-646-347-646-3 0-48 149-101 331l-96 332 271-7c149-4 272-8 273-10zm-1449-378c-20-183-37-339-37-345-1-9-24-13-81-13h-79l-3 63-3 62-248 10 239 277c131 152 241 277 244 277 3 1-11-149-32-331zm848-178 209-162-317 7c-209 5-318 4-318-2s118-13 313-17c171-4 313-9 315-10 7-8-12-36-24-36-8 0-131-72-275-160-143-88-263-160-267-160s-33 77-65 170l-58 170 127 185c74 108 132 184 139 181 7-2 106-77 221-166zm-7477-107c1-49-3-83-9-83-5 0-10 4-10 9 0 6-15 11-32 14l-33 3 33 8c19 5 32 15 33 25v101c1 72 2 79 9 45 5-22 9-77 9-122zm-866 50c31-3 57-10 57-16 0-10-63-8-317 10-51 3-93 10-93 16 0 10 226 4 353-10zm7277-33c0-19-7-20-155-20s-155 1-155 20 7 20 155 20 155-1 155-20zm-7280-12c331-30 296-35-77-11-150 9-273 21-273 26 0 10 148 4 350-15zm313-35c-13-2-33-2-45 0-13 2-3 4 22 4s35-2 23-4zm6967-18v-25h-310v50h310zm625-240c30-87 52-162 48-165-35-30-196-119-206-113-46 27-135 108-130 117 8 14 122 180 181 264 24 35 46 62 47 60 2-2 29-75 60-163zm454-151c-206-384-230-426-235-422-9 9-135 390-132 399 4 11 520 330 525 325 2-1-69-137-158-302zm-330-211c34-98 61-181 61-186 0-9-309 235-309 245-1 7 168 116 180 117 4 1 34-79 68-176zm-361 121c31-26 57-51 57-56s-51-40-112-78l-113-70v58c0 51 4 63 47 124 25 38 50 68 55 68s35-21 66-46zm255-206 162-131-90 6c-49 4-178 12-285 18s-200 12-206 14c-7 2-9 17-5 40 6 33 14 41 126 110 66 41 124 75 128 75s81-59 170-132zm77-146 94-7-289-139c-160-76-296-141-304-144-11-4-12 23-8 159 4 90 6 164 7 164 1 1 421-26 500-33zm-440-832c0-16-7-20-35-20s-35 4-35 20 7 20 35 20 35-4 35-20zm0-65c0-22-4-25-35-25s-35 3-35 25 4 25 35 25 35-3 35-25zm0-59c0-20-11-25-43-19-40 8-35 33 8 33 24 0 35-5 35-14zm-5610-1393c-1-510-3-591-16-613-8-14-12-16-7-5 4 11 7 287 6 613-2 386 1 592 7 592 7 0 10-206 10-587zm957 490c-2-16-4-5-4 22 0 28 2 40 4 28 2-13 2-35 0-50z"/>
   <path d="m10405 7090c-4-7 70-10 214-10 141 0 221 4 221 10s-78 10-214 10c-133 0-217-4-221-10z"/>
   <path d="m6367 10052c-15-3-17-12-15-53 2-27 8-49 13-49 6 1 9 9 7 20-3 16 4 19 52 22l55 3-47 30c-26 17-55 29-65 27zm38-32c3-5-1-10-10-10s-13 5-10 10c3 6 8 10 10 10s7-4 10-10z"/>
   <path d="m11836 9982c-6-10 71-112 84-112 6 0 10 3 10 6 0 12-89 114-94 106z"/>
   <path d="m6418 9937c-54-11-98-23-98-28s6-9 13-9c19 0 188 38 194 43 13 14-21 12-109-6z"/>
   <path d="m8 6473c-2-247 0-452 4-458 5-6 11-6 15 0 12 15 4 905-7 905-6 0-11-180-12-447z"/>
  </g>
 </g>
</svg>
