<?xml version="1.0" standalone="no"?>
<!DOCTYPE svg PUBLIC "-//W3C//DTD SVG 20010904//EN"
 "http://www.w3.org/TR/2001/REC-SVG-20010904/DTD/svg10.dtd">
<svg version="1.0" xmlns="http://www.w3.org/2000/svg"
 width="1280.000000pt" height="1240.000000pt" viewBox="0 0 1280.000000 1240.000000"
 preserveAspectRatio="xMidYMid meet">
<g transform="translate(0.000000,1240.000000) scale(0.100000,-0.100000)"
fill="#70996d" stroke="none">
<path d="M6588 12380 c-57 -30 -79 -66 -76 -119 l3 -46 103 -3 102 -3 0 -58
c0 -79 11 -152 21 -145 5 3 9 62 9 132 l0 127 -53 67 c-28 37 -56 67 -62 67
-5 0 -26 -9 -47 -19z"/>
<path d="M6814 12250 c-32 -13 -54 -50 -54 -91 0 -33 3 -37 31 -43 17 -3 46
-6 64 -6 31 0 33 -2 38 -42 3 -24 4 -44 2 -46 -2 -2 -51 -11 -109 -20 l-106
-17 0 -81 0 -81 43 8 c59 11 61 11 47 -6 -7 -9 -11 -17 -9 -19 2 -2 77 -1 166
2 153 4 162 6 153 23 -12 22 -13 32 -1 25 5 -3 12 26 15 66 9 83 5 88 -72 88
-50 0 -53 2 -69 35 -12 25 -20 32 -28 25 -13 -11 -25 55 -25 143 0 47 0 47
-32 46 -18 0 -43 -4 -54 -9z"/>
<path d="M6845 11790 c-3 -5 -15 -60 -26 -122 -12 -62 -22 -114 -24 -116 -1
-1 -6 39 -9 90 -12 158 -25 179 -45 71 -6 -38 -25 -121 -40 -185 -15 -65 -24
-119 -20 -120 4 -2 5 -459 2 -1016 l-6 -1012 -31 -20 -31 -19 -3 154 c-2 129
-5 155 -17 155 -11 0 -15 12 -15 45 0 25 5 45 10 45 6 0 10 6 10 14 0 9 -8 12
-25 8 -24 -4 -25 -2 -25 43 0 45 -1 47 -24 41 -19 -5 -26 1 -42 29 -10 19 -22
35 -26 35 -11 0 -10 -7 7 -40 l16 -30 -40 0 c-22 0 -46 -3 -55 -6 -11 -4 -16
-1 -16 10 0 9 -4 16 -10 16 -10 0 -14 -20 -10 -54 4 -37 -11 -86 -25 -86 -18
0 -20 -17 -3 -22 6 -2 11 -20 11 -39 0 -19 -1 -280 -2 -581 l-2 -548 -60 0
c-33 0 -59 -4 -59 -10 0 -5 5 -10 10 -10 6 0 10 -18 10 -40 l0 -40 -45 0 c-25
0 -45 -4 -45 -10 0 -5 20 -10 45 -10 41 0 45 -2 45 -25 0 -23 -3 -25 -50 -25
-27 0 -50 -4 -50 -10 0 -5 18 -10 40 -10 22 0 40 -3 40 -8 0 -4 -29 -44 -64
-89 l-64 -81 9 -68 c11 -92 11 -94 -5 -94 -7 0 -25 -11 -40 -25 -25 -24 -26
-27 -26 -150 l0 -125 -36 0 -36 0 4 -67 3 -67 -34 -7 c-87 -18 -103 -88 -65
-282 5 -24 3 -28 -13 -25 -16 3 -18 -3 -16 -47 1 -27 5 -112 9 -187 l6 -138
52 0 c28 0 123 5 211 10 88 5 175 7 193 4 l32 -6 0 -69 0 -69 -155 0 -155 0 0
-85 c0 -84 0 -85 25 -85 19 0 25 -5 25 -22 0 -13 3 -33 6 -45 6 -22 10 -23
130 -23 117 0 124 -1 124 -20 0 -18 -7 -20 -80 -20 l-80 0 0 -195 0 -195 -55
0 -55 0 0 50 0 50 -379 0 -380 0 -3 -47 -3 -48 -55 0 -55 0 0 385 c0 303 -3
384 -12 383 -10 -2 -13 52 -13 247 0 151 -4 250 -10 250 -5 0 -11 -26 -13 -57
-3 -49 -4 -45 -5 24 -2 74 0 83 20 97 14 10 44 16 83 16 60 0 215 43 215 60 0
13 -227 19 -939 25 -482 3 -677 8 -681 16 -9 13 -23 199 -17 206 3 2 76 7 163
11 149 7 159 8 161 27 2 16 -31 40 -172 124 -96 58 -176 110 -179 116 -2 6 -9
53 -16 105 -7 52 -14 101 -16 108 -6 20 -73 14 -102 -8 -22 -18 -27 -19 -34
-6 -5 8 -14 13 -21 11 -11 -5 -61 -11 -99 -14 -13 -1 -18 -10 -18 -34 0 -26
-6 -36 -24 -45 -13 -6 -295 -125 -627 -265 l-604 -255 -313 -76 c-173 -42
-330 -76 -350 -76 -60 0 -112 -12 -112 -25 0 -6 -49 -23 -117 -39 -484 -114
-909 -220 -915 -229 -10 -17 -179 -25 -185 -10 -3 9 -27 13 -69 13 l-64 0 0
-59 c0 -56 -1 -59 -31 -71 -37 -16 -64 -53 -55 -77 4 -9 7 -207 6 -440 0 -316
-4 -429 -13 -443 -13 -22 0 -55 23 -55 23 0 36 33 22 55 -9 15 -12 122 -12
440 l0 420 29 0 c32 0 77 31 86 60 17 54 25 6 26 -162 1 -101 5 -286 10 -413
4 -126 8 -242 8 -256 1 -15 8 -32 16 -39 13 -11 19 -10 33 3 15 15 17 65 24
459 4 243 5 444 3 447 -3 2 -7 2 -10 -1 -3 -2 -8 -167 -12 -366 -6 -326 -8
-361 -23 -365 -15 -4 -18 16 -23 212 -12 370 -9 501 8 501 8 0 15 9 15 20 0
24 -7 23 105 5 50 -9 106 -18 125 -20 19 -3 46 -8 60 -11 14 -3 43 -8 65 -10
22 -2 50 -7 63 -9 12 -3 44 -8 70 -10 26 -3 63 -7 82 -10 19 -3 142 -7 272
-11 131 -3 262 -7 292 -9 30 -1 181 -6 335 -10 155 -4 281 -10 281 -14 0 -3
34 -5 75 -3 49 2 81 -1 91 -8 10 -9 14 -9 14 -1 0 12 56 14 149 5 l61 -7 0
-38 c0 -36 -2 -39 -35 -45 l-34 -6 -4 -127 -3 -126 -2 146 -2 146 -207 7
c-115 3 -270 9 -345 13 l-138 6 0 -541 0 -541 -82 5 c-46 3 -137 9 -203 12
-97 6 -120 10 -120 22 -1 18 -74 17 -86 -1 -4 -8 -24 -10 -53 -7 -26 3 -48 2
-51 -2 -6 -10 30 -20 73 -20 17 0 32 -5 32 -11 0 -6 -19 -9 -50 -8 -27 2 -51
-1 -52 -7 -2 -5 21 -10 50 -12 28 -2 52 -8 52 -13 0 -7 -25 -8 -70 -3 l-70 7
0 -141 0 -140 -30 -7 -30 -7 0 -254 0 -254 30 0 c29 0 30 -2 30 -46 0 -43 -2
-46 -22 -41 -13 4 -41 9 -63 12 l-40 7 3 54 c4 50 6 54 29 54 23 0 25 3 19 33
-6 32 -39 66 -65 67 -11 0 -12 -11 -7 -52 3 -29 6 -81 6 -114 l0 -62 48 -7
c71 -10 92 -16 92 -27 0 -6 -13 -8 -32 -4 -78 16 -108 18 -108 9 0 -5 31 -15
70 -22 38 -7 70 -17 70 -23 0 -6 -11 -8 -25 -4 -14 4 -45 9 -70 13 -71 9 -53
-12 21 -24 36 -6 68 -14 72 -17 13 -14 -7 -14 -67 0 -57 13 -83 13 -69 -1 2
-3 33 -11 69 -18 l64 -13 -2 -424 c-2 -233 -5 -425 -8 -428 -2 -3 -11 1 -20 8
-9 7 -18 10 -21 8 -8 -9 8 -208 17 -208 5 0 9 23 9 50 0 28 5 50 10 50 6 0 10
-30 10 -69 l0 -69 80 -18 c44 -9 80 -21 80 -25 0 -5 19 -9 43 -9 23 -1 148
-24 277 -53 l235 -52 3 -163 2 -162 25 0 25 0 0 155 c0 97 4 155 10 155 6 0
10 -70 10 -190 0 -120 4 -190 10 -190 6 0 10 68 10 185 0 102 4 185 8 185 4 0
119 -25 255 -55 135 -30 249 -55 252 -55 3 0 5 -278 5 -617 l0 -618 32 -115
31 -115 6 -662 c3 -364 9 -664 13 -668 3 -4 42 -11 85 -16 111 -14 120 -17
126 -38 10 -38 187 -51 187 -13 0 11 7 13 31 8 17 -3 44 -6 59 -6 15 0 37 -9
50 -20 24 -21 106 -28 125 -12 6 5 88 -1 184 -13 l174 -22 104 54 103 54 0
-234 0 -235 73 -6 c331 -28 766 -56 791 -50 17 3 108 40 201 81 94 42 181 79
195 82 24 7 25 11 30 112 6 117 -4 483 -23 907 -12 274 -12 288 10 460 21 166
22 216 23 805 l0 627 53 0 c28 0 70 3 91 7 l39 6 -7 -439 -7 -440 31 -71 30
-72 0 -667 c0 -367 1 -668 3 -670 1 -2 149 -14 327 -28 179 -14 351 -28 383
-32 55 -6 57 -5 57 18 1 18 31 44 150 128 l150 105 0 570 0 570 30 110 29 110
-6 432 c-6 414 -5 433 12 433 17 0 18 -23 11 -588 l-7 -587 40 -135 40 -136 3
-686 c2 -378 5 -688 8 -691 3 -2 254 -25 557 -51 l553 -46 150 127 151 128 -5
260 c-3 143 -8 449 -12 680 l-5 420 31 144 32 144 -12 544 c-6 300 -9 547 -6
550 3 4 279 21 613 39 335 18 609 33 611 34 1 0 2 56 2 123 0 68 3 192 7 276
l6 151 33 -6 c29 -5 34 -3 39 18 3 12 5 59 3 103 l-3 80 -38 3 -37 3 2 241 3
240 290 140 c160 77 300 144 312 149 19 7 30 2 58 -23 20 -17 39 -27 43 -23 4
4 -8 19 -25 34 -18 15 -33 31 -33 35 0 5 582 1089 1293 2410 1193 2216 1300
2413 1402 2556 l110 154 150 26 150 26 8 59 c14 109 13 109 -72 115 l-75 5 48
58 c26 32 45 62 41 65 -4 4 -35 -23 -69 -60 l-62 -68 -87 0 c-48 0 -87 4 -87
8 0 21 63 65 116 81 53 17 65 26 123 95 35 42 61 79 58 82 -3 3 -49 -33 -103
-80 -100 -88 -152 -116 -95 -51 30 35 39 55 23 55 -4 0 -45 -43 -90 -95 -46
-52 -90 -95 -99 -95 -13 0 -12 6 8 28 129 142 178 201 171 206 -5 3 -57 -48
-116 -114 -59 -66 -112 -120 -118 -120 -6 0 -2 10 9 23 136 152 192 220 188
228 -3 5 -56 -48 -116 -116 -61 -69 -115 -125 -121 -125 -31 0 -473 -52 -477
-56 -3 -3 1 -9 8 -13 9 -6 12 -29 10 -82 -3 -59 -1 -74 11 -77 8 -1 33 -27 54
-57 35 -49 56 -67 56 -49 0 4 -16 28 -36 55 l-36 49 30 0 c23 0 38 -10 66 -42
41 -51 60 -45 21 6 l-27 36 38 -1 c22 0 47 -4 57 -7 14 -6 -224 -280 -1249
-1437 -696 -787 -1489 -1683 -1762 -1992 -274 -309 -499 -562 -502 -562 -3 -1
-4 19 -2 44 l4 45 -117 0 c-108 0 -116 1 -109 18 5 9 10 63 12 120 l3 102
-150 0 c-98 0 -151 4 -151 10 0 7 -6 7 -19 0 -11 -5 -22 -7 -24 -3 -2 5 -2 61
1 126 l5 117 73 0 73 0 -5 53 c-3 28 -7 71 -10 95 l-5 42 -244 0 -243 0 -4 35
c-2 20 -2 38 1 40 2 3 62 5 133 5 l128 0 0 95 0 95 -29 0 c-28 0 -33 7 -75 96
-25 53 -46 98 -46 100 0 2 18 4 40 4 l40 0 0 90 0 90 81 0 81 0 -6 53 c-3 28
-8 99 -11 157 -3 58 -8 118 -11 133 l-6 28 -123 -3 c-68 -2 -121 -1 -119 2 3
2 43 25 91 51 49 27 80 49 74 53 -8 5 -11 61 -9 187 2 98 -1 179 -5 179 -13 0
-51 -22 -59 -34 -4 -6 -8 -23 -8 -38 0 -23 4 -28 25 -28 23 0 25 -3 25 -49 0
-59 -3 -61 -145 -61 -55 0 -151 -3 -212 -7 l-113 -6 0 -69 0 -68 -34 0 -34 0
-10 -62 -9 -63 -2 82 c-1 85 12 133 36 133 9 0 12 6 8 19 -3 10 7 43 23 77 16
33 46 97 67 144 20 47 42 91 48 99 6 7 12 20 13 27 1 8 16 43 32 77 16 34 34
76 41 94 7 17 19 34 28 37 8 3 12 10 9 15 -5 8 12 56 33 91 5 8 16 31 24 50
36 87 42 100 49 100 5 0 8 7 8 15 0 21 33 95 42 95 5 0 8 7 8 15 0 20 29 78
44 87 6 4 7 10 3 14 -3 4 4 28 17 53 13 25 29 61 36 79 7 17 16 32 21 32 5 0
9 9 9 20 0 26 27 80 40 80 5 0 8 8 8 18 -2 31 61 154 82 159 24 6 27 23 4 23
-12 0 -11 9 10 48 14 26 30 59 35 75 6 15 15 27 21 27 6 0 10 6 8 13 -4 20 33
105 49 111 8 3 12 10 9 15 -9 14 21 78 45 94 13 9 16 17 10 22 -13 7 4 45 26
58 7 5 11 13 7 18 -9 16 16 69 33 69 9 0 13 6 9 15 -9 25 12 68 30 61 13 -5
15 -1 10 19 -8 30 18 85 39 85 18 0 20 17 4 22 -20 7 19 68 43 68 21 0 21 -2
16 -170 -5 -133 -3 -173 8 -187 7 -10 14 -32 14 -49 0 -16 6 -39 14 -50 29
-38 31 8 27 441 -2 214 -1 241 14 251 9 7 14 17 11 22 -3 5 17 58 45 117 27
59 51 106 52 104 5 -10 -11 -708 -18 -735 -8 -36 10 -83 27 -66 10 10 13 805
4 821 -5 8 31 93 43 101 7 5 18 38 27 87 4 20 -1 21 -101 28 -113 8 -212 0
-229 -18 -13 -14 -61 -112 -71 -144 -3 -13 -10 -23 -13 -23 -4 0 -250 -294
-547 -653 l-540 -654 -6 421 c-3 232 -7 670 -8 974 -1 445 -4 552 -14 552 -9
0 -12 -11 -9 -37 l5 -36 -82 6 c-44 3 -83 2 -86 -3 -6 -9 54 -20 113 -20 23 0
42 -4 42 -10 0 -5 -5 -10 -10 -10 -6 0 -20 -20 -32 -45 -12 -25 -25 -45 -29
-45 -4 0 -24 23 -45 50 -21 28 -44 50 -52 50 -10 0 -12 14 -10 53 l3 52 101 5
101 5 -36 152 c-20 84 -41 153 -47 153 -7 0 -13 -45 -17 -126 -9 -167 -14
-175 -64 -88 -23 38 -54 96 -71 129 -31 62 -67 101 -77 85z m87 -517 l-3 -198
-20 33 c-19 29 -21 47 -20 167 1 85 -2 135 -8 135 -6 0 -11 -47 -13 -117 l-3
-117 -27 42 c-25 37 -28 51 -28 124 0 92 -17 98 -22 8 l-3 -55 -28 47 c-15 26
-35 52 -45 57 -15 8 -12 12 20 25 21 9 41 16 46 16 5 0 15 7 22 15 9 10 31 15
74 15 l61 0 -3 -197z m-178 38 c35 -57 36 -62 36 -156 l0 -96 -42 3 c-24 2
-42 6 -40 11 1 4 2 72 2 152 0 80 2 145 4 145 2 0 20 -27 40 -59z m255 -15
l41 -55 -35 -60 c-18 -33 -30 -63 -25 -66 4 -3 22 20 40 51 l32 57 24 -29 c17
-20 23 -39 21 -64 l-2 -35 -72 4 c-49 2 -73 -1 -73 -8 0 -7 21 -11 54 -11 30
0 61 -3 70 -6 24 -9 20 -59 -8 -90 l-23 -28 -27 47 c-16 26 -32 44 -37 41 -5
-3 -6 -11 -2 -17 3 -7 17 -29 31 -51 l24 -38 -23 -24 c-12 -13 -19 -27 -15
-31 4 -5 16 2 26 15 10 12 20 22 23 22 11 0 28 -60 25 -86 -3 -27 -7 -29 -50
-32 -61 -4 -63 -22 -3 -22 50 0 51 -3 37 -100 l-7 -44 -39 54 c-22 30 -41 50
-43 43 -2 -6 12 -34 31 -61 20 -27 36 -53 36 -57 0 -4 -16 -29 -35 -55 -37
-50 -34 -60 16 -60 18 0 19 -5 13 -82 -7 -89 -11 -101 -24 -78 -19 33 -39 55
-45 49 -3 -4 8 -28 25 -55 30 -49 30 -49 20 -134 -5 -47 -10 -91 -10 -97 0 -7
-9 -13 -20 -13 -11 0 -20 -4 -20 -10 0 -5 8 -10 18 -10 16 0 18 -5 12 -37 -5
-32 -1 -45 22 -80 l29 -42 -26 -50 c-30 -60 -18 -77 14 -21 12 22 24 40 26 40
2 0 22 -27 45 -59 l40 -60 -36 -61 c-20 -33 -40 -62 -43 -65 -4 -2 -22 21 -40
51 -19 29 -37 54 -42 54 -14 0 -10 -12 30 -75 l37 -60 -44 -75 c-24 -41 -46
-77 -48 -79 -2 -2 -4 424 -4 947 0 541 4 952 9 952 5 0 27 -24 50 -54z m115
-36 l-7 -73 -23 28 -23 29 27 47 c14 27 28 47 29 45 2 -2 0 -36 -3 -76z m-285
-84 c12 -20 21 -50 21 -75 0 -37 -2 -41 -25 -41 -24 0 -25 2 -25 75 0 41 2 75
4 75 2 0 14 -15 25 -34z m71 -107 c0 -5 -7 -9 -15 -9 -9 0 -15 9 -15 21 0 18
2 19 15 9 8 -7 15 -16 15 -21z m20 -469 c0 -253 -2 -460 -4 -460 -2 0 -15 17
-30 39 -26 36 -27 43 -24 147 3 104 4 109 26 112 30 5 28 22 -3 22 -16 0 -25
6 -25 16 0 14 3 14 15 4 23 -19 30 -5 11 22 -23 32 -24 238 -1 238 8 0 15 5
15 10 0 6 -7 10 -15 10 -12 0 -15 18 -15 103 0 84 4 107 19 131 22 33 17 58
-5 29 -9 -13 -13 -14 -14 -4 0 13 28 40 43 41 4 0 7 -207 7 -460z m-140 354
c0 -83 -1 -88 -36 -135 -38 -52 -30 -68 12 -21 l24 27 -2 -35 c-3 -30 -7 -36
-33 -40 -21 -4 -26 -8 -17 -14 7 -4 20 -5 28 -2 18 7 26 -12 22 -55 l-3 -32
-43 58 -44 58 4 139 3 138 43 0 42 0 0 -86z m70 50 c0 -21 -10 -50 -25 -72
l-25 -37 0 73 c0 70 1 72 25 72 22 0 25 -4 25 -36z m1640 -8 c0 -1 -5 -17 -11
-34 -12 -34 -31 -42 -108 -42 -47 0 -52 2 -46 18 4 9 9 25 12 34 3 9 17 19 32
21 35 5 121 8 121 3z m158 -11 c2 -2 -4 -18 -13 -35 l-17 -32 -61 7 c-34 3
-63 8 -65 10 -2 2 4 17 13 35 16 31 16 31 78 24 34 -4 63 -8 65 -9z m-1568
-52 c0 -20 -3 -24 -11 -16 -7 7 -9 19 -6 27 10 24 17 19 17 -11z m-230 -88 c0
-84 0 -85 -25 -85 -23 0 -25 3 -25 50 0 35 7 61 23 85 12 19 23 35 25 35 1 0
2 -38 2 -85z m1758 50 c2 -2 -5 -20 -15 -40 l-19 -37 -50 47 -49 46 65 -6 c36
-4 66 -8 68 -10z m-180 -39 c-12 -25 -28 -45 -37 -45 -9 0 -42 -3 -74 -7 l-59
-7 26 52 26 51 70 0 70 0 -22 -44z m83 -8 c21 -17 39 -34 39 -37 0 -3 -27 -4
-60 -3 -33 2 -60 6 -60 8 0 10 31 64 36 64 3 0 23 -14 45 -32z m-127 -80 c-13
-44 -35 -78 -49 -78 -8 0 -15 -4 -15 -10 0 -6 -27 -10 -60 -10 l-60 0 27 55
c29 59 17 54 141 63 20 2 22 -1 16 -20z m169 16 c3 -4 -3 -24 -14 -46 l-20
-39 -47 42 c-26 23 -49 44 -51 46 -2 2 25 3 61 3 35 0 67 -3 71 -6z m-49 -103
c-2 -2 -32 0 -68 4 l-66 7 21 39 20 40 48 -43 c27 -24 47 -45 45 -47z m-392
-159 l-107 -231 -390 -437 c-214 -240 -404 -453 -422 -473 l-32 -36 -1 71 0
71 526 636 c290 351 528 636 530 634 2 -2 -45 -108 -104 -235z m-1262 126 l-1
-93 -24 28 c-21 24 -25 38 -25 93 0 62 1 64 25 64 25 0 25 0 25 -92z m-113 18
c37 -53 38 -55 35 -130 l-4 -77 -36 3 -37 3 -3 128 c-1 70 -1 127 2 127 2 0
22 -24 43 -54z m1761 -11 c3 -3 -26 -65 -34 -74 -3 -3 -22 13 -44 34 -46 45
-39 57 30 48 25 -3 46 -7 48 -8z m-187 -44 c-21 -40 -47 -51 -128 -51 l-33 0
22 45 22 45 68 0 68 0 -19 -39z m139 -49 c3 -3 -24 -1 -60 2 -36 4 -66 9 -68
10 -1 2 5 20 13 40 l16 38 47 -43 c26 -23 49 -44 52 -47z m-1622 -17 c12 -19
22 -46 22 -60 0 -21 -5 -25 -30 -25 l-30 0 0 60 c0 33 3 60 8 60 4 0 17 -16
30 -35z m212 5 c0 -23 -4 -30 -20 -30 -24 0 -25 4 -4 35 21 32 24 31 24 -5z
m1240 -7 c0 -5 -13 -30 -28 -58 -23 -43 -32 -50 -61 -53 -30 -3 -33 -1 -22 11
19 23 -4 29 -24 7 -10 -11 -26 -20 -36 -20 -17 0 -16 5 8 55 27 54 27 54 77
58 28 2 59 4 69 5 9 1 17 -1 17 -5z m117 1 l52 -7 -20 -39 -20 -39 -27 20
c-15 10 -38 31 -51 45 -28 30 -26 31 66 20z m0 -111 c-2 -2 -36 0 -75 3 l-70
7 20 43 21 43 54 -46 c29 -25 52 -48 50 -50z m38 -351 c-12 -12 -14 11 -16
146 0 78 -5 142 -10 142 -15 0 -10 30 6 37 9 3 15 13 14 22 -1 9 0 21 2 26 2
6 5 -75 6 -179 2 -104 1 -191 -2 -194z m-1665 301 l0 -58 -26 33 c-14 17 -32
32 -40 32 -8 0 -14 10 -14 25 0 23 4 25 40 25 l40 0 0 -57z m70 -45 l0 -102
-25 34 c-21 28 -25 45 -25 102 0 66 1 68 25 68 l25 0 0 -102z m1478 -16 c-39
-4 -81 6 -73 18 3 5 -3 10 -14 12 -18 3 -19 5 -5 36 l14 34 55 -49 54 -48 -31
-3z m40 92 c31 -6 31 -7 16 -35 -8 -16 -18 -29 -22 -29 -5 0 -23 16 -42 35
l-34 35 26 0 c14 0 39 -3 56 -6z m-258 -12 c0 -5 -9 -17 -21 -28 -21 -19 -21
-19 -8 9 12 26 29 37 29 19z m110 3 c0 -2 -5 -16 -12 -30 -8 -19 -19 -25 -42
-25 -17 0 -42 -3 -55 -7 -24 -6 -24 -6 5 30 24 31 35 37 67 37 20 0 37 -2 37
-5z m-1472 -69 c30 -41 32 -47 32 -131 l0 -87 -25 6 c-14 4 -25 2 -25 -3 0 -5
11 -12 25 -15 l25 -6 0 -135 c0 -135 0 -136 -35 -205 -38 -75 -39 -80 -27 -80
5 0 17 18 27 40 27 59 35 58 35 -5 l0 -56 -35 7 c-44 8 -47 -10 -4 -22 l32 -9
-2 -95 c-2 -98 -4 -104 -53 -131 -17 -9 -18 17 -18 481 0 269 3 490 8 490 4 0
22 -20 40 -44z m1662 4 c0 -11 -4 -20 -10 -20 -5 0 -10 9 -10 20 0 11 5 20 10
20 6 0 10 -9 10 -20z m-240 -33 c0 -46 -25 -65 -90 -69 -66 -3 -70 1 -40 47
19 29 47 40 108 44 17 1 22 -4 22 -22z m110 -70 c0 -5 -8 -6 -17 -4 -10 3 -35
8 -56 12 l-37 6 15 30 16 29 39 -32 c22 -18 40 -37 40 -41z m47 63 c23 0 23
-1 8 -30 l-16 -31 -28 20 c-15 11 -34 28 -42 37 -13 16 -11 17 20 11 18 -4 44
-7 58 -7z m-1477 -137 c0 -39 -2 -43 -25 -43 -24 0 -25 2 -25 73 l1 72 24 -30
c18 -21 25 -42 25 -72z m950 -343 c-99 -216 -187 -405 -194 -419 -8 -14 -24
-51 -37 -81 -13 -30 -28 -59 -34 -65 -7 -5 -12 -17 -12 -25 0 -8 -16 -49 -35
-90 -20 -41 -57 -122 -83 -180 -26 -58 -50 -108 -54 -112 -3 -4 -25 -10 -48
-14 l-43 -7 0 152 c0 94 -4 151 -10 151 -6 0 -10 -57 -10 -150 l0 -150 -90 0
c-66 0 -90 3 -89 13 0 6 24 80 52 162 l52 150 38 3 c47 4 49 22 2 22 l-35 0 0
68 0 67 371 415 c204 228 385 432 403 452 17 20 32 35 34 34 1 -2 -79 -180
-178 -396z m330 395 c0 -2 -16 -38 -37 -79 l-36 -73 -60 -7 c-33 -3 -62 -4
-64 -3 -6 7 67 155 79 160 17 7 118 8 118 2z m76 -30 l39 -34 -45 -1 c-56 0
-73 13 -58 46 6 13 14 24 18 24 4 0 24 -16 46 -35z m72 29 c17 -5 21 -11 16
-28 -11 -36 -18 -36 -58 0 l-39 34 29 0 c16 0 39 -3 52 -6z m3978 -43 c-7 -11
-66 -20 -66 -10 0 10 20 17 48 18 13 1 21 -3 18 -8z m-5326 -82 c0 -10 -4 -19
-10 -19 -5 0 -18 -17 -29 -37 l-20 -38 -1 54 c0 52 1 53 25 47 14 -4 25 -2 25
4 0 5 -11 12 -25 16 -19 5 -25 13 -25 32 l0 26 30 -32 c17 -18 30 -42 30 -53z
m5240 71 c0 -5 -11 -10 -24 -10 -13 0 -31 -3 -40 -6 -9 -3 -16 -1 -16 4 0 11
21 19 58 21 12 0 22 -3 22 -9z m180 0 c-19 -13 -30 -13 -30 0 0 6 10 10 23 10
18 0 19 -2 7 -10z m225 0 c-3 -5 -44 -10 -91 -10 -49 0 -84 4 -84 10 0 6 37
10 91 10 57 0 88 -4 84 -10z m200 0 c4 -6 -20 -10 -64 -10 -41 0 -71 4 -71 10
0 6 28 10 64 10 36 0 68 -4 71 -10z m-705 -9 c0 -10 -49 -21 -93 -21 -41 0
-23 17 23 23 64 7 70 7 70 -2z m-3889 -51 l44 -39 -48 -1 c-27 0 -57 5 -68 10
-18 10 -18 13 -4 40 9 17 19 30 24 30 5 0 28 -18 52 -40z m3754 31 c-6 -5 -26
-10 -45 -11 -52 -3 -62 -1 -55 10 3 6 29 10 58 10 31 0 47 -4 42 -9z m275 -6
c-7 -9 -15 -13 -17 -11 -7 7 7 26 19 26 6 0 6 -6 -2 -15z m55 5 c-3 -5 -11
-10 -16 -10 -6 0 -7 5 -4 10 3 6 11 10 16 10 6 0 7 -4 4 -10z m55 0 c0 -5 -7
-10 -16 -10 -8 0 -12 5 -9 10 3 6 10 10 16 10 5 0 9 -4 9 -10z m-4060 -12 c0
-7 -4 -19 -9 -27 -8 -12 -15 -9 -41 12 l-32 27 41 0 c26 0 41 -5 41 -12z
m3910 3 c0 -10 -70 -21 -84 -13 -5 3 -1 9 10 13 27 11 74 11 74 0z m205 -1
c-3 -5 -11 -10 -16 -10 -6 0 -7 5 -4 10 3 6 11 10 16 10 6 0 7 -4 4 -10z m170
0 c-3 -5 -37 -10 -75 -10 -38 0 -72 5 -75 10 -4 6 23 10 75 10 52 0 79 -4 75
-10z m65 0 c0 -5 -5 -10 -11 -10 -5 0 -7 5 -4 10 3 6 8 10 11 10 2 0 4 -4 4
-10z m170 0 c0 -6 -32 -10 -75 -10 -43 0 -75 4 -75 10 0 6 32 10 75 10 43 0
75 -4 75 -10z m-710 -9 c0 -9 -56 -21 -99 -21 -36 0 -13 18 29 23 64 7 70 7
70 -2z m-5220 -85 c0 -60 -5 -82 -25 -117 l-25 -44 0 118 0 117 25 0 c24 0 25
-2 25 -74z m5080 64 c0 -5 -13 -10 -30 -10 -16 0 -30 5 -30 10 0 6 14 10 30
10 17 0 30 -4 30 -10z m296 -5 c-21 -16 -32 -13 -21 4 3 6 14 11 23 11 15 -1
15 -2 -2 -15z m44 5 c0 -5 -5 -10 -11 -10 -5 0 -7 5 -4 10 3 6 8 10 11 10 2 0
4 -4 4 -10z m100 0 c0 -5 -12 -10 -26 -10 -14 0 -23 4 -19 10 3 6 15 10 26 10
10 0 19 -4 19 -10z m130 -4 c8 -2 -13 -4 -48 -5 -35 0 -61 3 -58 7 4 7 70 6
106 -2z m-650 -6 c0 -5 -4 -10 -10 -10 -5 0 -10 5 -10 10 0 6 5 10 10 10 6 0
10 -4 10 -10z m320 0 c0 -5 -10 -10 -22 -10 -13 0 -33 -3 -45 -6 -13 -4 -23
-2 -23 4 0 12 22 19 63 21 15 0 27 -3 27 -9z m433 3 c-7 -2 -19 -2 -25 0 -7 3
-2 5 12 5 14 0 19 -2 13 -5z m167 0 c0 -5 -24 -7 -52 -5 -89 5 -97 9 -20 11
39 0 72 -2 72 -6z m-710 -12 c0 -11 -36 -21 -77 -21 -48 0 -40 18 10 23 23 2
48 4 55 5 6 1 12 -2 12 -7z m-191 -32 c-18 -11 -39 -11 -39 0 0 11 31 20 44
13 4 -2 2 -8 -5 -13z m61 11 c0 -5 -7 -10 -15 -10 -8 0 -15 5 -15 10 0 6 7 10
15 10 8 0 15 -4 15 -10z m320 0 c-20 -13 -33 -13 -25 0 3 6 14 10 23 10 15 0
15 -2 2 -10z m120 1 c0 -6 -17 -7 -37 -4 -52 8 -54 13 -5 13 23 0 42 -4 42 -9z
m115 -1 c-3 -5 -26 -10 -51 -10 -24 0 -44 5 -44 10 0 6 23 10 51 10 31 0 48
-4 44 -10z m125 0 c0 -5 -16 -10 -36 -10 -21 0 -33 4 -29 10 3 6 19 10 36 10
16 0 29 -4 29 -10z m160 0 c0 -6 -30 -10 -70 -10 -40 0 -70 4 -70 10 0 6 30
10 70 10 40 0 70 -4 70 -10z m-5844 -428 c-3 -2 -17 0 -33 5 l-28 10 4 159 c3
150 5 162 30 206 l26 48 3 -211 c1 -117 0 -214 -2 -217z m5209 418 c-3 -5 -18
-10 -33 -9 -24 0 -25 1 -7 9 28 12 47 12 40 0z m-4113 -54 l-26 -54 -60 -4
c-34 -2 -62 -3 -64 -2 -2 1 8 25 22 52 27 53 35 57 118 61 l37 1 -27 -54z
m108 32 c17 -12 30 -24 30 -27 0 -3 -25 -4 -55 -3 -60 4 -60 4 -45 33 14 25
34 24 70 -3z m90 10 c0 -7 -4 -19 -9 -27 -7 -11 -14 -10 -40 8 -17 12 -31 24
-31 27 0 2 18 4 40 4 25 0 40 -5 40 -12z m3840 2 c0 -5 -8 -10 -17 -10 -10 0
-35 -3 -55 -6 -24 -4 -38 -3 -38 4 0 6 19 13 43 15 23 2 48 4 55 5 6 1 12 -2
12 -8z m-156 -19 c3 -5 -12 -11 -35 -13 -43 -4 -64 8 -27 15 41 8 57 7 62 -2z
m-3788 -118 c-3 -3 -29 -2 -58 3 -39 5 -47 9 -30 13 24 6 28 28 5 23 -15 -3
-16 0 -7 22 5 13 14 9 50 -21 25 -20 42 -38 40 -40z m50 69 c19 -7 20 -9 7
-40 l-13 -33 -45 37 c-25 20 -45 38 -45 40 0 6 73 3 96 -4z m3933 -19 c-11
-14 -3406 -3851 -3535 -3995 -40 -44 -54 -50 -29 -11 31 47 3556 4023 3567
4023 6 0 4 -8 -3 -17z m49 -11 c-12 -15 -527 -596 -1143 -1292 -616 -696
-1423 -1607 -1793 -2025 -370 -418 -677 -761 -683 -763 -5 -2 -6 4 -1 15 12
32 3614 4093 3630 4093 10 0 7 -8 -10 -28z m172 23 c0 -3 -25 -42 -55 -88
l-55 -82 0 73 c0 71 -12 94 -26 50 -14 -45 -97 -218 -105 -218 -4 0 -17 13
-29 30 l-21 30 92 105 93 105 53 0 c29 0 53 -2 53 -5z m59 -22 c-24 -32 -132
-158 -153 -178 -19 -20 -19 -20 -4 5 89 148 121 190 145 190 23 0 24 -2 12
-17z m-4399 -28 c0 -18 -51 -115 -61 -115 -6 0 -9 -7 -6 -14 5 -11 -5 -17 -37
-21 -24 -4 -52 -5 -64 -3 -20 3 -20 5 13 75 20 43 40 73 51 76 26 6 104 8 104
2z m-1133 -131 c-3 -69 -7 -127 -10 -130 -2 -2 -12 -2 -21 2 -25 10 -23 161 4
214 11 22 23 40 27 40 3 0 3 -57 0 -126z m1275 96 l28 0 -17 -35 c-9 -19 -21
-35 -25 -35 -5 0 -28 18 -51 41 l-42 41 40 -6 c22 -3 52 -6 67 -6z m-88 -88
c-83 -5 -89 0 -64 48 l21 41 49 -43 50 -43 -56 -3z m-1570 -12 l51 -17 -73
-13 c-40 -6 -75 -10 -76 -9 -2 2 -1 21 1 41 5 34 7 37 25 27 12 -6 44 -19 72
-29z m1626 -19 c0 -21 -42 -101 -53 -101 -7 1 -34 21 -62 45 -49 43 -49 45
-22 45 15 0 27 5 27 10 0 6 25 10 55 10 30 0 55 -4 55 -9z m-190 -16 c0 -13
-25 -55 -33 -55 -5 0 -7 -6 -5 -12 3 -7 -2 -26 -12 -43 -15 -27 -23 -31 -73
-35 -31 -3 -57 -2 -57 1 0 4 13 37 29 72 l30 66 48 4 c26 2 54 4 61 5 6 1 12
0 12 -3z m80 -71 c0 -2 -20 -4 -44 -4 l-44 0 11 29 11 29 33 -25 c18 -14 33
-27 33 -29z m4049 -20 c11 -46 10 -56 -7 -90 -19 -38 -23 -40 -127 -67 -59
-15 -109 -27 -110 -25 -2 2 47 60 108 130 71 82 114 123 118 115 3 -6 12 -35
18 -63z m-5481 36 l22 -28 -41 -7 c-22 -4 -43 -5 -45 -2 -7 7 24 67 34 66 4 0
17 -13 30 -29z m5510 0 c8 -13 9 -27 4 -36 -6 -11 -11 -7 -19 21 -12 39 -5 46
15 15z m-5608 -30 c0 -11 -7 -20 -15 -20 -18 0 -19 12 -3 28 16 16 18 15 18
-8z m-56 -5 c4 -10 -1 -15 -16 -15 -17 0 -18 2 -8 15 7 8 14 15 15 15 2 0 5
-7 9 -15z m1525 -29 l22 -23 -40 1 c-46 1 -45 0 -31 27 14 25 22 24 49 -5z
m100 10 c14 -17 4 -46 -16 -46 -9 0 -31 14 -50 30 l-34 30 44 0 c26 0 49 -6
56 -14z m-1429 -54 l0 -59 -102 -17 c-57 -10 -111 -20 -120 -22 -16 -5 -18 3
-18 65 l0 71 33 0 c42 1 141 11 146 16 2 2 17 4 33 4 28 0 28 -1 28 -58z m234
52 c24 -9 23 -132 -1 -150 -10 -7 -21 -14 -25 -14 -5 0 -8 38 -8 85 0 84 3 91
34 79z m84 -20 c17 -5 22 -13 22 -38 -1 -25 -7 -34 -35 -47 l-35 -16 0 53 c0
56 3 60 48 48z m912 -38 c0 -13 -35 -76 -42 -76 -4 0 -8 -7 -8 -15 0 -9 -7
-29 -15 -45 -13 -25 -21 -29 -70 -32 -46 -2 -54 0 -50 12 4 8 21 47 38 86 l32
71 57 2 c32 1 58 -1 58 -3z m171 -13 c8 -8 6 -20 -6 -42 l-16 -32 -50 41 c-27
23 -49 44 -49 47 0 10 110 -3 121 -14z m-61 -68 c0 -2 -27 -1 -60 2 -41 4 -60
2 -60 -6 0 -6 16 -11 38 -12 20 0 54 -3 74 -7 l36 -7 -13 -32 c-11 -27 -17
-31 -37 -25 -14 4 -44 23 -67 43 l-43 36 21 42 22 42 44 -37 c25 -20 45 -38
45 -39z m-1017 -280 c-10 -13 -23 -25 -28 -25 -6 0 -16 -14 -24 -31 -13 -29
-14 -30 -67 -25 -175 19 -161 19 -167 -5 -4 -16 6 -38 39 -81 30 -38 43 -64
40 -76 -4 -9 -26 -39 -51 -67 l-44 -50 0 235 -1 235 35 23 35 22 0 -100 c0
-60 4 -100 10 -100 6 0 10 43 10 108 l0 107 35 23 35 22 0 -140 c0 -190 19
-185 22 6 3 139 4 147 26 162 l22 14 0 -151 c0 -94 4 -151 10 -151 6 0 10 60
10 159 l0 159 33 21 32 20 3 -145 c2 -125 0 -148 -15 -169z m5088 278 c-5 -10
-17 -27 -26 -38 -16 -19 -16 -19 -4 5 13 27 29 50 36 50 2 0 -1 -8 -6 -17z
m117 -60 c-23 -43 -50 -91 -60 -108 -18 -30 -18 -30 -18 -5 0 21 103 190 116
190 3 0 -14 -35 -38 -77z m-5528 7 c0 -36 -2 -40 -25 -40 l-26 0 23 40 c13 22
24 40 26 40 1 0 2 -18 2 -40z m-80 -41 c0 -5 -18 -9 -40 -9 l-40 0 17 36 18
36 22 -27 c13 -14 23 -30 23 -36z m1320 36 c22 -23 22 -25 4 -25 -10 0 -29 3
-41 6 -19 5 -21 10 -12 25 13 25 21 24 49 -6z m-1461 -37 c12 -15 11 -18 -3
-18 -10 0 -16 8 -16 22 0 12 1 19 3 17 1 -2 9 -12 16 -21z m5321 -168 c-27
-102 -50 -188 -50 -192 0 -16 -23 -7 -82 33 -36 25 -64 37 -69 32 -6 -6 9 -56
37 -127 45 -115 46 -118 28 -136 -12 -10 -99 -37 -221 -67 l-202 -50 22 27
c48 61 581 669 583 667 2 -1 -19 -86 -46 -187z m-4707 136 l26 -33 -29 -34
-29 -34 -1 68 c0 37 2 67 4 67 2 0 15 -15 29 -34z m740 18 c3 -3 -6 -30 -21
-60 -25 -51 -28 -54 -63 -54 -21 0 -44 -3 -53 -6 -22 -8 -20 6 8 71 l25 55 49
0 c27 0 51 -3 55 -6z m171 -7 c15 -11 16 -17 5 -40 -18 -39 -54 -35 -109 13
l-45 40 66 0 c37 0 73 -5 83 -13z m-1306 -45 c-1 -36 -5 -48 -17 -49 -9 -1
-56 -9 -106 -17 -49 -9 -96 -16 -102 -16 -9 0 -13 18 -13 56 0 54 1 55 28 53
15 -1 34 1 42 4 15 6 67 12 132 15 l37 2 -1 -48z m1187 8 c18 -20 17 -20 -19
-20 -34 0 -36 2 -26 20 6 11 14 20 19 20 4 0 16 -9 26 -20z m3991 -99 l7 -82
-54 -79 c-29 -43 -56 -77 -60 -74 -4 2 8 61 27 132 19 70 40 149 46 175 15 62
24 43 34 -72z m-4760 35 c-38 -51 -31 -68 9 -21 32 38 35 39 51 23 16 -16 16
-19 -10 -52 -23 -31 -33 -36 -67 -36 -33 0 -39 3 -39 21 0 11 17 40 37 64 43
52 58 52 19 1z m5010 -24 c-4 -3 -12 0 -18 6 -9 9 -8 18 3 39 l14 27 3 -33 c2
-18 1 -36 -2 -39z m-4176 29 c21 -16 23 -23 13 -43 -10 -23 -15 -24 -79 -20
-88 5 -110 16 -69 33 23 9 26 13 13 16 -19 5 -23 15 -11 26 15 15 108 6 133
-12z m-1250 -53 l-1 -43 -19 35 c-18 35 -17 40 18 49 1 1 2 -18 2 -41z m-50
26 c0 -9 -51 -94 -60 -99 -4 -3 -15 15 -23 40 -17 50 -23 44 48 58 32 7 35 7
35 1z m1110 -16 c0 -7 -7 -31 -16 -54 -17 -45 -33 -54 -96 -54 l-37 0 23 52
c13 28 31 55 42 59 31 12 84 10 84 -3z m-1261 -52 c-18 -25 -34 -46 -36 -46
-2 0 -3 20 -3 44 0 43 1 45 33 48 17 2 34 2 36 1 2 -1 -12 -22 -30 -47z m731
29 l23 -25 -48 0 -48 0 23 25 c13 14 24 25 25 25 1 0 12 -11 25 -25z m4878 -4
c-14 -20 -123 -111 -133 -111 -7 0 75 111 90 122 5 4 20 8 33 8 21 0 22 -2 10
-19z m-4258 -52 l35 -31 -65 7 c-36 3 -66 8 -68 10 -2 2 4 17 13 34 18 35 25
34 85 -20z m90 29 c-1 -7 -7 -24 -14 -37 l-13 -24 -39 36 -39 36 53 1 c35 0
52 -4 52 -12z m-846 -40 c-10 -13 -20 -24 -20 -26 -1 -2 -23 0 -49 3 -44 7
-45 8 -29 26 12 14 31 19 67 19 l50 0 -19 -22z m156 18 c0 -2 -34 -16 -75 -31
-88 -32 -85 -22 -56 -187 l18 -108 -32 0 -33 0 4 132 3 131 33 34 c28 29 38
33 85 33 29 0 53 -2 53 -4z m4769 -123 c-29 -54 -58 -106 -65 -116 -11 -17
-12 -16 -18 10 -16 85 -15 89 54 147 36 30 69 55 73 55 4 1 -16 -43 -44 -96z
m-5319 78 c0 -8 -38 -15 -163 -27 -80 -8 -79 6 -9 -151 34 -74 46 -113 38
-113 -7 0 -34 -3 -60 -6 l-46 -7 0 141 c0 163 -15 144 125 160 115 13 115 13
115 3z m217 -10 c9 -5 0 -22 -28 -56 -23 -28 -44 -51 -47 -52 -7 -2 -92 110
-92 120 0 7 152 -4 167 -12z m779 -29 c-14 -26 -22 -30 -67 -34 -28 -1 -52 -1
-54 1 -3 2 2 16 10 32 13 24 21 28 67 31 29 2 54 2 56 1 2 0 -3 -15 -12 -31z
m202 23 c1 -1 -5 -18 -13 -38 -20 -49 -39 -47 -100 8 l-50 45 80 -6 c44 -4 81
-7 83 -9z m-851 -7 c-2 -7 -11 -12 -19 -10 -10 1 -18 -8 -22 -25 -3 -16 -29
-52 -56 -82 -49 -52 -51 -53 -70 -36 -11 10 -20 24 -20 31 0 7 23 40 51 73 48
58 53 61 96 61 31 0 43 -4 40 -12z m727 -56 c-9 -2 -20 1 -24 7 -3 7 -14 9
-23 5 -18 -6 -21 3 -11 30 5 13 12 11 40 -12 26 -21 30 -28 18 -30z m3961 -60
c-4 -10 -9 -29 -12 -44 -3 -15 -11 -32 -18 -38 -10 -8 -21 10 -49 80 -20 49
-36 93 -36 95 0 3 27 -13 61 -35 45 -31 59 -46 54 -58z m-5082 -213 l-48 -59
-8 32 c-15 55 -3 76 46 80 23 2 42 7 42 13 0 5 -17 8 -39 7 -21 -2 -37 0 -35
5 2 5 22 58 44 118 l40 110 3 -123 3 -124 -48 -59z m398 192 c-16 -114 -19
-121 -42 -121 -23 0 -23 -6 -3 105 9 50 24 98 32 108 24 27 27 7 13 -92z m597
20 l-21 -49 -54 -4 c-58 -3 -59 0 -27 64 16 31 26 36 81 37 l41 1 -20 -49z
m180 23 c21 -14 21 -17 7 -45 -9 -16 -20 -29 -26 -29 -19 0 -64 28 -93 59
l-30 31 60 0 c38 0 68 -6 82 -16z m-831 -11 c-3 -5 -10 -41 -17 -80 -6 -40
-15 -73 -18 -73 -4 0 -18 16 -31 36 l-24 35 43 44 c42 42 57 55 47 38z m715
-28 l30 -25 -41 0 c-41 0 -46 5 -35 34 8 21 11 20 46 -9z m-849 -31 c18 -24
18 -25 -10 -59 -22 -27 -36 -34 -65 -34 l-38 -1 18 28 c26 42 65 92 71 92 3 0
14 -12 24 -26z m921 -33 c16 -18 16 -21 1 -50 -21 -42 -42 -39 -105 12 l-52
42 29 6 c60 14 109 10 127 -10z m-174 4 c0 -2 -12 -29 -27 -60 l-27 -55 -48 0
c-26 0 -48 2 -48 4 0 14 43 102 53 108 13 8 97 11 97 3z m-696 -40 l16 -25
-42 0 -41 0 23 25 c13 14 24 25 26 25 1 0 9 -11 18 -25z m746 -10 l23 -25 -41
0 c-45 0 -47 2 -32 31 14 25 22 24 50 -6z m4260 10 c0 -6 -231 -438 -240 -448
-4 -4 -5 41 -2 100 4 105 6 111 54 215 l50 106 57 15 c62 17 81 19 81 12z
m-5131 -52 c3 -2 -3 -11 -13 -21 -14 -12 -20 -14 -23 -4 -9 25 -23 11 -24 -25
-2 -33 -3 -34 -6 -9 -3 15 -2 39 1 52 6 21 11 23 34 18 15 -4 29 -9 31 -11z
m654 0 c-4 -9 -17 -38 -30 -65 -13 -26 -23 -52 -23 -57 0 -6 -4 -13 -10 -16
-6 -4 -10 21 -10 69 0 81 -5 76 67 85 8 0 10 -5 6 -16z m-93 -96 c0 -96 -3
-110 -34 -181 l-33 -77 -6 53 c-4 29 -7 104 -7 166 0 78 -3 112 -12 112 -8 0
-9 -48 -5 -187 l7 -188 -32 -72 c-18 -40 -36 -73 -40 -73 -5 0 -8 48 -8 108 0
101 -3 116 -50 262 -27 85 -48 155 -47 156 1 1 58 6 127 11 69 6 128 11 133
11 4 1 7 -44 7 -101z m385 72 c13 -13 14 -20 4 -43 -8 -16 -18 -25 -27 -21 -7
3 -23 5 -35 5 -27 1 -78 41 -59 47 18 7 4 23 -19 23 -11 0 -18 4 -15 8 8 13
135 -2 151 -19z m-1169 -1 c-3 -13 -6 -31 -6 -41 0 -16 -5 -16 -50 9 -27 15
-50 31 -50 35 0 7 33 14 89 17 20 2 22 -2 17 -20z m390 9 c2 -2 -44 -254 -49
-271 -2 -5 -33 44 -69 110 l-66 119 26 28 c26 28 30 29 92 22 35 -3 65 -7 66
-8z m64 -19 c0 -31 -88 -609 -93 -615 -3 -2 -8 34 -12 79 -4 46 -11 85 -15 88
-5 3 11 109 35 235 25 127 44 231 45 233 0 1 9 2 20 2 14 0 20 -7 20 -22z
m-337 -90 c-16 -15 -22 -16 -36 -6 -15 12 -14 17 16 54 l32 42 3 -36 c2 -24
-2 -41 -15 -54z m825 -3 l-42 -85 -48 0 -48 0 15 35 c8 19 22 52 31 73 24 56
32 62 85 62 l49 0 -42 -85z m107 55 c4 -6 -7 -10 -24 -10 -29 0 -41 17 -25 33
8 7 40 -8 49 -23z m-1126 -59 l23 -79 -23 -31 c-12 -17 -26 -31 -30 -31 -5 0
-7 49 -6 110 1 60 4 110 7 110 3 0 16 -36 29 -79z m636 -240 c32 -211 35 -246
23 -255 -8 -6 -13 -16 -11 -23 2 -6 -5 -29 -16 -50 -15 -28 -20 -33 -21 -18
-1 11 -5 138 -9 283 -8 236 -12 285 -25 271 -2 -2 0 -132 5 -289 10 -301 8
-338 -22 -404 l-19 -41 -1 200 c-1 110 -2 206 -2 213 1 6 -3 12 -8 12 -5 0 -9
-104 -9 -234 l0 -234 -29 -64 c-15 -34 -42 -92 -58 -128 -17 -36 -41 -89 -53
-118 -13 -29 -26 -49 -31 -45 -4 4 -18 59 -32 122 l-25 115 49 260 c27 144 51
268 52 276 2 8 10 -38 19 -103 17 -127 18 -116 -37 -399 -4 -24 -3 -38 3 -38
5 0 54 224 108 497 73 369 100 489 105 467 4 -16 24 -139 44 -273z m547 246
c15 -11 28 -25 28 -29 0 -5 -28 -6 -62 -2 -64 7 -115 33 -98 50 16 16 102 3
132 -19z m43 13 c3 -5 -1 -10 -9 -10 -9 0 -16 5 -16 10 0 6 4 10 9 10 6 0 13
-4 16 -10z m3485 7 c0 -2 -12 -14 -27 -28 l-28 -24 24 28 c23 25 31 32 31 24z
m-4623 -29 c-3 -8 -6 -5 -6 6 -1 11 2 17 5 13 3 -3 4 -12 1 -19z m150 -60 c-2
-18 -4 -6 -4 27 0 33 2 48 4 33 2 -15 2 -42 0 -60z m4507 -129 c14 -101 26
-197 26 -213 0 -18 -29 -71 -87 -156 l-87 -128 -28 20 c-15 10 -28 22 -28 26
0 4 31 133 69 287 38 154 66 284 62 288 -5 5 -39 -115 -75 -265 -37 -150 -69
-279 -72 -286 -2 -8 -38 14 -98 62 -52 42 -98 72 -101 66 -3 -5 37 -42 89 -82
56 -43 95 -80 96 -91 0 -28 -52 -227 -60 -227 -3 0 -11 15 -17 33 -29 88 -125
363 -129 366 -2 2 -7 2 -10 -2 -6 -6 19 -82 102 -316 29 -80 41 -131 32 -131
-2 0 -131 -16 -288 -35 -157 -19 -292 -35 -300 -35 -8 0 2 17 26 43 23 23 178
200 344 392 429 494 502 577 505 573 2 -2 15 -87 29 -189z m-3624 110 c38 -34
41 -40 20 -35 -14 3 -40 6 -57 6 -27 0 -33 4 -33 20 0 14 -6 20 -17 18 -10 -2
-19 4 -21 15 -3 13 3 17 30 17 25 0 44 -10 78 -41z m66 28 c6 -6 -7 -37 -15
-37 -3 0 -19 12 -36 26 l-30 25 39 -5 c21 -3 40 -7 42 -9z m3437 -19 c-33 -36
-68 -76 -1458 -1673 -517 -594 -951 -1095 -965 -1112 -28 -35 -50 -42 -50 -15
0 9 325 384 722 832 397 448 957 1082 1245 1408 288 325 527 592 530 592 4 0
-7 -15 -24 -32z m-4523 -5 c-1 -27 -20 -63 -34 -63 -6 0 -2 26 11 73 7 27 23
20 23 -10z m108 -305 c-3 -111 -3 -112 -15 -63 -22 94 -26 126 -15 123 5 -2
10 2 11 7 1 6 -5 10 -11 10 -18 0 -23 46 -6 56 11 8 11 10 -1 18 -9 6 -12 22
-9 50 3 38 2 41 -22 41 -23 1 -22 3 20 40 l45 38 3 -103 c1 -57 1 -155 0 -217z
m807 282 c3 -5 -1 -10 -10 -10 -9 0 -13 5 -10 10 3 6 8 10 10 10 2 0 7 -4 10
-10z m-56 -7 c-1 -19 -55 -116 -64 -117 -11 -1 -20 88 -11 110 6 14 76 20 75
7z m4209 -103 c-2 -55 -4 -100 -6 -100 -2 0 -19 12 -37 26 l-34 26 37 74 c20
41 38 74 40 74 2 0 2 -45 0 -100z m-5123 80 c3 -5 -1 -10 -10 -10 -9 0 -13 5
-10 10 3 6 8 10 10 10 2 0 7 -4 10 -10z m817 -47 c-4 -48 -6 -53 -28 -53 -13
0 -24 2 -24 5 0 9 51 107 54 103 1 -1 0 -27 -2 -55z m227 14 c21 -19 35 -39
33 -45 -7 -21 -116 -15 -145 8 -23 18 -25 24 -15 45 9 21 18 25 51 25 31 0 48
-7 76 -33z m61 16 c0 -23 -22 -25 -44 -4 l-21 22 33 -3 c17 -1 32 -8 32 -15z
m-1210 -34 c0 -34 -19 -59 -45 -59 -22 0 -25 4 -25 40 0 39 1 40 35 40 29 0
35 -4 35 -21z m200 -14 l0 -35 -60 -2 c-33 -1 -72 -2 -87 -2 -34 -1 -39 14
-13 47 20 25 28 27 91 27 l69 0 0 -35z m265 -7 c3 -3 -42 -254 -49 -273 -1 -5
-27 37 -56 95 -29 58 -56 107 -61 108 -5 2 -9 22 -9 44 l0 41 86 -6 c48 -3 88
-8 89 -9z m662 -118 c-2 -11 -16 -16 -52 -17 -43 -3 -54 1 -83 27 -27 25 -31
34 -22 49 18 35 69 31 117 -9 23 -19 41 -42 40 -50z m33 68 c0 -7 -5 -20 -10
-28 -8 -13 -14 -11 -37 13 l-28 27 38 0 c23 0 37 -5 37 -12z m-960 -28 l0 -30
-90 0 c-89 0 -90 0 -90 24 0 28 14 32 118 35 l62 1 0 -30z m719 -12 c-11 -66
-31 -108 -51 -108 -16 0 -18 9 -18 68 0 38 3 72 7 75 3 4 21 7 38 7 l32 0 -8
-42z m-969 23 c0 -6 -4 -13 -10 -16 -5 -3 -10 1 -10 9 0 9 5 16 10 16 6 0 10
-4 10 -9z m50 -16 c0 -20 -5 -25 -26 -25 -25 0 -25 6 -1 38 15 19 27 14 27
-13z m5194 -30 c23 -18 38 15 -139 -314 -71 -132 -133 -241 -137 -241 -5 0 -8
24 -8 53 0 44 10 73 63 182 60 121 69 134 135 190 39 33 71 63 71 68 2 17 -20
4 -68 -39 -28 -25 -51 -43 -51 -40 0 3 10 26 22 50 21 45 39 56 91 56 15 0 27
5 27 11 0 7 -15 10 -40 7 -22 -2 -40 -2 -40 -1 0 1 5 13 11 27 12 26 20 25 63
-9z m-4224 0 c10 -13 9 -15 -8 -15 -15 0 -20 5 -16 15 4 8 7 15 9 15 1 0 8 -7
15 -15z m-971 -87 c-1 -72 -1 -73 -9 -25 -9 48 -16 65 -25 56 -2 -3 5 -61 16
-129 11 -69 18 -156 17 -195 l-3 -70 -30 0 -30 0 -3 218 -3 217 36 0 35 0 -1
-72z m201 -13 l0 -85 -40 0 -41 0 -36 80 c-20 44 -40 80 -44 80 -13 0 -12 -4
21 -77 36 -80 36 -83 6 -83 -14 0 -28 -4 -31 -10 -4 -6 10 -10 35 -10 23 0 39
-4 36 -8 -2 -4 -12 -50 -21 -102 -19 -112 -24 -130 -34 -130 -15 0 -31 149
-31 290 l0 140 90 0 90 0 0 -85z m630 45 c0 -33 -3 -40 -20 -40 -11 0 -20 2
-20 4 0 9 31 76 35 76 3 0 5 -18 5 -40z m183 6 c34 -14 74 -52 65 -62 -3 -3
-33 -2 -66 2 -53 6 -61 9 -67 31 -11 44 11 54 68 29z m-1099 -293 l7 -293 -26
0 -27 0 7 120 c8 132 2 151 -51 164 -35 9 -37 2 53 239 14 38 26 67 28 65 1
-2 5 -135 9 -295z m1196 290 c-1 -25 -16 -30 -39 -12 l-23 19 31 0 c17 0 31
-3 31 -7z m-184 -30 c-10 -10 -19 5 -10 18 6 11 8 11 12 0 2 -7 1 -15 -2 -18z
m-696 -97 c-7 -7 -10 6 -9 40 l1 49 9 -39 c6 -26 6 -43 -1 -50z m640 65 c0 -6
-4 -13 -10 -16 -5 -3 -10 1 -10 9 0 9 5 16 10 16 6 0 10 -4 10 -9z m-40 -30
c0 -25 -5 -30 -36 -36 -20 -3 -38 -5 -40 -2 -2 2 2 18 8 35 10 25 18 32 40 32
24 0 28 -4 28 -29z m216 11 c21 -7 21 -8 7 -44 -8 -21 -21 -38 -28 -38 -17 0
-85 63 -85 79 0 12 70 14 106 3z m-134 -19 c10 -9 18 -24 18 -35 0 -14 -7 -18
-37 -17 -31 2 -33 3 -10 6 34 5 36 23 2 23 -23 0 -24 2 -15 20 13 24 18 25 42
3z m-3594 -59 c-7 -15 -14 -21 -16 -15 -5 16 5 41 17 41 7 0 6 -10 -1 -26z
m3650 7 c3 -8 -1 -12 -9 -9 -7 2 -15 10 -17 17 -3 8 1 12 9 9 7 -2 15 -10 17
-17z m-724 1 c2 -4 -2 -18 -10 -32 l-13 -25 -1 33 c0 29 12 43 24 24z m127 -7
l35 -5 -30 -165 c-16 -90 -32 -162 -35 -159 -12 12 -50 224 -51 282 0 59 1 62
23 58 12 -3 38 -7 58 -11z m445 -12 c-7 -16 -21 -46 -31 -68 -15 -35 -18 -38
-25 -20 -5 11 -9 39 -9 62 -1 43 4 47 62 52 16 1 16 -1 3 -26z m-616 -22 c0
-43 -8 -71 -20 -71 -7 0 -16 20 -47 98 -4 8 6 12 31 12 35 0 36 -1 36 -39z
m728 -23 c2 -21 1 -38 -3 -38 -17 0 -65 46 -65 63 0 15 6 18 33 15 29 -3 32
-6 35 -40z m83 22 c0 -3 -2 -17 -6 -32 -5 -20 -13 -28 -30 -28 -19 0 -24 6
-27 35 -2 20 -3 37 -1 39 5 5 64 -8 64 -14z m-275 -78 c-2 -2 -15 -2 -28 0
l-25 3 21 45 20 45 8 -44 c4 -25 6 -46 4 -49z m104 58 c0 -20 -5 -30 -15 -30
-18 0 -18 2 -3 35 15 32 18 32 18 -5z m-702 -129 c-27 -47 -65 -71 -54 -34 3
10 10 50 16 88 17 103 20 106 43 46 l21 -54 -26 -46z m130 -26 l-3 -100 -19
40 c-28 59 -33 174 -10 210 l18 28 9 -39 c4 -21 6 -84 5 -139z m4591 138 c0
-34 -7 -44 -65 -92 -35 -29 -67 -52 -69 -49 -6 6 116 178 127 178 4 0 8 -17 7
-37z m-7706 -23 c-4 -5 -258 -114 -563 -244 -546 -232 -557 -236 -592 -224
l-35 13 596 252 c538 227 596 249 599 231 2 -11 0 -24 -5 -28z m93 -125 c5
-60 2 -98 -11 -153 -10 -40 -20 -70 -23 -68 -2 3 -1 85 3 183 8 186 19 199 31
38z m158 76 c-3 -20 -13 -94 -22 -165 -12 -90 -22 -131 -31 -134 -12 -4 -13 8
-8 64 4 38 7 117 7 175 l0 106 30 -5 c28 -4 30 -6 24 -41z m3516 14 c18 -22 0
-38 -34 -29 -34 8 -37 44 -2 44 13 0 29 -7 36 -15z m58 4 c-2 -6 -8 -10 -13
-10 -5 0 -11 4 -13 10 -2 6 4 11 13 11 9 0 15 -5 13 -11z m-3818 -77 c0 -44
-3 -161 -7 -262 l-6 -183 -306 7 c-250 6 -372 3 -661 -13 -195 -12 -371 -20
-390 -20 l-35 1 35 9 c19 5 77 14 128 19 95 10 132 22 132 43 0 11 1068 475
1098 476 8 1 12 -21 12 -77z m3680 63 c0 -9 -9 -15 -25 -15 -31 0 -31 -7 -1
-39 13 -15 26 -43 29 -63 6 -36 5 -38 -23 -38 -23 0 -29 5 -34 28 -23 119 -19
142 25 142 19 0 29 -5 29 -15z m-3357 -457 l4 -48 -60 0 -60 0 6 33 c2 17 17
127 32 242 15 116 30 217 33 225 3 8 13 -79 23 -195 9 -115 19 -231 22 -257z
m3262 452 c9 -14 -43 -110 -60 -110 -12 0 -15 14 -15 60 l0 60 34 0 c19 0 37
-4 41 -10z m767 -16 c-4 -22 -9 -25 -41 -22 -46 4 -57 34 -14 41 59 9 60 8 55
-19z m3367 -50 c8 -52 8 -81 1 -95 -6 -10 -13 -19 -16 -19 -5 0 -77 55 -109
83 -6 5 11 27 45 57 30 27 58 50 61 50 4 0 12 -34 18 -76z m-3609 46 c0 -16
-7 -20 -30 -20 -23 0 -30 4 -30 20 0 16 7 20 30 20 23 0 30 -4 30 -20z m140 0
c0 -18 -7 -20 -60 -20 -53 0 -60 2 -60 20 0 18 7 20 60 20 53 0 60 -2 60 -20z
m3214 1 c17 -19 16 -22 -24 -81 -23 -34 -43 -60 -45 -58 -6 5 38 158 45 158 4
0 15 -9 24 -19z m-7294 -136 c0 -90 -4 -145 -10 -145 -6 0 -10 50 -10 129 0
116 4 161 16 161 2 0 4 -65 4 -145z m3860 130 c0 -12 -14 -15 -65 -15 -51 0
-65 3 -65 15 0 12 14 15 65 15 51 0 65 -3 65 -15z m-995 -33 c7 -25 -9 -36
-44 -30 l-20 3 21 33 c21 34 31 33 43 -6z m723 18 c13 0 17 -52 5 -63 -9 -10
-63 43 -63 61 0 10 7 12 23 8 12 -3 28 -6 35 -6z m-3273 -106 l130 -79 -143
-9 c-78 -5 -144 -7 -146 -5 -2 2 -7 49 -11 103 l-7 100 23 -15 c13 -9 83 -51
154 -95z m3005 61 c0 -28 -4 -35 -20 -35 -19 0 -19 1 -3 35 9 19 18 35 20 35
2 0 3 -16 3 -35z m860 -5 c0 -39 -1 -40 -34 -40 -26 0 -35 5 -40 23 -10 40 -7
46 32 50 20 2 38 4 40 5 1 1 2 -16 2 -38z m-750 5 c0 -16 -6 -25 -16 -25 -11
0 -14 5 -10 16 3 9 6 20 6 25 0 5 5 9 10 9 6 0 10 -11 10 -25z m430 -10 l0
-35 -65 0 -65 0 0 35 0 35 65 0 65 0 0 -35z m80 0 c0 -32 -2 -35 -30 -35 -28
0 -30 3 -30 35 0 32 2 35 30 35 28 0 30 -3 30 -35z m144 13 c12 -46 9 -48 -59
-48 l-65 0 0 35 0 35 59 0 c52 0 59 -2 65 -22z m-1214 -49 c0 -16 -7 -19 -50
-19 -27 0 -50 3 -50 8 1 19 18 31 50 34 44 4 50 2 50 -23z m695 11 c16 -17 16
-20 2 -26 -22 -8 -37 3 -37 27 0 24 12 24 35 -1z m3907 -39 c31 -24 54 -50 51
-56 -2 -8 -48 -17 -116 -25 -62 -6 -123 -14 -137 -17 l-25 -6 29 39 c41 55
119 123 132 115 6 -3 36 -26 66 -50z m-4802 -16 c0 -37 4 -65 10 -65 6 0 10
16 10 35 0 68 17 34 31 -65 l15 -100 -58 0 c-32 0 -58 -4 -58 -10 0 -6 26 -10
59 -10 66 0 61 6 76 -95 l6 -40 -21 28 -22 27 -48 -35 c-26 -19 -50 -35 -53
-35 -4 0 -8 94 -9 210 l-3 209 25 4 c14 2 28 5 33 6 4 0 7 -28 7 -64z m76 56
c17 14 19 -2 2 -19 -18 -18 -28 -14 -27 11 0 12 3 16 6 9 4 -10 8 -10 19 -1z
m154 -17 c0 -8 -4 -14 -10 -14 -5 0 -10 9 -10 21 0 11 5 17 10 14 6 -3 10 -13
10 -21z m-203 -6 c-3 -8 -6 -5 -6 6 -1 11 2 17 5 13 3 -3 4 -12 1 -19z m281
-251 c-2 -150 -6 -201 -15 -205 -15 -4 -16 60 -6 314 9 235 24 157 21 -109z
m347 186 c-2 -7 -16 -13 -30 -13 -22 0 -25 4 -25 39 0 33 4 40 23 43 17 2 23
-3 29 -27 4 -16 5 -36 3 -42z m35 68 c0 -6 -4 -13 -10 -16 -5 -3 -10 1 -10 9
0 9 5 16 10 16 6 0 10 -4 10 -9z m54 -6 c-4 -9 0 -15 9 -15 11 0 18 -13 22
-37 4 -21 9 -46 12 -55 6 -26 -39 -24 -62 2 -18 19 -17 20 3 20 12 0 22 5 22
10 0 6 -16 10 -35 10 -19 0 -35 2 -35 5 0 21 37 75 52 75 11 0 15 -5 12 -15z
m-551 -37 c-2 -5 -3 -98 -3 -208 l0 -200 -22 0 c-32 1 -54 36 -62 100 -4 30
-10 65 -13 78 -5 20 -2 22 41 22 61 0 59 18 -1 22 l-48 3 -12 75 c-20 129 -24
121 55 118 37 -2 66 -6 65 -10z m74 -117 c-4 -69 -7 -166 -7 -214 0 -86 -1
-88 -22 -85 -23 3 -23 4 -26 203 -1 110 0 205 2 211 2 6 17 12 32 12 l27 0 -6
-127z m583 113 c0 -14 -3 -14 -15 -4 -8 7 -15 14 -15 16 0 2 7 4 15 4 8 0 15
-7 15 -16z m40 9 c0 -5 -5 -15 -10 -23 -8 -12 -10 -11 -10 8 0 12 5 22 10 22
6 0 10 -3 10 -7z m42 -115 c3 -83 1 -108 -9 -108 -10 0 -13 -25 -13 -94 0 -52
-3 -97 -8 -99 -4 -3 -46 -3 -94 0 l-87 6 15 28 c8 16 19 29 25 29 6 0 9 7 5
15 -6 17 13 65 26 65 4 0 8 10 8 23 1 40 17 -4 25 -67 8 -68 14 -88 24 -81 4
2 2 43 -6 91 -9 59 -11 99 -4 128 l9 41 1 -57 c1 -39 5 -58 14 -58 9 0 11 22
9 86 -3 73 -1 86 11 81 21 -8 29 3 16 20 -13 15 8 80 21 66 5 -4 10 -56 12
-115z m-82 40 c0 -18 -26 -36 -36 -25 -3 3 -8 25 -11 49 l-6 43 27 -24 c14
-14 26 -33 26 -43z m-159 -16 c-36 -6 -23 -22 17 -22 68 0 126 -89 64 -98 -15
-2 -38 10 -69 37 -25 23 -50 41 -54 41 -14 0 -10 -20 4 -21 6 0 1 -5 -12 -10
-13 -5 -25 -8 -27 -6 -5 4 34 87 49 105 8 10 14 9 30 -5 19 -18 19 -18 -2 -21z
m-78 -27 c-26 -53 -29 -55 -66 -55 -21 0 -37 3 -35 8 2 4 11 28 22 55 18 46
20 47 62 47 l44 0 -27 -55z m4287 52 c0 -7 -302 -563 -311 -571 -6 -6 -9 -3
-9 10 0 29 253 553 270 557 19 6 50 8 50 4z m-7620 -49 c0 -10 -7 -18 -16 -18
-11 0 -14 5 -10 16 3 9 6 23 6 32 0 15 2 15 10 2 5 -8 10 -23 10 -32z m2640
-28 c0 -15 -7 -20 -25 -20 -24 0 -34 18 -18 33 15 15 43 7 43 -13z m910 10 c0
-5 -4 -10 -10 -10 -5 0 -10 5 -10 10 0 6 5 10 10 10 6 0 10 -4 10 -10z m-3545
-34 c2 -12 7 -51 10 -88 l7 -68 -46 0 c-25 0 -46 4 -46 9 0 10 28 139 34 157
7 19 36 11 41 -10z m44 -19 c-1 -18 -5 -43 -9 -57 -6 -19 -8 -9 -9 38 -1 40 3
61 9 57 6 -3 10 -21 9 -38z m30 21 c-1 -13 -5 -34 -9 -48 -7 -20 -8 -16 -9 23
-1 26 4 47 9 47 6 0 10 -10 9 -22z m2331 2 c0 -13 -7 -20 -20 -20 -13 0 -20 7
-20 20 0 13 7 20 20 20 13 0 20 -7 20 -20z m658 -145 c0 -38 -4 -81 -8 -95 -5
-15 -8 28 -8 110 0 97 3 124 9 95 4 -22 8 -71 7 -110z m-430 103 c-4 -30 -48
-39 -48 -10 0 10 3 22 7 25 3 4 15 7 25 7 14 0 19 -6 16 -22z m783 5 c13 -15
9 -16 -43 -10 -32 4 -58 3 -58 -2 0 -11 50 -21 105 -21 58 0 71 -17 48 -64
-10 -21 -24 -36 -34 -36 -25 0 -138 102 -131 118 12 31 91 42 113 15z m-150
-52 c-28 -55 -33 -59 -71 -63 -22 -2 -40 -2 -40 0 0 1 14 29 30 62 29 58 31
60 70 60 l40 0 -29 -59z m3403 -224 c42 -141 76 -262 76 -268 0 -8 -187 -291
-216 -328 -6 -7 -103 63 -103 74 0 6 28 168 63 360 57 318 67 394 46 354 -4
-8 -33 -164 -65 -347 -33 -182 -62 -337 -65 -343 -5 -6 -68 33 -163 101 l-157
112 98 111 c53 62 164 190 247 284 94 109 152 168 156 160 3 -6 41 -128 83
-270z m-4264 248 c0 -16 -6 -25 -15 -25 -9 0 -15 9 -15 25 0 16 6 25 15 25 9
0 15 -9 15 -25z m931 -60 c37 -33 38 -35 15 -35 -14 0 -27 4 -30 8 -3 5 -19 7
-36 4 l-32 -5 16 32 c9 17 19 31 23 31 3 0 23 -16 44 -35z m-4783 -21 c-15
-13 -237 -54 -319 -58 -57 -3 -95 -3 -85 0 11 4 99 25 195 49 160 39 178 41
194 27 9 -8 16 -16 15 -18z m4642 -81 c-16 -32 -30 -64 -30 -70 0 -32 -18 -9
-24 30 -3 23 -8 52 -12 64 -6 23 7 29 69 32 l28 1 -31 -57z m218 30 c18 -11
20 -17 12 -33 -10 -18 -22 -20 -110 -20 -55 0 -100 2 -100 5 0 2 7 20 17 39
l16 35 71 -6 c39 -3 81 -12 94 -20z m-5465 -69 c34 -6 53 -24 25 -24 -26 1
-833 -194 -839 -202 -5 -8 -268 -32 -276 -25 -2 2 50 16 114 32 191 44 689
165 808 195 128 33 119 32 168 24z m5272 -34 c18 -20 17 -20 -14 -20 -29 0
-31 2 -21 20 6 11 12 20 14 20 2 0 11 -9 21 -20z m-5093 -9 c3 -3 11 -22 15
-41 l10 -35 79 2 c43 1 181 -5 307 -14 l227 -16 0 -73 c0 -40 -4 -75 -9 -78
-5 -3 -197 3 -427 14 -231 11 -473 22 -539 25 -66 3 -205 10 -310 15 -104 6
-215 10 -245 11 -72 1 -82 -1 400 114 311 74 405 93 440 88 25 -3 48 -8 52
-12z m3378 -49 l0 -27 -142 3 c-79 2 -145 6 -147 8 -11 10 16 15 128 23 67 5
125 11 128 15 16 15 33 4 33 -22z m-310 -12 c0 -6 -48 -9 -127 -8 l-128 2 90
6 c150 10 165 10 165 0z m-380 -16 c0 -3 -13 -19 -30 -37 -28 -30 -30 -30 -30
-10 0 12 10 29 22 37 23 16 38 20 38 10z m50 -1 c-1 -14 -110 -126 -110 -113
0 15 88 120 101 120 5 0 9 -3 9 -7z m180 -15 c129 -3 145 -5 148 -20 3 -17 -9
-18 -152 -18 l-156 0 0 33 c0 19 3 27 8 20 5 -9 52 -13 152 -15z m-312 -2 c-2
-8 -49 -64 -106 -125 l-104 -111 -49 0 -49 0 -2 90 c-1 50 -2 102 -2 118 l-1
27 110 6 c210 10 207 10 203 -5z m780 -18 c3 -17 -9 -18 -147 -18 -145 0 -151
1 -151 20 0 20 5 20 147 18 131 -3 148 -5 151 -20z m-698 -88 c-55 -64 -60
-67 -60 -47 0 19 103 132 108 118 2 -6 -20 -38 -48 -71z m-80 47 c0 -12 -184
-219 -201 -225 -5 -2 -9 2 -9 8 0 11 197 230 206 230 2 0 4 -6 4 -13z m800
-177 l0 -190 -143 0 c-79 0 -252 -3 -385 -7 l-242 -6 0 124 0 124 61 68 61 68
152 -3 151 -3 3 -177 c1 -108 6 -178 12 -178 6 0 10 70 10 181 l0 181 150 -3
c83 -2 150 -1 150 3 0 5 5 8 10 8 6 0 10 -70 10 -190z m5750 134 c0 -21 -39
-84 -51 -84 -11 0 -4 16 20 44 9 10 15 20 14 22 -7 10 -2 34 7 34 6 0 10 -7
10 -16z m-6586 -67 c-77 -88 -167 -178 -171 -173 -7 7 16 35 117 144 47 51 86
88 88 82 2 -6 -13 -30 -34 -53z m37 -14 c-12 -24 -190 -217 -203 -222 -22 -8
20 49 106 142 85 92 118 119 97 80z m9 -142 l0 -110 -102 -3 c-57 -2 -104 -3
-105 -2 -4 1 200 224 204 224 2 0 3 -49 3 -109z m5456 -184 c88 -211 120 -297
113 -309 -8 -15 -35 -16 -286 -11 -153 3 -323 8 -379 12 l-101 6 259 298 c143
163 263 297 266 297 4 0 62 -132 128 -293z m969 179 c-31 -58 -58 -106 -60
-106 -5 0 85 193 98 208 28 35 13 -7 -38 -102z m-907 -16 l139 -99 -12 -68
c-7 -37 -21 -112 -30 -166 -10 -54 -21 -95 -25 -90 -5 4 -54 118 -110 253
-124 297 -113 270 -106 270 3 0 68 -45 144 -100z m-5758 70 c0 -17 -7 -20 -40
-20 -33 0 -40 3 -40 20 0 17 7 20 40 20 33 0 40 -3 40 -20z m6319 -162 c1 -14
-101 -91 -185 -141 -6 -3 -25 4 -42 17 l-32 23 102 144 103 143 27 -84 c14
-47 27 -93 27 -102z m-6319 97 c0 -22 -4 -25 -40 -25 -36 0 -40 3 -40 25 0 23
4 25 40 25 36 0 40 -2 40 -25z m-2 -68 c3 -16 -2 -18 -35 -15 -26 3 -39 9 -41
22 -3 14 2 17 35 14 27 -2 39 -8 41 -21z m5969 -87 l42 -31 -67 -98 c-37 -54
-68 -95 -70 -91 -1 4 6 58 18 120 11 63 20 117 20 122 0 14 15 9 57 -22z m414
-143 c23 -81 40 -150 37 -153 -6 -6 -268 184 -268 194 1 12 174 122 181 114 4
-4 26 -73 50 -155z m-303 64 c12 -11 22 -21 22 -24 0 -5 -137 -97 -145 -97 -4
0 15 31 42 70 26 38 50 69 53 69 3 0 15 -8 28 -18z m185 -137 c73 -53 133 -99
134 -102 2 -4 -1 -13 -6 -20 -7 -11 -57 -12 -274 -6 l-265 7 21 34 c20 31 227
183 250 183 5 0 68 -43 140 -96z m-560 -143 l78 -6 -117 -170 c-64 -93 -120
-174 -124 -178 -4 -5 -115 75 -246 177 -132 102 -243 186 -247 186 -22 0 14
-31 233 -201 129 -100 235 -187 234 -193 -1 -14 -236 -358 -240 -353 -2 2 -58
165 -125 362 -67 198 -123 362 -125 364 -2 2 -7 1 -10 -2 -5 -5 160 -507 243
-742 2 -6 -73 -122 -167 -259 l-170 -249 0 256 c0 143 -4 257 -9 259 -5 2 9
162 31 363 35 316 42 363 60 382 l21 22 301 -6 c165 -3 336 -8 379 -12z m665
-15 c4 -5 -341 -646 -348 -646 -4 0 -152 506 -188 644 -5 19 2 19 263 12 148
-4 271 -8 273 -10z m-363 -666 c3 -5 2 -16 -2 -25 -7 -11 -55 22 -225 154
l-217 168 127 177 126 176 92 -320 c51 -176 96 -324 99 -330z m-1081 305 c-19
-170 -36 -325 -39 -342 l-6 -33 -74 0 c-53 0 -76 4 -77 13 -3 22 -5 51 -7 84
l-1 32 -125 3 -126 3 242 278 c133 153 243 277 244 275 2 -2 -12 -142 -31
-313z m871 -215 c88 -68 164 -127 169 -131 5 -5 -133 -6 -307 -2 -209 4 -317
3 -317 -4 0 -6 114 -12 311 -16 171 -3 313 -8 315 -10 8 -8 -7 -34 -19 -34 -7
0 -131 -73 -276 -162 -145 -89 -267 -159 -270 -156 -3 4 -31 79 -62 169 l-56
163 96 134 c53 74 113 159 134 188 l38 53 42 -34 c23 -19 114 -90 202 -158z
m-7501 -168 c-3 -4 -9 -1 -11 6 -3 6 -18 12 -34 12 -18 0 -28 4 -24 10 3 6 17
10 31 10 l24 0 2 133 1 132 9 -148 c5 -82 6 -152 2 -155z m-807 124 c16 -16
-19 -17 -194 -6 -195 12 -217 15 -210 28 6 8 394 -12 404 -22z m7213 -26 c0
-19 -7 -20 -140 -20 -133 0 -140 1 -140 20 0 19 7 20 140 20 133 0 140 -1 140
-20z m-7175 -20 c94 -10 152 -18 130 -19 -73 -2 -530 30 -555 40 -36 13 221 0
425 -21z m248 -27 c-13 -2 -35 -2 -50 0 -16 2 -5 4 22 4 28 0 40 -2 28 -4z
m6931 -9 c3 -9 6 -20 6 -25 0 -5 -64 -9 -145 -9 l-145 0 0 25 0 25 139 0 c117
0 140 -2 145 -16z m626 -252 c30 -86 49 -156 44 -161 -5 -4 -51 -33 -102 -64
l-93 -57 -70 56 c-48 39 -68 62 -64 72 13 34 219 322 225 315 4 -5 31 -77 60
-161z m420 -203 c-104 -195 -192 -358 -194 -364 -2 -5 -5 -8 -8 -5 -14 15
-139 403 -132 410 16 15 518 319 521 316 2 -2 -82 -163 -187 -357z m-605 -88
c0 -6 -51 -42 -112 -80 l-113 -70 0 55 c0 49 5 62 51 130 l50 75 62 -50 c34
-27 62 -54 62 -60z m311 -80 c35 -101 58 -179 51 -174 -148 114 -306 248 -298
256 17 17 166 105 175 103 5 -1 37 -84 72 -185z m-113 -67 c87 -70 156 -128
154 -130 -4 -4 -438 22 -524 32 -52 5 -53 6 -53 39 0 32 5 37 123 109 67 42
127 76 132 76 6 0 81 -57 168 -126z m-68 -139 c126 -9 230 -17 232 -18 1 -2
-130 -66 -292 -144 l-295 -141 0 165 0 165 63 -6 c34 -4 165 -13 292 -21z
m-295 -840 c0 -10 -10 -15 -30 -15 -20 0 -30 5 -30 15 0 10 10 15 30 15 20 0
30 -5 30 -15z m0 -66 c0 -24 -3 -30 -16 -25 -9 3 -22 6 -30 6 -8 0 -14 10 -14
25 0 21 5 25 30 25 27 0 30 -3 30 -31z m-2 -61 c3 -14 -3 -18 -27 -18 -25 0
-31 4 -31 21 0 16 5 20 27 17 17 -2 29 -10 31 -20z"/>
<path d="M6360 9994 c0 -30 5 -54 10 -54 6 0 10 11 10 24 0 24 2 24 58 19 l57
-6 -45 33 c-24 18 -55 34 -67 36 -21 2 -23 -1 -23 -52z"/>
<path d="M6411 9929 c-83 -18 -99 -24 -90 -34 8 -7 209 38 209 47 0 11 -23 9
-119 -13z"/>
</g>
</svg>
