<svg width="24px" height="24px" stroke-width="1.5" viewBox="0 0 24 24" fill="none" xmlns="http://www.w3.org/2000/svg" color="#000000"><path d="M22 12c0-5.523-4.477-10-10-10S2 6.477 2 12s4.477 10 10 10M13 2.05S16 6 16 12" stroke="#000000" stroke-width="1.5" stroke-linecap="round" stroke-linejoin="round"></path><path d="M11 21.95S8 18 8 12c0-6 3-9.95 3-9.95M2.63 15.5H12M2.63 8.5h18.74" stroke="#000000" stroke-width="1.5" stroke-linecap="round" stroke-linejoin="round"></path><path clip-rule="evenodd" d="M21.879 17.917c.494.304.463 1.043-.045 1.101l-2.567.291-1.151 2.312c-.228.459-.933.234-1.05-.334l-1.255-6.116c-.099-.48.333-.782.75-.525l5.318 3.271z" stroke="#000000" stroke-width="1.5"></path></svg>
