<svg width="24px" height="24px" stroke-width="1.5" viewBox="0 0 24 24" fill="none" xmlns="http://www.w3.org/2000/svg" color="#000000"><path d="M12 22c5.523 0 10-4.477 10-10S17.523 2 12 2 2 6.477 2 12s4.477 10 10 10z" stroke="#000000" stroke-width="1.5" stroke-linecap="round" stroke-linejoin="round"></path><path d="M 9.7311762,9.9546413 12.799215,12 15.867253,9.9546413 M 5.6404582,13.022679 H 7.0040309 M 4.2768855,10.97732 h 2.7271454" stroke="#000000" stroke-width="1.02268" stroke-linecap="round" stroke-linejoin="round"></path><path d="M 7.0040309,8.9319615 V 8.5910684 A 1.3635727,1.3635727 0 0 1 8.3676036,7.2274957 h 8.8632224 a 1.3635727,1.3635727 0 0 1 1.363573,1.3635727 v 6.8178626 a 1.3635727,1.3635727 0 0 1 -1.363573,1.363573 H 8.3676036 A 1.3635727,1.3635727 0 0 1 7.0040309,15.408931 v -0.340893" stroke="#000000" stroke-width="1.02268" stroke-linecap="round"></path></svg>
