<svg width="100mm" height="100mm" version="1.1" viewBox="0 0 100 100" xmlns="http://www.w3.org/2000/svg">
 <g transform="translate(0,-197)">
  <ellipse cx="49.596" cy="246.74" rx="46.754" ry="46.754" fill="none" stroke="#1a5c15" stroke-width="2"/>
  <g transform="matrix(.14242 0 0 .14242 12.979 204.58)" fill="#1a5c15">
   <g fill="#1a5c15">
    <path d="m376.3 2.2c-1.4-1.4-3.33-2.2-5.3-2.2h-190c-1.98 0-3.91 0.8-5.3 2.2-1.4 1.39-2.2 3.319-2.2 5.3v33.84c0 4.14 3.36 7.51 7.5 7.51 4.13 0 7.5-3.37 7.5-7.51v-26.34h175v145.01h-92.5c-0.95 0-1.91 0.19-2.78 0.54l-39.72 15.87v-8.91c0-1.97-0.8-3.9-2.2-5.3-1.39-1.4-3.33-2.2-5.3-2.2h-32.5v-88.67c0-4.13-3.37-7.49-7.5-7.49-4.14 0-7.5 3.36-7.5 7.49v96.17c0 1.98 0.8 3.91 2.2 5.31 1.389 1.39 3.32 2.19 5.299 2.19h32.5v12.49c0 2.49 1.23 4.81 3.29 6.21 1.25 0.84 2.7 1.29 4.21 1.29 0.96 0 1.9-0.181 2.78-0.54l48.66-19.45h98.561c1.97 0 3.899-0.8 5.3-2.19 1.4-1.399 2.2-3.329 2.2-5.31v-160.01c0-1.981-0.8-3.91-2.2-5.3z" fill="#1a5c15"/>
   </g>
   <g fill="#1a5c15">
    <path d="m461 427h-22.496l8e-3 -16.605c18.366-16.047 29.988-39.624 29.988-65.866v-28.774c5.86-29.478 3.172-51.338-8.002-64.968-7.043-8.592-15.773-11.867-21.998-13.092v-33.194c0-4.143-3.357-7.5-7.5-7.5-2.846 0-5.762-0.016-8.73-0.031-3.103-0.017-6.264-0.033-9.461-0.033-36.182 0-76.803 2.289-100.93 29.622-17.357 19.661-23.367 48.697-18.377 88.765v29.206c0 26.249 11.628 49.832 30.002 65.879v16.593h-22.5c-20.678 0-37.5 16.822-37.5 37.5v39.996c0 4.143 3.357 7.5 7.5 7.5h220c4.143 0 7.5-3.357 7.5-7.5v-39.959c0-0.014 1e-3 -0.025 1e-3 -0.039 0-20.678-16.823-37.5-37.501-37.5zm-137.88-190.52c19.997-22.653 56.78-24.55 89.688-24.55 3.17 0 6.304 0.017 9.381 0.033 0.438 2e-3 0.874 4e-3 1.31 7e-3v32.525c0 2.07 0.819 4.051 2.328 5.469 1.51 1.418 3.503 2.152 5.567 2.02 0.683-0.04 10.571-0.147 17.503 8.307 5.119 6.245 7.673 15.827 7.616 28.25l-3.26-6.518c-1.651-3.305-5.466-4.916-8.985-3.792-0.446 0.142-44.884 14.206-70.518 14.206-24.588 0-46.836-13.331-47.049-13.46-3.297-2.018-7.589-1.194-9.91 1.899l-9.898 13.198c-0.605-25.359 4.828-44.683 16.227-57.594zm-14.622 108.04v-27.589l16.42-21.893c9.248 4.599 28.004 12.396 48.832 12.396 22.214 0 55.286-9.022 68.919-13.042l10.829 21.659v28.469c0 39.961-32.523 72.472-72.5 72.472s-72.5-32.511-72.5-72.472zm115.01 76.432-5e-3 9.524-23.031 15.358-11.971-5.98v-8.187c12.617-1.076 24.477-4.84 35.007-10.715zm-50.006 10.716v7.746l-16.221 6.488-18.777-15.016v-9.929c10.527 5.873 22.384 9.635 34.998 10.711zm-30 65.322h-34.999v-15h34.999zm140-32.498v32.498h-125v-22.5c0-4.143-3.357-7.5-7.5-7.5h-49.998c-4.143 0-7.5 3.357-7.5 7.5v22.5h-15v-32.498c0-12.406 10.094-22.5 22.5-22.5h27.37l22.952 18.353c0.066 0.053 0.141 0.088 0.208 0.139 0.212 0.157 0.429 0.303 0.654 0.437 0.136 0.081 0.271 0.16 0.409 0.231 0.215 0.109 0.436 0.203 0.658 0.291 0.149 0.059 0.296 0.123 0.447 0.172 0.247 0.08 0.5 0.137 0.755 0.191 0.127 0.027 0.251 0.065 0.378 0.086 0.387 0.062 0.779 0.098 1.176 0.098 0.262 0 0.523-0.018 0.787-0.045 0.046-6e-3 0.092-0.015 0.139-0.021 0.206-0.025 0.411-0.059 0.617-0.102 0.084-0.018 0.167-0.04 0.251-0.061 0.161-0.04 0.322-0.084 0.482-0.136 0.104-0.033 0.208-0.069 0.312-0.107 0.064-0.023 0.131-0.041 0.195-0.067l21.866-8.746 17.001 8.492c0.115 0.058 0.234 0.099 0.35 0.15 0.136 0.059 0.269 0.123 0.406 0.174 0.188 0.069 0.376 0.122 0.565 0.175 0.091 0.025 0.18 0.059 0.271 0.08 0.266 0.064 0.531 0.111 0.799 0.146 0.023 2e-3 0.044 8e-3 0.066 0.012 0.296 0.035 0.593 0.055 0.888 0.055 0.353 0 0.702-0.026 1.049-0.075 0.151-0.022 0.301-0.064 0.452-0.095 0.191-0.039 0.384-0.072 0.571-0.125 0.152-0.045 0.302-0.107 0.452-0.16 0.187-0.067 0.373-0.131 0.554-0.211 0.132-0.061 0.26-0.134 0.39-0.201 0.195-0.102 0.389-0.205 0.575-0.324 0.04-0.026 0.084-0.043 0.124-0.07l28.099-18.736h27.73c12.398 0 22.486 10.08 22.5 22.475 0 8e-3 -1e-3 0.017-1e-3 0.025z" fill="#1a5c15"/>
   </g>
   <g fill="#1a5c15">
    <path d="m211 427h-32.496l5e-3 -9.051c24.049-15.605 39.991-42.686 39.991-73.421v-16.528l9.977 3.563c0.82 0.293 1.673 0.437 2.522 0.437 1.527 0 3.04-0.467 4.321-1.369 1.994-1.405 3.18-3.691 3.18-6.131 0-45.011-8.666-78.434-25.758-99.337-14.041-17.173-33.342-25.88-57.368-25.88-28.005 0-54.249 12.031-63.574 16.814l-17.576-8.368c-2.232-1.063-4.844-0.958-6.981 0.28-3.008 1.741-29.189 18.954-23.743 86.77v49.749c0 30.739 15.946 57.822 40 73.427v9.045h-32.499c-20.678 0-37.5 16.822-37.5 37.5v39.998c0 4.143 3.358 7.5 7.5 7.5h220c4.142 0 7.5-3.357 7.5-7.5v-39.959c0-0.014 2e-3 -0.025 2e-3 -0.039-1e-3 -20.678-16.823-37.5-37.501-37.5zm-138.78-203.61 16.555 7.882c2.221 1.059 4.825 0.955 6.959-0.268 0.292-0.168 29.521-16.72 59.639-16.72 42.943 0 65.776 33.469 67.954 99.513l-129.81-46.359c-0.818-0.292-1.671-0.436-2.522-0.436-1.153 0-2.302 0.266-3.354 0.792l-29.799 14.899c-1.093-37.574 9.299-53.711 14.374-59.303zm-13.721 121.14v-45.394l32.992-16.495 112.01 40.003v21.886c0 39.961-32.523 72.472-72.5 72.472s-72.5-32.511-72.5-72.472zm105 81.21-5e-3 8.758v3e-3c0 17.921-14.58 32.5-32.5 32.5s-32.5-14.579-32.5-32.5v-8.759c10.054 4.034 21.022 6.26 32.5 6.26 11.481 0 22.45-2.227 32.505-6.262zm69.994 38.762v32.498h-205v-32.498c0-12.406 10.093-22.5 22.5-22.5h33.098c3.608 22.639 23.263 39.999 46.902 39.999s43.294-17.36 46.902-39.999h33.098c12.398 0 22.485 10.08 22.499 22.475 0 8e-3 -1e-3 0.017-1e-3 0.025z" fill="#1a5c15"/>
   </g>
   <g fill="#1a5c15">
    <path d="m298.98 39.51c-6.14-6.13-14.3-9.51-22.979-9.52-8.69 0.01-16.851 3.39-22.98 9.52-6.14 6.14-9.52 14.3-9.52 22.98 0 4.14 3.36 7.5 7.5 7.5 4.13 0 7.5-3.36 7.5-7.5v-0.011c0.01-4.67 1.83-9.05 5.13-12.35s7.689-5.13 12.37-5.14c4.67 0.01 9.06 1.84 12.359 5.14 3.31 3.3 5.131 7.689 5.141 12.36-0.01 4.68-1.83 9.069-5.141 12.369-3.277 3.277-7.63 5.102-12.264 5.136-0.032-1e-3 -0.064-5e-3 -0.096-5e-3 -4.141 0-7.5 3.369-7.5 7.51v20c0 4.13 3.359 7.5 7.5 7.5 4.13 0 7.5-3.37 7.5-7.5v-13.382h1e-3c5.812-1.367 11.149-4.318 15.479-8.647 6.13-6.13 9.511-14.29 9.521-22.98-0.01-8.681-3.391-16.841-9.521-22.98z" fill="#1a5c15"/>
   </g>
   <g fill="#1a5c15">
    <path d="m276 120c-4.141 0-7.5 3.359-7.5 7.5v9.99c0 4.14 3.359 7.5 7.5 7.5 4.13 0 7.5-3.36 7.5-7.5v-9.99c0-4.141-3.371-7.5-7.5-7.5z" fill="#1a5c15"/>
   </g>
  </g>
 </g>
</svg>
