<svg xmlns="http://www.w3.org/2000/svg" xmlns:xlink="http://www.w3.org/1999/xlink" width="100" zoomAndPan="magnify" viewBox="0 0 75 74.999997" height="100" preserveAspectRatio="xMidYMid meet" version="1.0"><defs><clipPath id="c9b360388e"><path d="M 26 29 L 59.324219 29 L 59.324219 59.324219 L 26 59.324219 Z M 26 29 " clip-rule="nonzero"/></clipPath><clipPath id="cf51ebc78d"><path d="M 15.824219 15.824219 L 29 15.824219 L 29 29 L 15.824219 29 Z M 15.824219 15.824219 " clip-rule="nonzero"/></clipPath></defs><g clip-path="url(#c9b360388e)"><path fill="#4297ff" d="M 59.171875 32.082031 L 56.617188 29.527344 L 51.476562 34.667969 C 48.851562 31.960938 45.179688 30.273438 41.109375 30.273438 C 33.132812 30.273438 26.660156 36.742188 26.660156 44.722656 C 26.660156 52.703125 33.132812 59.171875 41.109375 59.171875 C 49.09375 59.171875 55.558594 52.703125 55.558594 44.722656 C 55.558594 42.125 54.867188 39.695312 53.664062 37.585938 Z M 51.949219 44.722656 C 51.949219 50.707031 47.097656 55.558594 41.109375 55.558594 C 35.125 55.558594 30.273438 50.707031 30.273438 44.722656 C 30.273438 38.738281 35.125 33.886719 41.109375 33.886719 C 44.183594 33.886719 46.949219 35.171875 48.921875 37.222656 L 41.109375 45.035156 L 36.441406 40.363281 L 33.886719 42.917969 L 41.109375 50.140625 L 50.984375 40.269531 C 51.597656 41.628906 51.949219 43.132812 51.949219 44.722656 Z M 51.949219 44.722656 " fill-opacity="1" fill-rule="nonzero"/></g><path fill="#4297ff" d="M 50.140625 26.660156 C 50.140625 25.664062 50.949219 24.855469 51.949219 24.855469 L 53.753906 24.855469 L 53.753906 23.050781 L 51.949219 23.050781 C 50.949219 23.050781 50.140625 22.242188 50.140625 21.242188 L 50.140625 19.4375 L 48.335938 19.4375 L 48.335938 21.242188 C 48.335938 22.242188 47.527344 23.050781 46.53125 23.050781 L 44.722656 23.050781 L 44.722656 24.855469 C 44.722656 24.855469 46.53125 24.855469 46.53125 24.855469 C 47.527344 24.855469 48.335938 25.664062 48.335938 26.660156 L 48.335938 28.46875 L 50.140625 28.46875 Z M 50.140625 26.660156 " fill-opacity="1" fill-rule="nonzero"/><g clip-path="url(#cf51ebc78d)"><path fill="#4297ff" d="M 23.050781 26.660156 C 23.050781 24.667969 24.667969 23.050781 26.660156 23.050781 L 28.46875 23.050781 L 28.46875 21.242188 L 26.660156 21.242188 C 24.667969 21.242188 23.050781 19.625 23.050781 17.632812 L 23.050781 15.824219 L 21.242188 15.824219 C 21.242188 15.824219 21.242188 17.632812 21.242188 17.628906 C 21.242188 19.625 19.625 21.242188 17.632812 21.242188 L 15.824219 21.242188 L 15.824219 23.050781 C 15.824219 23.050781 17.632812 23.050781 17.632812 23.050781 C 19.625 23.050781 21.242188 24.667969 21.242188 26.660156 L 21.242188 28.46875 L 23.050781 28.46875 Z M 23.050781 26.660156 " fill-opacity="1" fill-rule="nonzero"/></g><path fill="#4297ff" d="M 23.050781 38.402344 C 23.050781 39.898438 21.835938 41.109375 20.339844 41.109375 C 18.847656 41.109375 17.632812 39.898438 17.632812 38.402344 C 17.632812 36.90625 18.847656 35.691406 20.339844 35.691406 C 21.835938 35.691406 23.050781 36.90625 23.050781 38.402344 Z M 23.050781 38.402344 " fill-opacity="1" fill-rule="nonzero"/><path fill="#4297ff" d="M 41.109375 19.4375 C 41.109375 20.433594 40.300781 21.242188 39.304688 21.242188 C 38.308594 21.242188 37.5 20.433594 37.5 19.4375 C 37.5 18.441406 38.308594 17.632812 39.304688 17.632812 C 40.300781 17.632812 41.109375 18.441406 41.109375 19.4375 Z M 41.109375 19.4375 " fill-opacity="1" fill-rule="nonzero"/><path fill="#4297ff" d="M 32.082031 28.46875 C 32.082031 29.460938 31.269531 30.273438 30.273438 30.273438 C 29.28125 30.273438 28.46875 29.460938 28.46875 28.46875 C 28.46875 27.472656 29.28125 26.660156 30.273438 26.660156 C 31.269531 26.660156 32.082031 27.472656 32.082031 28.46875 Z M 32.082031 28.46875 " fill-opacity="1" fill-rule="nonzero"/><path fill="#4297ff" d="M 23.050781 50.140625 C 23.050781 51.136719 22.238281 51.949219 21.242188 51.949219 C 20.25 51.949219 19.4375 51.136719 19.4375 50.140625 C 19.4375 49.148438 20.25 48.335938 21.242188 48.335938 C 22.238281 48.335938 23.050781 49.148438 23.050781 50.140625 Z M 23.050781 50.140625 " fill-opacity="1" fill-rule="nonzero"/></svg>