<svg xmlns="http://www.w3.org/2000/svg" xmlns:xlink="http://www.w3.org/1999/xlink" width="100" zoomAndPan="magnify" viewBox="0 0 75 74.999997" height="100" preserveAspectRatio="xMidYMid meet" version="1.0"><defs><clipPath id="dbd733d7f2"><path d="M 21.722656 19 L 53.222656 19 L 53.222656 56.332031 L 21.722656 56.332031 Z M 21.722656 19 " clip-rule="nonzero"/></clipPath></defs><g clip-path="url(#dbd733d7f2)"><path fill="#4297ff" d="M 23.636719 28.769531 L 23.175781 28.304688 L 22.660156 28.820312 L 23.125 29.285156 Z M 24.664062 27.742188 L 24.203125 27.277344 L 23.6875 27.792969 L 24.152344 28.257812 Z M 24.664062 28.820312 L 24.152344 28.304688 L 23.6875 28.769531 L 24.203125 29.285156 Z M 23.636719 27.792969 L 23.125 27.277344 L 22.660156 27.742188 L 23.175781 28.257812 Z M 49.800781 43.941406 L 49.074219 43.941406 L 49.074219 44.59375 L 49.800781 44.59375 Z M 51.253906 43.941406 L 50.527344 43.941406 L 50.527344 44.59375 L 51.253906 44.59375 Z M 50.488281 44.632812 L 49.835938 44.632812 L 49.835938 45.359375 L 50.488281 45.359375 Z M 50.488281 43.179688 L 49.835938 43.179688 L 49.835938 43.90625 L 50.488281 43.90625 Z M 50.945312 37.898438 C 50.8125 38.949219 49.648438 40.707031 48.621094 42.253906 L 48.457031 42.503906 C 47.800781 43.488281 47.234375 44.335938 47.0625 44.835938 C 46.679688 45.945312 46.808594 47.890625 46.886719 48.675781 L 46.886719 48.710938 C 46.824219 50.980469 45.136719 52.871094 42.011719 54.175781 C 39.8125 55.097656 37.636719 55.421875 37.285156 55.46875 C 36.003906 52.195312 34.417969 51.449219 33.796875 51.285156 C 33.664062 51.246094 33.429688 51.25 32.390625 51.363281 C 31.488281 51.453125 30.121094 51.585938 29.445312 51.457031 C 28.542969 51.285156 28.042969 50.988281 28.042969 50.625 L 28.042969 48.867188 C 28.042969 48.515625 27.894531 48.234375 27.753906 47.964844 L 27.671875 47.8125 C 27.558594 47.59375 27.449219 47.390625 27.425781 47.171875 C 27.394531 46.886719 27.449219 46.714844 27.488281 46.636719 L 27.59375 46.40625 L 27.394531 46.246094 C 27.273438 46.148438 26.992188 45.917969 26.859375 45.738281 L 26.851562 45.726562 C 26.746094 45.589844 26.761719 45.128906 26.777344 44.640625 C 26.792969 44.199219 26.796875 43.945312 26.757812 43.789062 L 26.738281 43.714844 L 26.691406 43.65625 C 26.640625 43.601562 26.5625 43.503906 26.015625 43.332031 L 25.992188 43.324219 C 25.625 43.203125 25.164062 43.050781 25.054688 42.75 C 24.902344 42.308594 25.257812 41.75 25.800781 40.898438 L 26.007812 40.574219 C 26.132812 40.375 26.265625 40.160156 26.40625 39.933594 C 27.210938 38.582031 27.125 38.046875 26.890625 37.144531 L 26.867188 37.050781 C 26.671875 36.292969 26.605469 35.480469 26.589844 35.242188 L 35.796875 35.242188 L 34.863281 35.460938 L 35.199219 36.570312 L 34.273438 37.269531 L 35.035156 38.148438 L 34.472656 39.164062 L 35.523438 39.65625 L 35.425781 40.8125 L 36.289062 40.832031 L 34.839844 48.179688 L 36.941406 47.304688 L 38.550781 48.914062 L 38.832031 47.488281 L 39.113281 48.914062 L 40.722656 47.304688 L 42.820312 48.179688 L 41.371094 40.832031 L 42.234375 40.8125 L 42.136719 39.65625 L 43.1875 39.164062 L 42.625 38.148438 L 43.386719 37.269531 L 42.460938 36.570312 L 42.796875 35.460938 L 41.863281 35.242188 L 45.550781 35.242188 L 45.550781 35.246094 L 49.464844 35.242188 L 51.164062 35.242188 C 51.160156 35.539062 51.128906 36.429688 50.945312 37.898438 Z M 28.238281 31.28125 L 30.214844 30.152344 L 32.492188 34.585938 L 30.3125 34.585938 Z M 36.101562 33.089844 L 37.800781 33.394531 L 37.277344 34.261719 L 36.136719 34.042969 L 36.070312 34.585938 L 35.832031 34.585938 Z M 40.167969 28.71875 L 40.242188 28.289062 C 40.285156 28.054688 40.511719 27.894531 40.75 27.9375 C 40.863281 27.957031 40.964844 28.023438 41.03125 28.117188 C 41.097656 28.214844 41.121094 28.328125 41.101562 28.441406 C 41.078125 28.558594 41.015625 28.65625 40.921875 28.722656 C 40.824219 28.789062 40.710938 28.816406 40.59375 28.796875 Z M 35.332031 31.261719 C 35.503906 30.285156 35.070312 29.398438 34.347656 28.03125 C 33.730469 26.863281 33.519531 25.679688 33.730469 24.519531 C 34.234375 21.695312 36.703125 19.710938 39.472656 19.710938 C 39.816406 19.710938 40.160156 19.738281 40.507812 19.800781 C 43.675781 20.367188 45.792969 23.410156 45.226562 26.578125 C 45.019531 27.738281 44.414062 28.773438 43.429688 29.65625 C 42.273438 30.6875 41.558594 31.371094 41.386719 32.34375 C 41.207031 33.328125 40.945312 33.292969 40.730469 33.253906 L 39.398438 33.015625 L 40.050781 29.363281 L 40.480469 29.441406 C 40.542969 29.453125 40.609375 29.457031 40.675781 29.457031 C 40.894531 29.457031 41.109375 29.390625 41.296875 29.261719 C 41.535156 29.09375 41.695312 28.84375 41.746094 28.558594 C 41.796875 28.273438 41.734375 27.984375 41.566406 27.742188 C 41.398438 27.503906 41.152344 27.34375 40.863281 27.292969 C 40.269531 27.1875 39.703125 27.582031 39.597656 28.175781 L 39.523438 28.601562 L 38.605469 28.4375 L 38.683594 28.011719 C 38.789062 27.417969 38.394531 26.851562 37.800781 26.746094 C 37.515625 26.695312 37.226562 26.757812 36.988281 26.925781 C 36.746094 27.089844 36.585938 27.339844 36.535156 27.625 C 36.484375 27.914062 36.546875 28.203125 36.714844 28.441406 C 36.882812 28.679688 37.128906 28.839844 37.417969 28.890625 L 37.84375 28.96875 L 37.191406 32.621094 L 35.636719 32.34375 C 35.417969 32.304688 35.152344 32.253906 35.332031 31.261719 Z M 39.234375 33.652344 L 38.832031 33.933594 L 38.148438 33.457031 Z M 38.753906 32.898438 L 37.835938 32.738281 L 38.492188 29.082031 L 39.40625 29.246094 Z M 38.039062 27.894531 L 37.960938 28.324219 L 37.53125 28.246094 C 37.417969 28.226562 37.320312 28.164062 37.253906 28.066406 C 37.183594 27.972656 37.160156 27.855469 37.179688 27.742188 C 37.203125 27.628906 37.265625 27.527344 37.359375 27.460938 C 37.433594 27.410156 37.519531 27.382812 37.609375 27.382812 C 37.632812 27.382812 37.660156 27.386719 37.6875 27.390625 C 37.921875 27.433594 38.078125 27.660156 38.039062 27.894531 Z M 39.988281 41.636719 L 40.691406 41.933594 L 40.835938 41.515625 L 41.941406 47.101562 L 40.566406 46.53125 L 39.515625 47.582031 L 39.164062 45.800781 Z M 36.824219 41.515625 L 36.96875 41.933594 L 38.035156 41.484375 L 38.832031 42.328125 L 39.277344 41.855469 L 38.144531 47.582031 L 37.09375 46.53125 L 35.71875 47.101562 Z M 40.960938 34.820312 L 41.074219 35.730469 L 41.96875 35.9375 L 41.699219 36.816406 L 42.433594 37.371094 L 41.832031 38.066406 L 42.273438 38.871094 L 41.445312 39.257812 L 41.523438 40.171875 L 40.605469 40.191406 L 40.304688 41.058594 L 39.457031 40.703125 L 38.832031 41.371094 L 38.203125 40.703125 L 37.355469 41.058594 L 37.054688 40.191406 L 36.136719 40.171875 L 36.214844 39.257812 L 35.386719 38.871094 L 35.828125 38.066406 L 35.226562 37.371094 L 35.960938 36.816406 L 35.695312 35.9375 L 36.585938 35.730469 L 36.699219 34.820312 L 37.601562 34.992188 L 38.078125 34.207031 L 38.832031 34.730469 L 39.582031 34.207031 L 39.871094 34.679688 L 39.839844 34.855469 L 39.992188 34.882812 L 40.058594 34.992188 L 40.316406 34.941406 L 40.484375 34.972656 L 40.496094 34.910156 Z M 49.351562 34.585938 C 48.933594 32.882812 48.515625 31.179688 48.097656 29.476562 L 50.050781 29 L 49.972656 28.679688 C 49.75 27.773438 48.015625 27.675781 47.359375 27.839844 L 47.039062 27.917969 L 47.460938 29.632812 C 47.804688 31.039062 48.152344 32.445312 48.496094 33.851562 C 48.105469 33.714844 47.648438 33.699219 47.195312 33.808594 C 46.675781 33.9375 46.222656 34.222656 45.945312 34.585938 L 41.589844 34.585938 L 41.523438 34.042969 L 40.617188 34.21875 L 40.671875 33.90625 C 40.734375 33.914062 40.796875 33.921875 40.851562 33.921875 C 41.769531 33.921875 41.957031 32.875 42.03125 32.460938 C 42.167969 31.695312 42.785156 31.109375 43.863281 30.144531 C 44.960938 29.164062 45.636719 28 45.871094 26.695312 C 46.503906 23.167969 44.148438 19.789062 40.621094 19.15625 C 38.914062 18.851562 37.191406 19.226562 35.765625 20.21875 C 34.34375 21.210938 33.390625 22.699219 33.082031 24.40625 C 32.851562 25.710938 33.082031 27.035156 33.769531 28.335938 C 34.445312 29.617188 34.824219 30.378906 34.6875 31.144531 C 34.605469 31.585938 34.402344 32.738281 35.457031 32.972656 L 35.167969 34.585938 L 33.230469 34.585938 L 30.484375 29.246094 L 27.316406 31.050781 L 29.539062 34.585938 L 25.90625 34.585938 L 25.933594 35.1875 C 25.9375 35.316406 25.996094 36.292969 26.234375 37.210938 L 26.257812 37.304688 C 26.457031 38.070312 26.546875 38.421875 25.847656 39.59375 C 25.707031 39.816406 25.574219 40.027344 25.453125 40.226562 L 25.25 40.546875 C 24.625 41.519531 24.175781 42.226562 24.4375 42.972656 C 24.660156 43.570312 25.308594 43.789062 25.785156 43.945312 L 25.8125 43.957031 C 25.957031 44 26.0625 44.039062 26.132812 44.066406 C 26.136719 44.234375 26.128906 44.5 26.121094 44.617188 C 26.097656 45.332031 26.082031 45.804688 26.335938 46.125 C 26.453125 46.292969 26.628906 46.457031 26.808594 46.609375 C 26.769531 46.773438 26.746094 46.980469 26.773438 47.242188 C 26.8125 47.582031 26.960938 47.867188 27.09375 48.117188 L 27.171875 48.273438 C 27.289062 48.488281 27.386719 48.679688 27.386719 48.867188 L 27.386719 50.625 C 27.386719 51.359375 28.039062 51.859375 29.324219 52.101562 C 30.089844 52.246094 31.457031 52.113281 32.457031 52.015625 C 32.710938 51.988281 33.472656 51.902344 33.636719 51.917969 C 34.066406 52.039062 35.488281 52.660156 36.6875 55.738281 L 36.835938 56.128906 L 37.292969 56.128906 L 37.3125 56.125 C 37.335938 56.125 39.753906 55.832031 42.261719 54.78125 C 45.644531 53.371094 47.46875 51.277344 47.539062 48.71875 L 47.539062 48.675781 C 47.539062 48.671875 47.539062 48.652344 47.535156 48.613281 C 47.421875 47.421875 47.402344 45.855469 47.679688 45.050781 C 47.828125 44.628906 48.425781 43.734375 49.003906 42.867188 L 49.167969 42.617188 C 50.285156 40.929688 51.445312 39.183594 51.59375 37.980469 C 51.816406 36.207031 51.820312 35.242188 51.820312 35.136719 L 51.820312 34.585938 Z M 52.570312 26.8125 C 52.367188 28.003906 52.164062 29.191406 51.960938 30.382812 C 51.730469 30.199219 51.429688 30.0625 51.082031 30.003906 C 50.6875 29.933594 50.292969 29.984375 49.96875 30.136719 C 49.613281 30.304688 49.378906 30.59375 49.320312 30.929688 C 49.261719 31.265625 49.390625 31.617188 49.667969 31.894531 C 49.921875 32.144531 50.277344 32.324219 50.675781 32.390625 C 50.792969 32.410156 50.910156 32.421875 51.027344 32.421875 C 51.300781 32.421875 51.5625 32.367188 51.789062 32.257812 C 52.125 32.097656 52.355469 31.828125 52.425781 31.515625 C 52.425781 31.507812 52.429688 31.503906 52.433594 31.496094 C 52.433594 31.492188 52.433594 31.488281 52.433594 31.484375 C 52.433594 31.476562 52.4375 31.472656 52.4375 31.464844 C 52.441406 31.457031 52.441406 31.449219 52.441406 31.441406 C 52.695312 29.957031 52.949219 28.472656 53.203125 26.988281 C 53.273438 26.574219 52.640625 26.398438 52.570312 26.8125 Z M 31.78125 24.914062 L 31.316406 24.449219 L 30.804688 24.960938 L 31.265625 25.425781 Z M 32.808594 23.886719 L 32.34375 23.421875 L 31.828125 23.9375 L 32.292969 24.398438 Z M 32.808594 24.960938 L 32.292969 24.449219 L 31.828125 24.914062 L 32.34375 25.425781 Z M 31.78125 23.9375 L 31.265625 23.421875 L 30.804688 23.886719 L 31.316406 24.398438 Z M 22.449219 25.230469 L 21.722656 25.230469 L 21.722656 25.886719 L 22.449219 25.886719 Z M 23.902344 25.230469 L 23.175781 25.230469 L 23.175781 25.886719 L 23.902344 25.886719 Z M 23.140625 25.921875 L 22.484375 25.921875 L 22.484375 26.648438 L 23.140625 26.648438 Z M 23.140625 24.46875 L 22.484375 24.46875 L 22.484375 25.195312 L 23.140625 25.195312 Z M 39.773438 20.851562 C 41.511719 20.9375 42.984375 22.363281 43.78125 23.785156 C 43.988281 24.152344 44.554688 23.824219 44.347656 23.453125 C 43.429688 21.820312 41.746094 20.292969 39.773438 20.195312 C 39.351562 20.175781 39.355469 20.832031 39.773438 20.851562 Z M 44.234375 24.640625 C 44.265625 24.867188 44.285156 25.097656 44.296875 25.332031 C 44.308594 25.507812 44.441406 25.65625 44.625 25.65625 C 44.792969 25.65625 44.964844 25.507812 44.953125 25.332031 C 44.9375 25.039062 44.90625 24.753906 44.867188 24.464844 C 44.84375 24.289062 44.617188 24.195312 44.464844 24.234375 C 44.273438 24.289062 44.210938 24.460938 44.234375 24.640625 Z M 45.828125 31.902344 C 45.761719 31.628906 45.539062 31.410156 45.226562 31.304688 C 44.957031 31.210938 44.632812 31.203125 44.3125 31.28125 C 43.996094 31.359375 43.714844 31.515625 43.515625 31.722656 C 43.285156 31.964844 43.195312 32.257812 43.261719 32.53125 C 43.363281 32.949219 43.804688 33.210938 44.34375 33.210938 C 44.480469 33.210938 44.625 33.191406 44.773438 33.15625 C 45.089844 33.078125 45.375 32.921875 45.570312 32.714844 C 45.800781 32.472656 45.894531 32.175781 45.828125 31.902344 Z M 25.203125 25.105469 C 25.296875 25.460938 25.386719 25.882812 25.429688 26.398438 C 25.457031 26.738281 25.636719 27.015625 25.933594 27.171875 C 26.300781 27.367188 26.785156 27.351562 27.167969 27.132812 C 27.476562 26.957031 27.671875 26.703125 27.730469 26.394531 C 27.800781 26.023438 27.664062 25.585938 27.355469 25.199219 C 26.726562 24.414062 25.964844 24.070312 25.386719 23.917969 C 25.640625 24.234375 25.890625 24.628906 25.980469 25.039062 L 26.242188 26.25 L 25.417969 25.328125 C 25.347656 25.253906 25.277344 25.175781 25.203125 25.105469 Z M 26.503906 27.964844 C 26.199219 27.964844 25.894531 27.894531 25.628906 27.75 C 25.128906 27.488281 24.820312 27.015625 24.773438 26.453125 C 24.71875 25.746094 24.5625 25.226562 24.433594 24.808594 C 24.394531 24.675781 24.359375 24.554688 24.328125 24.441406 L 24.21875 24.023438 L 24.605469 24.027344 C 24.480469 23.898438 24.363281 23.796875 24.289062 23.734375 L 23.617188 23.199219 L 24.476562 23.152344 C 24.558594 23.148438 26.488281 23.066406 27.867188 24.789062 C 28.304688 25.335938 28.484375 25.949219 28.375 26.519531 C 28.28125 27.011719 27.964844 27.429688 27.492188 27.703125 C 27.183594 27.875 26.84375 27.964844 26.503906 27.964844 Z M 26.632812 29.277344 C 26.589844 29.304688 26.574219 29.34375 26.566406 29.367188 C 26.558594 29.390625 26.554688 29.433594 26.578125 29.480469 L 26.914062 30.066406 C 26.941406 30.113281 26.980469 30.128906 27.003906 30.136719 C 27.023438 30.140625 27.070312 30.148438 27.113281 30.121094 L 29.789062 28.597656 C 29.835938 28.570312 29.851562 28.53125 29.855469 28.507812 C 29.863281 28.484375 29.871094 28.441406 29.84375 28.398438 L 29.507812 27.808594 C 29.484375 27.765625 29.441406 27.746094 29.417969 27.742188 C 29.398438 27.734375 29.355469 27.730469 29.308594 27.753906 Z M 27.042969 30.796875 C 26.972656 30.796875 26.902344 30.785156 26.832031 30.765625 C 26.621094 30.710938 26.449219 30.578125 26.34375 30.390625 L 26.011719 29.804688 C 25.792969 29.417969 25.925781 28.929688 26.308594 28.710938 L 28.984375 27.1875 C 29.367188 26.96875 29.859375 27.101562 30.078125 27.484375 L 30.414062 28.074219 C 30.519531 28.257812 30.546875 28.472656 30.488281 28.683594 C 30.433594 28.886719 30.300781 29.058594 30.113281 29.167969 L 27.4375 30.691406 C 27.316406 30.761719 27.179688 30.796875 27.042969 30.796875 " fill-opacity="1" fill-rule="nonzero"/></g></svg>