<svg xmlns="http://www.w3.org/2000/svg" xmlns:xlink="http://www.w3.org/1999/xlink" width="100" zoomAndPan="magnify" viewBox="0 0 75 74.999997" height="100" preserveAspectRatio="xMidYMid meet" version="1.0"><defs><clipPath id="83b7f057db"><path d="M 22 28.6875 L 25 28.6875 L 25 45.9375 L 22 45.9375 Z M 22 28.6875 " clip-rule="nonzero"/></clipPath><clipPath id="d4ae420345"><path d="M 14.683594 36 L 17 36 L 17 39 L 14.683594 39 Z M 14.683594 36 " clip-rule="nonzero"/></clipPath><clipPath id="4febc70afe"><path d="M 50 28.6875 L 53 28.6875 L 53 45.9375 L 50 45.9375 Z M 50 28.6875 " clip-rule="nonzero"/></clipPath><clipPath id="a9b8e45e61"><path d="M 58 36 L 60.433594 36 L 60.433594 39 L 58 39 Z M 58 36 " clip-rule="nonzero"/></clipPath></defs><g clip-path="url(#83b7f057db)"><path fill="#4297ff" d="M 22.292969 28.699219 L 24.46875 28.699219 L 24.46875 46.296875 L 22.292969 46.296875 Z M 22.292969 28.699219 " fill-opacity="1" fill-rule="nonzero"/></g><path fill="#4297ff" d="M 19.492188 30.519531 L 21.667969 30.519531 L 21.667969 44.472656 L 19.492188 44.472656 Z M 19.492188 30.519531 " fill-opacity="1" fill-rule="nonzero"/><path fill="#4297ff" d="M 16.679688 32.320312 L 18.855469 32.320312 L 18.855469 42.675781 L 16.679688 42.675781 Z M 16.679688 32.320312 " fill-opacity="1" fill-rule="nonzero"/><g clip-path="url(#d4ae420345)"><path fill="#4297ff" d="M 14.6875 36.542969 L 16.109375 36.542969 L 16.109375 38.453125 L 14.6875 38.453125 Z M 14.6875 36.542969 " fill-opacity="1" fill-rule="nonzero"/></g><path fill="#4297ff" d="M 25.089844 36.542969 L 49.890625 36.542969 L 49.890625 38.453125 L 25.089844 38.453125 Z M 25.089844 36.542969 " fill-opacity="1" fill-rule="nonzero"/><g clip-path="url(#4febc70afe)"><path fill="#4297ff" d="M 52.703125 28.699219 L 50.523438 28.699219 L 50.523438 46.296875 L 52.703125 46.296875 Z M 52.703125 28.699219 " fill-opacity="1" fill-rule="nonzero"/></g><path fill="#4297ff" d="M 55.503906 30.519531 L 53.324219 30.519531 L 53.324219 44.472656 L 55.503906 44.472656 Z M 55.503906 30.519531 " fill-opacity="1" fill-rule="nonzero"/><path fill="#4297ff" d="M 58.300781 32.320312 L 56.125 32.320312 L 56.125 42.675781 L 58.300781 42.675781 Z M 58.300781 32.320312 " fill-opacity="1" fill-rule="nonzero"/><g clip-path="url(#a9b8e45e61)"><path fill="#4297ff" d="M 60.304688 36.542969 L 58.882812 36.542969 L 58.882812 38.453125 L 60.304688 38.453125 Z M 60.304688 36.542969 " fill-opacity="1" fill-rule="nonzero"/></g></svg>