<?xml version="1.0" encoding="UTF-8" standalone="no"?>
<!-- Created with Inkscape (http://www.inkscape.org/) -->

<svg
   xmlns:dc="http://purl.org/dc/elements/1.1/"
   xmlns:cc="http://creativecommons.org/ns#"
   xmlns:rdf="http://www.w3.org/1999/02/22-rdf-syntax-ns#"
   xmlns:svg="http://www.w3.org/2000/svg"
   xmlns="http://www.w3.org/2000/svg"
   xmlns:sodipodi="http://sodipodi.sourceforge.net/DTD/sodipodi-0.dtd"
   xmlns:inkscape="http://www.inkscape.org/namespaces/inkscape"
   width="100mm"
   height="100mm"
   viewBox="0 0 100 100"
   version="1.1"
   id="svg8"
   inkscape:version="0.92.4 (5da689c313, 2019-01-14)"
   sodipodi:docname="helmet-opt.svg">
  <defs
     id="defs2" />
  <sodipodi:namedview
     id="base"
     pagecolor="#ffffff"
     bordercolor="#666666"
     borderopacity="1.0"
     inkscape:pageopacity="0.0"
     inkscape:pageshadow="2"
     inkscape:zoom="0.98994949"
     inkscape:cx="207.28319"
     inkscape:cy="33.226037"
     inkscape:document-units="mm"
     inkscape:current-layer="layer1"
     showgrid="false"
     inkscape:window-width="2560"
     inkscape:window-height="1346"
     inkscape:window-x="-11"
     inkscape:window-y="-11"
     inkscape:window-maximized="1" />
  <metadata
     id="metadata5">
    <rdf:RDF>
      <cc:Work
         rdf:about="">
        <dc:format>image/svg+xml</dc:format>
        <dc:type
           rdf:resource="http://purl.org/dc/dcmitype/StillImage" />
        <dc:title></dc:title>
      </cc:Work>
    </rdf:RDF>
  </metadata>
  <g
     inkscape:label="Layer 1"
     inkscape:groupmode="layer"
     id="layer1"
     transform="translate(0,-197)">
    <g
       id="g907"
       transform="matrix(0.15711871,0,0,0.15711871,12.444825,204.73759)"
       style="fill:#1a5c15;fill-opacity:1">
      <g
         id="g846"
         style="fill:#1a5c15;fill-opacity:1">
	<g
   id="g844"
   style="fill:#1a5c15;fill-opacity:1">
		<g
   id="g842"
   style="fill:#1a5c15;fill-opacity:1">
			<path
   id="path834"
   d="m 456,216 h -0.32 C 452.646,127.308 395.425,49.596 311.632,20.368 309.844,8.686 299.818,0.045 288,0 H 192 C 180.182,0.045 170.156,8.686 168.368,20.368 84.575,49.596 27.354,127.308 24.32,216 H 24 C 10.745,216 0,226.745 0,240 v 16 c 0,13.255 10.745,24 24,24 h 432 c 13.255,0 24,-10.745 24,-24 v -16 c 0,-13.255 -10.745,-24 -24,-24 z M 168,37.528 V 176 c 0,4.418 3.582,8 8,8 4.418,0 8,-3.582 8,-8 V 24 c 0,-4.418 3.582,-8 8,-8 h 40 v 176 c 0,4.418 3.582,8 8,8 4.418,0 8,-3.582 8,-8 V 16 h 40 c 4.418,0 8,3.582 8,8 v 152 c 0,4.418 3.582,8 8,8 4.418,0 8,-3.582 8,-8 V 37.528 C 386.472,66.066 436.719,136.302 439.68,216 H 40.32 C 43.281,136.302 93.528,66.066 168,37.528 Z M 464,256 c 0,4.418 -3.582,8 -8,8 H 24 c -4.418,0 -8,-3.582 -8,-8 v -16 c 0,-4.418 3.582,-8 8,-8 h 432 c 4.418,0 8,3.582 8,8 z"
   inkscape:connector-curvature="0"
   style="fill:#1a5c15;fill-opacity:1" />

			<path
   id="path836"
   d="M 200,352 H 96 c -13.255,0 -24,10.745 -24,24 v 32 c 0,4.418 3.582,8 8,8 4.418,0 8,-3.582 8,-8 v -32 c 0,-4.418 3.582,-8 8,-8 h 104 c 4.418,0 8,-3.582 8,-8 0,-4.418 -3.582,-8 -8,-8 z"
   inkscape:connector-curvature="0"
   style="fill:#1a5c15;fill-opacity:1" />

			<path
   id="path838"
   d="M 472,352 H 439.2 C 435.373,333.389 419.001,320.024 400,320 H 80 c -22.08,0.026 -39.974,17.92 -40,40 H 8 c -4.418,0 -8,3.582 -8,8 v 64 c 0,4.418 3.582,8 8,8 h 34.4 c 7.089,23.695 28.867,39.947 53.6,40 h 48 c 36.608,-0.104 70.495,-19.345 89.344,-50.728 2.296,-3.676 7.138,-4.794 10.814,-2.498 1.012,0.632 1.866,1.486 2.498,2.498 18.849,31.383 52.736,50.624 89.344,50.728 h 48 c 27.813,-0.033 51.387,-20.473 55.36,-48 H 472 c 4.418,0 8,-3.582 8,-8 v -64 c 0,-4.418 -3.582,-8 -8,-8 z M 40,424 H 16 v -24 h 24 z m 0,-40 H 16 v -8 h 24 z m 384,40 c -0.026,22.08 -17.92,39.974 -40,40 h -48 c -30.983,-0.091 -59.663,-16.376 -75.616,-42.936 -6.813,-11.267 -21.47,-14.877 -32.736,-8.064 -3.301,1.996 -6.068,4.763 -8.064,8.064 C 203.637,447.614 174.971,463.898 144,464 H 96 C 73.92,463.974 56.026,446.08 56,424 v -64 c 0,-13.255 10.745,-24 24,-24 h 320 c 13.255,0 24,10.745 24,24 z m 40,-8 h -24 v -24 h 24 z m 0,-40 h -24 v -8 h 24 z"
   inkscape:connector-curvature="0"
   style="fill:#1a5c15;fill-opacity:1" />

			<path
   id="path840"
   d="m 248,352 h -16 c -4.418,0 -8,3.582 -8,8 0,4.418 3.582,8 8,8 h 16 c 4.418,0 8,-3.582 8,-8 0,-4.418 -3.582,-8 -8,-8 z"
   inkscape:connector-curvature="0"
   style="fill:#1a5c15;fill-opacity:1" />

		</g>

	</g>

</g>
      <g
         id="g848"
         style="fill:#1a5c15;fill-opacity:1">
</g>
      <g
         id="g850"
         style="fill:#1a5c15;fill-opacity:1">
</g>
      <g
         id="g852"
         style="fill:#1a5c15;fill-opacity:1">
</g>
      <g
         id="g854"
         style="fill:#1a5c15;fill-opacity:1">
</g>
      <g
         id="g856"
         style="fill:#1a5c15;fill-opacity:1">
</g>
      <g
         id="g858"
         style="fill:#1a5c15;fill-opacity:1">
</g>
      <g
         id="g860"
         style="fill:#1a5c15;fill-opacity:1">
</g>
      <g
         id="g862"
         style="fill:#1a5c15;fill-opacity:1">
</g>
      <g
         id="g864"
         style="fill:#1a5c15;fill-opacity:1">
</g>
      <g
         id="g866"
         style="fill:#1a5c15;fill-opacity:1">
</g>
      <g
         id="g868"
         style="fill:#1a5c15;fill-opacity:1">
</g>
      <g
         id="g870"
         style="fill:#1a5c15;fill-opacity:1">
</g>
      <g
         id="g872"
         style="fill:#1a5c15;fill-opacity:1">
</g>
      <g
         id="g874"
         style="fill:#1a5c15;fill-opacity:1">
</g>
      <g
         id="g876"
         style="fill:#1a5c15;fill-opacity:1">
</g>
    </g>
    <ellipse
       style="opacity:1;fill:none;fill-opacity:1;fill-rule:nonzero;stroke:#1a5c15;stroke-width:2;stroke-miterlimit:4;stroke-dasharray:none;stroke-opacity:1"
       id="path1008"
       cx="49.595966"
       cy="246.73911"
       rx="46.753521"
       ry="46.753525" />
  </g>
</svg>
