<svg xmlns="http://www.w3.org/2000/svg" xmlns:xlink="http://www.w3.org/1999/xlink" width="100" height="100">
    <svg xmlns="http://www.w3.org/2000/svg" fill="#111" transform="matrix(.69 0 0 .69 15.5 15.5)" viewBox="0 0 164 164">
        <path d="M56.3 145.6h22.6c.5 0 .9-.4.9-.9s-.4-.9-.9-.9H56.3c-.5 0-.9.4-.9.9s.4.9.9.9zM82.5 145.6h3.7c.5 0 .9-.4.9-.9s-.4-.9-.9-.9h-3.7c-.5 0-.9.4-.9.9s.4.9.9.9zM89.4 145.6h2.5c.5 0 .9-.4.9-.9s-.4-.9-.9-.9h-2.5c-.5 0-.9.4-.9.9s.4.9.9.9zM84.2 149.3c0 .5.4.9.9.9h22.6c.5 0 .9-.4.9-.9s-.4-.9-.9-.9H85.1c-.5-.1-.9.4-.9.9zM76.8 149.3c0 .5.4.9.9.9h3.7c.5 0 .9-.4.9-.9s-.4-.9-.9-.9h-3.7c-.5-.1-.9.4-.9.9zM74.6 148.3h-2.5c-.5 0-.9.4-.9.9s.4.9.9.9h2.5c.5 0 .9-.4.9-.9s-.4-.9-.9-.9zM44.9 82.1l-3.3 1.5c-.5.2-.7.8-.5 1.2.2.3.5.6.9.6.1 0 .3 0 .4-.1l3.3-1.5c.5-.2.7-.8.5-1.2-.3-.5-.9-.7-1.3-.5zM24.9 91.1l-3.3 1.5c-.5.2-.7.8-.5 1.2.2.3.5.6.9.6.1 0 .3 0 .4-.1l3.3-1.5c.5-.2.7-.8.5-1.2-.3-.5-.9-.8-1.3-.5zM38.2 85.1l-3.3 1.5c-.5.2-.7.8-.5 1.2.2.3.5.6.9.6.1 0 .3 0 .4-.1l3.3-1.5c.5-.2.7-.8.5-1.2-.3-.5-.8-.7-1.3-.5zM18.2 94l-3.3 1.5c-.5.2-.7.8-.5 1.2.2.3.5.6.9.6.1 0 .3 0 .4-.1l3.3-1.5c.5-.2.7-.8.5-1.2-.3-.5-.8-.7-1.3-.5zM4.5 101.2c-.2-.5-.8-.7-1.2-.5l-1.7.8c-.4.1-.6.5-.6.8s.2.7.6.9l1.7.8c.1.1.3.1.4.1.4 0 .7-.2.9-.6.2-.4 0-.9-.3-1.1.2-.3.4-.8.2-1.2zM76.6 136.7c.1.1.3.1.4.1.4 0 .7-.2.9-.6.2-.5 0-1-.5-1.2l-3.3-1.5c-.5-.2-1 0-1.2.5-.2.5 0 1 .5 1.2l3.2 1.5zM56.6 127.8c.1.1.3.1.4.1.4 0 .7-.2.9-.6.2-.5 0-1-.5-1.2l-3.3-1.5c-.5-.2-1 0-1.2.5-.2.5 0 1 .5 1.2l3.2 1.5zM43.3 121.8c.1.1.3.1.4.1.4 0 .7-.2.9-.6.2-.5 0-1-.5-1.2l-3.3-1.5c-.5-.2-1 0-1.2.5-.2.5 0 1 .5 1.2l3.2 1.5zM63.3 130.8c.1.1.3.1.4.1.4 0 .7-.2.9-.6.2-.5 0-1-.5-1.2l-3.3-1.5c-.5-.2-1 0-1.2.5-.2.5 0 1 .5 1.2l3.2 1.5zM69.9 133.8c.1.1.3.1.4.1.4 0 .7-.2.9-.6.2-.5 0-1-.5-1.2l-3.3-1.5c-.5-.2-1 0-1.2.5s0 1 .5 1.2l3.2 1.5zM36.6 118.8c.1.1.3.1.4.1.4 0 .7-.2.9-.6.2-.5 0-1-.5-1.2l-3.3-1.5c-.5-.2-1 0-1.2.5-.2.5 0 1 .5 1.2l3.2 1.5zM26.6 114.4l3.3 1.5c.1.1.3.1.4.1.4 0 .7-.2.9-.6.2-.5 0-1-.5-1.2l-3.3-1.5c-.5-.2-1 0-1.2.5-.3.4-.1 1 .4 1.2zM19.4 110.2c-.2.5 0 1 .5 1.2l3.3 1.5c.1.1.3.1.4.1.4 0 .7-.2.9-.6.2-.5 0-1-.5-1.2l-3.3-1.5c-.5-.2-1 0-1.3.5zM49.9 124.8c.1.1.3.1.4.1.4 0 .7-.2.9-.6.2-.5 0-1-.5-1.2l-3.3-1.5c-.5-.2-1 0-1.2.5-.2.5 0 1 .5 1.2l3.2 1.5zM12.8 107.2c-.2.5 0 1 .5 1.2l3.3 1.5c.1.1.3.1.4.1.4 0 .7-.2.9-.6.2-.5 0-1-.5-1.2l-3.3-1.5c-.6-.2-1.1 0-1.3.5z"/>
        <path d="M156.7 103.7l-3.3 1.5s-.1 0-.1.1c-.3.1-.6.3-.7.7-3.6 12.1-10.3 22.7-19 31.3h-49v-.2c-.2-.5-.8-.7-1.2-.5l-1.3.6-1.3-.6c-.5-.2-1 0-1.2.5v.2h-49c-8.7-8.5-15.3-19.1-18.9-31.2-.1-.3-.4-.6-.7-.7l-.1-.1-3.3-1.5c-.5-.2-1 0-1.2.5-.2.5 0 1 .5 1.2l3.2 1.4c9.3 30.4 37.6 53.4 72.2 53.4 34.5 0 62.9-23 72.2-53.4l3.2-1.4c.5-.2.7-.8.5-1.2-.5-.6-1.1-.8-1.5-.6zM82 158.4c-18.7 0-36.3-7.3-49.6-19.4h99.2c-13.3 12.2-30.9 19.4-49.6 19.4z"/>
        <path d="M113.7 124.9c.1 0 .3 0 .4-.1l3.3-1.5c.5-.2.7-.8.5-1.2-.2-.5-.8-.7-1.2-.5l-3.3 1.5c-.5.2-.7.8-.5 1.2.1.4.4.6.8.6zM120.4 121.9c.1 0 .3 0 .4-.1l3.3-1.5c.5-.2.7-.8.5-1.2s-.8-.7-1.2-.5l-3.3 1.5c-.5.2-.7.8-.5 1.2.1.4.4.6.8.6zM127 118.9c.1 0 .3 0 .4-.1l3.3-1.5c.5-.2.7-.8.5-1.2-.2-.5-.8-.7-1.2-.5l-3.3 1.5c-.5.2-.7.8-.5 1.2.1.4.5.6.8.6zM133.7 115.9c.1 0 .3 0 .4-.1l3.3-1.5c.5-.2.7-.8.5-1.2-.2-.5-.8-.7-1.2-.5l-3.3 1.5c-.5.2-.7.8-.5 1.2.1.4.4.6.8.6zM146.2 109.4c.2.3.5.6.9.6.1 0 .3 0 .4-.1l3.3-1.5c.5-.2.7-.8.5-1.2-.2-.5-.8-.7-1.2-.5l-3.3 1.5c-.6.2-.8.8-.6 1.2zM139.5 112.4c.2.3.5.6.9.6.1 0 .3 0 .4-.1l3.3-1.5c.5-.2.7-.8.5-1.2-.2-.5-.8-.7-1.2-.5l-3.3 1.5c-.6.2-.8.7-.6 1.2zM87 136.8c.1 0 .3 0 .4-.1l3.3-1.5c.5-.2.7-.8.5-1.2-.2-.5-.8-.7-1.2-.5l-3.3 1.5c-.5.2-.7.8-.5 1.2.1.4.5.6.8.6zM93.7 133.8c.1 0 .3 0 .4-.1l3.3-1.5c.5-.2.7-.8.5-1.2-.2-.5-.8-.7-1.2-.5l-3.3 1.5c-.5.2-.7.8-.5 1.2.1.4.4.6.8.6zM100.4 130.9c.1 0 .3 0 .4-.1l3.3-1.5c.5-.2.7-.8.5-1.2-.2-.5-.8-.7-1.2-.5l-3.3 1.5c-.5.2-.7.8-.5 1.2.1.3.4.6.8.6zM107 127.9c.1 0 .3 0 .4-.1l3.3-1.5c.5-.2.7-.8.5-1.2-.2-.5-.8-.7-1.2-.5l-3.3 1.5c-.5.2-.7.8-.5 1.2.1.4.5.6.8.6zM162.4 101.5l-1.7-.8c-.5-.2-1 0-1.2.5-.2.4 0 .9.3 1.1-.4.3-.5.7-.3 1.1.2.3.5.6.9.6.1 0 .3 0 .4-.1l1.7-.8c.3-.2.6-.5.6-.9s-.3-.6-.7-.7zM157.4 99.2l-1.2-.5c.8-4.5 1.3-9.2 1.3-13.9 0-41.6-33.9-75.5-75.5-75.5-5.4 0-10.8.6-16 1.7L49.8 3.8c-.2-.1-.5-.1-.8 0l-21.7 9.7h-.1-.1-.1s-.1 0-.1.1l-.1.1s0 .1-.1.1c0 0 0 .1-.1.1v19.3C13.7 47.4 6.5 65.6 6.5 84.8c0 4.7.4 9.5 1.3 14-.2.3-.2.6-.1.9.2.3.5.6.9.6.1 0 .3 0 .4-.1l3.3-1.5c.5-.2.7-.8.5-1.2-.2-.5-.8-.7-1.3-.5l-2 .9c-.8-4.3-1.2-8.7-1.2-13.1 0-18 6.5-35.2 18.4-48.7v69.7c0 .4.2.7.6.9l21.7 9.7c.1 0 .2.1.3.1h.1c.1 0 .2 0 .3-.1h.1l9.6-4.3 20.5 9.2c.1 0 .2.1.3.1.1 0 .2 0 .3-.1l21.7-9.7c.1-.1.3-.2.4-.3l11.5 5.1h.1c.1 0 .2 0 .3.1h.1c.1 0 .2 0 .3-.1l21.7-9.7c.3-.2.6-.5.6-.9V92c.3-.1.5-.2.7-.5.2-.5 0-1-.5-1.2l-.2-.1V40.5v-.2-.1c0-.1 0-.1-.1-.1 0 0 0-.1-.1-.1l-.1-.1s-.1 0-.1-.1h-.1-.1-.1L115 30c-.2-.1-.5-.1-.8 0l-21.7 9.7h-.1l-.1.1-.1.1-.1.1v.1c0 .1-.1.1-.1.2V69.1L80.7 64c-.2-.1-.5-.1-.8 0L72 67.4V14.3 14c0-.1-.1-.2-.1-.2 0-.1-.1-.1-.1-.2 0 0-.1 0-.1-.1 0 0-.1 0-.1-.1h-.1l-2.5-1c4.3-.8 8.6-1.2 13-1.2 40.6 0 73.6 33 73.6 73.6 0 4.4-.4 8.8-1.2 13.1l-.4-.2c-.5-.2-1 0-1.2.5-.2.5 0 1 .5 1.2l3.3 1.5c.1.1.3.1.4.1.4 0 .7-.2.9-.6.2-.4 0-1-.5-1.2zM48.5 80.5l-.3.1c-.5.2-.7.8-.5 1.2.1.3.4.5.7.5V114l-19.8-8.9V91.3c.1 0 .2 0 .3-.1l3.3-1.5c.5-.2.7-.8.5-1.2-.2-.5-.8-.7-1.2-.5l-2.9 1.3V15.8l17.5 7.8 2.3 1v55.9zm.9-57.5l-3.2-1.4L30 14.3l19.4-8.7 19.4 8.7L49.4 23zm29.9 96l-19.8-8.9V75.9L79 84.6l.4.2V119zm21.7-9.1v.2L81.2 119V84.7l.4-.2 19.2-8.6.2.1v33.9zm34.4-20.5l-1.3-.6c-.5-.2-1 0-1.2.5-.2.5 0 1 .5 1.2l2 .9v13.9l-19.8 8.9V82.5l1.1.5c.1.1.3.1.4.1.4 0 .7-.2.9-.6.2-.5 0-1-.5-1.2l-1.9-.8V50.8l2.3-1 17.5-7.8v47.4zm-20.8-57.6l19.4 8.7-16.2 7.2-3.2 1.4-6-2.7-13.4-6 19.4-8.6zM93.8 42l10.3 4.6 9.5 4.3v28.9c-.3 0-.7.2-.8.5-.2.5 0 1 .5 1.2l.3.1V114l-10.7-4.8V76.9l.4.2c.1.1.3.1.4.1.4 0 .7-.2.9-.6.2-.5 0-1-.5-1.2l-1.2-.5v-.4-.2-.1c0-.1 0-.1-.1-.1 0 0 0-.1-.1-.1l-.1-.1s-.1 0-.1-.1h-.1-.1-.1L93.7 70V42zM80.3 65.7l19.4 8.7-16.2 7.2-3.2 1.4-3.3-1.3-16.2-7.2 19.5-8.8zM70.2 15.8v52.5l-12 5.4h-.1-.1-.1s-.1 0-.1.1l-.1.1s0 .1-.1.1c0 0 0 .1-.1.1v2.3l-2.8 1.2c-.5.2-.7.8-.5 1.2.2.3.5.6.9.6.1 0 .3 0 .4-.1l2-.9v32.4l-7.3 3.3V81.7l2-.9c.5-.2.7-.8.5-1.2s-.8-.7-1.2-.5l-1.2.5v-55l19.9-8.8z"/>
        <path d="M106.7 78.6l3.3 1.5c.1.1.3.1.4.1.4 0 .7-.2.9-.6.2-.5 0-1-.5-1.2l-3.3-1.5c-.5-.2-1 0-1.2.5-.3.4-.1 1 .4 1.2zM120 84.5l3.3 1.5c.1.1.3.1.4.1.4 0 .7-.2.9-.6.2-.5 0-1-.5-1.2l-3.3-1.5c-.5-.2-1 0-1.2.5-.3.5-.1 1 .4 1.2zM140 93.5l3.3 1.5c.1.1.3.1.4.1.4 0 .7-.2.9-.6.2-.5 0-1-.5-1.2l-3.3-1.5c-.5-.2-1 0-1.2.5-.3.4-.1 1 .4 1.2zM126.7 87.5L130 89c.1.1.3.1.4.1.4 0 .7-.2.9-.6.2-.5 0-1-.5-1.2l-3.3-1.5c-.5-.2-1 0-1.2.5-.3.5-.1 1 .4 1.2zM146.7 96.5L150 98c.1.1.3.1.4.1.4 0 .7-.2.9-.6.2-.5 0-1-.5-1.2l-3.3-1.5c-.5-.2-1 0-1.2.5-.3.4-.1.9.4 1.2z"/>
    </svg>
</svg>
