<svg xmlns="http://www.w3.org/2000/svg" xmlns:xlink="http://www.w3.org/1999/xlink" width="100" height="100">
    <svg xmlns="http://www.w3.org/2000/svg" fill="#111" transform="matrix(.69 0 0 .69 15.5 15.5)" viewBox="0 0 164 164">
        <path d="M55.7 148h23.1c.5 0 1-.4 1-1 0-.5-.4-1-1-1H55.7c-.5 0-1 .4-1 1s.5 1 1 1zM82.5 148h3.8c.5 0 1-.4 1-1 0-.5-.4-1-1-1h-3.8c-.5 0-1 .4-1 1 .1.6.5 1 1 1zM89.6 148h2.5c.5 0 1-.4 1-1 0-.5-.4-1-1-1h-2.5c-.5 0-1 .4-1 1 .1.6.5 1 1 1zM84.2 151.7c0 .5.4 1 1 1h23.1c.5 0 1-.4 1-1 0-.5-.4-1-1-1H85.2c-.6 0-1 .5-1 1zM76.7 151.7c0 .5.4 1 1 1h3.8c.5 0 1-.4 1-1 0-.5-.4-1-1-1h-3.8c-.6 0-1 .5-1 1zM74.4 150.7h-2.5c-.5 0-1 .4-1 1 0 .5.4 1 1 1h2.5c.5 0 1-.4 1-1-.1-.5-.5-1-1-1z"/>
        <path d="M151.6 119.5c5.2-10.6 7.8-22 7.8-33.9 0-11.9-2.6-23.3-7.8-33.8V30.9c0-7.3-5.9-13.2-13.2-13.2-.5 0-1 .4-1 1v13c-10.3-10.6-23.3-18-37.8-21.4-3.5-5-9-8.5-15.2-9.2-6.2-.7-12.2 1.2-16.8 5.4-1.3 1.1-2.4 2.4-3.3 3.8C49.9 13.7 36.9 21 26.5 31.7v-13c0-.5-.4-1-1-1-7.3 0-13.2 5.9-13.2 13.2v20.9c-5.2 10.6-7.8 22-7.8 33.8 0 11.9 2.6 23.3 7.8 33.9v8.6c0 7.3 5.9 13.2 13.2 13.2h2.6C42.7 155.3 61.8 163 82 163c20.2 0 39.3-7.7 53.8-21.8h2.6c7.3 0 13.2-5.9 13.2-13.2v-8.5zm5.9-33.9c0 10.2-2 20-5.9 29.2V56.4c3.9 9.2 5.9 19 5.9 29.2zm-7.8-54.7v90.3c-2.2-3.5-5.9-6-10.3-6.3V19.7c5.7.5 10.3 5.3 10.3 11.2zM137 34h-36.8c2.6-4.1 3.7-8.9 3.2-13.8-.3-2.7-1.1-5.2-2.3-7.5 13.7 3.5 26.1 10.8 35.9 21.3zM68.9 7.9c4.2-3.8 9.7-5.5 15.3-4.9 9 1 16.3 8.3 17.3 17.3.6 5.9-1.3 11.7-5.4 15.9-4.3 4.4-6.8 10-7 15.9h-3.3V33h2c2.1 0 3.9-1.7 3.9-3.9 0-2.1-1.7-3.9-3.9-3.9-2.1 0-3.9 1.7-3.9 3.9v2h-3.6v-2c0-2.1-1.7-3.9-3.9-3.9-2.1 0-3.9 1.7-3.9 3.9 0 2.1 1.7 3.9 3.9 3.9h2v19h-3.3c-.3-6-2.7-11.6-6.8-15.6-3.7-3.7-5.8-8.7-5.8-13.9-.1-5.5 2.3-10.9 6.4-14.6zm4.8 110.9v-8.3h16.6v16.6H73.7v-8.3zm8.3-24l-7.9-7.9L82 79l7.9 7.9-7.9 7.9zm-9.3-30.5c-.5 0-1-.4-1-1v-1.2h20.5v1.2c0 .5-.4 1-1 1H72.7zm19.6-4.1H71.7V58h20.5v2.2zm0-4.1H71.7v-1.2c0-.5.4-1 1-1h18.6c.5 0 1 .4 1 1v1.2zm-14-25h-2c-1.1 0-2-.9-2-2s.9-2 2-2 2 .9 2 2v2zm5.5 21h-3.6V33h3.6v19.1zm1.9-21v-2c0-1.1.9-2 2-2s2 .9 2 2-.9 2-2 2h-2zM62.9 12.6c-1.6 3-2.4 6.4-2.4 9.9 0 4.1 1.2 8 3.3 11.4H27c9.8-10.4 22.1-17.7 35.9-21.3zm-38.3 7.1v95.2c-4.4.3-8.2 2.8-10.3 6.3V30.9c0-5.9 4.6-10.7 10.3-11.2zM6.5 85.6c0-10.2 2-20 5.9-29.2v58.5c-3.9-9.3-5.9-19.1-5.9-29.3zM82 161.1c-19 0-37-7-51-19.8h102c-14 12.7-32 19.8-51 19.8zm56.4-21.8H25.6c-6.2 0-11.3-5.1-11.3-11.3 0-6.2 5.1-11.2 11.3-11.2.5 0 1-.4 1-1V35.9h38.6c.5.7 1.1 1.3 1.7 1.9 3.7 3.6 5.9 8.8 6.2 14.3h-.3c-1.6 0-2.9 1.3-2.9 2.9v8.4c0 1.6 1.3 2.9 2.9 2.9H81v11L72.3 86H61.9c-.5-5.2-4.9-9.3-10.2-9.3-5.6 0-10.2 4.6-10.2 10.2s4.6 10.2 10.2 10.2c5.3 0 9.7-4.1 10.2-9.3h10.5l8.7 8.7v12h-8.3c-.5 0-1 .4-1 1v8.3h-9.9c-.5-5.2-4.9-9.3-10.2-9.3-5.6 0-10.2 4.6-10.2 10.2S46.1 129 51.7 129c5.3 0 9.7-4.1 10.2-9.3h9.9v8.3c0 .5.4 1 1 1h18.5c.5 0 1-.4 1-1v-18.5c0-.5-.4-1-1-1H83v-12l8.7-8.7h10.4v8.3c0 .5.4 1 1 1h8.3v11.5c-5.2.5-9.3 4.9-9.3 10.2 0 5.6 4.6 10.2 10.2 10.2s10.2-4.6 10.2-10.2c0-5.3-4.1-9.7-9.3-10.2V97.1h8.3c.5 0 1-.4 1-1V77.6c0-.5-.4-1-1-1H103c-.5 0-1 .4-1 1v8.3H91.7L83 77.2v-11h8.3c1.6 0 2.9-1.3 2.9-2.9v-8.4c0-1.6-1.3-2.9-2.9-2.9H91c.3-5.3 2.5-10.4 6.5-14.5.5-.5 1-1.1 1.4-1.6h38.6v79.9c0 .5.4 1 1 1 6.2 0 11.2 5 11.3 11.2-.1 6.3-5.2 11.3-11.4 11.3zM60 86.9c0 4.6-3.7 8.3-8.3 8.3-4.6 0-8.3-3.7-8.3-8.3 0-4.6 3.7-8.3 8.3-8.3 4.6 0 8.3 3.7 8.3 8.3zm0 31.9c0 4.6-3.7 8.3-8.3 8.3-4.6 0-8.3-3.7-8.3-8.3 0-4.6 3.7-8.3 8.3-8.3 4.6 0 8.3 3.7 8.3 8.3zm52.3-8.3c4.6 0 8.3 3.7 8.3 8.3 0 4.6-3.7 8.3-8.3 8.3-4.6 0-8.3-3.7-8.3-8.3 0-4.6 3.7-8.3 8.3-8.3zM104 95.2V78.6h16.6v16.6H104z"/>
    </svg>
</svg>
