<svg xmlns="http://www.w3.org/2000/svg" xmlns:xlink="http://www.w3.org/1999/xlink" width="100" height="100">
    <svg xmlns="http://www.w3.org/2000/svg" fill="#111" transform="matrix(.69 0 0 .69 15.5 15.5)" viewBox="0 0 164 164">
        <path d="M36.4 51.7c0-3.6-2.9-6.5-6.5-6.5s-6.5 2.9-6.5 6.5 2.9 6.5 6.5 6.5 6.5-2.9 6.5-6.5zm-5.6 4.5v-3.6h3.6c-.3 1.8-1.8 3.2-3.6 3.6zm3.6-5.5h-3.6v-3.6c1.8.4 3.3 1.8 3.6 3.6zm-9.2 1c0-2.2 1.6-4.1 3.7-4.5v9c-2.1-.4-3.7-2.3-3.7-4.5zM56.9 142.5c0 .5.4.9.9.9h22.8c.5 0 .9-.4.9-.9s-.4-.9-.9-.9H57.8c-.5 0-.9.4-.9.9zM84.3 143.4h3.8c.5 0 .9-.4.9-.9s-.4-.9-.9-.9h-3.8c-.5 0-.9.4-.9.9s.4.9.9.9zM91.3 143.4h2.5c.5 0 .9-.4.9-.9s-.4-.9-.9-.9h-2.5c-.5 0-.9.4-.9.9-.1.5.4.9.9.9zM86 147.1c0 .5.4.9.9.9h22.8c.5 0 .9-.4.9-.9s-.4-.9-.9-.9H86.9c-.5 0-.9.4-.9.9zM78.5 147.1c0 .5.4.9.9.9h3.8c.5 0 .9-.4.9-.9s-.4-.9-.9-.9h-3.8c-.4 0-.9.4-.9.9zM76.3 146.2h-2.5c-.5 0-.9.4-.9.9s.4.9.9.9h2.5c.5 0 .9-.4.9-.9s-.4-.9-.9-.9zM78.3 32.2c-3.6 0-6.5 2.9-6.5 6.5s2.9 6.5 6.5 6.5 6.5-2.9 6.5-6.5c-.1-3.6-3-6.5-6.5-6.5zm4.4 5.5h-3.5v-3.5c1.8.4 3.2 1.7 3.5 3.5zm-9 1c0-2.2 1.6-4 3.6-4.5v9c-2-.5-3.6-2.3-3.6-4.5zm5.5 4.4v-3.5h3.5c-.3 1.8-1.7 3.2-3.5 3.5z"/>
        <path d="M162.1 72.2h-2.7c-1.6-12.8-6.5-25-14.2-35.4v-8.6c0-.5-.4-.9-.9-.9h-7.4c-14.3-13.8-33.1-21.5-53-21.5-25.8 0-49.6 12.8-63.7 34.2h-.8c-.5 0-.9.4-.9.9v1.9C8.7 43.3 1 51.3 1 61.1 1 66.8 3.7 72 7.8 75.3c-.2 2.2-.3 4.5-.3 6.7 0 13.8 3.7 27.4 10.8 39.2v8.4c0 .5.4.9.9.9H25c14.6 17.6 35.9 27.7 58.8 27.7 19.9 0 38.7-7.6 53-21.4 6.1-.3 8.4.7 8.4-.9v-8.7c6.6-8.9 11.2-19.3 13.3-30.1h3.5c.5 0 .9-.4.9-.9v-23c.1-.5-.3-1-.8-1zm-4.6 0h-12.3V40.1c6.5 9.6 10.8 20.6 12.3 32.1zM18.4 64.4c-3.4-1-3.4-5.7 0-6.7v6.7zm1.8 14.1V56.7 42h38.4v38.4H20.2v-1.9zM2.9 61.1c0-8.7 6.9-15.9 15.5-16.4v11.1c-5.9 1-5.9 9.5 0 10.6v11.1C9.7 77 2.9 69.8 2.9 61.1zM9.4 82c0-1.8.1-3.6.2-5.4 2.6 1.6 5.5 2.6 8.7 2.7v1.9c0 .5.4.9.9.9h40.2c.5 0 .9-.4.9-.9V41c0-.5-.4-.9-.9-.9h-37C36.3 19.7 59.1 7.6 83.8 7.6c18.8 0 36.5 6.9 50.3 19.6H65.6c-.5 0-.9.4-.9.9v61.1H19.3c-.5 0-.9.5-.9.9v27.2c-5.9-10.7-9-22.9-9-35.3zm74.3 46l-29.9-18.1 29.9-18.1V128zM20.2 91.8l29.9 18.1L20.2 128V91.8zm31.7 17L22.7 91.1h58.5l-29.3 17.7zm0 2.2l29.3 17.7H22.7L51.9 111zm12.8 19.6v4.4H31.5c-1.4-1.4-2.8-2.8-4.1-4.4h37.3zm19.1 25.8c-18.8 0-36.6-7-50.3-19.6H134c-13.7 12.6-31.5 19.6-50.2 19.6zm-17.2-21.5v-4.4h18c.5 0 .9-.5.9-.9V90.2c0-.5-.4-.9-.9-.9h-18V29.1h76.7v43.1h-16.9c-.5 0-.9.4-.9.9V96c0 .5.4.9.9.9h16.9v37.9c-14.5.1-63 .1-76.7.1zm78.6-11V97.1h11.4c-2 9.5-5.9 18.7-11.4 26.8zm15.9-28.7h-33.8V74.1h33.8v21.1z"/>
        <path d="M144.2 86.2c3 0 5.4-2.4 5.4-5.4 0-3-2.4-5.4-5.4-5.4s-5.4 2.4-5.4 5.4c.1 3 2.5 5.4 5.4 5.4zm1-2v-2.4h2.4c-.4 1.2-1.3 2.1-2.4 2.4zm2.4-4.3h-2.4v-2.4c1.1.4 2 1.3 2.4 2.4zm-4.3-2.4v6.6c-1.5-.4-2.5-1.8-2.5-3.3 0-1.5 1-2.9 2.5-3.3zM134.9 89.6h18.6c.5 0 .9-.4.9-.9s-.4-.9-.9-.9h-18.6c-.5 0-.9.4-.9.9s.4.9.9.9zM130.4 92.5h27.7c.5 0 .9-.4.9-.9s-.4-.9-.9-.9h-27.7c-.5 0-.9.4-.9.9-.1.5.3.9.9.9zM118.5 33.4H88c-.5 0-.9.4-.9.9s.4.9.9.9h30.5c.5 0 .9-.4.9-.9s-.4-.9-.9-.9zM111 37.5H88c-.5 0-.9.4-.9.9s.4.9.9.9h23c.5 0 .9-.4.9-.9s-.4-.9-.9-.9zM101.9 40.5H88c-.5 0-.9.4-.9.9s.4.9.9.9h13.9c.5 0 .9-.4.9-.9s-.4-.9-.9-.9zM55.7 72.1H28c-.5 0-.9.4-.9.9s.4.9.9.9h27.7c.5 0 .9-.4.9-.9.1-.5-.3-.9-.9-.9z"/>
    </svg>
</svg>
