<svg width="100mm" height="100mm" version="1.1" viewBox="0 0 100 100" xmlns="http://www.w3.org/2000/svg">
 <g transform="translate(0,-197)">
  <ellipse cx="49.596" cy="246.74" rx="46.754" ry="46.754" fill="none" stroke="#1a5c15" stroke-width="2"/>
  <g transform="matrix(.12257 0 0 .12257 18.222 214.74)" fill="#377032">
   <path d="m373.85 308.3c-1.4453-4.8203-7.3906-7.0742-13.496-7.0742-5.9453 0-11.891 2.2539-13.336 7.0742l-31.012 101.06c-0.16015 0.64454-0.32031 1.2852-0.32031 1.6055 0 5.1445 7.5508 8.6758 13.176 8.6758 3.5352 0 6.2656-1.1211 7.0703-4.1758l6.1016-21.371h36.797l6.1094 21.371c0.80078 3.0547 3.5312 4.1758 7.0664 4.1758 5.625 0 13.176-3.6914 13.176-8.6758 0-0.48047-0.16015-0.96484-0.32031-1.6055zm-27.477 69.406 13.977-49.324 13.984 49.324z"/>
   <path d="m456.84 208.87h-153.71v-65.648l49.953-35.68c3.9414-2.8164 6.2812-7.3594 6.2812-12.203 0-4.8477-2.3398-9.3906-6.2812-12.207l-50.555-36.109c-3.9492-26.57-26.914-47.02-54.562-47.02h-192.8c-30.422 0-55.168 24.746-55.168 55.168v192.8c0 30.418 24.746 55.164 55.168 55.164h153.7v65.648l-49.953 35.68c-3.9414 2.8164-6.2812 7.3633-6.2812 12.207s2.3398 9.3906 6.2812 12.203l50.555 36.109c3.9492 26.57 26.914 47.02 54.562 47.02h192.8c30.418 0 55.164-24.75 55.164-55.168v-192.8c0-30.422-24.746-55.168-55.164-55.168zm-401.67 64.266c-13.879 0-25.168-11.289-25.168-25.168v-192.8c0-13.875 11.289-25.164 25.168-25.164h192.8c13.875 0 25.164 11.289 25.164 25.164 0 4.8477 2.3398 9.3945 6.2812 12.207l39.145 27.961-39.145 27.961c-3.9414 2.8164-6.2812 7.3633-6.2812 12.207v73.367h-9.0938c-30.418 0-55.164 24.746-55.164 55.164v9.1016zm426.83 183.7c0 13.879-11.289 25.168-25.164 25.168h-192.8c-13.875 0-25.164-11.289-25.164-25.168 0-4.8438-2.3398-9.3906-6.2812-12.203l-39.145-27.961 39.145-27.961c3.9414-2.8164 6.2812-7.3633 6.2812-12.207v-112.46c0-13.879 11.289-25.168 25.164-25.168h192.8c13.875 0 25.164 11.289 25.164 25.168z"/>
   <path d="m197.65 138.28c4.668 0 8.457-3.7891 8.457-8.4609 0-4.6719-3.7891-8.4609-8.457-8.4609h-37.629v-20.539c0-4.6719-3.7891-8.4609-8.4609-8.4609-4.668 0-8.457 3.7891-8.457 8.4609v20.539h-37.629c-4.668 0-8.457 3.7891-8.457 8.4609 0 4.6719 3.7891 8.4609 8.457 8.4609h11.66c1.8633 17.863 9.5664 34.008 21.152 46.512-9.6055 5.75-20.824 9.0703-32.812 9.0703-4.668 0-8.457 3.7852-8.457 8.457 0 4.6719 3.7891 8.4609 8.457 8.4609 17.117 0 32.996-5.3516 46.086-14.453 13.094 9.1016 28.973 14.453 46.09 14.453 4.668 0 8.457-3.7891 8.457-8.4609 0-4.6719-3.7891-8.457-8.457-8.457-11.988 0-23.207-3.3125-32.812-9.0703 11.586-12.504 19.289-28.648 21.152-46.512zm-46.09 35.941c-9.2539-9.6055-15.539-22.078-17.379-35.941h34.762c-1.8398 13.863-8.125 26.336-17.383 35.941z"/>
  </g>
 </g>
</svg>
