<svg id="7d20109a-a0f0-4dfa-976a-751f0ae87d51" data-name="Layer 1" xmlns="http://www.w3.org/2000/svg" xmlns:xlink="http://www.w3.org/1999/xlink" width="1125.12" height="800.94" viewBox="0 0 1125.12 800.94"><defs><linearGradient id="9460e000-b540-487b-970a-49d5722f90c2" x1="652.58" y1="850.47" x2="652.58" y2="265.49" gradientUnits="userSpaceOnUse"><stop offset="0" stop-color="gray" stop-opacity="0.25"/><stop offset="0.54" stop-color="gray" stop-opacity="0.12"/><stop offset="1" stop-color="gray" stop-opacity="0.1"/></linearGradient><linearGradient id="d3efc67a-a667-44d9-839e-ddeb4c4ea6af" x1="1069.38" y1="751.23" x2="1069.38" y2="686.58" xlink:href="#9460e000-b540-487b-970a-49d5722f90c2"/></defs><title>hang out</title><path d="M63.9,473.36C81.48,545.57,118.68,608,177.48,638.24c122.19,62.88,397.76,30.45,603.43-6.77,106.36-19.26,199.88-72.36,267.81-147.17Z" transform="translate(-37.44 -49.53)" fill="#1c3ed3" opacity="0.1"/><path d="M1142.42,133.48H1029.58a9.38,9.38,0,1,1,0-18.75h19.5a9.38,9.38,0,1,1,0-18.75h-13.93a9.38,9.38,0,1,1,0-18.75h58.9c-13.08-5.84-28.3-10-46-12.17-160.6-19.83-217.94-6.71-238.17,6.78-24.95,16.64-52.8,28.88-82.54,34.78C628.3,126.27,443,149.91,275,99.05,191.55,73.78,129.5,116.49,92.31,187.88H1162c-1.4-20.75-5.58-39.91-13.26-56.68A9.87,9.87,0,0,1,1142.42,133.48Z" transform="translate(-37.44 -49.53)" fill="#1c3ed3" opacity="0.1"/><path d="M740.19,361.26l-1.47-.08-15.36-.87L576.2,352l-15.9-.9L326,337.94l-65.67-3.7-10.4-.58-9.23-.52L54.33,322.65a458.93,458.93,0,0,0,4.38,126l156.79,5.5,12.43.45,2.2.07,74.38,2.62,4,.14,8.58.3,75,2.64,10.28.36L438.23,462h.67l5.27.19,17.95.63h0l15.75.55,30,1.06.63,0,2.68.09,2.83.11h.62l47.82,1.67,13.4.48.56,0,6.45.23h0l1.2,0h.48l5.67.21,17.31.61h0l6.5.23,8.35.29h.31l11.46.4L667.35,470l9.12.31,1,0,44.18,1.56,25.65.9L779.28,474l5.12.17,8.27.29,30.06,1.06,226.75,8a446.33,446.33,0,0,0,68.83-100.92Zm-426.34,70a9.94,9.94,0,0,1-6.5-2.4h0a9.89,9.89,0,0,1-2.06-2.5,9.1,9.1,0,0,1-1.19-4.47,9,9,0,0,1,1.61-5.13,0,0,0,0,1,0,0,10.49,10.49,0,0,1,1.08-1.3,9.91,9.91,0,0,1,7.06-2.92h19.5a9.38,9.38,0,1,1,0-18.75H319.42a9.1,9.1,0,0,1-.91,0,9.37,9.37,0,0,1,.91-18.71H432.26a9.38,9.38,0,1,1,0,18.75h13.93a9.38,9.38,0,1,1,0,18.75h-19.5a9.38,9.38,0,1,1,0,18.75Z" transform="translate(-37.44 -49.53)" fill="#1c3ed3" opacity="0.1"/><path d="M1162.06,188.54,383.7,206.74l-85.55,2-217.77,5.1C67.21,246.35,58.49,283.1,54.48,321.2H1143.11a430.57,430.57,0,0,0,15.71-68.44C1162.06,230.37,1163.37,208.71,1162.06,188.54Zm-888,82.87h-19.5a9.59,9.59,0,0,1,9.75,9.37c0,.2,0,.39,0,.57a9.32,9.32,0,0,1-4.32,7.23,10,10,0,0,1-5.41,1.58H141.74a9.38,9.38,0,1,1,0-18.75h19.51a9.38,9.38,0,1,1,0-18.75H147.32a9.38,9.38,0,1,1,0-18.75H260.16a9.38,9.38,0,1,1,0,18.75h13.93a10,10,0,0,1,4.63,1.14,9.36,9.36,0,0,1,5.13,8.24A9.61,9.61,0,0,1,274.09,271.41Z" transform="translate(-37.44 -49.53)" fill="#1c3ed3" opacity="0.1"/><g opacity="0.1"><path d="M642.42,632.62S671,565,724.29,539.89c22.37-10.53,40.87-27.4,52.21-48.73a181.94,181.94,0,0,0,13.09-31.6" transform="translate(-37.44 -49.53)" fill="none" stroke="#535461" stroke-miterlimit="10" stroke-width="2"/><path d="M823.08,443.55c-5.55,6.72-34.32,16.52-34.32,16.52s3.47-29.14,9-35.86a16.62,16.62,0,0,1,22.72-2.49A15.13,15.13,0,0,1,823.08,443.55Z" transform="translate(-37.44 -49.53)" fill="#1c3ed3"/><path d="M813.21,496.74c-8.46,2.74-38.14-4.06-38.14-4.06s19.38-22.66,27.84-25.39,17.63,1.64,20.48,9.77A15.41,15.41,0,0,1,813.21,496.74Z" transform="translate(-37.44 -49.53)" fill="#1c3ed3"/><path d="M759.7,559.62c-8.74-1.75-30.8-22-30.8-22s28.64-10.15,37.38-8.4,14.35,10,12.54,18.37S768.44,561.36,759.7,559.62Z" transform="translate(-37.44 -49.53)" fill="#1c3ed3"/><path d="M708.07,598.42c-8.92-.3-34.23-16.7-34.23-16.7s26.44-14.66,35.36-14.35,15.9,7.49,15.59,16.07S717,598.72,708.07,598.42Z" transform="translate(-37.44 -49.53)" fill="#1c3ed3"/><path d="M747.43,473.67c1.14,8.51,20.47,31.21,20.47,31.21s12.73-26.66,11.59-35.18-9.24-14.52-18.09-13.42S746.29,465.16,747.43,473.67Z" transform="translate(-37.44 -49.53)" fill="#1c3ed3"/><path d="M687.64,519.79c3.74,7.79,29.25,23.89,29.25,23.89s3.85-29.1.11-36.9a16.43,16.43,0,0,0-21.44-7.6A15.29,15.29,0,0,0,687.64,519.79Z" transform="translate(-37.44 -49.53)" fill="#1c3ed3"/><path d="M635.93,572.28c2.31,8.29,24.63,28.3,24.63,28.3s8.91-28.06,6.59-36.35-11.17-13.2-19.79-11A15.48,15.48,0,0,0,635.93,572.28Z" transform="translate(-37.44 -49.53)" fill="#1c3ed3"/><path d="M823.08,443.55c-5.55,6.72-34.32,16.52-34.32,16.52s3.47-29.14,9-35.86a16.62,16.62,0,0,1,22.72-2.49A15.13,15.13,0,0,1,823.08,443.55Z" transform="translate(-37.44 -49.53)" opacity="0.25"/><path d="M813.21,496.74c-8.46,2.74-38.14-4.06-38.14-4.06s19.38-22.66,27.84-25.39,17.63,1.64,20.48,9.77A15.41,15.41,0,0,1,813.21,496.74Z" transform="translate(-37.44 -49.53)" opacity="0.25"/><path d="M759.7,559.62c-8.74-1.75-30.8-22-30.8-22s28.64-10.15,37.38-8.4,14.35,10,12.54,18.37S768.44,561.36,759.7,559.62Z" transform="translate(-37.44 -49.53)" opacity="0.25"/><path d="M708.07,598.42c-8.92-.3-34.23-16.7-34.23-16.7s26.44-14.66,35.36-14.35,15.9,7.49,15.59,16.07S717,598.72,708.07,598.42Z" transform="translate(-37.44 -49.53)" opacity="0.25"/><path d="M747.43,473.67c1.14,8.51,20.47,31.21,20.47,31.21s12.73-26.66,11.59-35.18-9.24-14.52-18.09-13.42S746.29,465.16,747.43,473.67Z" transform="translate(-37.44 -49.53)" opacity="0.25"/><path d="M687.64,519.79c3.74,7.79,29.25,23.89,29.25,23.89s3.85-29.1.11-36.9a16.43,16.43,0,0,0-21.44-7.6A15.29,15.29,0,0,0,687.64,519.79Z" transform="translate(-37.44 -49.53)" opacity="0.25"/><path d="M635.93,572.28c2.31,8.29,24.63,28.3,24.63,28.3s8.91-28.06,6.59-36.35-11.17-13.2-19.79-11A15.48,15.48,0,0,0,635.93,572.28Z" transform="translate(-37.44 -49.53)" opacity="0.25"/></g><g opacity="0.1"><path d="M663.79,530.22s3.6-72.91,45.24-113.58c17.48-17.06,29.11-38.88,32.45-62.62a179.34,179.34,0,0,0,1.44-34" transform="translate(-37.44 -49.53)" fill="none" stroke="#535461" stroke-miterlimit="10" stroke-width="2"/><path d="M769,294.26c-2.93,8.11-26.68,26.53-26.68,26.53s-6.79-28.61-3.87-36.71,12.14-12.4,20.57-9.59A15.4,15.4,0,0,1,769,294.26Z" transform="translate(-37.44 -49.53)" fill="#1c3ed3"/><path d="M778,347.59c-7,5.27-37.39,8.32-37.39,8.32s10.47-27.55,17.51-32.83a16.6,16.6,0,0,1,22.69,2.7A15.14,15.14,0,0,1,778,347.59Z" transform="translate(-37.44 -49.53)" fill="#1c3ed3"/><path d="M749.25,424c-8.85,1.14-36.65-11-36.65-11s23.51-18.7,32.36-19.84,17,4.83,18.16,13.34S758.09,422.82,749.25,424Z" transform="translate(-37.44 -49.53)" fill="#1c3ed3"/><path d="M713.92,477c-8.52,2.56-38-4.85-38-4.85s19.89-22.25,28.41-24.81,17.59,2,20.25,10.19A15.44,15.44,0,0,1,713.92,477Z" transform="translate(-37.44 -49.53)" fill="#1c3ed3"/><path d="M708,346.79c4,7.67,30.08,22.92,30.08,22.92s2.81-29.21-1.2-36.88a16.47,16.47,0,0,0-21.7-6.9A15.26,15.26,0,0,0,708,346.79Z" transform="translate(-37.44 -49.53)" fill="#1c3ed3"/><path d="M667.53,409.36c6.21,6.16,35.83,13.21,35.83,13.21s-6.41-28.68-12.62-34.84a16.64,16.64,0,0,0-22.86-.34A15.11,15.11,0,0,0,667.53,409.36Z" transform="translate(-37.44 -49.53)" fill="#1c3ed3"/><path d="M636.85,475.37c5,7.08,33,18.84,33,18.84s-1.28-29.31-6.32-36.39a16.58,16.58,0,0,0-22.47-4.05A15.17,15.17,0,0,0,636.85,475.37Z" transform="translate(-37.44 -49.53)" fill="#1c3ed3"/></g><path d="M706.3,174.66l-28.76,5.55s50.18-4.73,65.2-3.94S791.62,196,791.62,196s16,5.08,34.91,22.89a146.66,146.66,0,0,1,12.92,13.82c15.1,18.3,30.26,45.13,39.64,83.93,1,4,1.87,8.06,2.7,12.27,1.68,8.53,3.09,17.58,4.17,27.19.5,4.45.94,9,1.29,13.72q.53,6.72.82,13.78.28,6.72.37,13.74c.07,6.28,0,12.73-.15,19.39q-.18,6.65-.55,13.55l0,.55c-1.69,31.32-5.6,57.87-11,80.36-.56,2.33-1.14,4.63-1.73,6.87A271.16,271.16,0,0,1,865,548.57q-1,2.63-2.09,5.13-2.48,5.87-5.09,11.19-2.16,4.38-4.39,8.41c-.29.55-.6,1.09-.9,1.62-.73,1.29-1.47,2.55-2.21,3.78C824.43,622,792.66,632.55,780,635.11c-1.75.35-3.14.56-4.1.67h-.07c-.94.11-1.45.13-1.45.13-3,11.4,2.72,16,9.6,17.65a29.11,29.11,0,0,0,3.38.59h0a49.56,49.56,0,0,0,13.49-.54s30.88,1.37,63.3,2.14l7.35.17h0l2.72.05c16.77.33,33.13.45,45.06.09h0c5.66-.17,10.32-.45,13.54-.86,24.51-3.17,17.39-19,9.88-31.23-6.46-10.54-3.26-29.28,7.33-60.24q2.57-7.53,5.71-16c11.61-31.47,10.94-78.51,8.21-118.33-.36-5.25-.75-10.38-1.16-15.32-.5-6.07-1-11.87-1.51-17.31-2.2-24.25-9.34-50.38-16.94-71.4-1.09-3-2.19-6-3.29-8.76a212.48,212.48,0,0,0-10.88-23.92c-.88-1.59-1.71-3-2.48-4.19l-.7-1.11c-1.33-2.14-2.72-4.6-4.15-7.29-2.09-3.92-4.26-8.34-6.4-12.91-5.45-11.65-10.75-24.39-14.25-33-2.55-6.31-4.14-10.45-4.14-10.45a15.83,15.83,0,0,1,1.74-4.84c13.29-24.29,90.33-38.24,90.33-38.24l38.62,2.78,76.77,5.52-83.83-12.66-13-2s3.77-.4,9.35-1.3h0c11.07-1.8,29.27-5.57,39.25-12.14,8-5.24,50.2-7.48,88.08-8.43v-9.64l-7.07,5L1056.9,149l39.52-50.58-52.17,53.34c-8.2,1.64-24,5.36-42.13,9.78C989.62,164.59,976,168,963,171.22c-32,8-60.56,15.32-60.56,15.32A140.77,140.77,0,0,1,957.91,83.82L1002.58,50H991c-33,19.69-82.71,59.05-82.71,59.05s.83-21.77,7.83-59H900.94q-.27,2.87-.69,5.7c-6,40.63-8.93,88.51-8.93,88.51-5.14,34.78-19,5.14-19,5.14C873.56,109.88,857.63,73,844.89,50H828.05c7.78,15.86,5.18,27.44,5.18,27.44C807.43,58.22,786.91,51.73,772.88,50a59.65,59.65,0,0,0-15.63,0,27.73,27.73,0,0,0-5.81,1.35c52.16,2.37,89.3,41.88,89.3,41.88,4.14,1,14.58,33.32,19,74.32.65,6,1.18,12.23,1.53,18.56,1.19,21.15-1.47,29.76-4.9,32.7-2.51,2.16-5.44,1.25-7.57,0a15.29,15.29,0,0,1-2.94-2.28c-8.12-13.6-39-29.07-67-40.9-5.93-2.5-11.74-4.84-17.18-7a64.18,64.18,0,0,1-38.42-43.12C714.09,92,696.9,93.28,696.9,93.28c20.16,15.41,19,62,19,62l-66.76-14.1c31.73,8.52,83.75,28.33,83.75,28.33l-26.55,5.11Z" transform="translate(-37.44 -49.53)" fill="#dea3a2"/><path d="M631.7,137.54l17.41,3.68A122.12,122.12,0,0,0,631.7,137.54Z" transform="translate(-37.44 -49.53)" fill="#dea3a2"/><path d="M831.79,614.35s14.69-8.7,34.82-4.35,50.95,2,53.76,1.57Z" transform="translate(-37.44 -49.53)" opacity="0.1"/><path d="M896.17,377.73s4.9,77.24-3.81,92.47Z" transform="translate(-37.44 -49.53)" opacity="0.1"/><path d="M914.24,470.2s-6.27,72.35-10.62,86.49S914.24,470.2,914.24,470.2Z" transform="translate(-37.44 -49.53)" opacity="0.1"/><path d="M920.37,292.32C924.81,294,943.85,332.58,940,344S920.37,292.32,920.37,292.32Z" transform="translate(-37.44 -49.53)" opacity="0.1"/><path d="M872.09,252.23c2.07.94,10.92,23.18,9.15,29.76S872.09,252.23,872.09,252.23Z" transform="translate(-37.44 -49.53)" opacity="0.1"/><path d="M954.53,382c-2.2,22.43-3.39,37.12-2,55.07a211.23,211.23,0,0,1-.6,41.88Z" transform="translate(-37.44 -49.53)" opacity="0.1"/><path d="M716.13,120.77c2.68,3.06,3.58,7.3,3.71,11.37s-.4,8.14-.13,12.19c.29,4.27,2.31,9.28,6.55,9.85Z" transform="translate(-37.44 -49.53)" opacity="0.1"/><path d="M928.64,99.25a46.59,46.59,0,0,0-8.87,6.11,15.87,15.87,0,0,0-5.16,9.24c-.19,1.52-.09,3.08-.43,4.58a14.45,14.45,0,0,1-3,5.55,75.44,75.44,0,0,1-7.49,8.29" transform="translate(-37.44 -49.53)" fill="none"/><path d="M902.83,202.43a55,55,0,0,1,7.15-5,30.1,30.1,0,0,1,7.35-3.23c3.94-1,8.09-.89,12.14-1.31s8.3-1.55,11.07-4.55Z" transform="translate(-37.44 -49.53)" opacity="0.1"/><path d="M1063.51,152.51c-4.81.13-9.8.3-14.08,2.5-2.18,1.13-4.08,2.73-6.22,3.93a18.92,18.92,0,0,1-9.07,2.36Z" transform="translate(-37.44 -49.53)" opacity="0.1"/><path d="M996.84,172.34c1-.8,2.6-.18,3.45.81s1.34,2.26,2.22,3.22c1.75,1.9,4.62,2.11,7.2,2.21Z" transform="translate(-37.44 -49.53)" opacity="0.1"/><path d="M969.34,70.21l-4.62,2.42c-4.72,2.47-9.47,5-13.62,8.31Z" transform="translate(-37.44 -49.53)" opacity="0.1"/><path d="M916.55,115.39c-3-.72-5.66,2.52-6.2,5.59s.09,6.32-.78,9.31c-.77,2.66-2.64,4.84-4.55,6.83Z" transform="translate(-37.44 -49.53)" opacity="0.1"/><path d="M865.14,121c-2.76,8.25,3.1,17.26,1.39,25.79-.52,2.6-1.73,5-2.34,7.6-1.61,6.78,1.15,14,5.59,19.39Z" transform="translate(-37.44 -49.53)" opacity="0.1"/><ellipse cx="237.65" cy="719.04" rx="25.44" ry="3.49" fill="#1c3ed3" opacity="0.1"/><ellipse cx="140.21" cy="728.92" rx="25.44" ry="3.49" fill="#1c3ed3" opacity="0.1"/><ellipse cx="25.44" cy="715.54" rx="25.44" ry="3.49" fill="#1c3ed3" opacity="0.1"/><ellipse cx="179.21" cy="757.05" rx="18.08" ry="2.48" fill="#1c3ed3" opacity="0.1"/><ellipse cx="78.08" cy="754.57" rx="18.08" ry="2.48" fill="#1c3ed3" opacity="0.1"/><path d="M177.1,777.66s35.68-116.95-5.58-163.79c-30.87-35-65.9-30.85-81.59-26.52A29,29,0,0,0,71.21,602.9c-5.48,11.84-4.49,31.05,34.23,53.47,64.84,37.53,68.87,89,68.87,89Z" transform="translate(-37.44 -49.53)" fill="#1c3ed3"/><path d="M95.51,603.94s105.17,32.88,81.59,173.72" transform="translate(-37.44 -49.53)" fill="none" stroke="#565987" stroke-miterlimit="10"/><path d="M156.94,615.73s-14.48,9.76-9.88,24.42" transform="translate(-37.44 -49.53)" fill="none" stroke="#565987" stroke-miterlimit="10"/><path d="M106.06,624.41s8.85-9,19.63-4" transform="translate(-37.44 -49.53)" fill="none" stroke="#565987" stroke-miterlimit="10"/><path d="M147.63,669.71s15.55-7.89,19.57,2" transform="translate(-37.44 -49.53)" fill="none" stroke="#565987" stroke-miterlimit="10"/><path d="M186.1,686.15s-11.67-.93-11.89,4.65" transform="translate(-37.44 -49.53)" fill="none" stroke="#565987" stroke-miterlimit="10"/><path d="M178.55,778.6s-41.79-85-53.27-83.14c-5.45.88-8,6.24-9.1,11.63a34.22,34.22,0,0,0,2.28,20.69C124.39,741.38,140.31,767.21,178.55,778.6Z" transform="translate(-37.44 -49.53)" fill="#1c3ed3"/><path d="M125.59,711.59s43.86,63.59,52.34,66.38" transform="translate(-37.44 -49.53)" fill="none" stroke="#565987" stroke-miterlimit="10"/><line x1="84.12" y1="671.98" x2="94.36" y2="671.98" fill="none" stroke="#565987" stroke-miterlimit="10"/><line x1="96.38" y1="695.25" x2="112.43" y2="695.94" fill="none" stroke="#565987" stroke-miterlimit="10"/><line x1="106.15" y1="676.64" x2="104.41" y2="684.99" fill="none" stroke="#565987" stroke-miterlimit="10"/><line x1="123.21" y1="702.07" x2="122.9" y2="709.67" fill="none" stroke="#565987" stroke-miterlimit="10"/><path d="M177.3,778.6s41.79-85,53.27-83.14c5.45.88,8,6.24,9.1,11.63a34.22,34.22,0,0,1-2.28,20.69C231.46,741.38,215.54,767.21,177.3,778.6Z" transform="translate(-37.44 -49.53)" fill="#1c3ed3"/><path d="M230.26,711.59S186.4,775.18,177.93,778" transform="translate(-37.44 -49.53)" fill="none" stroke="#565987" stroke-miterlimit="10"/><line x1="196.85" y1="671.98" x2="186.61" y2="671.98" fill="none" stroke="#565987" stroke-miterlimit="10"/><line x1="184.59" y1="695.25" x2="168.54" y2="695.94" fill="none" stroke="#565987" stroke-miterlimit="10"/><line x1="174.83" y1="676.64" x2="176.57" y2="684.99" fill="none" stroke="#565987" stroke-miterlimit="10"/><line x1="157.76" y1="702.07" x2="158.07" y2="709.67" fill="none" stroke="#565987" stroke-miterlimit="10"/><path d="M105.56,798.45a7.31,7.31,0,0,1-2.38-3.59,3.19,3.19,0,0,1,1.66-3.66c1.53-.58,3.16.48,4.4,1.54s2.65,2.29,4.27,2.07a6.51,6.51,0,0,1-2-6.09,2.56,2.56,0,0,1,.56-1.24c.85-.9,2.38-.51,3.4.2,3.22,2.27,4.12,6.65,4.14,10.6a19.93,19.93,0,0,0,.06-4.37,4.48,4.48,0,0,1,1.64-3.86,4.86,4.86,0,0,1,2.5-.59c1.45-.05,3.06.09,4,1.15,1.24,1.32.92,3.53-.15,5a15.86,15.86,0,0,1-4.2,3.37,9.12,9.12,0,0,0-3,2.86,3.42,3.42,0,0,0-.23.51h-9.09A25.59,25.59,0,0,1,105.56,798.45Z" transform="translate(-37.44 -49.53)" fill="#1c3ed3"/><path d="M264.78,764.21a7.22,7.22,0,0,1-2.38-3.59,3.19,3.19,0,0,1,1.66-3.65c1.53-.59,3.16.47,4.39,1.54s2.66,2.29,4.28,2.06a6.5,6.5,0,0,1-2-6.09,2.62,2.62,0,0,1,.56-1.23c.85-.91,2.39-.52,3.4.2,3.23,2.26,4.13,6.65,4.15,10.59a19.84,19.84,0,0,0,.05-4.36,4.48,4.48,0,0,1,1.64-3.86,4.91,4.91,0,0,1,2.5-.59c1.45-.06,3.07.09,4.06,1.15,1.23,1.32.91,3.53-.16,5a15.67,15.67,0,0,1-4.2,3.36,9.53,9.53,0,0,0-3,2.86,2.71,2.71,0,0,0-.22.52H270.4A25.16,25.16,0,0,1,264.78,764.21Z" transform="translate(-37.44 -49.53)" fill="#1c3ed3"/><path d="M211.71,798.45a7.31,7.31,0,0,1-2.38-3.59A3.2,3.2,0,0,1,211,791.2c1.52-.58,3.15.48,4.39,1.54s2.65,2.29,4.27,2.07a6.53,6.53,0,0,1-2-6.09,2.65,2.65,0,0,1,.56-1.24c.85-.9,2.38-.51,3.4.2,3.22,2.27,4.12,6.65,4.14,10.6a19.93,19.93,0,0,0,.06-4.37,4.48,4.48,0,0,1,1.64-3.86,4.86,4.86,0,0,1,2.5-.59c1.45-.05,3.07.09,4.06,1.15,1.23,1.32.91,3.53-.16,5a15.7,15.7,0,0,1-4.2,3.37,9.22,9.22,0,0,0-3,2.86,2.61,2.61,0,0,0-.22.51h-9.09A25.41,25.41,0,0,1,211.71,798.45Z" transform="translate(-37.44 -49.53)" fill="#1c3ed3"/><path d="M61.22,729.25s-3.4,4.45,1.58,11.18,9.09,12.41,7.43,16.61c0,0-7.52-12.5-13.64-12.68S54.49,736.76,61.22,729.25Z" transform="translate(-37.44 -49.53)" fill="#1c3ed3"/><path d="M61.22,729.25a5.62,5.62,0,0,0-.69,1.39c-6,7-9.15,13.56-3.41,13.72,5.34.16,11.75,9.71,13.29,12.13,0,.18-.11.37-.18.55,0,0-7.52-12.5-13.64-12.68S54.49,736.76,61.22,729.25Z" transform="translate(-37.44 -49.53)" opacity="0.1"/><path d="M54.89,734.93c0,1.56.17,2.84.39,2.84s.39-1.28.39-2.84-.22-.83-.43-.83S54.89,733.36,54.89,734.93Z" transform="translate(-37.44 -49.53)" fill="#ffd037"/><path d="M52.71,736.8c1.38.75,2.58,1.2,2.69,1s-.93-.95-2.31-1.7-.83-.21-.94,0S51.34,736.05,52.71,736.8Z" transform="translate(-37.44 -49.53)" fill="#ffd037"/><path d="M79.23,729.25s3.41,4.45-1.58,11.18S68.57,752.84,70.23,757c0,0,7.51-12.5,13.63-12.68S86,736.76,79.23,729.25Z" transform="translate(-37.44 -49.53)" fill="#1c3ed3"/><path d="M79.23,729.25a5.62,5.62,0,0,1,.69,1.39c6,7,9.15,13.56,3.41,13.72-5.34.16-11.75,9.71-13.29,12.13a4,4,0,0,0,.19.55s7.51-12.5,13.63-12.68S86,736.76,79.23,729.25Z" transform="translate(-37.44 -49.53)" opacity="0.1"/><path d="M85.56,734.93c0,1.56-.17,2.84-.39,2.84s-.39-1.28-.39-2.84.22-.83.43-.83S85.56,733.36,85.56,734.93Z" transform="translate(-37.44 -49.53)" fill="#ffd037"/><path d="M87.74,736.8c-1.38.75-2.58,1.2-2.68,1s.92-.95,2.3-1.7.84-.21.94,0S89.12,736.05,87.74,736.8Z" transform="translate(-37.44 -49.53)" fill="#ffd037"/><path d="M84.48,756.45s-9.53-.29-12.4-2.33-14.66-4.49-15.37-1.21-14.33,16.31-3.57,16.4,25-1.68,27.87-3.42S84.48,756.45,84.48,756.45Z" transform="translate(-37.44 -49.53)" fill="#a8a8a8"/><path d="M53,768.17c10.76.08,25-1.68,27.87-3.43,2.18-1.33,3.05-6.1,3.34-8.3h.32s-.61,7.69-3.47,9.44-17.11,3.5-27.87,3.42c-3.1,0-4.18-1.13-4.12-2.77C49.45,767.53,50.64,768.15,53,768.17Z" transform="translate(-37.44 -49.53)" opacity="0.2"/><path d="M1015.3,505.17c-4.08-3.46-16.24-24.72-19.68-30.8l-.9-1.62h0c1.26-4.73-6.64-11.61-8.94-13.5-4.85-5.7-11.8-12.8-17.53-14.5-7.34-2.17-12.47.27-18-.68a14.06,14.06,0,0,1-3.89-1.25,19.42,19.42,0,0,1-2.33-1.38,28.48,28.48,0,0,1-5.28-5.05,11.48,11.48,0,0,0,3-.79q8.55-3.19,16.8-7.1c1.19-.57,2.48-1.25,2.95-2.48.2-.52.23-1.1.47-1.6.52-1.12,1.86-1.55,3-1.91,4.22-1.28,8.8-3.8,9.5-8.15a11,11,0,0,0,.1-1.72,7.32,7.32,0,0,1-.8,1.27c.15-1.47-.08-3,.14-4.43a8.88,8.88,0,0,1,1.46-3.52,11.75,11.75,0,0,0-.08,1.45c1.64-3.55,5.59-6.12,6.89-9.95a11.11,11.11,0,0,0,.52-3.15,11,11,0,0,1-.9,1.69c.73-4.33-1.17-9.23,1.06-13,.15-.25.32-.5.49-.73a12,12,0,0,0-.13,1.48c.11-.25.23-.5.37-.75,1.05-1.78,2.91-3.09,3.45-5.09a5.82,5.82,0,0,0,.08-2.24,10,10,0,0,1-.68.93,12.53,12.53,0,0,0-.41-2.77c-1.59-6.86-3.91-14.65-10.34-17.5-1.95-.87-4.2-1.23-5.76-2.69-3.57-3.32-1.64-10.42-5.75-13-1.81-1.15-4.59-1.27-5.28-3.3-.39-1.15.14-2.47-.29-3.62-.91-2.45-4.48-1.57-7.09-1.48-3.62.14-7.36-3.05-6.83-6.63a19,19,0,0,0-15.76-.74c-2.64,1.07-5.23,2.78-8.06,2.52-1.37-.13-2.64-.71-4-.95-5.6-1-10.39,3.81-15.72,5.8-5.55,2.07-12.37,1.25-16.79,5.21-3.88,3.49-4.59,9.67-8.7,12.88-2.19,1.7-5,2.31-7.33,3.87s-3.89,4.92-2.13,7.07c2.22,2.72,7.92,1.26,9,4.6.87,2.69-2.47,4.69-3.75,7.2a5.59,5.59,0,0,0,3.85,7.7h0l0,.08a36.22,36.22,0,0,0,17.26,43.56c.5.9,1,1.91,1.56,3,3.11,6.18,6.72,14.84,7.79,23.28-3.74-1.23-11.61,5.93-11.61,5.93a85.92,85.92,0,0,1-12.13,2.21c-8.41,1.1-7.73,4.39-7.72,4.42l-.53.48C865.57,467.54,836,494,831.26,495l.25,1-1.22.9-14.65,10.85h0s-11.22.74-22.25,2-26.66,4.61-15.26,17.87c.32.38.64.72,1,1L734.91,526a1.94,1.94,0,0,0,.49-1.17c0-1-1.14-2-3.1-2.75l-.07-.31c5.57-.16,12.49-.41,17.11-.83,1.2-.12,2.23-.24,3-.37,6.9-1.11-.55-6.36,2.76-10.5s0-19.63.27-22.94-2.2-16.58-4.41-19.35-2.48-14.65-2.48-14.65-5.24-4.7-8.27-20.73-15.17-24.32-19-25.15-9.65-4.14-9.65-5-6.62-1.11-9.38-2.21-4.14-2.49-6.34-2.77h0a12.31,12.31,0,0,0,1.95-2.92,6.73,6.73,0,0,1,2.39-2.67,3.56,3.56,0,0,1,.61-.25,2.37,2.37,0,0,1,.65-.09,1.88,1.88,0,0,1,.66.09c.82.23,1.66.92,2.39.51a.87.87,0,0,0,.27-.23,2.23,2.23,0,0,0,.43-1h0c.09-.41.16-.83.21-1.25,0,0,0-.06,0-.09.05-.43.08-.86.1-1.29h0c.15-3.12-.29-6.35,1.16-9.06l.09-.13h0c1.46-2.6,4.33-4,6.66-5.91q.72-.58,1.38-1.23c.17-.16.32-.34.49-.52s.51-.53.75-.81.38-.49.57-.73.36-.47.52-.71.4-.59.59-.9.25-.4.36-.6.39-.7.57-1.07c.08-.16.16-.33.23-.49.19-.4.36-.81.52-1.22.05-.13.09-.26.13-.38.17-.46.32-.91.45-1.38,0-.08,0-.15,0-.23a18.59,18.59,0,0,0,.57-3A19.68,19.68,0,0,0,716,345.3c-2.55-3-6.21-5.62-6.41-9.53a14.94,14.94,0,0,1,1.2-5.36h0a13.36,13.36,0,0,0,.58-2.3h0a6.35,6.35,0,0,0,.09-1.07c0-2.91-1.84-5.5-4-7.49a25.68,25.68,0,0,0-23.11-6.1c-2.13.52-4.28,1.32-6.46,1.05-2.54-.32-4.64-2-6.92-3.17-7.46-3.78-17.57-1-22.09,6-2.61,4.08-3.63,9.39-7.53,12.25-2.3,1.69-5.48,2.43-7.13,4.62h0a4.86,4.86,0,0,0-.52.81,6.12,6.12,0,0,0-.59,2.74,18.65,18.65,0,0,0,.24,2.88,13.21,13.21,0,0,0,4.19,8.05h0l.57.6.13.14c.4.44.78.88,1.12,1.33l.06.09.31.44c-.14.17-.29.33-.42.5a33.2,33.2,0,0,0,4.9,46.38c0,.35,0,.7,0,1.06-.09,1.85-.22,3.81-.38,5.81a4.75,4.75,0,0,0-3.77-1.31,4,4,0,0,0-1.88.18,4.82,4.82,0,0,1-1.08.22c-1.42-.12-2.74-.63-4.13-.48a4.63,4.63,0,0,0-3.89,1.36c-2.74,2.52-12.27,5.79-16.89,6.06a2.88,2.88,0,0,1-1-.25,2.45,2.45,0,0,0-1.52-.14c-2.91-.65-11,5-12.82,8.43-1.93,3.59-8.27,13.26-8.27,13.26s-5.52,6.64-4.69,10.23-1.93,7.74-5.24,9.4-9.93,18.24-9.93,18.24-7.17,15.2-14.62,19.07c-2.92,1.52-3.84,5-3.89,8.75-1.72.09-3,.09-3,.09s-23.17,5.9-30.52,1.47-33.1-5.52-33.1-5.52L457.31,466l-1.06-1.14c4.64-3.95-3.18-6.85-3.18-9.75s-2.94-4.06-2.94-4.06-.13.17-.34.4a5.13,5.13,0,0,0-.76-.4,7.27,7.27,0,0,1-2.17,1.85c-.54-.35-.89-1.39-.77-3.69.22-4.49-2.69-9.24-5-12.27,3.31-10.76,9.5-22.86,14.24-31.3.27-.5.55-1,.82-1.45a32.35,32.35,0,0,0,11-50.91c-.34-.39-.69-.76-1.05-1.13a6.89,6.89,0,0,1,.81-.23,6,6,0,0,1,1.05-.1c2.37.06,5.1,1.15,7.31,1.05a4.33,4.33,0,0,0,2.05-.4c2.42-1.2,1.85-4.42.43-6.05-1.75-2-4.5-3.33-5.77-5.57a17.81,17.81,0,0,1-1.31-4.28,15.28,15.28,0,0,0-9.32-9.64,19.66,19.66,0,0,0-14.66.32c-2.17,1-4.08,2.31-6.33,3.12-4.65,1.68-10,.76-14.81-.58-2.81-.78-5.61-1.7-8.46-2.33a42.35,42.35,0,0,0-3.89-12.31c-.15-.31-.33-.6-.49-.91,4.8-1.66,11.06-1.36,13.56-5.71a9.56,9.56,0,0,0,4.55-.59c1.38-.69,2.42-2.35,1.86-3.8a3,3,0,0,0-.61-.92l0,0a11.47,11.47,0,0,0-2-1.51,11.82,11.82,0,0,1-5.08-9.1c0,.08,0,.16.07.25a10.77,10.77,0,0,1,0-1.27c.08-1.91.63-3.79.51-5.7a7.28,7.28,0,0,0-.54-2.31c0,.05,0,.1,0,.15a8.42,8.42,0,0,0-7.91-5.39c-1.25.06-2.48.4-3.73.44-6,.17-10.95-6.56-16.76-5.2-1.24.29-2.42,1-3.69.95-2.93,0-4.74-3.36-7.54-4.24-2.22-.71-4.64.27-7,0s-4.12-1.58-6.08-2.65c-4.19-2.29-9.8-3.3-13.47-.24a12.21,12.21,0,0,1-2.62,2.1,7.6,7.6,0,0,1-3.8.22,35.23,35.23,0,0,0-11.35.77,4.28,4.28,0,0,0-2.6,1.35,7.6,7.6,0,0,0-.82,2.65c-1.12,4.35-6.48,5.82-10.95,6.19a6.3,6.3,0,0,0-3.3.89c-1.61,1.23-1.56,3.7-.85,5.6s1.92,3.63,2.18,5.64c.65,5-4.78,8.87-5.68,13.88-1.26,6.92,6.41,13.72,3.8,20.26-1.15,2.9-4.23,5.14-4.09,8.26s3.16,4.92,5,7.3,2.51,5.17,3.21,8c1.08,4.33,1.28,12.5,5.92,14.58h0a4.69,4.69,0,0,0,.6.24,6.82,6.82,0,0,0,.78.19c-.22.32-.43.64-.65.95-5.42,7.74-11.49,15.27-17.17,19.91-.2.17-.41.33-.62.49a4.46,4.46,0,0,0-2.45-1.08c-3.31-.37-11.77,5.53-11.77,8.47S293.86,402,285,410.47s-8.82,49-5.88,56.75c1.16,3.07,2.79,11.06,4.33,19.58a10.84,10.84,0,0,0-4,5.85c-3.31,14,1.47,25.05,5.51,26.16S288,514,288,514c-3.23-7-3.84-12.41-2.63-16.52C286.85,506.55,288,514,288,514s10.67,33.9,14.71,44.22,18.39,74.81,18.39,74.81,1.57,2,4.38,4.85l3.34,18.36,5.51,11.06.41,0-.83,7.88s.73,33.17-1.11,38.14-18.2,95.08-18.2,95.08-5.15,31.69-4.78,39.43l11.95,2.58s-2.39-6.82,1.11-19.53,10.29-36.48,10.29-36.48l7-31.69.53,22.66s-6.25,28.19-5,29.66,10.84,2,10.84,2,0-15.11,2-23.4c1.76-7.23,21.28-82.13,26.24-101.18a47.05,47.05,0,0,1,21.56-3.48c24.77,1.38,38.63,10.44,46.37,19.73-17.75,9.38-32.7,17.12-32.7,17.12l.18,1h0l-.16.09-.38.23-.19.11-.36.22-.27.15-.41.25-.26.15-.5.29-.23.13-1.64,1-.18.1-.71.41-.21.12-.75.43-.2.12-.85.49-.11.06-1,.56,0,0-1,.58-.1.06-.91.51-.25.14-.74.42-.35.2-.68.37-.34.19-.75.41-.26.15-1,.55,0,0-.94.51-.26.13-.71.38-.3.16-.62.32-.33.17-.61.32-.27.14-.72.36-.12.06-.8.4-.18.08-.56.27-.24.11-.45.2-.24.11-.39.16-.22.09-.36.14-.17.07-.45.15c-4.73,1.43-8.11,13.42-3,21.13s4.05,21.13,1.35,26.27.67,14.28,1.35,16.57c.51,1.74,6.71,3.63,16.49,3.19a69.52,69.52,0,0,0,15.72-1.19c15.55-2.86,9.8-9.14,8.11-13.71s-2-17.71.34-23.7q.24-.63.42-1.29c3.66-4.07,9.5-10.74,14.17-16.82,2.15-2.8,7.58-5.29,14.18-7.41,5.28,21.65,15.8,64.51,18.12,71.35,3.12,9.21,4.78,31.88,4.78,31.88l12.13-1.11-4-60.25-4.35-48c5.74-1,10.18-1.63,11.62-1.83,5.92,22.78,11.55,44.48,12.46,48.21,2,8.29,2,23.4,2,23.4s9.56-.55,10.85-2-5-29.67-5-29.67l1.17-49.86c13.73-6.43,30.43-14.19,37.81-17.4,6.94-3,18.47-10.13,28.11-16.4l17,138.75,9.93.83,5.31-1.21,6.82-1.55,15.6-125.07c.62.49,1.19.95,1.69,1.37-.34,3.13-.65,8.45.64,12.32,1.93,5.8,1.65,18.51.27,22.94s-6.06,10.5,6.62,13.26,21.24.28,21.79-1.93,3.31-11.06,1.1-16-3-18,1.1-25.43,1.38-19.07-2.48-20.45c-2.56-.92-6.32-2.56-8.58-3.57l-.72-.91a18.73,18.73,0,0,1,6-5.2c6.62-3.31,5.24-10.77,5.24-10.77s6.9,0,11.86-8.3c3.48-5.81,7.49-11.61,9.59-15.81.42,2.67.9,6,1.17,8.81.55,5.9,7.35,63.2,10.48,68s.55,22.85.55,22.85h10.11l-.73-27.64s-11.4-81.25-1.84-89.55c1.67-1.45,3.3-2.94,4.85-4.4l18.86,137.91c-.05,1-.09,1.72-.12,2.26s-.06,1-.06,1-8.09,4.06-2.2,8.1a15.06,15.06,0,0,0,4.16,1.74l.41,3a42.91,42.91,0,0,1-6.41,0c-1.29-.55-1.29,17.13-1.29,17.13s-7.17,14.38-8.09,17.88-8.09,12.16-8.09,12.16-10.3,7.55,4.78,10.5,31.62-.92,31.62-.92,11-19.16,12-18.06,0,10.14,0,10.14l6.44-1.66s-1.11-12,1.47-18.43c2-5.12-2.41-21.29-4.33-27.72l1.2.09s1.1-2.21,2.21-8.85q0-.31.09-.6a85.57,85.57,0,0,1,3.59-14.14c1.83-5.9,0-5.16,0-8.85a134.22,134.22,0,0,1,2-18.93c0-.19.07-.37.11-.56a8.82,8.82,0,0,0,2.68,1.19c1.1,3.06,2.26,6.57,3,9.5-2,.62-3.35,1.34-3.57,2.17-1.11,4.06.36,12.71.36,12.71s1.65,19.54-1.47,22.49-9.56,8.29-5.33,13.82a7,7,0,0,0,1.47,1.37c3,2.18,8.76,3.75,14.56,4l-2.42,36.1L794.31,830s1.65-22.67,4.78-31.88c.69-2,2.12-7.32,3.92-14.28,4.55-6.83,7.11-11.7,7.11-11.7l3.13,12.9,10.84-2.77s-5.88-11.42-5.15-15.47-3.12-9.76-6.24-14.37c-.39-.57-.81-1.3-1.26-2.13,4.65-18.87,8.79-36,8.79-36S823.17,676,876.31,673a47,47,0,0,1,21.55,3.48c5,19,24.49,94,26.25,101.18,2,8.29,2,23.4,2,23.4s9.56-.55,10.85-2-5-29.66-5-29.66l.53-22.66,7,31.69s6.8,23.76,10.29,36.48,1.1,19.53,1.1,19.53l11.95-2.58c.37-7.74-4.78-39.43-4.78-39.43s-16.36-90.1-18.2-95.08-1.1-38.14-1.1-38.14l-.81-7.72c13-9.15,20.3-58.06,20.3-58.06l13.56-75.82a91.85,91.85,0,0,0,5.4-12.16l0-.07,1.62,1.82,7.88,19.35c15.62,21.93,31.25,21.19,31.25,21.19a1.11,1.11,0,0,0,.07-.16,10.35,10.35,0,0,0,8-2.1l.16-.13C1031.85,540.92,1020.09,509.23,1015.3,505.17ZM739.39,551c-.9-3.62-1.88-7.58-2.91-11.74l3.13-.06ZM692.31,398a9.08,9.08,0,0,0-.94.66c-.29-.74-.56-1.5-.83-2.26A5.25,5.25,0,0,0,692.31,398ZM597.68,558.42c-4.69,6.09-5.24,10-5.24,10l1.18.27-8.51,7.61-4.29-36.87,20.75.9C600.4,549.44,599.07,556.61,597.68,558.42Zm20.13,76.84s4.28-1,9.86-2.62l-1.77,13.3C620.9,639.45,617.81,635.26,617.81,635.26Zm-11.91-146,.15-.34,0,.35ZM499.77,580.72c-4.64-2.1-37.42-12.17-49.35-15.82a2.42,2.42,0,0,1-.29-1.87c1.11-3.68-7.35-13.63-10.66-16.21s-7.72-7.37-4.05-10.32a6.24,6.24,0,0,0,1.79-3.35l34.18,1.49a83.78,83.78,0,0,0,10,3s5.81-.76,13.45-2l67.64,2.93,6.42,52.31c-4.21,3.86-7.07,6.56-7.07,6.78,0,.48-4.53,8.2-5.08,18.37l-35.29-11a5.1,5.1,0,0,0,.19-.55C525,592.33,505.47,583.3,499.77,580.72ZM437.9,524.61c-.06-2.47-.27-4.33-.27-4.33l-.76-8.24c6.66,4.07,13.86,8.59,19,12.12ZM597.22,680.35l.73-.5a10.09,10.09,0,0,0,5-3.46c2.95,2.57,5.7,4.94,8.11,7-2.82,2.6-7.78,6.83-12.45,9.06ZM738.1,622.74l-1.3,71.64L726.89,628C729.69,626.61,734.07,624.58,738.1,622.74ZM800,525.26s10.66,13.27,18.94,8.84h0c1.86.24,15.41-7.08,24.1-11.9a39.44,39.44,0,0,0,4.21,5.08l5.26-2.72,1.05-.54c.52,5.71,1.42,15.22,2.15,21.32,1.1,9.17-14.2,21.63-14.34,21.74h0s.06.46.1,1.18c-.75.67-1.2,1-1.2,1l1.23-.22c.11,2.89-.1,8-2.71,9.07-3.67,1.48-5.88,2.58-13.24.37A137.55,137.55,0,0,0,798.27,574c-12.77-.74-26.44.64-33,8.16-.23.27-.45.56-.66.86s-.22.33-.33.49a3.24,3.24,0,0,0-.66.31s0,.24.1.62c-3.56,6.42-4.55,18.29-4.33,31.07l-1.1.47-.54.25-.41.2c-.38.17-.76.36-1.14.55l-.68.34-.88.47-1,.55-.57.34c-.42.24-.84.5-1.26.77l-.3.19c-.48.32-1,.64-1.43,1l-.12.1c-.18.12-.35.25-.52.38L750.68,539l54.39-1-.83-7.74-8.4-.51A23.12,23.12,0,0,0,800,525.26ZM409.81,729.89l.3-.75c0-.06.05-.12.08-.19l.29-.66h0l.29,1.57c-.4.23-.8.47-1.22.7.09-.22.17-.44.25-.65ZM602,721.4a81.33,81.33,0,0,0,14.37-4l-7.93,59.36Zm135.47,52.53c.72.17,1.47.33,2.24.49v1.73l-2.34.12Z" transform="translate(-37.44 -49.53)" fill="url(#9460e000-b540-487b-970a-49d5722f90c2)"/><path d="M1110.55,744.39c0-2.14-8.71-4-21.52-5-3.48-5.8-8.94-12.1-9.5-14.67-.76-3.48-9.23-3-16.25-1.27,4.42-5.68,10.79-12.35,16.43-12.52,5.9-.16,5.94-4.53,2.7-10.61a20.52,20.52,0,0,0,3.55-1.59c2.21-1.22,1.07-.83.9-1.14s.71-1.19-1.51,0a20.75,20.75,0,0,0-3.22,2.09,19.68,19.68,0,0,0,.32-4c0-2.53-.21-1.34-.56-1.34s-.7-1.19-.7,1.34a26.43,26.43,0,0,0,.12,2.69,84.27,84.27,0,0,0-9.06-11.85l0,0,0,0,0,.07,0,0c.06.09.15.22.25.4l0,.05c0,.07.09.16.13.25l0,.06a7.31,7.31,0,0,1,.36.78.42.42,0,0,1,0,.1l.15.38c1.05,2.91,1.77,8.56-3.63,15.87s-10.32,14.07-12,19.69c-1.65-5.62-6.47-12.26-12-19.69s-4.68-13-3.63-15.87l.15-.38,0-.1q.2-.45.36-.78l0-.06c0-.09.09-.18.13-.25l0-.05a3.26,3.26,0,0,1,.25-.4l0,0,0-.07,0,0,0,0a84.27,84.27,0,0,0-9.06,11.85c.07-.76.12-1.68.12-2.69,0-2.53-.35-1.34-.7-1.34s-.57-1.19-.57,1.34a19.52,19.52,0,0,0,.33,4,20.75,20.75,0,0,0-3.22-2.09c-2.22-1.21-1.34-.33-1.51,0s-1.32-.08.9,1.14a20.52,20.52,0,0,0,3.55,1.59c-3.24,6.08-3.2,10.45,2.7,10.61,6.78.2,14.64,9.83,18.87,15.8-4.22,2.89-16.69,3.58-19.36,3.69h0l-.51,0h0a47.8,47.8,0,0,0,1.06,6.55,28.88,28.88,0,0,0,1.21,3.94c-5.29.95-8.45,2.13-8.45,3.42,0,2.7,13.83,5,32.27,5.51a220.06,220.06,0,0,0,24.36,1.32c.5,0,1,0,1.38-.06l.2,0c.4,0,.77-.1,1.12-.16l.21-.05a7.37,7.37,0,0,0,.93-.25l.14-.06a6.17,6.17,0,0,0,.73-.33l.09,0a4.55,4.55,0,0,0,.6-.42l.12-.11a2.74,2.74,0,0,0,.43-.48l.06-.07C1102.85,748.18,1110.55,746.41,1110.55,744.39Z" transform="translate(-37.44 -49.53)" fill="url(#d3efc67a-a667-44d9-839e-ddeb4c4ea6af)"/><path d="M422.7,752.47s2,9.38-.34,15.35-2,19-.34,23.6,7.42,10.8-8.09,13.65-26,.28-26.63-2-4.05-11.37-1.35-16.49,3.71-18.48-1.35-26.16-1.69-19.61,3-21,25.09-13.53,25.09-13.53-7.55,13.11.55,16A14.69,14.69,0,0,1,422.7,752.47Z" transform="translate(-37.44 -49.53)" fill="#575a88"/><path d="M593.2,679.73S562,701.38,548.44,707.24s-58.7,27.15-58.7,27.15-45.48,5.87-52.82,15.41-17.61,20.55-17.61,20.55l-8.07-44.76s89.51-46.23,90.24-49.53,26.42-13.21-48.42-12.84c-65.58.33-89.75,4.59-95.23-4.48a10,10,0,0,1-1.26-4.69c-.74-15,88.05-81.45,88.05-81.45s4.34,2.26,9.52,5.3c5.68,3.32,12.36,7.59,15.43,10.85,5.87,6.23,20.17,8.07,20.17,8.07L577.06,624s25.68,8.07,26.41,30.82S593.2,679.73,593.2,679.73Z" transform="translate(-37.44 -49.53)" fill="#aac9f5"/><path d="M603.47,654.79C602.74,632,577.06,624,577.06,624l-87.32-27.15s-14.3-1.84-20.17-8.07c-3.07-3.26-9.75-7.53-15.43-10.85-5.18-3-9.52-5.3-9.52-5.3s-88.79,66.4-88.05,81.45a10,10,0,0,0,1.26,4.69c5.48,9.07,29.65,4.81,95.23,4.48,74.84-.37,49.15,9.54,48.42,12.84s-90.24,49.53-90.24,49.53l.18,1c-4.54,2.68-19.78,11.57-23.79,12.77-4.72,1.43-8.09,13.37-3,21s4,21,1.35,26.16.67,14.21,1.35,16.49,11.12,4.83,26.63,2,9.78-9.1,8.09-13.65-2-17.63.34-23.6a12.78,12.78,0,0,0,.42-1.28c3.65-4,9.48-10.69,14.14-16.74,7.34-9.54,52.82-15.41,52.82-15.41s45.13-21.27,58.7-27.15,44.76-27.51,44.76-27.51S604.21,677.52,603.47,654.79Zm-190.2,87c-6.07-2.14-3.35-10.05-1.61-13.87l2.57,14.26C413.92,742.08,413.61,741.94,413.27,741.82Z" transform="translate(-37.44 -49.53)" opacity="0.1"/><path d="M479.84,677.35s25.31,96.85,27.33,105.1,2,23.3,2,23.3,9.54-.55,10.82-2-5-29.53-5-29.53l1.83-78.51-26.78-22.56Z" transform="translate(-37.44 -49.53)" fill="#d5838e"/><rect x="376.42" y="679.95" width="19.81" height="17.06" fill="#ffccd0"/><path d="M428.2,752.47s2,9.38-.34,15.35-2,19-.33,23.6,7.41,10.8-8.1,13.65-26,.28-26.63-2-4.05-11.37-1.35-16.49,3.71-18.48-1.35-26.16-1.68-19.61,3-21,25.08-13.53,25.08-13.53-7.54,13.11.55,16A14.69,14.69,0,0,1,428.2,752.47Z" transform="translate(-37.44 -49.53)" fill="#575a88"/><path d="M447.19,564s47.87,14.49,53.56,17.06,25.13,11.56,21.83,23.66-30.27,13.4-30.27,13.4l-41.09-15.23-16.14-32.65Z" transform="translate(-37.44 -49.53)" fill="#575a88"/><path d="M462.78,396s-2.36,3.67-5.56,9.29c-.26.46-.54.94-.81,1.44-8.75,15.57-22.49,43.59-13.72,52.55,12.39,12.66-28.34-7.15-28.34-7.15l-1-1.79-16.63-30.13s13.07-13.2,20.94-24.78c.13-.18.26-.37.38-.56,3.51-5.25,5.88-10.11,5.37-13.18s3.36-2.84,8.87-.9C443.93,384.82,462.78,396,462.78,396Z" transform="translate(-37.44 -49.53)" fill="#cd828d"/><path d="M462.78,396s-2.36,3.67-5.56,9.29c-.26.46-.54.94-.81,1.44a32,32,0,0,1-18.19,1.93,32.07,32.07,0,0,1-20.16-12.69c-.13-.17-.25-.35-.38-.54.13-.18.26-.37.38-.56,3.51-5.25,5.88-10.11,5.37-13.18s3.36-2.84,8.87-.9C443.93,384.82,462.78,396,462.78,396Z" transform="translate(-37.44 -49.53)" opacity="0.1"/><path d="M476.26,375.87a32.19,32.19,0,0,1-32.19,32.19,31.44,31.44,0,0,1-5.85-.54,32.18,32.18,0,1,1,38-31.65Z" transform="translate(-37.44 -49.53)" fill="#cd828d"/><path d="M468.18,354.56c-1.94.65-3.22,2-5,3-3.11,1.76-7.24,1.71-10.2,3.43-2.45,1.42-2.45,4.4-3.5,6.76-2.75,6.17-12.69,7.75-17.18,13a10.47,10.47,0,0,0-1,1.39c-2.44,4.12-1,9.08.9,13.42a108.86,108.86,0,0,0,6,12c.4.69.81,1.37,1.23,2.05,2.44,4,5.26,8.41,3.76,12.72-2.44,7-14.38,8.63-17.86,15.33-1,2-1.19,4.23-2.28,6.19-1.83,3.32-5.6,5-9.7,6.49l-16.63-30.13s13.5-13.63,21.32-25.34a32.18,32.18,0,0,1,50.12-40.27Z" transform="translate(-37.44 -49.53)" opacity="0.1"/><path d="M478.75,347.74c-1.74-2-4.48-3.32-5.75-5.55a17.8,17.8,0,0,1-1.31-4.26,15.19,15.19,0,0,0-9.3-9.6,19.66,19.66,0,0,0-14.62.32c-2.16,1-4.07,2.3-6.31,3.11-4.65,1.66-10,.75-14.78-.58s-9.57-3.09-14.62-3.06-10.53,2.52-11.52,6.72a30,30,0,0,0-.32,3.42c-.6,5.08-5.25,9.18-10.29,12s-10.74,4.75-15.41,8-8.32,8.28-7.06,13.28c.78,3.11,3.29,5.65,5.3,8.34,5.07,6.79,7.1,14.85,9,22.73.68,2.74,1.36,5.58.7,8.33-1.18,4.95-6.29,8.39-9.63,12.57-4.14,5.2-5.55,11.7-5.25,18s2.17,12.41,4.1,18.48a23,23,0,0,0,2.82,6.41c2.43,3.47,6.61,5.75,10.64,7.89a12.48,12.48,0,0,0,5.88,1.94c4.43-.06,7-4.26,7.95-7.93a31.13,31.13,0,0,0,.91-9.31,6.78,6.78,0,0,1,.31-3.32,6.29,6.29,0,0,1,2.56-2.44c6.33-3.8,15.9-4.47,19.18-10.43,1.08-2,1.25-4.2,2.28-6.18,3.47-6.71,15.41-8.31,17.86-15.34,1.5-4.31-1.32-8.74-3.76-12.73a105.57,105.57,0,0,1-7.25-14c-1.85-4.34-3.35-9.3-.91-13.42,3.78-6.39,15.21-7.68,18.19-14.37,1.05-2.35,1.05-5.34,3.5-6.76,3-1.71,7.09-1.68,10.2-3.43,2-1.15,3.4-2.75,5.86-3.27,3.21-.67,7.66,1.91,10.39.55C480.74,352.56,480.17,349.36,478.75,347.74Z" transform="translate(-37.44 -49.53)" fill="#663d5c"/><path d="M478.39,347.74c-1.74-2-4.49-3.32-5.76-5.55a18.75,18.75,0,0,1-1.31-4.26,15,15,0,0,0-8.41-9.2,14,14,0,0,1,4.38,6.63,18.09,18.09,0,0,0,1.3,4.26c1.27,2.23,4,3.56,5.76,5.55,1.42,1.62,2,4.83-.43,6-2.72,1.36-7.17-1.21-10.38-.54-2.46.51-3.83,2.11-5.86,3.26-3.11,1.76-7.24,1.72-10.2,3.44-2.45,1.41-2.45,4.4-3.5,6.75-3,6.69-14.41,8-18.2,14.37-2.44,4.12-.93,9.09.92,13.42a107.46,107.46,0,0,0,7.24,14c2.45,4,5.26,8.41,3.77,12.72-2.45,7-14.39,8.63-17.87,15.34-1,2-1.19,4.22-2.27,6.18-3.29,6-12.86,6.64-19.18,10.43a6.29,6.29,0,0,0-2.56,2.44,6.67,6.67,0,0,0-.31,3.32,31.13,31.13,0,0,1-.91,9.31c-.93,3.68-3.53,7.87-7.95,7.93a12.52,12.52,0,0,1-5.89-1.94c-.88-.47-1.78-.95-2.66-1.45a54.5,54.5,0,0,0,6.7,4,12.48,12.48,0,0,0,5.89,1.94c4.42-.06,7-4.26,7.95-7.93a31.12,31.12,0,0,0,.9-9.31,6.78,6.78,0,0,1,.32-3.32,6.27,6.27,0,0,1,2.55-2.44c6.33-3.8,15.9-4.47,19.19-10.43,1.08-2,1.24-4.2,2.27-6.18,3.48-6.71,15.42-8.31,17.86-15.34,1.5-4.31-1.31-8.74-3.76-12.73a106.78,106.78,0,0,1-7.25-14c-1.85-4.34-3.35-9.3-.91-13.42,3.79-6.39,15.21-7.68,18.19-14.37,1.05-2.35,1.06-5.34,3.5-6.76,3-1.71,7.09-1.68,10.2-3.43,2-1.15,3.4-2.75,5.86-3.27,3.21-.67,7.66,1.91,10.39.55C480.37,352.56,479.8,349.36,478.39,347.74Z" transform="translate(-37.44 -49.53)" opacity="0.1"/><path d="M831.48,495.75s5,21,16,32.09l4.41-9.58-5.51-17.47Z" transform="translate(-37.44 -49.53)" fill="#f26383"/><path d="M846.34,500.79l-14.86-5s5,21,16,32.09" transform="translate(-37.44 -49.53)" opacity="0.1"/><path d="M1026.1,545.83l-.16.13a10.49,10.49,0,0,1-14.31-1.31l-42-47.13-1.09-1.22,22-25.32,4,2.57.9,1.62c3.44,6.05,15.57,27.21,19.64,30.66C1019.88,509.87,1031.61,541.42,1026.1,545.83Z" transform="translate(-37.44 -49.53)" fill="#ffc1c7"/><path d="M614.11,681s-11.28,11.56-19,12.66-14,25.87-3.3,27.79,31.36-5.78,34.39-9.08,14-22.84,14-22.84Z" transform="translate(-37.44 -49.53)" fill="#ffd6db"/><path d="M850.56,518.67l-5.48,3.1c-8.46,4.7-23.91,13.13-25.89,12.86-2.75-.36-3.3-26.22-3.3-26.22l14.63-10.81,1.51-1.13,4.41-1.65Z" transform="translate(-37.44 -49.53)" fill="#ffc1c7"/><path d="M850.56,518.67l-5.48,3.1a33.59,33.59,0,0,0-14.56-24.17l1.51-1.13,4.41-1.65Z" transform="translate(-37.44 -49.53)" opacity="0.1"/><path d="M881.56,488.59,864.5,519l-11.81,6.09-5.25,2.71c1.47-22.92-16-32.09-16-32.09,4.77-1,34.23-27.39,38.55-31.27l.53-.47,4-.55Z" transform="translate(-37.44 -49.53)" fill="#1c3ed3"/><path d="M935.31,652.76l-14.49-11,47.32-157,16.7,6.24-12.66,24.94L958.24,593.7S950,649.1,935.31,652.76Z" transform="translate(-37.44 -49.53)" fill="#e4aab4"/><path d="M991.62,467.68l-49.89-.37s-43.66,12.11-40-5.5c2.29-11-3.15-24.74-7.57-33.49-.53-1.06-1-2.06-1.55-3-1.91-3.54-3.35-5.73-3.35-5.73s5.19-.86,11.74-1.78c3-.44,6.38-.88,9.62-1.27h0c1.7-.21,3.36-.38,4.93-.55,6.42-.63,11.47-.78,11.47.3s1,3.67,2.62,7c.25.53.54,1.08.82,1.63a71.67,71.67,0,0,0,7.9,12.11,29,29,0,0,0,5.54,5.34,18.06,18.06,0,0,0,2.33,1.37,14,14,0,0,0,3.88,1.25c5.57.94,10.69-1.49,18,.68C978.05,448.6,991.62,467.68,991.62,467.68Z" transform="translate(-37.44 -49.53)" fill="#ffc1c7"/><path d="M728,590.58s-42,23.11-44.58,32.28,6.24,16.51,6.24,16.51,1.47,7.89,2,13.76,7.33,62.92,10.45,67.69.55,22.75.55,22.75H712.8l-.73-27.52s-11.38-80.89-1.84-89.15,17.43-17.61,20.18-16.88S728,590.58,728,590.58Z" transform="translate(-37.44 -49.53)" fill="#e4aab4"/><path d="M676.3,557.75s-27.52,52.55-28.07,59.7-23.94,37.42-23.94,37.42l29.17,36.87s3.85-9.35,10.46-12.65,5.22-10.73,5.22-10.73,6.88,0,11.84-8.26,11-16.51,11-20.08,36.32-41,36.32-41l-2.75-39.9-7.43-12.66Z" transform="translate(-37.44 -49.53)" fill="#bdd2e8"/><path d="M604.76,560.77l-.24.21c-3.34,3-40.76,36.15-40.76,36.94s-13.48,23.11,3.3,42.37,55.31,50.9,55.31,50.9,16.78,12.11,19,14.59,35.5,0,15.69-22.56-38.52-47.88-38.52-47.88,33-8,35.22-13.48-43.48-74.3-43.48-74.3Z" transform="translate(-37.44 -49.53)" opacity="0.1"/><path d="M603.66,560.77l-.24.21c-3.34,3-40.76,36.15-40.76,36.94S549.18,621,566,640.29s55.31,50.9,55.31,50.9,16.78,12.11,19,14.59,35.5,0,15.69-22.56-38.52-47.88-38.52-47.88,33-8,35.21-13.48,45.68-72.92,45.68-72.92l-89.15-1.38Z" transform="translate(-37.44 -49.53)" fill="#bdd2e8"/><path d="M698.86,412.74l-3.3,30s-33.85,13.48-34.67,13.21-22.56-19.81-19-32.74c1.8-6.49,2.62-15.48,3-22.82s.31-12.95.31-12.95,49.25-17.61,44.85-5.51c-1.6,4.39-.88,9.67.69,14.59A67.88,67.88,0,0,0,698.86,412.74Z" transform="translate(-37.44 -49.53)" fill="#cf6f80"/><path d="M397.84,350.28l-.07.18a156.68,156.68,0,0,0-9.3,25.59l-.3,1.17a62.7,62.7,0,0,0-2.06,18c.67,13.12,7.33,16.15,7.33,16.15s-100.7-16.5-84.2-19.26c2.66-.44,5.56-2.09,8.58-4.54,5.67-4.62,11.72-12.12,17.12-19.82,2-2.84,3.93-5.72,5.69-8.47.12-.18.25-.37.36-.55,6.58-10.26,11.18-18.9,11.18-18.9S421.51,298,397.84,350.28Z" transform="translate(-37.44 -49.53)" fill="#ffccd0"/><path d="M896.79,672s25.31,96.85,27.33,105.1,2,23.3,2,23.3,9.53-.55,10.82-2-5-29.53-5-29.53l1.83-78.51-26.78-22.56Z" transform="translate(-37.44 -49.53)" fill="#d5838e"/><path d="M911.64,641.21c.56,0,25.32.55,25.32.55l1.83,17.43s-.73,33,1.1,38,18.16,94.65,18.16,94.65,5.14,31.55,4.77,39.25l-11.92,2.57s2.38-6.79-1.1-19.44-10.27-36.32-10.27-36.32L930.91,739s-1.47-69-54.48-66S820.48,714,820.48,714s-18,74.29-21.1,83.47-4.77,31.73-4.77,31.73l-12.1-1.1,4-60,11.19-123.46,34.49-2.38Z" transform="translate(-37.44 -49.53)" fill="#e4aab4"/><path d="M377.24,688s-25.31,96.86-27.33,105.11-2,23.3-2,23.3-9.54-.55-10.82-2S342,784.84,342,784.84l-1.83-78.51L367,683.77Z" transform="translate(-37.44 -49.53)" fill="#d5838e"/><path d="M362.38,657.17c-.55,0-25.31.55-25.31.55l-1.84,17.42s.74,33-1.1,38S316,807.77,316,807.77s-5.13,31.55-4.77,39.25l11.93,2.57s-2.39-6.79,1.1-19.44,10.27-36.32,10.27-36.32l8.62-38.89s1.47-69,54.48-66S453.55,730,453.55,730s18,74.29,21.09,83.46,4.77,31.74,4.77,31.74l12.11-1.1-4-60L476.29,660.65l-34.48-2.38Z" transform="translate(-37.44 -49.53)" fill="#e4aab4"/><path d="M690.75,396.51c-.3.35-.61.68-.91,1a33,33,0,0,1-44.94,2.86c.37-7.29.31-12.95.31-12.95s49.25-17.61,44.85-5.51C688.46,386.31,689.18,391.59,690.75,396.51Z" transform="translate(-37.44 -49.53)" opacity="0.1"/><path d="M698.86,373.76a33,33,0,1,1-33-33A32.82,32.82,0,0,1,698.86,373.76Z" transform="translate(-37.44 -49.53)" fill="#cf6f80"/><path d="M598.7,679.73s-31.18,21.65-44.76,27.51-58.69,27.15-58.69,27.15-45.49,5.87-52.83,15.41-17.61,20.55-17.61,20.55l-8.07-44.76s89.51-46.23,90.25-49.53,26.42-13.21-48.43-12.84c-65.58.33-89.75,4.59-95.23-4.48a10,10,0,0,1-1.26-4.69c-.73-15,88.05-81.45,88.05-81.45s4.34,2.26,9.52,5.3c5.68,3.32,12.36,7.59,15.43,10.85,5.87,6.23,20.18,8.07,20.18,8.07L582.56,624S608.25,632,609,654.79,598.7,679.73,598.7,679.73Z" transform="translate(-37.44 -49.53)" fill="#aac9f5"/><path d="M658.14,443.88s-12.93-28.66-17.34-28.66-11.28,148.25-11.28,148.25l67.41,1.06,2.76-77.84-13.76-69S673.55,444.94,658.14,443.88Z" transform="translate(-37.44 -49.53)" opacity="0.1"/><path d="M658.14,446.08s-12.93-28.66-17.34-28.66-11.28,148.25-11.28,148.25L706,566.83l-6.32-77.94-13.76-69S673.55,447.14,658.14,446.08Z" transform="translate(-37.44 -49.53)" opacity="0.1"/><path d="M658.14,445s-12.93-28.66-17.34-28.66-11.28,148.25-11.28,148.25L706,565.72l-6.32-77.93-13.76-69S673.55,446,658.14,445Z" transform="translate(-37.44 -49.53)" fill="#ffd6db"/><path d="M645.59,407.32s-2.31-3.38-5.61-2.28-5.78-1.93-9.08,1.1-16.51,7.15-19,5.77-11.28,4.68-13.21,8.26-8.25,13.21-8.25,13.21-5.5,6.6-4.68,10.18-1.92,7.7-5.23,9.35-9.9,18.16-9.9,18.16-7.15,15.14-14.58,19-1.93,20.63-1.93,20.63l44-1.37,9.91-22.56s-3.85,66-8.53,72.09-5.23,9.9-5.23,9.9,18.16,3.85,22,7.16,14-.83,14-.83l9.9-87.77s3.58-16.51,3.58-25S645.59,407.32,645.59,407.32Z" transform="translate(-37.44 -49.53)" opacity="0.1"/><path d="M644.49,407.32s-2.31-3.38-5.61-2.28-5.78-1.93-9.08,1.1-16.51,7.15-19,5.77-11.28,4.68-13.21,8.26-8.25,13.21-8.25,13.21-5.5,6.6-4.68,10.18-1.92,7.7-5.23,9.35-9.9,18.16-9.9,18.16-7.16,15.14-14.58,19S553,510.69,553,510.69l44-1.37L607,486.76s-3.85,66-8.53,72.09-5.23,9.9-5.23,9.9,18.16,3.85,22,7.16,14-.83,14-.83l9.9-87.77s3.58-16.51,3.58-25S644.49,407.32,644.49,407.32Z" transform="translate(-37.44 -49.53)" fill="#575a89"/><path d="M583.85,455.11s3.3,9.08,12.38,8.26S583.85,455.11,583.85,455.11Z" transform="translate(-37.44 -49.53)" opacity="0.1"/><path d="M592.65,441.36s6.05,1.1,8.26,6.32S592.65,441.36,592.65,441.36Z" transform="translate(-37.44 -49.53)" opacity="0.1"/><path d="M609.71,432c0,1.1,3.85,20.36,0,28.34s-3.3,17.34-3.3,17.34Z" transform="translate(-37.44 -49.53)" opacity="0.1"/><path d="M690.93,400.69s2.15-2.53,4.35-2.26,3.58,1.65,6.33,2.75,9.36,1.38,9.36,2.2,5.78,4.13,9.63,5,16,9.08,19,25S747.84,454,747.84,454l-29.17,14.31S741.23,564.07,744,571s3,47.6,3,47.6-17.88,8-22.56,10.46-2.75-23.66-12.38-38.8-20.64-37.14-20.64-37.14L674.65,506s-10.73-62.74-1.65-74.29S691.75,404.82,690.93,400.69Z" transform="translate(-37.44 -49.53)" opacity="0.1"/><path d="M692,400.69s2.15-2.53,4.35-2.26,3.58,1.65,6.33,2.75,9.36,1.38,9.36,2.2,5.78,4.13,9.63,5,16,9.08,19,25S748.94,454,748.94,454l-29.17,14.31S742.33,564.07,745.09,571s3,47.6,3,47.6-17.88,8-22.56,10.46-2.75-23.66-12.38-38.8-20.64-37.14-20.64-37.14L675.75,506S665,443.28,674.1,431.73,692.85,404.82,692,400.69Z" transform="translate(-37.44 -49.53)" fill="#575a89"/><path d="M751.69,521.15c-.81.13-1.85.25-3.05.36-8.81.81-26.12,1-26.12,1s-12.93-25.59-23.93-24.77c0,0,10.18-11.55,14.3-10.18.7.23,1.13-.27,1.33-1.26,1.11-4.91-2.7-21.85-2.7-21.85l-5.23-22.84,30.27,7.43c2.75.55,11.28,4.95,11.28,4.95s.27,11.83,2.47,14.59,4.68,15.95,4.41,19.26,3,18.71-.28,22.83S758.57,520.05,751.69,521.15Z" transform="translate(-37.44 -49.53)" opacity="0.1"/><path d="M752.79,521.15c-.81.13-1.85.25-3,.36-8.81.81-26.12,1-26.12,1s-12.93-25.59-23.93-24.77c0,0,10.18-11.55,14.3-10.18.7.23,1.13-.27,1.34-1.26,1.1-4.91-2.71-21.85-2.71-21.85l-5.23-22.84,30.27,7.43c2.75.55,11.28,4.95,11.28,4.95s.27,11.83,2.47,14.59,4.68,15.95,4.41,19.26,3,18.71-.28,22.83S759.67,520.05,752.79,521.15Z" transform="translate(-37.44 -49.53)" fill="#575a89"/><path d="M721.7,461.17s25.31,2.75,26.41,9.08S721.7,461.17,721.7,461.17Z" transform="translate(-37.44 -49.53)" opacity="0.1"/><path d="M638.6,701.38s-1.65,9.08.28,14.85,1.65,18.44.27,22.84-6,10.46,6.61,13.21,21.18.27,21.73-1.93,3.3-11,1.1-16-3-17.88,1.1-25.31,1.38-19-2.47-20.36-10.46-4.4-10.46-4.4,7.16,12.93.55,15.68S638.6,701.38,638.6,701.38Z" transform="translate(-37.44 -49.53)" fill="#ffd6db"/><path d="M698.86,373.76a32.82,32.82,0,0,1-9,22.66.6.6,0,0,1-.08-.16c-1-2.09-1.92-4.27-1.84-6.56.09-2.77,1.68-5.27,2.2-8,.65-3.45-.48-7-1.59-10.3-.82-2.44-2.39-5.4-4.95-5.11a5.62,5.62,0,0,1-1.51.18c-1.37-.21-1.64-2-1.8-3.36a15.23,15.23,0,0,0-12.44-13.05,3.81,3.81,0,0,0-2.17.14c-.95.43-1.48,1.47-2.34,2.06-2.79,1.94-6.35-1.77-9.74-1.49-2.88.25-4.64,3.2-5.83,5.84s-2.68,5.64-5.5,6.26a1.72,1.72,0,0,1-1.34-.15c-.88-.64-.27-2,.18-3,1.16-2.62.38-4.7-1-6.56a33,33,0,0,1,58.81,20.61Z" transform="translate(-37.44 -49.53)" opacity="0.1"/><path d="M641.08,358.61c-.44,1-1.05,2.36-.16,3a1.7,1.7,0,0,0,1.33.15c2.82-.61,4.31-3.63,5.5-6.26s3-5.6,5.83-5.84c3.4-.28,6.95,3.42,9.74,1.49.86-.59,1.39-1.63,2.34-2.06a3.9,3.9,0,0,1,2.17-.14A15.24,15.24,0,0,1,680.28,362c.14,1.36.42,3.15,1.78,3.36a5.64,5.64,0,0,0,1.52-.18c2.56-.29,4.13,2.66,4.94,5.1,1.12,3.34,2.25,6.86,1.6,10.32-.51,2.73-2.11,5.23-2.2,8-.07,2.29.89,4.46,1.84,6.55s2.49,4.52,4.76,4.23c1.86-.24,2.89-2.22,3.78-3.87s2.5-3.43,4.31-2.91c.81.24,1.65.92,2.38.51a1.72,1.72,0,0,0,.69-1.2c.88-3.85-.38-8.17,1.49-11.64,1.44-2.68,4.36-4.12,6.73-6a19.28,19.28,0,0,0,2.61-27.6c-2.54-3-6.19-5.6-6.39-9.49-.16-3,1.84-5.71,1.87-8.69s-1.84-5.48-4-7.45A25.6,25.6,0,0,0,685,315c-2.13.51-4.28,1.3-6.45,1-2.53-.31-4.63-2-6.91-3.15a17.65,17.65,0,0,0-22,6c-2.61,4-3.63,9.35-7.52,12.19-2.56,1.87-6.22,2.57-7.63,5.4-.85,1.7-.61,3.72-.35,5.6a13.07,13.07,0,0,0,4.18,8C640.64,352.46,642.68,355,641.08,358.61Z" transform="translate(-37.44 -49.53)" fill="#512e4e"/><polygon points="571.72 726.69 571.45 780.34 561.54 779.51 525.5 486.48 536.14 486.16 543.66 485.93 571.72 726.69" fill="#ffceb4"/><polygon points="571.45 780.34 561.54 779.51 525.5 486.48 536.14 486.16 535.68 487.85 571.45 780.34" fill="#f8bda5"/><polygon points="619.88 487.03 583.55 777.59 576.75 779.13 571.45 780.34 571.72 726.69 603.64 488.13 604.27 488.08 619.88 487.03" fill="#ffceb4"/><polygon points="576.68 778.97 576.75 779.13 571.45 780.34 571.72 726.69 603.64 488.13 604.27 488.08 610.79 489.5 576.68 778.97" fill="#f8bda5"/><polygon points="702.97 665.88 702.14 684.93 699.94 735.77 665.83 486.75 673.62 485.9 676.01 485.65 702.97 665.88" fill="#f8bda5"/><polygon points="702.97 665.88 702.14 684.93 674.08 488.13 673.62 485.9 676.01 485.65 702.97 665.88" fill="#ffceb4"/><polygon points="712.33 576.45 713.15 697.79 708.55 697.62 698.84 697.24 702.7 484.83 710.1 485.75 713.7 486.2 712.33 576.45" fill="#f8bda5"/><polygon points="712.33 576.45 713.15 697.79 708.55 697.62 710.1 485.75 713.7 486.2 712.33 576.45" fill="#ffceb4"/><polygon points="397.28 484 397.83 475.75 445.15 476.02 587.41 473.82 697.19 479.87 767.08 481.25 767.91 488.95 588.23 492.26 397.28 484" fill="#f8bda5"/><polygon points="397.83 475.75 538.15 481.8 767.08 481.25 595.94 470.79 397.83 475.75" fill="#ffceb4"/><path d="M397.84,350.28l-.07.18a156.68,156.68,0,0,0-9.3,25.59l-.3,1.17a42.15,42.15,0,0,1-11.79,1.68c-10.62,0-15.41-11.14-22.84-17.61-2.92-2.53-10.42,1.77-12.55-1.47a5.21,5.21,0,0,1-.36-.55c.12-.18.25-.37.36-.55,6.58-10.26,11.18-18.9,11.18-18.9S421.51,298,397.84,350.28Z" transform="translate(-37.44 -49.53)" opacity="0.1"/><path d="M418.76,335.42a42.37,42.37,0,1,1-4.41-18.82A42.41,42.41,0,0,1,418.76,335.42Z" transform="translate(-37.44 -49.53)" fill="#ffccd0"/><path d="M393.44,411.36s-100.7-16.5-84.2-19.26c2.66-.44,5.56-2.09,8.58-4.54a7.16,7.16,0,0,1,1.33,2.34l18.71-2.2s23.85-5.14,33.38.74a75.12,75.12,0,0,0,14.87,6.77C386.78,408.33,393.44,411.36,393.44,411.36Z" transform="translate(-37.44 -49.53)" opacity="0.1"/><path d="M459.64,577.9a5.64,5.64,0,0,1-1.81.94c-4.77,1.47-10.65,23.48-10.65,23.48S386.06,661,363.33,658.74a10,10,0,0,1-1.26-4.69c-.73-15,88.05-81.45,88.05-81.45S454.46,574.86,459.64,577.9Z" transform="translate(-37.44 -49.53)" opacity="0.1"/><path d="M620.48,516.15c0,5.57-9.74,11.14-21.76,11.14S577,521.72,577,516.15s9.74-9,21.75-9S620.48,510.58,620.48,516.15Z" transform="translate(-37.44 -49.53)" fill="#e8eaf2"/><path d="M620.48,516.15c0,5.57-9.74,11.14-21.76,11.14S577,521.72,577,516.15s9.74-9,21.75-9S620.48,510.58,620.48,516.15Z" transform="translate(-37.44 -49.53)" opacity="0.1"/><ellipse cx="561.29" cy="466.62" rx="21.75" ry="10.08" fill="#e8eaf2"/><ellipse cx="561.35" cy="467" rx="12.98" ry="5.23" opacity="0.05"/><path d="M628.84,504.39c-.44-2.74-4.05-4.54-8.68-4.64a19.45,19.45,0,0,0-3.67.26c-6.26,1-10.89,4.6-10.34,8,.43,2.7,4,4.5,8.53,4.63a20,20,0,0,0,3.81-.25C624.76,511.41,629.39,507.81,628.84,504.39Zm-10.63,6.27a13.74,13.74,0,0,1-2,.18c-3.62.1-6.53-1.23-6.87-3.32-.39-2.46,2.93-5,7.42-5.76a14.28,14.28,0,0,1,3.23-.16c3,.21,5.32,1.46,5.61,3.3C626,507.36,622.7,509.94,618.21,510.66Z" transform="translate(-37.44 -49.53)" fill="#f1cec8"/><path d="M609.18,515.64a2.31,2.31,0,0,1-.53,1.43c-1.36,1.79-5.18,3.08-9.69,3.08-4.2,0-7.81-1.11-9.39-2.71a2.59,2.59,0,0,1-.84-1.8c0-2.5,4.58-4.52,10.23-4.52S609.18,513.14,609.18,515.64Z" transform="translate(-37.44 -49.53)" fill="#f1cec8"/><path d="M609.18,515.64a2.31,2.31,0,0,1-.53,1.43,19.63,19.63,0,0,1-8.7,2H597.5a19.78,19.78,0,0,1-7.93-1.65,2.59,2.59,0,0,1-.84-1.8c0-2.5,4.58-4.52,10.23-4.52S609.18,513.14,609.18,515.64Z" transform="translate(-37.44 -49.53)" opacity="0.1"/><path d="M620.16,499.75c0,.62-.07,1.24-.15,1.85a14.28,14.28,0,0,0-3.23.16c-4.49.73-7.81,3.3-7.42,5.76.34,2.09,3.25,3.42,6.87,3.32a20.81,20.81,0,0,1-1.55,1.83c-4.56-.13-8.1-1.93-8.53-4.63-.55-3.43,4.08-7,10.34-8A19.45,19.45,0,0,1,620.16,499.75Z" transform="translate(-37.44 -49.53)" opacity="0.1"/><path d="M577.74,496.18V499a19.76,19.76,0,0,0,19.76,19.76H600A19.76,19.76,0,0,0,619.71,499v-2.82Z" transform="translate(-37.44 -49.53)" fill="#f1cec8"/><ellipse cx="561.19" cy="446.03" rx="21.09" ry="6" fill="#f6e2df"/><ellipse cx="561.29" cy="445.65" rx="19.99" ry="5.42" opacity="0.1"/><ellipse cx="561.35" cy="445.45" rx="19.53" ry="5.42" fill="#fdf9f9"/><path d="M584.51,496.42a.55.55,0,1,1,.55-.54A.55.55,0,0,1,584.51,496.42Zm0-.89a.35.35,0,0,0-.35.35.35.35,0,1,0,.7,0A.35.35,0,0,0,584.51,495.53Z" transform="translate(-37.44 -49.53)" fill="#42312e" opacity="0.3"/><path d="M585.15,495.27a.55.55,0,1,1,.54-.55A.55.55,0,0,1,585.15,495.27Zm0-.9a.35.35,0,1,0,.34.35A.35.35,0,0,0,585.15,494.37Z" transform="translate(-37.44 -49.53)" fill="#42312e" opacity="0.3"/><path d="M584.51,493.52a.55.55,0,1,1,.55-.55A.55.55,0,0,1,584.51,493.52Zm0-.9a.35.35,0,1,0,.35.35A.35.35,0,0,0,584.51,492.62Z" transform="translate(-37.44 -49.53)" fill="#42312e" opacity="0.3"/><path d="M588.55,497.6a.55.55,0,1,1,.54-.55A.55.55,0,0,1,588.55,497.6Zm0-.9a.34.34,0,0,0-.35.35.35.35,0,1,0,.69,0A.34.34,0,0,0,588.55,496.7Z" transform="translate(-37.44 -49.53)" fill="#42312e" opacity="0.3"/><path d="M604.74,496.52a.55.55,0,1,1,0-1.1.55.55,0,0,1,0,1.1Zm0-.9a.35.35,0,1,0,0,.7.35.35,0,1,0,0-.7Z" transform="translate(-37.44 -49.53)" fill="#42312e" opacity="0.3"/><path d="M608.34,497.94a.55.55,0,1,1,.55-.55A.55.55,0,0,1,608.34,497.94Zm0-.9a.35.35,0,0,0-.35.35.35.35,0,0,0,.7,0A.35.35,0,0,0,608.34,497Z" transform="translate(-37.44 -49.53)" fill="#42312e" opacity="0.3"/><path d="M608.46,495.62a.55.55,0,1,1,.55-.55A.55.55,0,0,1,608.46,495.62Zm0-.9a.35.35,0,1,0,.35.35A.35.35,0,0,0,608.46,494.72Z" transform="translate(-37.44 -49.53)" fill="#42312e" opacity="0.3"/><path d="M610.16,491.92a.55.55,0,1,1,.55-.55A.54.54,0,0,1,610.16,491.92Zm0-.9a.35.35,0,0,0-.34.35.35.35,0,1,0,.69,0A.35.35,0,0,0,610.16,491Z" transform="translate(-37.44 -49.53)" fill="#42312e" opacity="0.3"/><path d="M609.33,497a.55.55,0,1,1,.55-.54A.55.55,0,0,1,609.33,497Zm0-.89a.35.35,0,1,0,.35.35A.35.35,0,0,0,609.33,496.08Z" transform="translate(-37.44 -49.53)" fill="#42312e" opacity="0.3"/><path d="M611.33,495.88a.55.55,0,1,1,.54-.55A.55.55,0,0,1,611.33,495.88Zm0-.9a.35.35,0,1,0,.34.35A.35.35,0,0,0,611.33,495Z" transform="translate(-37.44 -49.53)" fill="#42312e" opacity="0.3"/><path d="M611.13,497.17a.55.55,0,1,1,.54-.55A.54.54,0,0,1,611.13,497.17Zm0-.89a.35.35,0,1,0,0,.69.35.35,0,1,0,0-.69Z" transform="translate(-37.44 -49.53)" fill="#42312e" opacity="0.3"/><path d="M610.51,493.87a.55.55,0,1,1,.55-.55A.55.55,0,0,1,610.51,493.87Zm0-.9a.35.35,0,1,0,.35.35A.35.35,0,0,0,610.51,493Z" transform="translate(-37.44 -49.53)" fill="#42312e" opacity="0.3"/><path d="M613.51,493.17a.55.55,0,1,1,.55-.55A.55.55,0,0,1,613.51,493.17Zm0-.9a.35.35,0,1,0,.35.35A.35.35,0,0,0,613.51,492.27Z" transform="translate(-37.44 -49.53)" fill="#42312e" opacity="0.3"/><path d="M604.74,491.85a.55.55,0,1,1,0-1.1.55.55,0,0,1,0,1.1Zm0-.9a.35.35,0,1,0,0,.7.35.35,0,1,0,0-.7Z" transform="translate(-37.44 -49.53)" fill="#42312e" opacity="0.3"/><path d="M602.66,491a.55.55,0,1,1,.55-.55A.55.55,0,0,1,602.66,491Zm0-.89a.35.35,0,1,0,.35.34A.35.35,0,0,0,602.66,490.06Z" transform="translate(-37.44 -49.53)" fill="#42312e" opacity="0.3"/><path d="M598.08,491.3a.55.55,0,1,1,.54-.55A.55.55,0,0,1,598.08,491.3Zm0-.9a.35.35,0,1,0,.34.35A.35.35,0,0,0,598.08,490.4Z" transform="translate(-37.44 -49.53)" fill="#42312e" opacity="0.3"/><path d="M602,496.7a.55.55,0,1,1,.54-.55A.55.55,0,0,1,602,496.7Zm0-.9a.35.35,0,1,0,0,.7.35.35,0,0,0,0-.7Z" transform="translate(-37.44 -49.53)" fill="#42312e" opacity="0.3"/><path d="M587.13,497.25a.55.55,0,1,1,.55-.55A.55.55,0,0,1,587.13,497.25Zm0-.9a.35.35,0,1,0,.35.35A.35.35,0,0,0,587.13,496.35Z" transform="translate(-37.44 -49.53)" fill="#42312e" opacity="0.3"/><path d="M589.44,496a.55.55,0,1,1,.55-.55A.55.55,0,0,1,589.44,496Zm0-.9a.35.35,0,1,0,.35.35A.35.35,0,0,0,589.44,495.07Z" transform="translate(-37.44 -49.53)" fill="#42312e" opacity="0.3"/><path d="M591.41,496.62a.55.55,0,1,1,.55-.54A.55.55,0,0,1,591.41,496.62Zm0-.89a.35.35,0,0,0-.35.35.35.35,0,0,0,.7,0A.35.35,0,0,0,591.41,495.73Z" transform="translate(-37.44 -49.53)" fill="#42312e" opacity="0.3"/><path d="M591.76,495.25a.55.55,0,1,1,.55-.54A.55.55,0,0,1,591.76,495.25Zm0-.89a.35.35,0,0,0-.35.35.35.35,0,1,0,.7,0A.35.35,0,0,0,591.76,494.36Z" transform="translate(-37.44 -49.53)" fill="#42312e" opacity="0.3"/><path d="M591.77,494a.55.55,0,1,1,.55-.54A.55.55,0,0,1,591.77,494Zm0-.89a.35.35,0,1,0,.35.35A.35.35,0,0,0,591.77,493.14Z" transform="translate(-37.44 -49.53)" fill="#42312e" opacity="0.3"/><path d="M592.32,498.38a.55.55,0,1,1,.55-.55A.55.55,0,0,1,592.32,498.38Zm0-.9a.35.35,0,1,0,.35.35A.35.35,0,0,0,592.32,497.48Z" transform="translate(-37.44 -49.53)" fill="#42312e" opacity="0.3"/><path d="M597.79,498.51a.55.55,0,1,1,.54-.55A.55.55,0,0,1,597.79,498.51Zm0-.9a.35.35,0,1,0,.34.35A.35.35,0,0,0,597.79,497.61Z" transform="translate(-37.44 -49.53)" fill="#42312e" opacity="0.3"/><path d="M597.1,497.17a.55.55,0,1,1,.55-.55A.55.55,0,0,1,597.1,497.17Zm0-.89a.35.35,0,1,0,.35.34A.35.35,0,0,0,597.1,496.28Z" transform="translate(-37.44 -49.53)" fill="#42312e" opacity="0.3"/><path d="M594.35,496.52a.55.55,0,1,1,.54-.55A.55.55,0,0,1,594.35,496.52Zm0-.9a.35.35,0,1,0,0,.7.35.35,0,1,0,0-.7Z" transform="translate(-37.44 -49.53)" fill="#42312e" opacity="0.3"/><path d="M600.22,494.36a.55.55,0,1,1,.55-.55A.55.55,0,0,1,600.22,494.36Zm0-.9a.35.35,0,1,0,.35.35A.35.35,0,0,0,600.22,493.46Z" transform="translate(-37.44 -49.53)" fill="#42312e" opacity="0.3"/><path d="M597.73,495.88a.55.55,0,1,1,.55-.55A.55.55,0,0,1,597.73,495.88Zm0-.9a.35.35,0,1,0,.35.35A.35.35,0,0,0,597.73,495Z" transform="translate(-37.44 -49.53)" fill="#42312e" opacity="0.3"/><path d="M600.63,492.78a.55.55,0,1,1,.55-.55A.55.55,0,0,1,600.63,492.78Zm0-.9a.35.35,0,1,0,.35.35A.35.35,0,0,0,600.63,491.88Z" transform="translate(-37.44 -49.53)" fill="#42312e" opacity="0.3"/><path d="M600.42,491.29a.55.55,0,1,1,.55-.55A.55.55,0,0,1,600.42,491.29Zm0-.9a.35.35,0,1,0,.35.35A.35.35,0,0,0,600.42,490.39Z" transform="translate(-37.44 -49.53)" fill="#42312e" opacity="0.3"/><path d="M599.27,492.82a.55.55,0,1,1,.55-.55A.55.55,0,0,1,599.27,492.82Zm0-.9a.35.35,0,1,0,.35.35A.35.35,0,0,0,599.27,491.92Z" transform="translate(-37.44 -49.53)" fill="#42312e" opacity="0.3"/><path d="M596.45,495.4a.55.55,0,1,1,.55-.54A.54.54,0,0,1,596.45,495.4Zm0-.89a.35.35,0,1,0,0,.69.35.35,0,1,0,0-.69Z" transform="translate(-37.44 -49.53)" fill="#42312e" opacity="0.3"/><path d="M594.35,495a.55.55,0,1,1,.54-.55A.54.54,0,0,1,594.35,495Zm0-.89a.35.35,0,1,0,0,.69.35.35,0,1,0,0-.69Z" transform="translate(-37.44 -49.53)" fill="#42312e" opacity="0.3"/><path d="M597.1,492.43a.55.55,0,1,1,.55-.55A.55.55,0,0,1,597.1,492.43Zm0-.9a.35.35,0,1,0,.35.35A.35.35,0,0,0,597.1,491.53Z" transform="translate(-37.44 -49.53)" fill="#42312e" opacity="0.3"/><path d="M593.06,493a.35.35,0,1,1,.35-.35A.35.35,0,0,1,593.06,493Zm0-.57a.22.22,0,1,0,0,.44.22.22,0,1,0,0-.44Z" transform="translate(-37.44 -49.53)" fill="#42312e" opacity="0.3"/><path d="M594.12,493.67a.35.35,0,1,1,.35-.35A.35.35,0,0,1,594.12,493.67Zm0-.57a.22.22,0,0,0,0,.44.22.22,0,1,0,0-.44Z" transform="translate(-37.44 -49.53)" fill="#42312e" opacity="0.3"/><path d="M599.32,490.87a.35.35,0,1,1,.35-.35A.35.35,0,0,1,599.32,490.87Zm0-.57a.22.22,0,1,0,.22.22A.22.22,0,0,0,599.32,490.3Z" transform="translate(-37.44 -49.53)" fill="#42312e" opacity="0.3"/><path d="M600.08,496.72a.35.35,0,1,1,.35-.35A.35.35,0,0,1,600.08,496.72Zm0-.57a.22.22,0,0,0,0,.44.22.22,0,1,0,0-.44Z" transform="translate(-37.44 -49.53)" fill="#42312e" opacity="0.3"/><path d="M601,497.13a.35.35,0,1,1,.35-.35A.35.35,0,0,1,601,497.13Zm0-.57a.22.22,0,0,0-.22.22.22.22,0,1,0,.44,0A.22.22,0,0,0,601,496.56Z" transform="translate(-37.44 -49.53)" fill="#42312e" opacity="0.3"/><path d="M599.88,495.75a.35.35,0,0,1-.35-.35.35.35,0,1,1,.7,0A.35.35,0,0,1,599.88,495.75Zm0-.57a.22.22,0,0,0-.22.22.22.22,0,1,0,.44,0A.22.22,0,0,0,599.88,495.18Z" transform="translate(-37.44 -49.53)" fill="#42312e" opacity="0.3"/><path d="M606.71,492.5a.35.35,0,1,1,.35-.34A.35.35,0,0,1,606.71,492.5Zm0-.57a.22.22,0,0,0-.22.23.22.22,0,1,0,.44,0A.22.22,0,0,0,606.71,491.93Z" transform="translate(-37.44 -49.53)" fill="#42312e" opacity="0.3"/><path d="M607.14,493.39a.35.35,0,1,1,.34-.35A.35.35,0,0,1,607.14,493.39Zm0-.57a.22.22,0,1,0,0,.44.22.22,0,1,0,0-.44Z" transform="translate(-37.44 -49.53)" fill="#42312e" opacity="0.3"/><path d="M606.79,494.22a.35.35,0,0,1-.35-.35.34.34,0,0,1,.35-.35.35.35,0,0,1,.35.35A.35.35,0,0,1,606.79,494.22Zm0-.57a.21.21,0,0,0-.22.22.22.22,0,0,0,.22.22.22.22,0,0,0,.22-.22A.22.22,0,0,0,606.79,493.65Z" transform="translate(-37.44 -49.53)" fill="#42312e" opacity="0.3"/><path d="M605.88,496.77a.35.35,0,1,1,.35-.34A.35.35,0,0,1,605.88,496.77Zm0-.57a.22.22,0,0,0-.22.23.22.22,0,1,0,.44,0A.22.22,0,0,0,605.88,496.2Z" transform="translate(-37.44 -49.53)" fill="#42312e" opacity="0.3"/><path d="M611.41,494.38a.35.35,0,0,1-.35-.35.35.35,0,1,1,.7,0A.35.35,0,0,1,611.41,494.38Zm0-.57a.22.22,0,0,0-.22.22.22.22,0,1,0,.44,0A.22.22,0,0,0,611.41,493.81Z" transform="translate(-37.44 -49.53)" fill="#42312e" opacity="0.3"/><path d="M603.21,496.5a.35.35,0,1,1,.35-.35A.35.35,0,0,1,603.21,496.5Zm0-.57a.22.22,0,1,0,.22.22A.22.22,0,0,0,603.21,495.93Z" transform="translate(-37.44 -49.53)" fill="#42312e" opacity="0.3"/><path d="M606.1,495.07a.35.35,0,1,1,.35-.35A.35.35,0,0,1,606.1,495.07Zm0-.57a.22.22,0,0,0,0,.44.22.22,0,1,0,0-.44Z" transform="translate(-37.44 -49.53)" fill="#42312e" opacity="0.3"/><path d="M604.94,497.48a.35.35,0,0,1-.35-.35.35.35,0,1,1,.7,0A.35.35,0,0,1,604.94,497.48Zm0-.57a.22.22,0,0,0-.22.22.22.22,0,1,0,.44,0A.22.22,0,0,0,604.94,496.91Z" transform="translate(-37.44 -49.53)" fill="#42312e" opacity="0.3"/><path d="M612.56,495.06a.35.35,0,0,1-.35-.35.35.35,0,1,1,.69,0A.35.35,0,0,1,612.56,495.06Zm0-.58a.23.23,0,1,0,0,.45.22.22,0,0,0,.22-.22A.22.22,0,0,0,612.56,494.48Z" transform="translate(-37.44 -49.53)" fill="#42312e" opacity="0.3"/><path d="M608.12,491.3a.35.35,0,1,1,.34-.35A.35.35,0,0,1,608.12,491.3Zm0-.57a.22.22,0,1,0,0,.44.22.22,0,1,0,0-.44Z" transform="translate(-37.44 -49.53)" fill="#42312e" opacity="0.3"/><path d="M596.32,490.87a.35.35,0,1,1,.35-.35A.35.35,0,0,1,596.32,490.87Zm0-.57a.22.22,0,1,0,.22.22A.22.22,0,0,0,596.32,490.3Z" transform="translate(-37.44 -49.53)" fill="#42312e" opacity="0.3"/><path d="M586.38,493.81a.35.35,0,0,1-.35-.35.35.35,0,1,1,.7,0A.35.35,0,0,1,586.38,493.81Zm0-.57a.22.22,0,0,0-.22.22.22.22,0,0,0,.44,0A.22.22,0,0,0,586.38,493.24Z" transform="translate(-37.44 -49.53)" fill="#42312e" opacity="0.3"/><path d="M595.05,491.3a.35.35,0,1,1,.35-.35A.35.35,0,0,1,595.05,491.3Zm0-.57a.22.22,0,1,0,0,.44.22.22,0,1,0,0-.44Z" transform="translate(-37.44 -49.53)" fill="#42312e" opacity="0.3"/><path d="M587.29,495.42a.35.35,0,1,1,.35-.35A.35.35,0,0,1,587.29,495.42Zm0-.57a.22.22,0,1,0,0,.44.22.22,0,1,0,0-.44Z" transform="translate(-37.44 -49.53)" fill="#42312e" opacity="0.3"/><path d="M588.55,493.32a.35.35,0,1,1,.34-.35A.35.35,0,0,1,588.55,493.32Zm0-.57a.22.22,0,1,0,0,.44.22.22,0,1,0,0-.44Z" transform="translate(-37.44 -49.53)" fill="#42312e" opacity="0.3"/><path d="M582.23,494.76a.35.35,0,1,1,.35-.35A.35.35,0,0,1,582.23,494.76Zm0-.57a.22.22,0,0,0-.22.22.22.22,0,1,0,.44,0A.22.22,0,0,0,582.23,494.19Z" transform="translate(-37.44 -49.53)" fill="#42312e" opacity="0.3"/><path d="M591.06,497.83a.35.35,0,0,1,0-.7.35.35,0,1,1,0,.7Zm0-.57a.22.22,0,1,0,0,.44.22.22,0,1,0,0-.44Z" transform="translate(-37.44 -49.53)" fill="#42312e" opacity="0.3"/><path d="M593.58,498a.35.35,0,1,1,0-.7.35.35,0,0,1,0,.7Zm0-.57a.22.22,0,1,0,0,.44.22.22,0,0,0,0-.44Z" transform="translate(-37.44 -49.53)" fill="#42312e" opacity="0.3"/><circle cx="545.89" cy="446.25" r="0.27" fill="#42312e" opacity="0.3"/><circle cx="547.9" cy="442.39" r="0.27" fill="#42312e" opacity="0.3"/><circle cx="550.67" cy="444.14" r="0.27" fill="#42312e" opacity="0.3"/><circle cx="548.87" cy="441.64" r="0.27" fill="#42312e" opacity="0.3"/><circle cx="558.99" cy="443.51" r="0.27" fill="#42312e" opacity="0.3"/><circle cx="550.24" cy="443.09" r="0.27" fill="#42312e" opacity="0.3"/><circle cx="549.22" cy="442.97" r="0.27" fill="#42312e" opacity="0.3"/><circle cx="551.22" cy="445.05" r="0.27" fill="#42312e" opacity="0.3"/><circle cx="566.42" cy="443.44" r="0.27" fill="#42312e" opacity="0.3"/><circle cx="570.48" cy="444.23" r="0.27" fill="#42312e" opacity="0.3"/><circle cx="569.35" cy="447.72" r="0.27" fill="#42312e" opacity="0.3"/><circle cx="570.9" cy="446.55" r="0.27" fill="#42312e" opacity="0.3"/><circle cx="566.34" cy="447.99" r="0.27" fill="#42312e" opacity="0.3"/><circle cx="565.32" cy="443.41" r="0.27" fill="#42312e" opacity="0.3"/><circle cx="561.94" cy="447.38" r="0.27" fill="#42312e" opacity="0.3"/><circle cx="568.05" cy="444.34" r="0.27" fill="#42312e" opacity="0.3"/><circle cx="565.08" cy="448.26" r="0.27" fill="#42312e" opacity="0.3"/><circle cx="552.83" cy="447.72" r="0.27" fill="#42312e" opacity="0.3"/><circle cx="569.7" cy="445.25" r="0.27" fill="#42312e" opacity="0.3"/><circle cx="576.07" cy="444.78" r="0.27" fill="#42312e" opacity="0.3"/><circle cx="574.24" cy="443.17" r="0.2" fill="#42312e" opacity="0.3"/><circle cx="567.85" cy="442.74" r="0.2" fill="#42312e" opacity="0.3"/><circle cx="555.62" cy="445.25" r="0.2" fill="#42312e" opacity="0.3"/><circle cx="572.44" cy="444.68" r="0.2" fill="#42312e" opacity="0.3"/><circle cx="566.54" cy="442.43" r="0.2" fill="#42312e" opacity="0.3"/><circle cx="571.57" cy="443.38" r="0.2" fill="#42312e" opacity="0.3"/><circle cx="568.53" cy="441.34" r="0.2" fill="#42312e" opacity="0.3"/><circle cx="566.34" cy="440.99" r="0.2" fill="#42312e" opacity="0.3"/><circle cx="556.34" cy="441.97" r="0.2" fill="#42312e" opacity="0.3"/><circle cx="558.54" cy="442.23" r="0.2" fill="#42312e" opacity="0.3"/><circle cx="552.98" cy="444.23" r="0.2" fill="#42312e" opacity="0.3"/><circle cx="564.18" cy="444.34" r="0.2" fill="#42312e" opacity="0.3"/><circle cx="565.47" cy="444.64" r="0.2" fill="#42312e" opacity="0.3"/><circle cx="558.09" cy="444.99" r="0.2" fill="#42312e" opacity="0.3"/><circle cx="561.35" cy="445.34" r="0.2" fill="#42312e" opacity="0.3"/><circle cx="557.84" cy="442.85" r="0.2" fill="#42312e" opacity="0.3"/><circle cx="565.22" cy="445.34" r="0.2" fill="#42312e" opacity="0.3"/><circle cx="564.11" cy="445.54" r="0.2" fill="#42312e" opacity="0.3"/><circle cx="547.07" cy="442.43" r="0.2" fill="#42312e" opacity="0.3"/><circle cx="553.82" cy="443.17" r="0.2" fill="#42312e" opacity="0.3"/><circle cx="551.49" cy="441.64" r="0.2" fill="#42312e" opacity="0.3"/><circle cx="550.56" cy="445.32" r="0.2" fill="#42312e" opacity="0.3"/><circle cx="551.66" cy="442.87" r="0.2" fill="#42312e" opacity="0.3"/><circle cx="545.25" cy="443.71" r="0.2" fill="#42312e" opacity="0.3"/><circle cx="573.01" cy="442.87" r="0.2" fill="#42312e" opacity="0.3"/><circle cx="575.31" cy="442.54" r="0.27" fill="#42312e" opacity="0.3"/><circle cx="577.24" cy="445.45" r="0.27" fill="#42312e" opacity="0.3"/><circle cx="575.8" cy="443.99" r="0.27" fill="#42312e" opacity="0.3"/><circle cx="576.42" cy="445.89" r="0.27" fill="#42312e" opacity="0.3"/><circle cx="577.24" cy="444.41" r="0.27" fill="#42312e" opacity="0.3"/><circle cx="575.03" cy="444.14" r="0.27" fill="#42312e" opacity="0.3"/><circle cx="578.11" cy="444.14" r="0.27" fill="#42312e" opacity="0.3"/><circle cx="552.35" cy="443.57" r="0.27" fill="#42312e" opacity="0.3"/><circle cx="556.23" cy="440.91" r="0.27" fill="#42312e" opacity="0.3"/><circle cx="560.99" cy="446.67" r="0.27" fill="#42312e" opacity="0.3"/><circle cx="555" cy="440.87" r="0.27" fill="#42312e" opacity="0.3"/><circle cx="553.33" cy="441.1" r="0.27" fill="#42312e" opacity="0.3"/><circle cx="560.68" cy="442.62" r="0.27" fill="#42312e" opacity="0.3"/><circle cx="545.98" cy="444.5" r="0.27" fill="#42312e" opacity="0.3"/><circle cx="548.4" cy="446.97" r="0.27" fill="#42312e" opacity="0.3"/><circle cx="557.62" cy="448.18" r="0.27" fill="#42312e" opacity="0.3"/><circle cx="555.51" cy="446.97" r="0.27" fill="#42312e" opacity="0.3"/><circle cx="561.88" cy="448.45" r="0.27" fill="#42312e" opacity="0.3"/><path d="M592,491.26s-10.93.53-5.78,4,19.93,1.53,19.93,1.53,8.17-2.06,2.92-4.49-13.19-.89-13.19-.89-9.06,1.66-2.09,3.12c0,0,8.4.76,8.77-.93s-4.72-.5-4.72-.5,2.69.6.83.9-4-.2-4-.73,2.76-.93,3.56-.9,5-.66,6.56,1.2a.69.69,0,0,1-.25,1.09c-1.48.63-5.31,1.82-11.43.88C585.08,494.31,592,491.26,592,491.26Z" transform="translate(-37.44 -49.53)" opacity="0.1"/><path d="M337.86,388.8s23.85-5.13,33.39.74A78.51,78.51,0,0,0,391.79,398s17.61,4.41,23.48,10.64,11.37,2.2,13.94,10.28,10.27,15.77,10.27,15.77l-3.67,54.66,2.94,31.56s1.47,13.2-2.2,16.14.73,7.7,4,10.27,11.74,12.47,10.64,16.14,8.81,7.71,8.81,7.71.36,6.23-4.4,7.7S445,602.32,445,602.32,380.78,664,359.51,658.45s-37.06-25.31-37.06-25.31-14.31-64.2-18.34-74.48-14.68-44-14.68-44-5.87-38.89-8.8-46.59-2.94-48.06,5.87-56.5S303,398.34,303,395.41s8.44-8.81,11.74-8.44,4.4,4,4.4,4Z" transform="translate(-37.44 -49.53)" fill="#ff748e"/><path d="M601.64,512.07c-10.28,18-49.16,14.31-49.16,14.31s-13.57-2.94-22,1.84-48.07,9.9-48.07,9.9-15-3.3-18.71-8.08c-3.19-4.15-33.6-22.19-41.45-26.8l-1.56-.92h0a2.08,2.08,0,0,1-.25-.15l.06-.07,32.59-41,5.33,5.7,26.21,28s25.69,1.1,33,5.51,30.46-1.47,30.46-1.47,11.37,0,12.1-2.56S611.91,494.1,601.64,512.07Z" transform="translate(-37.44 -49.53)" fill="#ffccd0"/><path d="M414.35,316.6a9.48,9.48,0,0,0-5,3.18c-1.93,2.62-1.68,6.2-2.42,9.37-1.22,5.18-5.27,9.86-4.5,15.12.28,1.85,1.09,3.92,0,5.43-1,1.35-3.06,1.35-4.63.76,0,0-.08,0-.12,0-4.07-1.64-6.3-5.87-9.19-9.17s-8.11-5.74-11.46-2.92c-2.81,2.37-2.31,6.72-2.05,10.4s-.76,8.38-4.38,9c-1.45.27-3-.26-4.41.07-4.55,1.06-4.19,8.92-8.62,10.36-1.55.49-3.24,0-4.83-.39a16,16,0,0,0-4.1-.36c-4.66.09-9.53,1.5-13.67.32,2.15-3,4.19-6.09,6.05-9a42.37,42.37,0,1,1,73.36-42.12Z" transform="translate(-37.44 -49.53)" opacity="0.1"/><path d="M352.71,366.68c1.6.38,3.27.88,4.83.38,4.44-1.43,4.08-9.3,8.61-10.35,1.44-.34,3,.19,4.42-.06,3.62-.65,4.65-5.36,4.38-9s-.76-8,2.05-10.39c3.35-2.82,8.57-.36,11.46,2.92s5.12,7.54,9.18,9.17c1.6.65,3.73.67,4.76-.72s.29-3.57,0-5.42c-.77-5.27,3.28-9.94,4.5-15.13.74-3.17.49-6.74,2.42-9.36,4.08-5.52,14.57-2.73,18-8.68a9.4,9.4,0,0,0,4.54-.58c1.38-.69,2.41-2.34,1.85-3.78-.43-1.11-1.6-1.71-2.59-2.38a11.76,11.76,0,0,1-5.1-10.08c.08-1.9.63-3.78.51-5.67a8.33,8.33,0,0,0-8.37-7.51c-1.25.05-2.47.4-3.72.43-5.95.18-10.93-6.52-16.72-5.17-1.24.29-2.42.95-3.69.95-2.92,0-4.73-3.35-7.52-4.23-2.22-.7-4.63.28-6.94,0s-4.12-1.57-6.07-2.64c-4.19-2.28-9.78-3.28-13.44-.24a12,12,0,0,1-2.61,2.09,7.49,7.49,0,0,1-3.8.23,35.32,35.32,0,0,0-11.32.76,4.25,4.25,0,0,0-2.59,1.35,7.29,7.29,0,0,0-.82,2.63c-1.12,4.33-6.47,5.8-10.92,6.17a6.12,6.12,0,0,0-3.3.89c-1.61,1.21-1.56,3.68-.85,5.56s1.92,3.62,2.18,5.62c.65,5-4.77,8.83-5.68,13.82-1.24,6.89,6.4,13.66,3.8,20.17-1.15,2.89-4.22,5.12-4.08,8.22s3.15,4.9,5,7.27,2.5,5.15,3.2,7.94c1.13,4.5,1.28,13.18,6.53,14.76C340.22,368.23,346.87,365.31,352.71,366.68Z" transform="translate(-37.44 -49.53)" fill="#ffedba"/><path d="M354.37,514.27c6.24,8.07,28.25,27.15,42.92,31.92S354.37,514.27,354.37,514.27Z" transform="translate(-37.44 -49.53)" opacity="0.1"/><path d="M357.67,554.63c2.57,1.83,14.31,23.84,26.78,25.68S357.67,554.63,357.67,554.63Z" transform="translate(-37.44 -49.53)" opacity="0.1"/><path d="M360.61,535.55c.73,1.1,29.71,26.41,40.35,28.62s1.47-8.81-11.74-13.95S360.61,535.55,360.61,535.55Z" transform="translate(-37.44 -49.53)" opacity="0.1"/><path d="M360.61,589.48s19.44,7,32.65,5.14S360.61,589.48,360.61,589.48Z" transform="translate(-37.44 -49.53)" opacity="0.1"/><path d="M383.35,631.67S402.43,617.73,412,617,383.35,631.67,383.35,631.67Z" transform="translate(-37.44 -49.53)" opacity="0.1"/><path d="M297.5,406.78s46.23,5.13,33.39,7.34S297.5,406.78,297.5,406.78Z" transform="translate(-37.44 -49.53)" opacity="0.1"/><path d="M297.14,430.63s22,0,30.08-3.67S297.14,430.63,297.14,430.63Z" transform="translate(-37.44 -49.53)" opacity="0.1"/><path d="M290.17,476.85c4-1.1,20.91-36.32,27.51-26.78S290.17,476.85,290.17,476.85Z" transform="translate(-37.44 -49.53)" opacity="0.1"/><path d="M356.94,467.68s5.87,5.5,24.21,10.64S356.94,467.68,356.94,467.68Z" transform="translate(-37.44 -49.53)" opacity="0.1"/><path d="M465.53,592.78s10.27,5.5,2.57,17.24S465.53,592.78,465.53,592.78Z" transform="translate(-37.44 -49.53)" opacity="0.1"/><path d="M358,639.74l-.13-1.56C358.32,633,358,639.74,358,639.74Z" transform="translate(-37.44 -49.53)" fill="#e4aab4"/><path d="M365,670.19l-29.35-2.93-5.5-11-30.47-167.4-.71-3.93,46.58.37.43,5.32L357.9,638.18c-.06.75-.13,1.73-.23,3C356.93,651.48,365,670.19,365,670.19Z" transform="translate(-37.44 -49.53)" fill="#e4aab4"/><path d="M930.49,424.92l-.82.58c-3.13,2.13-7.33-5.48-11-4.41-3.15.9-5.75,10.64-9.18,10.64a35.81,35.81,0,0,1-15.27-3.41c-.53-1.06-1-2.06-1.55-3-1.91-3.54-3.35-5.73-3.35-5.73s5.19-.86,11.74-1.78c3-.44,6.38-.88,9.62-1.27h0c1.7-.21,3.36-.38,4.93-.55,6.42-.63,11.47-.78,11.47.3s1,3.67,2.62,7C929.92,423.82,930.21,424.37,930.49,424.92Z" transform="translate(-37.44 -49.53)" opacity="0.1"/><path d="M945.4,393.57a36,36,0,1,1-36-35.95A35.91,35.91,0,0,1,945.4,393.57Z" transform="translate(-37.44 -49.53)" fill="#ffc1c7"/><path d="M938.79,462.27l-10.73,1.1s1.1-9.63,5.78-12.66c3.1-2,8.89-5.12,12.42-7a14,14,0,0,0,3.88,1.25C933.65,455.56,938.79,462.27,938.79,462.27Z" transform="translate(-37.44 -49.53)" fill="#fff"/><path d="M818.46,508.77l-2.57-.37s-11.19.74-22.19,2-26.6,4.59-15.23,17.79,21.83-2.38,21.83-2.38,10.64,13.21,18.89,8.8S818.46,508.77,818.46,508.77Z" transform="translate(-37.44 -49.53)" fill="#ffc1c7"/><path d="M773.15,719.17s7,16.87,6.42,21.64,23.3-4.58,23.3-4.58-5.51-12.84-2.57-15.59S773.15,719.17,773.15,719.17Z" transform="translate(-37.44 -49.53)" fill="#ffc1c7"/><rect x="702.7" y="715.13" width="18.99" height="24.21" fill="#ffc1c7"/><path d="M777.37,712.38c-1.89,3-3.25,8.15-4.21,13.44a134,134,0,0,0-2,18.84c0,3.68,1.82,2.94,0,8.81a85,85,0,0,0-3.58,14.07c0,.2-.07.4-.1.61-1.1,6.6-2.2,8.8-2.2,8.8s-27.88-1.83-33.74-5.87,2.2-8.07,2.2-8.07,0-.32,0-1c.59-11.21,6.31-119.28,8.75-130.76a14.63,14.63,0,0,1,3.57-6.64c3.37-3.77,8.37-6.6,12.58-8.48a59.79,59.79,0,0,1,7.69-2.85s1.46,8.47,3.37,20.48C774.07,661.21,780.69,707,777.37,712.38Z" transform="translate(-37.44 -49.53)" fill="#575988"/><path d="M769.73,633.81c-2.15,3.93-4.34,6.39-5.93,4.47-2.73-3.3-11.47-9.44-17.71-13.62,6.8-7.62,20.27-11.33,20.27-11.33S767.82,621.8,769.73,633.81Z" transform="translate(-37.44 -49.53)" fill="#ffc1c7"/><path d="M933.8,604.24c-.27,4.08-.76,9-1.61,15a45.94,45.94,0,0,1-25,34.86s-67.5,0-79.25-3.3c-5.93-1.68-11.12.32-14.79,2.69-.42.27-.81.54-1.19.82a25.73,25.73,0,0,0-4.55,4.19s-7.34-29.72-7.34-31.18,4-14.68,11.37-23.85,50.62-10.64,53.2-11c1.71-.24,17.47-7.11,27.88-11.71,5.27-2.32,9.17-4.06,9.17-4.06l17,5.4.63.19,13.58,4.32S934.66,590.66,933.8,604.24Z" transform="translate(-37.44 -49.53)" fill="#575988"/><path d="M919.35,582.23c-3.24,1.35-8.37,3.42-14.32,5.56-12.94,4.7-29.77,9.84-39.61,9-17.61-1.47-37.79,2.56-37.79,2.56A66.35,66.35,0,0,0,810,610.76c-9.17,8.07-1.1,10.63,2.94,20.18,1.65,3.91,1.27,13.06.24,22.5-.42.27-.81.54-1.19.82a25.73,25.73,0,0,0-4.55,4.19s-7.34-29.72-7.34-31.18,4-14.68,11.37-23.85,50.62-10.64,53.2-11c1.71-.24,17.47-7.11,27.88-11.71,5.27-2.32,9.17-4.06,9.17-4.06l17,5.4Z" transform="translate(-37.44 -49.53)" opacity="0.1"/><path d="M777.37,712.38c-1.89,3-3.25,8.15-4.21,13.44a9.23,9.23,0,0,1-2-1.33c-3.37-2.85-3.08-8.26-2.61-11.71.19-1.43.41-2.53.41-3,0-1.48,1.46-14.69-1.48-19.45s-3.66-23.48-3.66-23.48-4.66-26.84-5.13-50.71a59.79,59.79,0,0,1,7.69-2.85s1.46,8.47,3.37,20.48C774.07,661.21,780.69,707,777.37,712.38Z" transform="translate(-37.44 -49.53)" opacity="0.1"/><path d="M921.92,580.67s-1.17.52-3.2,1.37c-3.2,1.33-8.54,3.5-14.79,5.75-12.94,4.7-29.78,9.84-39.61,9-17.61-1.47-37.79,2.56-37.79,2.56a66.35,66.35,0,0,0-17.61,11.38c-9.17,8.07-1.1,10.63,2.94,20.18,1.69,4,1.24,13.59.15,23.32-1.49,13.33-4.19,26.94-4.19,26.94s-1.1,3.67-.36,5.87.72,19.07.72,19.07a10,10,0,0,0-1.57,4.81,6.31,6.31,0,0,0,1.21,4c2.94,4,.74,14.68.74,14.68s-6.24,1.1-16.89-1.48-14.67.38-19.43-3.66c-3.37-2.85-3.08-8.26-2.61-11.71.19-1.43.41-2.53.41-3,0-1.48,1.46-14.69-1.48-19.45s-3.66-23.48-3.66-23.48-11.68-67.21.07-83.53a9.58,9.58,0,0,1,.66-.85c6.55-7.5,20.19-8.86,32.93-8.12a137.64,137.64,0,0,1,27.23,4.45c7.34,2.21,9.55,1.1,13.21-.37,2.61-1,2.82-6.15,2.71-9,0-.3,0-.58,0-.81,0-.72-.1-1.18-.1-1.18l3.25-1.77,13.62-7.39Z" transform="translate(-37.44 -49.53)" fill="#575988"/><path d="M929.67,423.29A72.3,72.3,0,0,0,938.39,437a5.52,5.52,0,0,1-3.54.09c-1.2-.47-2.07-1.54-3.23-2.09-3-1.41-6.34.58-9.35-1.28-2.35-1.46-2.85-3.3-2.92-5.61,0-.31,0-.63,0-1,0-3.21-.34-9.58-3.74-11.16a5.25,5.25,0,0,0-4.14.14,4.94,4.94,0,0,0-.79.41h0c-2.27,1.34-3.91,4.19-6.49,4a3.88,3.88,0,0,1-3.13-2.69,17.9,17.9,0,0,1-1.06-4.49c-.77-5.87-3-11.44-5.19-16.94-.42-1.05-1-2.26-2.18-2.36-1.82-.15-2.27,2.68-1.27,4.21s2.73,2.7,3,4.51c.42,3-4.07,4.75-6.52,3s-2.89-5.31-2.37-8.3,1.8-5.84,2-8.88-1.17-6.51-4.09-7.36c-2.55-.76-5.24.76-7.89.8a36,36,0,1,1,54.27,41.3Z" transform="translate(-37.44 -49.53)" opacity="0.1"/><path d="M912.55,416.17c-2.72,1-4.42,4.63-7.31,4.36s-3.8-4.19-4.19-7.18c-.77-5.87-3-11.44-5.19-16.94-.42-1.05-1.05-2.26-2.18-2.36-1.82-.15-2.27,2.68-1.27,4.21s2.74,2.7,3,4.51c.43,3-4.06,4.75-6.51,3s-2.9-5.31-2.38-8.3,1.79-5.85,2-8.88-1.18-6.51-4.09-7.37-6,1.23-9,.73a5.57,5.57,0,0,1-3.85-7.66c1.29-2.5,4.61-4.5,3.75-7.17-1.08-3.33-6.76-1.87-9-4.59-1.75-2.13-.15-5.48,2.13-7s5.13-2.16,7.31-3.86c4.1-3.19,4.8-9.34,8.68-12.81,4.41-4,11.21-3.13,16.75-5.19,5.32-2,10.1-6.77,15.68-5.77,1.35.24,2.62.81,4,.94,2.83.26,5.41-1.44,8-2.51a19.05,19.05,0,0,1,15.72.73c-.52,3.58,3.2,6.75,6.81,6.61,2.61-.09,6.17-1,7.08,1.48.43,1.13-.11,2.45.29,3.6.68,2,3.46,2.14,5.26,3.28,4.1,2.6,2.19,9.67,5.74,13,1.56,1.45,3.81,1.8,5.75,2.67,6.41,2.84,8.73,10.59,10.32,17.42a8.55,8.55,0,0,1,.27,4.07c-.53,2-2.4,3.29-3.44,5.06-2.48,4.22.17,9.8-1.41,14.43s-6.79,7.26-7.51,12c-.25,1.6.08,3.25-.18,4.85-.7,4.34-5.27,6.84-9.48,8.12-1.18.35-2.52.78-3.05,1.9-.23.5-.27,1.07-.46,1.59-.47,1.23-1.76,1.91-3,2.47q-8.22,3.88-16.76,7.07c-1.58.59-3.35,1.17-4.93.56-1.2-.47-2.06-1.55-3.23-2.09-3-1.42-6.34.58-9.34-1.28-2.68-1.66-3-3.81-3-6.58C920.41,423,919.86,413.35,912.55,416.17Z" transform="translate(-37.44 -49.53)" fill="#b97482"/><path d="M767.56,767.54c0,.2-.07.4-.1.61-1.1,6.6-2.2,8.8-2.2,8.8s-27.88-1.83-33.74-5.87,2.2-8.07,2.2-8.07,0-.32,0-1C743.37,764.48,760,768.13,767.56,767.54Z" transform="translate(-37.44 -49.53)" fill="#575988"/><path d="M767.56,767.54c0,.2-.07.4-.1.61-1.1,6.6-2.2,8.8-2.2,8.8s-27.88-1.83-33.74-5.87,2.2-8.07,2.2-8.07,0-.32,0-1C743.37,764.48,760,768.13,767.56,767.54Z" transform="translate(-37.44 -49.53)" opacity="0.1"/><path d="M763.25,774.2s-32.29,2.2-33.57,1.65-1.29,17.06-1.29,17.06-7.15,14.31-8.07,17.79-8.07,12.11-8.07,12.11S702,830.33,717,833.26s31.55-.91,31.55-.91,11-19.08,11.92-18,0,10.09,0,10.09l6.42-1.65s-1.1-11.92,1.47-18.34S763.25,774.2,763.25,774.2Z" transform="translate(-37.44 -49.53)" fill="#d3878a"/><path d="M808.56,728.53s-6.24,1.1-16.89-1.48-14.67.38-19.43-3.66c-3.37-2.85-3.08-8.26-2.61-11.71,4.66-1,11.88-2.53,17.47-3.34s13.63.26,19.51,1.51a6.27,6.27,0,0,0,1.21,4C810.76,717.88,808.56,728.53,808.56,728.53Z" transform="translate(-37.44 -49.53)" opacity="0.1"/><path d="M808.56,729.63s-6.24,1.1-16.89-1.48-14.67.38-19.43-3.66c-3.37-2.85-3.08-8.26-2.61-11.71,4.66-1,11.88-2.53,17.47-3.34s13.63.26,19.51,1.51a6.31,6.31,0,0,0,1.21,4C810.76,719,808.56,729.63,808.56,729.63Z" transform="translate(-37.44 -49.53)" fill="#575988"/><path d="M808.56,729.63s-6.24,1.1-16.89-1.48-14.67.38-19.43-3.66c-3.37-2.85-3.08-8.26-2.61-11.71,4.66-1,11.88-2.53,17.47-3.34s13.63.26,19.51,1.51a6.31,6.31,0,0,0,1.21,4C810.76,719,808.56,729.63,808.56,729.63Z" transform="translate(-37.44 -49.53)" opacity="0.1"/><path d="M824.33,781.72l-10.82,2.75-3.12-12.84s-2.72,5.16-7.53,12.31c-.64.94-1.3,1.92-2,2.92-5.52,7.87-24.08,5.95-30.45,1.36a6.66,6.66,0,0,1-1.46-1.36c-4.23-5.5,2.2-10.83,5.31-13.76s1.47-22.38,1.47-22.38-1.47-8.62-.37-12.66,28.81-5.5,28.81-5.5,5.67,14.85,8.8,19.44,7,10.27,6.23,14.31S824.33,781.72,824.33,781.72Z" transform="translate(-37.44 -49.53)" fill="#d3878a"/><path d="M810,591.13c-4.73,6-35.51,1.47-45-7.77a9.58,9.58,0,0,1,.66-.85c6.55-7.5,20.19-8.86,32.93-8.12C804.42,578.58,813.76,586.35,810,591.13Z" transform="translate(-37.44 -49.53)" fill="#ffc1c7"/><path d="M780.31,595.53S775,588,770.22,591.68s-6.24-6.42-6.24-6.42,2.57-1.83,8.07.92,11.74,7.52,11,8.44S780.31,595.53,780.31,595.53Z" transform="translate(-37.44 -49.53)" opacity="0.1"/><path d="M780.31,594.43s-5.32-7.52-10.09-3.85-6.24-6.42-6.24-6.42,2.57-1.83,8.07.92,11.74,7.52,11,8.44S780.31,594.43,780.31,594.43Z" transform="translate(-37.44 -49.53)" fill="#575988"/><path d="M879.73,595.53S906.88,608,900.82,613,879.73,595.53,879.73,595.53Z" transform="translate(-37.44 -49.53)" opacity="0.1"/><path d="M770.22,681.38s17.24,2,21.09,4.59a19.47,19.47,0,0,0,9.91,3.48C803.42,689.45,777.92,675.14,770.22,681.38Z" transform="translate(-37.44 -49.53)" opacity="0.1"/><path d="M790.94,671.29s-6.6,4.59.92,6.42S790.94,671.29,790.94,671.29Z" transform="translate(-37.44 -49.53)" opacity="0.1"/><path d="M754.07,732.38s9.73,12.1,13.21,8.8S754.07,732.38,754.07,732.38Z" transform="translate(-37.44 -49.53)" opacity="0.1"/><path d="M747.84,756.22c.73,0,3.12-.36,7.89,2.94s5.13-2.57,3.3-5S747.84,756.22,747.84,756.22Z" transform="translate(-37.44 -49.53)" opacity="0.1"/><path d="M736.83,485.93c1.65.55,11.28,3,13.21,8.81S736.83,485.93,736.83,485.93Z" transform="translate(-37.44 -49.53)" opacity="0.1"/><path d="M346,490.61l-.79-.19s-28.1-6.31-45.51-1.57l-.71-3.93,46.58.37Z" transform="translate(-37.44 -49.53)" opacity="0.1"/><path d="M321,478.32s70.44.37,95,48.79S446.09,668,446.09,668s4,13.21-1.84,13.57-8.44-12.1-8.44-12.1,2.21-9.17.37-13.21S412,540,412,540s-2.57-35.22-66.77-50.63c0,0-75.21-16.87-55.77,25.32,0,0,1.1,5.87-2.93,4.77s-8.81-12.11-5.5-26S321,478.32,321,478.32Z" transform="translate(-37.44 -49.53)" fill="#e4aab4"/><path d="M458.39,466.78l-.2.17c-5,4-23.49,35.42-35.95,36.29a4.51,4.51,0,0,1-.73,0s-.29-.35-.83-.95h0a.93.93,0,0,0-.19-.22l32.59-41Z" transform="translate(-37.44 -49.53)" opacity="0.1"/><path d="M421.87,427.69l16.51,7s8.07,8.07,7.71,15.41,4,1.83,4,1.83,2.94,1.1,2.94,4,8.07,5.87,2.93,9.9-24.21,36.69-36.68,36.32a251.39,251.39,0,0,0-23.85-23.84C382.62,467.31,370.88,410.81,421.87,427.69Z" transform="translate(-37.44 -49.53)" opacity="0.1"/><path d="M423,427.69l16.51,7s8.07,8.07,7.71,15.41,4,1.83,4,1.83,2.94,1.1,2.94,4,8.07,5.87,2.93,9.9-24.21,36.69-36.68,36.32a251.39,251.39,0,0,0-23.85-23.84C383.72,467.31,372,410.81,423,427.69Z" transform="translate(-37.44 -49.53)" fill="#ff748e"/><path d="M881.56,488.59,864.5,519l-11.81,6.09c-.29-3.2-.48-5.36-.48-5.36s-7.71-18,12.11-31.55c17.37-11.91,8.22-21.56,5.71-23.74l.53-.47,4-.55Z" transform="translate(-37.44 -49.53)" opacity="0.1"/><path d="M995.46,475.17c-2.7,6-25.85,22.23-25.85,22.23a1.09,1.09,0,0,1,0,.12l-1.09-1.22,22-25.32,4,2.57Z" transform="translate(-37.44 -49.53)" opacity="0.1"/><path d="M933.8,604.24a56.11,56.11,0,0,1-9.68.28,144,144,0,0,0-20.19-16.73c-3.46-2.39-7.27-4.81-11.36-7.09-14.49-8-32.5-14.31-50.86-11.25-.41.06-.83.14-1.23.22,0,0,.45-.37,1.2-1s1.9-1.69,3.15-2.95l13.62-7.39,63.47,22.37s-1.17.52-3.2,1.37l14.21,4.51S934.66,590.66,933.8,604.24Z" transform="translate(-37.44 -49.53)" opacity="0.1"/><path d="M913.48,457.41s49.16,4.77,71.54,2.2c0,0,11,8.44,9.54,13.94s-26,22.74-26,22.74-1.83,42.93-11.74,53.2S938.06,586.18,942.46,595s-17.24,7.34-17.24,7.34-41.09-42.92-83.65-34.85c0,0,15.41-12.48,14.31-21.65s-2.57-26.05-2.57-26.05-7.7-18,12.11-31.55S870.56,464,870.56,464s-.74-3.3,7.7-4.4a86.81,86.81,0,0,0,12.11-2.2s8.07-7.34,11.74-5.87S913.48,457.41,913.48,457.41Z" transform="translate(-37.44 -49.53)" fill="#1c3ed3"/><path d="M969.61,491s5.87,11.55-.55,17.6a77.06,77.06,0,0,0-6.89,8.35,250.28,250.28,0,0,0-29.57,51.4c-13.55,31.58-36.91,85.26-40.4,88.1-5,4-5.32,12.29-.37,12.48s7.89-6.61,7.89-6.61,4.95-14.12,8.07-19.81,35.59-80.16,35.59-80.16,12.11-31.92,25.68-39.25c0,0,11.74-19.45,9.72-28.07S969.61,491,969.61,491Z" transform="translate(-37.44 -49.53)" opacity="0.1"/><path d="M969.61,489.87s5.87,11.56-.55,17.61a77.06,77.06,0,0,0-6.89,8.35,250.28,250.28,0,0,0-29.57,51.4c-13.55,31.58-36.91,85.26-40.4,88.1-5,4-5.32,12.29-.37,12.48s7.89-6.61,7.89-6.61,4.95-14.12,8.07-19.81,35.59-80.16,35.59-80.16,12.11-31.92,25.68-39.25c0,0,11.74-19.45,9.72-28.07S969.61,489.87,969.61,489.87Z" transform="translate(-37.44 -49.53)" fill="#e4aab4"/><path d="M1019.56,528.58c1.17,6.6,1.11,13.57-1.71,19.63,0,0-15.59.73-31.18-21.1l-9.36-22.93s-10.45-17.79-16.69-16.87-11,32.1-25.86,29.16-7-40.35,12.65-44.21l7.58-1.93a18.29,18.29,0,0,1,15.91,3.37c3.64,2.87,8.56,6.68,14.49,11,4.86,3.58,9.47,7.08,13.35,10.08A55,55,0,0,1,1019.56,528.58Z" transform="translate(-37.44 -49.53)" fill="#ffc1c7"/><path d="M857.07,526.93s7.43,9.08,19.54,11,19-1.92,29.17,2.21S857.07,526.93,857.07,526.93Z" transform="translate(-37.44 -49.53)" opacity="0.1"/><path d="M958.33,509.87s-22.84,19.53-22,24.76S958.33,509.87,958.33,509.87Z" transform="translate(-37.44 -49.53)" opacity="0.1"/><g opacity="0.1"><path d="M895.79,401.7a4.65,4.65,0,0,1-5.44.36c-2.14-1.56-2.75-4.44-2.52-7.14-.23.83-.44,1.66-.59,2.51-.52,3-.07,6.51,2.38,8.3s6.94,0,6.52-3A4,4,0,0,0,895.79,401.7Z" transform="translate(-37.44 -49.53)"/><path d="M889.16,389.07a20,20,0,0,0,.79-4.19c.18-3-1.18-6.51-4.09-7.37s-6,1.24-9,.73a5.53,5.53,0,0,1-4.26-4.54,4.37,4.37,0,0,0-.32.55,5.56,5.56,0,0,0,3.84,7.66c3,.5,6.1-1.59,9-.73s4.27,4.34,4.09,7.37C889.21,388.73,889.18,388.9,889.16,389.07Z" transform="translate(-37.44 -49.53)"/><path d="M875.88,366.79a3.7,3.7,0,0,0,.87-3.38c-1.08-3.33-6.77-1.87-9-4.58a3.44,3.44,0,0,1-.62-1.22c-1,1.59-1.25,3.49-.11,4.88C869.18,365.12,874.56,363.85,875.88,366.79Z" transform="translate(-37.44 -49.53)"/><path d="M965.57,419.86c-1.18.35-2.52.78-3.05,1.9-.24.5-.27,1.07-.47,1.59-.47,1.23-1.75,1.91-2.94,2.47-5.48,2.59-11.08,4.95-16.76,7.07-1.59.59-3.35,1.17-4.93.56-1.2-.47-2.07-1.55-3.23-2.09-3-1.41-6.34.58-9.34-1.28-2.69-1.66-3-3.8-3-6.57,0-4.2-.57-13.83-7.87-11-2.72,1-4.42,4.63-7.32,4.36s-3.79-4.19-4.18-7.18c-.77-5.87-3-11.44-5.19-16.94-.42-1.05-1.05-2.26-2.18-2.36-1.67-.14-2.18,2.24-1.48,3.81a1.4,1.4,0,0,1,.75-.14c1.12.1,1.75,1.31,2.17,2.36,2.21,5.5,4.43,11.07,5.19,16.94.39,3,1.19,6.9,4.19,7.18s4.6-3.32,7.31-4.36c7.31-2.82,7.87,6.81,7.88,11,0,2.77.27,4.92,3,6.58,3,1.86,6.33-.14,9.35,1.28,1.16.54,2,1.62,3.22,2.09,1.58.61,3.35,0,4.94-.56q8.52-3.18,16.75-7.07c1.19-.56,2.48-1.24,3-2.47.2-.52.23-1.09.47-1.59.52-1.12,1.86-1.55,3.05-1.9,4.2-1.28,8.78-3.78,9.47-8.12a9.7,9.7,0,0,0,.1-1.71C972.87,416.85,969.09,418.79,965.57,419.86Z" transform="translate(-37.44 -49.53)"/><path d="M984.15,380.49a9.07,9.07,0,0,0-1.11,4.42,6.61,6.61,0,0,1,.38-.75c1-1.77,2.9-3.08,3.43-5.06a5.82,5.82,0,0,0,.08-2.24C986.14,378.13,984.92,379.19,984.15,380.49Z" transform="translate(-37.44 -49.53)"/><path d="M975.22,406.89a10.79,10.79,0,0,0-.09,1.61c1.63-3.54,5.57-6.1,6.87-9.91a10.69,10.69,0,0,0,.52-3.13C980.77,399.65,975.92,402.37,975.22,406.89Z" transform="translate(-37.44 -49.53)"/></g><path d="M814.79,762.28a109,109,0,0,0-11.74,9c-4.77,4.41-16.69,8.07-16.69,8.07Z" transform="translate(-37.44 -49.53)" opacity="0.1"/><path d="M756.09,808.68s-22.56,20.18-26.23,19.82S756.09,808.68,756.09,808.68Z" transform="translate(-37.44 -49.53)" opacity="0.1"/><path d="M802.86,783.94c-.64.94-1.3,1.92-2,2.92-5.52,7.87-24.08,5.95-30.45,1.36C776.09,786.3,793.63,780.89,802.86,783.94Z" transform="translate(-37.44 -49.53)" opacity="0.1"/><g opacity="0.1"><path d="M711.31,331.85a14.54,14.54,0,0,0,.59-2.29A14.54,14.54,0,0,0,711.31,331.85Z" transform="translate(-37.44 -49.53)"/><path d="M641.64,356.23a8.9,8.9,0,0,1,.55-1.47c1.59-3.59-.45-6.15-2.82-8.56a13.15,13.15,0,0,1-4.18-8,21.78,21.78,0,0,1-.24-2.55,5.44,5.44,0,0,0-.51.8c-.85,1.7-.61,3.72-.35,5.6a13.07,13.07,0,0,0,4.18,8C640.08,351.89,641.69,353.82,641.64,356.23Z" transform="translate(-37.44 -49.53)"/><path d="M703.71,388.76c-1.81-.52-3.41,1.26-4.31,2.91s-1.92,3.63-3.78,3.87c-2.27.29-3.82-2.15-4.76-4.23S689,387,689,384.76a7.34,7.34,0,0,1,.08-.82,14.8,14.8,0,0,0-1.18,4.67c-.07,2.29.89,4.46,1.84,6.55s2.49,4.52,4.76,4.23c1.86-.24,2.89-2.22,3.78-3.87s2.5-3.43,4.31-2.91c.81.24,1.65.92,2.38.51a1.72,1.72,0,0,0,.69-1.2,14.45,14.45,0,0,0,.33-2.62C705.29,389.62,704.49,389,703.71,388.76Z" transform="translate(-37.44 -49.53)"/><path d="M715,370.41c-2.37,1.9-5.29,3.34-6.73,6a9.48,9.48,0,0,0-1,3.72c1.46-2.59,4.32-4,6.65-5.88a19.55,19.55,0,0,0,6.94-11.77A19.5,19.5,0,0,1,715,370.41Z" transform="translate(-37.44 -49.53)"/><path d="M690.18,380.14a21.83,21.83,0,0,0,1-3.4c.65-3.45-.48-7-1.59-10.31-.82-2.44-2.39-5.4-5-5.1a5.64,5.64,0,0,1-1.52.18c-1.35-.22-1.64-2-1.78-3.36a15.24,15.24,0,0,0-12.44-13,3.93,3.93,0,0,0-2.18.14c-1,.43-1.48,1.46-2.34,2.06-2.79,1.93-6.34-1.77-9.74-1.49-2.88.24-4.64,3.2-5.83,5.83s-2.68,5.65-5.5,6.27a1.66,1.66,0,0,1-1.33-.16,1,1,0,0,1-.44-.82,6,6,0,0,1-.5,1.68c-.44,1-1.05,2.36-.16,3a1.7,1.7,0,0,0,1.33.15c2.82-.61,4.31-3.63,5.5-6.26s3-5.6,5.83-5.84c3.4-.28,6.95,3.42,9.74,1.49.86-.59,1.39-1.63,2.34-2.06a3.9,3.9,0,0,1,2.17-.14A15.24,15.24,0,0,1,680.28,362c.14,1.36.42,3.15,1.78,3.36a5.64,5.64,0,0,0,1.52-.18c2.56-.29,4.13,2.66,4.94,5.1C689.59,373.47,690.65,376.83,690.18,380.14Z" transform="translate(-37.44 -49.53)"/></g><path d="M708.43,495.57s-14,4.26-20.36,4.26S657,499.7,657,499.7s-64.66-21.6-45.26,8,50.07,13.07,50.07,13.07L667.3,522c3,.69,61.49.14,63.42-2.2S708.43,495.57,708.43,495.57Z" transform="translate(-37.44 -49.53)" fill="#cf6f80"/><path d="M748.64,521.51c-8.81.81-26.12,1-26.12,1s-12.93-25.59-23.93-24.77c0,0,10.18-11.55,14.3-10.18.7.23,1.13-.27,1.33-1.26,10.79,3.29,31.33,11.34,33.34,25.48C748.1,515.58,748.44,518.79,748.64,521.51Z" transform="translate(-37.44 -49.53)" opacity="0.1"/><path d="M749.74,521.51c-8.81.81-26.12,1-26.12,1s-12.93-25.59-23.93-24.77c0,0,10.18-11.55,14.3-10.18.7.23,1.13-.27,1.34-1.26,10.78,3.29,31.32,11.34,33.33,25.48C749.2,515.58,749.54,518.79,749.74,521.51Z" transform="translate(-37.44 -49.53)" fill="#575a89"/><path d="M749.74,521.51c-8.81.81-26.12,1-26.12,1s-12.93-25.59-23.93-24.77c0,0,10.18-11.55,14.3-10.18.7.23,1.13-.27,1.34-1.26,10.78,3.29,31.32,11.34,33.33,25.48C749.2,515.58,749.54,518.79,749.74,521.51Z" transform="translate(-37.44 -49.53)" opacity="0.1"/><path d="M672.45,595.17s24.76-6.06,28.61-2.76S672.45,595.17,672.45,595.17Z" transform="translate(-37.44 -49.53)" opacity="0.1"/><path d="M601.46,618.83s10.45,6,11.55,11S601.46,618.83,601.46,618.83Z" transform="translate(-37.44 -49.53)" opacity="0.1"/><g opacity="0.1"><path d="M425.54,290.44a11.37,11.37,0,0,0,.58,4q0-.63,0-1.26c.09-1.9.64-3.78.52-5.68a7.74,7.74,0,0,0-.54-2.29C426.09,287,425.62,288.69,425.54,290.44Z" transform="translate(-37.44 -49.53)"/><path d="M323.92,288.81c.49,1.28,1.2,2.49,1.68,3.77a5.62,5.62,0,0,0-.05-.91c-.24-1.91-1.37-3.59-2.08-5.39A7.21,7.21,0,0,0,323.92,288.81Z" transform="translate(-37.44 -49.53)"/><path d="M433.79,305.65a2.74,2.74,0,0,0-.61-.92,3.74,3.74,0,0,1-1.8,1.94,9.48,9.48,0,0,1-4.53.59c-3.43,5.94-13.92,3.16-18,8.68-1.94,2.62-1.68,6.19-2.43,9.36-1.21,5.18-5.27,9.86-4.49,15.13.27,1.84,1.09,3.92,0,5.42s-3.15,1.36-4.75.72c-4.06-1.64-6.3-5.88-9.19-9.17s-8.1-5.75-11.45-2.93c-2.82,2.37-2.32,6.73-2,10.4s-.76,8.39-4.39,9c-1.45.26-3-.27-4.41.06-4.54,1.06-4.18,8.93-8.61,10.36-1.56.5-3.24,0-4.83-.38-5.84-1.38-12.5,1.55-17.9-.08-3-.91-4.34-4.14-5.15-7.58.76,4.31,1.89,9.18,5.7,10.33,5.4,1.63,12.06-1.29,17.9.08,1.59.38,3.27.88,4.83.38,4.43-1.43,4.07-9.3,8.61-10.36,1.44-.33,3,.2,4.41-.06,3.63-.64,4.66-5.36,4.39-9s-.77-8,2.05-10.4c3.35-2.81,8.56-.36,11.45,2.93s5.13,7.53,9.19,9.17c1.6.64,3.72.67,4.75-.72s.29-3.58,0-5.42c-.78-5.27,3.28-9.95,4.49-15.13.75-3.17.49-6.74,2.43-9.36,4.08-5.52,14.57-2.74,18-8.68a9.36,9.36,0,0,0,4.53-.59C433.31,308.74,434.34,307.08,433.79,305.65Z" transform="translate(-37.44 -49.53)"/><path d="M327.8,349.09c-.7-2.79-1.44-5.66-3.21-7.93-1.38-1.78-3.43-3.29-4.42-5.21a5.3,5.3,0,0,0,0,.69c.13,3,3.15,4.9,5,7.27s2.49,5.09,3.18,7.86C328.16,350.79,328,349.88,327.8,349.09Z" transform="translate(-37.44 -49.53)"/><path d="M324.19,322.06c-.29-3.71-2.71-7.51-3.85-11.34C320.68,314.55,323.06,318.34,324.19,322.06Z" transform="translate(-37.44 -49.53)"/></g><path d="M516.71,664.78s30.77-.92,23.43,2.38-28.11,3-28.11,3Z" transform="translate(-37.44 -49.53)" opacity="0.1"/><path d="M643.28,730.36s14.31-2.2,18,.18S643.28,730.36,643.28,730.36Z" transform="translate(-37.44 -49.53)" opacity="0.1"/><ellipse cx="1031.83" cy="694.45" rx="40.86" ry="5.61" fill="#1c3ed3" opacity="0.1"/><path d="M1071.92,686.43s5.48,7.16-2.53,18-14.6,19.93-11.93,26.67c0,0,12.07-20.07,21.9-20.35S1082.73,698.5,1071.92,686.43Z" transform="translate(-37.44 -49.53)" fill="#1c3ed3"/><path d="M1071.92,686.43a8.66,8.66,0,0,1,1.12,2.24c9.59,11.27,14.7,21.78,5.48,22.05-8.59.24-18.88,15.59-21.35,19.47a9.06,9.06,0,0,0,.29.88s12.07-20.07,21.9-20.35S1082.73,698.5,1071.92,686.43Z" transform="translate(-37.44 -49.53)" opacity="0.1"/><path d="M1082.1,695.55c0,2.52-.28,4.57-.63,4.57s-.63-2-.63-4.57.35-1.33.7-1.33S1082.1,693,1082.1,695.55Z" transform="translate(-37.44 -49.53)" fill="#ffd037"/><path d="M1085.59,698.56c-2.21,1.21-4.14,1.94-4.31,1.63s1.5-1.53,3.71-2.74,1.34-.33,1.51,0S1087.81,697.36,1085.59,698.56Z" transform="translate(-37.44 -49.53)" fill="#ffd037"/><path d="M1043,686.43s-5.48,7.16,2.53,18,14.6,19.93,11.93,26.67c0,0-12.07-20.07-21.9-20.35S1032.19,698.5,1043,686.43Z" transform="translate(-37.44 -49.53)" fill="#1c3ed3"/><path d="M1043,686.43a9.06,9.06,0,0,0-1.12,2.24c-9.59,11.27-14.7,21.78-5.48,22.05,8.59.24,18.89,15.59,21.35,19.47a7,7,0,0,1-.29.88s-12.07-20.07-21.9-20.35S1032.19,698.5,1043,686.43Z" transform="translate(-37.44 -49.53)" opacity="0.1"/><path d="M1032.82,695.55c0,2.52.28,4.57.63,4.57s.64-2,.64-4.57-.36-1.33-.71-1.33S1032.82,693,1032.82,695.55Z" transform="translate(-37.44 -49.53)" fill="#ffd037"/><path d="M1029.33,698.56c2.21,1.21,4.14,1.94,4.31,1.63s-1.49-1.53-3.71-2.74-1.34-.33-1.5,0S1027.12,697.36,1029.33,698.56Z" transform="translate(-37.44 -49.53)" fill="#ffd037"/><path d="M1034.57,730.14s15.3-.47,19.92-3.76,23.55-7.21,24.69-1.94,23,26.21,5.72,26.35-40.16-2.7-44.76-5.5S1034.57,730.14,1034.57,730.14Z" transform="translate(-37.44 -49.53)" fill="#a8a8a8"/><path d="M1085.21,749c-17.28.14-40.16-2.69-44.76-5.5-3.51-2.13-4.91-9.8-5.37-13.33l-.51,0s1,12.34,5.57,15.15,27.48,5.63,44.76,5.5c5,0,6.72-1.82,6.62-4.45C1090.83,747.93,1088.92,748.92,1085.21,749Z" transform="translate(-37.44 -49.53)" opacity="0.2"/><path d="M735.84,525.39c0,2.81-8.83,6.12-19.72,6.12s-19.72-3.31-19.72-6.12,8.83-4.08,19.72-4.08S735.84,522.57,735.84,525.39Z" transform="translate(-37.44 -49.53)" fill="#e8eaf2"/><path d="M735.84,525.39c0,2.81-8.83,6.12-19.72,6.12s-19.72-3.31-19.72-6.12,8.83-4.08,19.72-4.08S735.84,522.57,735.84,525.39Z" transform="translate(-37.44 -49.53)" opacity="0.1"/><ellipse cx="678.68" cy="475.86" rx="19.72" ry="5.1" fill="#e8eaf2"/><ellipse cx="678.68" cy="475.86" rx="11.15" ry="2.88" opacity="0.1"/><path d="M732.27,519.28a8.68,8.68,0,0,1-7.12,4.51,11.13,11.13,0,0,1-3.44-.24l1.36-2a6.78,6.78,0,0,0,2.63,0,5.1,5.1,0,0,0,3.46-2.57c1.44-2.54-.36-2.91-1.62-2.89a6.89,6.89,0,0,0-.77,0l1.08-1.58s.44-.08,1.08-.13C731,514.28,735,514.55,732.27,519.28Z" transform="translate(-37.44 -49.53)" fill="#f1cec8"/><path d="M723.57,526.24a24.77,24.77,0,0,1-15.23,0l.11-.76.08-.57,14.84-.19.12.91Z" transform="translate(-37.44 -49.53)" fill="#f1cec8"/><path d="M725.7,521.54a12.21,12.21,0,0,1-.55,2.25,11.13,11.13,0,0,1-3.44-.24l1.36-2A6.78,6.78,0,0,0,725.7,521.54Z" transform="translate(-37.44 -49.53)" opacity="0.1"/><path d="M728.93,514.42a2.2,2.2,0,0,1-.42.57l-.11.11a8.74,8.74,0,0,0-.86,1,6.89,6.89,0,0,0-.77,0l1.08-1.58S728.29,514.47,728.93,514.42Z" transform="translate(-37.44 -49.53)" opacity="0.1"/><path d="M723.49,525.63c-2.63,1-12.5,1.24-15-.15l.08-.57,14.84-.19Z" transform="translate(-37.44 -49.53)" opacity="0.1"/><path d="M728.23,515l-.12.11a8.28,8.28,0,0,0-2.5,4.95c-.46,4.37-1.4,4.81-1.51,5-.76,1.32-14,1.84-16,0-1.64-1.52-3.24-4.83-2.5-6.7.39-1-.44-2.11-1.29-2.91-1.1-1-.7-2.52.88-3.21,3.75-1.66,10.41-1.74,10.41-1.74,5.68-.3,9.31.45,11.53,1.27l.28.12a2.44,2.44,0,0,1,1.3,1.27A1.69,1.69,0,0,1,728.23,515Z" transform="translate(-37.44 -49.53)" fill="#f1cec8"/><ellipse cx="678.48" cy="465.04" rx="10.05" ry="1.63" opacity="0.1"/><ellipse cx="678.48" cy="465.23" rx="10.05" ry="1.63" fill="#42312e"/><path d="M718,513.74s-7.23.16-7,1.92A23.31,23.31,0,0,1,718,513.74Z" transform="translate(-37.44 -49.53)" fill="#fff" opacity="0.2"/><path d="M720.07,514.19s-4.31,0-3.62,1.47c0,0,1-.11.86-.49s2.76-.77,2.76-.77Z" transform="translate(-37.44 -49.53)" fill="#fff" opacity="0.2"/><path d="M704.72,513.74s-.28,3,11,2.86,11.22-2.18,11.32-2.86h-.62s-.14,2.47-10.54,2.41-10.68-2.41-10.68-2.41Z" transform="translate(-37.44 -49.53)" fill="#f6e2df"/><path d="M728.71,513.24l-6.8,2.49a.87.87,0,0,1-.81-.11l-.11-.1c-.32-.27-.22-.66.2-.84l6.22-2.71A2.44,2.44,0,0,1,728.71,513.24Z" transform="translate(-37.44 -49.53)" opacity="0.1"/><path d="M721.19,514.53l17.64-7.67a3.54,3.54,0,0,1,1.32-.29c.89,0,2.15.1,1.74,1.07a2.14,2.14,0,0,1-1.32,1.11l-18.66,6.83a.85.85,0,0,1-.81-.11l-.11-.1C720.67,515.11,720.77,514.71,721.19,514.53Z" transform="translate(-37.44 -49.53)" fill="#e8eaf2"/><path d="M721.19,514.53l17.64-7.67a3.54,3.54,0,0,1,1.32-.29c.89,0,2.15.1,1.74,1.07a2.14,2.14,0,0,1-1.32,1.11l-18.66,6.83a.85.85,0,0,1-.81-.11l-.11-.1C720.67,515.11,720.77,514.71,721.19,514.53Z" transform="translate(-37.44 -49.53)" opacity="0.1"/><path d="M721.19,514.43l17.64-7.67a3.75,3.75,0,0,1,1.32-.29c.89,0,2.15.1,1.74,1.07a2.18,2.18,0,0,1-1.32,1.12l-18.66,6.83a.85.85,0,0,1-.81-.12l-.11-.09C720.67,515,720.77,514.62,721.19,514.43Z" transform="translate(-37.44 -49.53)" fill="#e8eaf2"/><path d="M720.21,514.65s1.88-.28,1.64.06.81.78.81.78a8.09,8.09,0,0,1-2.23.12C720.14,515.41,720.21,514.65,720.21,514.65Z" transform="translate(-37.44 -49.53)" opacity="0.1"/><path d="M720.07,514.7s1.88-.28,1.64.06.81.78.81.78a8.14,8.14,0,0,1-2.24.12C720,515.46,720.07,514.7,720.07,514.7Z" transform="translate(-37.44 -49.53)" fill="#42312e"/><path d="M717.12,501.27a4.64,4.64,0,0,0-1.69,2.16,5,5,0,0,0,.11,2.23,9.27,9.27,0,0,0,.38,1.51c.1.28.38.6.58.4,0-.7-.22-1.39-.18-2.08a3.88,3.88,0,0,1,.92-2.07,10.14,10.14,0,0,0,1.29-1.8c.14-.3.69-3.05-.07-2.57-.15.1-.33,1-.47,1.23A4.87,4.87,0,0,1,717.12,501.27Z" transform="translate(-37.44 -49.53)" fill="#f2dcdc"/><path d="M717.41,505.8c.06.25.37.45.51.68a1.19,1.19,0,0,1,.13.48,2.54,2.54,0,0,1-.51,2.28,1.83,1.83,0,0,0,1.28-1.17,3.19,3.19,0,0,0,.17-.79,6.61,6.61,0,0,0,0-.77c0-.38.17-1.37-.51-1.56A.85.85,0,0,0,717.41,505.8Z" transform="translate(-37.44 -49.53)" fill="#f2dcdc"/><path d="M705.7,517.8s.85.88,3.24,1a8.86,8.86,0,0,1-3.41-.28Z" transform="translate(-37.44 -49.53)" opacity="0.1"/><polygon points="438.86 614.08 475.85 613.97 463.74 633.29 439.89 645.38 438.86 614.08" fill="#e4aab4"/></svg>