<svg xmlns="http://www.w3.org/2000/svg" width="32" height="32" viewBox="0 0 32 32">
  <path d="M6.362 12.245c-.401 2.416-.719 4.403-.706 4.415.012.012.361.019.775.015l.753-.008.716-4.32c.394-2.376.724-4.359.734-4.408l.017-.087h-1.56l-.729 4.393m8.334.081v4.326h.178V8h-.178v4.326m3.852-3.513c-.314.088-.504.204-.79.485a2.55 2.55 0 0 0-.543.788c-.295.642-.536 1.667-.626 2.67-.052.571-.052 1.668-.001 1.896.05.223.189.52.305.652.292.332.894.424 1.699.257l.385-.079.064-.385c.037-.221.053-.397.039-.412-.016-.017-.227-.007-.54.027-.283.03-.562.045-.62.034a.53.53 0 0 1-.378-.3c-.068-.135-.075-.188-.084-.606-.014-.636.068-1.385.251-2.297.196-.978.542-1.7.903-1.884.129-.065.277-.072.602-.027.26.036.413.007.546-.105.089-.075.191-.282.223-.45.021-.112.06-.095-.507-.216-.449-.095-.707-.108-.925-.047m7.394.049c-.008.023-.062.361-.12.753-.058.391-.113.748-.122.793l-.016.082h-.35c-.645 0-.979.18-1.359.731-.334.484-.591 1.503-.688 2.716-.101 1.269.101 1.652.896 1.7l.257.015.237-.167c.13-.092.245-.167.255-.167.009 0 .018.02.018.043 0 .024.031.079.071.124.069.079.078.082.392.083l.322.001.499-3.239c.274-1.781.491-3.271.481-3.311-.03-.12-.129-.159-.455-.18-.245-.016-.304-.012-.316.022M3.348 10.165c-.856.537-1.672 1.046-1.815 1.131l-.259.154v1.607l1.489.929c.819.511 1.64 1.026 1.824 1.145.184.12.341.217.348.217.007 0 .014-.398.014-.885v-.885l-1.055-.66c-.727-.455-1.043-.667-1.015-.683.023-.013.494-.309 1.048-.658l1.007-.634.008-.879c.004-.484-.002-.878-.015-.877-.012.001-.723.441-1.578.978m5.956-.111v.869l1.066.664c.939.585 1.06.669 1.015.703-.028.021-.508.321-1.065.667l-1.016.628-.001.885c-.001.696.008.881.037.87.02-.008.857-.529 1.86-1.156l1.822-1.141.008-.785.008-.785-.141-.082c-.17-.099-2.306-1.431-3.019-1.884a6.106 6.106 0 0 0-.541-.322c-.023 0-.033.253-.033.869m12.101.479c-.268.059-.469.174-.689.396-.368.373-.572.837-.745 1.703-.154.766-.215 2.088-.111 2.422.075.242.196.392.399.491.167.082.187.085.617.084.39-.001.465-.009.611-.068.48-.191.761-.556 1.067-1.381.189-.51.286-1.199.313-2.228.016-.609.013-.669-.045-.859a.78.78 0 0 0-.369-.475c-.231-.119-.711-.158-1.047-.085m6.978-.013c-.199.041-.479.19-.651.344-.618.556-.954 1.765-.961 3.461-.003.645.013.74.158.969.216.341.801.434 1.739.275.241-.041.448-.084.459-.097.03-.03.125-.748.103-.77-.01-.01-.181.012-.38.049-.677.126-1.082.114-1.177-.034-.053-.083-.076-.624-.046-1.107l.021-.334.553-.009c.529-.009.56-.013.724-.09.209-.098.425-.313.529-.529.153-.315.216-.648.217-1.139.001-.391-.007-.46-.062-.578-.143-.305-.359-.423-.797-.434a2.614 2.614 0 0 0-.43.02m-6.905.816c-.168.091-.333.389-.501.902-.186.569-.281 1.131-.313 1.867-.02.452.008.594.139.691.101.075.321.076.449.001.219-.127.443-.584.553-1.124.088-.43.179-1.179.2-1.641.02-.448-.005-.581-.13-.68-.089-.071-.281-.078-.396-.015m3.438-.001c-.302.164-.628 1.208-.751 2.408-.074.718-.056.964.08 1.058.102.072.178.056.503-.106l.304-.151.245-1.589a117.7 117.7 0 0 0 .245-1.627c-.001-.054-.524-.049-.625.007m3.424.011c-.245.111-.369.334-.485.866a4.819 4.819 0 0 1-.082.337c-.019.049.002.052.303.04.183-.007.359-.03.405-.053.301-.146.502-1.085.26-1.214-.087-.046-.27-.035-.401.025" fill="#2c2c2c" fill-rule="evenodd"/>
  <path d="M15.872 17.708c-.011.011-.02.058-.02.104v.084h.533v2.34l-.135-.103c-.203-.155-.408-.206-.828-.206-.28.001-.399.014-.564.065-.531.164-.854.527-1.028 1.157-.055.199-.063.309-.065.865-.001.569.005.664.065.885.176.66.558 1.072 1.097 1.186.564.119 1.161-.051 1.406-.399l.095-.136.019.098c.011.054.028.162.039.239l.02.141h1.926l-.009-.097-.009-.097-.2-.009-.2-.009-.008-3.058L18 17.704l-1.054-.008c-.58-.004-1.063.001-1.074.012m-4.001.231c-.303.124-.433.306-.456.642-.02.276.033.469.173.628.139.158.299.227.575.248.439.033.751-.107.895-.401.069-.142.082-.206.082-.405-.001-.521-.295-.786-.872-.785a.934.934 0 0 0-.398.072m-10.448.297v.106h.533v5.511h-.533v.207l1.193-.001c1.794-.001 2.39-.046 2.914-.222.645-.216.975-.603 1.048-1.231.056-.481-.072-.908-.355-1.184-.188-.184-.552-.366-.9-.451l-.263-.064.178-.049c.429-.117.772-.374.923-.691.115-.241.164-.593.121-.868-.089-.579-.463-.914-1.202-1.08-.282-.063-.368-.066-1.976-.078l-1.681-.011v.105m2.222 1.361v1.264h.182c.249 0 .405-.053.533-.181.191-.191.219-.329.219-1.093 0-.704-.017-.826-.14-1.008-.099-.146-.244-.207-.537-.228l-.255-.018v1.263m18.356-.728a.78.78 0 0 0-.458.468c-.056.148-.064.22-.055.459l.011.284-.119-.052c-.22-.096-.468-.126-.913-.108-.452.018-.628.055-.918.192-.512.245-.765.648-.765 1.221 0 .588.204.948.67 1.178.12.059.219.111.219.115 0 .004-.105.076-.235.161-.27.177-.511.418-.577.577-.165.396-.024.81.339.995.263.134.417.153 1.377.176.807.018.936.028 1.066.079.205.08.283.201.281.439-.002.548-.481.853-1.333.852-.548-.001-.85-.129-.967-.41-.046-.109-.054-.481-.014-.62.015-.051.018-.104.008-.12a1.606 1.606 0 0 0-.272-.139l-.253-.111-.174.065c-.205.077-.407.263-.46.426a.753.753 0 0 0 .069.577c.156.235.419.372.939.485.393.087 1.537.093 1.94.011.991-.201 1.499-.724 1.496-1.541-.001-.318-.032-.472-.139-.69-.148-.302-.441-.512-.887-.634-.207-.057-.34-.066-1.196-.084-.53-.011-.98-.03-1-.043-.077-.047-.034-.137.12-.254l.156-.118.222.031c.288.04.884.015 1.111-.046.575-.156.915-.486 1.037-1.002.128-.543-.021-1.015-.423-1.34-.159-.129-.182-.161-.2-.28-.04-.264-.023-.552.04-.675.088-.172.252-.232.383-.14.1.071.082.151-.055.236-.11.07-.119.084-.101.171a.494.494 0 0 0 .225.312c.087.059.129.068.3.058.298-.017.472-.175.512-.467.074-.54-.427-.882-1.007-.689m2.626 1.047c-.521.048-.962.244-1.295.575-.242.241-.39.51-.489.888-.088.338-.089.97-.001 1.301.193.724.626 1.157 1.354 1.355.321.087 1.14.095 1.434.014.57-.158.956-.538 1.128-1.111.033-.108.032-.132-.004-.154-.078-.05-.147-.029-.181.054-.184.45-.376.7-.634.83-.303.152-.712.164-.981.027-.348-.177-.485-.541-.528-1.405l-.021-.423h2.375v-.265c0-.89-.4-1.443-1.18-1.631a3.213 3.213 0 0 0-.98-.056m3.735 0c-.621.092-1.079.52-1.188 1.111-.108.585.076 1.065.52 1.36.217.145.411.22 1.019.399.575.169.7.224.811.357.171.203.049.544-.232.651-.273.103-.774.089-1.095-.031-.34-.127-.673-.539-.845-1.045-.044-.128-.064-.154-.123-.154h-.071v.77c0 .715.004.771.053.78.033.007.105-.046.194-.14.079-.085.168-.151.201-.151s.166.046.295.101c.462.2 1.001.244 1.473.121.53-.138.875-.495.986-1.017.154-.728-.116-1.321-.737-1.618a6.714 6.714 0 0 0-.744-.253c-.292-.083-.599-.187-.681-.232-.372-.199-.315-.594.104-.733.237-.079.7-.051.921.055.235.113.492.396.65.715.104.209.137.253.194.253h.068v-1.333l-.067.002c-.043.001-.098.046-.156.126-.114.158-.18.165-.461.053a2.102 2.102 0 0 0-1.089-.148m-18.612.035c-.321.075-.59.268-.743.537l-.086.149-.001-.318.001-.319H6.841l.009.097.009.097.23.009.23.009v3.64h-.474v.178h2.667v-.178h-.593l.001-1.193c.001-1.318.02-1.518.171-1.842.097-.206.267-.412.395-.479a.531.531 0 0 1 .201-.043c.155 0 .226.092.187.242-.024.093-.035.1-.178.114a.547.547 0 0 0-.169.033c-.041.041-.068.347-.043.483.053.281.258.443.609.479.332.034.594-.091.74-.353.079-.143.085-.176.084-.465-.002-.351-.037-.462-.206-.649-.194-.215-.605-.313-.962-.23m1.22.146.009.097.225.008.225.008.021 1.792c.011.985.013 1.805.003 1.821-.01.016-.117.029-.238.029h-.221v.178h2.552l-.009-.097-.009-.097-.23-.009-.23-.009V20H10.96l.009.097m9.435.113c-.135.161-.152.279-.152 1.11 0 1.022.051 1.2.341 1.2.287 0 .34-.181.34-1.17 0-.809-.027-1.023-.148-1.153a.25.25 0 0 0-.382.014m4.265.001c-.158.139-.198.306-.216.908l-.015.511h.815l-.015-.556c-.008-.306-.031-.608-.051-.672-.085-.279-.32-.366-.517-.192m-8.971.056c-.215.169-.265.5-.267 1.734-.001 1.029.021 1.292.129 1.517.113.236.383.247.606.024.219-.219.225-.264.215-1.649l-.011-1.197-.089-.178c-.143-.286-.401-.398-.585-.252M3.644 22.475v1.386l.3-.018c.565-.034.767-.235.856-.845.039-.267.037-.961-.002-1.176-.089-.485-.341-.691-.878-.719l-.274-.014v1.386" fill="#ec1c1c" fill-rule="evenodd"/>
</svg>