<svg xmlns="http://www.w3.org/2000/svg" xmlns:xlink="http://www.w3.org/1999/xlink" width="500" zoomAndPan="magnify" viewBox="0 0 375 374.999991" height="500" preserveAspectRatio="xMidYMid meet" version="1.0"><defs><g/><clipPath id="18b4f033e0"><path d="M 157.949219 37.5 L 217.050781 37.5 L 217.050781 96.601562 L 157.949219 96.601562 Z M 157.949219 37.5 " clip-rule="nonzero"/></clipPath><clipPath id="6f40b35861"><path d="M 187.5 37.5 C 171.179688 37.5 157.949219 50.730469 157.949219 67.050781 C 157.949219 83.371094 171.179688 96.601562 187.5 96.601562 C 203.820312 96.601562 217.050781 83.371094 217.050781 67.050781 C 217.050781 50.730469 203.820312 37.5 187.5 37.5 " clip-rule="nonzero"/></clipPath><clipPath id="fad9b3dc07"><path d="M 157.949219 278.398438 L 217.050781 278.398438 L 217.050781 337.5 L 157.949219 337.5 Z M 157.949219 278.398438 " clip-rule="nonzero"/></clipPath><clipPath id="9f9946051b"><path d="M 187.5 278.398438 C 171.179688 278.398438 157.949219 291.628906 157.949219 307.949219 C 157.949219 324.269531 171.179688 337.5 187.5 337.5 C 203.820312 337.5 217.050781 324.269531 217.050781 307.949219 C 217.050781 291.628906 203.820312 278.398438 187.5 278.398438 " clip-rule="nonzero"/></clipPath></defs><g fill="#545454" fill-opacity="1"><g transform="translate(70.136719, 249.700928)"><g><path d="M 64.71875 -7.1875 L 51.78125 -7.1875 L 51.78125 -69.328125 C 52.351562 -86.203125 58.203125 -98.757812 69.328125 -107 C 74.503906 -110.832031 79.679688 -112.75 84.859375 -112.75 C 94.441406 -112.75 101.054688 -107.476562 104.703125 -96.9375 C 106.234375 -92.332031 107 -87.15625 107 -81.40625 L 107 -24.453125 C 107 -15.628906 104.890625 -10.351562 100.671875 -8.625 C 97.984375 -7.664062 93.382812 -7.1875 86.875 -7.1875 L 86.875 0 L 148.71875 0 C 148.71875 -4.21875 147.273438 -6.519531 144.390625 -6.90625 C 143.628906 -7.09375 142.671875 -7.1875 141.515625 -7.1875 L 128.578125 -7.1875 L 128.578125 -80.828125 C 131.640625 -94.828125 138.445312 -104.609375 149 -110.171875 C 153.03125 -112.085938 156.863281 -113.046875 160.5 -113.046875 C 170.28125 -113.046875 177.1875 -107.960938 181.21875 -97.796875 C 183.132812 -93.003906 184.09375 -87.539062 184.09375 -81.40625 L 184.09375 -24.453125 C 184.09375 -15.628906 181.984375 -10.351562 177.765625 -8.625 C 175.078125 -7.664062 170.472656 -7.1875 163.953125 -7.1875 L 163.953125 0 L 227.53125 0 C 227.53125 -4.21875 226.09375 -6.519531 223.21875 -6.90625 C 222.445312 -7.09375 221.484375 -7.1875 220.328125 -7.1875 L 205.671875 -7.1875 L 205.671875 -78.53125 C 205.671875 -98.28125 199.242188 -112.085938 186.390625 -119.953125 C 180.640625 -123.398438 174.410156 -125.125 167.703125 -125.125 C 153.117188 -125.125 141.421875 -118.316406 132.609375 -104.703125 C 130.304688 -101.253906 128.382812 -97.609375 126.84375 -93.765625 C 123.394531 -108.921875 115.820312 -118.703125 104.125 -123.109375 C 100.675781 -124.453125 97.128906 -125.125 93.484375 -125.125 C 79.679688 -125.125 68.269531 -119.273438 59.25 -107.578125 C 55.988281 -103.359375 53.398438 -98.660156 51.484375 -93.484375 L 50.34375 -122.25 L 8.625 -122.25 L 8.625 -115.0625 L 30.203125 -115.0625 L 30.203125 -24.453125 C 30.203125 -15.628906 27.707031 -10.351562 22.71875 -8.625 C 19.84375 -7.664062 15.144531 -7.1875 8.625 -7.1875 L 8.625 0 L 71.90625 0 C 71.90625 -4.03125 70.46875 -6.332031 67.59375 -6.90625 C 66.632812 -7.09375 65.675781 -7.1875 64.71875 -7.1875 Z M 64.71875 -7.1875 "/></g></g></g><g clip-path="url(#18b4f033e0)"><g clip-path="url(#6f40b35861)"><path fill="#f2d7d7" d="M 157.949219 37.5 L 217.050781 37.5 L 217.050781 96.601562 L 157.949219 96.601562 Z M 157.949219 37.5 " fill-opacity="1" fill-rule="nonzero"/></g></g><g clip-path="url(#fad9b3dc07)"><g clip-path="url(#9f9946051b)"><path fill="#a01b16" d="M 157.949219 278.398438 L 217.050781 278.398438 L 217.050781 337.5 L 157.949219 337.5 Z M 157.949219 278.398438 " fill-opacity="1" fill-rule="nonzero"/></g></g></svg>