<svg enable-background="new 0 0 1600 1200" height="1200" viewBox="0 0 1600 1200" width="1600" xmlns="http://www.w3.org/2000/svg"><g fill="#e8e8e8"><path d="m187.4 884.1c68-33.7 146.2-20.3 217.7-7.6 38.1 6.8 76.1 13.1 114.7 16.3 41.3 3.5 82.8 4.2 124.2 2.2 80.1-4 158.8-19.8 237.8-32.9 79-13 159.6-23.2 239.6-13.7 77.9 9.3 153.9 42.2 233.3 35.6 8.9-.7 17.7-2 26.5-3.8 1.9-.4 1.1-3.3-.8-2.9-79.9 16.2-158.4-15.8-236.3-28.7-78-12.9-157.3-5.8-234.9 6.1-80.6 12.3-160.5 29.7-241.9 35.8-82.1 6.1-163.8.3-244.8-14-69.3-12.3-144.1-28.5-212.9-5-8.1 2.8-16 6.1-23.7 9.9-1.7 1-.2 3.6 1.5 2.7z"/><path d="m1128.1 1015.8c-3.7-7.8-24.9-58.2-5.6-57 1.1.1 1.6-1 1.4-1.9-2.5-15.6-2.2-31.6 1-47.2 1.5-7.2 3.6-14.2 6.3-21 2.4-6.1 8.1-23.4 17.3-15.3 5.6 5 5 15.8 5.6 22.6.6 8 .9 16 .9 24.1-.1 16.2-1.5 32.4-4.2 48.4-1.5 8.5-3.3 17-5.5 25.3-1.2 4.5-2.5 8.9-3.8 13.3-1.3 4-2.3 10.1-6.9 11.6-1.8.6-1 3.5.8 2.9 6.4-2.2 7.8-9.8 9.5-15.5 2.9-9.4 5.3-19 7.3-28.7 3.8-19.2 5.8-38.8 5.8-58.4 0-10.2-.5-20.4-1.5-30.5-.7-6.4-1.2-14.2-7-18.3-13.9-9.8-21.3 17.1-24 25.8-6.3 19.9-7.7 40.9-4.4 61.5.5-.6 1-1.3 1.4-1.9-12-.7-11.7 13.6-10.2 21.6 2.6 13.8 7.1 27.2 13.2 39.9.9 2 3.4.4 2.6-1.3z"/><path d="m1158.3 933.5c-.3-6.8.4-13.6 2.3-20.1.9-3.2 2.1-6.3 3.5-9.4.7-1.4 1.4-2.8 2.2-4.1.5-.7 1.1-1.3 1.6-2 3-3 5.5-2.5 7.4 1.6-.3 1.9 2.3 2.7 2.9.8 2-6.6 5.9-14.8 13.9-15.2 8.5-.4 10.8 8.2 11.1 15 .7 13.1-1.6 26.5-5 39.1-7 25.7-19.9 49.4-32.7 72.7-.9 1.7 1.7 3.2 2.6 1.5 15.9-29 32.3-59.1 36.9-92.2 1-7.4 1.7-15 1.1-22.5-.4-5.2-1.8-11-6.2-14.3-4.2-3.1-9.9-2.8-14.3-.4-5.7 3.2-8.6 9.4-10.4 15.4 1 .3 1.9.5 2.9.8.5-3.4-1.4-6.3-4.9-7.1-3.8-.9-7.1 1.6-9.2 4.6-7.1 9.9-9.3 23.9-8.8 35.7.1 2 3.1 2 3.1.1z"/><path d="m1087.7 1064.3c43-23.5 94-22 141.1-15.2 51.3 7.4 102.9 21 155 14.5 28.9-3.6 58.2-13.5 87.4-6.6 1.9.4 2.7-2.4.8-2.9-25.3-6-50.7.3-75.7 4.6-27.1 4.6-54.3 4.2-81.6.9-51.2-6.1-101.7-20.3-153.7-17.6-26 1.3-51.8 7.1-74.8 19.6-1.7 1-.2 3.6 1.5 2.7z"/><path d="m1219.4 995.4c38.3 3.5 75.5-7.7 112.5-16.1 19.5-4.4 39.3-8.2 59.3-8.4 20.9-.3 41.4 3.9 61.9 7.4 21.8 3.8 43.8 6.6 65.8 2.5 1.9-.4 1.1-3.2-.8-2.9-40.9 7.6-80.9-9.4-121.6-10.1-38.1-.6-74.8 11.6-111.7 19.3-21.5 4.5-43.3 7.3-65.3 5.3-2-.1-2 2.9-.1 3z"/><path d="m330.4 862.5c-3.5-3.8-6.6-8.1-8.9-12.8-1.1-2.3-2.1-4.6-2.8-7.1-.6-1.9-1.2-3.9-.8-5.8.4-2.2 2.8-7.1 6.3-3.9 1.1 1 2.9 0 2.5-1.5-5.5-19.8-6.8-39.9-8.2-60.3-1.4-20.3-2.9-41.1 1.1-61.2 1-4.8 1.7-11.8 7.1-13.5 6.7-2.2 11.4 4.9 13.3 10.2 3.4 9.2 5.5 19.2 7.7 28.8 4.7 20.4 7.9 41.1 9.8 61.9 2 22.9 2.3 45.9 1 68.8-.1 1.9 2.9 1.9 3 0 2.7-46.6-1.5-93.6-12.7-138.9-1.4-5.6-2.8-11.1-4.4-16.6-1.3-4.4-2.7-8.9-5.6-12.4-3.9-4.6-11.3-7.1-16.4-2.9-3 2.5-4 6.7-4.8 10.3-1.2 5.3-2.1 10.6-2.6 16-1.2 11.5-1 23.1-.4 34.7 1.4 25.5 2.5 51.4 9.3 76.1.8-.5 1.7-1 2.5-1.5-5.5-5.1-11.8 1.4-11.5 7.4.4 9.7 7.2 19.6 13.5 26.4 1.2 1.4 3.3-.7 2-2.2z"/><path d="m359.7 776.1c-4.1-9.5-1.8-19.7.7-29.3 2.2-8.7 4.4-17.2 4.4-26.2.1-10.2-.6-20.1 2-30.1 1.2-4.6 2.9-9 5-13.3.9-1.8 2-4.7 3.5-6 4.5-4 6.8 3.4 7.8 6.2 6.8 18.7 8 38.9 8.3 58.6.4 20.7-.2 41.4-1.7 62-1.7 23.7-4.7 47.3-8.8 70.8-.3 1.9 2.6 2.7 2.9.8 8.3-47 12.1-95 10.3-142.6-.4-11-1.3-22.1-3.5-32.9-1-5.3-2.4-10.6-4.1-15.7-1.2-3.5-2.4-8.3-5.6-10.6-7-5.1-11.7 7.4-13.6 11.9-3.9 9.1-5.8 18.8-5.8 28.7 0 6.6.5 13.2-.2 19.8-.7 6.4-2.6 12.5-4.1 18.7-2.6 10.3-4.5 20.7-.2 30.8.9 1.6 3.5.1 2.7-1.6z"/><path d="m224.1 642.8c57-42.5 115.2-85.3 181.3-112.9 32.6-13.6 67.1-23.1 102.4-25.9 39-3.1 78.2 2.1 116 11.9 77.2 20.2 147.3 59.2 220.3 90.2 70.7 30.1 144.8 49.8 220.4 62.7 75.7 12.9 152.3 19.6 228.8 25.5 9.5.7 19 1.5 28.5 2.2 1.9.1 1.9-2.9 0-3-78.3-5.9-156.7-11.9-234.3-24-76.7-11.9-152.8-29.8-224.9-58.9-73.2-29.5-142.4-68.8-218.1-91.9-36.8-11.2-75-18.6-113.6-18.6-35.5 0-70.6 6.8-104 18.4-67.1 23.4-126.5 64.3-183.3 106.1-7 5.2-14 10.4-21 15.6-1.6 1.2-.1 3.8 1.5 2.6z"/><path d="m1086.9 667c61.3 1.3 120.5-16.5 179.3-31.5 30.2-7.7 60.6-14.8 91.6-18.1 30.9-3.4 62.1-2.6 92.7 3.2 34.6 6.5 67.9 19.1 98.2 36.9 1.7 1 3.2-1.6 1.5-2.6-52.9-31-114.5-45.8-175.7-41.9-62.4 3.9-121.9 24.4-182.5 38.2-34.5 7.9-69.7 13.6-105.2 12.9-1.8-.1-1.8 2.9.1 2.9z"/><path d="m1405.1 874.8c42.8-6.5 86.5-6.7 129.4-.4 1.9.3 2.7-2.6.8-2.9-43.5-6.3-87.5-6.1-131 .4-1.9.3-1.1 3.1.8 2.9z"/><path d="m88.3 783.1c32.3-39.2 67.3-76.2 104.7-110.5 1.4-1.3-.7-3.4-2.1-2.1-37.5 34.3-72.5 71.2-104.7 110.5-1.2 1.5.9 3.6 2.1 2.1z"/><path d="m1250.3 238.1c-13.5 4.7-24.1-6.6-30.7-16.9-6.5-10-11.2-20.9-11.2-33.1.1-22.9 15.4-43 36.6-51 19.6-7.3 43.5-3.4 58.7 11.4 15.7 15.3 19.7 39.1 9.8 58.5-2.8 5.5-6.4 10.7-10 15.7-2.1 2.9-4.1 6.1-7 8.4-3.4 2.6-7.2 3.1-11.3 3.6-14 1.7-28.1 3.2-42.2 4.8-1.9.2-1.9 3.2 0 3 15.2-1.7 30.7-2.8 45.8-5.2 12.3-2 18.9-14.4 24.7-24.3 11.8-20.1 10.9-44.6-4.3-62.8-15.1-18.1-41.7-24-63.7-16.5-22.1 7.6-38.6 27.5-40.1 51.1-.9 14.9 5 28.6 13.3 40.6 7.2 10.4 18.7 20.2 32.2 15.5 2-.5 1.2-3.4-.6-2.8z"/><path d="m336.8 275.7c-4.2-10.3 6.8-18.7 16.1-19.4 9.9-.7 19.4 3.5 29 5.3 18.1 3.5 36.7 2.1 54.2-3.7 16.8-5.6 33.2-14.8 51.3-15.2 18.6-.3 35.2 10.7 54 8.4 9.1-1.1 17.9-4 27.1-4.7 8.5-.7 21.3.9 24.3 10.6s-10.6 17.8-17.8 21.3c-8 3.9-16.9 6-25.7 6.1-9.4 0-17.8-2.8-26.6-5.7-8.1-2.7-16.1-4.3-24.6-4.1-16.2.3-31.8 5.5-47.3 9.8-9.6 2.7-19.4 5.2-29.4 6-10.3.8-19.7-1-29.6-3.4-9.8-2.4-18.4-1.5-28.3-.1-5.9.8-12.1 1.3-17.6-1.6-4.9-2.6-8.9-7.2-7.7-13.1.4-1.9-2.5-2.7-2.9-.8-1.5 6.9 2.5 12.7 8.5 16.1 8.1 4.6 17.1 2.7 25.9 1.4 6.1-.9 11.8-1.1 17.9.1 5.4 1.1 10.7 2.9 16.2 3.8 8.6 1.4 17.3.9 25.9-.4 19.6-3.2 38.1-11.1 57.7-13.9 10.5-1.5 20.9-1.1 31.1 2 9.5 2.9 18.5 6.6 28.5 6.9 16.1.6 37.2-5.8 46.6-19.8 4.2-6.3 2.9-13.6-2.8-18.4-6.3-5.5-15.1-6.4-23.1-5.6-10.3 1-20.2 4.5-30.5 5-11.5.6-22.1-3.8-33.1-6.6-20.5-5.2-38.5 1.5-57.5 8.9-11.6 4.5-23.2 8.2-35.7 9.3-13.6 1.2-26.6-.8-39.8-4.2-9.4-2.4-20.2-4.9-29 .6-6.7 4.2-11.3 12.1-8.2 19.9.7 1.7 3.6 1 2.9-.8z"/><path d="m1172.9 440.8c14.4-14 35.3-13.8 54.1-12 22 2.1 43.3 4.9 65.5 2.5 11.4-1.3 22.5-3.7 33.6-6.6 11.6-3 23.5-6.2 35.7-5.8 12.3.4 23.8 5.3 35.9 7 11 1.5 22.1.2 33-1.9 9.8-1.8 19.5-4.8 29.6-4.3 8.9.4 19.8 4.9 19 15.7-.8 10.1-12.2 17.1-21.3 18.6-11.6 1.8-23.4-2.4-34.9-3.3-21.6-1.7-37.9 12.8-58.4 16.5-21.6 3.9-41.9-8-62.4-12.4-25.2-5.3-49.1 5.7-73.7 9.7-12.3 2-26.6 4.7-39 2.2-6.1-1.3-11.9-4.3-14.9-10-2.7-5.3-2.8-11.7 1.7-16 1.4-1.3-.7-3.5-2.1-2.1-5.8 5.5-5.5 14.2-1.5 20.8 4.8 7.9 14 10.6 22.7 11.1 25.6 1.5 50.6-7.2 75.2-12.4 13.7-2.9 26.3-1.9 39.7 1.9 11.2 3.2 22 7.6 33.5 9.7 10.9 2 21.4 1.4 31.8-2.4 10.9-3.9 21.1-10 32.5-12.6 21.6-4.9 45.9 11 65.3-4.2 6.5-5.1 11-13.3 7.9-21.5-2.7-7.1-9.6-10.6-16.7-11.6-9.2-1.4-18.1.6-27.1 2.5-14.3 3-28.9 5.4-43.5 2.6-12.6-2.4-24.5-6.9-37.6-6.3-12.4.6-24.4 4.2-36.4 7.2-15.2 3.8-30.7 6-46.4 6.3-13.6.2-27-1.5-40.5-3-21.3-2.4-45.6-3.9-62.2 12.2-1.6 1.1.5 3.2 1.9 1.9z"/><path d="m521.6 1120.7c-4.5-4.1-8.4-8.7-11.6-13.9-1.5-2.4-2.9-5-4-7.6-.6-1.5-1.6-3.7-1.4-5.4.3-2.9 3.1-7.3 6.5-4.6 1.3 1.1 3.2-.2 2.4-1.8-3.8-7.4-6.1-15.9-5.7-24.3.1-1.6.3-3.1.9-4.6.5-1.3 1.2-2.5 2.1-3.6 1.8-1.8 3.4-1.8 4.8.2 3.7 2.7 5.2 7.9 6.9 12 6.1 14.6 10.6 29.8 13.7 45.3 1-.3 1.9-.5 2.9-.8-2.7-7.5-4.8-15.2-6.1-23.1-.9-5.6-2.5-24.2 9-18 7.4 4 8.8 15.9 8.8 23.4.1 8.3-1.5 16.4-3.1 24.5-.4 1.9 2.5 2.7 2.9.8 2-10.3 4.1-21 2.8-31.6-1-7.7-4.4-20-13.7-21.2-7.4-.9-10.4 6.6-10.6 12.7-.4 11.1 3.4 23.1 7.1 33.4.7 1.8 3.3 1.1 2.9-.8-2.3-11.6-5.5-23.1-9.5-34.2-1.8-5-3.7-9.9-5.9-14.8-1.6-3.7-3.2-9-7.1-11.1-6.2-3.4-10.6 3.5-11.6 8.7-1.8 9.5 1.5 20.4 5.7 28.8l2.4-1.8c-6.1-5.1-12.3 2.2-11.4 8.6 1.5 10.2 10.5 20.3 17.7 27.1 1.5 1.1 3.6-1 2.2-2.3z"/><path d="m401.2 368c22.2-4.5 44.8-9 67.6-7 21.9 1.9 42.6 9.7 63.8 15.1 41.4 10.4 84.3 14.1 126.9 14 24.4-.1 48.7-1.3 73-3.3 1.9-.2 1.9-3.2 0-3-43.4 3.4-87.2 4.8-130.7.8-22.1-2-44.1-5.5-65.7-10.7-20.6-5-40.6-12.5-61.7-15.2-24.9-3.2-49.7 1.6-74 6.5-1.9.3-1.1 3.2.8 2.8z"/><path d="m635.2 368.2c73.4-3.8 144.7-28.8 218.7-24.2 1.9.1 1.9-2.9 0-3-73.9-4.6-145.3 20.5-218.7 24.2-2 .1-2 3.1 0 3z"/><path d="m1239.1 867.4c-2.9-7.3-4.4-15-4.3-22.9 0-4 .5-8 1.4-11.9.8-3.6 4.8-12.9 9.4-7 .8 1 2.7.2 2.6-1.1-1-8.6-.8-17.2.8-25.7.7-3.7 1.7-7.4 3-11 .8-2.2 1.6-4.6 2.7-6.7 1.6-3 3.4-3.8 6.4-5.3 5.4-2.5 5.5-9 6.8-14.2 1.8-7.1 3.9-14.3 8-20.4 2.4-3.6 6.9-9.4 11.8-8.1 3.9 1 5.3 5.2 6 8.8 1.6 7.9.5 16.7.1 24.7-.9 17.7-3.2 35.4-6.8 52.7-4 19-9.7 37.6-16.8 55.7-.7 1.8 2.2 2.6 2.9.8 14.8-37.4 23.1-77.3 24.1-117.6.2-7.8 1.2-33.8-14.2-27.8-6.5 2.6-10.9 10.5-13.5 16.6-1.5 3.5-2.6 7.1-3.6 10.7-1.5 5.5-1.5 12.3-6.8 15.5-3.1 1.9-5.1 2.7-6.9 6.3-2.1 4.1-3.6 8.8-4.8 13.3-2.7 10.3-3.4 21-2.1 31.6.9-.4 1.7-.7 2.6-1.1-2-2.5-5.3-3.1-8.2-1.8-3.9 1.8-5.3 6.3-6.2 10.1-2.8 12.1-1.6 24.8 2.9 36.4.5 2 3.4 1.2 2.7-.6z"/><path d="m1210.7 862.2c-4.3-6.7-8.5-13.7-10.7-21.5-1-3.6-1.6-7.3-1.4-11 .3-4.1 2-7.3 3.4-11.1 2.2-6.1-1.3-11.9-2.7-17.8-.7-2.8-4.8-27.7 4-24.3 1.1.4 2.1-.8 1.8-1.8-2.9-12.9-5.9-26.6-1.8-39.5 1.8-5.7 9.1-20.5 16.6-13.7 4.6 4.2 7.2 12 9.3 17.6 9.2 25.3 13.2 53.4 15 80.2.1 1.9 3.1 1.9 3 0-1.2-17.5-3.6-34.9-7.3-52-3.2-15-6.7-31.7-15.4-44.7-2.7-4-6.6-7.4-11.7-5.3-5.4 2.2-9.1 8.8-11.2 13.8-5.9 14.3-2.6 29.9.6 44.5.6-.6 1.2-1.2 1.8-1.8-5.3-2.1-8.5 3.9-9.3 8.4-1.6 10 2.1 19.3 4.4 28.8 1.4 5.8-2.1 9.9-3.1 15.3-.8 3.8-.6 7.6.1 11.4 1.7 9.5 6.9 18.2 12 26.3 1 1.3 3.6-.2 2.6-1.8z"/><path d="m1291 811.9c2.7-9.3 5.5-18.6 11.2-26.5 5.5-7.6 11.9-14.8 18-21.9 3.2-3.6 6.4-7.2 9.9-10.5 1.8-1.7 3.6-3.5 5.9-4.7 4.5-2.4 7.5.7 8.7 4.8 2.7 9.4.5 19.6-1.9 28.9-9.2 35.2-25.2 68.5-46.6 98-1.1 1.6 1.5 3.1 2.6 1.5 19.7-27.1 34.7-57.4 44.3-89.5 2.3-7.7 4.6-15.6 5.4-23.6.7-6.5.9-15.5-3-21.1-8.2-11.6-25.2 11.5-29.7 16.8-5.8 6.8-12 13.6-17.1 21-5.3 7.8-8 16.9-10.6 25.9-.6 1.9 2.3 2.7 2.9.9z"/><path d="m1285.2 734.3c-3.8 46.6-13.8 92.4-29.7 136.3-.7 1.8 2.2 2.6 2.9.8 16-44.2 26-90.3 29.8-137.1.1-1.9-2.9-1.9-3 0z"/><path d="m1258 774.6c5.4 20.3 8.2 41 8.4 62 0 1.9 3 1.9 3 0-.2-21.2-3-42.3-8.5-62.8-.5-1.9-3.4-1.1-2.9.8z"/><path d="m1271.6 751.9c3.5 13.8 5.2 27.9 5.3 42.1 0 1.9 3 1.9 3 0-.1-14.5-1.9-28.9-5.4-42.9-.5-1.9-3.4-1.1-2.9.8z"/><path d="m1263.1 859.8c7.7-6 14.6-12.9 20.6-20.5 1.2-1.5-.9-3.6-2.1-2.1-6.1 7.7-12.9 14.5-20.6 20.5-1.5 1.2.6 3.3 2.1 2.1z"/><path d="m1211 719.9c8.7 36.3 15.5 73 20.2 110 .2 1.9 3.2 1.9 3 0-4.8-37.3-11.6-74.3-20.3-110.8-.4-1.9-3.3-1.1-2.9.8z"/><path d="m1199.1 754.3c8.8 5.3 16.3 12.1 22.3 20.5 1.1 1.6 3.7.1 2.6-1.5-6.3-8.8-14.1-16-23.3-21.5-1.8-1.1-3.3 1.5-1.6 2.5z"/><path d="m1237.4 775.2c-3.6 9-6.5 18.2-8.7 27.7-.4 1.9 2.4 2.7 2.9.8 2.2-9.4 5.1-18.7 8.7-27.7.7-1.8-2.2-2.6-2.9-.8z"/><path d="m1198.9 820.6c11 3.1 21.7 6.7 32.3 10.9 1.8.7 2.6-2.2.8-2.9-10.6-4.2-21.4-7.8-32.3-10.9-1.9-.5-2.7 2.4-.8 2.9z"/><path d="m1339.8 749.2c-13.3 46.3-50.1 81.8-61.9 128.7-.5 1.9 2.4 2.7 2.9.8 11.8-46.9 48.6-82.4 61.9-128.7.6-1.9-2.3-2.7-2.9-.8z"/><path d="m1313 768.7c-2.5 16.2-5.1 32.4-7.6 48.6-.3 1.9 2.6 2.7 2.9.8 2.5-16.2 5.1-32.4 7.6-48.6.3-1.9-2.6-2.7-2.9-.8z"/><path d="m1316 804.3c8.9-6.4 18.2-12.2 27.9-17.5 1.7-.9.2-3.5-1.5-2.6-9.7 5.2-19 11-27.9 17.5-1.6 1.2-.1 3.8 1.5 2.6z"/><path d="m1287.3 862.3c9.1-10.7 22.1-16.1 34.9-21.2 1.8-.7 1-3.6-.8-2.9-13.2 5.3-26.7 10.9-36.2 22-1.3 1.5.8 3.6 2.1 2.1z"/><path d="m1142 871.8c3.7 23.4.6 46.9-2.9 70.2-3.4 22.9-6.8 45.9-10.2 68.8-.3 1.9 2.6 2.7 2.9.8 3.6-24.2 7.3-48.4 10.8-72.6 3.3-22.5 5.9-45.3 2.3-67.9-.4-2-3.2-1.2-2.9.7z"/><path d="m1122.5 914.5c3.4 14 8 27.6 13.8 40.8.8 1.8 3.4.2 2.6-1.5-5.6-13-10.1-26.3-13.5-40.1-.5-1.8-3.4-1-2.9.8z"/><path d="m1152.6 886.1c-1.4 9.1-4.7 17.4-9.9 24.9-1.1 1.6 1.5 3.1 2.6 1.5 5.3-7.7 8.8-16.4 10.2-25.7.2-1.8-2.7-2.6-2.9-.7z"/><path d="m1193.9 887.6c-12.3 42.7-28 84.3-46.8 124.6-.8 1.7 1.8 3.3 2.6 1.5 18.9-40.5 34.7-82.4 47.1-125.3.5-1.8-2.4-2.6-2.9-.8z"/><path d="m1186 885.8c-.4 9.7-.7 19.3-1.1 29-.1 1.9 2.9 1.9 3 0 .4-9.7.7-19.3 1.1-29 .1-1.9-2.9-1.9-3 0z"/><path d="m1163.8 898.8c-5.4 22.6 0 46.2 3.2 68.8.3 1.9 3.2 1.1 2.9-.8-3.1-22-8.4-45.1-3.2-67.2.5-1.9-2.4-2.7-2.9-.8z"/><path d="m1159.4 990.9c9.7-2.4 18.7-6.5 26.8-12.3 1.6-1.1.1-3.7-1.5-2.6-7.9 5.6-16.6 9.6-26.1 12-1.9.4-1.1 3.3.8 2.9z"/><path d="m325.9 697.7c10.1 54.6 16.4 109.9 18.7 165.3.1 1.9 3.1 1.9 3 0-2.3-55.8-8.6-111.3-18.8-166.1-.4-1.9-3.3-1.1-2.9.8z"/><path d="m315 761.1c10.6 13.3 19.1 28 25.3 43.8.7 1.8 3.6 1 2.9-.8-6.4-16.3-15.1-31.4-26-45.1-1.2-1.5-3.4.6-2.2 2.1z"/><path d="m345 724.4c-3.6 14.9-6.3 30-8.2 45.2-.2 1.9 2.8 1.9 3 0 1.8-14.9 4.5-29.7 8.1-44.4.4-1.9-2.5-2.7-2.9-.8z"/><path d="m376.4 670.7c1.8 65.3-1.4 130.6-9.6 195.4-.2 1.9 2.8 1.9 3 0 8.2-64.8 11.4-130.1 9.6-195.4-.1-1.9-3.1-1.9-3 0z"/><path d="m359.6 739.4c7.2 17.1 12.2 35 14.9 53.4.3 1.9 3.2 1.1 2.9-.8-2.7-18.4-7.7-36.3-14.9-53.4-.8-1.7-3.7-1-2.9.8z"/><path d="m371.1 852.5c4.3-8.4 10-15.7 17-22 1.4-1.3-.7-3.4-2.1-2.1-7.2 6.4-13.1 14-17.5 22.6-.9 1.7 1.7 3.2 2.6 1.5z"/><path d="m366.8 681.8c2.6 8.3 5.5 16.4 8.7 24.5.7 1.8 3.6 1 2.9-.8-3.3-8-6.2-16.2-8.7-24.5-.6-1.9-3.5-1.1-2.9.8z"/><path d="m152 1075.8c65.6-6.4 132-4.4 197 6.2 18.3 3 36.6 6.7 54.7 11 1.9.4 2.7-2.4.8-2.9-64.1-15.3-130-22.3-195.9-20.8-18.9.5-37.8 1.6-56.6 3.5-1.9.1-2 3.1 0 3z"/><path d="m740 1104.5c.1-4.3 10.8-5.1 13.4-4.8 4.4.4 8.6 2.7 11 6.4 7.9 12.2-8.1 17.1-17.3 14.1-1.8-.6-2.6 2.3-.8 2.9 6.4 2.2 14.9 1.9 20.1-3.2 4.4-4.3 3.5-11.2.2-15.9-3.7-5.2-9.8-7.8-16.1-7.4-4.4.3-13.4 2.3-13.5 7.9 0 1.9 3 1.9 3 0z"/><path d="m739.5 1102.9c6.4-9 19.8-13.1 29.8-16.3 11.1-3.5 22.6-5.6 34.3-6.2 1.9-.1 1.9-3.1 0-3-13.1.7-26.1 3.1-38.5 7.4-10 3.5-21.8 7.6-28.2 16.6-1.1 1.6 1.5 3.1 2.6 1.5z"/><path d="m805.1 1080.8c7.7.9 13.9 6.9 15.4 14.4.4 1.9 3.3 1.1 2.9-.8-1.8-9-9.3-15.5-18.3-16.6-2-.2-1.9 2.8 0 3z"/><path d="m808.8 1077.7c11.2-7 22.1 2 24.4 13.3.4 1.9 3.3 1.1 2.9-.8-2.8-13.3-16-23.1-28.8-15.1-1.6 1.1-.1 3.7 1.5 2.6z"/><path d="m821.2 1097.3c6.2 2 12.8-1.5 15-7.5.7-1.8-2.2-2.6-2.9-.8-1.6 4.5-6.8 6.9-11.3 5.4-1.9-.6-2.7 2.3-.8 2.9z"/><path d="m739.1 1101.4c-5.2 3-4.9 10.1-2.9 15 2.2 5.6 7.6 9.3 13.7 7.8 1.9-.5 1.1-3.3-.8-2.9-4.7 1.1-8.5-1.9-10.1-6.1-1.3-3.4-2.2-9 1.7-11.2 1.6-1 .1-3.6-1.6-2.6z"/><path d="m740.5 1112.8c-3-8.1 11.6-13 16.7-8.4 3.2 2.9 2.4 7.5-1 9.9-1.5 1.1-3.4 1.9-5.3 1.5-6.7-1.3-1.2-9 2.1-4.6 1.2 1.5 3.8 0 2.6-1.5-3.9-5.1-12.5-2.5-10.9 4.4 1.7 7.6 12.5 4.9 15.8.2 4.6-6.6-.4-14.6-8-14.7-7.2-.1-18.1 5.1-14.8 13.9.6 1.9 3.5 1.1 2.8-.7z"/><path d="m764.4 1120.6c21-4.5 41-12.2 59.6-22.9 1.7-1 .2-3.6-1.5-2.6-18.4 10.6-38.2 18.1-58.9 22.6-1.9.4-1.1 3.3.8 2.9z"/><path d="m820.8 1073c17-14.3 34-31.3 55.8-37.8 1.8-.6 1.1-3.4-.8-2.9-22.3 6.7-39.7 24-57.1 38.6-1.5 1.2.7 3.3 2.1 2.1z"/><path d="m876.4 1036.3c11.2 3.8 19.3 13.8 20.5 25.6.2 1.9 3.2 1.9 3 0-1.3-13.2-10.1-24.3-22.7-28.5-1.8-.6-2.6 2.3-.8 2.9z"/><path d="m835.9 1092.7c20.5-9.1 40.9-18.6 61.1-28.5 1.7-.8.2-3.4-1.5-2.6-20.2 9.9-40.6 19.3-61.1 28.5-1.8.8-.2 3.4 1.5 2.6z"/><path d="m807.9 1079.1c.7-.5 1.4-.9 2-1.4.7-.5 1-1.3.5-2.1-.4-.7-1.4-1-2.1-.5s-1.4.9-2 1.4c-.7.5-1 1.3-.5 2.1.4.6 1.4 1 2.1.5z"/><path d="m511.2 1054.3c1.9 22.4 6.9 44.3 15 65.2.7 1.8 3.6 1 2.9-.8-8-20.7-13.1-42.3-14.9-64.4-.1-1.9-3.1-1.9-3 0z"/><path d="m506 1099.2c6.2 3.2 11.7 7.4 16.6 12.5 1.3 1.4 3.4-.7 2.1-2.1-5-5.3-10.7-9.6-17.2-12.9-1.7-1-3.2 1.6-1.5 2.5z"/><path d="m527.9 1084.2c-4.3 6.2-6.2 13.4-5.5 20.9.2 1.9 3.2 1.9 3 0-.6-7 1.1-13.5 5.1-19.4 1-1.5-1.6-3-2.6-1.5z"/><path d="m536.8 1075.9c2.9 12.4 3.8 25 2.5 37.7-.2 1.9 2.8 1.9 3 0 1.2-12.9.3-25.8-2.7-38.5-.3-1.8-3.2-1-2.8.8z"/><path d="m532.4 1080.3c2.4 4.6 4.8 9.3 7.2 13.9.9 1.7 3.5.2 2.6-1.5-2.4-4.6-4.8-9.3-7.2-13.9-.9-1.7-3.5-.2-2.6 1.5z"/></g><circle cx="591.6" cy="436.8" fill="#ec615b" r="16.9"/><circle cx="1136.2" cy="801.6" fill="#ec615b" r="12.2"/><circle cx="1154" cy="785.2" fill="#ec615b" r="5"/><circle cx="345.3" cy="478" fill="#ec615b" r="8.6"/><circle cx="377.7" cy="495.8" fill="#5222d0" r="9.4"/><circle cx="674" cy="709.1" fill="#5222d0" r="5.2"/><circle cx="1079.5" cy="214.8" fill="#5222d0" r="9"/><circle cx="1119.5" cy="248" fill="#5222d0" r="6.8"/><circle cx="1112.5" cy="756.6" fill="#5222d0" r="7"/><circle cx="644" cy="219.3" fill="#5222d0" r="4.5"/><path d="m533.1 599.4c-1.2-1.6 0-4.4 1.5-5.3 1.9-1.2 4.5-.6 6.5-.1 2.1.5 4 1.5 6 2 2.6.7 5.5 1 8.1 0 2.8-1.1 4.2-3.3 4.8-6.1.6-2.4.4-5.4 2.4-7.3 1.9-1.9 4.9-2.1 7.4-2.1 6.4.1 12.7 3.7 16.2-3.7 1.8-4 2.1-8.4 6.5-10.7 5.3-2.8 11.7-.4 16.9 1.4 1.8.6 2.6-2.2.8-2.9-7.9-2.8-19.3-5.4-24.2 3.9-.8 1.6-1.3 3.4-1.9 5-.6 1.5-1.3 4.1-2.9 4.8-1.8.8-5.1-.1-7-.4-3.7-.5-7.6-.9-11.2.7-3.6 1.7-4.8 4.6-5.5 8.4-1.8 10.1-9.8 5.4-16.4 3.8-3.6-.9-7.5-.6-10 2.4-1.9 2.3-2.4 5.2-.6 7.6 1.1 1.7 3.7.2 2.6-1.4z" fill="#5222d0"/><path d="m556.3 615.6c1-5.8 5.5-9 11.3-8.7 3.2.1 6.7 1.2 9.9.2 2.2-.7 3.9-2.2 4.8-4.3 2.1-4.6 2.1-8.5 6.6-11.9 3.8-2.9 8.3-3.8 12.9-2.7 2.9.7 6 2 9 .9 3.2-1.2 4.7-4.9 7.6-6.8 3.7-2.4 8.2-3.2 12.4-3.9 1.9-.3 1.1-3.2-.8-2.9-3.9.7-7.8 1.5-11.3 3.2-1.6.8-3 1.7-4.3 2.9-2.6 2.4-3.7 4.8-8 4.6-3.7-.1-6.6-1.9-10.5-1.4-3.5.5-6.8 2-9.5 4.2-2.5 2.1-4.5 4.8-5.5 8-1.1 3.3-1.8 7.3-6.3 7.4-2.1.1-4.2-.4-6.3-.5-7.3-.6-13.6 3.4-14.9 10.8-.3 2 2.5 2.8 2.9.9z" fill="#5222d0"/><path d="m1083.4 587c6.5 1.2 9.9 9.7 17.3 6.9 4.3-1.6 6.9-5.6 11.9-5.7 5.5-.1 8 4.5 12.7 6 7.8 2.5 14-6.1 21.5-4.7 6.8 1.3 11 9.5 18.6 7.3 1.9-.5 1.1-3.4-.8-2.9-6.7 1.9-11.9-7.4-18.8-7.6-3.1-.1-6.1 1.2-8.8 2.4-5.7 2.6-9.3 4.2-14.8.1-5.5-4.2-11.8-4.8-17.7-.9-1.8 1.2-3.2 2.5-5.3 3.1-3.1.9-5.1-.7-7.4-2.6-2.4-1.9-4.6-3.8-7.7-4.4-1.8-.3-2.6 2.6-.7 3z" fill="#5222d0"/><path d="m1104 577.1c5.1 4.1 11-1.6 16.4 1.8 5.1 3.2 8 4.2 13.8 2.2 3.2-1.1 6.4-2.7 9.9-2.2 2.8.5 5 2.6 7.9 2.9 2.7.3 5-1.2 7.4-2.3 4.8-2.1 9.5-1.9 14 1 1.6 1.1 3.1-1.5 1.5-2.6-4.7-3-10.1-3.8-15.4-1.8-1.6.6-3.5 2.1-5.2 2.4-2.5.4-4.5-.7-6.7-1.7-2-.9-3.9-1.2-6.1-1-2.8.3-5.4 1.5-8.1 2.3-4.3 1.4-7.1 1.2-10.9-1.5-2.1-1.5-4-2.3-6.6-2.2-3 .1-7.1 2.6-9.8.5-1.5-1.1-3.6 1-2.1 2.2z" fill="#5222d0"/><path d="m774.1 666.8c.4-5.3 6.5-5.1 9.7-3.3 1.6.9 2.9 2.2 4.2 3.5 2.3 2.2 4.5 4.7 7.4 6.1 5.4 2.4 8.7-.5 13.2-3.1 14.2-8 24.7 18 39 8.9.8-.5.1-1.8-.8-1.3-9.5 6.1-18.4-5.7-26.3-9.2-2.6-1.2-5.4-1.9-8.2-1.4-4.1.7-6.8 4.3-10.7 5.3-9.2 2.5-12.7-10.5-21-11.4-4-.5-7.8 1.9-8.1 6 0 .9 1.5.9 1.6-.1z" fill="#e8e8e8"/><path d="m1027.9 724.1c1.8-7.1 7.9-10.8 15-10.2 3.6.3 6.5.2 8.9-2.9 2.8-3.7 2.9-8.7 6.3-12.2 4-4 10.1-5.2 15.5-6.2.9-.2.5-1.6-.4-1.4-5 .9-10.4 2-14.5 5.1-3.9 3-4.9 7.1-6.8 11.4-2.5 5.5-6.3 4.5-11.4 4.6-2 0-3.9.5-5.7 1.3-4.3 2-7.2 5.7-8.4 10.2-.2.9 1.2 1.3 1.5.3z" fill="#e8e8e8"/><path d="m1062.1 718.5c0-5.1 3.1-10 8-11.6 3.5-1.2 7.2.2 10.7-1 5.6-2 8.4-9 14.7-9.3 1-.1 1-1.6 0-1.5-3.1.2-5.4 1.6-7.7 3.6-1.8 1.6-3.4 3.5-5.5 4.7-3.3 2.1-6.3 1.2-9.8 1.5-7 .6-12 6.8-12 13.6.1 1 1.6 1 1.6 0z" fill="#e8e8e8"/><path d="m694 284.9c1.6 4.8 5.1 11.1 11.1 8.1 3.6-1.8 5.3-5.7 9.6-6.5 4.8-.9 9.8 1.5 12.1 5.8.6 1.2 2.3.8 2.7-.4 3-8.7 14-9.4 18.4-1.5.9 1.7 3.5.2 2.6-1.5-5.7-10.4-20-8.9-23.8 2.2.9-.1 1.8-.2 2.7-.4-2.6-4.9-7.8-7.7-13.3-7.4-2.5.1-4.9.8-6.9 2.3-1.3.9-2.3 2.6-3.7 3.4s-5.8.2-7-1c-.9-.9-1.3-2.8-1.6-3.9-.6-1.8-3.5-1-2.9.8z" fill="#ec615b"/><path d="m737.8 271.7c1.9 1.5 3.7 1.5 6 .8 3.1-.9 5.1-2.8 7.8.7.9 1.2 1.2 2.8 2.4 3.9 2.2 2.2 5.4 2.5 8.4 2.2 3.5-.3 13.5-2.7 13 3.8-.1 1.9 2.9 1.9 3 0 .7-9.2-11.4-6.9-16.7-6.7-3.9.1-5.7-1.5-7.5-4.7-.8-1.4-1.6-2.6-3.1-3.3-3.4-1.5-8.6 3.1-11.2 1.1-1.5-1.1-3.7 1-2.1 2.2z" fill="#ec615b"/><path d="m424.4 816.1c-1.1-3.5-.9-7.1 1-10.2 2-3.2 5.1-4.2 8-6.1 3.7-2.5 5.1-5.9 5.7-10.2.3-2.3.3-4.6.9-6.9 1.1-4 3.6-5.8 7.3-7.4 3.4-1.4 6.5-2.6 8.7-5.7 1.1-1.6-1.5-3.1-2.6-1.5-3.2 4.4-9.5 4.3-13.3 8-3.8 3.8-3.2 9.2-4.1 14-1.3 7.3-7.9 7.7-12 12.6-3.3 4-4.1 9.4-2.5 14.2.6 1.8 3.5 1 2.9-.8z" fill="#ec615b"/><path d="m425.8 782.9c7.4-4.4 1.2-15.2 8.7-19.4 4-2.3 7.6-3.3 10.8-6.9 3.1-3.5 5.1-7.7 7.1-11.9.8-1.7-1.8-3.3-2.6-1.5-2 4.2-4 8.4-7.2 11.8-3.4 3.7-8 4.1-11.7 7.1-5.5 4.5-1.1 14.8-6.7 18.2-1.6 1-.1 3.5 1.6 2.6z" fill="#ec615b"/><path d="m832.3 657.2c-6.1.7-11-4.7-10-10.8 1-5.8 6.5-10.3 12.3-10.7 4.7-.3 10 1.6 12.2 6.1 2.4 4.9.2 11.6-4.9 13.5-1.8.7-1 3.6.8 2.9 6.1-2.4 9.3-9 7.7-15.4-1.9-7.4-10-11-17.2-10-7 1-13.4 6.8-14.1 14-.7 7.4 5.6 14.1 13.1 13.3 2-.1 2-3.1.1-2.9z" fill="#ec615b"/><path d="m377.3 987.4c6.3-6.8 15.9-16.3 28.8-26 11.1-8.4 20.1-13.5 31.5-19.9 16.3-9.1 36.6-20.2 60.3-32.9 36.4-3.4 67-5.8 89.8-7.5 42.4-3.2 110.5-8.3 188.5-10.3 16.1-.4 31.5-.7 31.5-.7 43.6-.8 54.6-.1 100.1-.7 33.4-.4 33.2-.8 51.4-.7 27.4.2 49.9 1.2 65.1 2.1 9.1.7 27.6 2.1 45.9 4.1 3.6.4 8.9 1 15.8 2.7 8.3 2.1 14.9 4.8 19.2 6.9-5.4 8.2-10.9 16.4-16.4 24.7-18.1 26.8-36.5 52.3-54.8 76.8-2.9 1.8-8.2 4.6-15.1 6.9-14.7 4.8-27.2 3.7-31.5 3.4-18-1.3-61.7-.5-125.4 1.4-28.3-.7-56.7-1.4-85-2.1-8.2 12.6-16.4 25.1-24.7 37.7-54.8-3-109.6-5.9-164.5-8.9 11-12.1 21.9-24.2 32.9-36.3-81.2-7-162.3-13.9-243.4-20.7z" fill="#fff"/><path d="m434.8 969.8c49.4 3.3 98.7 7.1 148 11.5 1.9.2 1.9-2.8 0-3-49.3-4.4-98.6-8.2-148-11.5-1.9-.1-1.9 2.9 0 3z" fill="#161616"/><path d="m815.2 994.7c51.6-.4 103.3.7 154.9 3.3 1.9.1 1.9-2.9 0-3-51.6-2.6-103.2-3.7-154.9-3.3-1.9 0-1.9 3 0 3z" fill="#161616"/><path d="m524.2 939.5c25 4.4 50.4 3.8 75.7 3.6 26.8-.2 53.6.4 80.4 1.3 52.9 1.9 105.8 5.4 158.7 7.6 30.4 1.3 60.9 2.1 91.3 2.1 1.9 0 1.9-3 0-3-106 .3-211.6-10.9-317.5-11-29.3 0-58.8 1.7-87.8-3.4-1.8-.4-2.7 2.5-.8 2.8z" fill="#161616"/><path d="m765.2 918.1c75.2.1 150.4 2.3 225.5 6.6 1.9.1 1.9-2.9 0-3-75.1-4.3-150.3-6.5-225.5-6.6-1.9 0-1.9 3 0 3z" fill="#161616"/><path d="m1104.2 903.6c-22.2 33.9-45.4 67-69.7 99.3-1.2 1.5 1.4 3 2.6 1.5 24.3-32.3 47.6-65.5 69.7-99.3 1.1-1.6-1.5-3.1-2.6-1.5z" fill="#161616"/><path d="m403 966.5c30.8-21.3 62-42.7 96.8-57 1.8-.7 1-3.6-.8-2.9-35.1 14.4-66.5 35.9-97.6 57.3-1.5 1.1 0 3.7 1.6 2.6z" fill="#161616"/><path d="m496.9 909.9c79.4-7.3 158.9-12.6 238.5-15.7s159.3-4.3 239-3.1c22.3.3 44.6.9 66.8 2.9 21.4 1.9 43.8 4.1 63.8 12.4 1.8.7 2.6-2.2.8-2.9-17-7.1-35.7-9.4-53.9-11.4-19.9-2.2-39.9-3.2-59.9-3.7-39.9-1-79.9-.9-119.8-.5-80 .7-160 3.6-239.9 8.6-45.2 2.8-90.4 6.3-135.5 10.5-1.9.1-1.9 3.1.1 2.9z" fill="#161616"/><path d="m779 1017.2c74.5 2.5 149 2.6 223.4-.2 12.8-.5 27.1-2 35-13.4 1.1-1.6-1.5-3.1-2.6-1.5-7.9 11.3-23.2 11.6-35.6 12-17.1.5-34.2 1.2-51.4 1.5-36 .7-72 .7-108 .1-20.3-.3-40.6-.9-60.9-1.5-1.8-.1-1.8 2.9.1 3z" fill="#161616"/><path d="m401.5 963.8c-8.8 7.7-17.6 15.4-26.4 23.1-1.1.9-.1 2.5 1.1 2.6 80.9 7 161.8 14 242.7 19.4 1.9.1 1.9-2.9 0-3-81-5.5-161.9-12.4-242.7-19.4.4.9.7 1.7 1.1 2.6 8.8-7.7 17.6-15.4 26.4-23.1 1.3-1.4-.8-3.5-2.2-2.2z" fill="#161616"/><path d="m652.9 976.8c-23.3 20.5-45.2 42.4-65.6 65.7-1.3 1.4.8 3.6 2.1 2.1 20.4-23.3 42.4-45.3 65.6-65.7 1.5-1.3-.6-3.4-2.1-2.1z" fill="#161616"/><path d="m654 978.9c48.7-4.7 97.7-3.5 146.1 3.7 1.9.3 2.7-2.6.8-2.9-48.6-7.3-97.9-8.6-146.9-3.8-1.9.2-1.9 3.2 0 3z" fill="#161616"/><path d="m798.6 981.6c-16.4 23.5-32.9 47-49.3 70.5-1.1 1.6 1.5 3.1 2.6 1.5 16.4-23.5 32.9-47 49.3-70.5 1.1-1.6-1.5-3.1-2.6-1.5z" fill="#161616"/><path d="m587.7 1046c54 2.7 108.1 5.3 162.1 8 1.9.1 1.9-2.9 0-3-54-2.7-108.1-5.3-162.1-8-1.9-.1-1.9 2.9 0 3z" fill="#161616"/><path d="m629.6 1027.2c8.4 1.5 16.7 2.9 25.1 4.4 1.9.3 2.7-2.6.8-2.9-8.4-1.5-16.7-2.9-25.1-4.4-1.9-.3-2.7 2.6-.8 2.9z" fill="#161616"/><path d="m649.1 1018c-5.1 5.3-9.9 10.9-14.4 16.8-1.2 1.5 1.4 3 2.6 1.5 4.4-5.6 9-11 14-16.2 1.2-1.3-.9-3.5-2.2-2.1z" fill="#161616"/><path d="m663.2 1019.5c.1-5.2 4-8.6 9.1-8.5 2.5 0 4.8.8 7.3.4 4.6-.7 8.6-3.6 10.7-7.6 1.5-2.7 1.9-5.8 4.2-8 2.5-2.4 6-3.5 9.4-3.8 3.1-.3 6.5-.1 9.5 1 2.5 1 5.1 2.9 5.2 5.9.1 2.3-1.3 4.7-3.9 4.8.1 1 .3 2 .4 2.9 2.7-.4 5.7 2.5 6.5 4.8.4 1.1.5 2.5.4 3.6-.1 2.6-1.4 5.3-3.1 7.3s-3.9 3.6-6.4 4.3c-2.2.6-2.6.7-4.2-1.1-1.8-2.1-1-2.5.9-4.1 8.6-7.2 15.7 2.2 24.5 2.5 6 .2 11.7-3.5 12.9-9.6.6-3-.3-5.7-1.8-8.4-1.7-3-2.7-3.6-2-7.3-.5-2.2.2-3.3 2.1-3.3 1.1-.5 2.1-.5 3.1.2 2.4.7 3.8 2.3 5.3 4.3 1.1 1.5 3.7.1 2.6-1.5-3.1-4.3-8.5-8.4-13.9-5.2-5.1 3-3.3 8.3-.8 12.4 2.6 4.4 4.4 9-.2 13-5.2 4.5-11.1 1.5-16.2-1-5.2-2.5-11-2.8-16 .5-3 1.9-7.4 6.9-4.1 10.5 3.6 3.8 11.1.6 14.3-2 4.1-3.3 6.8-8.8 6-14.2-.9-5.4-5.1-9.6-10.6-8.7-1.7.3-1.3 3 .4 2.9 6.1-.1 8.7-7.5 5.5-12.2-4.4-6.5-15.4-6.6-22-4.2-3.3 1.2-6.2 3.3-8 6.4-1.3 2.2-1.7 4.9-3.1 7-2.2 3.2-6.1 5.1-10 5.1-4.6-.1-8.2-1.4-12.2 1.6-3.1 2.3-4.6 5.7-4.6 9.4-.2 1.9 2.8 1.9 2.8-.1z" fill="#161616"/><path d="m823 456.6c-.2 23.9-.5 47.7-.7 71.6 56.2-1.6 112.4-3.3 168.5-4.9 11.5 8.9 22.9 17.8 34.4 26.7-3-17.6-6.1-35.1-9.1-52.7-.9-14.5-1.9-29-2.8-43.5-63.4.9-126.9 1.9-190.3 2.8z" fill="#5222d0"/><path d="m816.9 279.2c-1.9 34.6-3.8 69.1-5.6 103.7-9.9 12.3-19.8 24.7-29.7 37 11.8-3.2 23.6-6.4 35.4-9.6 70.2-2.4 140.4-4.8 210.6-7.2-1.9-41.5-3.8-83.1-5.6-124.6-68.5.2-136.8.4-205.1.7z" fill="#ec615b"/><path d="m934.8 325.2c1.4 24.9 19.3 45.4 43.8 50 1.9.3 2.7-2.5.8-2.9-23.2-4.3-40.3-23.5-41.6-47.1-.2-2-3.2-2-3 0z" fill="#e8e8e8"/><path d="m979.3 375.1c9.6.7 18.2-13.4 21.7-20.8 4.6-10 6-21 3.9-31.7-.4-1.9-3.3-1.1-2.9.8 1.8 9.3.8 18.8-2.8 27.6-1.8 4.3-4.1 8.4-7.1 12-2.9 3.6-7.7 9.5-12.8 9.1-1.9-.2-1.9 2.8 0 3z" fill="#e8e8e8"/><path d="m987.7 372c4 4.9 9.4 8.3 15.5 10 1.9.5 2.7-2.4.8-2.9-5.7-1.6-10.5-4.7-14.2-9.2-1.2-1.5-3.3.7-2.1 2.1z" fill="#e8e8e8"/><path d="m1000.3 352.7c1.2 1.9 2.5 3.7 4 5.4 1.4 1.5 3.9 2.8 5.1 4.4 3.5 4.7-3.2 13.8-6.1 17.4-1.2 1.5 1.4 3 2.6 1.5 3.3-4.3 7.9-11.5 7.7-17.3-.1-1.6-.7-2.5-1.8-3.6-3.2-3.4-6.4-5.3-9-9.4-1-1.6-3.6-.1-2.5 1.6z" fill="#e8e8e8"/><path d="m998.4 355.7c-.5 4.8-1.7 9.4-3.8 13.8-.3.7-1 1.6-1.2 2.3-.5 1.8.8-1.1 1.1-1.5 1.2-2.1 2.2-4.3 3.2-6.4-.9-.4-1.8-.8-2.7-1.2-.9 2.9-2.4 5.1-4.8 7.1.8.6 1.6 1.2 2.4 1.8 2.1-3.5 4.1-7 6.2-10.6 1-1.7-1.5-3-2.6-1.5-2.2 3-4.4 6-6.6 8.9-1 1.4 1.2 3.1 2.4 1.8 2.4-2.8 4.2-5.8 5.4-9.2.7-1.8-2.2-2.6-2.9-.8-1.1 3-2.6 5.5-4.7 7.9.8.6 1.6 1.2 2.4 1.8 2.2-3 4.4-6 6.6-8.9-.9-.5-1.7-1-2.6-1.5-2.1 3.5-4.1 7-6.2 10.6-.9 1.6 1.1 2.8 2.4 1.8 2.8-2.2 4.6-5 5.6-8.4.5-1.6-2-2.7-2.7-1.2-1.1 2.1-2.2 4.3-3.2 6.4-.6 1.2-1.6 2.7-1.4 4.1.1 1.7 1.8 3.2 3.6 2.6 2.4-.8 3.6-5.2 4.4-7.3 1.6-4 2.5-8.2 3-12.5-.1-1.8-3.1-1.8-3.3.1z" fill="#e8e8e8"/><path d="m970.6 370.6c-8.3-1.3-15.3 4.1-20.9 9.7-6.2 6.2-10.8 13.7-12.4 22.3-.4 1.9 2.5 2.7 2.9.8 1.3-7.1 4.7-13.3 9.5-18.7 4.8-5.5 12.2-12.5 20.1-11.2 1.9.3 2.7-2.6.8-2.9z" fill="#e8e8e8"/><path d="m960.6 328.7c3.1 8.1 6.6 16.1 10.3 23.9.6 1.2 2.4.8 2.7-.4.9-3.6 1.3-7.1 1.1-10.8-.1-1.9-3.1-1.9-3 0 .2 3.4-.1 6.7-1 10 .9-.1 1.8-.2 2.7-.4-3.6-7.6-7-15.3-10-23.2-.6-1.7-3.5-.9-2.8.9z" fill="#e8e8e8"/><path d="m946.7 339.6c-.7-1.3.6-2.7 1.8-3.1 1.8-.6 3.7.1 5.5.6 1.8.6 2.6-2.3.8-2.9-2.9-.9-6.4-1.6-9 .4-2 1.6-2.9 4.2-1.6 6.5.8 1.7 3.4.2 2.5-1.5z" fill="#e8e8e8"/><path d="m978.1 332.8c1-4.4 5.9-6.3 9.4-3.1 1.4 1.3 3.6-.8 2.1-2.1-5-4.6-12.9-2.3-14.4 4.4-.4 1.9 2.5 2.7 2.9.8z" fill="#e8e8e8"/><path d="m984.5 336.1c-.1.1-.3.3-.4.4-.6.6-.6 1.5 0 2.1s1.5.6 2.1 0c.1-.1.3-.3.4-.4.6-.6.6-1.5 0-2.1s-1.5-.6-2.1 0z" fill="#e8e8e8"/><path d="m991.2 333.3c.1.3.3.5.4.8.4.7 1.4.9 2.1.5s.9-1.3.5-2.1c-.1-.3-.3-.5-.4-.8-.4-.7-1.4-.9-2.1-.5s-.9 1.3-.5 2.1z" fill="#e8e8e8"/><path d="m990.3 340.1c.1.1.3.3.4.4.6.6 1.5.6 2.1 0s.6-1.5 0-2.1c-.1-.1-.3-.3-.4-.4-.6-.6-1.5-.6-2.1 0s-.6 1.5 0 2.1z" fill="#e8e8e8"/><path d="m949 346.8v.4c0 .8.7 1.5 1.5 1.5s1.5-.7 1.5-1.5c0-.1 0-.3 0-.4 0-.8-.7-1.5-1.5-1.5-.9 0-1.5.6-1.5 1.5z" fill="#e8e8e8"/><path d="m955.8 344c-.5 0-.9 0-1.4 0 .6.5 1.5.6 2.1 0s.6-1.6 0-2.1c-.9-.8-2-.8-2.9 0-.6.5-.5 1.6 0 2.1.7.6 1.6.5 2.2 0z" fill="#e8e8e8"/><path d="m957.4 349.1c0-.1 0-.3 0-.4 0-.8-.7-1.5-1.5-1.5s-1.5.7-1.5 1.5v.4c0 .8.7 1.5 1.5 1.5.8-.1 1.5-.7 1.5-1.5z" fill="#e8e8e8"/><path d="m950.1 322.2c-2.5-1.6-5.7-.8-7.5 1.5-.5.6-.1 1.7.5 2.1.8.5 1.6.1 2.1-.5.8-1 2.3-1.1 3.3-.4 1.8.9 3.3-1.7 1.6-2.7z" fill="#e8e8e8"/><path d="m974 318.8c1.2-.5 2.5-.8 3.9-.9 1.9-.1 1.9-3.1 0-3s-3.7.5-5.4 1.3c-.7.3-.9 1.4-.5 2.1s1.2.8 2 .5z" fill="#e8e8e8"/><path d="m974.7 360.8c4.4.4 8.5-2.5 9.9-6.7.6-1.8-2.3-2.6-2.9-.8-1 3-3.9 4.8-7 4.5-1.9-.2-1.9 2.8 0 3z" fill="#e8e8e8"/><path d="m1013.3 364.4c3.3-.2 6.4.5 9.3 2.1 1.7.9 3.2-1.7 1.5-2.6-3.4-1.8-7-2.7-10.8-2.5-1.9.1-1.9 3.1 0 3z" fill="#e8e8e8"/><path d="m939.3 292.4c-8.4 3.8-14.9 11.2-17.2 20.2-1.4 5.5-.4 10.9-.6 16.5-.3 6.3-3.2 11.9-5.1 17.8-5.5 17.1 3.9 35.9 21.3 41.1 1.9.5 2.6-2.3.8-2.9-8.3-2.5-15-8.6-18.5-16.5-3.8-8.7-2.3-16.9.9-25.5 1.4-3.7 2.8-7.4 3.3-11.4.6-4.8-.4-9.6.1-14.4.9-9.9 7.6-18.3 16.5-22.3 1.7-.8.2-3.3-1.5-2.6z" fill="#e8e8e8"/><path d="m937 325c10.7-5 18.7-13.7 22.9-24.7.7-1.8-2.2-2.6-2.9-.8-3.9 10.2-11.6 18.3-21.5 22.9-1.8.8-.2 3.4 1.5 2.6z" fill="#e8e8e8"/><path d="m961.2 299.7c3.3 5.8 10.2 8.4 16.3 10.4 7.7 2.6 15.8 3.7 23.9 3.6 1.9 0 1.9-3 0-3-6.7.1-13.3-.7-19.7-2.5-6.2-1.7-14.5-4.1-17.9-10.1-.9-1.6-3.5-.1-2.6 1.6z" fill="#e8e8e8"/><path d="m1002.1 315.4c2.3-4.1 8.2-3.6 9.6 1.1 1.4 4.6-2.4 8.4-6.8 8.9-1.9.2-1.9 3.2 0 3 6.7-.8 12.3-7.1 9.2-13.9-2.9-6.2-11.3-6.3-14.6-.5-.9 1.5 1.6 3 2.6 1.4z" fill="#e8e8e8"/><path d="m1004 326.5c-2.2 12.8-.9 30.1 10.1 38.8 1.5 1.2 3.6-.9 2.1-2.1-10-7.9-11.4-24-9.3-35.8.4-2-2.5-2.8-2.9-.9z" fill="#e8e8e8"/><path d="m938.8 295.8c6.6-3.4 13.6-7.1 21.2-7 6.5.1 11.9 3.1 18.5 1.9 6.9-1.2 13.2-4.4 20.4-4.8 7.4-.4 15.4.8 20.6 6.5 1.3 1.4 3.4-.7 2.1-2.1-10.1-11-26.3-7.3-38.8-3.7-5 1.5-9.4 1.9-14.5.6-3.6-.9-6.9-1.6-10.7-1.3-7.2.7-13.9 4-20.2 7.3-1.8.9-.3 3.5 1.4 2.6z" fill="#e8e8e8"/><path d="m937.7 385.4c-.3.1-.7.2-1 .2-1.6.4-1.3 2.4 0 2.9 2.4 1 4.9 1.3 7.5 1 1.9-.2 1.9-3.2 0-3-2.3.3-4.5 0-6.7-.9v2.9c.3-.1.7-.2 1-.2 1.8-.4 1-3.3-.8-2.9z" fill="#e8e8e8"/><path d="m834.9 315.7c1.5 2.3 5.1 1.8 5.6-1 .2-.9-1.2-1.3-1.4-.4-.3 1.4-2 1.9-2.9.7-.5-.8-1.8-.1-1.3.7z" fill="#e8e8e8"/><path d="m846.4 314.6c.6 1 1.3 2.1 2.6 2.3 1.1.2 2.1-.3 2.5-1.4.3-.9-1.1-1.3-1.4-.4-.2.4-.8.3-1.1.1-.5-.3-.8-.9-1.1-1.5-.7-.7-2 0-1.5.9z" fill="#e8e8e8"/><path d="m843.2 317.3c.1.2.2.4.3.6v-.1c-.1.2-.1.4-.2.5 0 0 0-.1.1-.1-.2.1-.4.1-.5.2h.1c-.2-.1-.4-.2-.6-.4-.2-.3-.3.3-.3.5 0 .4.1.9.1 1.3s0 .8-.2 1.1c-.1.2-.5.5-.7.3-.7-.6-1.8.4-1.1 1.1.7.6 1.5.6 2.3.1s1.1-1.4 1.1-2.4c0-.7-.1-1.2.1-1.8.1-.4.1-.7-.1-1-.6-.8-1.5-.2-1.6.6 0 .2.2.5.4.6h.1c.8.7 1.6-.6.7-1.1z" fill="#e8e8e8"/><path d="m842.5 317.9c.3 1.4-.1 2.9 1 4.1.8.9 2 1.1 3 .3.7-.6-.3-1.7-1.1-1.1-.6.5-1.2-1-1.2-1.3-.1-.8-.1-1.6-.2-2.4-.3-.9-1.7-.5-1.5.4z" fill="#e8e8e8"/><path d="m836.7 310.8h2.2c1 0 1-1.5 0-1.5-.7 0-1.5 0-2.2 0-1 0-1 1.5 0 1.5z" fill="#e8e8e8"/><path d="m847.6 311.1c.7 0 1.3.1 1.9.5.8.5 1.6-.8.8-1.3s-1.7-.7-2.6-.7c-1.1 0-1.1 1.5-.1 1.5z" fill="#e8e8e8"/><path d="m842.6 327.9c-9.8.6-8.9-9.8-11.2-16.2-.6-1.9-1.7-3.5-2.4-5.4-2.6-7.4 3.1-2.2 5 .5.6.8 1.9 0 1.3-.8-1.1-1.6-5.1-7.5-7.5-6.8-2.5.7-.9 6-.3 7.5 1.1 3 2.6 5.4 3.2 8.6.5 2.9.6 5.9 2.1 8.5 2 3.6 5.6 5.8 9.7 5.5 1 .1 1-1.4.1-1.4z" fill="#e8e8e8"/><path d="m835.7 307.3c4.8-2.6 9.8-2.8 14.7-.5.4.2.8.1 1-.3 1.3-2.4 2.9-4.2 5.1-5.8-.4-.2-.9-.4-1.3-.5.2 5.5.4 11.3-.5 16.7-1.3 7.6-6.3 10.4-13.5 11.3-.9.1-1 1.6 0 1.5 5.9-.8 11.3-2.2 13.8-8.1 2.7-6.4 2-14.6 1.7-21.4 0-.7-.8-.9-1.3-.5-1.4 1.1-3 4-4.5 4.8-1.7.9-3.7-.4-5.6-.6-3.7-.4-7.2.5-10.5 2.2-.7.4 0 1.7.9 1.2z" fill="#e8e8e8"/><path d="m834.9 325.5c-2.7 4.4-1.7 9.7-.9 14.6 1.2 7.5 3.4 14.8 5.6 22 .3.9 1.7.5 1.4-.4-1.6-5.4-3.3-10.9-4.5-16.4-1.3-5.7-3.6-13.7-.3-19 .5-.8-.8-1.6-1.3-.8z" fill="#e8e8e8"/><path d="m839.5 361.5c-1.9.3-8 2.3-6.1 5.3.7 1.1 2.2 1.3 3.4 1.4 2.3.2 4.6-.2 6.8-.9.9-.3.5-1.7-.4-1.4-2 .6-5.2 1.6-7.3.8-.4-.2-1.2-.9-1-1.4.1-.3 1-.7 1.4-.9 1.2-.6 2.4-1.1 3.7-1.3.9-.4.5-1.8-.5-1.6z" fill="#e8e8e8"/><path d="m843.9 338.3c.7 8.2 1.6 16.3 2.8 24.5.1 1 1.6.5 1.4-.4-1.2-8-2.1-16-2.8-24.1.1-1-1.4-1-1.4 0z" fill="#e8e8e8"/><path d="m847.3 362.2c-2.2.3-6.1 2.2-4.1 5.1 2.2 3.1 8.4.5 11-.5.9-.3.5-1.8-.4-1.4-1.7.7-3.4 1.3-5.2 1.6-.8.1-2.3.4-3.1 0-1.3-1.5-1.2-2.5.3-2.9.5-.2 1-.3 1.5-.3.9-.2.9-1.7 0-1.6z" fill="#e8e8e8"/><path d="m854.5 321.6c4 2.4 4.9 6.5 6.7 10.5 1.3 2.9 2.9 4.9 5.3 7 3.5 3 6.7 5.3 8 10.1 1.3 5 .2 10.2-1.2 15-.3.9 1.2 1.3 1.4.4 2.4-8.3 3.3-17.4-3.7-23.8-1.6-1.5-3.5-2.7-5-4.2-2.2-2.3-3.3-4.9-4.4-7.8-1.4-3.5-2.9-6.5-6.2-8.5-1-.5-1.7.8-.9 1.3z" fill="#e8e8e8"/><path d="m866.5 346.7c-3.3-.5-6 2.3-7 5.4-1.4 4.2 2.2 8.4 4.6 11.4.2-.4.4-.9.5-1.3-3.2.3-5.8 1.3-8.4 3.2-.3.2-.5.7-.3 1 2.5 3.2 8.2 1.8 11.7 1.8 3.7-.1 7.4-.4 7.3-5.1 0-1-1.5-1-1.5 0 .1 4.8-9.4 3.7-12 3.7-.6 0-1.1 0-1.7 0-1.9-.3-2.3-.7-1.2-1.2.5-1.3 5-1.8 6.1-1.9.7-.1.9-.8.5-1.3-1.3-1.7-3.1-3.7-3.8-5.8-1-2.7.2-9.2 4.8-8.5 1 .2 1.4-1.2.4-1.4z" fill="#e8e8e8"/><path d="m853.1 353.6c.4 4 .6 8 .7 12 0 1 1.5 1 1.5 0-.1-4-.3-8-.7-12-.1-.9-1.6-.9-1.5 0z" fill="#e8e8e8"/><path d="m854.7 362.8c3.1 1.5 6.4 1.8 9.6.8.9-.3.5-1.7-.4-1.4-2.9.8-5.8.6-8.5-.7-.8-.4-1.6.9-.7 1.3z" fill="#e8e8e8"/><path d="m875.8 357.9c2.8-1.9 4.8-4.4 5.5-7.8 1.1-5.4-2.3-10.4.1-15.7 1.9-4.1 5.1-7.2 6-11.7 1-5.1-1-10.3.2-15.4.3-1.2.7-2.8 1.6-3.8.9-2 2.3-1.5 4 1.6-.2.5-.4 1-.6 1.5-.3 2.5-2.2 5.1-2.7 7.7-.4 2.3-.2 4.6-.5 6.9-.4 3.3-2 5.9-3.5 8.9-2.1 4.3-1.7 8.1-1.5 12.8.3 7.1-2.5 13-8.9 16.4-.9.5-.1 1.8.8 1.3 4.2-2.3 7.5-5.8 8.9-10.4 2.2-7-.8-13.7 2.7-20.6 1.3-2.7 2.6-5 3-8 .5-3.5.2-6.5 1.3-10 .8-2.5 5.3-9.3 1.9-11.7-2.2-1.5-5.1 1.1-6.2 2.7-3 4.2-2.1 9.6-1.9 14.5.2 4.5-.6 8-3 11.8-1.3 2-2.7 4-3.5 6.3-2.7 7.8 4.3 15.5-4.4 21.5-.8.5-.1 1.8.7 1.2z" fill="#e8e8e8"/><path d="m909.7 384c-3.5-.7-6.6.4-9.4 2.6-2 1.5-4.6 3.7-4.2 6.5 1.2 7.3 12.7 3 16.3.6 1.6-1.1.1-3.7-1.5-2.6-1.5 1-3 1.8-4.7 2.3-1.1.3-2.2.6-3.3.6-1.5.1-2.1.2-2.9-1.3s-.4-1.5.7-2.6c.7-.7 1.4-1.2 2.2-1.8 1.8-1.2 3.8-1.9 6-1.5 1.9.5 2.7-2.4.8-2.8z" fill="#e8e8e8"/><path d="m906.7 383.1c-.6-4.5-1.9-8.8-4.2-12.8-1.5-2.6-4.8-8.3-8.3-8.7-7.6-.9.6 19 1.9 21.7.9 1.7 3.4.2 2.6-1.5-1.5-3.1-2.7-6.2-3.5-9.5-.4-1.7-1.2-4.2-1-5.8 0-.5-.1-.9-.1-1.4.8.4 1.5 1 2.1 1.7 4.2 4.3 6.7 10.4 7.5 16.3.3 1.8 3.3 1.9 3 0z" fill="#e8e8e8"/><path d="m898.8 381.7c-2.2-4.2-11.3-18.4-17.5-12.9s4.9 17.4 8.8 21c1.4 1.3 3.5-.8 2.1-2.1-2.1-2-4.1-4.1-5.7-6.4-.9-1.3-5.3-7.8-3.8-9.2l3.6-.6c.9.6 1.7 1.3 2.5 2 .9.8 1.8 1.8 2.7 2.7 1.9 2.1 3.4 4.5 4.7 7 .9 1.8 3.5.3 2.6-1.5z" fill="#e8e8e8"/><path d="m889.9 388.6c-3.4-2.8-8.4 0-8.1 4.3.4 5.8 6.9 7 11.4 5.7 1.9-.5 1.1-3.4-.8-2.9-2.4.7-5.7.9-7.2-1.7-.6-1-.7-2.2.2-3 .6-.6 1.7-.9 2.4-.3 1.4 1.3 3.5-.8 2.1-2.1z" fill="#e8e8e8"/><path d="m883.4 392.9c-4.2 1.3-4.2 6.3-1.8 9.3s7 5 10.4 2.4c1.5-1.2-.6-3.3-2.1-2.1-1.6 1.2-4.2-.4-5.3-1.5-1.2-1.2-2.8-4.4-.3-5.2 1.8-.6 1-3.5-.9-2.9z" fill="#e8e8e8"/><path d="m908 384.2c7.3 0 9.5 13.7 8.1 18.8-.5 1.9 2.4 2.7 2.9.8 2-7.2-1.4-22.6-11-22.6-2 0-2 3 0 3z" fill="#e8e8e8"/><path d="m836.6 488.4h103.5c1.9 0 1.9-3 0-3-34.5 0-69 0-103.5 0-1.9 0-1.9 3 0 3z" fill="#e8e8e8"/><path d="m863.1 501.8h95.3c1.9 0 1.9-3 0-3-31.8 0-63.6 0-95.3 0-1.9 0-1.9 3 0 3z" fill="#e8e8e8"/><path d="m952.6 487.9h12c1.9 0 1.9-3 0-3-4 0-8 0-12 0-1.9 0-1.9 3 0 3z" fill="#e8e8e8"/><path d="m986.7 496.9c-3.7-1.7-6.5-4.7-7.5-8.7-.5-1.9-.9-4.7.4-6.4 2.5-3.5 5.5 1.3 6.3 3.8.4 1.3 2.6 1.5 2.9 0 .1-.7.3-1.4.5-2.1.8-3 2.7-2.7 5.8.7.5 1.8-.7 4.8-1.5 6.3-1.7 3.4-4.5 5.8-7.9 7.5-1.7.8-.2 3.4 1.5 2.6 6.4-3 13.4-11.8 10.2-19.3-1-2.3-3.4-4.1-6-3.7-3.5.5-5 4.2-5.6 7.2h2.9c-1.7-5.5-8.9-11.9-12.2-3.8-2.9 7.1 2.3 15.5 8.7 18.5 1.7.8 3.2-1.8 1.5-2.6z" fill="#e8e8e8"/><path d="m566.7 864.3c-2.3 15.6-4.6 31.3-6.9 46.9-42.3 12.9-63 21.3-62.2 25 1 4.6 33.6 2.4 98-6.6.9-22.4 1.9-44.7 2.8-67.1-10.6.6-21.1 1.2-31.7 1.8z" fill="#161616"/><path d="m587.2 721.2c-2.1 1.6-3.3 3.4-7.8 12.1-3.6 6.9-5.3 10.4-6.5 13-8.1 18.4-16 47.3-16 47.3-6.3 22.9-9.5 34.3-11.7 46.4-3.2 17.1-4.5 31.6-5.2 42.1 5.9 2.7 13 5.4 21.3 7.4 19.6 4.7 36.5 3.3 47.7 1.3 2-14.1 4.8-29.4 8.7-45.5 3.4-14.4 7.3-27.7 11.3-39.9 4.3 2.7 10.6 6.9 18.2 12.1 24.9 17.3 32.7 25.7 47.3 35.1 9.6 6.2 23.8 14 43.4 20 4.5-.6 16.8-2.8 27.3-13 15.8-15.5 14.2-36.5 13.9-39.5-6.6-7-15.9-16.4-27.8-26.5-21-17.8-39.1-28.7-52-36.4-10.4-6.2-22-11.9-45.1-23.4 0 0-27.1-13.4-52-15.6-4.4-.4-10.3-.6-15 3z" fill="#fff"/><path d="m541.2 880.8c2.6-26.2 7.4-52.1 14.3-77.4 3.4-12.4 7.3-24.7 11.7-36.9 4.4-12.1 8.8-24.8 15-36.2 3.7-6.8 8.7-9.1 16.2-9.4 6.8-.3 13.6.6 20.2 2.2 12.1 2.8 23.8 7.5 35.2 12.4 21.6 9.2 42.4 20.5 61.9 33.7 22.2 15 42.7 32.3 61.2 51.7 1.3 1.4 3.5-.7 2.1-2.1-35-36.5-77.2-65.9-123.7-85.8-11.4-4.9-23-9.5-35.1-12.5-10-2.4-25.5-5.7-34.6.8-3.9 2.8-6.1 7.3-8.1 11.6-2.6 5.7-5 11.5-7.4 17.3-5.3 13.1-10 26.4-14.1 40-8.9 29.5-14.9 59.9-17.9 90.6-.1 1.9 2.9 1.9 3.1 0z" fill="#161616"/><path d="m540.6 882.2c20.6 11.6 44.8 14.9 67.8 9.2 1.9-.5 1.1-3.4-.8-2.9-22.2 5.5-45.6 2.4-65.5-8.9-1.7-.9-3.2 1.6-1.5 2.6z" fill="#161616"/><path d="m611.4 889.2c3.5-28.5 9.9-56.6 18.9-83.9.6-1.8-2.3-2.6-2.9-.8-9.1 27.6-15.4 55.9-19 84.7-.2 1.9 2.8 1.9 3 0z" fill="#161616"/><path d="m621 802.4c40.1 20.4 70 59.6 115.1 70.1 1.9.4 2.7-2.5.8-2.9-44.8-10.5-74.6-49.5-114.4-69.8-1.7-.9-3.2 1.7-1.5 2.6z" fill="#161616"/><path d="m575.2 892.4c10.2-32.4 21.4-65.4 33.7-99 2.9-8 5.9-15.9 8.9-23.8 20.9 11 41.9 22 62.8 33 29.2 15.4 58.4 30.9 87.6 46.5-.8 3.7-3.7 13.8-12.8 19.2-6.8 4-14.3 3.7-22.3 2.1-24.8-5-40.4-20-71.6-43.3-7.1-5.3-18-13.3-31.9-22.7-2.7 7.6-5.3 15.5-7.8 23.8-6.7 22.4-11 43.5-13.8 62.8-5.8 1.5-13.5 2.8-22.3 2.5-3.9-.2-7.4-.6-10.5-1.1z" fill="#6d6c6c" opacity=".12"/><path d="m627 803.3c-2.5-1-12.6 17.8-15.6 23.4-7.7 14.3-17.7 35.4-27 63.5 1.9.8 4.3 1.7 7.1 2.1 7.4 1.3 13.4-.5 16.7-1.8 5.3-27.8 10.7-49.9 14.9-65.6 2.6-9.8 5.7-20.8 3.9-21.6z" fill="#6d6c6c" opacity=".12"/><path d="m470.5 876.4c-6.8 17.8-13.7 35.7-20.5 53.5-39.9 13.3-59.3 22.1-58.4 26.4 1.1 5 29.7 4 85.8-3.1 6.7-21.7 13.4-43.3 20.2-65-9.1-3.9-18.1-7.8-27.1-11.8z" fill="#161616"/><path d="m527.8 702.5c-7.7 5.4-12.1 11.8-14.3 15.2-9.6 14.5-14.5 21.8-17.8 28.2-9.4 18.1-15.4 33.3-18.2 40.8-9.5 25.1-14.3 45.5-18.7 63.8-3.2 13.7-5.5 25.1-6.9 33 4 4.8 9.7 10.5 17.3 15.6 16 10.7 32.1 13.2 40.8 13.9 7.3-21.1 14.2-38.9 20-52.9 6.1-15 10.6-25 18.7-36.4 5.8-8.3 11.5-14.5 15.6-18.7 4.5 6.3 11 14.8 19.5 24.3 10.5 11.7 29.7 32.8 60.7 51.2 25.1 14.9 44.8 20.2 64.6 25.6 20.6 5.6 26.9 5 31.7 2.2 19.7-11.6 9.7-57.9 9.1-60.7-19.3-14.8-33.6-27.9-43.4-37.3-8.8-8.5-18.7-18.8-36-34.3-4.6-4.1-9.4-8.4-16-13.9-3.1-2.6-14.6-12-34.3-25.6 0 0-25-17.3-49.4-29.9 0 0-6.2-3.2-16.9-6.5-8.9-2.7-12.6-2.9-16-2.2-1.2.1-4.7.9-10.1 4.6z" fill="#fff"/><path d="m524.9 702.8c-44.1 49-62.7 114.2-74.9 177.5-.4 1.9 2.5 2.7 2.9.8 12.1-62.8 30.4-127.6 74.1-176.2 1.4-1.4-.8-3.6-2.1-2.1z" fill="#161616"/><path d="m451 883.8c14.6 16.9 34.7 28.2 56.7 31.8 1.9.3 2.7-2.6.8-2.9-21.6-3.5-41.1-14.5-55.4-31-1.2-1.5-3.3.6-2.1 2.1z" fill="#161616"/><path d="m510.6 914.2c6.4-19.9 14-39.3 23-58.2 8.2-17.1 16.6-36.8 31.3-49.4 1.5-1.3-.7-3.4-2.1-2.1-14.9 12.8-23.5 32.7-31.7 50-9.1 19.1-16.8 38.8-23.3 58.9-.7 1.8 2.2 2.6 2.8.8z" fill="#161616"/><path d="m554.3 793.8c41.1 56.6 97.1 107.4 169.1 117 1.9.3 1.9-2.7 0-3-70.8-9.4-126-59.8-166.5-115.5-1.2-1.5-3.8 0-2.6 1.5z" fill="#161616"/><path d="m527.4 704.8c16.5-12.1 37.5 1.3 52.7 9.5 15.7 8.4 30.8 17.7 45.5 27.8 29.6 20.5 56.9 44.3 81.3 70.8 1.3 1.4 3.4-.7 2.1-2.1-40.2-43.7-88.5-80.4-141.9-106.5-12.8-6.3-28.5-11.3-41.2-2-1.5 1 0 3.6 1.5 2.5z" fill="#161616"/><path d="m474.6 899.2c6.6-13.6 18.2-37.6 32.5-67.9 27.5-57.9 32.1-69.1 44.7-73.4 21.8-7.3 42.5 14.6 90.4 48.8 26.8 19.2 63.7 43.3 110.8 67.6.9 5.2 2.8 19.4-5.5 28.4-3.7 3.9-12.1 9.9-38.1 5.5-10-1.7-56.8-10.6-113.6-67.2-14.3-14.2-24.9-27.2-31.9-36.4-2.9 3.4-7.3 8.9-12.1 15.9-8.4 12.4-14 23.7-27 55-4.2 10-9.4 22.8-15.2 37.7-3.8.2-11 .2-19-3.1-8.2-3.1-13.4-8.1-16-10.9z" fill="#6d6c6c" opacity=".13"/><path d="m556 791.2c3.9 2 9.6 5 16.3 9 42.3 25.2 43.3 40.5 74.8 59.2 24.5 14.5 33.7 11.1 58.9 30.1 9.8 7.4 17.1 14.5 21.8 19.4-9.7-.8-23.1-2.8-38.4-7.6-20-6.3-33.8-14.6-44-20.8-5.1-3.1-26.3-16.2-49.5-39.5-11.6-11.5-26.1-27.9-39.9-49.8z" fill="#6d6c6c" opacity=".12"/><path d="m560.5 805c-1.4-1.8-11.9 2.7-21.1 9.7-16.6 12.5-21.3 27-36.7 55.4-4.5 8.3-11.3 20.4-20.4 34.6 8.9 3.6 17.8 7.2 26.7 10.7 2-5.4 17.3-46.3 28.7-71 3.7-7.9 5.7-12.3 9.3-18.3 8-13.2 14.8-19.4 13.5-21.1z" fill="#6d6c6c" opacity=".12"/><path d="m975.5 633.3c2.6 1.4 2.5 2.9 5.8 5.7 2.7 2.3 3.7 2 4.8 3.9 1.2 2.1 1.4 4.5 1.4 6.1 1.1 0 3.1.3 5.2 1.8.6.4 4.7 3.3 5.8 9.6.8 4.3-.2 7.9-.7 9.2 1.1 1 2.8 2.8 3.4 5.7.8 3.6-.3 6.9-1.7 10.5-4.1 10.1-7.8 14.3-12 22.8-1.3 2.5-3 6.4-4.8 11.4-.1 3.8-.1 10 .7 17.5 1.2 11.2 3.4 19.3 4.1 21.9 3.5 13 9.7 43.4 10.3 71.3.3 14.3.6 37.2-9.3 60.6-3.7 8.8-9.2 21.2-20.3 26.3-1.8.8-14.7 6.7-23.7-2.6-3.3-3.4-5-7.6-5.8-10.5-.2-1.5-.4-3.8-.3-6.6.3-12.1 5.9-20.8 7.9-24.1 6.8-11.5 8.9-24.3 12.4-46 2.2-13.4 1.7-25 .7-47.8-.7-15.6-2.2-36.7-5.5-61.8-1.7-.5-3.9-1.5-5.5-3.9-2.4-3.7-1-7.1-2.8-13.6-1.4-4.9-2.5-4-4.8-10.5-1.7-4.7-3.3-9-2.4-14 .2-1 1.1-6.9 4.5-8.3 4.3-1.9 9.1 4.9 10.3 6.6 2.4 3.4 3.6 7 4.1 9.2 2.4-4 4.9-8.8 7.2-14.5 1.1-2.6 2-5.1 2.8-7.5-.4-2.2-.9-5.4-1.3-9.3-.5-5.2-.7-7.9-.1-11.3.4-2.3 1.4-7.4 4.5-8.8 1.9-.7 4 .4 5.1 1z" fill="#fff"/><path d="m985.3 716.6c4.9-8.8 10.7-17.6 14.7-26.9 2.9-6.8 4.1-15-.4-21.4-1.1-1.6-3.7-.1-2.6 1.5 5.2 7.3 1.7 16.4-2.1 23.5-4 7.3-8.1 14.5-12.2 21.8-1 1.7 1.6 3.2 2.6 1.5z" fill="#161616"/><path d="m992.4 684.9c7.3-9.7 13.2-33.1-3.8-36.9-1.9-.4-2.7 2.5-.8 2.9 14.8 3.3 8.1 24.3 2 32.5-1.1 1.5 1.5 3 2.6 1.5z" fill="#161616"/><path d="m984.5 676c6.9-9.9 7.4-23.5 2.1-34.2-.9-1.7-3.4-.2-2.6 1.5 4.8 9.8 4.2 22.2-2.1 31.2-1.1 1.5 1.5 3 2.6 1.5z" fill="#161616"/><path d="m978.6 668.3c2.8-8.8 3.7-18.4 1.7-27.5-1.1-4.9-6-13.5-12.1-8.8-5.7 4.4-3.1 16.5-2.5 22.4s-.1 10.1-3.2 15.2c-2.7 4.4-4.9 9-6.6 13.9-.7 1.8 2.2 2.6 2.9.8 2.3-6.5 6.4-11.8 9.1-18 2.5-5.8.8-12.1.4-18.2-.2-2.8-1-7.3.1-10 .1-2.1 1.4-2.5 3.9-1.4 2.8-1.1 4.4-.3 4.7 2.5.7 1.9 1 4.1 1.2 6.1.8 7.5 0 14.9-2.3 22.1-.7 2 2.1 2.8 2.7.9z" fill="#161616"/><path d="m987.7 643.3c-1.2-4.6-6.4-8.3-10.9-5.2-1.6 1.1-.1 3.7 1.5 2.6 2.8-1.9 5.7.6 6.5 3.4.5 1.9 3.4 1.1 2.9-.8z" fill="#161616"/><path d="m957.7 681.1c-1.6-5.9-5.5-13.4-12.1-14.6-6.3-1.2-8.5 4.9-8.7 10-.5 9.6 4.6 16.2 7.1 25 2 7.1 1.4 14.2 8.6 18.4 1.7 1 3.2-1.6 1.5-2.6-5.4-3.1-5.6-8.5-6.7-14-.8-4.4-2.9-8.1-4.7-12.2-2.1-4.7-4.4-12-2.6-17.1.1-.5.2-.9.3-1.4 2.3-.7 4.6-1.5 6.8-2.2 1.3.4 2.9 2.5 3.8 3.5 1.9 2.4 3 5 3.7 8 .6 1.9 3.5 1.1 3-.8z" fill="#161616"/><path d="m952 718.4c4.2 34.7 8.7 70.7 5.6 105.6-1.5 16.5-5.6 31.8-12.2 46.9-5.4 12.4-9.3 24.1-6.7 37.7.4 1.9 3.3 1.1 2.9-.8-2.9-15.2 3.3-27.7 9-41.3 6-14.1 9-29.1 10.2-44.3 2.7-34.4-1.6-69.7-5.7-103.8-.4-1.9-3.4-1.9-3.1 0z" fill="#161616"/><path d="m982.3 714c-2.4 6.9-1.2 14.6-.4 21.7.9 7.5 2.1 15 3.5 22.4 3.1 16.3 7 32.4 9.1 48.9 2.1 16.2 2.2 32.6.4 48.8-1.8 16.1-4.9 33.7-13.9 47.5-4.3 6.6-10.7 13-18.8 14.5-8.7 1.7-16.6-3.5-20.7-11-.9-1.7-3.5-.2-2.6 1.5 5.8 10.5 17.7 15.7 29 10.7 13.4-5.9 20.5-20.9 24.4-34.2 10.3-35 7.4-71.5.3-106.8-2-10-4.2-20-5.8-30.1-.9-5.4-1.6-10.8-2.2-16.2-.5-5.7-1.3-11.7.6-17.2.7-1.5-2.2-2.3-2.9-.5z" fill="#161616"/><path d="m992.1 651.7c.3 5 .3 11.4-.9 18.4-3.2 19.2-12.7 31.3-17.1 36.1-.1 5.7-.3 14.5 0 25.1 1.2 47.6 8.6 70.9 9.8 93.2 1.2 21.7-2.8 53.4-27.8 94.4 3.3.3 8.5.3 13.9-2.6 4.9-2.6 12.5-8.6 19.4-28.7 6.3-18.4 13.2-52.1 5.5-90.7-3.4-16.8-8.6-30-11.3-58.2-.7-7.5-1-13.8-1.2-18.1 1.7-4 4.2-9.5 7.8-15.5 5.9-9.9 9.7-13.2 10.7-20.3.7-5-.3-10.1-2.3-15.1.2-1.3 1-6.6-1.4-11.8-1.6-3.7-4-5.5-5.1-6.2z" fill="#6d6c6c" opacity=".1"/><path d="m982 728c-.5.1 1.1 17.5 4.3 52.3 2.9 30.7 4.3 46 4.3 47.2 1 45.6-13 77.8-10.7 78.9 1.6.8 9.6-15.4 14.2-35 6.3-27.1 3.8-50.6 2.3-64.1-1.4-11.9-1.9-8.6-9-49-3.5-20.3-4.9-30.4-5.4-30.3z" fill="#6d6c6c" opacity=".11"/><path d="m754.2 794.4c-5 5.9-12.2 15.3-18.5 28.1-9.5 19.3-12.2 36.3-14.7 52.9-1.4 9.1-2.8 22-2.7 37.6 31.2 8.3 59 12.8 81.8 15.2 29.6 3.2 20.9-.7 95.6 1.9 37.3 1.3 56.5 2.6 61.8-7.6 4.4-8.6-6.4-17.2-7-37-.5-15.9 5.8-28.9 10.8-37-29.5-11.9-63.6-23.7-102-33.7-38.2-10-73.6-16.4-105.1-20.4z" fill="#ec615b"/><path d="m738.3 819.1c7.3 14.6 22.7 39.6 51.4 53.6 11.2 5.5 23.9 9 61.3 10.9 24.2 1.2 57.8 1.8 98.5-1.5-.6 8.7 1.2 14.9 2.9 19 2.6 6.1 6.2 9.6 5.8 16-.1 1.5-.3 5.3-2.9 8.4-3.6 4.2-9.5 4.6-12.4 4.7-28.8 1.4-38.7.4-38.7.4-24.2-2.6-45.7-2-63.5-1.5-7.7.2-11.8.5-20.1.4-4.6-.1-17.3-.4-35.7-2.9-27.1-3.7-52.1-10-66-13.9-.3-17.9 1.3-32.7 2.9-43.4 2.5-16.4 5.5-25.5 6.6-28.4 3.2-9.2 6.9-16.6 9.9-21.8z" fill="#6d6c6c" opacity=".12"/><path d="m727.3 845.3c3.9 7.9 10.6 19.1 21.9 29.5 19 17.4 39.5 22 63.8 27.7 51.5 12.2 104 26.1 103.6 28.4-.2 1.4-19.8-1.8-53.6-2.2-8.2-.1-13.5-.2-21.2 0-15 .3-19.1 1.1-28.1.7-9.7-.4-16.8-1.8-24.4-3.3-30.5-6.1-60.9-12.8-70.7-15 .1-6.4.5-13.1 1.1-20.1 1.5-16.7 4.3-32.1 7.6-45.7z" fill="#6d6c6c" opacity=".1"/><path d="m1019.3 903.7c-21.2 3-33.3 3.6-53.1 9.2-9.2 2.6-16.6 5.3-21.5 7.3-3.1-8.7-6.8-22.8-5.2-40 .9-10.2 3.4-18.7 6-25.1 5.5 1.4 12.4 2.7 20.5 3.2 10.1.6 18.7-.2 25.2-1.3 2.5-9 4.9-17.9 7.4-26.9 4.5-1.2 9.1-2.5 13.6-3.7.4-2.5.9-5 1.3-7.5 5.6 2.6 14.5 6.8 25.6 11.5 20.9 9 23.9 9.3 28.4 13.3 12.1 10.9 17.9 32.6 9 45.1-5.4 7.5-22.7 10-57.2 14.9z" fill="#fff" stroke="#161616" stroke-miterlimit="10" stroke-width="2"/><path d="m1011.8 818.7c-.7 4.7-1 9.4-.8 14.2.1 1.9 3.1 1.9 3 0-.2-4.5.1-8.9.7-13.4.2-1.9-2.7-2.7-2.9-.8z" fill="#161616"/><path d="m1044.4 844.2c.8 3.7-1.5 7-4.7 8.5-1.8.8-.2 3.4 1.5 2.6 4.6-2.1 7.1-7 6.1-11.9-.4-1.9-3.3-1.1-2.9.8z" fill="#161616"/><path d="m1033.1 843.2c1.1.1 2.3.4 3.2 1.2.2.2.4.4.6.6.6-.5.7-.8.2-.7-.3-.2-1.1-.2-1.4-.3-.5-.2-1-.3-1.5-.6-.3-.1-.5-.3-.8-.5-.8.5-.9.9-.2 1.1.4.4 1.2.8 1.7 1.1.6.4 1.1.7 1.7 1.1 1.6 1 2.8-1.1 1.8-2.4-.6-.8-1.3-1.2-2.2-1.6-1.8-.7-2.6 2.2-.8 2.9.4.2.6.5.9.8.6-.8 1.2-1.6 1.8-2.4-1.4-.9-2.7-1.9-4.1-2.6-1.1-.6-2.5-.4-3.2.7-1.8 2.7 2.1 4.6 4.1 5.2 1.1.3 2.4.6 3.5.2 1.2-.4 1.8-1.7 1.4-2.9-.8-2.6-4.3-3.7-6.7-3.9-2-.1-1.9 2.9 0 3z" fill="#161616"/><path d="m1062.4 839.6c4.3 1.2 11.4 3.8 18.3 9.2 2.4 1.9 7.6 6 10.7 11.9 5.9 11.2 3.2 26.9-7.1 37.3-10.1 10.1-26.3 13.7-41.4 9.2 6.5-22.5 13-45 19.5-67.6z" fill="#5222d0"/><path d="m1067.3 801.3c-9.4 34.8-18.8 69.6-28.2 104.4-1.5 5.6 7.2 8 8.7 2.4 9.4-34.8 18.8-69.6 28.2-104.4 1.5-5.6-7.2-8-8.7-2.4z" fill="#161616"/><path d="m1046.9 884.4c-1.6-6.6-5.8-10.8-10.7-15.7-10.4-10.4-15-8.3-21.5-15.5-10.2-11.5-2.1-20.7-12.2-31.1-8.6-8.8-21.6-9.5-24.6-9.6-2.9-.1-14.6-.2-23.6 7.5-7.8 6.7-10.7 16.8-9.3 17.6.5.3 2-.4 6.8-5.5-1.5 1.5-3.3 3.9-4.4 7.1-1.2 3.8-1 7.5-.4 7.6.5.1.7-2 2.8-3.4 1.2-.8 2.6-1.1 3.6-1.1-2.6 2.8-5 6.5-4.2 10.3 2 10.6 25.8 15.5 33.7 17.1 25.6 5.3 40.6.2 48.6 9.8.7.8 3.9 4.7 2.7 8.3-1.6 4.6-9.9 7.2-14.9 5-4.3-1.9-4.9-6.8-5.8-6.6-1.1.3-.5 8.5 4.3 16 1.8 2.7 3.2 4.9 6.1 6.4 5.1 2.5 11.6 1.2 15.5-1.2 8.3-4.7 9.3-15.8 7.5-23z" fill="#161616" stroke="#161616" stroke-miterlimit="10" stroke-width="2"/><path d="m1012.3 889.5c0-1.5.2-3.7.8-3.7.3 0 .6.6.6.5 0 0-2.2-2.1-2.2-4.4 0-1.1.5-2 .9-2.5-9.6 2.8-21 5.5-34 7.3-14.3 2-27.1 2.5-38 2.3-.5 4.1-.8 9.9.6 16.8 1.1 5.6 3 10.2 4.7 13.6 15.5-6.7 27.5-9.5 35.6-10.9 3.8-.6 12.8-2 17.2-2.6 8-1.2 14.6-2.1 19.1-2.7-.5-.7-1.3-1.8-2.1-3.2-1.1-1.9-3.2-5.8-3.2-10.5z" fill="#6d6c6c" opacity=".22"/><path d="m1094.2 874.3c-3.2 8.9-11.9 14.8-21.4 14.7-11.2-.2-17.8-8.8-18.4-9.6-2.6 9.6-5.1 19.3-7.7 28.9 2.4.5 5.7 1 9.7.9 12.6-.3 21.2-6 23-7.3 2.8-1.9 12-8.9 14.3-20.8.5-2.8.5-5.2.5-6.8z" fill="#321693"/><path d="m915.9 669.1c4.4 6.1 9.4 12.5 15.2 19.1 7.8 8.9 15.5 16.4 22.7 22.7 10.3-10 21.2-20.1 32.7-30.4 10.9-9.8 21.7-19 32.3-27.7-2.5-5.1-5.9-11-10.4-17-8.8-11.7-18.5-19.5-25.9-24.5-16.9 11.9-34.7 26.1-52.3 43.2-5 5-9.7 9.8-14.3 14.6z" fill="#fff"/><path d="m936.2 651.8c14.3-14.2 29.6-27.3 45.9-39.1 1.5-1.1.1-3.7-1.5-2.6-16.5 12-32.1 25.2-46.5 39.6-1.4 1.4.7 3.5 2.1 2.1z" fill="#161616"/><path d="m981.4 612.1c14.4 10.9 26.5 24.4 35.9 39.8 1 1.6 3.6.1 2.6-1.5-9.7-15.9-22.2-29.6-37-40.9-1.5-1.1-3 1.5-1.5 2.6z" fill="#161616"/><path d="m935.7 648.3c-7.3 6.3-14.3 13-20.9 20.1-1.3 1.4.8 3.5 2.1 2.1 6.6-7.1 13.5-13.8 20.9-20.1 1.5-1.3-.6-3.4-2.1-2.1z" fill="#161616"/><path d="m915.2 671.2c11.4 14 23.6 27.2 36.7 39.7 1.4 1.3 3.5-.8 2.1-2.1-13-12.5-25.3-25.7-36.7-39.7-1.2-1.6-3.4.6-2.1 2.1z" fill="#161616"/><path d="m955.2 711.5c21.1-20.1 42.8-39.5 65-58.3 1.5-1.2-.7-3.4-2.1-2.1-22.2 18.8-43.9 38.3-65 58.3-1.4 1.3.7 3.4 2.1 2.1z" fill="#161616"/><path d="m927.6 670.2c6.8 8.8 13.9 17.4 21.2 25.7 1.3 1.5 3.4-.7 2.1-2.1-7.3-8.4-14.4-17-21.2-25.7-1.1-1.6-3.2.6-2.1 2.1z" fill="#161616"/><path d="m929.8 670.2c15.2-16.7 33.1-30.4 50.9-44.1 1.5-1.2 0-3.8-1.5-2.6-18.1 13.8-36.2 27.7-51.5 44.5-1.4 1.5.8 3.6 2.1 2.2z" fill="#161616"/><path d="m981 626.1c9.2 6.9 17.6 14.6 25.3 23.1 1.3 1.4 3.4-.7 2.1-2.1-7.9-8.7-16.5-16.5-25.9-23.6-1.6-1.1-3.1 1.5-1.5 2.6z" fill="#161616"/><path d="m950.6 696.7c5.1-.2 9-2.7 13-5.7 5.2-4 10.3-8.1 15.3-12.4 10.6-8.9 20.7-18.3 30.4-28 1.4-1.4-.8-3.5-2.1-2.1-8.4 8.5-17.2 16.6-26.2 24.5-4.4 3.8-8.9 7.5-13.4 11.2-4.9 3.9-10.3 9.4-17 9.6-1.9-.1-1.9 2.9 0 2.9z" fill="#161616"/><path d="m976.4 613c-2.4 4.5-5.9 11-10 18.9-10.2 19.8-15.4 29.8-17 36.1-2.1 8.2-3.7 22.6 4.8 42.9-12.7-13.5-25.4-27.1-38.1-40.6 20.1-19.1 40.2-38.2 60.3-57.3z" fill="#6d6c6c" opacity=".11"/><path d="m966 645.4c4.8 4.9 9.3 10.1 13.5 15.5 1.2 1.5 3.3-.6 2.1-2.1-4.2-5.4-8.7-10.6-13.5-15.5-1.3-1.4-3.4.7-2.1 2.1z" fill="#e8e8e8"/><path d="m967.2 645c2.3-1.5 4.7-2.9 7-4.4 1.2-.8 2.5-2 3.9-2.4 1.9-.7.7-1.1 2.2-.3 1.8.9 3.8 4.8 5.1 6.4 1.9 2.4 3.7 4.7 5.6 7.1 1.2 1.5 3.3-.6 2.1-2.1-2.4-3.1-4.9-6.2-7.3-9.3-1.2-1.6-3.1-5.4-5.2-5.9-1.5-.3-2.8.7-4 1.5-3.7 2.2-7.3 4.6-10.9 6.8-1.6 1.1-.1 3.7 1.5 2.6z" fill="#e8e8e8"/><path d="m981.3 660.8c4.2-1.8 7.9-4.4 11.1-7.6 1.4-1.4-.8-3.5-2.1-2.1-3.1 3-6.6 5.4-10.5 7.1-1.8.8-.3 3.4 1.5 2.6z" fill="#e8e8e8"/><path d="m974.5 650.7c1.3-1.3 2.5-2.6 4.5-2.3 1.1.2 1.5.4 2.7.2 1-.2 1.3-1.4.9-2.2-.9-1.5-1.7 1-1.7 1.9 0 .8.3 1.7.9 2.3 1.5 1.6 3.7 1.2 5.5.4 1.8-.7 1-3.6-.8-2.9-.7.3-1.4.5-2.2.6-.3-.7-.3-1.4 0-2.1 0-.7.1-1.3-.1-2-.3-1-1.1-1.9-2.2-2-3.2-.4-3.2 3.4-2 5.4.3-.7.6-1.5.9-2.2-.8.1-1.8-.5-2.6-.5-.6 0-1.3.2-1.9.4-1.6.6-2.8 1.8-3.9 3-1.5 1.3.7 3.4 2 2z" fill="#e8e8e8"/><path d="m973 644.3c1.4.1 2.7 0 4-.3 1.9-.4 1.1-3.3-.8-2.9-1.1.2-2.1.3-3.2.2-.8-.1-1.5.7-1.5 1.5 0 .9.7 1.4 1.5 1.5z" fill="#e8e8e8"/><path d="m950.1 658.7c4.6 5.3 9.2 10.5 13.9 15.6 1.3 1.4 3.4-.7 2.1-2.1-4.7-5.1-9.4-10.3-13.9-15.6-1.2-1.5-3.3.6-2.1 2.1z" fill="#e8e8e8"/><path d="m952.5 659.1c1-1.8 1.5-3.3 3.6-3.4 1.8-.1 2.9 1.3 4.1 2.4 1.7 1.5 3.1 3.3 4.8 4.9 1.3 1.2 2.7 2.4 4.2 3.4 1.3.9 2.5 1.4 1.1 3.1-.8 1-2.9 1.4-4.1 1.8-1.8.6-1 3.5.8 2.9 2.7-.9 7-2.3 7.9-5.5.4-1.3.1-1.9-.8-2.8-1.9-1.7-4.5-2.8-6.4-4.6-3.2-2.9-6-7.2-10.1-8.9-3.9-1.5-5.9 2.1-7.6 5.1-1 1.7 1.6 3.3 2.5 1.6z" fill="#e8e8e8"/><path d="m922 647.5c-3.4 1.4-3.2 2.9-7.5 5.7-3.5 2.3-4.7 2-6.1 3.9-1.6 2.1-1.8 4.5-1.8 6.1-1.4 0-3.9.3-6.6 1.8-.8.4-6 3.3-7.5 9.6-1 4.3.3 7.9.9 9.2-1.4 1-3.5 2.8-4.4 5.7-1.1 3.6.3 6.9 2.2 10.5 5.2 10.1 9.9 14.3 15.3 22.8 1.6 2.5 3.9 6.4 6.1 11.4.1 3.8.1 10-.9 17.5-1.5 11.2-4.4 19.3-5.3 21.9-4.5 13-12.4 43.4-13.2 71.3-.4 14.3-.8 37.2 11.8 60.6 4.7 8.8 11.7 21.2 25.9 26.3 2.2.8 18.7 6.7 30.2-2.6 4.2-3.4 6.3-7.6 7.5-10.5.3-1.5.5-3.8.4-6.6-.4-12.1-7.6-20.8-10.1-24.1-8.7-11.5-11.3-24.3-15.8-46-2.8-13.4-2.2-25-.9-47.8.9-15.6 2.7-36.7 7-61.8 2.1-.5 5-1.5 7-3.9 3-3.7 1.2-7.1 3.5-13.6 1.7-4.9 3.1-4 6.1-10.5 2.2-4.7 4.1-9 3.1-14-.2-1-1.5-6.9-5.7-8.3-5.4-1.9-11.6 4.9-13.1 6.6-3.1 3.4-4.5 7-5.3 9.2-3.1-4-6.3-8.8-9.2-14.5-1.3-2.6-2.5-5.1-3.5-7.5.5-2.2 1.2-5.4 1.7-9.3.6-5.2.9-7.9.1-11.3-.6-2.3-1.8-7.4-5.7-8.8-2.1-.8-4.8.3-6.2 1z" fill="#fff"/><path d="m912.5 729.2c-5-7-10.1-14-15-21.1-4.7-6.8-10.2-16.4-3.4-23.9 1.3-1.4-.8-3.6-2.1-2.1-5.3 5.8-4.7 13.7-1.4 20.4 5 10 12.9 19.1 19.4 28.2 1 1.6 3.6.1 2.5-1.5z" fill="#161616"/><path d="m903.1 697.2c-4.8-5-8.8-11.8-8.7-18.9.1-6.9 5.1-12.1 11.7-13.2 1.9-.3 1.1-3.2-.8-2.9-7.1 1.2-12.8 6.7-13.8 13.9-1.2 8.6 3.7 17.3 9.5 23.3 1.3 1.4 3.4-.8 2.1-2.2z" fill="#161616"/><path d="m913.2 688.3c-7.7-8.6-8.6-21.2-2.5-30.9 1-1.6-1.6-3.1-2.6-1.5-6.9 10.9-5.6 25 2.9 34.5 1.4 1.5 3.5-.6 2.2-2.1z" fill="#161616"/><path d="m921.3 681.7c-3.2-7.8-4.4-16.5-2.4-24.8 1.1-4.7 7.1-13.6 11.9-6.4 2 3 1.3 7.5 1 10.9-.5 6.4-2.8 13.4.5 19.4 1.6 2.8 4 5.2 5.8 7.8 2.3 3.2 4.1 6.7 5.8 10.3.8 1.8 3.4.2 2.6-1.5-2.1-4.6-4.7-8.9-7.8-12.9-1.8-2.4-4.1-4.6-4.9-7.6-.8-2.9 0-6.1.3-9.1.8-6.1 3.3-17.5-3.3-21.6-5.9-3.7-12.2 1.8-14.1 7.2-3.4 9.3-2 20.2 1.6 29.2.8 1.7 3.7.9 3-.9z" fill="#161616"/><path d="m909.7 658.3c1.2-3.5 5.6-5.1 8.9-3.4 1.7.9 3.2-1.7 1.5-2.6-5-2.7-11.4-.1-13.3 5.2-.7 1.8 2.2 2.6 2.9.8z" fill="#161616"/><path d="m948 696.1c1.1-3.2 2.7-6 5.1-8.3 1-.9 2.1-1.8 3.3-2.5 2.8-1.6 4-1.6 7.1-.5 3.6 1.3 4.1 2.1 4.4 5.9.1 1.2.1 2.4 0 3.6-.3 3.8-1.7 7.4-3.5 10.7-2.1 3.8-4.7 7.3-5.9 11.6-1.8 6.5-1.9 11.8-8.9 14.9-1.8.8-.2 3.4 1.5 2.6 3-1.3 5.5-3.3 7.2-6.1 2.3-3.7 2.1-8.1 3.5-12.1 1.6-4.4 4.7-8.1 6.7-12.3 1.8-4 2.7-8.4 2.4-12.8-.4-6-3.9-11-10.5-10-7.5 1.1-13 7.8-15.3 14.6-.7 1.7 2.2 2.5 2.9.7z" fill="#161616"/><path d="m948.6 732.2c-2.8 18.2-5.1 36.5-6.7 54.8-1.4 16.4-2.3 32.9-.7 49.4 1.5 15.1 5.3 29.8 12.4 43.2 7.2 13.7 16.1 26.2 12.1 42.5-.5 1.9 2.4 2.7 2.9.8 3.4-14.1-1.8-25.6-8.5-37.7-8-14.3-13.4-28.9-15.5-45.3-2-16.4-1.3-32.9 0-49.3 1.6-19.2 3.9-38.4 6.9-57.5.3-2-2.6-2.8-2.9-.9z" fill="#161616"/><path d="m910.1 729.3c2 4.4 1.5 9.3 1 14-.6 5.3-1.4 10.6-2.5 15.9-1.8 9.3-4.3 18.5-6.7 27.7-4.7 18.1-9.2 36.2-9.8 54.9-.6 18.5 1.8 37.6 7.9 55.1 5.1 14.6 14.1 28.7 28.6 35.2 13.7 6.1 30.6 3.2 39.4-9.6 1.1-1.6-1.5-3.1-2.6-1.5-9.7 14-29 13.7-42 4.7-14-9.7-20.4-26.4-24.2-42.3-4.2-17.6-5.3-36-3.3-53.9 2-17.6 7-34.6 11.3-51.7 2.3-9.2 4.5-18.4 5.8-27.8 1.1-7.3 2.6-15.3-.6-22.2-.5-1.8-3.1-.2-2.3 1.5z" fill="#161616"/><path d="m900.9 665.8c-.4 5-.4 11.4 1.1 18.4 4.1 19.2 16.2 31.3 21.7 36.1.2 5.7.3 14.5 0 25.1-1.5 47.6-10.9 70.9-12.5 93.2-1.5 21.7 3.6 53.4 35.4 94.4-4.3.3-10.8.3-17.7-2.6-6.2-2.6-15.9-8.6-24.7-28.7-8-18.4-16.8-52.1-7-90.7 4.3-16.8 11-30 14.4-58.2.9-7.5 1.3-13.8 1.5-18.1-2.2-4-5.4-9.5-10-15.5-7.5-9.9-12.4-13.2-13.6-20.3-.9-5 .3-10.1 2.9-15.1-.3-1.3-1.2-6.6 1.8-11.8 2.2-3.6 5.3-5.4 6.7-6.2z" fill="#6d6c6c" opacity=".1"/><path d="m913.8 742.1c.7.1-1.4 17.5-5.5 52.3-3.7 30.7-5.5 46-5.5 47.2-1.3 45.6 16.5 77.8 13.6 78.9-2.1.8-12.2-15.4-18.1-35-8.1-27.1-4.9-50.6-2.9-64.1 1.7-11.9 2.4-8.6 11.4-49 4.5-20.3 6.3-30.4 7-30.3z" fill="#6d6c6c" opacity=".11"/><path d="m434.3 1027.9c-.9-2.4-2.6-5.9-5.6-9.4-3.3-3.9-6.1-5.3-8.3-6.9-3.9-3-5.4-6.7-11.8-34.4-3-13.2-3.3-14.7-2.8-17.4 1.3-7 5-9.4 6.9-18.4.9-4.3.9-7.4.7-13.2-.3-8.8-.5-17.8-4.2-28.1-3.3-9.5-7.1-20-17-24.7-6.9-3.2-13.7-2.1-19.8-1-12.3 2.2-15 6.8-27.8 12.5-6.4 2.8-24.8 11-46.6 9.7-9.7-.6-15.1-2.7-21.2 1-6.4 4-9.1 11.6-11.1 17.4-2.5 7.1-3.1 13.3-3.1 17.4-1.3 4.3-3.3 10.8-5.6 18.8-6.4 22.8-6.4 27-10.8 39.3-4.4 12.5-7.2 20.3-13.9 29.2-2.2 2.9-2.3 2.6-22.6 22.2-10.4 10-15.9 15.5-18.4 24.7-1 3.6-2.6 9.3.3 13.2.9 1.1 3.8 4.4 21.5 3.8 8.2-.3 9.3-1 17.7-1.7 15.5-1.3 27.6 0 33.7.7 5.8.6 10.6 1.5 13.9 2.1 3.2.3 8 .9 13.6 2.4 10.1 2.8 13.2 5.9 22.2 9.7 5.5 2.3 16.8 7 30.6 6.6 9.4-.3 17-2.8 21.9-4.9 7.2 1.1 13.1.6 17 0 6.8-1.1 12-3.3 16.3-5.2 5.2-2.3 4.9-2.8 11.5-5.9 11.5-5.6 13.4-4.6 16.7-7.6 2.4-2.2 4.6-5.7 5.9-20.2.9-7.7 1.4-18.5.2-31.7zm-165.3 27.6c.8 5.5 2.4 9.9 0 12.3-3.1 3-8.4-1.3-21.8-.6-2.2.1-3.5.3-10 .8-5.7.4-5.5.3-9.1.6-5.8.5-6.3.8-8.7.6-4.3-.4-6.5-.5-8.3-2.1-2.9-2.5-3.4-7.1-2.8-10.2 1-6.2 6.1-8.8 15.2-16.3 3.8-3.1 9.3-7.9 15.5-14.6 3.7-4.9 7.3-10 11-15.3 1.7-2.5 3.3-4.9 4.9-7.4 1.5-4.1 3.4-9.8 5.3-16.7 5-18.2 5.1-29.5 6.8-29.6 2 0 3.7 14.8 4.4 22.9.8 10.4.6 19 .2 24.8 1 1.9 2.4 5.1 2.8 9.3.5 4.7-.4 8.5-1.1 10.6-5.4 13.5-5.4 23.8-4.3 30.9z" fill="#fff"/><path d="m269.5 903c-13.3 21.6-4.8 47-1 70.1 1.1 6.8 1.7 13.6 1.4 20.4-.2 3.2-.6 6.4-.2 9.7.4 3 1.5 5.7 2.2 8.6 1.9 7.5-.8 15.1-2.3 22.4-1.3 6.3-2.6 12.6-2.8 19-.4 10.1 2.1 20.9 9.4 28.2 8.1 8.1 19.9 6.8 29.6 11.9 10.1 5.4 19.6 9.9 31.2 11 5.7.5 11.6.3 17.2-.7 6-1 11.6-3.9 17.6-4.9 5.7-.9 11.2 1.1 16.9-.4 6.4-1.6 12.6-5.2 18.6-7.9 6.2-2.8 12.4-5.7 18.7-8.5 4.1-1.9 7.8-3.6 8.8-8.4 1.3-6 .6-13.1.7-19.2.2-6.4.7-12.8.3-19.2-.2-4.1-.8-8.2-2.5-11.9-2.6-5.8-8.1-7.6-11.7-12.4-7.1-9.8-10.7-23.5-12.7-35.3-.6-3.7-1-7.4-1.3-11.1-.2-3.8 1.1-6.2 2.5-9.5 2-4.7 3.3-9.7 3.9-14.7 1.6-11.6.1-23.5-2.6-34.8-2.3-9.6-5.4-20.3-13.1-27.1-20.2-17.8-46.7 3.1-65.4 11.9-6.9 3.2-14.1 5.3-21.7 5.3-7.3 0-14.5-1.4-21.8-.9-9.7.6-19.8 5-23.1 14.7-.6 1.8 2.3 2.6 2.9.8 4-11.7 17.9-13 28.4-12.4 11.2.7 21.4 1.4 32-2.8 18.2-7.2 37.1-25.4 58.2-19 11.6 3.5 16.5 14.8 19.5 25.6s4.9 22 4.3 33.2c-.3 5.5-1.3 11-3.1 16.3-.8 2.4-1.9 4.8-3.1 7.1-1.3 2.6-1 4.5-.8 7.5.7 10.8 3 21.4 6.9 31.5 1.7 4.4 3.6 8.8 5.9 13 2.5 4.4 5.9 6.2 9.4 9.6 8 7.6 5.9 21.1 5.6 31-.2 6.3-.4 12.6-.6 18.9-.1 4.2-1 6.6-4.6 8.7-2.9 1.7-6.2 2.9-9.3 4.2-5.6 2.6-11.3 5.1-16.9 7.7-6.4 2.9-12.8 6.6-20.1 6.2-4.8-.2-8.7-.8-13.4.5-5.8 1.7-11.3 3.8-17.3 4.5-11.5 1.4-23.4-.4-33.8-5.4-4.4-2.1-8.5-4.9-13-6.9-4.7-2.1-9.6-2.6-14.6-3.8-11.8-2.8-18.1-14-19.1-25.4-1.2-13.6 4-26.3 5.6-39.6.9-6.7-2.6-12.3-3.1-18.9-.4-6.7.7-13.3 0-20.1-2.5-25.1-15-53-.5-76.7 1.5-1.8-1.1-3.3-2.2-1.6z" fill="#161616"/><path d="m271.4 902.7c17.5-2.6 31.2 11.4 38.5 25.6 7 13.4 10.6 28.3 18.3 41.4 6.5 11 16 20.2 28.8 23 11.3 2.5 23.8.1 33.1-6.9 12.5-9.4 17.9-24.9 20.7-39.7.4-1.9-2.5-2.7-2.9-.8-2.6 13.5-7.2 28-18.2 37-11.1 9.1-27.5 11-40.4 4.5-26.7-13.3-26.9-49.6-43.9-71-8.4-10.6-21.2-18-35-16-1.7.3-.9 3.2 1 2.9z" fill="#161616"/><path d="m377.1 998.1c.1.2.2.3.3.5.1-.6.2-1.2.2-1.8-.2.2-.3.3-.5.5.6-.1 1.2-.2 1.8-.2-1.7-.9-2.5-4.7-3.1-6.4-.9-2.6-1.5-5.4-2-8.1-.3-2.1-1.7-17.8 2.7-16.3 1.3.5 2.3 5.9 2.7 7.3.7 2.7 1.1 5.5 1.4 8.3.3 2.7.3 5.4.4 8 0 1.2.1 2.4.1 3.6 0 .6 0 1.2-.1 1.8.2.7-.1 1.2-.8 1.5.2-1.9-2.8-1.9-3 0-.2 2 1.4 3.6 3.5 3.4 2.9-.3 3.3-3.5 3.3-5.8.2-5.4-.1-11.1-.9-16.4-.6-4.4-1.5-10.7-4.7-14.1-5.9-6.4-7.9 6.1-8 9.5-.3 5.3.4 10.6 1.8 15.6.9 3 2.2 9.1 5.3 10.7.6.3 1.3.3 1.8-.2.2-.2.3-.3.5-.5.5-.5.6-1.3.2-1.8-.1-.2-.2-.3-.3-.5-1-1.8-3.6-.3-2.6 1.4z" fill="#161616"/><path d="m353.1 1052.3c.5 16 1.9 32 4.2 47.8.3 1.9 3.2 1.1 2.9-.8-2.2-15.6-3.6-31.3-4.1-47-.1-1.9-3.1-1.9-3 0z" fill="#161616"/><path d="m355.2 1053c7.1-10 19.8-14.2 30.8-18 12.1-4.2 24.4-7.4 37-9.7 1.9-.3 1.1-3.2-.8-2.9-14.4 2.6-28.6 6.5-42.3 11.6-10.3 3.9-20.8 8.3-27.4 17.5-1 1.6 1.6 3.1 2.7 1.5z" fill="#161616"/><path d="m355.7 1053.6c11.8 6.3 23.3 11.1 36.9 7.5 13-3.5 25.1-10.8 35.3-19.3 1.5-1.2-.6-3.3-2.1-2.1-9.5 7.9-20.5 14.5-32.3 18.1-13.4 4.1-24.5-.3-36.3-6.7-1.7-1-3.2 1.6-1.5 2.5z" fill="#161616"/><path d="m402.3 1051.2c.8 3.9 1.6 7.9 2.4 11.8.4 1.9 3.3 1.1 2.9-.8-.8-3.9-1.6-7.9-2.4-11.8-.4-1.9-3.3-1.1-2.9.8z" fill="#161616"/><path d="m409 1048.4c.4 3.7.7 7.4 1.1 11.1.2 1.9 3.2 1.9 3 0-.4-3.7-.7-7.4-1.1-11.1-.2-1.9-3.2-2-3 0z" fill="#161616"/><path d="m272.1 1026.7c-1.9 5.5 0 10.5 6.5 9.4 1.6-.3 3-1 4.6-1.5.9-.3 2.2-.8 3.2-.7 5.1.7 2.2 2.4 3.5 4.2 1.5 2 2.4 3 5.1 3 3.6-.1 10.7-3.5 13.1.9.9 1.8 0 6.6 0 8.8 0 2.6.1 5.2.1 7.8.2 11.4.5 22.8.9 34.1.1 1.9 3.1 1.9 3 0-.7-17.5-1-35.1-1.1-52.7 0-.5-.3-1.1-.7-1.3-3.3-1.5-6.6-2.2-10.2-1.7-2.5.3-3.6 1.3-6-.1-2.3-1.3-1.5-2.1-2.9-3.9-1.5-1.9-3.7-2.3-6-2-1.6.2-2.9.9-4.4 1.4-.8.3-1.8.8-2.7.8-2.2-.1-3.8-3.5-3-5.6.5-1.9-2.4-2.7-3-.9z" fill="#161616"/><path d="m265.5 927.6c.1-11.5 3.8-32.3 20.2-28.3 1.9.5 2.7-2.4.8-2.9-6.9-1.7-13.7 1.3-18 6.8-5.4 6.8-6 16-6 24.4 0 2 3 2 3 0z" fill="#161616"/><path d="m262.8 921.3c-2.2 4.6.9 9.3 3.7 13.1 2.9 4 7.3 7.6 12.5 6.5 2.9-.6 4.9-3.2 7.8-3.7 3.2-.7 6.3 2.1 9.5 2 6.8-.3 10.9-6.8 15.8-10.4 1.5-1.1.1-3.7-1.5-2.6-3.9 2.8-6.9 7.2-11.4 9.1-4.7 2-7.5-1.5-12-1.2s-7.1 4.9-11.9 3.7c-4-1-12-10.2-9.8-15 .7-1.7-1.9-3.3-2.7-1.5z" fill="#161616"/><path d="m263.6 919.5c-4.8 21-10.4 41.8-16.7 62.3-3 9.7-5.8 19.8-10.8 28.8-4.3 7.7-10.2 14.2-16.5 20.3-11 10.6-23.7 20.6-29.9 35-2.5 5.8-3.2 11.8 2.5 15.9 6.3 4.6 15.6 4.4 22.9 3.7 11.2-1.1 22.3-4.6 33.6-3.7 10.8.9 21.1 5.3 31.9 2.1 1.8-.6 1.1-3.4-.8-2.9-9.7 2.9-19.2-.8-28.9-2-8-1-16 .3-23.8 1.6-9.4 1.6-20 3.9-29.3.6-5.8-2-8.3-6.3-6.2-12.2 1.4-3.9 3.5-7.6 5.9-10.9 8.5-12.2 20.9-21 30.9-31.9 11.2-12.3 16.3-27 21.2-42.7 6.4-20.9 12.1-42 17-63.3.4-1.8-2.5-2.6-3-.7z" fill="#161616"/><path d="m263.7 952.7c-1.8 18.9-3.8 38.3-13.1 55.3-4.1 7.6-9.4 14.5-15.6 20.4-5.7 5.4-12.3 9.7-18.2 14.8-4.4 3.8-10.7 9.5-11.1 15.8-.4 5.7 4.4 10.2 9.5 11.7 8.2 2.5 18.1-.5 26.5-1 9.8-.5 19.7-.2 29.5.8 1.9.2 1.9-2.8 0-3-9.1-1-18.3-1.3-27.5-.9-3.9.2-7.9.5-11.8.9-4.6.5-9.5 1.6-14.1.7-5.7-1.1-10.6-5.6-8.2-11.8 1.5-3.7 4.7-6.9 7.6-9.6 5.3-5 11.5-8.9 16.9-13.7 10.3-8.9 18.4-20.4 23.5-33 6.1-15.1 7.6-31.5 9.2-47.6.1-1.7-2.9-1.7-3.1.2z" fill="#161616"/><path d="m289.5 1038c.9 8.9 2.3 17.6 4.3 26.3.4 1.9 3.3 1.1 2.9-.8-1.9-8.4-3.3-16.9-4.2-25.6-.2-1.8-3.2-1.8-3 .1z" fill="#161616"/><path d="m314.5 911.7c16 12.3 41.8 19.4 60.5 9 1.7-.9.2-3.5-1.5-2.6-17.8 9.8-42.4 2.6-57.4-9-1.7-1.2-3.2 1.4-1.6 2.6z" fill="#161616"/><path d="m265.8 924.5c-.6-7.2.8-15.6 5.8-21.1 5-5.4 12.8-4.9 19.6-4.9 12.5.2 25.1 1.5 37-2.9 1.8-.7 1-3.6-.8-2.9-15.3 5.7-31 1.2-46.7 3.2-13.7 1.8-18.9 16.2-17.9 28.6.1 1.9 3.1 2 3 0z" fill="#161616"/><path d="m266.4 927.4c1-6.9 3.2-13.4 7-19.3 2-3.1 4.1-6 7.6-7.3 3.4-1.3 7.4-.8 11-.8 12.1.2 24.5.6 35.5-5.2 1.7-.9.2-3.5-1.5-2.6-7.2 3.8-15.1 4.8-23.1 4.9-6.8.1-14.1-1.1-20.8.2-11.7 2.3-17.1 19.1-18.6 29.2-.3 1.9 2.6 2.8 2.9.9z" fill="#161616"/><path d="m265.5 924.8c.7-9.1 1.8-20.8 10.8-25.8 4.9-2.7 11.3-2.1 16.7-2.2 4.7 0 9.4.1 14.2 0 9.1-.2 18.2-.9 26.9-3.9 8.3-2.9 16-7.4 23.5-11.9 1.7-1 .2-3.6-1.5-2.6-9.1 5.4-18.4 10.9-28.8 13.3-11.5 2.7-23.4 2-35.1 2.1-8.6.1-16.9.1-22.7 7.4-5.3 6.7-6.1 15.4-6.8 23.6-.3 1.9 2.7 1.9 2.8 0z" fill="#161616"/><path d="m333.9 893.9c4.3 4-1.3 11.6 2.6 18.4 5.1 8.8 19.8 9.9 31 9.4-5.9 1.6-14.9 5.3-19.9 13.6-8.8 14.6-2.7 39 18.4 56.2 1.9 15 3.8 30.1 5.8 45.1-5.6 4.9-11.2 9.8-16.8 14.7.2 16.8.3 33.6.5 50.4-5 1.8-12.8 3.8-22 2.6-9.2-1.1-11.3-4.3-28.9-11.5-16.3-6.7-18.7-5.6-24.1-10.5-10-8.9-11.9-21.4-12.1-22.6-1.3-9.2 2.4-10.4 4.2-28.9.9-9.6.7-17.2.5-19.9-.4-8.9-1.5-12.2-2.6-22-1.4-11.7-.7-14.1-1.6-25.2-2.2-28.6-8.1-33.8-4.2-48.3 1.6-5.9 3.5-13.3 10-17.3 8.1-5.1 14 .9 31-.5 16.3-1.4 23.8-8 28.2-3.7z" fill="#6d6c6c" opacity=".05"/><path d="m278.3 900.7c-11.1 2.1-18.8 19.5-13.6 29.9 1.7 3.4 5.6 7.8 10.5 8.4 4 .5 5-2.1 11-2.6 6.1-.5 7.2 1.9 12.1 1 3.6-.6 8.9-3.1 10.5-7.3 2.8-7.5-7.4-16.6-11-19.9-5.7-5.1-12.1-10.9-19.5-9.5z" fill="#6d6c6c" opacity=".11"/><path d="m271.5 967.4c2.4-.4 7.9 32.5 19.4 64.6 10.8 29.9 24.5 52.8 35.2 68.2-8.6-4.3-15.9-6.9-21-8.4-6.7-2-11.6-2.8-18.4-6.3-5-2.6-8.7-5.4-11-7.3-2.2-2.8-5.3-7.4-6.3-13.6-.4-2.3-.3-3.4.5-13.6 1.1-14.8 1.1-15.3 1.6-17.8 1.5-8.2 2.8-8.1 3.1-13.6.4-5.2-.7-6.2-2.1-16.3-1.2-8.8-1.4-15.5-1.6-19.9-.2-10-.4-15.9.6-16z" fill="#6d6c6c" opacity=".14"/></svg>