<svg enable-background="new 550 -350 1600 1200" height="1550" viewBox="550 -350 1600 1200" width="1050" xmlns="http://www.w3.org/2000/svg"><g fill="#e8e8e8"><path d="m1110.5 662.3h235.5 236.5 132.7c1.9 0 1.9-3 0-3-78.5 0-157 0-235.5 0-78.8 0-157.6 0-236.5 0-44.2 0-88.5 0-132.7 0-1.9 0-1.9 3 0 3z"/><path d="m1721.3 587.3c5.1 30.8 10.2 61.6 15.4 92.4.3 1.9 3.2 1.1 2.9-.8-5.1-30.8-10.2-61.6-15.4-92.4-.3-1.9-3.2-1.1-2.9.8z"/><path d="m1723.1 588c40.4-2.5 80.9-1.4 121 3.2 1.9.2 1.9-2.8 0-3-40.2-4.6-80.7-5.7-121-3.2-1.9.1-2 3.1 0 3z"/><path d="m1737.9 682c29.8 9.3 61.4 10.7 91.9 4.1 1.9-.4 1.1-3.3-.8-2.9-30 6.5-61.1 5.1-90.4-4.1-1.8-.6-2.6 2.3-.7 2.9z"/><path d="m1843.2 590.4c-2.5 31.3-6.9 62.4-13.4 93.1-.4 1.9 2.5 2.7 2.9.8 6.5-31 11.1-62.4 13.5-93.9.1-2-2.9-2-3 0z"/><path d="m1728.4 628.8c14.1 21.5 30.6 41.3 49.1 59.2 1.4 1.3 3.5-.8 2.1-2.1-18.4-17.7-34.7-37.3-48.7-58.6-1-1.6-3.6-.1-2.5 1.5z"/><path d="m1740.9 587.7c24.2 35.1 52.3 67.4 84 96 1.4 1.3 3.6-.8 2.1-2.1-31.4-28.5-59.4-60.5-83.5-95.4-1.1-1.6-3.7-.1-2.6 1.5z"/><path d="m1786.7 589c14.3 18.3 29.6 35.7 45.9 52.2 1.4 1.4 3.5-.7 2.1-2.1-16.3-16.5-31.6-34-45.9-52.2-1.2-1.5-3.3.6-2.1 2.1z"/><path d="m1755.9 584c-6.5-7.4-11.8-15.7-15.6-24.7-1.8-4.3-3.3-8.7-4.4-13.2-.5-2.2-1-4.3-1.3-6.5-.2-1-.9-3.1-.5-4-.2-1.3.7-1.7 2.7-1.3 2.1-1.3 3.6-.9 4.4 1.4.9 1.2 3.4.6 2.7-1.2-2.9-7.4-5.2-14.9-7-22.6-.8-3.6-1.5-7.1-2.1-10.7-.4-2.3-.6-4.5-.9-6.8-.1-1.2-.2-2.4-.3-3.6-.4-1.9.5-3.3 2.7-4.3.8.9 2.7.3 2.6-1.1-1.4-14-2.7-28-1.5-42 .6-7.3 1.9-14.6 4.3-21.5.7-2 1.4-4.1 2.4-6.1.3-.8.7-1.5 1.2-2.2h6.2c3 1.2 5.3 8.1 6.2 10.6 4.9 13.8 6.9 28.5 9.1 42.9 2.4 15.8 4.8 31.6 7.2 47.4.2 1.6 2.4 1.2 2.9 0 .9-1 1.8-2.1 2.7-3.1-.7-.2-1.4-.4-2.1-.5 5.9 10.8 7.1 23.1 7.9 35.2.8 12.9 1.1 25.9 1 38.8 0 1.9 3 1.9 3 0 .1-14.2-.2-28.3-1.3-42.5-.8-11.4-2.4-22.9-8-33.1-.4-.7-1.4-1-2.1-.5-2.1 1.3-3.2 2.6-4.1 4.9h2.9c-2.9-19.1-5.6-38.3-8.7-57.4-1.4-9-3.1-18.1-5.7-26.9-1.9-6.5-4-14-9.4-18.4-11.8-9.6-16.3 16.7-17.4 23.5-2.8 16.9-1.2 34.1.4 51 .9-.4 1.7-.7 2.6-1.1-1.8-2-4.8-1.9-6.6.2-2.8 3.3-1 9.8-.5 13.5 1.7 12.8 4.9 25.3 9.6 37.4l2.7-1.2c-2.4-3.3-7.3-8-11.2-3.7-3.3 3.7-.7 11.5.2 15.6 3.5 14.9 10.8 28.7 21 40.1 1.3 1.3 3.4-.9 2.1-2.3z"/><path d="m1773.7 490.4c-.3-5.4.2-36.1 10.5-33.4 1 .3 1.8-.5 1.9-1.4 2.2-17.6 9.4-33 16.5-48.9 1.6-3.5 3.2-7.1 4.8-10.6 2.1-4.6 5.2-12.9 11.3-6.5 5.6 5.7 6.3 15.1 6.4 22.6.2 16.6-.6 33.3-1 50-.4 17.8-.8 35.7-1.2 53.5 0 1.6 2.7 2.1 2.9.4.9.2 1.8.5 2.7.7.2.9.2 1.8.2 2.7 0 1.2-.1 2.4-.1 3.6-.1 3-.2 5.9-.4 8.9-.3 6.3-.5 12.6-.8 18.8-.5 12.1-.9 24.3-3.4 36.2-.4 1.9 2.5 2.7 2.9.8 3.7-17.6 3.5-35.9 4.2-53.8.2-4.6.5-9.3.6-13.9 0-2.3 0-4.8-1.6-6.5-2.2-2.5-6.6-1.7-7.2 1.7 1 .1 2 .3 2.9.4.7-32.9 1.7-65.8 2.2-98.7.2-9.9.1-27.2-10.8-32.1-4-1.8-7.5.1-9.7 3.7-3.9 6.4-6.5 14.2-9.6 21.1-6.8 15-12.9 29.5-15 46 .6-.5 1.3-1 1.9-1.4-6.1-1.6-9.4 4.5-11 9.4-2.9 8.6-3.8 17.8-3.3 26.8.3 1.9 3.3 1.9 3.2-.1z"/><path d="m1838.6 659.3h56.6c1.9 0 1.9-3 0-3-18.9 0-37.7 0-56.6 0-1.9 0-1.9 3 0 3z"/><path d="m822.5 265.9v325.7 91.9c0 1.9 3 1.9 3 0 0-108.6 0-217.2 0-325.7 0-30.6 0-61.3 0-91.9 0-1.9-3-1.9-3 0z"/><path d="m824.9 684.2h190.1c1.9 0 1.9-3 0-3-63.4 0-126.7 0-190.1 0-2 0-2 3 0 3z"/><path d="m1015.6 682.7c0-109.9 0-219.8 0-329.7 0-31.3 0-62.6 0-93.9 0-1.9-3-1.9-3 0v13.3c0 1.9 3 1.9 3 0 0-4.4 0-8.8 0-13.3-1 0-2 0-3 0v329.7 93.9c0 1.9 3 1.9 3 0z"/><path d="m1014.1 256.2c-61.8 0-123.7 0-185.5 0-1.9 0-1.9 3 0 3h185.5c1.9 0 1.9-3 0-3z"/><path d="m845.6 337.5c0-16.4 0-32.8 0-49.3 0-1.9-3-1.9-3 0v49.3c0 1.9 3 1.9 3 0z"/><path d="m844.1 289h143.5c1.9 0 1.9-3 0-3-47.8 0-95.6 0-143.5 0-1.9 0-1.9 3 0 3z"/><path d="m987.5 289.7v41.3c0 1.9 3 1.9 3 0 0-13.8 0-27.5 0-41.3 0-1.9-3-1.9-3 0z"/><path d="m845.6 339h142c1.9 0 1.9-3 0-3-47.3 0-94.7 0-142 0-2 0-2 3 0 3z"/><path d="m908.4 322.2c-3.3-1.5-5.5-4.9-4.8-8.6.9-4.4 6.1-7.6 10.2-5.3 3.7 2.1 3.8 7.6 1.7 11-2 3.4-7.1 4.5-9.4.8-1-1.6-3.6-.1-2.6 1.5 2.9 4.7 9.5 5 13.2 1.1 3.9-4.1 4.5-12.4-.1-16.2-4.7-3.9-12-1.5-14.8 3.5-3.1 5.4-.4 12.2 5.1 14.8 1.7.9 3.3-1.7 1.5-2.6z"/><path d="m844.6 440.5c0-16.4 0-32.8 0-49.3 0-1.9-3-1.9-3 0v49.3c0 1.9 3 1.9 3 0z"/><path d="m843.1 392h143.5c1.9 0 1.9-3 0-3-47.8 0-95.6 0-143.5 0-1.9 0-1.9 3 0 3z"/><path d="m986.5 392.7v41.3c0 1.9 3 1.9 3 0 0-13.8 0-27.5 0-41.3 0-1.9-3-1.9-3 0z"/><path d="m844.6 442h142c1.9 0 1.9-3 0-3-47.3 0-94.7 0-142 0-2 0-2 3 0 3z"/><path d="m907.4 425.2c-3.3-1.5-5.5-4.9-4.8-8.6.9-4.4 6.1-7.6 10.2-5.3 3.7 2.1 3.8 7.6 1.7 11-2 3.4-7.1 4.5-9.4.8-1-1.6-3.6-.1-2.6 1.5 2.9 4.7 9.5 5 13.2 1.1 3.9-4.1 4.5-12.4-.1-16.2-4.7-3.9-12-1.5-14.8 3.5-3.1 5.4-.4 12.2 5.1 14.8 1.7.9 3.3-1.7 1.5-2.6z"/><path d="m846.5 549.9c0-16.4 0-32.8 0-49.3 0-1.9-3-1.9-3 0v49.3c0 1.9 3 1.9 3 0z"/><path d="m845 501.4h143.5c1.9 0 1.9-3 0-3-47.8 0-95.6 0-143.5 0-1.9 0-1.9 3 0 3z"/><path d="m988.4 502.1v41.3c0 1.9 3 1.9 3 0 0-13.8 0-27.5 0-41.3 0-2-3-2-3 0z"/><path d="m846.4 551.4h142c1.9 0 1.9-3 0-3-47.3 0-94.7 0-142 0-1.9 0-1.9 3 0 3z"/><path d="m909.3 534.6c-3.3-1.5-5.5-4.9-4.8-8.6.9-4.4 6.1-7.6 10.2-5.3 3.7 2.1 3.8 7.6 1.7 11-2 3.4-7.1 4.5-9.4.8-1-1.6-3.6-.1-2.6 1.5 2.9 4.7 9.5 5 13.2 1.1 3.9-4.1 4.5-12.4-.1-16.2-4.7-3.9-12-1.5-14.8 3.5-3.1 5.4-.4 12.2 5.1 14.8 1.7.8 3.2-1.7 1.5-2.6z"/><path d="m825.7 268.5c-.3-3.5-.2-7 .4-10.4-.5.4-1 .7-1.4 1.1 3.1 0 6.1 0 9.2-.1 1.9 0 1.9-3 0-3-3.1 0-6.1 0-9.2.1-.6 0-1.3.5-1.4 1.1-.6 3.7-.8 7.5-.5 11.2.1 1.9 3.1 1.9 2.9 0z"/><path d="m845.7 257.1c0-4.2 0-8.4 0-12.6 0-1.9-3-1.9-3 0v12.6c0 1.9 3 1.9 3 0z"/><path d="m844.7 245.4h105.9c1.9 0 1.9-3 0-3-35.3 0-70.6 0-105.9 0-1.9 0-1.9 3 0 3z"/><path d="m949.1 245v12.6c0 1.9 3 1.9 3 0 0-4.2 0-8.4 0-12.6 0-1.9-3-1.9-3 0z"/><path d="m865.7 244.5c0-4.4 0-8.8 0-13.2 0-1.9-3-1.9-3 0v13.2c0 1.9 3 1.9 3 0z"/><path d="m865.9 231.7h96.7c1.9 0 1.9-3 0-3-32.2 0-64.5 0-96.7 0-1.9 0-1.9 3 0 3z"/><path d="m947.6 245.3h13.9c1.9 0 1.9-3 0-3-4.6 0-9.2 0-13.9 0-1.9 0-1.9 3 0 3z"/><path d="m961.1 231v11.3c0 1.9 3 1.9 3 0 0-3.8 0-7.5 0-11.3 0-1.9-3-1.9-3 0z"/><path d="m841.8 219.4v11.3c0 1.9 3 1.9 3 0 0-3.8 0-7.5 0-11.3 0-2-3-2-3 0z"/><path d="m844.4 220.1h89c1.9 0 1.9-3 0-3-29.7 0-59.3 0-89 0-1.9 0-1.9 3 0 3z"/><path d="m933 218.6v8.4c0 1.9 3 1.9 3 0 0-2.8 0-5.6 0-8.4 0-1.9-3-1.9-3 0z"/><path d="m844 232.2h21.9c1.9 0 1.9-3 0-3-7.3 0-14.6 0-21.9 0-1.9 0-1.9 3 0 3z"/><path d="m842.6 672.4h129.1c1.9 0 1.9-3 0-3-43 0-86.1 0-129.1 0-1.9 0-1.9 3 0 3z"/><path d="m1344.3 418.4c0-16.8 0-33.5 0-50.3 0-1.9-3-1.9-3 0v50.3c0 1.9 3 1.9 3 0z"/><path d="m1296.5 419.9h95c1.9 0 1.9-3 0-3-31.7 0-63.3 0-95 0-2 0-2 3 0 3z"/><path d="m1363.6 418.4v31.1c0 1.9 3 1.9 3 0 0-10.4 0-20.8 0-31.1 0-1.9-3-1.9-3 0z"/><path d="m1330.8 455h85.4c1.9 0 1.9-3 0-3-28.5 0-56.9 0-85.4 0-1.9 0-1.9 3 0 3z"/><path d="m919.3-48.1c0-26.1 0-52.1 0-78.2 0-1.9-3-1.9-3 0v78.2c0 1.9 3 1.9 3 0z"/><path d="m917.8-123.3h124.4c1.9 0 1.9-3 0-3-41.5 0-82.9 0-124.4 0-1.9 0-1.9 3 0 3z"/><path d="m1040.7-124.1v70c0 1.9 3 1.9 3 0 0-23.3 0-46.7 0-70 0-1.9-3-1.9-3 0z"/><path d="m917.1-46.6h123.6c1.9 0 1.9-3 0-3-41.2 0-82.4 0-123.6 0-1.9 0-2 3 0 3z"/><path d="m926-54.8c0-21.1 0-42.2 0-63.3 0-1.9-3-1.9-3 0v63.3c0 1.9 3 1.9 3 0z"/><path d="m924.5-116.6h108.7c1.9 0 1.9-3 0-3-36.2 0-72.5 0-108.7 0-1.9 0-1.9 3 0 3z"/><path d="m1032.5-115.9v55.1c0 1.9 3 1.9 3 0 0-18.4 0-36.7 0-55.1 0-1.9-3-1.9-3 0z"/><path d="m926.8-52.6h105.8c1.9 0 1.9-3 0-3-35.3 0-70.5 0-105.8 0-2 0-2 3 0 3z"/><path d="m928.3-55.5c20.1-17.3 39.8-35.1 59.1-53.3 1.4-1.3-.7-3.4-2.1-2.1-19.3 18.3-39 36-59.1 53.3-1.5 1.2.7 3.3 2.1 2.1z"/><path d="m961.2-55.4c16-18.7 33.1-36.4 51.2-53.1 1.4-1.3-.7-3.4-2.1-2.1-18.1 16.7-35.2 34.4-51.2 53.1-1.3 1.5.8 3.6 2.1 2.1z"/><path d="m969.8-125c.3-1.9.9-3.7 2-5.3 1-1.5 3.2-4.1 5.2-4 3 .1 2.4 6.4 3.2 8.4.7 1.8 3.6 1 2.9-.8-1.4-3.6-.2-10.7-6.1-10.6-5.5.1-9.3 6.8-10.1 11.5-.3 1.9 2.6 2.7 2.9.8z"/><path d="m1711.5 209.2c0-5.5 0-11 0-16.4 0-1.9-3-1.9-3 0v16.4c0 1.9 3 1.9 3 0z"/><path d="m1710 194.3h210.1c1.9 0 1.9-3 0-3-70 0-140 0-210.1 0-1.9 0-1.9 3 0 3z"/><path d="m1710 210h210.1c1.9 0 1.9-3 0-3-70 0-140 0-210.1 0-1.9 0-1.9 3 0 3z"/><path d="m1917.9 192.8v15.7c0 1.9 3 1.9 3 0 0-5.2 0-10.5 0-15.7 0-2-3-2-3 0z"/><path d="m1720.8 191.3c0-31.2 0-62.4 0-93.6 0-1.9-3-1.9-3 0v93.6c0 2 3 2 3 0z"/><path d="m1718.6 96.4h22.9c1.9 0 1.9-3 0-3-7.6 0-15.2 0-22.9 0-1.9 0-1.9 3 0 3z"/><path d="m1740.7 87v104.3c0 1.9 3 1.9 3 0 0-34.8 0-69.5 0-104.3 0-1.9-3-1.9-3 0z"/><path d="m1742.9 87.1h23.6c1.9 0 1.9-3 0-3-7.9 0-15.7 0-23.6 0-1.9 0-2 3 0 3z"/><path d="m1765.7 85.6v104.3c0 1.9 3 1.9 3 0 0-34.8 0-69.5 0-104.3 0-2-3-2-3 0z"/><path d="m1768.7 93.4c0-9.5 0-19.1 0-28.6 0-1.9-3-1.9-3 0v28.6c0 2 3 2 3 0z"/><path d="m1767.9 64.9h30c1.9 0 1.9-3 0-3-10 0-20 0-30 0-1.9 0-1.9 3 0 3z"/><path d="m1796.4 64.9v125.8c0 1.9 3 1.9 3 0 0-41.9 0-83.8 0-125.8 0-2-3-2-3 0z"/><path d="m1796.4 64.9v67.2c0 1.9 3 1.9 3 0 0-22.4 0-44.8 0-67.2 0-2-3-2-3 0z"/><path d="m1808.7 190.6c.1-3.9.1-7.8.2-11.7-.5.5-1 1-1.5 1.5 19-2.5 38.1-4 57.2-4.4 9.4-.2 18.8-.1 28.2.3 3.7.1 10.3-.7 13.7.9 3.9 1.8 2.9 11.2 2.8 14.8 0 1.9 3 1.9 3 0 0-5.3 1.2-16.2-5.6-17.8-4.4-1-9.4-.7-13.9-.9-5.8-.2-11.7-.4-17.5-.4-22.7-.1-45.4 1.4-67.9 4.4-.8.1-1.5.6-1.5 1.5-.1 3.9-.1 7.8-.2 11.7 0 2 3 2 3 .1z"/><path d="m1827.3 177c0-2.5-.4-5.2 0-7.7.5-3.7 2.2-3.7 5.7-3.9 5.3-.3 10.5-.6 15.8-.8 10.8-.6 21.7-1.2 32.5-1.7 10.3-.6 20.7-1.5 31.1-1.6 3.3 0 7 .1 9.3 2.8 3.1 3.7.5 7.9-3.7 9.1-4.3 1.2-8.9.3-13.2 1.3-1.9.4-1.1 3.3.8 2.9 6.1-1.4 24.5.3 20.7-11.8-1.3-4.2-5.5-6.5-9.6-7-7.6-1.1-15.9.4-23.5.8-15.8.8-31.5 1.7-47.3 2.5-3.9.2-7.9.4-11.8.6-2.2.1-5.4-.3-7.5.8-4.1 2.1-2.2 10.4-2.2 13.9-.1 1.8 2.9 1.8 2.9-.2z"/><path d="m1658.5-185.1c0-18.8 0-37.6 0-56.5 0-1.9-3-1.9-3 0v56.5c0 2 3 2 3 0z"/><path d="m1657-240h106.3c1.9 0 1.9-3 0-3-35.4 0-70.9 0-106.3 0-2 0-2 3 0 3z"/><path d="m1761.8-240.9v51.2c0 1.9 3 1.9 3 0 0-17.1 0-34.1 0-51.2 0-1.9-3-1.9-3 0z"/><path d="m1657.6-184.2h104.3c1.9 0 1.9-3 0-3-34.8 0-69.5 0-104.3 0-1.9 0-1.9 3 0 3z"/><path d="m1699-240.9c-.1-2.4 0-4.7.5-7 .3-1.5 1.1-5.8 2.7-6.4.6.3 1.2.6 1.8.9.2.6.3 1.2.4 1.8.3 1.1.5 2.2.7 3.2.5 2.2 1 4.3 1.5 6.5.4 1.9 3.3 1.1 2.9-.8-.9-3.8-1.5-7.8-2.7-11.5-.7-2.1-2.1-3.9-4.5-3.4-2.6.5-3.9 3.2-4.7 5.4-1.4 3.6-1.9 7.5-1.8 11.3.3 1.9 3.3 1.9 3.2 0z"/><path d="m1664.5-193c19.4-14.6 39.8-27.6 61.1-39.1 1.7-.9.2-3.5-1.5-2.6-21.3 11.5-41.7 24.6-61.1 39.1-1.6 1.2-.1 3.8 1.5 2.6z"/><path d="m1690.5-193.4c16.7-13.3 34.7-24.9 53.6-34.8 1.7-.9.2-3.5-1.5-2.6-19.2 10.1-37.3 21.9-54.2 35.3-1.5 1.2.6 3.3 2.1 2.1z"/><path d="m1732.9-92.7c0-10.4 0-20.8 0-31.2 0-1.9-3-1.9-3 0v31.2c0 1.9 3 1.9 3 0z"/><path d="m1732-123.1h59.8c1.9 0 1.9-3 0-3-19.9 0-39.9 0-59.8 0-1.9 0-1.9 3 0 3z"/><path d="m1732-91.2h62.4c1.9 0 1.9-3 0-3-20.8 0-41.6 0-62.4 0-1.9 0-1.9 3 0 3z"/><path d="m1791.7-123.3v32.6c0 1.9 3 1.9 3 0 0-10.9 0-21.7 0-32.6 0-1.9-3-1.9-3 0z"/><path d="m1756.8-125.3c-.1-1.3.5-10.3 2.7-9.2.6.3 1 3.8 1.1 4.5.4 2 .5 4 .4 6 0 1.9 3 1.9 3 0 0-3.2-.3-6.4-1.1-9.5-.5-1.8-1.2-4.6-3.6-4.7-2.3-.1-3.5 2.7-4.2 4.4-1.1 2.7-1.5 5.6-1.3 8.5.2 1.9 3.2 1.9 3 0z"/><path d="m1737-95.1c10.5-6.5 20.8-13.3 30.8-20.5 1.5-1.1.1-3.7-1.5-2.6-10 7.2-20.3 14.1-30.8 20.5-1.7 1-.2 3.6 1.5 2.6z"/><path d="m1753.8-94.2c8.8-7 17.9-13.4 27.4-19.4 1.6-1 .1-3.6-1.5-2.6-9.7 6.1-19 12.7-28 19.9-1.5 1.2.6 3.3 2.1 2.1z"/><path d="m863.5 19.2v42.9c0 1.9 3 1.9 3 0 0-14.3 0-28.6 0-42.9 0-2-3-2-3 0z"/><path d="m841 65.3h67c1.9 0 1.9-3 0-3-22.3 0-44.6 0-67 0-1.9 0-1.9 3 0 3z"/><path d="m885.9 65.5v25.8c0 1.9 3 1.9 3 0 0-8.6 0-17.2 0-25.8 0-1.9-3-1.9-3 0z"/></g><circle cx="1233.6" cy="-289.9" fill="#ec615b" r="12.1"/><circle cx="1266.6" cy="-267" fill="#ec615b" r="10.8"/><circle cx="1666.2" cy="296.8" fill="#5222d0" r="9.3"/><circle cx="1635.8" cy="255.4" fill="#5222d0" r="7.7"/><circle cx="1272.1" cy="-305.5" fill="#5222d0" r="5.5"/><circle cx="927.4" cy="152.8" fill="#5222d0" r="20.3"/><circle cx="943.6" cy="130.7" fill="#ec615b" r="19"/><circle cx="1669" cy="248.9" fill="#ec615b" r="6.5"/><circle cx="1828.1" cy="-254" fill="#ec615b" r="13.1"/><path d="m1305.1-140.5c-2-1.1-1.9-3.8-1-5.4 1.1-1.8 2.5-2.6 4.6-3.2 2.5-.6 5.1-.6 7.6-.9 3.1-.4 6.5-1.2 8.8-3.6 2.9-2.9 2.4-6.7 2.1-10.4-.5-6.5 3.2-12.3 10-13 5.6-.6 13.6.3 13.9-7.5.2-4.6-3.8-10.6 1.2-13.9 3.7-2.4 9.9-.6 13.6.6 1.8.6 2.6-2.3.8-2.9-6.3-2.1-18.1-3.8-19.8 5.1-.5 2.3.2 4.5.6 6.8.5 2.6 1.5 5.3-1.2 7.5-1.3 1.1-3.6.9-5.2 1-4.6.3-8.5.3-12.1 3.5-3.5 3-5.1 7.3-4.9 11.9.2 4.9.6 9.5-5 11.2-2.7.9-5.6.7-8.4 1.1-4 .5-8.1 1.8-9.8 5.8-1.4 3.3-.7 7 2.5 8.8 1.9 1 3.4-1.6 1.7-2.5z" fill="#ec615b"/><path d="m1342.9-159.7c-2.7-1.6-1.8-5.5.1-7.4 2.3-2.4 6.6-2.5 9.6-2.9 3.2-.4 6.5-.9 9.3-2.6 2.1-1.3 3.8-3.3 4.4-5.8.8-3.8-2.7-9.2-.6-12.5s7.9-1.8 11.1-1.9c2.6-.1 5-.5 7.1-2.2 2.6-2.1 3.5-5.3 3.8-8.5.3-2.1.2-4.2.5-6.3.4-2.8 5-10.8 8.2-5.1.9 1.7 3.5.2 2.6-1.5-1.6-2.9-4.9-3.8-8-2.6-3.9 1.4-5.3 5.3-5.8 9.1-.5 3.5.1 7.4-1.6 10.6-1.9 3.5-5.7 3.6-9.2 3.5s-7.7-.6-10.4 2.2c-3.1 3.3-1.3 7.5-.7 11.4 1.5 9.9-10.4 8.5-16.6 10.1-3.7 1-6.9 3-8 6.8-1 3.3-.1 6.4 2.8 8.2 1.5 1 3-1.6 1.4-2.6z" fill="#ec615b"/><path d="m1247.1 567.2c-3-3.7-1.8-9.3 1.6-12.3 4.3-3.8 10.4-1.9 13.3 2.6 3 4.6 2.4 10.3-1.9 13.9-5.5 4.6-14.2 1.4-14.3-6.1 0-1.9-3-1.9-3 0 .1 7.8 7.8 13.4 15.3 10.7 7.8-2.8 11-11.9 7.1-19-3.4-6.2-11.3-9.7-17.5-5.2-5.5 4.1-7.1 12.1-2.7 17.5 1.2 1.5 3.3-.7 2.1-2.1z" fill="#5222d0"/><path d="m1267.4 581.6c-3.6-2.3-7.2-5.5-8.2-9.8-1.5-6.5 4.5-12 10.6-8.5 3.9 2.3 7.6 6.9 6.9 11.7-.6 4.2-7.1 8.1-10.3 3.7-1.1-1.5-3.7-.1-2.6 1.5 3.4 4.7 10.2 4 13.8-.2 5-5.8.6-14.2-4.6-18.1-5.9-4.5-13.4-3.7-16.3 3.7-3.1 7.7 2.9 14.7 9.1 18.6 1.7 1 3.2-1.6 1.6-2.6z" fill="#5222d0"/><path d="m940.9 471.5c-3-2.4-4.1-6.5-1.2-9.5 2.6-2.8 5.9-2.3 9.1-.8 2.9 1.3 5.7 2.9 9 2.3 10.2-1.9.9-16.6 9.2-19.8 3.5-1.3 4.1.7 6.3 2.8 1.1 1 2.1 1.6 3.6 1.7 2.4.2 4.4-1.4 5.7-3.3 2.2-3.6 1.2-8.3 2.2-12.2.7-2.6 2.1-5.8 4.6-7 3.1-1.5 7.9.1 7.9 4 0 1.9 3 1.9 3 0 .1-8.7-11.3-9.4-15.8-3.6-1.3 1.7-2.1 3.8-2.7 5.8-.7 2.8.1 7.1-1.1 9.6-3.6 7.6-5.7 2.1-7.5.4-.8-.7-1.5-1.3-2.5-1.6-1.6-.6-3.4-.4-5 .4-4.8 2.2-5.6 7.3-5.7 12-.1 2.7 1 7.4-3.6 8.1-1.9.3-4-1-5.6-1.7-2-.9-3.9-2-6.2-2.1-9.5-.6-13 11.2-6 16.8 1.7 1.1 3.8-1 2.3-2.3z" fill="#5222d0"/><path d="m976.1 427c-1.9-3.6-1.1-8 1.8-10.9 3-2.9 6.3-1.8 9.8-2.8 4.8-1.4 5.1-5.3 5.4-9.7 1-13.2 22.1-6.1 23.7-19.6.2-1.9-2.8-1.9-3 0-.9 7.8-13.3 7-18.5 10.1-2 1.2-3.6 2.7-4.4 4.9-1 2.6-.2 5.5-1 8.1-1.5 4.9-7.1 3-10.7 4.5-1.8.8-3.2 2-4.4 3.5-3.1 3.9-3.5 9-1.3 13.3.9 1.8 3.5.3 2.6-1.4z" fill="#5222d0"/><path d="m883.5-138.3c-2.8-7.7-3.7-18 4.4-22.9 7.7-4.6 15.1 2.5 15.9 10.1.7 6.8-3.8 14.3-10.5 16.3-6.9 2-14.2-2.6-15.5-9.6-.3-1.9-3.2-1.1-2.9.8 1.6 8.6 10.8 14.2 19.2 11.7 8.5-2.4 14-11.9 12.6-20.4-1.4-8.7-9.7-16.1-18.6-12.2-10.8 4.6-10.9 17.6-7.4 27.1.5 1.7 3.4 1 2.8-.9z" fill="#ec615b"/><path d="m894.6-155.1c-12-2.2-6.3-21.7 2.6-24 7.6-2 10.3 7 9 12.8-.5 2.3-1.3 4.6-2.5 6.7-1.5 2.7-6.6 8.1-9 2.4-.8-1.8-3.3-.2-2.6 1.5 1.2 2.9 4.2 4.2 7.2 3.7 3.7-.7 6-4.2 7.6-7.4 3.5-7.3 4.6-18.1-4.1-22.2-14.7-7-27.1 26.2-9.1 29.4 1.9.3 2.8-2.5.9-2.9z" fill="#ec615b"/><path d="m1659.4 390.8c-4.1-8.1 7.8-13.1 11.3-4.9.2.6 1.1.9 1.7.7 4.4-1.7 6.1-5.3 8.3-9.2 1.6-2.9 3.4-6.5 7.2-6.8 4.4-.4 8 3.9 7.6 8.1-.2 1.9 2.8 1.9 3 0 .7-6.3-5.5-12.2-11.9-10.9-8.4 1.7-7.7 13.2-14.9 16 .6.2 1.1.5 1.7.7-5.1-11.9-22.3-3.6-16.5 8 .8 1.5 3.4 0 2.5-1.7z" fill="#5222d0"/><path d="m1629.8-103c-3.9 4.3-5.1 10.3-3 15.8 1 2.5 2.7 4.5 4.8 6.1 3.2 2.5 9.6 4.9 8.4 9.7-1 4.5-6.8 8.8-.9 12.8 2.3 1.6 5.3 1.7 7.9 2.6 5.3 1.8 7.9 8 3.6 12.5-1.3 1.4.8 3.5 2.1 2.1 3.5-3.7 4-9.3 1-13.6-1.5-2.1-3.6-3.2-6-3.9-1.5-.5-3.1-.7-4.6-1.2-3.5-1.1-3.6-3.8-2.1-6.9 1.1-2.4 2.7-4 2.1-6.8-.5-2.3-2.2-4-3.9-5.4-3-2.4-6.9-4-9-7.4-2.7-4.5-1.9-10.4 1.5-14.2 1.5-1.5-.6-3.6-1.9-2.2z" fill="#5222d0"/><path d="m1662.7-68.8c-2.9.8-4.5 3.4-4.2 6.5.4 4.1 4.1 6.2 7.2 8.2 2.3 1.5 3.3 2.3 3.9 5.1.6 2.5.1 2.8 0 4.9 0 1.3.3 2.4 1.1 3.5 1 1.4 2.7 2.1 4.1 3.1 3.6 2.5 4.8 6.3 3.3 10.4-.7 1.8 2.2 2.6 2.9.8 1.1-3.1 1.1-6.3-.4-9.2-1.6-3.2-7.9-5.6-8-9 0-1.5 1-2.8.8-4.4-.2-1.3-.7-2.5-1.5-3.6-1.3-1.8-3-3-4.9-4.3-2.2-1.4-9.5-7.6-3.7-9.2 2-.4 1.2-3.3-.6-2.8z" fill="#5222d0"/><path d="m1324.6 213.9c-1.7-3-.6-7.5 3.1-8.4 2.5-.6 5.7.6 7.1 2.8 3.6 5.4-5.1 10.6-9.3 6.9-1.4-1.3-3.6.8-2.1 2.1 7 6.2 19.9-2.7 13.7-11-2.5-3.3-7.4-4.9-11.2-3.4-4.9 2-6.2 8.1-3.8 12.4.9 1.8 3.4.3 2.5-1.4z" fill="#ec615b"/><path d="m1326.7 205.1c-2.6-5.2-3.5-11.7.1-16.7 3.3-4.6 10.2-6 14.3-1.8 4.1 4.1 3.9 10.7.8 15.4-3.5 5.3-10.4 6.6-16.1 4.6-1.8-.7-2.6 2.2-.8 2.9 7 2.6 15.3.5 19.5-5.9 3.9-6 3.8-14.9-1.8-19.7-4.9-4.3-12.4-3-16.9 1.3-5.9 5.7-5 14.8-1.7 21.6.9 1.5 3.4 0 2.6-1.7z" fill="#5222d0"/><path d="m1827.7 32.2c9.1-7.3 18.3-14.7 27.4-22-.9-.4-1.7-.7-2.6-1.1-.8 6.6-2.6 12.9-5.6 18.8-.6 1.3.7 2.9 2.1 2.1 10.9-6.9 22.2-13.2 33.9-18.7-.7-.7-1.4-1.4-2.1-2.1-4.2 6-6.9 12.5-8.3 19.7-.2 1.2 1 2.4 2.2 1.7 9.9-5.8 19.7-11.6 29.6-17.4-.7-.6-1.5-1.1-2.2-1.7-1.2 5.9-2.3 11.7-3.5 17.6-.4 1.9 2.5 2.7 2.9.8 1.2-5.9 2.3-11.7 3.5-17.6.2-1.2-1-2.4-2.2-1.7-9.9 5.8-19.7 11.6-29.6 17.4.7.6 1.5 1.1 2.2 1.7 1.3-6.9 4-13.2 8-19 .9-1.3-.8-2.6-2.1-2.1-11.7 5.5-23 11.8-33.9 18.7.7.7 1.4 1.4 2.1 2.1 3.2-6.5 5.2-13.2 6-20.4.2-1.4-1.7-1.8-2.6-1.1-9.1 7.3-18.3 14.7-27.4 22-1.4 1.4.7 3.5 2.2 2.3z" fill="#ec615b"/><path d="m1865.9 51.3c6.8-4.3 13.5-8.6 20.2-12.9-.8-.4-1.5-.9-2.3-1.3-.6 4.8-1.8 9.2-3.5 13.7-.5 1.3 1.1 2.3 2.2 1.7 11.2-6.1 22-12.8 32.4-20-.7-.6-1.5-1.1-2.2-1.7-2 4.8-4 9.6-6 14.3-.7 1.8 2.2 2.6 2.9.8 2-4.8 4-9.6 6-14.3.5-1.2-1.2-2.4-2.2-1.7-10.5 7.2-21.3 13.9-32.4 20 .7.6 1.5 1.1 2.2 1.7 1.8-4.7 2.9-9.5 3.6-14.5.1-1.1-1.4-1.9-2.3-1.3-6.7 4.3-13.5 8.6-20.2 12.9-1.5 1.1 0 3.6 1.6 2.6z" fill="#ec615b"/><circle cx="1282.3" cy="340.8" fill="#5222d0" r="16.9"/><path d="m1515.4 686.4c1.1 6.7 2.2 13.4 3.3 20-12.5 13.8-23.9 22.7-32.2 28.4-9.3 6.4-22.4 14.1-33.8 30.1-1.5 2.1-2.6 3.8-3.3 5 11.1-3.2 22.3-6.4 33.4-9.6 24.8-7.2 49.6-14.4 74.3-21.7-4-25.1-8.1-50.1-12.1-75.2-9.9 7.7-19.7 15.3-29.6 23z"/><path d="m1456.1 356.1c.2 6.3.6 15.4 1.4 26.4 1.1 16.7 4.1 54.9 19.6 135.2 11 56.9 22.4 104.9 33.8 152.8 1.7 7.1 3.1 12.9 4.1 16.9 10.8-2 21.6-4.1 32.4-6.1-1.5-10.8-3.6-27-6.1-46.6-9.6-76.1-15.6-124.5-18.3-181.9-1.1-23.9-1.9-57.7-.7-98.7-22.1.6-44.2 1.3-66.2 2z" fill="#fff"/><path d="m1492.3 366.5c1 7.2 2.5 18.1 4.3 31.2 6.9 49.4 12.3 85.8 13.4 93.6 4.7 31.6 12.3 87.2 25.3 192 3.9-.4 7.9-.7 11.8-1.1-1.7-10.9-4.2-27.8-7-48.4-6.6-49-15.3-114.2-18.3-195.8-.6-16.3-1.2-39.8-1.1-68.3-9.4-1-18.9-2.1-28.4-3.2z" fill="#606060" opacity=".11"/><path d="m1454.3 357.7c6.9 92 25.1 182.6 45.8 272.4 5.9 25.7 12 51.3 18.2 77 .4 1.9 3.3 1.1 2.9-.8-21.3-89.2-42.7-178.6-55.3-269.5-3.7-26.3-6.5-52.6-8.5-79.1-.2-1.9-3.2-1.9-3.1 0z" fill="#161616"/><path d="m1519.6 372.3c-.1 95.7 7.4 191.4 22.4 285.9 4.3 27 9.2 53.8 14.7 80.6.4 1.9 3.3 1.1 2.9-.8-19.2-93.8-31-189.1-35.2-284.8-1.2-27-1.7-53.9-1.7-80.9-.1-1.9-3.1-1.9-3.1 0z" fill="#161616"/><path d="m1518.9 705.8c-13 10.9-25.9 21.9-38.9 32.8-11 9.3-23.3 18.2-31 30.7-.7 1.1.4 2.6 1.7 2.2 36.1-10.5 72.2-20.9 108.3-31.4 1.9-.5 1.1-3.4-.8-2.9-36.1 10.5-72.2 20.9-108.3 31.4.6.7 1.1 1.5 1.7 2.2 7.8-12.8 20.7-21.9 32-31.4 12.5-10.5 24.9-21 37.4-31.5 1.5-1.2-.7-3.3-2.1-2.1z" fill="#161616"/><path d="m1623.6 670.1c4.5 14.1 8.9 28.1 13.4 42.2-10.4 7.3-19.5 13.8-27.1 19.4-16.4 11.9-22.8 16.9-30.2 24.1-5.1 5-9 9.4-11.6 12.5 10-1.6 32.5-5.3 55.6-10.3 19.1-4.2 15.6-4.3 23.7-5.6 5.3-.8 11.7-1.5 19.4-5.2 3-1.4 5.3-2.8 6.9-3.9-.4-3.8-.8-7.7-1.3-11.6-2.7-20.9-7.2-40.1-12.5-57.3-12.2-1.5-24.2-2.9-36.3-4.3z"/><path d="m1543.9 366.2c2 14.8 5.1 34.9 9.6 58.5 3.4 17.8 11.2 56.4 25.6 106.6 11.3 39.4 14.9 44.7 36.1 113 7 22.5 12.5 40.9 16 52.9 10.4-2.9 20.8-5.9 31.2-8.8-2.1-11.2-5.2-27.9-8.8-48.1-12.4-69.7-23.8-133.3-32-209.1-2.9-26.5-6.4-63.5-8.8-108.2-23 14.3-46 28.7-68.9 43.2z" fill="#fff"/><path d="m1543 370.6c12.2 90.9 39.5 178.8 67.6 265.8 8.2 25.2 16.4 50.4 24.6 75.6.6 1.8 3.5 1 2.9-.8-28.5-87.6-58.9-175.1-78.7-265.2-5.5-25.2-10.1-50.6-13.6-76.2-.2-1.9-3-1.1-2.8.8z" fill="#161616"/><path d="m1611.7 339.3c7.6 105 21.6 209.5 41.9 312.9 5.8 29.3 12 58.5 18.8 87.6.4 1.9 3.3 1.1 2.9-.8-23.8-102.3-41.4-206-52.6-310.4-3.2-29.7-5.8-59.4-8-89.2-.1-2.1-3.1-2.1-3-.1z" fill="#161616"/><path d="m1635.3 712.6c-24.6 16.1-49.4 32.5-69.3 54.4-1 1.1 0 2.8 1.5 2.5 23.6-4.7 47.2-9.5 70.7-14.2 5.8-1.2 11.6-2.3 17.4-3.5 4.5-.9 9.5-1.4 13.8-3.4 5.3-2.5 8.6-8.9 4.2-13.8-1.3-1.5-3.4.7-2.1 2.1 8.1 9.3-17.4 12.4-21.5 13.2-9.4 1.9-18.7 3.8-28.1 5.7-18.4 3.7-36.8 7.4-55.2 11.1.5.8 1 1.7 1.5 2.5 19.8-21.7 44.3-38 68.7-54 1.5-1.1 0-3.7-1.6-2.6z" fill="#161616"/><path d="m1593.3 380.4c1.3 8.8 4.8 32.9 6.1 41.9 19.5 134.4 24.8 173.4 38.5 228.5 2.7 10.8 6.5 25.4 11.5 42.6 4.5-1.4 9-2.7 13.5-4.1-1.8-9.8-4.3-24.4-7.4-41.9-13.7-77.6-20.6-116.3-24.3-140.6-5.3-34.1-11.6-82.3-15.5-142-7.5 5.2-15 10.4-22.4 15.6z" fill="#606060" opacity=".1"/><path d="m1467.1 186.3c-5.3 16-10.2 33.7-14 53-10.5 52.5-10.1 99.2-6.3 135.7 8.3 3.7 20.2 8.4 34.9 12.3 16.6 4.3 45.8 11.7 82 5.7 13.7-2.3 35.4-7.6 59.4-21.7-.7-26.1-3.3-56.4-9.4-89.9-6.7-36.5-16.2-68.1-25.7-94.3-40.3-.2-80.6-.5-120.9-.8z" fill="#ec615b"/><path d="m1562.3 189.5c3.3 8.8 6.3 18 9 27.7 18.4 66.5 13.5 127.8 3.7 174.2 8.6-2.2 18.5-5.5 29.2-10.5 6.7-3.1 12.7-6.5 17.9-9.7.2-14.1-.2-29.1-1.5-44.8-4.6-55.5-18.7-102.5-33.6-139-8.2.6-16.4 1.4-24.7 2.1z" fill="#606060" opacity=".11"/><path d="m1486.5-28.3c-2.6 1.9-6.1 4.6-9.9 8.2-12.2 11.5-18.5 23-20.2 26.2-5.2 10-7.2 18.5-10.3 32.2-3.6 15.6-3 21-8.6 28.3-5.4 7.1-12.3 10.5-15.5 12-9.4 4.6-17.8 4.7-22.8 4.7-11.2.1-20.2-3-25.8-5.6-1.1 1.4-2.3 2.9-3.4 4.3-3.2-1.6-8.1-4-14.2-6.4-12-4.8-18.1-7.2-25.3-6.4-1.5.2-14.3 1.7-17.2 9.9-1 2.9-.9 7.1 1.3 9 2.6 2.2 7.6 1 12 0 3.7-.8 5.5-1.8 7.7-.9 1.6.7 2.6 2.1 3.4 3.9 3.1 6.4 1.1 11.4 2.1 21.9.5 5.7.9 8.7 3 10.3.7.6 3.2 2.2 14.2-.9 4-1.1 9.7-3 16.3-6.4-.4 2.7-.9 5.4-1.3 8.2 6.8 1.7 16.7 3.7 28.8 4.7 17.7 1.5 29.8 2.5 44.2-2.6 16-5.7 26.4-15.8 31.3-21.5 9.7-11.1 13.5-22.1 15.5-27.9 14.1-40.5-2.7-96.6-5.3-105.2z" fill="#fff"/><path d="m1491.2-14.2c-.8 6.8-2.2 16.8-4.3 28.8-4.6 25.6-6.8 38.4-13.3 51.5-3.7 7.4-11.8 23.9-28.8 34.8-29.3 18.8-64.1 7.7-70.4 5.6-10.3 5.2-20.6 10.3-30.9 15.5 2.7.5 6 .8 9.9.4 8.9-.8 15.5-4.5 18.9-6.9v9.4c6.8 1.6 16.7 3.5 28.8 4.3 17.1 1.1 29.7 1.9 44.2-3.4 25.2-9.3 37.6-30.5 39.9-34.8 7-12.6 8.3-23.5 9.9-38.6 1.6-15.2 2.2-38.3-3.9-66.6z" fill="#606060" opacity=".1"/><path d="m1485.7-30c-15.6 11.2-27.8 26.7-34.7 44.7-7.8 20.5-7.7 43.5-19.2 62.6-1 1.7 1.6 3.2 2.6 1.5 10.5-17.5 11.5-38.1 17.4-57.2 6.1-19.7 18.6-36.9 35.4-49 1.6-1.1.1-3.7-1.5-2.6z" fill="#161616"/><path d="m1372.2 78.2c.8 14.5.4 29-1.2 43.4-.2 1.9 2.8 1.9 3 0 1.7-14.4 2.1-28.9 1.2-43.4-.1-2-3.1-2-3 0z" fill="#161616"/><path d="m1372.4 79.6c14.4 4.6 30.5 7.8 45.3 2.9 11.2-3.7 20.8-11.6 24.9-22.9.7-1.8-2.2-2.6-2.9-.8-4.1 11.2-14.3 18.7-25.6 21.6-13.6 3.5-27.8.5-40.8-3.7-1.9-.6-2.7 2.3-.9 2.9z" fill="#161616"/><path d="m1372.1 124.8c23.1 6.1 50.6 9.7 74 2.8 21.2-6.3 34.7-24.4 44.8-43 .9-1.7-1.7-3.2-2.6-1.5-10.1 18.5-23.4 36.4-44.7 42.1-22.5 6-48.5 2.6-70.7-3.2-1.8-.6-2.6 2.3-.8 2.8z" fill="#161616"/><path d="m1371.8 79.7c-6.1.1-12.2-4.1-17.7-6.6-4.2-1.9-8.6-3.7-13.1-4.7-8-1.8-16.6-1.2-23.2 4.1-4.1 3.3-9.2 10.9-4.9 15.9 2 2.2 5.2 3.2 8.1 3.3 3.7.1 13.5-5.9 15.3-1.3.7 1.8 3.6 1 2.9-.8-1.8-4.7-6.4-4.7-10.6-3.1-4.1 1.5-14.6 5.4-14.1-3.9.2-4 4.9-7.9 8.1-9.7 8.9-4.8 19.7-1.7 28.3 2.1 6.5 2.9 13.6 7.9 20.9 7.8 2-.1 2-3.1 0-3.1z" fill="#161616"/><path d="m1344 124.1c9.9 2 19.8-.1 27.9-6.2 1.5-1.1 0-3.7-1.5-2.6-7.5 5.6-16.4 7.7-25.6 5.9-1.9-.4-2.7 2.5-.8 2.9z" fill="#161616"/><path d="m1524.8-47.8c-5.2 0-10.3 0-15.5 0v9.3c-3.8.6-9.1 1.8-15 4.6-4.7 2.3-8.3 5-10.8 7.2-3.5 18.8-7.1 33.9-9.8 44.4-4 15.3-6.2 21.7-6.7 33.5-.4 8.9.7 10 1 27.3.1 7.5.3 16.8-.5 27.9-.6 8-1.4 13.9-4.1 30.4-4.8 29.2-5.5 30.9-6.7 39.2-1.7 11.8-3.1 28.8-1.5 50.1 2.4 1.6 6.3 4.1 11.4 6.7 9.3 4.9 14 6 21.7 9.8 4.2 2.1 10.2 5.5 17 10.8 2.1-15.5 4.1-31 6.2-46.4 2.8 16.5 5.5 33 8.3 49.5 4.6.4 11.4.6 19.6 0 10.7-.8 31-2.7 49.5-16 9.6-6.9 13.9-13.4 15-15 4.7-7.2 6.5-14.2 7.2-18.6-1.6-9.1-3.5-21.8-5.2-37.2-2-19.2-2.9-36.7-3.1-65.5-.2-23.7 0-54.6 1.5-91.3 3.3-10.7 6.5-21.3 9.8-32-6.6-4.3-14.5-8.8-23.7-12.9-12-5.4-23.2-8.7-32.5-10.8.2-3.8.3-7.6.5-11.4-3.4 2.5-11.3 7.5-22.2 7.7-4.6.3-8.4-.4-11.4-1.3z" fill="#fff"/><path d="m1603.8 29.1c-2.3 7.4-5.7 19.3-9.3 34.1-13.2 54.7-11 79.3-19.6 113.5-4.9 19.3-14.6 47.5-36.6 80 13.5-1.3 24-4.6 31-7.2 12.1-4.6 24.2-9.2 33-21.2 6.2-8.3 8.4-16.9 9.3-22.2-3-17.2-5.5-35.4-7.2-54.7-4.3-45.3-3.6-86.4-.6-122.3z" fill="#606060" opacity=".09"/><path d="m1534.6-43.2c-1.1.4.3 4.3-1.5 10.3-1.1 3.4-2.8 6-4.1 7.7 5.9 2.4 11.7 2.2 13.9-.5 4.2-5.1-6-18.3-8.3-17.5z" fill="#606060" opacity=".12"/><path d="m1508.8 205c-2 6-3.9 12.6-5.7 19.6-2.1 8.4-3.6 16.4-4.6 23.7 2.8 1.5 5.5 3.1 8.3 4.6.7-15.9 1.4-31.9 2-47.9z" fill="#606060" opacity=".12"/><path d="m1523.6-49c-4.9 0-9.7.3-14.6.9-.7.1-1.6.6-1.5 1.5.5 4.5 1 9 1.5 13.6.2 1.9 3.2 1.9 3 0-.5-4.5-1-9-1.5-13.6-.5.5-1 1-1.5 1.5 4.8-.6 9.7-1 14.6-.9 2 0 2-3 0-3z" fill="#161616"/><path d="m1509.2-44.9c3.8 3.3 6.1 7.6 6.9 12.6.3 1.9 3.2 1.1 2.9-.8-.9-5.4-3.6-10.3-7.7-13.9-1.4-1.3-3.5.8-2.1 2.1z" fill="#161616"/><path d="m1484.6-25.5c7.6-5.7 16-9.9 25.2-12.4 1.9-.5 1.1-3.4-.8-2.9-9.4 2.6-18.1 6.9-25.9 12.7-1.6 1.2-.1 3.8 1.5 2.6z" fill="#161616"/><path d="m1563.8-41.7c17.8 4.9 34.3 13 49 24.2 1.5 1.2 3-1.4 1.5-2.6-14.9-11.3-31.7-19.5-49.7-24.5-1.9-.5-2.7 2.4-.8 2.9z" fill="#161616"/><path d="m1476.7 7.9c-20 43-5.4 90.8-7.7 136.1-.1 1.9 2.9 1.9 3 0 2.2-44.6-12.4-92.2 7.3-134.6.8-1.7-1.8-3.2-2.6-1.5z" fill="#161616"/><path d="m1466.8 94.3c.9 22.6-5.6 44.4-9.4 66.5-3.6 21.5-4.4 43.3-3.6 65.1.1 1.9 3.1 1.9 3 0-.8-22.8 0-45.6 4.1-68 3.9-21.1 9.7-41.9 8.8-63.5 0-2-3-2-2.9-.1z" fill="#161616"/><path d="m1454.7 227.2c7.6 5 15.7 9.3 24.1 12.8 9.6 3.9 17.6 8.2 25.9 14.5 1.5 1.2 3-1.4 1.5-2.6-7.3-5.6-14.6-10-23.2-13.4-9.4-3.7-18.4-8.3-26.9-13.8-1.5-1.2-3 1.4-1.4 2.5z" fill="#161616"/><path d="m1507.8 253.2c1.6-16.7 3.1-33.4 4.7-50 .2-1.9-2.8-1.9-3 0-1.6 16.7-3.1 33.4-4.7 50-.2 1.9 2.8 1.9 3 0z" fill="#161616"/><path d="m1509.8 203.9c1.6 17.9 4.4 35.6 8.2 53.2.4 1.9 3.3 1.1 2.9-.8-3.8-17.3-6.5-34.8-8.1-52.4-.2-1.9-3.2-2-3 0z" fill="#161616"/><path d="m1520.3 258.9c17.9.7 35.7-2.4 52.3-9.1 13.3-5.4 28.6-13.1 33.9-27.4.7-1.8-2.2-2.6-2.9-.8-5.4 14.6-23.1 22.3-36.7 27.2-15 5.4-30.8 7.7-46.6 7.2-1.9-.1-1.9 2.9 0 2.9z" fill="#161616"/><path d="m1602.6 28c-3.8 60-1.7 120.2 6.1 179.7.3 1.9 3.3 1.9 3 0-7.9-59.6-10-119.8-6.1-179.7.1-1.9-2.9-1.9-3 0z" fill="#161616"/><path d="m1609 205.4c-1.2 8.2-4 15.8-8.5 22.8-1 1.6 1.6 3.1 2.6 1.5 4.6-7.2 7.6-15 8.8-23.5.3-1.9-2.6-2.7-2.9-.8z" fill="#161616"/><path d="m1517.1-28.1c2.5 3 6.2 4.7 10.1 4.8 1.9 0 1.9-3 0-3-3.2-.1-6-1.5-8-3.9-1.3-1.5-3.4.6-2.1 2.1z" fill="#161616"/><path d="m1526-18.3c-19.3 65.5-3.3 134.4-13.1 201.1-.3 1.9 2.6 2.7 2.9.8 9.8-66.7-6.1-135.6 13.1-201.1.6-1.9-2.3-2.6-2.9-.8z" fill="#161616"/><path d="m1518.5-9.2c-.1-.1-.1-.1 0 0-.1 0-.1 0 .1.1-.1-.1-.1-.1 0 .1 0-.1 0-.2-.1-.2.1.2.2.2 0 0 .1-.1.1-.1.1.1 0-.1 0-.1-.1-.1.1.1.1.2 0 0 .1-.2.1-.1 0 0 .1-.1.1 0 0 .1.1-.1.1-.1-.1 0 .1-.1.1-.1-.1 0-.1 0-.2 0-.4 0 .2 0 .1 0 0 0 .1.1.1.1 0 0l.2.2c-.1-.2-.1-.2 0 0 0 .2 0 .1 0-.1 0 .2 0 .1 0-.1 0-.1.1-.2.2-.3-.1.1-.1.1 0 0s.2-.1.4-.1h.1c-.2-.1-.1 0 .1 0-.1 0-.1-.1-.2-.1.2.1.2.1.1 0 .1.2.1.2 0 .1s-.1-.1 0 .1c0-.2 0-.1 0 .1s-.1.3 0 .1c-.1.2-.1.2 0 .1.5-.7.1-1.7-.5-2.1-.8-.4-1.6-.1-2.1.5-1.2 1.7.4 4 2.3 4.1.9.1 1.8-.4 2.3-1.2.5-.9.4-2-.1-2.8-1-1.7-3.6-1.9-4.6-.1-.9 1.6-.1 3.9 1.8 4.3.8.2 1.6-.3 1.8-1 .1-.7-.4-1.6-1.2-1.8z" fill="#161616"/><path d="m1514.4 23.4c0-.6-.1-1.2-.1-1.8-.4.5-.7 1-1.1 1.4.2 0 .2-.1.1 0h.1c-.3-.1.2 0-.1 0 0 0 .1 0 .1.1-.1-.1-.1-.1 0 0v.1c-.1-.1 0-.1 0-.2 0 .2-.1.2 0 0-.1.1-.1.1-.2.2.1 0 .3 0 0-.1.4.1.7.3 1.1.4 0 0-.1-.2-.1-.3s0-.2 0-.3c.5-1.9-2.4-2.7-2.9-.8-.3 1.2-.1 2.7.9 3.6 1.1 1.1 3.1.1 3.8-1 1.5-2.3-1-5.3-3.5-4.4-.6.2-1.2.8-1.1 1.4 0 .6.1 1.2.1 1.8.1.8.6 1.5 1.5 1.5.6-.1 1.4-.8 1.4-1.6z" fill="#161616"/><path d="m1512.4 52.3c-.2-.3 0 .1-.1-.2 0 .1 0 .1 0-.1 0 .1 0 .1 0 0 0 0 0-.1.1-.1-.1.1 0 0 .1-.1l-.1.1c-.4-.1-.8-.1-1.2-.2-.3-.2.1.2-.1-.1.1.1.1.1 0 0 0-.1 0-.1 0 .1 0-.2 0-.2 0-.1s0 .1 0 .2c0-.3 0 .1 0 .1-.1.3.1-.1-.1.1s.2-.1-.1.1c.2-.1.1 0 0 0-.2 0 .5-.1.1 0 .5.5 1 1 1.5 1.5 0-.6-.1-1.2-.1-1.8 0-.8-.7-1.5-1.5-1.5s-1.5.7-1.5 1.5c0 .6.1 1.2.1 1.8 0 .8.7 1.5 1.5 1.5 2.4-.1 4-3 2.7-5.1-.4-.6-1-1.2-1.7-1.2s-1.4.5-1.8 1c-.9 1-1.1 2.6-.4 3.8 1 1.9 3.6.3 2.6-1.3z" fill="#161616"/><path d="m1511.8 78.6c.1.2.2.3.2.5 0-.2 0 0 0 .1.1-.3-.1.3 0 0 .1-.2-.1.2 0 0 0-.1.3-.2 0 0 .2-.1-.2.1 0 0 .1 0-.3 0-.4 0 .3 0-.2-.2 0 0-.2-.2-.4-.4-.5-.5.2.4.2.9 0 1.5.3-.3.7-.7 1-1-.2.1-.2.1 0 0 .2 0 .2 0 0 0h.1c.1.1.1.1 0 0 .1.1.1.1 0 .1-.1-.1 0-.1 0 .1s0 .2 0 0c0 .2 0 .2 0 0 .3-.8-.3-1.6-1-1.8-.9-.2-1.5.3-1.8 1-.6 1.5.6 3.2 2.1 3.5.4.1.9.1 1.3-.1.7-.2 1-.7 1.1-1.4.2-.9.2-1.8-.1-2.7s-.9-1.6-1.9-1.7c-.8-.1-1.5.2-2.1.7-1.2 1-1.3 2.6-.3 3.8.5.6 1.6.5 2.1 0 .8-.6.8-1.5.2-2.1z" fill="#161616"/><path d="m1511.9 102.1c-.1-.1-.1-.2 0 0 0 0 0 0-.1-.2 0 .2.1-.2 0 .1-.4.2-.9.5-1.3.7h.1c-.2-.1-.2-.1-.1 0s.1 0-.1-.1c.2.3-.1-.3.1.1.1.1.1.4 0 .1 0 .1.1.4 0 .1 0 .1 0 .5 0 .1 0 .1-.2.3 0 .1 0-.1.1-.1.1-.2-.1.1-.1.1 0 0 .3-.1.5-.1.8-.2-.3 0 .2.1.2.1l.1.1c-.1-.1-.1-.1-.1-.1.1.2.1.3 0 .5.4-.7.2-1.6-.5-2.1-.7-.4-1.7-.2-2.1.5-.6 1.2-.3 2.6.8 3.3.6.4 1.4.6 2.1.4.6-.2 1-.8 1.2-1.3.8-2-.5-4.5-2.8-4.5-.5 0-1.1.3-1.3.7-.6 1.3-.5 2.7.6 3.7 1.6 1.6 3.7-.6 2.3-1.9z" fill="#161616"/><path d="m1511.3 126c.2.1.2.1.3.2 0 0 0-.1-.1-.1.1.1.1.2 0 .1 0-.1 0-.1 0 0s0 .1 0-.1c0 .2 0 .3-.2.4-.5.1-1 .3-1.5.4.3.1-.2-.1 0 0-.2-.1-.2-.2-.1 0l-.1-.1c0 .1.1.1.1.2 0-.1 0-.1-.1-.2 0 .1 0 .1.1.2 0-.2 0-.3 0-.1 0 0 0 .4 0 .2 0-.1 0-.1 0 0s0 .1 0 0c.1-.1 0-.1 0 0 .1-.2.2-.2.1-.1s0 .1.1-.1c-.1.1-.1.1.1 0 .6.2 1.1.5 1.7.7 0 .2 0 .1 0 0v.2c0-.2.1-.2 0 0 0 .1-.1.1-.2.2.7-.5 1-1.3.5-2.1-.4-.7-1.4-1-2.1-.5-1.2.8-1.7 2.4-.9 3.7.3.5 1.1.9 1.7.7 1.2-.4 2-1.6 1.9-2.9s-.8-2.5-2.1-2.8c-.5-.1-1.1 0-1.5.4-1.3 1.5-.7 3.8 1.2 4.5.8.3 1.6-.3 1.8-1 .5-1 0-1.7-.7-2z" fill="#161616"/><path d="m1509.6 154.8c0 .2 0 .3-.1.5l-.1.1c.1-.1.1-.1 0 0s-.3.1-.1.1c-.2 0-.8-.2-.5 0-.2-.3-.5-.6-.7-.9 0 .1.1.2.1.3s0 .2 0 0v.3c0-.2 0 0-.1.1-.1.2.1-.2 0 .1 0 0-.2.2-.1.2-.1.1-.2.1-.3.2.7.2 1.4.4 2.1.5-.1-.1-.2-.3-.3-.5s0-.2-.1 0-.1.5-.3.6c-.5.4-1.2-.2-1.4-.7.2.8 1.1 1.3 1.8 1 .8-.2 1.3-1.1 1-1.8-.4-1.4-2.1-1.8-3.3-1-1.3 1-.9 2.6-.1 3.8.5.7 1.3 1 2.1.5.9-.5 1.5-1.3 1.8-2.3s.2-2.4-.6-3c-1.8-1.5-4.5.6-3.9 2.7.7 1.9 3.6 1.1 3.1-.8z" fill="#161616"/><path d="m1507.7 185.7c.2-.5.4-1 .7-1.5-.3.2-.6.5-.9.7-.2.1-.3 0-.5-.1-.1-.1-.1-.1 0 0-.1-.2-.2-.4-.1-.7.1-.2.2-.3.4-.3h.1c.1 0 .2 0 .3.1-.7-.4-1.6-.2-2.1.5-.4.7-.2 1.7.5 2.1 1.9 1 4.4-.8 3.5-2.9-.4-.9-1.3-1.6-2.3-1.6-.7 0-1.3.3-1.6 1-.2.4-.4.8-.5 1.3-.3.7-.2 1.6.5 2.1.6.2 1.7 0 2-.7z" fill="#161616"/><path d="m1547.7-52.2c-3.4 1.1-6.7 2.2-10.1 3.3-1.6.5-4.2.9-5.1 2.5-.8 1.4-.1 2.6.2 4 .9 4-.1 7.9-2.3 11.4-1.1 1.6 1.5 3.1 2.6 1.5 2.4-3.6 3.5-7.8 2.9-12.2 0-.2-.8-2.5-.6-2.8.5-1.1 3.6-1.7 4.6-2 2.9-1 5.7-1.9 8.6-2.9 1.8-.6 1-3.5-.8-2.8z" fill="#161616"/><path d="m1533.9-44.1c3 3.3 5 7.1 5.8 11.5.4 1.9 3.3 1.1 2.9-.8-.9-4.9-3.2-9.2-6.6-12.8-1.3-1.5-3.4.7-2.1 2.1z" fill="#161616"/><path d="m1546-48c4.1-1.9 8.3-3.2 12.7-4-.6-.5-1.3-1-1.9-1.4.4 4-.2 7.9-1.9 11.5-.8 1.7 1.8 3.3 2.6 1.5 2-4.1 2.8-8.5 2.3-13-.1-1-.9-1.6-1.9-1.4-4.7.8-9.1 2.3-13.4 4.3-1.8.7-.3 3.3 1.5 2.5z" fill="#161616"/><path d="m1558.7-42.5c2.1.5 4.2.7 6.3.6 1.9 0 1.9-3 0-3s-3.7-.1-5.5-.5c-1.9-.5-2.7 2.4-.8 2.9z" fill="#161616"/><path d="m1614.1-18.9c4.1 0 6.3 8.3 11.4 20.6 10.9 26.7 16.3 40 18.6 48.5 4 15 8.2 36.3 8.3 62.4-3.1 6.7-7.8 15.8-15 25.8-6.4 8.9-18.1 24.9-39.2 37.7-6.7 4.1-16.7 9.2-29.9 12.9-.7-5-1.4-10-2.1-15-2.2 1.1-5.4 2.9-9.3 5.2-6.2 3.7-7.6 5-10.3 6.2-3.5 1.5-8.9 2.8-17 1-4.1-11.9-7.5-21.7-10.3-29.4-.9-2.6-2.7-7.3-.5-11.4 1.2-2.2 3.2-3.4 4.6-4.1-1.7-3.2-2.3-5.9-2.6-7.7-.3-2.3-.5-3.9.5-5.2 1.7-2.1 5.3-1.6 5.7-1.5-.7-4.7-1.4-9.6-2.1-14.4-1.8-13.7-3.2-26.9-4.1-39.7 4.3-2.6 8.6-5.2 12.9-7.7 21.3-12.7 42.5-24.7 63.5-36.1.1-2.6.4-6.2 1-10.3.8-5.8 1.9-10.5 2.6-12.9.4-2.2 6.5-24.9 13.3-24.9z" fill="#fff"/><path d="m1612.6-19.9c3.7 8.8 8.3 21.3 12.4 36.6 6.3 23.9 12.6 46.8 8.8 75.3-2 14.7-4.3 32.2-17.5 49-16.6 21.1-39.7 27.5-48.5 29.4-3.2-1.6-8.6-3.6-15.5-3.6-14.4 0-24.1 9.1-26.3 11.4 1.2 2.8 2.4 5.5 3.6 8.3 6.6.8 11.3-.3 14.4-1.5 5.7-2.2 8.3-5.6 16.5-8.8 2.8-1.1 5.1-1.7 6.7-2.1.2 4.1.3 8.3.5 12.4 11-1.4 19.2-4.4 24.3-6.7 22.4-10.1 35.2-28.4 48.5-47.5 5.7-8.1 9.8-15.1 12.4-19.6-.1-8.6-.7-19.9-2.6-33-3.7-26-10.3-44.8-11.9-49-4.9-13.4-12.7-31.3-25.8-50.6z" fill="#606060" opacity=".07"/><path d="m1589.3 33.7c.9 7.6 1.4 16.1 1 25.3-1.4 33.6-13.7 59.8-23.2 75.9 5.3-3.3 11.1-7.4 17-12.4 10.7-9.1 18.6-18.4 24.3-26.3.7-10.3.2-19-.5-25.3-1.2-11.5-3.5-20.6-5.7-28.9-1.5-6-3-10.9-4.1-14.4-2.9 2-5.8 4.1-8.8 6.1z" fill="#606060" opacity=".1"/><path d="m1648.7 71.9c-1.9 0-1.7 17.2-9.8 41.3-2.8 8.2-6.7 19.6-14.4 31.5-5.5 8.4-16.9 23-38.2 35.1 7.6-2.8 16.6-7 25.8-13.4 24.7-17.4 36-40.7 40.8-52.6-1.4-34.5-3-41.9-4.2-41.9z" fill="#606060" opacity=".1"/><path d="m1601.6 37.6c3.5 19.6 6.8 39.3 4.6 59.3-.2 1.9 2.8 1.9 3 0 2.3-20.2-1.1-40.2-4.7-60.1-.3-1.9-3.2-1.1-2.9.8z" fill="#161616"/><path d="m1606.8 95.5c-6.6 10-14.5 19-23.7 26.8-4.6 3.9-9.5 7.4-14.7 10.6-3.5 2.2-8.4 3.6-9.8 7.8-.6 1.8 2.3 2.6 2.9.8.8-2.7 4.8-3.9 7-5.2 2.5-1.5 5-3.1 7.4-4.8 4.3-3 8.4-6.2 12.3-9.7 8.1-7.3 15.1-15.6 21.1-24.7 1.1-1.7-1.5-3.2-2.5-1.6z" fill="#161616"/><path d="m1558.5 141.9c4.2 14.7 6.7 29.8 7.6 45 .1 1.9 3.1 1.9 3 0-.9-15.5-3.5-30.9-7.7-45.8-.5-1.8-3.4-1-2.9.8z" fill="#161616"/><path d="m1612-19.2c25.4 38.9 38.9 84.8 38.5 131.3 0 1.9 3 1.9 3 0 .4-47-13.2-93.5-38.9-132.8-1.1-1.6-3.7-.1-2.6 1.5z" fill="#161616"/><path d="m1568 189.2c41.2-7.2 67.9-42.1 86.7-76.6.9-1.7-1.7-3.2-2.6-1.5-18.5 33.9-44.5 68.2-84.9 75.2-1.9.3-1.1 3.2.8 2.9z" fill="#161616"/><path d="m1557.8 141c-5.8-3.4-11.6-7.1-17.6-10.2-4.5-2.4-10.4-5.3-15.7-4.9-8.8.7-6.1 12.5-1.7 16.6 1.4 1.3 3.5-.8 2.1-2.1-2.8-2.6-6.1-10.6.2-11.5 3.7-.5 8.8 2.2 12 3.7 6.6 3.2 12.9 7.3 19.2 11 1.7 1 3.2-1.6 1.5-2.6z" fill="#161616"/><path d="m1523.5 140.1c-6.3 2.2-7.4 8.6-6.1 14.5 1.1 5.1 3 10.1 4.5 15.2 1.5 4.8 2.5 10.1 4.5 14.7 2.8 6.2 11 3.9 16.3 2.7 3.7-.9 7.8-2 10.8-4.4 3.7-3 5.7-6.1 10.8-7.3 1.9-.4 1.1-3.3-.8-2.9-4.8 1.1-7.4 3.5-10.8 6.9-2.5 2.4-5.7 3.5-8.9 4.4-2.6.7-8.1 2.5-10.7 1.7-4.7-1.6-5.3-6.7-6.5-10.8-.9-2.9-1.7-5.7-2.6-8.6-1.8-5.9-8.6-20.1.4-23.1 1.7-.7.9-3.6-.9-3z" fill="#161616"/><path d="m1556.3 141.8c3.2 10.9 5.5 21.9 7.1 33.2.3 1.9 3.2 1.1 2.9-.8-1.6-11.2-4-22.3-7.1-33.2-.5-1.8-3.4-1-2.9.8z" fill="#161616"/><path d="m1529 126c-2.7-11.8-4.6-23.8-5.6-35.9-.2-2.9-.4-5.8-.6-8.7-.1-2.4-1-6.4.5-8.5 1.5-2 5.8-3.9 7.9-5.2 2.4-1.5 4.8-3.1 7.2-4.6 19.6-12.2 40-23.1 60.3-34-.7-.3-1.5-.6-2.2-.9 3.9 14 7.1 28.1 9.6 42.5.3 1.9 3.2 1.1 2.9-.8-2.5-14.3-5.7-28.5-9.6-42.5-.3-1-1.4-1.4-2.2-.9-22.3 11.9-44.6 23.9-65.9 37.5-2.7 1.7-5.3 3.4-7.9 5.2-1.2.8-3.2 1.6-3.8 3-.9 1.9.1 6 .2 8.1.1 2.9.3 5.8.6 8.7 1 12.7 3 25.2 5.8 37.6.4 2.1 3.3 1.3 2.8-.6z" fill="#161616"/><path d="m1491.3-176.4c-8.2 4.9-13.6 8.3-17.7 15.1-5.6 9.2-5.2 18.8-4.8 23.3-3.6 9.8-7.2 19.6-10.8 29.4h12.1c0 4 .4 10.3 3 17.3 1.6 4.3 6.5 16.7 19.9 23.8 11.7 6.1 22.9 4.6 26.8 3.9 1 5.8 2 11.5 3 17.3 4.5-.2 11-1.1 18.2-4.3 21.3-9.5 28.9-31.2 31.1-37.6 7.8-22.4 2-41.7 0-48-4.6-14.7-12.4-24-17.3-29.8-9.9-11.7-18.3-21.6-31.1-22.9-9.9-1-17.7 3.7-32.4 12.5z" fill="#fff"/><path d="m1468.2-137.9c4.1-8.8 7.5-15.4 7.9-16.2 5.9-11 30.9-28.9 33.3-30.6 3-4.6 5.5-9.9 3.5-12.9-3.8-5.7-23.5-2-36.8 7.9-1.7 1.2-23.5 18.1-18.8 39.1 1.7 7.6 6.3 12.9 9.4 15.9.4-.8.9-1.9 1.5-3.2z" fill="#5222d0"/><path d="m1497.1-190.3c-3.3 6.8-1.4 14 .6 21.5.4 1.4 6.2 22.1 25.9 32.7 5.7 3 13.6 7.3 20.9 4.4 3.8-1.5 5-4.1 8.2-3.8 5.3.4 10 7.1 10.9 13.5.1.7 1.2 10-4.7 13.8-3.8 2.5-8.8 1.5-9.2 1.4-2.9-.6-3.4-1.9-5.5-2-1-.1-3.8.5-9.4 6.5-9.6 10.2-12.2 25-12.9 30.9 1.7-2.8 3.3-5.7 5-8.5-1.3 4.4-2.7 11.9-1.5 20.9.5 3.3 2.6 18.9 14.8 29.3 16.7 14.1 44.9 12.5 60.1-2.2 10.3-9.9 11.9-23 12.5-28.1 2.4-18.8-7.3-20.5-13.9-55.8-1.9-10.3-3.9-20.3-8.3-36-1.1-4-2.8-8.6-5.6-14.3-6.3-13.1-12.3-25.2-25.3-32.7-21.4-12.4-54.7-8-62.6 8.5z" fill="#5222d0"/><path d="m1480.9-75.2c-1.6 3.7-3.6 9.7-3.9 17.3-.3 7.2-.7 15.6 4.8 22.1 6.3 7.5 19.9 11.5 30.3 4.8 7.4-4.8 11.3-14 9.9-23.3-.6-2.9-1.2-5.8-1.7-8.6-4.2.5-10.1.6-16.9-.9-11-2.6-18.6-8.1-22.5-11.4z" fill="#5222d0"/><path d="m1509.2-147.2c4.8 8 8.4 15.2 11.1 21 5.5 12 8.3 18.2 8.1 24.7-.2 6.1-2 7.4-5.5 21.8-1.6 6.7-2.7 12.2-3.3 15.9 2-2.1 3.9-4.2 5.9-6.3-.5 3.9-.9 10.3 1.1 17.7.4 1.5 6.1 21.1 25.1 29.5 17.2 7.6 38.9 3.2 40.2-2.9.6-3.2-4.5-5.1-10.7-11.1-16.1-15.3-25.9-44.1-17.7-64.1 5-12.1 13-12.4 14.7-24 2.1-13.8-7.5-25.8-11.1-30.2-20.7-26-58.8-24.6-65.3-24.3-2 1.8-3.9 3.7-5.9 5.5 1.1 3.8 2.7 8 4.8 12.5 2.7 5.7 5.7 10.5 8.5 14.3z" fill="#606060" opacity=".06"/><path d="m1458.8-109c5-1.4 9.1-1.9 12-2.2 4.7-.4 6.1.1 6.5.9.5 1-.3 2.4-1.9 4.9-1.1 1.9-2.2 3.3-3.1 4.3-.5-2-1-3.9-1.5-5.9-4-.6-8-1.3-12-2z" fill="#606060" opacity=".13"/><path d="m1468.6-139c-3.9 10.4-7.8 20.7-11.9 31-.3.8.5 2 1.4 1.9 4.1-.5 8.1-.7 12.2-.8 1.9 0 1.9-3 0-3-4.1 0-8.2.3-12.2.8.5.6 1 1.3 1.4 1.9 4-10.3 8-20.6 11.9-31 .8-1.8-2.1-2.6-2.8-.8z" fill="#161616"/><path d="m1469.8-107.7c.8 13.1 5.2 28.5 15.5 37.3 9.5 8.1 22.7 9.8 34.7 9 1.9-.1 1.9-3.1 0-3-11.2.7-23.7-.6-32.6-8.1-9.8-8.2-13.9-22.9-14.6-35.2-.1-1.9-3.1-1.9-3 0z" fill="#161616"/><path d="m1518.7-61.7c2.3 4.6 3.2 9.6 3 14.7-.1 1.9 2.9 1.9 3 0 .3-5.7-.9-11.1-3.4-16.2-.8-1.8-3.4-.2-2.6 1.5z" fill="#161616"/><path d="m1545.6-130.7c6.7-9.5 16.7 4 16.6 11-.1 8.7-9 15-16.7 9.8-1.6-1.1-3.1 1.5-1.5 2.6 10.6 7.3 22.7-3.3 21-14.9-1.4-9.7-14.3-20.9-22-10-1.1 1.6 1.5 3.1 2.6 1.5z" fill="#161616"/><path d="m1486.8-143.4c-.1 1.9 0 3.9.3 5.8.2 1.6.4 3.6 1.2 5 1.1 1.8 3.9 1.1 3.4-1.1-.5-1.9-3.3-1.1-2.9.8v.2c.1-.5.3-1 .4-1.5.1-.1.2-.1.3-.2.5.1 1 .3 1.5.4-.5-.4-.8-3.2-.9-4.2-.2-1.7-.3-3.5-.2-5.2-.1-1.9-3.1-1.9-3.1 0z" fill="#161616"/><path d="m1487.6-142.3c1.3 2.9 1.7 6.1 1.5 9.3-.1 1.9 2.9 1.9 3 0 .3-3.8-.4-7.3-1.9-10.8-.7-1.8-3.3-.3-2.6 1.5z" fill="#161616"/><path d="m1483.1-151.8c4.4-7 12.4-1.8 15 3.7.8 1.7 3.4.2 2.6-1.5-3.6-7.7-14.7-12.5-20.1-3.7-1.1 1.7 1.5 3.2 2.5 1.5z" fill="#161616"/><path d="m1474.1-93.2c6 2 12.6-.6 15.7-6.1.9-1.7-1.6-3.2-2.6-1.5-2.5 4.4-7.6 6.3-12.3 4.7-1.9-.6-2.7 2.3-.8 2.9z" fill="#161616"/><path d="m1485.5-99.8c1.9-.2 3.8 1.3 3.9 3.3.1 1.9 3.1 1.9 3 0-.2-3.5-3.3-6.6-6.9-6.3-1.9.1-1.9 3.1 0 3z" fill="#161616"/><path d="m1492.7-122.4c1.9 0 1.9-3 0-3-2 0-2 3 0 3z" fill="#161616"/><path d="m1500.6-128.4c1.9 0 1.9-3 0-3s-1.9 3 0 3z" fill="#161616"/><path d="m1497.9-123.5v.4c0 .8.7 1.5 1.5 1.5s1.5-.7 1.5-1.5c0-.1 0-.3 0-.4 0-.8-.7-1.5-1.5-1.5s-1.5.6-1.5 1.5z" fill="#161616"/><path d="m1138.4 660.8c-.9 24.9-1.9 49.8-2.8 74.7 77.8 13.2 117.8 15.7 120.1 7.6 2-7.1-24.5-22.2-79.5-45.4 6.3-50.5 5.4-77-2.8-79.5-6.8-2-18.4 12.2-35 42.6z"/><path d="m1217.8 227.6v36.9c.1 61.1.8 88 .9 110.7.4 83.2-7.2 151.6-11.4 188.3-3.9 34.2-8.1 62.5-11.4 82.3-3.4 3.5-9.4 8.6-18 11.9-4.1 1.6-7.4 2.2-9.7 2.7-3.6.7-17.6 3-34.7-2.2-4.4-1.3-10.4-3.6-17-7.6 4.9-27.7 10.8-64.1 16.1-106.9 4.3-35.1 11.3-99.3 14.2-180.7 1.4-41.2 2-91 0-147.6 23.7 4 47.4 8.1 71 12.2z" fill="#fff"/><path d="m1149.7 313.7c5-12.5 11.4-26.4 15.1-25.5 5.5 1.3 2.2 34 0 58.7-5 56-5.7 112.3-9.5 168.4-2.3 34.9-4.9 84.4-5.7 144.7-11-2.8-22.1-5.7-33.1-8.5 11.2-63.7 20.5-132.9 26.5-207.2 3.7-45.4 5.8-89 6.7-130.6z" fill="#606060" opacity=".09"/><path d="m1215.5 238.9c4.5 105.7 1.3 211.7-9.5 316.9-3.1 29.9-6.8 59.8-11.1 89.6-.3 1.9 2.6 2.7 2.9.8 15.1-104.8 22.8-210.7 22.6-316.6 0-30.2-.7-60.4-2-90.6 0-2-3-2.1-2.9-.1z" fill="#161616"/><path d="m1148.7 314.6c-3.3 87.4-10.5 174.7-21.6 261.4-3.2 25.3-6.8 50.6-10.7 75.8-.3 1.9 2.6 2.7 2.9.8 13.5-87.2 23.1-175 28.7-263.1 1.6-24.9 2.8-49.9 3.8-74.9 0-1.9-3-1.9-3.1 0z" fill="#161616"/><path d="m1117.7 654.2c13.7 6.2 28.6 9.1 43.6 7.9 12.5-1 27.2-4 34.9-14.8 1.1-1.6-1.5-3.1-2.6-1.5-7.6 10.6-23.6 13-35.7 13.5-13.3.5-26.5-2.2-38.7-7.7-1.7-.8-3.2 1.8-1.5 2.6z" fill="#161616"/><path d="m1026.8 634.3c-9.5 30.3-18.9 60.5-28.4 90.8 74.8 22 113.6 29.6 116.4 22.7 2.3-5.7-20.4-21.5-68.1-47.3 24.4-32.4 30.8-61.6 20.8-70.9-10.2-9.4-35.9 2.4-40.7 4.7z"/><path d="m1078.8 232.3c-.5 2.2-1.3 9.7-2.8 24.6-2.4 23.2-3.7 40.4-3.8 41.6-5 65.8-14.2 123-14.2 123-10.2 63.3-24.3 112.9-34.1 146.6-7.2 25-13.9 45.8-18.9 60.5 8.3 10.4 16.8 16.9 22.7 20.8 9 5.9 19.7 13 34.1 12.3 5.7-.3 10.2-1.7 13.2-2.8 4.3-12.5 11.7-34.2 19.9-61.5 15.1-50.3 27.6-107.4 52-219.5 1.1-5 15.1-69.5 16.1-73.8 8.8-10.4 17.7-20.8 26.5-31.2 14.9-34.8 14.4-70.2-2.8-85.1-28.8-24.9-99.8 10.4-107.9 44.5z" fill="#fff"/><path d="m1077.8 252.2c1.2 8.7 2.7 21.8 3.8 37.8 4.8 74.1-7 126.5-18 185.4-7.6 40.6-17.9 100.6-27.4 176.9-10.4-7.9-20.8-15.8-31.2-23.6 5.3-15.7 12.9-38.8 20.8-67.2 25.6-91.6 35.6-166.5 42.6-220.4 2.8-22.2 6.4-52.5 9.4-88.9z" fill="#606060" opacity=".11"/><path d="m1074.5 239c-3.4 102.9-18.6 205.4-45.3 304.8-7.5 28.1-16 55.9-25.4 83.5-.6 1.8 2.3 2.6 2.9.8 33.1-97.8 55-199.3 65.1-302 2.8-29 4.7-58 5.7-87.1.1-2-2.9-2-3 0z" fill="#161616"/><path d="m1184.5 275.9c-7.5 9.4-15 18.8-22.5 28.2-1.2 1.5.9 3.6 2.1 2.1 7.5-9.4 15-18.8 22.5-28.2 1.2-1.5-.9-3.6-2.1-2.1z" fill="#161616"/><path d="m1162.3 302.6c-18.2 93.6-37.7 187-64.2 278.7-7.5 26-15.6 51.8-24.3 77.4-.6 1.8 2.3 2.6 2.9.8 30.7-90.3 53.1-183.1 72.5-276.5 5.5-26.5 10.8-53.1 15.9-79.6.4-1.8-2.5-2.7-2.8-.8z" fill="#161616"/><path d="m1004.5 629.3c4.1 5.8 9.9 10.1 15.4 14.6 5.2 4.2 10.6 8.2 16.4 11.6 11.5 6.7 26.2 11.4 39.2 6.3 1.8-.7 1-3.6-.8-2.9-12.8 5.1-27.1 0-38.3-6.8-5.5-3.3-10.7-7.2-15.7-11.3-4.8-3.9-10-7.8-13.7-12.9-1-1.6-3.6-.1-2.5 1.4z" fill="#161616"/><path d="m1194.7-79.9c5.1-1.1 11.9 7.5 15.6 12.1 5.7 7.1 8.2 14.2 9.8 19.6 5.3 17.6 6.4 35.1 6.3 48.4.9 6 3.1 15.3 8.6 25.4 1.9 3.4 10.8 18.9 30 30 12 6.9 23.4 9.4 31.1 10.4-1.5 1.5-3 3-4.5 4.5 4.3.4 7.6 1.3 9.9 2 5.1 1.6 7.8 2.4 8.7 2.8 1.7.7 3.1 1.4 4 1.9-.6.7-1.9 2.6-1.9 5.3 0 3 1.6 6 4.1 7.4 2.4 1.4 5.9.7 12.7-.7 1.3-.3 2.4-.5 3.2-.7 1.6-.2 4.2-.2 6.8 1 4.1 1.9 5.7 5.8 7.9 10.7 1.6 3.6 3.8 8.5 2.8 14.6-.3 1.8-.9 5.2-3.6 7.9-.6.6-1 .9-5.9 3.6-5.7 3.1-6.8 3.5-7.9 4-3.6 1.3-5.4 2-7.5 1.2-2-.7-4-2.7-4-4.7.1-2.4 3.1-2.8 3.2-4.7.1-2.4-4.2-2.9-9.1-7.5-3.4-3.2-2.8-4.2-6.3-7.1-1.3-1.1-3.7-3-7.1-4.3-1.6-.7-2.6-.8-5.1-2-3.3-1.5-4.1-2.3-4.6-3-1-1.5-.4-2.3-1.3-3.3-1.2-1.2-3.1-.8-5.4-.8-2 0-4.7-.4-8-2-1.3 9.2-2.6 18.4-4 27.7-5.1-1.2-12.5-3.4-20.5-7.9-10.9-6.2-22.4-16.3-37.5-45-11.2-21.2-25.4-48.3-28.8-87.3-2.3-24.2-.8-57.5 8.3-59.5z" fill="#fff"/><path d="m1195.7-79c.2 6.2.8 14.2 2 23.6.6 4.5 1.8 12.5 4.5 24.6 4.7 20.5 10.4 37.6 14.1 48.2 12.4 35 18.7 52.9 31.4 64.4 9.5 8.6 19.3 13.4 25.9 16 .1 6.9.2 13.8.3 20.7-2.9.2-7.3.1-12.2-1.5-7.6-2.4-12.3-7-15.4-10.2-13.2-13.4-19.8-20.1-26.2-30.6-26.3-42.9-30-91.4-30-91.4-1-14.9-.9-37.2 5.6-63.8z" fill="#606060" opacity=".09"/><path d="m1293.3 71.3c.6.5-1.9 3.3-3.5 7.6-2.2 5.8-1.7 11.4-.9 15.4-3.8-.8-7.6-1.6-11.4-2.3.8-3.4 2.5-8.7 6.7-13.7 3.6-4.3 8.4-7.7 9.1-7z" fill="#606060" opacity=".08"/><path d="m1326.2 112.9c4-2.5 4.4-3.1 6.1-4.1 2.6-1.5 7.8-3.7 16.9-2.6.4 2.8.8 8.5-2 13.1-1 1.7-2.7 3.6-2.9 3.8-.9 1.1-2.7 2.9-5.2 4.7-1.9 1.3-4.9 3.3-9 3.5-2.7.1-7-.4-7.6-2.3-.5-1.8 2.7-3.2 2.3-5.5-.4-2.8-5.5-3.1-5.5-5.2-.1-1.5 2-2.3 6.9-5.4z" fill="#606060" opacity=".09"/><path d="m1190.9-79.8c7 4 14.2 8 19.8 14 6.5 6.9 8.8 15.7 10.2 24.8 3.1 19.8 4.5 39.9 4.8 60 0 1.9 3 1.9 3 0-.3-21.3-1.6-43-5.4-64-1.5-8.3-4.2-16-9.9-22.3-5.8-6.4-13.5-10.8-20.9-15-1.8-1-3.3 1.6-1.6 2.5z" fill="#161616"/><path d="m1225.2-18c-2.6 37.9 21.8 72.6 58.3 83.1 1.9.5 2.7-2.4.8-2.9-35.3-10.2-58.6-43.6-56.1-80.2.2-1.9-2.8-1.9-3 0z" fill="#161616"/><path d="m1282.6 65c4.6.4 8.8 1.4 13.1 3.2-.1-.9-.2-1.8-.4-2.7-18.6 10.6-23.9 30.5-22.1 50.7.2 1.9 3.2 1.9 3 0-1.7-19.2 2.9-38 20.6-48.1 1.2-.7.8-2.3-.4-2.7-4.5-1.9-9.1-3-13.9-3.4-1.8-.2-1.8 2.8.1 3z" fill="#161616"/><path d="m1215.5 71.7c6.3 11.9 14.6 22.6 24.6 31.6 9.5 8.5 21 17.2 34.4 16.7 1.9-.1 1.9-3.1 0-3-13.4.5-25.4-9.3-34.6-18-8.8-8.3-16.1-18.1-21.8-28.8-.9-1.7-3.5-.2-2.6 1.5z" fill="#161616"/><path d="m1292.6 71c7.6 2.1 15.2 4.2 22.7 6.3 1.9.5 2.7-2.4.8-2.9-7.6-2.1-15.2-4.2-22.7-6.3-1.9-.5-2.7 2.4-.8 2.9z" fill="#161616"/><path d="m1333 88.9c6.6.6 11.2 5.9 13.1 12 .9 2.9 1.2 6 1.3 9 0 1-.1 13.3-3 11.2-1.6-1.1-3.1 1.5-1.5 2.6 9 6.3 7.6-15.4 7.2-18.6-1.2-9.4-7-18.4-17.1-19.3-2-.1-1.9 2.9 0 3.1z" fill="#161616"/><path d="m1340.7 108.4c1.1 6.3 2.1 13.5-3.6 17.8-1.5 1.2.6 3.3 2.1 2.1 6.5-5.1 5.6-13.5 4.4-20.8-.3-1.8-3.2-1-2.9.9z" fill="#161616"/><path d="m1333.2 113c1.1 5.3 2.3 12.2-3.1 15.6-1.6 1-.1 3.6 1.5 2.6 6.7-4.2 5.9-12.3 4.5-19-.4-1.8-3.3-1-2.9.8z" fill="#161616"/><path d="m1326.6 114.3c1.7 5.6 1.2 11.2-1.5 16.3-.9 1.7 1.7 3.2 2.6 1.5 3.1-5.8 3.7-12.3 1.8-18.6-.5-1.8-3.4-1-2.9.8z" fill="#161616"/><path d="m1277 94c4.2 1 8.5 2 12.7 3 1.9.4 2.7-2.5.8-2.9-4.2-1-8.5-2-12.7-3-1.8-.5-2.6 2.4-.8 2.9z" fill="#161616"/><path d="m1275.3 119.8c5.6-7 9.4-14.8 11.3-23.5.4-1.9-2.5-2.7-2.9-.8-1.8 8.2-5.3 15.6-10.5 22.2-1.2 1.4.9 3.6 2.1 2.1z" fill="#161616"/><path d="m1275.1 94.1c.6 6.2.4 12.3-.7 18.4-.4 1.9 2.3 2.7 2.9.8 1.9-6.2 4-12.4 6.2-18.6.6-1.5-1.5-2.3-2.5-1.5-.6 0-1.2-.1-1.8-.1-.1.9-.2 1.8-.4 2.7.9-.2 3-.1 3.3 1.1.2.6-1.5 2.8-1.7 3.3-1 2-2.1 3.9-3.1 5.9-.9 1.7 1.5 3 2.6 1.5 3-4 4.3-8.6 4.1-13.6-.1-1.5-2-2-2.8-.8-3 4.6-4.9 9.6-5.7 15.1 1 .1 2 .3 2.9.4 0-4 .7-7.8 2.3-11.5-1-.1-2-.3-2.9-.4-.4 3.4-1.1 6.8-1.9 10.1-.4 1.9 2.4 2.7 2.9.8.9-3.6 1.5-7.3 2-10.9.2-1.8-2.4-1.8-2.9-.4-1.7 4-2.4 8-2.4 12.3 0 1.6 2.7 2.1 2.9.4.7-5.2 2.5-9.9 5.4-14.3-.9-.3-1.9-.5-2.8-.8.2 4.5-1.1 8.5-3.7 12.1.9.5 1.7 1 2.6 1.5 1.4-2.6 2.8-5.2 4.1-7.9.7-1.4 1.6-2.6 1.3-4.2-.7-3.5-4.6-3.3-7.3-2.6-1.4.4-1.3 2-.4 2.7 1.8 1.4 3.8 1.1 5.5-.4-.8-.5-1.7-1-2.5-1.5-2.2 6.1-4.3 12.3-6.2 18.6 1 .3 1.9.5 2.9.8 1.2-6.4 1.5-12.8.8-19.2-.2-1.7-3.2-1.7-3 .2z" fill="#161616"/><path d="m1086.5-73.7c7.5 30.7 13.8 65.9 17 105.1 6.7 81.5-2.6 151.3-14.2 203.4 11.4 5.2 32.7 13.1 60.2 12.5 35.3-.8 60.8-15.2 71.6-22.2-2.8-43.2-7.4-89.2-14.2-137.5-9.1-64.4-21-123.9-34.1-177.9-4.3-2.5-25.3-13.8-51.1-6.8-19.9 5.4-31.4 18.5-35.2 23.4z" fill="#ec615b"/><path d="m1113.8-105.6c-1.5.1-3.7.3-6.3 1.1-6.8 2.1-10.8 6.6-13.1 9.1-4.4 4.7-10.7 10.8-20.5 18.8-4.8 36.7-5.4 64.3-5.1 83 .1 7.7.6 21.1.6 42.1 0 13.5 0 28.4-.6 41.5-1.1 25.4-4.5 44.4-11.4 81.3-3.1 16.6-7.5 38.9-13.6 65.4 10.8 6.1 20.3 10 27.3 12.5 13.4 4.7 25.6 8.9 40.9 6.8 5.1-.7 9.3-1.9 11.9-2.8 1.9-10.2 4.5-25.5 6.8-44.3 7.4-60 5.9-107.3 4.5-143.2-.7-18.8-1.7-44.4-5.7-78.4-4.1-37-10.2-68.4-15.7-92.9z" fill="#fff"/><path d="m1143.3-99.3c3.4 2.2 8.2 5.8 12.5 11.4 9.9 13 10.1 28 10.2 34.1.8 31.7 8.7 62.8 11.4 94.3 1.7 19.7.8 7 6.3 67.1 4.8 52 5.7 64.1 6.3 71.6 1.4 18.4 2.8 41.4 4 68.2 5 .4 10.8.6 17 0 8.2-.7 16.3-1.4 25-6.3 5.7-3.2 9.8-7.1 12.5-10.2-.7-11.8-2.1-30.3-4.5-52.8-2.7-24.7-8-65.9-32.4-180.7-4.1-19.2-9.8-45.9-17-77.9-11.4-6.6-20.1-12.3-26.1-16.5-6.9-4.8-12.9-9.3-18.8-7.4-3.2.9-5.2 3.2-6.4 5.1z" fill="#fff"/><path d="m1068.9.1c1.1 6.8 2.9 17.7 4.5 31.3 7.7 62.2 4.1 95.4 8 167.6.7 12.6 1.9 31.5 4 54.6-5.3-1.8-10.8-3.9-16.5-6.3-9.5-4-18-8.3-25.6-12.5 2.9-10.7 6.6-25.3 10.2-42.6 9.6-45.9 13-82.3 14.2-98.9 2-26.1 3-57.5 1.2-93.2z" fill="#606060" opacity=".08"/><path d="m1145-97.6c-4.8 2 10.4 39.5 18.2 94.9 1.8 13 3.2 26.7 4.5 58.5 2.9 69.5 2.2 141.6 1.1 189.2 8-1.9 15.9-3.8 23.9-5.7-.2-8.3-.5-20.5-1.1-35.2-3.3-79.9-10.9-142.1-17-192.1-2.8-22.4-6.7-52-11.9-86.9-11.8-20-16-23.4-17.7-22.7z" fill="#606060" opacity=".1"/><path d="m1182.5-75.5c.6 4.4 1.4 10.6 2.3 18.2 2.6 23 3.7 40.6 4.5 55.1 1.1 19.9 1.6 35.3 1.7 39.5v.8c1.2 44.7 7.2 209.3 4.8 209.5-1.2.1-5.3-43.4-15.6-187.3.2-10.4.4-20.8.6-31.3-.4-39.8-.3-67.6.9-76.2.3-2.1 1.1-7-1.2-12.1-1.8-4.1-3.6-3.9-5.5-8.4-2.1-5.1-1.8-10.3-1.7-12.7.2-3.8.8-4.3.6-6.9-.4-4.1-2.4-7.2-4-9.2 3.8 2.4 7.7 4.8 11.5 7.2.4 4.7.8 9.3 1.1 13.8z" fill="#606060" opacity=".14"/><path d="m1116-102c-2-8.3-13.7-1.6-17.3 1.3-9.3 7.5-18.2 15.7-26.9 23.8-1.4 1.3.7 3.4 2.1 2.1 5.6-5.3 11.3-10.4 17.2-15.5 2.3-2 20.3-18.5 22.1-10.9.4 1.9 3.2 1.1 2.8-.8z" fill="#161616"/><path d="m1067 3.2c2.1 40.2 1.2 80.5-2.9 120.6-.2 1.9 2.8 1.9 3 0 4-40.1 5-80.4 2.9-120.6-.1-1.9-3.1-1.9-3 0z" fill="#161616"/><path d="m1112-106.8c-9.2 2.8-15.2 12.3-14.1 21.9.7 5.9 4.7 9.6 7.6 14.5 4.3 7 .1 16.3-.2 24.1-.5 16.3 4.3 32.2 8.7 47.7 4.6 16 9.5 31.8 13.4 48 4.6 18.9 7.7 38.2 7.4 57.7 0 1.9 3 1.9 3 0 .5-39.5-12.7-77-23.2-114.6-2.8-9.9-5.3-20-6.1-30.3-.4-5.5-.4-11 .5-16.4.6-3.9 2.2-7.8 1.5-11.8-1.3-7.5-8.9-11.8-9.8-19.4-.9-8 4.2-16 11.9-18.4 2.1-.7 1.3-3.6-.6-3z" fill="#161616"/><path d="m1112.3-102.9c18.3 89.2 26.1 180.6 20.3 271.5-1.7 26.1-4.4 52.1-8.4 78-.3 1.9 2.6 2.7 2.9.8 13.8-91 13.3-183.7 1.1-274.8-3.4-25.6-7.8-51.1-13-76.4-.4-1.8-3.3-1-2.9.9z" fill="#161616"/><path d="m1146.6-102.6c4.1-3.2 12.3 1.2 15.9 3.7 4.7 3.2 8.2 7.7 10.4 13 .7 1.8 3.6 1 2.9-.8-2.8-6.7-7.4-12.2-13.6-15.9-5-2.9-12.6-6.1-17.7-2.1-1.6 1.2.6 3.3 2.1 2.1z" fill="#161616"/><path d="m1143.3-96.3c20.4 10.7 20.7 38.6 23.3 58.5 3 22.8 5.8 45.7 8.4 68.6 5.1 45.8 9.4 91.6 12.9 137.6 2 26.2 3.7 52.5 5.1 78.8.1 1.9 3.1 1.9 3 0-5.2-96.3-14.1-192.3-26.7-287.9-2.7-20.4-3.6-47.3-24.4-58.1-1.8-1-3.3 1.6-1.6 2.5z" fill="#161616"/><path d="m1172.7-87.2c1.1 5.5-2 10.9-.7 16.4 1.2 5.1 5.7 8.6 7.5 13.5 2.1 5.8 1.6 12.3 1.5 18.3-.1 7-.2 13.9-.3 20.9-.5 26.8-1.5 53.6-2.9 80.4-.1 1.9 2.9 1.9 3 0 1.5-27.5 2.5-54.9 3-82.4.1-6.6.2-13.2.3-19.9.1-5.5.3-11.2-1.2-16.6-1.4-4.9-4.9-8.1-7.1-12.6-2.8-5.9 1-12.6-.2-18.8-.4-1.9-3.3-1.1-2.9.8z" fill="#161616"/><path d="m1168.7-94.1c8.9 4.1 17 9.5 24.2 16.1 1.4 1.3 3.5-.8 2.1-2.1-7.4-6.8-15.7-12.4-24.8-16.6-1.8-.8-3.3 1.8-1.5 2.6z" fill="#161616"/><path d="m1215.3 21.1c15.3 69.3 25.9 139.5 31.6 210.2.2 1.9 3.2 1.9 3 0-5.7-71-16.3-141.5-31.7-211-.5-1.8-3.4-1-2.9.8z" fill="#161616"/><path d="m1194.5 248.5c10.7 3 21.5.9 31.8-2.6 8.3-2.8 17.9-5.4 23.2-12.9 1.1-1.6-1.5-3.1-2.6-1.5-5 7-15.3 9.6-23.1 12.1-9.3 3-18.9 4.6-28.5 2-1.9-.5-2.7 2.4-.8 2.9z" fill="#161616"/><path d="m1064.9 113.1c-5.7 40.3-13.2 80.4-22.5 120-.4 1.9 2.5 2.7 2.9.8 9.3-39.6 16.8-79.7 22.5-120 .3-1.9-2.6-2.7-2.9-.8z" fill="#161616"/><path d="m1043.1 236.7c8.4 4.5 16.9 8.6 25.7 12.2 8.6 3.5 17.6 7.3 26.8 8.6 7.5 1.1 16.6 1 24.1-.7 6.9-1.5 5.8-8 9-13 1-1.6-1.6-3.1-2.6-1.5-1.3 2.1-1.8 4.3-2.5 6.7-1.7 5.3-5.4 5-10.1 5.5-8.3.7-16.3.8-24.4-1.5-15.4-4.4-30.4-11.3-44.4-18.9-1.8-.9-3.3 1.7-1.6 2.6z" fill="#161616"/><path d="m1080.2-81c-6.3 4.2-14.8 10.5-24.1 19.1-5.8 5.3-10.6 10.4-18.1 19.1-17.4 20.1-26.3 30.4-36.1 46.2-11.3 18.1-16.9 27.2-19.1 41.1-2.6 16.8 1 31.4 3 39.6 2.9 11.7 6.7 19.9 10.5 28.1 4.6 9.8 12.3 21.2 27.6 43.7 13.3 19.6 18.6 26.5 28.6 32.6 5.7 3.4 10.9 5.4 14.6 6.5 2.2-5.7 4.3-11.4 6.5-17.1 1.6 1.7 3.7 4 6 7 4 5.2 5 7.6 6.5 7.5 2.4-.1 3.9-5.9 5.5-12 7.5-29.2 7.4-33.6 5-35.1-1.7-1.1-3 .5-7.5 0-5-.5-8.9-2.9-11.5-5 2.2-6.6 1.2-10.6 0-13-2.4-4.7-6.5-4.6-12.5-10.5-1.3-1.3-1.9-2.1-8-11.5-6.5-10-9.7-15-10.5-16.6-2.3-4.4-5.3-11.1-7.5-20.1 2-7 4.9-14.9 9-23.1 11.8-23.5 28.1-38.7 39.6-47.7 2.1-9.3 4.1-23.3 2.5-40.1-1.6-16.7-6.2-30-10-38.7z" fill="#fff"/><path d="m1076.2-77.5c-3.4 3.8-8.3 9.5-14 16.6-20.5 25.3-35.4 43.6-44.7 67.2-1.9 4.9-10 26.3-9.5 55.2.7 47.7 24 81.1 33.1 93.8 10.9 15.2 22.2 25.9 30.1 32.6-1.3 2.3-2.7 4.7-4 7-4.2-2.2-10.5-5.8-17.6-11-24.2-18.1-35.8-40.4-46.7-61.7-11.9-23.3-17.8-35-19.6-50.7-2.4-21.6 1.6-47.7 14.6-63.7 1-1.3 1.9-2.2 5-6 12.4-15.1 20.4-26.7 22.1-29.1 6.3-8.9 19.7-23.8 51.2-50.2z" fill="#606060" opacity=".08"/><path d="m1074.2-80c-17.5 15.7-33.9 32.6-48.9 50.7-14 16.9-28.5 34.8-37.4 55-9.1 20.6-8.6 41.4-1.4 62.5 7 20.6 17.3 40.3 29.4 58.4 6.7 10.1 14.2 19.7 22.2 28.7 7.5 8.4 15.5 16.5 26.3 20.4 1.8.6 2.6-2.3.8-2.9-10.3-3.7-17.9-11.6-25-19.6s-13.7-16.5-19.8-25.3c-11.8-17.1-21.7-35.7-29.1-55.2-4-10.6-7.2-21.8-7.6-33.2-.3-11.2 2.3-22.1 6.8-32.3 8.4-19.2 22-36.2 35.2-52.3 15.5-18.9 32.5-36.5 50.7-52.8 1.4-1.3-.8-3.4-2.2-2.1z" fill="#161616"/><path d="m1083.6 1c-22.7 16.7-39 40.8-45.8 68.2-.5 1.9 2.4 2.7 2.9.8 6.6-26.6 22.3-50.2 44.4-66.4 1.6-1.2.1-3.8-1.5-2.6z" fill="#161616"/><path d="m1035 62.2c6.3 26.3 21.1 50 41.9 67.3 1.5 1.2 3.6-.9 2.1-2.1-20.5-17-34.9-40.1-41.2-66-.4-1.9-3.3-1.1-2.8.8z" fill="#161616"/><path d="m1076.7 127.5c.5 11.4-.1 22.8-1.8 34-.8 5.2-1.8 10.4-3.1 15.6-.6 2.4-1.2 4.8-1.9 7.2-.4 1.4-1.9 8.9-3.6 9.2.6.2 1.1.5 1.7.7-.1-.2-.2-.3-.3-.5-1-1.6-3.6-.1-2.6 1.5.1.2.2.3.3.5.4.6 1 .8 1.7.7 3.7-.6 4.3-6.6 5.2-9.5 2-6.6 3.5-13.2 4.7-20 2.3-13 3.1-26.2 2.6-39.4 0-1.9-3-2-2.9 0z" fill="#161616"/><path d="m1077.6 140.8c4.7 3.8 10.2 5.8 16.3 5.9 1.9 0 1.9-3 0-3-5.2-.1-10.1-1.7-14.2-5-1.5-1.2-3.6.9-2.1 2.1z" fill="#161616"/><path d="m1073.4 181.2c3.2.4 4.9 4.2 6.6 6.6 1.6 2.4 3.5 4.6 6.3 5.5 1.8.6 2.6-2.3.8-2.9-3.3-1.1-4.9-4.8-6.8-7.5-1.8-2.5-3.8-4.3-6.9-4.7-1.9-.2-1.9 2.8 0 3z" fill="#161616"/><path d="m1092 133.3c4.9 11.4 3.1 23.8.8 35.5-2.2 11.4-4.8 22-11.7 31.6-1.1 1.6 1.5 3.1 2.6 1.5 7.6-10.7 10.3-23 12.6-35.8 2.1-11.6 3-23.3-1.8-34.4-.6-1.7-3.2-.2-2.5 1.6z" fill="#161616"/><path d="m1105-184.9c-1.6-.4-5.5-1.2-9.8.4-1 .4-8.3 3.1-9.3 10.2-.9 5.8 3 11 7.2 13.2 1.8.9 3.5 1.2 4.7 1.3.7 2.3 1.5 5.9 2.1 10.2 1 7.4-.1 7.7.8 11.9 2.3 9.8 10.3 15.9 10.6 16.1 3.4 2.5 4.6 2.1 5.9 4.2 2.2 3.4 1.3 7.8 0 14.4-.7 3.5-1.5 6.3-2.1 8.1 1.2 1.5 4.8 5.5 11 7.2s11.4.2 13.2-.4c1.7-6.9 3.4-13.9 5.1-20.8 3.7-.7 9.1-2.3 14.9-5.5 2-1.1 6-3.4 9.8-7.2 5.5-5.6 7.9-11.8 9.8-18.3 6.3-21.4 3.6-36.8 6.4-54 .2-1.3.9-5.7 1.4-11.6.4-4.7.5-8.5.5-10.6-2.5-2-18.7-14.5-40.3-10.6-20 3.6-30.6 18.8-33.4 22.8-5 7.2-7.3 14.3-8.5 19z" fill="#fff"/><path d="m1103.2-159.6c.1 3.3 0 6.9-.4 10.9-.5 5.2-1.5 9.9-2.5 13.8-1.4 1.7-4.2 4.5-8.5 6.2-9 3.4-17.2-1-18.5-1.8-.4-4.2-1.1-10.4-2.6-17.8-3.3-16.5-7.6-25.6-9.1-31.3-2.9-10.8-.9-27.8 21.8-54.8-6.5-.2-8-1.2-8.3-2.2-.8-3.1 11.5-9.2 21.3-12.6 13.1-4.6 23.6-5 23.5-6.5-.1-1.6-11.7-1.6-11.8-3-.1-1.6 13.1-5.4 27.4-4.4 3.4.3 20.3 1.8 36.6 14.4 5.3 4.1 14.6 11.5 18.7 23.9 1.3 3.9 4.4 13.3-.4 19.2-1.3 1.6-2.8 2.5-3.9 3 .2-2 .2-5.6-1.7-9.1-2.6-4.5-7-6.3-11.3-7.8-2.1-.8-8.7-3-18.7-2.6-5.7.2-15.9.6-25.7 7-.6.4.1-.1-11.3 10.4-7.8 7.2-11.3 10.3-11.3 14.8 0 2.4 1.1 4.2 0 5.2-1.5 1.5-4.6-1.2-8.7-.9-5.1.4-11.3 5.3-11.8 11.8-.5 7.2 6.7 11.7 7.4 12.2 4 2.4 8.2 2.2 9.8 2z" fill="#5222d0"/><path d="m1136.4-219.3c-2.4 4-5.5 9.9-8.4 17.2-4 10-10.4 25.8-9.6 45.9.9 20.6 9 36.4 14.5 45.2-2.3 7.9-4.6 15.8-6.9 23.7-5.9-1.2-8.2-3.4-9.2-5.4-1.6-3.1-.1-6.1.4-12.6.4-5 0-9.1-.4-11.9-4.2-3.6-8.7-8.3-13-14.2-1.4-2-2.7-3.9-3.8-5.7-.4 1.3-1.3 3.2-3.1 5-3.1 3.2-7 3.8-9.6 4.2-6.2 1-11.4-.7-14.2-1.9-.4-4.6-1-9.6-1.9-14.9-1.5-8.5-3.6-16.1-5.7-22.6 1.3 4.7 5.2 8.1 10 8.8 4.9.7 9.8-1.7 12.3-6.1-3.8-5.9-2.6-13.5 2.3-17.6 4-3.4 10-3.8 14.9-1.1.1-3.1.5-5.7 1.1-8 5.2-18.6 26-26.5 30.3-28z" fill="#606060" opacity=".12"/><path d="m1184-203.5c.2 14.7-.1 29.5-1.9 44.1-1.7 13.4-5.6 27.1-15.1 37.1-9.6 10.1-23.8 13.6-37.2 9.7-12.5-3.6-22.1-13.3-27.7-24.8-.8-1.7-3.4-.2-2.6 1.5 11.6 23.8 42.4 37.7 65.2 19.7 11-8.7 16.6-22.1 19.2-35.6 3.2-16.9 3.4-34.5 3.1-51.6 0-2.1-3-2.1-3-.1z" fill="#161616"/><path d="m1160.2-198.8c.9 7.4 2.1 14.7 3.6 22 .8 3.5 2.8 8.3 2.3 11.9-.5 4.4-5.6 7.1-9.6 8.5-1.8.7-1 3.6.8 2.9 5-1.8 12.7-6 12.1-12.3-.5-4.9-2.4-9.9-3.3-14.7-1.2-6.1-2.2-12.2-2.9-18.4-.2-1.8-3.2-1.8-3 .1z" fill="#161616"/><path d="m1146.7-191c-.3 3.3-1.1 6.5-2.3 9.6-.7 1.8 2.2 2.6 2.9.8 1.3-3.4 2-6.8 2.4-10.4.2-1.9-2.8-1.9-3 0z" fill="#161616"/><path d="m1146-191.9c-1.4 3.7-2 7.6-2 11.5 0 1.9 3 1.9 3 0 0-3.7.6-7.2 1.9-10.7.7-1.9-2.2-2.6-2.9-.8z" fill="#161616"/><path d="m1137.2-200.2c4.3-4 10.9-4.1 15.2-.1 1.4 1.3 3.5-.8 2.1-2.1-5.5-5.1-14-5.1-19.5.1-1.3 1.3.8 3.4 2.2 2.1z" fill="#161616"/><path d="m1169.6-200.6c3.4-2.6 8.5-1.1 10.4 2.6.9 1.7 3.5.2 2.6-1.5-2.8-5.6-10.3-6.9-15.1-3.2-1.6 1.1.6 3.2 2.1 2.1z" fill="#161616"/><path d="m1162.9-143.5c-7.1 4.2-15.9 1.5-19.1-6.3-.7-1.8-3.6-1-2.9.8 3.9 9.5 14.5 13.3 23.5 8 1.7-.9.1-3.5-1.5-2.5z" fill="#161616"/><path d="m1106.4-184c-7-9.1-20.4.2-22.2 9-2.3 11.2 9.1 20.3 19.4 14.9 1.7-.9.2-3.5-1.5-2.6-8.6 4.5-17.2-4-14.6-12.9 1.8-6.3 11.6-13 16.8-6.3 1.2 1.5 3.3-.6 2.1-2.1z" fill="#161616"/><path d="m1176.1-188.5c-.3 3.3-1.1 6.5-2.3 9.6-.7 1.8 2.2 2.6 2.9.8 1.3-3.4 2-6.8 2.4-10.4.2-1.9-2.8-1.9-3 0z" fill="#161616"/><path d="m1175.4-189.5c-1.4 3.7-2 7.6-2 11.5 0 1.9 3 1.9 3 0 0-3.7.6-7.2 1.9-10.7.6-1.8-2.3-2.6-2.9-.8z" fill="#161616"/><path d="m1145.8-110.7c-2.5 5.3-4.3 10.9-5.3 16.7-.3 1.9 2.6 2.7 2.9.8.9-5.6 2.6-10.9 5-16 .8-1.7-1.8-3.2-2.6-1.5z" fill="#161616"/><path d="m1117-115.1c0 4.1-.3 8.2-1.2 12.2-.5 2.3-1.9 4.9-1.4 7.3.8 3.9 5.5 7.1 8.9 8.5 6.3 2.7 19.2 2.4 20.1-6.5.2-1.9-2.8-1.9-3 0-.4 4-6.7 5.1-9.8 5-3.8-.1-7.7-1.5-10.5-4.1-3.9-3.6-1.6-7.8-.8-12.2.6-3.4.8-6.8.8-10.3-.2-1.9-3.2-1.9-3.1.1z" fill="#161616"/><path d="m1124.7-111.5c5.9 3.6 12.3 6.2 18.9 8 1.9.5 2.7-2.4.8-2.9-6.5-1.7-12.5-4.3-18.2-7.7-1.6-1-3.1 1.6-1.5 2.6z" fill="#161616"/><path d="m1137.6-107.2c2.3.8 4.6 1.3 7 1.6 1.9.3 2.7-2.6.8-2.9-2.4-.3-4.7-.9-7-1.6-1.9-.6-2.7 2.3-.8 2.9z" fill="#161616"/><path d="m1288.6 99.2c-2.2 1-2.2 4.4-2.3 8.7-.1 3.9-.2 7.8 2.3 9.3 1.7 1 3.9.4 5 0 .1.5.4 3.2 2.9 5 3.2 2.2 6.8.7 7 .6.6 1.1 2.1 3.2 4.7 4.7.7.4 5 2.9 9.6 1.2 3-1.1 6.3-4 5.8-6.1-.6-2.4-5.5-1.1-8.4-4.7-2.9-3.5-.7-7.8-3.5-9.9-1.8-1.3-4.3-.9-6.4-.3 0-3.4-2.2-6.1-4.7-6.4-2.1-.3-3.7 1.1-4.1 1.5-2.6-3-5.8-4.5-7.9-3.6z" fill="#fff"/><path d="m1290.5 115.4c-3.7 1.2-3.4-12.4-2-14 1.7-.1 3.3-.2 5-.3.5.9.7 1.8.7 2.8.1 1.1.1 2.3 0 3.4-.1 1.5-.1 3-.2 4.5 0 .5-.1 1-.1 1.5.1 1.3-.5 2.3-2 2.9-.5-1.9-3.4-1.1-2.9.8.5 1.8 2.1 2.9 4 2.6 2.2-.3 3.3-2.2 3.7-4.3.8-3.6.8-8.1.5-11.8-.2-2.7-1.4-5.5-3.9-6.8-6.2-3.1-7.9 4.1-8.4 8.6-.5 3.8-.2 15 6.4 12.8 1.8-.4 1-3.3-.8-2.7z" fill="#161616"/><path d="m1298.1 121.7c-1.2-3.9-1.9-7.9-1.9-12 0-1.3-.3-3.6.5-4.8 3.4-2.3 5.5-1.7 6.1 1.7.3 1.2.4 2.4.5 3.6.2 1.9 3.2 1.9 3 0-.3-3.3-.8-6.9-3.6-9.1-2-1.5-4.9-1.9-6.9-.2-5.4 4.4-2.3 16.2-.7 21.6.7 1.9 3.6 1.1 3-.8z" fill="#161616"/><path d="m1294.7 122.7c2.8 2.4 6 3.2 9.6 2.2.8-.2 1.3-1.1 1-1.8-.6-2.1-.9-4.3-.8-6.5.1-1.5.5-5.9 1.8-7 3.4-2.8 7 7.2 8 9.1.9 1.7 3.5.2 2.6-1.5-1.7-3.3-5.4-14-11.2-11.1-5.4 2.7-4.6 13.1-3.4 17.8.3-.6.7-1.2 1-1.8-2.5.7-4.7.3-6.7-1.4-1.3-1.4-3.4.7-1.9 2z" fill="#161616"/><path d="m1313.8 128.5c-1.5-.5-3.2-.9-4.4-2-2.5-2.2-.6-5.2 2.2-6.1 3.7-1.2 7.8 0 10.6 2.6 1.4 1.3 3.5-.8 2.1-2.1-4.5-4.2-12.8-5.9-17.5-1-5.2 5.4 1.3 10.1 6.2 11.6 1.8.4 2.6-2.5.8-3z" fill="#161616"/><path d="m1310.6 129.3c4.4 4 10.6 1.5 13.8-2.8 4.4-6-4.7-9.8-9.1-11.6-1.8-.7-3.3 1.8-1.5 2.6 2 .9 9.8 3.7 8.5 6.9-1.3 3.3-6.8 5.3-9.5 2.9-1.5-1.5-3.6.6-2.2 2z" fill="#161616"/></svg>