<?xml version="1.0" encoding="UTF-8"?>
<svg width="32px" height="32px" viewBox="0 0 32 32" version="1.1" xmlns="http://www.w3.org/2000/svg" xmlns:xlink="http://www.w3.org/1999/xlink">
    <title>Group</title>
    <g id="Page-1" stroke="none" stroke-width="1" fill="none" fill-rule="evenodd">
        <g id="Group">
            <rect id="Rectangle" fill="#E5261F" x="0" y="0" width="32" height="32" rx="3"></rect>
            <path d="M16.08,25.336 C17.152,25.336 18.136,25.164 19.032,24.82 C19.928,24.476 20.652,23.96 21.204,23.272 C21.756,22.584 22.032,21.712 22.032,20.656 C22.032,19.792 21.848,19.048 21.48,18.424 C21.112,17.8 20.624,17.24 20.016,16.744 C19.408,16.248 18.72,15.752 17.952,15.256 C17.072,14.648 16.324,14.128 15.708,13.696 C15.092,13.264 14.624,12.82 14.304,12.364 C13.984,11.908 13.824,11.36 13.824,10.72 C13.824,9.952 14.072,9.352 14.568,8.92 C15.064,8.488 15.696,8.272 16.464,8.272 C17.312,8.272 18.028,8.524 18.612,9.028 C19.196,9.532 19.648,10.176 19.968,10.96 C20.288,11.744 20.48,12.552 20.544,13.384 L20.544,13.384 L21.096,13.384 C21.096,12.264 21.1,11.36 21.108,10.672 C21.116,9.984 21.132,9.428 21.156,9.004 L21.16992,8.7568 C21.18784,8.4368 21.2032,8.1552 21.216,7.912 L21.216,7.912 L20.664,7.912 C20.568,8.616 20.392,8.968 20.136,8.968 C20.024,8.968 19.908,8.94 19.788,8.884 C19.668,8.828 19.512,8.744 19.32,8.632 C18.952,8.408 18.512,8.196 18,7.996 C17.488,7.796 16.76,7.696 15.816,7.696 C14.888,7.696 14.012,7.852 13.188,8.164 C12.364,8.476 11.7,8.956 11.196,9.604 C10.692,10.252 10.44,11.08 10.44,12.088 C10.44,12.968 10.636,13.728 11.028,14.368 C11.42,15.008 11.944,15.576 12.6,16.072 C13.256,16.568 13.96,17.064 14.712,17.56 C15.768,18.248 16.632,18.916 17.304,19.564 C17.976,20.212 18.312,21.032 18.312,22.024 C18.312,22.92 18.024,23.592 17.448,24.04 C16.872,24.488 16.168,24.712 15.336,24.712 C14.312,24.712 13.492,24.432 12.876,23.872 C12.26,23.312 11.804,22.572 11.508,21.652 C11.212,20.732 11.032,19.744 10.968,18.688 L10.968,18.688 L10.416,18.688 C10.416,19.952 10.412,20.996 10.404,21.82 C10.396,22.644 10.388,23.312 10.38,23.824 C10.372,24.336 10.352,24.784 10.32,25.168 L10.32,25.168 L10.872,25.168 C10.968,24.464 11.144,24.112 11.4,24.112 C11.592,24.112 11.864,24.224 12.216,24.448 C12.616,24.656 13.112,24.856 13.704,25.048 C14.296,25.24 15.088,25.336 16.08,25.336 Z" id="S" fill="#FFFFFF" fill-rule="nonzero"></path>
        </g>
    </g>
</svg>
